<svg viewBox="0 0 640 302" fill="none" xmlns="http://www.w3.org/2000/svg">
  <defs/>
  <rect width="640" height="302" fill="white"/>
  <circle cx="112" cy="168.936" r="90" fill="#4769B3"/>
  <circle cx="154" cy="96" r="90" fill="#FF1515"/>
  <circle cx="196" cy="168.936" r="90" fill="#7AC556"/>
  <path fill-rule="evenodd" clip-rule="evenodd" d="M154 248.556c28.547-15.09 48-45.083 48-79.62 0-34.536-19.453-64.529-48-79.619-28.547 15.09-48 45.083-48 79.619 0 34.537 19.453 64.53 48 79.62z" fill="#3DD0F7"/>
  <path fill-rule="evenodd" clip-rule="evenodd" d="M201.905 172.125c1.205-32.267-15.043-64.111-44.953-81.379-29.909-17.268-65.61-15.418-92.952 1.76-1.205 32.267 15.043 64.11 44.952 81.379 29.91 17.268 65.611 15.417 92.953-1.76z" fill="#F67CB3"/>
  <path fill-rule="evenodd" clip-rule="evenodd" d="M106 172.125c27.342 17.177 63.043 19.028 92.952 1.76 29.91-17.269 46.158-49.112 44.953-81.38-27.342-17.177-63.043-19.027-92.953-1.759-29.909 17.268-46.157 49.112-44.952 81.379z" fill="#FFF100"/>
  <path d="M201.906 172.105a90.312 90.312 0 00-3.458-28.287c-6.848-23.61-23.107-43.22-44.448-54.501-28.547 15.09-48 45.083-48 79.619 0 1.073.019 2.141.056 3.204A91.27 91.27 0 00117 178.014c22.904 10.289 49.805 10.892 73.924-.009a91.103 91.103 0 0010.982-5.9z" fill="white"/>
  <circle cx="449" cy="168.936" r="90" fill="#FFF100"/>
  <circle cx="491" cy="96" r="90" fill="#F32F9E"/>
  <circle cx="533" cy="168.936" r="90" fill="#00BCF3"/>
  <path fill-rule="evenodd" clip-rule="evenodd" d="M491 248.556c28.547-15.09 48-45.083 48-79.62 0-34.536-19.453-64.529-48-79.619-28.547 15.09-48 45.083-48 79.619 0 34.537 19.453 64.53 48 79.62z" fill="#00B167"/>
  <path fill-rule="evenodd" clip-rule="evenodd" d="M538.905 172.125c1.205-32.267-15.043-64.111-44.953-81.379-29.909-17.268-65.61-15.418-92.952 1.76-1.205 32.267 15.043 64.11 44.952 81.379 29.91 17.268 65.611 15.417 92.953-1.76z" fill="#F8322E"/>
  <path fill-rule="evenodd" clip-rule="evenodd" d="M443 172.125c27.342 17.177 63.043 19.028 92.952 1.76 29.91-17.269 46.158-49.112 44.953-81.38-27.342-17.177-63.043-19.027-92.953-1.759-29.909 17.268-46.157 49.112-44.952 81.379z" fill="#3C46A5"/>
  <path d="M538.906 172.105a90.312 90.312 0 00-3.458-28.287c-6.848-23.61-23.107-43.22-44.448-54.501-28.547 15.09-48 45.083-48 79.619 0 1.073.019 2.141.056 3.204A91.27 91.27 0 00454 178.014c22.904 10.289 49.805 10.892 73.924-.009a91.103 91.103 0 0010.982-5.9z" fill="#464648"/>
  <path d="M97.82 283.402h-4.17L92.714 286H91.36l3.801-9.953h1.149l3.807 9.953H98.77l-.95-2.598zm-3.773-1.08h3.384l-1.696-4.655-1.688 4.655zm6.904-.082c0-1.135.269-2.046.807-2.734.538-.693 1.242-1.039 2.112-1.039.866 0 1.552.296 2.058.888V275.5h1.264V286h-1.162l-.061-.793c-.506.62-1.21.93-2.113.93-.856 0-1.556-.351-2.098-1.053-.538-.702-.807-1.618-.807-2.748v-.096zm1.265.144c0 .838.173 1.495.519 1.969.347.473.825.71 1.436.71.802 0 1.388-.36 1.757-1.08v-3.397c-.379-.697-.96-1.046-1.743-1.046-.62 0-1.103.239-1.45.718-.346.478-.519 1.187-.519 2.126zm6.638-.144c0-1.135.268-2.046.806-2.734.538-.693 1.242-1.039 2.112-1.039.866 0 1.552.296 2.058.888V275.5h1.265V286h-1.162l-.062-.793c-.506.62-1.21.93-2.112.93-.857 0-1.557-.351-2.099-1.053-.538-.702-.806-1.618-.806-2.748v-.096zm1.264.144c0 .838.173 1.495.52 1.969.346.473.825.71 1.435.71.802 0 1.388-.36 1.757-1.08v-3.397c-.378-.697-.959-1.046-1.743-1.046-.62 0-1.103.239-1.449.718-.347.478-.52 1.187-.52 2.126zm8.32 3.616h-1.265v-7.396h1.265V286zm-1.368-9.358c0-.205.062-.379.185-.52.127-.141.314-.212.56-.212.247 0 .433.071.561.212a.746.746 0 01.191.52.718.718 0 01-.191.512c-.128.137-.314.205-.561.205-.246 0-.433-.068-.56-.205a.735.735 0 01-.185-.512zm5.114.17v1.792h1.38v.977h-1.38v4.587c0 .296.061.52.184.67.123.146.333.219.629.219.146 0 .346-.028.602-.082V286a3.68 3.68 0 01-.971.137c-.565 0-.991-.171-1.278-.513-.288-.342-.431-.827-.431-1.456v-4.587h-1.347v-.977h1.347v-1.792h1.265zm4.238 9.188h-1.265v-7.396h1.265V286zm-1.367-9.358c0-.205.061-.379.184-.52.128-.141.315-.212.561-.212.246 0 .433.071.56.212a.746.746 0 01.192.52.718.718 0 01-.192.512c-.127.137-.314.205-.56.205-.246 0-.433-.068-.561-.205a.735.735 0 01-.184-.512zm5.838 7.642l1.832-5.68h1.292L131.364 286h-.964l-2.679-7.396h1.292l1.88 5.68zm7.314 1.853c-1.003 0-1.818-.328-2.447-.985-.629-.66-.944-1.542-.944-2.645v-.233c0-.733.139-1.387.417-1.962a3.295 3.295 0 011.176-1.353 2.96 2.96 0 011.641-.492c.961 0 1.709.317 2.242.95.533.633.8 1.54.8 2.721v.526h-5.011c.018.729.23 1.319.636 1.771.41.446.929.669 1.558.669.447 0 .825-.091 1.135-.273.31-.182.581-.424.814-.725l.772.602c-.62.952-1.549 1.429-2.789 1.429zm-.157-6.631c-.511 0-.939.187-1.285.56-.347.37-.561.889-.643 1.559h3.705v-.096c-.036-.642-.209-1.139-.519-1.49-.31-.355-.73-.533-1.258-.533zm7.936 2.454c0-1.03.137-2.019.41-2.967a8.682 8.682 0 011.238-2.584c.547-.775 1.114-1.321 1.702-1.64l.26.834c-.666.51-1.213 1.289-1.641 2.337-.424 1.049-.656 2.222-.697 3.521l-.007.581c0 1.759.321 3.286.964 4.58.387.775.847 1.381 1.381 1.818l-.26.773c-.606-.337-1.185-.902-1.736-1.695-1.076-1.55-1.614-3.402-1.614-5.558zm7.903 4.177c-1.003 0-1.819-.328-2.448-.985-.629-.66-.943-1.542-.943-2.645v-.233c0-.733.139-1.387.417-1.962a3.295 3.295 0 011.176-1.353 2.96 2.96 0 011.64-.492c.962 0 1.709.317 2.243.95.533.633.799 1.54.799 2.721v.526h-5.01c.018.729.23 1.319.635 1.771.411.446.93.669 1.559.669.447 0 .825-.091 1.135-.273.31-.182.581-.424.813-.725l.773.602c-.62.952-1.55 1.429-2.789 1.429zm-.158-6.631c-.51 0-.938.187-1.285.56-.346.37-.56.889-.642 1.559h3.705v-.096c-.037-.642-.21-1.139-.52-1.49-.31-.355-.729-.533-1.258-.533zm4.54 5.831c0-.219.063-.401.191-.547.132-.146.328-.219.588-.219.26 0 .456.073.588.219a.772.772 0 01.205.547c0 .21-.069.385-.205.526-.132.142-.328.212-.588.212-.26 0-.456-.07-.588-.212a.752.752 0 01-.191-.526zm3.363-3.097c0-1.153.266-2.069.8-2.748.533-.683 1.239-1.025 2.119-1.025.902 0 1.606.319 2.112.957l.062-.82h1.155v7.218c0 .957-.285 1.712-.855 2.263-.565.551-1.326.827-2.283.827a3.8 3.8 0 01-1.565-.342c-.511-.228-.9-.54-1.169-.936l.656-.759c.542.67 1.205 1.005 1.989 1.005.616 0 1.094-.173 1.436-.52.346-.346.519-.834.519-1.463v-.635c-.506.583-1.196.875-2.071.875-.866 0-1.568-.349-2.105-1.046-.534-.697-.8-1.648-.8-2.851zm1.271.144c0 .834.171 1.49.513 1.969.342.473.82.71 1.436.71.797 0 1.383-.362 1.756-1.086V280.6c-.387-.707-.968-1.06-1.743-1.06-.615 0-1.096.239-1.442.718-.347.478-.52 1.187-.52 2.126zm6.918 2.953a.8.8 0 01.192-.547c.132-.146.328-.219.588-.219.259 0 .455.073.587.219a.768.768 0 01.206.547c0 .21-.069.385-.206.526-.132.142-.328.212-.587.212-.26 0-.456-.07-.588-.212a.753.753 0 01-.192-.526zm8.511.663h-1.265v-10.5h1.265V286zm3.404 0h-1.264v-7.396h1.264V286zm-1.367-9.358c0-.205.062-.379.185-.52.127-.141.314-.212.56-.212.246 0 .433.071.561.212a.75.75 0 01.191.52.722.722 0 01-.191.512c-.128.137-.315.205-.561.205-.246 0-.433-.068-.56-.205a.735.735 0 01-.185-.512zm3.097 5.598c0-1.153.266-2.069.8-2.748.533-.683 1.239-1.025 2.119-1.025.902 0 1.606.319 2.112.957l.062-.82h1.155v7.218c0 .957-.285 1.712-.855 2.263-.565.551-1.326.827-2.283.827a3.8 3.8 0 01-1.565-.342c-.511-.228-.9-.54-1.169-.936l.656-.759c.542.67 1.205 1.005 1.989 1.005.615 0 1.094-.173 1.436-.52.346-.346.519-.834.519-1.463v-.635c-.506.583-1.196.875-2.071.875-.866 0-1.568-.349-2.105-1.046-.534-.697-.8-1.648-.8-2.851zm1.271.144c0 .834.171 1.49.513 1.969.342.473.82.71 1.436.71.797 0 1.383-.362 1.756-1.086V280.6c-.387-.707-.968-1.06-1.743-1.06-.615 0-1.096.239-1.442.718-.347.478-.52 1.187-.52 2.126zm8.156-2.885c.56-.688 1.289-1.032 2.187-1.032 1.563 0 2.352.882 2.365 2.645V286h-1.264v-4.895c-.005-.533-.128-.927-.37-1.182-.237-.255-.608-.383-1.114-.383-.41 0-.77.109-1.08.328-.31.219-.551.506-.724.861V286h-1.265v-10.5h1.265v3.999zm8.162-2.687v1.792h1.381v.977h-1.381v4.587c0 .296.061.52.184.67.123.146.333.219.629.219.146 0 .346-.028.602-.082V286a3.68 3.68 0 01-.971.137c-.565 0-.991-.171-1.278-.513-.287-.342-.431-.827-.431-1.456v-4.587h-1.347v-.977h1.347v-1.792h1.265zm5.783 5.216c0 1.017-.135 1.992-.403 2.926a8.558 8.558 0 01-1.224 2.577c-.547.789-1.121 1.349-1.723 1.682l-.266-.773c.701-.537 1.264-1.371 1.688-2.502.428-1.134.647-2.392.656-3.773v-.219c0-.957-.1-1.845-.3-2.666a8.938 8.938 0 00-.841-2.215c-.356-.651-.757-1.159-1.203-1.524l.266-.772c.602.332 1.174.888 1.716 1.668a8.544 8.544 0 011.224 2.577c.273.938.41 1.943.41 3.014zM428.24 281.563c-1.125-.323-1.946-.72-2.461-1.189a2.295 2.295 0 01-.765-1.75c0-.784.312-1.431.936-1.941.629-.515 1.445-.773 2.447-.773.684 0 1.292.132 1.826.397.537.264.952.629 1.244 1.093.296.465.444.973.444 1.525h-1.319c0-.602-.192-1.073-.574-1.415-.383-.347-.923-.52-1.621-.52-.647 0-1.153.144-1.517.431-.36.282-.54.677-.54 1.183 0 .405.171.749.513 1.032.346.278.932.533 1.756.765.83.233 1.477.49 1.942.773.469.278.816.604 1.039.977.228.374.342.814.342 1.32 0 .806-.315 1.453-.944 1.941-.629.483-1.469.725-2.522.725-.684 0-1.322-.13-1.914-.39-.593-.264-1.051-.624-1.374-1.08a2.642 2.642 0 01-.479-1.552h1.32c0 .602.221 1.078.663 1.429.446.346 1.041.519 1.784.519.693 0 1.223-.141 1.593-.423.369-.283.553-.668.553-1.156 0-.487-.171-.863-.512-1.128-.342-.268-.962-.533-1.86-.793zm9.748 3.706c-.492.578-1.214.868-2.167.868-.788 0-1.39-.228-1.804-.684-.411-.46-.618-1.139-.622-2.037v-4.812h1.264v4.778c0 1.121.456 1.681 1.367 1.681.967 0 1.609-.36 1.928-1.08v-5.379h1.265V286h-1.203l-.028-.731zm9.42-2.885c0 1.13-.26 2.039-.779 2.727-.52.684-1.217 1.026-2.092 1.026-.934 0-1.656-.331-2.167-.991l-.061.854h-1.163v-10.5h1.265v3.917c.511-.633 1.215-.95 2.112-.95.898 0 1.602.339 2.113 1.018.515.679.772 1.609.772 2.789v.11zm-1.264-.144c0-.861-.167-1.526-.499-1.996-.333-.469-.812-.704-1.436-.704-.834 0-1.433.387-1.798 1.162v3.199c.388.775.991 1.162 1.812 1.162.606 0 1.077-.234 1.415-.704.337-.469.506-1.175.506-2.119zm4.58-5.428v1.792h1.38v.977h-1.38v4.587c0 .296.061.52.184.67.123.146.333.219.629.219.146 0 .346-.028.602-.082V286a3.68 3.68 0 01-.971.137c-.565 0-.991-.171-1.278-.513-.287-.342-.431-.827-.431-1.456v-4.587h-1.347v-.977h1.347v-1.792h1.265zm6.439 2.926a3.777 3.777 0 00-.622-.048c-.829 0-1.392.354-1.688 1.06V286h-1.265v-7.396h1.23l.021.854c.415-.661 1.002-.991 1.764-.991.246 0 .432.032.56.095v1.176zm5.462 6.262c-.073-.146-.132-.406-.178-.779-.588.61-1.289.916-2.105.916-.729 0-1.329-.205-1.798-.616-.465-.414-.697-.938-.697-1.572 0-.77.291-1.367.875-1.791.588-.428 1.412-.642 2.474-.642h1.231v-.581c0-.442-.132-.793-.397-1.053-.264-.264-.654-.397-1.169-.397-.451 0-.829.114-1.134.342-.306.228-.458.504-.458.827h-1.272c0-.369.13-.724.39-1.066a2.7 2.7 0 011.066-.82 3.605 3.605 0 011.484-.301c.852 0 1.519.214 2.002.642.484.424.734 1.01.752 1.757v3.405c0 .679.087 1.219.26 1.62V286h-1.326zm-2.099-.964a2.22 2.22 0 001.128-.307c.356-.206.613-.472.773-.8v-1.518h-.991c-1.55 0-2.325.454-2.325 1.36 0 .397.132.707.397.93.264.223.604.335 1.018.335zm8.115.068c.451 0 .845-.136 1.182-.41.337-.273.524-.615.561-1.025h1.196a2.302 2.302 0 01-.437 1.21 2.872 2.872 0 01-1.081.916 3.08 3.08 0 01-1.421.342c-1.008 0-1.81-.335-2.407-1.005-.592-.675-.888-1.595-.888-2.762v-.212c0-.72.132-1.36.396-1.921.265-.56.643-.995 1.135-1.305.497-.31 1.082-.465 1.757-.465.829 0 1.517.248 2.064.745.552.497.846 1.142.882 1.934h-1.196c-.037-.478-.219-.87-.547-1.175-.324-.31-.725-.465-1.203-.465-.643 0-1.142.232-1.497.697-.351.46-.527 1.128-.527 2.003v.239c0 .853.176 1.509.527 1.969.351.46.852.69 1.504.69zm6.077-8.292v1.792h1.381v.977h-1.381v4.587c0 .296.061.52.184.67.123.146.333.219.629.219.146 0 .347-.028.602-.082V286a3.674 3.674 0 01-.971.137c-.565 0-.991-.171-1.278-.513-.287-.342-.431-.827-.431-1.456v-4.587h-1.347v-.977h1.347v-1.792h1.265zm4.238 9.188h-1.265v-7.396h1.265V286zm-1.367-9.358c0-.205.061-.379.184-.52.128-.141.315-.212.561-.212.246 0 .433.071.561.212a.75.75 0 01.191.52.722.722 0 01-.191.512c-.128.137-.315.205-.561.205-.246 0-.433-.068-.561-.205a.735.735 0 01-.184-.512zm5.838 7.642l1.832-5.68h1.292L483.898 286h-.963l-2.68-7.396h1.292l1.88 5.68zm7.314 1.853c-1.002 0-1.818-.328-2.447-.985-.629-.66-.943-1.542-.943-2.645v-.233c0-.733.139-1.387.417-1.962a3.286 3.286 0 011.175-1.353 2.96 2.96 0 011.641-.492c.962 0 1.709.317 2.242.95.533.633.8 1.54.8 2.721v.526h-5.011c.018.729.23 1.319.636 1.771.41.446.93.669 1.559.669.446 0 .824-.091 1.134-.273.31-.182.581-.424.814-.725l.772.602c-.62.952-1.549 1.429-2.789 1.429zm-.157-6.631c-.51 0-.939.187-1.285.56-.347.37-.561.889-.643 1.559h3.705v-.096c-.036-.642-.209-1.139-.519-1.49-.31-.355-.729-.533-1.258-.533zm7.937 2.454c0-1.03.136-2.019.41-2.967a8.68 8.68 0 011.237-2.584c.547-.775 1.114-1.321 1.702-1.64l.26.834c-.665.51-1.212 1.289-1.641 2.337-.424 1.049-.656 2.222-.697 3.521l-.007.581c0 1.759.321 3.286.964 4.58.387.775.848 1.381 1.381 1.818l-.26.773c-.606-.337-1.185-.902-1.736-1.695-1.076-1.55-1.613-3.402-1.613-5.558zm7.902 4.177c-1.003 0-1.819-.328-2.447-.985-.629-.66-.944-1.542-.944-2.645v-.233c0-.733.139-1.387.417-1.962a3.295 3.295 0 011.176-1.353 2.96 2.96 0 011.641-.492c.961 0 1.709.317 2.242.95.533.633.8 1.54.8 2.721v.526h-5.011c.018.729.23 1.319.636 1.771.41.446.929.669 1.558.669.447 0 .825-.091 1.135-.273.31-.182.581-.424.813-.725l.773.602c-.62.952-1.55 1.429-2.789 1.429zm-.157-6.631c-.511 0-.939.187-1.286.56-.346.37-.56.889-.642 1.559h3.705v-.096c-.036-.642-.21-1.139-.52-1.49-.309-.355-.729-.533-1.257-.533zm4.539 5.831c0-.219.063-.401.191-.547.132-.146.328-.219.588-.219.26 0 .456.073.588.219a.767.767 0 01.205.547c0 .21-.068.385-.205.526-.132.142-.328.212-.588.212-.26 0-.456-.07-.588-.212a.752.752 0 01-.191-.526zm3.363-3.097c0-1.153.267-2.069.8-2.748.533-.683 1.239-1.025 2.119-1.025.902 0 1.606.319 2.112.957l.062-.82h1.155v7.218c0 .957-.285 1.712-.854 2.263-.566.551-1.327.827-2.284.827a3.8 3.8 0 01-1.565-.342c-.511-.228-.9-.54-1.169-.936l.656-.759c.543.67 1.206 1.005 1.989 1.005.616 0 1.094-.173 1.436-.52.346-.346.52-.834.52-1.463v-.635c-.506.583-1.197.875-2.072.875-.866 0-1.567-.349-2.105-1.046-.533-.697-.8-1.648-.8-2.851zm1.271.144c0 .834.171 1.49.513 1.969.342.473.82.71 1.436.71.797 0 1.383-.362 1.757-1.086V280.6c-.388-.707-.969-1.06-1.744-1.06-.615 0-1.096.239-1.442.718-.346.478-.52 1.187-.52 2.126zm6.918 2.953a.8.8 0 01.192-.547c.132-.146.328-.219.588-.219.259 0 .455.073.588.219a.772.772 0 01.205.547c0 .21-.069.385-.205.526-.133.142-.329.212-.588.212-.26 0-.456-.07-.588-.212a.753.753 0 01-.192-.526zm8.511.663h-1.264v-7.396h1.264V286zm-1.367-9.358a.76.76 0 01.185-.52c.127-.141.314-.212.56-.212.246 0 .433.071.561.212a.75.75 0 01.191.52.722.722 0 01-.191.512c-.128.137-.315.205-.561.205-.246 0-.433-.068-.56-.205a.73.73 0 01-.185-.512zm4.594 1.962l.041.929c.565-.711 1.303-1.066 2.215-1.066 1.563 0 2.351.882 2.365 2.645V286h-1.265v-4.895c-.004-.533-.127-.927-.369-1.182-.237-.255-.608-.383-1.114-.383-.41 0-.77.109-1.08.328a2.23 2.23 0 00-.725.861V286h-1.265v-7.396h1.197zm8.593 3.971l-.793.827V286h-1.265v-10.5h1.265v6.351l.676-.814 2.304-2.433h1.538l-2.878 3.089 3.213 4.307h-1.483l-2.577-3.425zm9.337 1.463c0-.342-.129-.606-.389-.793-.255-.191-.704-.355-1.347-.492-.638-.137-1.146-.301-1.524-.492-.374-.192-.652-.42-.834-.684a1.648 1.648 0 01-.267-.943c0-.606.255-1.119.766-1.538.515-.42 1.171-.629 1.968-.629.839 0 1.518.216 2.038.649.524.433.786.987.786 1.661h-1.272c0-.346-.148-.645-.444-.895-.292-.251-.661-.376-1.108-.376-.46 0-.82.1-1.08.301a.947.947 0 00-.389.786c0 .305.12.535.362.69.242.155.677.303 1.306.445.633.141 1.146.309 1.538.505.392.196.681.433.868.711.191.274.287.609.287 1.005 0 .661-.264 1.192-.793 1.593-.529.396-1.214.595-2.058.595-.592 0-1.116-.105-1.572-.315a2.584 2.584 0 01-1.073-.875 2.146 2.146 0 01-.383-1.223h1.265c.023.423.191.761.506 1.011.319.246.738.369 1.257.369.479 0 .862-.095 1.149-.287.292-.196.437-.455.437-.779zm5.831-2.01c0 1.017-.134 1.992-.403 2.926a8.51 8.51 0 01-1.224 2.577c-.546.789-1.121 1.349-1.722 1.682l-.267-.773c.702-.537 1.265-1.371 1.689-2.502.428-1.134.647-2.392.656-3.773v-.219c0-.957-.1-1.845-.301-2.666a8.898 8.898 0 00-.841-2.215c-.355-.651-.756-1.159-1.203-1.524l.267-.772c.601.332 1.173.888 1.716 1.668a8.542 8.542 0 011.223 2.577c.274.938.41 1.943.41 3.014z" fill="black"/>
</svg>
