<svg viewBox="0 0 707 255" fill="none" xmlns="http://www.w3.org/2000/svg">
  <defs/>
  <rect x="182" width="515" height="255" fill="#00BCF3"/>
  <rect width="182" height="255" fill="white"/>
  <text fill="black" xml:space="preserve" style="white-space:pre" font-family="Roboto, sans-serif" font-size="18" letter-spacing="0em">
    <tspan x="78" y="96.65">#DE9746</tspan>
  </text>
  <circle cx="44.5" cy="89.5" r="17.5" fill="#FF8A0E"/>
  <text fill="black" xml:space="preserve" style="white-space:pre" font-family="Roboto, sans-serif" font-size="18" letter-spacing="0em">
    <tspan x="78" y="151.65">#00BCF3</tspan>
  </text>
  <circle cx="44.5" cy="145.5" r="17.5" fill="#00BCF3"/>
  <path d="M338.31 74.31a28.8 28.8 0 01-.97 7.35c-.29 1.14-.66 2.14-1.12 3a3.8 3.8 0 01-1.5 1.68c-.23.13-.56.26-1 .41a19.01 19.01 0 01-4.69.69 5.6 5.6 0 01-2.6-.75c-.43-.27-.8-.6-1.12-.97-.29-.4-.44-.84-.44-1.34 0-.42 0-.85-.03-1.29l-.03-1.28c0-1.35.02-2.75.06-4.19.05-1.45.07-2.94.07-4.46a73.38 73.38 0 00-.5-8.7c-.48.32-.92.73-1.31 1.23a20 20 0 00-2.07 3.37c-.31.6-.64 1.17-1 1.69-.31.48-.69.89-1.12 1.22-.44.33-.78.7-1.03 1.12-.25.42-.4.83-.44 1.22-.04.4-.15.75-.31 1.06-.17.3-.47.54-.91.72a6.4 6.4 0 01-2.19.22c-.64 0-1.15-.11-1.53-.34a3.35 3.35 0 01-.94-.94 12.5 12.5 0 01-.78-1.4c-.25-.53-.57-1.09-.97-1.7a4.68 4.68 0 00-.75-.8 3.94 3.94 0 01-.65-.79 23.5 23.5 0 01-1.56-2.87l-.75-1.56-.66-1.44a87.84 87.84 0 01.12 5.06v5.88l.1 2.25c.02.43.07.88.15 1.34l.25 1.4.29 1.44c.08.48.12.94.12 1.38 0 .44-.04.76-.13.97-.06.2-.16.4-.3.56-.15.15-.34.3-.57.47a10.73 10.73 0 00-1.66 1.81c-.25.38-.53.72-.84 1.03-.31.31-.66.58-1.03.78-.38.21-.82.32-1.35.32a8.13 8.13 0 01-3.94-1.06 5.03 5.03 0 01-1.43-1.29 2.85 2.85 0 01-.53-1.69c0-.79.1-1.76.28-2.9.2-1.15.31-2.38.31-3.69a7 7 0 01.31-2.22l.32-.9c.1-.32.19-.68.25-1.1a68.26 68.26 0 00.47-6.69l.12-2.4c.02-.38.06-.74.13-1.1.08-.35.15-.71.21-1.09.09-.37.15-.76.2-1.16.06-.4.09-.83.09-1.3 0-.45-.05-.85-.13-1.23-.06-.37-.13-.76-.22-1.15l-.25-1.25c-.06-.46-.1-.98-.1-1.56 0-.38.06-.79.17-1.22a67.31 67.31 0 01.97-2.94c.18-.52.36-1.05.52-1.6.09-.27.14-.54.16-.8l.03-.76c0-.25.01-.46.03-.62.03-.17.08-.3.16-.38.04-.08.18-.17.4-.28a24.47 24.47 0 011.48-.6l.5-.15c.29 0 .55.1.78.28.25.17.58.3 1 .38.6.12 1.2.2 1.78.25.6.04 1.15.1 1.65.15.53.07 1 .16 1.41.28.44.13.8.35 1.06.66.3.31.56.72.81 1.22a39.45 39.45 0 011.44 3.19c.25.56.5 1.07.75 1.53.23.42.5.8.81 1.16.32.33.56.67.72 1.03.13.23.2.5.22.8.02.3.1.56.25.79a136.17 136.17 0 001.69 2.97l1.13 1.75c.35.52.58.78.68.78.25 0 .48-.18.69-.53.23-.36.45-.8.66-1.31l.65-1.66c.23-.6.48-1.15.75-1.63.34-.54.71-1.05 1.13-1.53a8.06 8.06 0 001.62-3.18l.66-1.97c.23-.71.48-1.42.75-2.13.29-.7.61-1.34.97-1.9.35-.59.75-1.06 1.19-1.41.43-.35.93-.53 1.5-.53a2.35 2.35 0 011.25.4l.68.41c.25.15.56.28.94.4.35.11.7.2 1.06.26.38.06.73.12 1.06.19.34.06.64.14.91.24.3.09.54.23.75.44.21.23.38.52.5.88.13.35.22.74.28 1.15a33.01 33.01 0 01.25 2.78c0 .71-.02 1.4-.06 2.07-.04.64-.06 1.26-.06 1.84a7.34 7.34 0 00.34 2.34 9.56 9.56 0 01.4 2.9c0 .66-.01 1.33-.06 2.04-.04.69-.06 1.36-.06 2 0 .8.06 1.43.16 1.9a5.65 5.65 0 00.97 2.04 4.5 4.5 0 01.69 1.72 39.77 39.77 0 01.34 2l.1.84zM376.12 69.13a147.65 147.65 0 01-.44 3.09l-.22 1.56c-.06.44-.1.68-.12.72-.1.23-.3.47-.56.72-.28.25-.5.55-.66.9-.06.17-.08.38-.06.63.02.25-.02.49-.13.72a.69.69 0 01-.28.4.69.69 0 00-.28.41c-.3.88-.57 1.87-.85 2.97l-.78 3.28a62.9 62.9 0 01-.78 3c-.25.94-.5 1.68-.75 2.22-.1.2-.24.4-.4.56a7.1 7.1 0 01-.57.56c-.18.2-.37.38-.56.57a2.41 2.41 0 00-.6 1.28 2.37 2.37 0 01-.47 1.16c-.07.12-.16.23-.24.34-.06.1-.12.2-.16.31-.04.1-.06.24-.06.4 0 .13.01.25.03.35.02.1.03.22.03.34 0 .34-.15.7-.47 1.07-.3.37-.73.74-1.25 1.1a18 18 0 01-5.88 2.5c-.66.14-1.26.21-1.8.21a7 7 0 01-2.82-.72 22.52 22.52 0 01-3.15-1.75 34.44 34.44 0 01-4.78-3.75 1.97 1.97 0 01-.25-.62 2.35 2.35 0 00-.54-.97 3.49 3.49 0 00-.68-.6c-.23-.12-.4-.25-.5-.37-.4-.67-.6-1.3-.6-1.9 0-.49.1-1.05.32-1.7.18-.66.45-1.35.8-2.06.36-.73.77-1.44 1.23-2.12.48-.69.99-1.3 1.53-1.85a7.57 7.57 0 011.69-1.34 3.35 3.35 0 011.75-.53c.5 0 .96.11 1.4.34.46.23.87.59 1.22 1.06.1.2.18.46.22.82a2.46 2.46 0 001.1 1.75c.33.23.59.5.77.81.34.46.57.93.7 1.4.12.49.3.87.52 1.16.17.21.38.45.63.72a6.01 6.01 0 001.6 1.25c.26.15.5.22.71.22.3-.04.54-.2.75-.5.21-.31.4-.66.56-1.03.2-.38.35-.75.47-1.13a7.17 7.17 0 01.81-1.62l.63-.97c.2-.35.39-.7.53-1.03.15-.36.22-.66.22-.9 0-.28-.17-.5-.5-.7a14.69 14.69 0 00-2.78-1.06 13 13 0 01-4.47-2.69 12.52 12.52 0 01-1.88-2.28c-.5-.8-.94-1.66-1.34-2.56-.4-.92-.87-1.9-1.44-2.94-.16-.29-.36-.57-.59-.84a5.27 5.27 0 01-.63-.94c-.2-.35-.4-.69-.56-1l-.44-.94a19 19 0 00-.43-1 12.21 12.21 0 00-1.1-2.12l-.56-1.03c-.19-.38-.35-.74-.5-1.1a3.36 3.36 0 01-.19-1.06c0-.66.23-1.16.7-1.5.45-.33.95-.5 1.5-.5.72 0 1.33.17 1.83.5.5.31.95.74 1.35 1.28.42.52.81 1.13 1.19 1.82.4.68.85 1.4 1.37 2.12.25.33.52.62.81.84a7.3 7.3 0 002.03 1.13c.38.17.75.35 1.13.56.17.15.32.33.47.53.14.21.31.38.5.5.23.13.49.23.78.32.3.08.5.17.63.28.3.31.62.7.93 1.19a48.7 48.7 0 012 3.09c.36.52.71.99 1.06 1.4.36.42.7.77 1.04 1.04.35.25.7.37 1.03.37.06-.02.12-.19.19-.5.08-.31.15-.7.21-1.16a56.12 56.12 0 00.34-3.25 22.22 22.22 0 00.16-2.53c0-.23-.03-.53-.09-.9-.06-.4-.13-.8-.22-1.19l-.22-1.1c-.06-.35-.1-.59-.1-.71.05-.1.07-.22.07-.35v-.47c0-.33 0-.68-.03-1.06l-.03-.94c0-.47.13-.85.4-1.12.3-.3.65-.53 1.07-.72.44-.19.9-.35 1.4-.5.5-.17.97-.36 1.41-.6l.66-.27a13.56 13.56 0 011.65-.63c.27-.08.5-.12.69-.12.17 0 .33.13.5.4.17.25.32.59.47 1a15.65 15.65 0 01.72 2.88c.1.5.18.96.22 1.37.06.42.09.75.09 1a6 6 0 01-.16 1.25c-.08.48-.18.97-.3 1.47-.11.5-.23.98-.35 1.44-.1.46-.18.84-.22 1.16zM435.57 82.5l.13 1.16a5.67 5.67 0 01.03 1.72c-.04.16-.11.3-.22.43-.08.13-.2.26-.37.4-.15.15-.34.37-.56.67a33 33 0 00-.75 1.25c-.23.43-.51.83-.85 1.18-.31.36-.69.65-1.12.88-.42.25-.93.37-1.54.37a30.66 30.66 0 01-2.5-.25l-1.25-.18c-.4-.05-.75-.07-1.09-.07-1.44 0-2.9-.02-4.37-.06a21.97 21.97 0 01-4.16-.56c-.44-.13-.9-.23-1.38-.31-.47-.1-.95-.22-1.43-.35-.48-.12-.94-.27-1.38-.44-.44-.18-.81-.4-1.12-.65-.9-.9-1.62-1.88-2.16-2.94a16.94 16.94 0 01-1.25-3.6c-.29-1.33-.5-2.8-.62-4.43-.13-1.63-.23-3.45-.32-5.47-.04-.7-.11-1.39-.22-2.03-.1-.65-.15-1.15-.15-1.5 0-.17.07-.43.22-.78a4.98 4.98 0 00.47-2.34c0-.46.02-.75.06-.85.06-.15.19-.31.37-.5l.66-.66.72-.68c.25-.25.46-.5.62-.72.15-.21.5-.46 1.07-.75.58-.31 1.3-.65 2.15-1 .86-.36 1.81-.7 2.88-1.03a41.74 41.74 0 016.6-1.63c1.12-.19 2.16-.29 3.12-.31.4 0 .83.07 1.3.22.5.14 1 .34 1.48.6a9.77 9.77 0 012.6 1.74c.16.17.31.45.46.84.15.38.31.7.5.94.46.59.77 1.02.94 1.31.19.3.3.56.34.79.06.23.08.48.06.75-.02.27 0 .68.07 1.25a47.17 47.17 0 01.12 1.9v1.5c0 .6-.16 1.1-.47 1.47-.31.38-.74.72-1.28 1.03-.54.31-1.2.62-1.97.9-.75.3-1.56.65-2.44 1.07a8.8 8.8 0 01-2.34.75c-.83.15-1.6.22-2.31.22h-.25a.72.72 0 01-.25-.06c-.15-.02-.4.02-.75.12-.36.1-.76.23-1.22.38-.46.12-.96.25-1.5.37a7.8 7.8 0 01-1.53.16c-.34 0-.66.05-.97.16a2.95 2.95 0 00-1.34.78c-.13.14-.2.28-.2.4 0 .73.13 1.31.38 1.75.27.44.57.77.88 1 .37.27.79.46 1.25.56a6.51 6.51 0 002.94.57c.79 0 1.61-.06 2.46-.19.88-.13 1.87-.19 2.97-.19.52 0 .96.06 1.32.19.37.13.77.19 1.18.19a7 7 0 001.32-.13c.43-.08.85-.17 1.25-.28l1.12-.28c.38-.08.72-.13 1.03-.13.81 0 1.4.29 1.75.85.38.54.65 1.38.81 2.53zm-12.09-14.38c.04-.1.07-.21.1-.34a6.6 6.6 0 00-.16-2.03c-.1-.5-.24-.92-.4-1.25a2.09 2.09 0 00-.5-.78c-.2-.19-.36-.28-.5-.28a26.64 26.64 0 00-6.4 1.56c-.66.27-1.06.52-1.2.75-.1.17-.18.42-.22.75-.04.31-.06.68-.06 1.1 0 .87.05 1.55.15 2.03.13.47.34.71.63.71.19 0 .4-.03.62-.09l.66-.19.6-.22.43-.12c.46-.08 1.02-.15 1.69-.19.66-.04 1.31-.1 1.94-.19.64-.1 1.2-.24 1.68-.4.5-.19.82-.46.94-.81zM473.32 69.13a147.65 147.65 0 01-.44 3.09l-.22 1.56c-.06.44-.1.68-.12.72-.1.23-.3.47-.56.72-.28.25-.5.55-.66.9-.06.17-.08.38-.06.63.02.25-.02.49-.13.72a.69.69 0 01-.28.4.69.69 0 00-.28.41c-.3.88-.57 1.87-.84 2.97-.28 1.1-.54 2.2-.79 3.28a62.9 62.9 0 01-.78 3c-.25.94-.5 1.68-.75 2.22-.1.2-.24.4-.4.56a7.1 7.1 0 01-.57.56c-.18.2-.37.38-.56.57a2.41 2.41 0 00-.6 1.28 2.37 2.37 0 01-.47 1.16c-.07.12-.16.23-.24.34-.06.1-.12.2-.16.31-.04.1-.06.24-.06.4 0 .13.01.25.03.35.02.1.03.22.03.34 0 .34-.15.7-.47 1.07-.3.37-.73.74-1.25 1.1a18 18 0 01-5.88 2.5c-.66.14-1.26.21-1.8.21a7 7 0 01-2.82-.72 22.52 22.52 0 01-3.15-1.75 34.44 34.44 0 01-4.78-3.75 1.97 1.97 0 01-.25-.62 2.35 2.35 0 00-.53-.97 3.49 3.49 0 00-.7-.6c-.22-.12-.39-.25-.5-.37-.39-.67-.59-1.3-.59-1.9 0-.49.1-1.05.32-1.7.18-.66.45-1.35.8-2.06.36-.73.77-1.44 1.23-2.12.48-.69.99-1.3 1.53-1.85a7.57 7.57 0 011.69-1.34 3.35 3.35 0 011.75-.53c.5 0 .97.11 1.4.34.46.23.87.59 1.22 1.06.1.2.18.46.22.82a2.46 2.46 0 001.1 1.75c.33.23.59.5.78.81.33.46.56.93.68 1.4.13.49.3.87.53 1.16.17.21.38.45.63.72a6.01 6.01 0 001.6 1.25c.26.15.5.22.71.22.3-.04.54-.2.75-.5.21-.31.4-.66.56-1.03.2-.38.35-.75.47-1.13a7.17 7.17 0 01.81-1.62l.63-.97c.2-.35.38-.7.53-1.03.15-.36.22-.66.22-.9 0-.28-.17-.5-.5-.7a14.69 14.69 0 00-2.78-1.06 13 13 0 01-4.47-2.69 12.52 12.52 0 01-1.88-2.28c-.5-.8-.94-1.66-1.34-2.56-.4-.92-.87-1.9-1.44-2.94-.16-.29-.36-.57-.59-.84a5.27 5.27 0 01-.63-.94c-.2-.35-.4-.69-.56-1l-.44-.94a19 19 0 00-.43-1 12.21 12.21 0 00-1.1-2.12l-.56-1.03c-.19-.38-.35-.74-.5-1.1a3.36 3.36 0 01-.19-1.06c0-.66.23-1.16.7-1.5.45-.33.95-.5 1.5-.5.72 0 1.34.17 1.84.5.5.31.94.74 1.34 1.28.42.52.81 1.13 1.19 1.82.4.68.85 1.4 1.37 2.12.25.33.52.62.81.84a7.3 7.3 0 002.04 1.13c.37.17.75.35 1.12.56.17.15.32.33.47.53.14.21.31.38.5.5.23.13.49.23.78.32.3.08.5.17.63.28.3.31.62.7.93 1.19a48.7 48.7 0 012 3.09c.36.52.71.99 1.06 1.4.36.42.7.77 1.04 1.04.35.25.7.37 1.03.37.06-.02.12-.19.19-.5.08-.31.15-.7.21-1.16a56.12 56.12 0 00.34-3.25 22.22 22.22 0 00.16-2.53c0-.23-.03-.53-.09-.9-.06-.4-.14-.8-.22-1.19l-.22-1.1c-.06-.35-.1-.59-.1-.71.05-.1.07-.22.07-.35v-.47c0-.33 0-.68-.03-1.06l-.03-.94c0-.47.13-.85.4-1.12.3-.3.65-.53 1.07-.72.44-.19.9-.35 1.4-.5.5-.17.97-.36 1.41-.6.17-.08.38-.17.66-.27a13.56 13.56 0 011.65-.63c.27-.08.5-.12.69-.12.17 0 .33.13.5.4.17.25.32.59.47 1a15.65 15.65 0 01.72 2.88c.1.5.17.96.22 1.37.06.42.09.75.09 1a6 6 0 01-.16 1.25c-.08.48-.18.97-.3 1.47-.11.5-.23.98-.35 1.44-.1.46-.18.84-.22 1.16zM511.63 82.5l.12 1.16a5.67 5.67 0 01.03 1.72c-.04.16-.11.3-.22.43-.08.13-.2.26-.37.4-.15.15-.34.37-.56.67a33 33 0 00-.75 1.25c-.23.43-.51.83-.85 1.18-.31.36-.69.65-1.12.88-.42.25-.93.37-1.54.37a30.66 30.66 0 01-2.5-.25l-1.25-.18c-.4-.05-.75-.07-1.09-.07-1.44 0-2.9-.02-4.37-.06a21.97 21.97 0 01-4.16-.56c-.44-.13-.9-.23-1.38-.31-.47-.1-.95-.22-1.43-.35-.48-.12-.94-.27-1.38-.44-.44-.18-.81-.4-1.12-.65a11.6 11.6 0 01-2.16-2.94 16.94 16.94 0 01-1.25-3.6c-.29-1.33-.5-2.8-.62-4.43-.13-1.63-.23-3.45-.32-5.47-.04-.7-.11-1.39-.21-2.03-.1-.65-.16-1.15-.16-1.5 0-.17.07-.43.22-.78a4.98 4.98 0 00.47-2.34c0-.46.02-.75.06-.85.06-.15.19-.31.37-.5l.66-.66.72-.68c.25-.25.46-.5.62-.72.15-.21.5-.46 1.07-.75.58-.31 1.3-.65 2.15-1 .86-.36 1.81-.7 2.88-1.03a41.5 41.5 0 016.6-1.63c1.12-.19 2.16-.29 3.12-.31.4 0 .83.07 1.3.22.5.14 1 .34 1.48.6a9.76 9.76 0 012.6 1.74c.16.17.31.45.46.84.15.38.31.7.5.94.46.59.77 1.02.94 1.31.19.3.3.56.34.79.06.23.09.48.06.75-.02.27 0 .68.07 1.25a47.17 47.17 0 01.12 1.9v1.5c0 .6-.15 1.1-.47 1.47-.31.38-.74.72-1.28 1.03-.54.31-1.2.62-1.97.9-.75.3-1.56.65-2.44 1.07a8.8 8.8 0 01-2.34.75c-.83.15-1.6.22-2.31.22h-.25a.72.72 0 01-.25-.06c-.15-.02-.4.02-.75.12-.36.1-.76.23-1.22.38-.46.12-.96.25-1.5.37a7.8 7.8 0 01-1.53.16c-.34 0-.66.05-.97.16a2.95 2.95 0 00-1.34.78c-.13.14-.2.28-.2.4 0 .73.13 1.31.38 1.75.28.44.57.77.88 1 .37.27.79.46 1.25.56a6.51 6.51 0 002.94.57c.79 0 1.61-.06 2.46-.19.88-.13 1.87-.19 2.97-.19.53 0 .96.06 1.32.19.37.13.77.19 1.18.19a7 7 0 001.32-.13c.43-.08.85-.17 1.25-.28l1.12-.28c.38-.08.72-.13 1.03-.13.81 0 1.4.29 1.75.85.38.54.65 1.38.81 2.53zm-12.1-14.38c.04-.1.07-.21.1-.34a6.6 6.6 0 00-.16-2.03c-.1-.5-.24-.92-.4-1.25a2.09 2.09 0 00-.5-.78c-.2-.19-.36-.28-.5-.28a26.72 26.72 0 00-6.4 1.56c-.66.27-1.05.52-1.2.75-.1.17-.18.42-.22.75-.04.31-.06.68-.06 1.1 0 .87.05 1.55.15 2.03.13.47.34.71.63.71.19 0 .4-.03.62-.09l.66-.19.6-.22.43-.12c.46-.08 1.02-.15 1.69-.19.66-.04 1.31-.1 1.94-.19.64-.1 1.2-.24 1.68-.4.5-.19.82-.46.94-.81zM547.65 84.63c-.08.18-.2.36-.38.53a18.66 18.66 0 01-1.19 1.03 5.96 5.96 0 00-1.5 2c-.2.5-.44.9-.71 1.19a10.96 10.96 0 01-.97.75 23.72 23.72 0 00-.84.65c-.2.1-.4.16-.63.16a15.33 15.33 0 01-2.34-.06 16.4 16.4 0 00-1.75-.1c-.59 0-1.17.1-1.75.28-.59.19-1.18.28-1.78.28-.52 0-1.03.01-1.53.03a24.38 24.38 0 01-4.9-.19 8.87 8.87 0 01-2.82-.87c-.86-.41-1.63-1-2.32-1.75a9.46 9.46 0 01-1.68-2.9c-.1-.25-.18-.52-.22-.82l-.07-.97c0-.33 0-.66-.03-1 0-.35-.02-.68-.06-1a30.8 30.8 0 00-.5-2.15 7.21 7.21 0 01-.22-1.69c0-.56.15-1.07.44-1.53.3-.46.69-.84 1.19-1.16a5.96 5.96 0 011.78-.75 8.27 8.27 0 012.19-.28c.41 0 .76.01 1.03.03.29.02.57.09.84.2.3.07.6.23.9.46.34.2.76.51 1.26.9.18.21.42.41.72.6.3.17.52.31.62.44.15.19.25.4.31.65l.25.78c.09.28.2.53.32.75.12.23.3.42.53.57.2.23.43.4.68.5.25.1.48.22.7.34.22.1.4.25.55.44.15.19.22.47.22.84 0 .19 0 .37-.03.53a4.2 4.2 0 00-.03.5c0 .34.09.63.25.88a2.47 2.47 0 001.53 1.03 3.52 3.52 0 003.94-1.6c.2-.39.31-.84.31-1.34 0-.4-.08-.84-.25-1.34a5.93 5.93 0 01-.22-1.66l.03-.9c.03-.34.04-.64.04-.91 0-.48-.21-.89-.63-1.22-.4-.35-.93-.67-1.6-.94-.66-.27-1.42-.5-2.27-.72l-2.57-.62c-.85-.2-1.68-.43-2.5-.66a11.3 11.3 0 01-2.12-.8c-.34-.18-.67-.42-1-.73a8.24 8.24 0 00-1-.9c-.44-.34-.86-.64-1.25-.91-.4-.3-.75-.64-1.06-1.03a4.6 4.6 0 01-.7-1.44 7.88 7.88 0 01-.24-2.19c0-1.62.22-2.9.65-3.84a5.04 5.04 0 011.88-2.22c.81-.52 1.8-.88 2.97-1.1 1.16-.2 2.47-.38 3.9-.52l2.07-.2c.75-.07 1.49-.12 2.22-.12a7 7 0 011.87.32 10.13 10.13 0 014.31 2.53 6.7 6.7 0 011.57 2.22c.1.25.2.47.3.65.11.17.2.34.26.5a2.08 2.08 0 01.25 1.03c-.08.5-.22.91-.4 1.22-.17.3-.4.51-.7.66-.29.14-.64.24-1.06.28-.4.04-.86.06-1.4.06h-.63a4.19 4.19 0 01-1.78-.69c-.52-.33-1.05-.68-1.6-1.06-.53-.37-1.07-.72-1.59-1.03-.5-.33-.94-.53-1.31-.6a8.1 8.1 0 00-1.63-.18c-.95 0-1.71.2-2.28.6-.56.37-.84.83-.84 1.37 0 .33.17.7.5 1.1a10.23 10.23 0 003.28 2.43c.17.06.4.08.69.06.31-.02.6.02.84.13.19.06.36.16.5.31.15.13.32.2.53.25.52.17 1.08.28 1.66.34.58.05 1.13.15 1.66.32 1.58.48 2.85.99 3.8 1.53a6.52 6.52 0 012.29 2.1c.56.82.98 1.87 1.25 3.12.3 1.25.55 2.8.78 4.68.06.55.16 1 .28 1.38a2.83 2.83 0 01-.06 2.16zM569.4 85.97c0 .17-.12.42-.35.75-.2.33-.37.74-.47 1.22a45.77 45.77 0 00-.4 2.22 20.65 20.65 0 01-.57 2.15l-.65 1.78a13.6 13.6 0 01-.88 1.94 6.1 6.1 0 01-1.16 1.56c-.41.44-.9.66-1.46.66-.42 0-.8-.06-1.16-.19a3.4 3.4 0 01-.88-.4c-.25-.15-.44-.3-.59-.47-.12-.17-.19-.3-.19-.4 0-.38.09-.76.25-1.13.17-.38.25-.77.25-1.2 0-.28 0-.57-.03-.87-.02-.27-.03-.55-.03-.84v-.72c.02-.25.08-.5.19-.75a11.44 11.44 0 01-1.72.13 5.3 5.3 0 01-2.19-.38 3.16 3.16 0 01-1.25-.97c-.27-.4-.45-.83-.53-1.31a8.79 8.79 0 010-3c.08-.54.2-1.04.34-1.5.17-.48.37-.9.6-1.25.23-.38.49-.65.78-.81a4.56 4.56 0 011.38-.22 9 9 0 01.75-.03 3.35 3.35 0 001.68-.6l.75-.53a4 4 0 01.69-.4 2 2 0 01.9-.2 3 3 0 011.35.35 8.4 8.4 0 012.53 2.1c.4.43.74.86 1.03 1.28.3.41.52.81.69 1.19.19.35.3.63.34.84zM325.44 142.81c-.04.17-.14.36-.28.56a39.4 39.4 0 01-1.13 1.6c-.2.31-.4.66-.56 1.03l-.69 1.4c-.19.4-.37.77-.56 1.1a5.54 5.54 0 01-1.5 1.88c-.36.33-.67.56-.94.68-.25.13-.53.21-.84.25-.31.06-.69.1-1.13.13-.41.04-.97.13-1.65.28-.55.12-1.04.28-1.47.47-.44.19-.82.3-1.16.34-.48 0-1-.08-1.56-.25a6.41 6.41 0 00-1.88-.25l-1.28.03a27.99 27.99 0 01-3.34-.03c-.65-.04-1.3-.15-1.97-.31a7 7 0 01-1.94-.69c-.52-.29-1.07-.58-1.65-.87a16.87 16.87 0 00-1.57-.47l-.75-.25c-.2-.09-.35-.18-.43-.28a2.1 2.1 0 01-.38-1l-.28-1.63c-.08-.6-.19-1.23-.31-1.87-.1-.67-.25-1.28-.44-1.85a5.05 5.05 0 00-.4-.94l-.38-.8c-.1-.28-.2-.58-.28-.91a6.9 6.9 0 01-.1-1.25c0-1.07.08-2.13.22-3.2.17-1.08.25-2.04.25-2.9 0-.48-.03-.96-.1-1.44-.03-.5-.05-.97-.05-1.43 0-.84.14-1.72.43-2.66.32-.96.6-1.97.85-3.03.29-1.3.53-2.48.72-3.56.18-1.1.4-2.22.62-3.35a5.67 5.67 0 012.16-3.22 6.7 6.7 0 011.87-1c.71-.27 1.48-.44 2.31-.53.05 0 .08-.03.1-.09.04-.06.11-.1.22-.1 1.41 0 2.79.02 4.12.04 1.36.02 2.62.16 3.78.44 1.17.25 2.23.68 3.2 1.3a7.52 7.52 0 012.43 2.76c.16.27.27.57.31.9a4.98 4.98 0 001.28 2.28c.4.38.71.78.94 1.2.23.47.42.98.56 1.52.15.55.37 1.08.66 1.6.33.6.69 1.19 1.06 1.75a29.56 29.56 0 011.85 3.19c.2.5.3.99.3 1.46 0 .3 0 .59-.02.88-.03.29-.04.6-.04.9 0 .4.07.79.2 1.16.12.38.2.76.24 1.16 0 .6-.05 1.23-.15 1.87-.1.65-.16 1.3-.16 1.97 0 .25.03.54.1.88a39.43 39.43 0 01.46 2c.09.33.13.63.13.9v.25zm-11.06-6.1c0-.47-.08-.86-.22-1.15a7.05 7.05 0 01-.6-2.37 5.2 5.2 0 00-.22-1.25c-.12-.42-.28-.85-.46-1.28-.2-.44-.3-.87-.35-1.28 0-.21.01-.41.03-.6a9.08 9.08 0 00-.37-3.25c-.25-.9-.59-1.7-1-2.44a6.9 6.9 0 00-1.44-1.84 2.36 2.36 0 00-1.6-.72 8.41 8.41 0 00-1.34.1l-.53.06c-.14 0-.22-.01-.22-.03a.82.82 0 00-.31.53c-.04.2-.06.46-.06.75 0 .23 0 .49.03.78a10.65 10.65 0 01-.22 2.84 65.99 65.99 0 00-.84 6.81c-.03.1-.1.25-.22.41-.1.17-.23.35-.38.56l-.37.57c-.1.18-.17.34-.19.47-.13.5-.19 1-.19 1.53 0 1.18.12 2.14.35 2.87.22.73.6 1.3 1.12 1.72.52.4 1.2.67 2.03.81a18.36 18.36 0 004.22.19c.34-.04.6-.12.78-.22.19-.1.42-.35.69-.75a14.67 14.67 0 001.53-2.78c.21-.48.32-.82.35-1.03zM364.46 144.28a2.57 2.57 0 01-1.1 1.5c-.57.42-1.3.77-2.15 1.06a20.12 20.12 0 01-5.66.84c-.7 0-1.26-.14-1.68-.43-.4-.3-.7-.7-.9-1.22a7.03 7.03 0 01-.41-1.94c-.05-.77-.07-1.62-.07-2.56 0-1 .02-2 .07-3 .04-1 .06-1.91.06-2.75 0-.29-.03-.61-.1-.97-.06-.37-.13-.75-.21-1.12l-.2-1.03a4.66 4.66 0 010-1.85c.07-.4.1-.77.1-1.12 0-.52-.12-.93-.37-1.22-.25-.3-.68-.44-1.28-.44a6.91 6.91 0 00-2.16.5 21.5 21.5 0 00-1.56.72c-.44.19-.87.38-1.28.6-.4.2-.75.43-1.07.68-.3.23-.56.5-.75.78a1.6 1.6 0 00-.28.94c0 .42.06.93.16 1.53a16.6 16.6 0 01.34 3.75c-.02.65.02 1.23.13 1.75.08.46.16.85.25 1.19l.22.97a6.27 6.27 0 01.25 2c0 .37.03.73.09 1.06l.25 1.03c.1.35.2.72.28 1.1.08.37.13.79.13 1.25 0 .87-.23 1.55-.7 2.03-.43.47-1.02.83-1.77 1.06-.73.23-1.57.36-2.53.4-.96.05-1.94.07-2.94.07-.5 0-.89-.06-1.16-.16-.25-.1-.44-.28-.56-.53-.13-.25-.2-.58-.22-1a34.95 34.95 0 01.34-6.69l.1-1.65c.06-.65.1-1.3.12-1.97a78.8 78.8 0 00.16-3.47c0-.27-.13-.5-.4-.66l-.91-.6c-.31-.22-.6-.5-.88-.8-.27-.34-.4-.78-.4-1.35 0-.5.07-.9.21-1.19.15-.29.33-.5.54-.65.23-.17.46-.3.71-.38.25-.1.48-.22.7-.34.22-.13.4-.3.55-.5.15-.23.22-.55.22-.97 0-.7-.1-1.49-.3-2.34-.2-.86-.29-1.8-.29-2.85 0-1 .04-2.02.13-3.06.08-1.04.12-2.06.12-3.06 0-.73-.07-1.48-.22-2.25-.14-.77-.22-1.48-.22-2.13 0-.3.08-.66.22-1.06a4.28 4.28 0 011.63-2.06c.4-.25.85-.38 1.37-.38.48 0 .89.15 1.22.44.33.27.6.64.81 1.1.23.43.4.94.5 1.53.13.56.22 1.14.28 1.75.09.58.14 1.16.16 1.75.04.56.1 1.06.16 1.5a374.45 374.45 0 00.47 4.97c.1.8.22 1.5.37 2.09.15.58.33.87.56.87.21 0 .48-.09.81-.28.36-.2.72-.44 1.1-.69l1.12-.75c.38-.25.7-.42.94-.53a15.29 15.29 0 017.97-.9 5.07 5.07 0 012.53 1.19c.31.27.62.57.9.9.32.31.64.65.98 1a10.82 10.82 0 001.8 1.34c.2.09.37.2.54.32.17.1.3.24.4.4.11.15.16.36.16.63 0 .25-.02.53-.06.84a5.03 5.03 0 00.16 2.28l.46 1.57c.2.54.36 1.11.5 1.72.15.58.22 1.17.22 1.78 0 .2-.04.46-.12.75-.08.29-.18.57-.28.84l-.25.72-.1.31c0 .31.1.62.32.9.2.28.3.6.3.94 0 .21 0 .41-.02.6-.02.16-.03.33-.03.5 0 .35.07.68.21.97.17.29.25.63.25 1.03v.28c0 .08-.02.18-.06.28zM435.8 143.25a2 2 0 01-.73 1.03c-.33.25-.75.45-1.25.6-.47.14-1 .25-1.59.3-.56.05-1.12.07-1.69.07h-.72a12.2 12.2 0 01-1.4.06c-.56 0-.98-.1-1.25-.31-.27-.2-.47-.47-.6-.78a5.66 5.66 0 01-.28-1.06 4.4 4.4 0 00-.25-1.07 4.9 4.9 0 00-.28-.53 10.1 10.1 0 00-.44-.78c-.16-.29-.3-.57-.43-.84-.13-.3-.19-.53-.19-.72 0-.23.06-.5.19-.78l.37-.97c.15-.34.28-.67.4-1 .13-.34.2-.64.2-.9 0-.32-.04-.72-.1-1.2-.06-.47-.1-.86-.1-1.15 0-.71.04-1.4.1-2.06.06-.7.1-1.3.1-1.85a3.1 3.1 0 00-.35-1.56c-.2-.42-.66-.63-1.37-.63-.81 0-1.51.21-2.1.63a6.48 6.48 0 00-2.16 2.94c-.14.48-.21.78-.21.9a8 8 0 00.15 1.5c.1.54.23 1.12.38 1.72.15.6.3 1.24.44 1.9.14.66.25 1.32.31 2 .1 1.17.18 2.4.22 3.66.06 1.25.1 2.38.1 3.38 0 .73-.13 1.43-.38 2.1a3.1 3.1 0 01-1.38 1.56c-.25.16-.56.26-.94.28a5.3 5.3 0 00-1.87.34 27.4 27.4 0 01-2.69.6c-.5.08-.97.12-1.4.12-.48 0-.85-.04-1.1-.13-.25-.08-.44-.2-.6-.37a3.3 3.3 0 01-.4-.6 5.12 5.12 0 00-1.03-1.53c-.19-.2-.36-.4-.53-.56a3.52 3.52 0 01-.38-.6 2.5 2.5 0 01-.12-.84c0-.47.07-.93.22-1.37.14-.44.22-.92.22-1.44 0-.48-.02-.98-.06-1.5l-.16-1.62c-.06-.54-.12-1.07-.16-1.6a18.8 18.8 0 010-3.22c0-.87-.07-1.53-.22-1.96-.14-.44-.52-.66-1.12-.66-.27 0-.56.04-.88.13a8 8 0 00-.93.3c-.3.11-.58.23-.85.35l-.6.25-1.05.47a4.7 4.7 0 00-1.04.63c-.3.22-.57.53-.78.9-.18.35-.28.8-.28 1.34 0 .28.04.57.13.88a26 26 0 00.6 1.97 3.95 3.95 0 01.05 1.75c0 .35.07.7.2 1.03a12.25 12.25 0 00.83 1.75c.13.25.2.48.2.69 0 1.1-.03 2.1-.07 2.97a6.66 6.66 0 01-.38 2.18c-.2.59-.54 1.03-1 1.35-.45.31-1.11.47-1.96.47-.21 0-.54-.04-.97-.13a13.85 13.85 0 01-2.75-.69c-.4-.16-.67-.34-.81-.53a3.97 3.97 0 01-.22-.62l-.22-1.06a21.22 21.22 0 01-.22-2.54c0-.47.07-.86.22-1.15.16-.31.25-.64.25-.97 0-.25-.02-.54-.06-.88l-.1-1.09-.06-1.13-.03-1.06c0-.2.04-.55.12-1.03l.28-1.66c.1-.62.2-1.28.28-1.96.09-.71.13-1.4.13-2.07 0-1.29-.04-2.53-.13-3.72a50.19 50.19 0 01-.12-3.5v-1.78c.02-.6.1-1.15.25-1.65.17-.5.43-.9.78-1.22.38-.31.9-.47 1.6-.47.52 0 .97.06 1.37.19.42.1.76.32 1.03.65.3.34.5.8.63 1.38.14.56.21 1.31.21 2.25 0 .54-.04 1.07-.12 1.6-.08.5-.13 1.08-.13 1.74a17.82 17.82 0 004.54-1.25l2.09-.87c.7-.31 1.47-.6 2.28-.85.54-.16 1.06-.33 1.56-.5a4.9 4.9 0 011.5-.25c.46 0 .87.09 1.22.25.38.15.71.32 1 .5.31.17.59.34.81.5.25.15.5.22.75.22.28 0 .5-.1.7-.31.2-.2.39-.46.56-.75l.53-1c.18-.38.4-.7.65-1 .27-.31.59-.57.94-.78.38-.21.83-.31 1.38-.31.35 0 .71 0 1.09.03l1.12.03c.59 0 1.22-.05 1.91-.16a52.75 52.75 0 003.88-.72c.56-.1.96-.15 1.21-.15s.57.07.94.22c.38.14.76.43 1.16.87.41.42.82 1 1.22 1.75a12 12 0 011.09 2.9c.33 1.2.6 2.63.78 4.32.21 1.69.31 3.69.31 6a7.22 7.22 0 01-.25 1.34l-.18.63a5.53 5.53 0 00.19 2c.16.54.24.99.24 1.34v.19zM473.44 130.13a148 148 0 01-.43 3.09l-.22 1.56c-.06.44-.1.68-.13.72-.1.23-.29.47-.56.72-.27.25-.49.55-.66.9-.06.17-.08.38-.06.63.02.25-.02.49-.12.72a.7.7 0 01-.28.4.7.7 0 00-.29.41c-.29.88-.57 1.87-.84 2.97l-.78 3.28a62.65 62.65 0 01-.78 3c-.25.94-.5 1.68-.75 2.22-.1.2-.24.4-.4.56-.18.19-.36.38-.57.56l-.56.57a2.4 2.4 0 00-.6 1.28 2.38 2.38 0 01-.47 1.16c-.08.12-.16.24-.25.34-.06.1-.11.2-.15.31-.04.1-.06.24-.06.4 0 .13 0 .25.03.35.02.1.03.22.03.34 0 .34-.16.7-.47 1.07-.31.37-.73.74-1.25 1.1a17.88 17.88 0 01-5.88 2.5c-.66.14-1.27.21-1.8.21a7 7 0 01-2.82-.72 22.47 22.47 0 01-3.16-1.75 34.37 34.37 0 01-4.78-3.75 1.97 1.97 0 01-.25-.62 2.35 2.35 0 00-.53-.97 3.5 3.5 0 00-.69-.6c-.23-.12-.4-.25-.5-.37-.4-.67-.6-1.3-.6-1.9 0-.49.11-1.05.32-1.7.19-.66.46-1.35.81-2.06a13.47 13.47 0 012.75-3.97 7.55 7.55 0 011.7-1.34 3.35 3.35 0 011.74-.53 3 3 0 011.4.34c.47.23.87.59 1.23 1.06.1.2.17.46.22.82a2.46 2.46 0 001.09 1.75c.33.23.6.5.78.81.33.46.56.93.69 1.4.12.48.3.87.53 1.16.17.21.37.45.62.72a6.06 6.06 0 001.6 1.25c.27.15.5.22.72.22.29-.04.54-.2.75-.5.2-.31.4-.66.56-1.03.19-.38.34-.75.47-1.13a7.17 7.17 0 01.81-1.62l.63-.97c.2-.35.38-.7.53-1.03.14-.35.22-.66.22-.9 0-.28-.17-.5-.5-.7a14.86 14.86 0 00-2.78-1.06 13.01 13.01 0 01-4.47-2.69 12.53 12.53 0 01-1.88-2.28 21.4 21.4 0 01-1.34-2.56c-.4-.91-.88-1.9-1.44-2.94-.17-.29-.37-.57-.6-.84a5.26 5.26 0 01-.62-.94c-.2-.35-.4-.69-.56-1l-.44-.94c-.13-.3-.27-.64-.44-1a12.26 12.26 0 00-1.1-2.12 16.88 16.88 0 01-1.06-2.13 3.36 3.36 0 01-.18-1.06c0-.66.23-1.16.69-1.5.45-.33.95-.5 1.5-.5.73 0 1.34.17 1.84.5.5.31.95.74 1.34 1.28.42.52.82 1.13 1.2 1.82.39.68.85 1.4 1.37 2.12.25.33.52.62.8.84a7.38 7.38 0 002.04 1.13c.38.17.75.35 1.13.56.16.15.32.33.46.53.15.21.32.38.5.5.23.13.5.23.79.32.29.08.5.17.62.28.31.31.63.7.94 1.19a48.22 48.22 0 012 3.09c.35.52.7.99 1.06 1.4a8 8 0 001.03 1.04c.36.25.7.37 1.03.37.06-.02.13-.19.19-.5a15.97 15.97 0 00.4-2.72c.07-.58.12-1.14.16-1.69a22.25 22.25 0 00.16-2.53 22.49 22.49 0 00-.31-2.1c-.09-.39-.16-.75-.22-1.08-.06-.36-.1-.6-.1-.72.05-.1.07-.22.07-.35v-.47l-.03-1.06c-.03-.4-.04-.7-.04-.94 0-.47.14-.85.41-1.12.3-.3.65-.53 1.06-.72.44-.19.9-.35 1.4-.5.5-.17.98-.36 1.42-.6.16-.08.38-.17.65-.27a14.1 14.1 0 011.66-.63c.27-.08.5-.12.69-.12.16 0 .33.13.5.4.16.25.32.59.46 1a15.71 15.71 0 01.72 2.88c.1.5.18.96.22 1.37.06.42.1.75.1 1a20.93 20.93 0 01-.47 2.72c-.1.5-.22.98-.35 1.44-.1.46-.18.84-.22 1.16zM496.22 146.97c0 .16-.12.41-.35.75-.2.33-.36.74-.46 1.22a45.91 45.91 0 00-.41 2.22 19.3 19.3 0 01-1.22 3.93c-.25.7-.54 1.34-.87 1.94a6.08 6.08 0 01-1.16 1.56c-.42.44-.9.66-1.47.66-.41 0-.8-.06-1.15-.19-.34-.1-.63-.24-.88-.4-.25-.15-.45-.3-.6-.47-.12-.17-.18-.3-.18-.4 0-.38.08-.76.25-1.13.16-.38.25-.78.25-1.2l-.03-.87c-.02-.27-.03-.55-.03-.84v-.72c.02-.25.08-.5.18-.75a11.37 11.37 0 01-1.72.13c-.91 0-1.64-.13-2.18-.38a3.14 3.14 0 01-1.25-.97 3.3 3.3 0 01-.53-1.31 8.79 8.79 0 010-3c.08-.54.2-1.04.34-1.5.17-.48.37-.9.6-1.25.22-.38.48-.65.77-.81a4.63 4.63 0 011.38-.22l.75-.03a3.35 3.35 0 001.69-.6l.75-.53c.23-.16.46-.3.69-.4a2 2 0 01.9-.2 3 3 0 011.35.35 8.45 8.45 0 012.53 2.1c.4.43.74.86 1.03 1.28.29.41.52.81.69 1.19.18.35.3.63.34.84zM318.34 181.9c.9.53 1.35 1.3 1.35 2.32 0 .37-.07.77-.22 1.19a4.28 4.28 0 01-1.56 2 2.3 2.3 0 01-1.22.34l-.63-.03a5.91 5.91 0 00-1.53.06 70.22 70.22 0 00-1.65.38c-.23.06-.42.09-.57.09-.31 0-.65-.03-1.03-.1-.35-.06-.7-.09-1.06-.09-.59 0-1.03.06-1.35.19-.29.13-.5.32-.62.6-.13.27-.2.62-.22 1.06v1.5c0 .97-.04 2-.12 3.09-.09 1.08-.18 2.18-.29 3.28-.1 1.09-.2 2.16-.28 3.22-.08 1.04-.12 2-.12 2.88 0 .54.02 1.05.06 1.53.04.47.06.94.06 1.4 0 .13 0 .27-.03.44l-.03.4c-.04.15-.15.47-.34.97a21.2 21.2 0 01-1.4 3.25 2.9 2.9 0 01-.63.91c-.17.1-.38.17-.63.19-.23.04-.49.06-.78.06-1.42 0-2.46-.23-3.13-.69-.64-.43-.96-1.12-.96-2.06 0-.4.02-.8.06-1.22.04-.41.06-.8.06-1.15a39 39 0 00-.22-3.91c-.12-1.44-.28-2.96-.47-4.56-.16-1.63-.32-3.31-.46-5.06a75 75 0 01-.2-5.35c-.6.13-1.15.19-1.65.19a4.73 4.73 0 01-3.06-.9 3.67 3.67 0 01-.9-1.13 3.19 3.19 0 01-.35-1.5c0-.71.15-1.26.47-1.66.31-.41.72-.73 1.22-.94.52-.22 1.11-.4 1.78-.53.66-.12 1.35-.27 2.06-.44v-1.15c0-.94-.06-1.81-.19-2.63a308.62 308.62 0 01-.84-4.44 11.33 11.33 0 01-.06-3.65 2.8 2.8 0 011.4-1.88 9 9 0 011.47-.65c.25-.1.57-.21.97-.31a16.95 16.95 0 012.75-.5c.52-.07 1.03-.1 1.53-.1.59 0 1.16.06 1.72.16a3.35 3.35 0 012.6 2.19 8 8 0 01.4 2.84c0 .65-.02 1.3-.06 1.97-.02.66-.09 1.2-.19 1.62a2.8 2.8 0 01-.31.78l-.44.72c-.13.23-.24.46-.34.7-.1.2-.15.4-.13.62 0 .22.03.52.1.87.06.34.09.62.09.84 0 .34-.06.63-.19.88a1.6 1.6 0 00-.19.72c0 .29.16.48.47.56.34.06.8.1 1.4.1a23.5 23.5 0 004.04-.35c.56-.1 1.1-.19 1.6-.25.5-.08 1.02-.12 1.59-.12.25 0 .5.02.75.06.25.02.47.08.65.19zM356.4 205.28a2.57 2.57 0 01-1.1 1.5c-.58.42-1.3.77-2.15 1.06a20.12 20.12 0 01-5.66.84 2.9 2.9 0 01-1.68-.43c-.4-.3-.7-.7-.91-1.22a7.03 7.03 0 01-.4-1.94 71.48 71.48 0 010-5.56c.04-1 .06-1.91.06-2.75 0-.29-.04-.61-.1-.97-.06-.37-.13-.75-.22-1.12l-.18-1.03a4.74 4.74 0 010-1.85c.06-.4.09-.77.09-1.12 0-.52-.13-.93-.38-1.22-.25-.3-.67-.44-1.28-.44a6.94 6.94 0 00-2.16.5 22.71 22.71 0 00-1.56.72c-.43.19-.86.38-1.28.6-.4.2-.75.43-1.06.68-.31.23-.56.5-.75.78-.19.27-.28.59-.28.94 0 .42.05.93.16 1.53a15.73 15.73 0 01.34 3.75c-.02.65.02 1.23.13 1.75.08.46.16.85.25 1.19l.21.97a6.27 6.27 0 01.25 2c0 .37.03.73.1 1.06l.25 1.03c.1.35.2.72.28 1.1.08.37.12.79.12 1.25 0 .87-.23 1.55-.68 2.03-.44.47-1.04.83-1.79 1.06-.72.23-1.57.36-2.53.4-.95.05-1.93.07-2.93.07-.5 0-.89-.06-1.16-.16-.25-.1-.44-.28-.56-.53-.13-.25-.2-.58-.22-1a34.95 34.95 0 01.25-5.81l.1-.88c.01-.46.04-1 .09-1.65.06-.65.1-1.3.12-1.97l.1-1.94c.04-.63.06-1.13.06-1.53 0-.27-.14-.5-.4-.66l-.92-.6c-.3-.22-.6-.5-.87-.8-.27-.34-.4-.78-.4-1.35 0-.5.07-.9.21-1.19.15-.29.33-.5.53-.65.23-.17.47-.3.72-.38.25-.1.48-.22.69-.34.23-.13.42-.3.56-.5.15-.23.22-.55.22-.97 0-.7-.1-1.49-.31-2.34-.19-.86-.28-1.8-.28-2.85 0-1 .04-2.02.12-3.06.09-1.04.13-2.06.13-3.06 0-.73-.07-1.48-.22-2.25s-.22-1.48-.22-2.13c0-.3.07-.66.22-1.06a4.28 4.28 0 011.62-2.06c.4-.25.86-.38 1.38-.38.48 0 .88.15 1.22.44.33.27.6.64.81 1.1.23.43.4.94.5 1.53.13.56.22 1.14.28 1.75.08.58.14 1.16.16 1.75.04.56.1 1.06.15 1.5a321.5 321.5 0 00.47 4.97c.1.8.23 1.5.38 2.09.14.58.33.87.56.87.2 0 .48-.09.81-.28.36-.2.72-.44 1.1-.69l1.12-.75c.38-.25.69-.42.94-.53a15.3 15.3 0 017.97-.9 5.07 5.07 0 012.53 1.19 48.03 48.03 0 011.88 1.9 10.82 10.82 0 001.8 1.34c.2.09.37.2.54.32.16.1.3.24.4.4.1.15.16.36.16.63 0 .25-.02.53-.06.84a5.03 5.03 0 00.16 2.28l.46 1.57c.19.54.36 1.11.5 1.72.15.58.22 1.17.22 1.78 0 .2-.04.46-.12.75-.09.29-.18.57-.29.84-.08.27-.16.51-.25.72l-.09.31c0 .31.1.62.31.9s.32.6.32.94c0 .21-.01.41-.04.6-.02.16-.03.33-.03.5 0 .35.08.68.22.97.17.29.25.63.25 1.03v.28c0 .08-.02.18-.06.28zM393.36 204.5l.13 1.16a5.66 5.66 0 01.03 1.72c-.04.16-.12.3-.22.43a7.63 7.63 0 00-.94 1.06l-.75 1.25c-.23.44-.5.84-.84 1.2a3.9 3.9 0 01-1.13.87c-.41.25-.92.37-1.53.37a30.15 30.15 0 01-2.5-.25l-1.25-.19c-.4-.04-.76-.06-1.1-.06-1.43 0-2.89-.02-4.37-.06a21.96 21.96 0 01-4.15-.56 13 13 0 00-1.38-.31c-.48-.1-.96-.22-1.44-.35-.47-.12-.93-.27-1.37-.44-.44-.18-.81-.4-1.13-.65-.9-.9-1.61-1.88-2.15-2.94a16.86 16.86 0 01-1.25-3.6c-.3-1.33-.5-2.8-.63-4.43-.12-1.63-.22-3.45-.3-5.47-.05-.7-.12-1.38-.23-2.03-.1-.65-.15-1.15-.15-1.5 0-.17.07-.43.22-.78a4.98 4.98 0 00.47-2.34c0-.47.02-.75.06-.85.06-.15.18-.31.37-.5l.66-.66c.25-.22.49-.46.72-.68.25-.25.46-.5.62-.72.15-.21.5-.46 1.06-.75a34.49 34.49 0 015.03-2.03 41.87 41.87 0 016.6-1.63 22.1 22.1 0 013.12-.31c.4 0 .84.07 1.32.22.5.14.99.34 1.47.6a9.77 9.77 0 012.59 1.74c.17.17.32.45.47.84.14.38.31.7.5.94.46.59.77 1.02.94 1.31.18.3.3.56.34.79.06.22.08.47.06.75-.02.27 0 .68.06 1.25a53.56 53.56 0 01.13 1.9v1.5c0 .6-.16 1.1-.47 1.47a4.7 4.7 0 01-1.28 1.03c-.54.31-1.2.62-1.97.9-.75.3-1.56.66-2.44 1.07-.73.35-1.5.6-2.34.75-.83.15-1.6.22-2.31.22h-.25a.73.73 0 01-.25-.06c-.15-.02-.4.02-.75.12-.36.1-.76.23-1.22.38-.46.12-.96.25-1.5.37-.52.1-1.03.16-1.53.16-.34 0-.66.05-.97.16a2.94 2.94 0 00-1.35.78c-.12.14-.18.28-.18.4 0 .73.12 1.31.37 1.75.27.44.56.77.88 1 .37.27.79.46 1.25.56a6.55 6.55 0 002.93.57c.8 0 1.62-.06 2.47-.19.88-.13 1.87-.19 2.97-.19.52 0 .96.06 1.31.19.38.13.78.19 1.2.19.43 0 .87-.04 1.3-.13.44-.08.86-.18 1.25-.28l1.13-.28a4.8 4.8 0 011.03-.13c.81 0 1.4.29 1.75.85.38.54.65 1.38.81 2.53zm-12.1-14.38c.05-.1.08-.21.1-.34a6.59 6.59 0 00-.16-2.03c-.1-.5-.23-.92-.4-1.25a2.1 2.1 0 00-.5-.78c-.19-.19-.35-.28-.5-.28a26.35 26.35 0 00-6.4 1.56c-.65.27-1.05.52-1.2.75-.1.17-.17.42-.21.75-.04.31-.06.68-.06 1.1 0 .87.05 1.55.15 2.03.13.47.34.71.63.71.18 0 .4-.03.62-.09l.66-.19.6-.22.43-.12c.46-.09 1.02-.15 1.69-.19.66-.04 1.3-.1 1.93-.19.65-.1 1.21-.24 1.7-.4.5-.19.8-.46.93-.81zM431.1 191.13a141 141 0 01-.43 3.09l-.22 1.56c-.06.44-.1.68-.13.72-.1.23-.29.47-.56.72-.27.25-.49.55-.65.9-.07.17-.09.38-.07.63.02.25-.02.49-.12.72a.7.7 0 01-.28.4.7.7 0 00-.28.41c-.3.88-.58 1.87-.85 2.97l-.78 3.28a61.48 61.48 0 01-.78 3c-.25.94-.5 1.68-.75 2.22-.1.2-.24.4-.4.56-.17.19-.36.38-.57.56l-.56.57a2.39 2.39 0 00-.6 1.28 2.26 2.26 0 01-.47 1.16l-.24.34c-.07.1-.12.2-.16.31-.04.1-.06.24-.06.4 0 .13 0 .25.03.35.02.1.03.22.03.34 0 .34-.16.7-.47 1.07-.31.37-.73.74-1.25 1.1a17.87 17.87 0 01-5.88 2.5c-.66.14-1.27.21-1.8.21a7 7 0 01-2.82-.72 22.58 22.58 0 01-3.16-1.75 34.37 34.37 0 01-4.78-3.75 1.94 1.94 0 01-.25-.62 2.36 2.36 0 00-.53-.97 3.5 3.5 0 00-.69-.6c-.22-.12-.4-.25-.5-.37-.4-.67-.59-1.3-.59-1.9 0-.49.1-1.05.31-1.7.2-.66.46-1.35.82-2.06a13.54 13.54 0 012.75-3.97 7.56 7.56 0 011.68-1.34 3.35 3.35 0 011.75-.53c.5 0 .97.11 1.41.34.46.23.87.59 1.22 1.06.1.2.18.46.22.82a2.47 2.47 0 001.1 1.75c.32.23.58.5.77.81.34.46.56.93.69 1.4.13.48.3.87.53 1.16.17.21.38.45.63.72a6.06 6.06 0 001.6 1.25c.26.15.5.22.7.22.3-.04.55-.2.76-.5.2-.31.4-.66.56-1.03.19-.38.34-.75.47-1.13a7.3 7.3 0 01.81-1.62l.63-.97c.2-.35.38-.7.53-1.03.14-.35.22-.66.22-.9 0-.28-.17-.5-.5-.7a14.78 14.78 0 00-2.78-1.06 13.02 13.02 0 01-4.47-2.69 12.53 12.53 0 01-1.88-2.28c-.5-.8-.94-1.66-1.34-2.56-.4-.91-.88-1.9-1.44-2.94-.17-.29-.36-.57-.6-.84a5.26 5.26 0 01-.62-.94c-.2-.35-.4-.69-.56-1l-.44-.94c-.12-.3-.27-.64-.44-1a12.03 12.03 0 00-1.09-2.12l-.56-1.03c-.19-.38-.36-.74-.5-1.1a3.37 3.37 0 01-.19-1.06c0-.66.23-1.16.69-1.5.46-.33.96-.5 1.5-.5.73 0 1.34.17 1.84.5.5.31.95.74 1.35 1.28.41.53.8 1.13 1.18 1.82.4.68.86 1.4 1.38 2.12.25.34.52.62.81.84a7.39 7.39 0 002.03 1.13c.38.17.75.35 1.13.56.16.15.32.32.47.53.14.21.3.38.5.5.22.13.49.23.78.32.29.08.5.17.62.28.31.31.63.7.94 1.19a46.5 46.5 0 012 3.09c.35.52.7.99 1.06 1.4a8 8 0 001.03 1.04c.36.25.7.37 1.03.37.07-.02.13-.19.2-.5.08-.31.15-.7.21-1.16a59.26 59.26 0 00.34-3.25 22.25 22.25 0 00.16-2.53 23.55 23.55 0 00-.31-2.1c-.09-.39-.16-.75-.22-1.08-.06-.36-.1-.6-.1-.72.05-.1.07-.22.07-.35v-.47l-.03-1.06-.03-.94c0-.47.13-.85.4-1.12.3-.3.65-.53 1.06-.72.44-.19.91-.35 1.41-.5.5-.16.97-.36 1.4-.6l.66-.27a14.08 14.08 0 011.66-.63c.27-.08.5-.12.69-.12.16 0 .33.13.5.4.16.25.32.59.47 1a15.71 15.71 0 01.71 2.88c.1.5.18.96.22 1.37.07.42.1.75.1 1a20.36 20.36 0 01-.47 2.72c-.1.5-.22.98-.35 1.44-.1.46-.17.84-.21 1.16zM496.9 189.53a10.21 10.21 0 01.13 1.78 56.4 56.4 0 01-.25 5.19c-.1.88-.26 1.7-.47 2.5-.19.8-.46 1.46-.81 2-.23.35-.56.68-1 .97-.44.27-.9.53-1.4.78l-1.44.75a4.3 4.3 0 00-1.1.81l-.25.4a23.33 23.33 0 01-.94 1.41c-.25.17-.65.37-1.21.6a23.97 23.97 0 01-3.88 1.06 9.93 9.93 0 01-2.84.13 7.34 7.34 0 01-2.28-.7 98.9 98.9 0 01-1.63-.71 54.42 54.42 0 00-2.47-.84 17.06 17.06 0 00-2.4-.7c-.2 0-.33.16-.41.45-.06.29-.1.57-.1.84 0 .58.08 1.22.23 1.9.14.67.21 1.22.21 1.66a3.24 3.24 0 01-.78 1.72c-.23.3-.52.53-.87.72-.34.2-.72.31-1.16.31a6.34 6.34 0 01-2.4-.6c-.36-.18-.67-.39-.94-.62a2.05 2.05 0 01-.56-.68 3.87 3.87 0 01-.29-1.07c-.04-.43-.07-.9-.09-1.4a47.68 47.68 0 00-.22-3.22c-.1-.67-.26-1.3-.47-1.9-.19-.61-.3-1.11-.34-1.5 0-.42.06-.83.19-1.23.12-.41.18-.86.18-1.34 0-1-.05-2.06-.15-3.19a35.8 35.8 0 00-.4-3.34c-.16-.65-.35-1.31-.6-2a6.1 6.1 0 01-.38-2.1c0-.18.03-.37.1-.56.06-.19.09-.36.09-.53 0-.5-.1-1.05-.31-1.66-.19-.62-.37-1.24-.53-1.84-.07-.33-.1-.7-.13-1.12a4.95 4.95 0 00-.69-2.38c-.18-.33-.38-.66-.59-1-.2-.35-.38-.7-.53-1.06a3.33 3.33 0 01-.22-1.22l.03-.6a5.04 5.04 0 00-.12-1.78c-.1-.4-.22-.78-.35-1.15a15 15 0 01-.37-1.16 8 8 0 01.62-5.12 5.03 5.03 0 012-2.06c.81-.44 1.71-.7 2.69-.79.98-.1 1.93-.15 2.84-.15.5 0 .97.11 1.41.34a4.02 4.02 0 012 1.94c.2.41.31.81.31 1.19v1.53a63.04 63.04 0 01.22 5.1l.06 3.02.13 2.78c.06.82.14 1.48.25 2 .1.53.25.78.44.78.33 0 .57-.03.71-.09.15-.08.26-.18.35-.28.08-.1.15-.22.22-.34.08-.13.23-.25.44-.38.16-.06.34-.1.53-.1.18 0 .33-.02.43-.09.4-.25.74-.49 1.04-.72.3-.25.6-.46.87-.65.3-.19.57-.34.84-.47.28-.13.58-.19.91-.19a2.75 2.75 0 001.63-.47c.16-.12.3-.24.4-.34a.7.7 0 01.47-.16l.4.03c.15.03.3.04.48.04.25 0 .49-.04.71-.13.23-.08.44-.18.63-.28l.5-.28c.16-.09.3-.14.4-.16.38 0 .79.1 1.22.31a22.06 22.06 0 012.75 1.56l1.16.76c.15.1.38.2.69.31.31.08.66.19 1.06.31.4.13.8.28 1.19.47a4.5 4.5 0 011.97 1.72c.22.4.34.88.34 1.44 0 .44.08.86.25 1.28.17.4.35.79.56 1.19l.63 1.18c.2.38.36.78.47 1.2zm-11.9.6c-.06-1.23-.49-2.14-1.28-2.72a4.71 4.71 0 00-2.88-.88c-.56 0-1.05.06-1.46.19-.42.12-.84.29-1.25.5-.4.2-.82.45-1.25.72-.44.25-.95.5-1.54.78-.43.25-.87.46-1.3.62-.45.17-.84.35-1.2.53-.33.2-.61.41-.84.66-.2.25-.31.59-.31 1 0 .54.1 1.1.31 1.69a4.76 4.76 0 01.22 2.84 5.23 5.23 0 001.15.13 8.1 8.1 0 002.38-.35 32.6 32.6 0 015-1.18 8.8 8.8 0 002.25-.6c.63-.29 1.12-.73 1.47-1.31.35-.58.53-1.46.53-2.63zM537.3 201.13c.17.66.3 1.21.38 1.65.09.44.13.82.13 1.16a2.01 2.01 0 01-.5 1.37c-.17.19-.4.39-.7.6-.28.2-.65.44-1.09.72-.43.27-.8.52-1.09.75-.27.2-.53.4-.78.56a3.42 3.42 0 01-1.78.47c-.84 0-1.53-.26-2.1-.78-.56-.53-.84-1.29-.84-2.29l.03-1.03c.02-.4.03-.8.03-1.22 0-.54-.03-1.03-.09-1.47-.06-.45-.2-.68-.44-.68-.14 0-.41.07-.81.22a74.85 74.85 0 00-2.84 1.22 37.82 37.82 0 00-2.72 1.25l-.6.25a4.22 4.22 0 01-1.09.12l-.94-.03a16.4 16.4 0 00-1.03-.03c-.73 0-1.44.08-2.12.25a1299.07 1299.07 0 00-3.84 1c-.61.14-1.2.22-1.79.22-.81 0-1.5-.22-2.06-.66-.54-.46-1-1.04-1.38-1.75-.37-.73-.67-1.54-.9-2.44-.21-.91-.37-1.83-.47-2.75-.1-.94-.18-1.82-.22-2.65l-.03-2.16c0-.38.04-.76.12-1.16a83.35 83.35 0 01.63-2.22c.1-.35.15-.68.15-1 0-.47-.02-.96-.06-1.46-.04-.5-.06-1.01-.06-1.53 0-.78.14-1.6.4-2.5l.88-2.75c.21-.65.38-1.21.5-1.7.13-.5.3-.9.5-1.24.23-.34.53-.59.9-.75.4-.19.96-.28 1.66-.28.17 0 .45.03.85.09a27.87 27.87 0 012.93.63 14.18 14.18 0 012.85.96c.35.17.58.34.69.5.12.23.2.48.25.75a7.53 7.53 0 01-.06 2.19 22.17 22.17 0 01-.48 2.47c-.06.35-.09.65-.09.88 0 .22.03.47.1.75.06.27.09.55.09.84-.04.31-.13.62-.25.94-.1.3-.18.59-.22.84 0 .46.04.99.13 1.6.1.6.15 1.2.15 1.8a9.09 9.09 0 01-.44 2.25c-.04.2-.05.36-.03.5l.06 1.07c.05.27.1.48.2.62.1.15.22.24.37.28.14.05.34.07.6.07.87 0 1.74-.02 2.62-.06a30.38 30.38 0 004.72-.6 7.71 7.71 0 001.75-.62c.18-.2.3-.51.37-.97.08-.46.13-.94.13-1.44.02-.52 0-1-.04-1.44l-.03-.94c0-2.12-.07-3.91-.22-5.37a36.08 36.08 0 01-.22-3.28 4 4 0 01.6-1.66c.2-.29.47-.54.78-.75.31-.23.69-.34 1.13-.34.43 0 .85.07 1.25.22.4.12.74.3 1.03.53.3.2.56.46.75.75.18.27.28.56.28.87 0 .25-.02.54-.07.88-.04.33-.06.66-.06.97 0 .56.05 1.19.16 1.87a65.78 65.78 0 00.72 3.94 10 10 0 01.15 1.63c0 .47-.04.93-.12 1.37a6.3 6.3 0 00-.13 1.25c0 .5.09.95.25 1.34.17.4.36.78.57 1.13l.68.94c.23.29.41.58.53.87.17.42.3.96.38 1.63.1.66.24 1.32.4 1.97zM575.33 191.4c-.02.22-.08.4-.19.54l-.3.47a2.94 2.94 0 00-.38 2.06c.02.12.03.27.03.44 0 .62-.15 1.11-.44 1.47-.27.33-.65.6-1.13.8-.45.22-1 .38-1.62.5a38.14 38.14 0 00-3.47.87c-.54.18-1.07.26-1.6.26-.87 0-1.5-.25-1.87-.75a4.19 4.19 0 01-.69-1.87c-.1-.77-.13-1.6-.09-2.47.04-.88.03-1.69-.03-2.44a4.5 4.5 0 00-.47-1.9c-.25-.5-.73-.75-1.44-.75-.29 0-.59.05-.9.15a9.42 9.42 0 00-1.69.78 20.81 20.81 0 01-1.66.75c-.4.15-.78.31-1.15.5-.38.17-.7.37-.97.6a.95.95 0 00-.38.75c0 .47.1 1.09.32 1.84a134.3 134.3 0 001.4 4.19c.23.56.35.91.35 1.06 0 .15-.04.3-.1.44-.06.12-.1.28-.1.47 0 .29.04.6.1.93.09.34.17.7.25 1.07.1.35.2.72.28 1.12.09.38.13.76.13 1.16a21.6 21.6 0 01-.13 2.12c-.04.46-.1.9-.18 1.35-.07.41-.15.72-.25.9-.1.17-.23.3-.38.38a3.2 3.2 0 01-1 .37c-.19.04-.38.13-.6.25-.45.3-.78.56-1 .81-.2.23-.4.44-.62.63-.19.17-.44.3-.75.4-.29.11-.76.16-1.4.16-.9 0-1.65-.1-2.25-.31-.6-.23-1.1-.57-1.47-1.03a4.55 4.55 0 01-.82-1.81 13.38 13.38 0 01-.06-4.63 71.46 71.46 0 01.88-4.12c.16-.71.29-1.44.37-2.2.1-1 .19-2.06.25-3.21a46 46 0 00.13-3.25c0-.83-.07-1.77-.19-2.81-.04-.25-.12-.5-.22-.75s-.16-.5-.16-.72c0-.31.04-.65.1-1l.25-1.06c.1-.36.2-.71.28-1.07.08-.37.13-.74.16-1.09 0-.35-.06-.63-.16-.84a2 2 0 01-.13-.7c0-.58.12-1.02.35-1.34a2 2 0 01.72-.68c.25-.15.47-.23.65-.25.2-.02.24-.03.16-.03.8 0 1.4.16 1.84.5.46.3.8.7 1 1.18.23.48.38 1 .44 1.57.06.54.12 1.05.16 1.53.04.48.1.88.15 1.22.09.3.25.47.5.47.17 0 .38-.08.63-.22a6.65 6.65 0 001.28-.88l.06-.06-.06.06c.02 0 .04 0 .06-.03a.84.84 0 01.22-.16l-.12.07h-.04l.82-.63a54.5 54.5 0 011.5-1.03c.35-.23.75-.38 1.18-.47.44-.1.84-.27 1.2-.5.3-.23.62-.48.93-.75.31-.27.6-.49.84-.66a9.23 9.23 0 012.1-.56c.41-.08.82-.14 1.22-.19.4-.06.75-.09 1.06-.09a2.42 2.42 0 011.34.5c.19.15.39.3.6.44.22.15.5.26.8.34.4.13.86.22 1.38.28.52.04 1 .16 1.44.35.46.19.84.5 1.16.94.31.41.46 1.07.43 1.96 0 .4.05.75.13 1.07a14.4 14.4 0 00.53 1.56c.08.23.13.47.13.72a9.32 9.32 0 00-.1 1.53c0 .41.07.86.22 1.34.17.46.25.82.25 1.1zM612.36 198.56c0 .71-.07 1.4-.2 2.1-.12.68-.18 1.35-.18 2 0 .41.03.83.1 1.25.06.4.09.79.09 1.18a4.77 4.77 0 01-.53 1.44c-.17.34-.4.67-.69 1-.27.31-.6.54-.97.69-.25.1-.54.16-.87.19l-1.03.06a21.27 21.27 0 00-2.25.12c-.53.1-.98.22-1.38.35-.38.12-.77.19-1.19.19-.75 0-1.32-.2-1.72-.6a4.05 4.05 0 01-.84-1.53 9.28 9.28 0 01-.31-1.9l-.13-1.82c-.06-.7-.14-1.32-.25-1.84-.1-.54-.17-1.06-.22-1.53a9.75 9.75 0 01.1-1.53c0-.55-.03-1.05-.1-1.5-.06-.48-.2-.89-.4-1.22-.21-.34-.53-.6-.97-.78a4.2 4.2 0 00-1.69-.29c-.5 0-1.04.08-1.62.22a5.5 5.5 0 00-1.63.63c-.5.29-.91.65-1.25 1.1a2.46 2.46 0 00-.37 2.27c.1.27.15.57.15.9 0 .6-.07 1.2-.22 1.82-.12.6-.18 1.19-.18 1.75 0 .88.06 1.69.18 2.44a10.36 10.36 0 01.1 3.84c-.06.54-.2 1-.4 1.35-.22.35-.52.62-.91.8a3.3 3.3 0 01-1.47.29c-.96 0-1.7-.23-2.22-.69-.52-.46-.78-1.16-.78-2.12 0-.36 0-.72.03-1.1.02-.4.03-.8.03-1.22a4.5 4.5 0 00-.19-1.4 29.5 29.5 0 00-1.03-2.22 8.73 8.73 0 01-.56-1.78v-.28c0-.23 0-.5.03-.78l.03-.94a25 25 0 00-.16-2.69 181.26 181.26 0 01-.72-5.88c-.1-.97-.15-1.9-.15-2.78a3.36 3.36 0 011.78-3.09c.52-.29 1.1-.49 1.72-.6.62-.1 1.23-.15 1.81-.15 1.13 0 2.02.3 2.69.9a2.75 2.75 0 011.03 2.2c0 .29-.02.6-.06.93-.04.31-.06.64-.06.97 0 .23.03.5.09.78.08.3.24.44.47.44.23 0 .61-.07 1.15-.22.57-.16 1.15-.35 1.75-.56a144.26 144.26 0 012.75-.88c.8-.14 1.48-.2 2.07-.18a8.44 8.44 0 002.78-.6l.84-.34c.27-.1.54-.19.81-.25.3-.06.66-.1 1.1-.1.7 0 1.22.09 1.53.25.33.15.58.35.75.6.17.23.3.49.4.78.1.3.29.57.54.84.3.36.63.65.97.88.35.23.66.45.93.66.3.2.52.43.69.68.19.25.28.56.28.94 0 .3-.04.6-.12.9-.09.32-.13.7-.13 1.13 0 .54.06 1.12.19 1.72.12.6.19 1.2.19 1.81zM636.85 172.19v.12c0 .52-.08 1.25-.25 2.19-.17.94-.25 2.02-.25 3.25a36.77 36.77 0 01-.25 4.1c-.04.3-.13.58-.25.8-.13.23-.26.45-.4.66l-.44.63a3.76 3.76 0 00-.5 1.34l-.13.84-.06.88a11.34 11.34 0 000 1.63c.02.27.03.55.03.84 0 .25-.03.48-.1.69a6.2 6.2 0 01-.21.56c-.09.16-.16.34-.22.53-.06.17-.1.37-.1.6 0 .18.04.4.1.65.06.23.1.44.1.63 0 .37-.1.78-.26 1.21-.16.44-.27.89-.31 1.35-.1.79-.18 1.5-.22 2.15-.04.65-.2 1.2-.5 1.66-.27.44-.73.78-1.37 1.03-.65.23-1.62.34-2.91.34-.67 0-1.22-.05-1.66-.15a3.18 3.18 0 01-1-.47c-.23-.19-.38-.4-.47-.63-.08-.25-.12-.5-.12-.75 0-.37.05-.75.16-1.15a4.78 4.78 0 00.06-2.13c-.06-.33-.1-.68-.1-1.06 0-.52.03-1.06.07-1.62.04-.57.06-1.12.06-1.66 0-.5-.04-1-.13-1.5-.06-.5-.2-.96-.4-1.38a2.42 2.42 0 00-.6-.75 6.3 6.3 0 01-.62-.65c-.2-.25-.38-.57-.53-.97a5.2 5.2 0 01-.22-1.72v-3c-.04-.41-.13-.94-.28-1.56l-.4-2.1c-.15-.75-.29-1.52-.41-2.3-.13-.8-.2-1.56-.2-2.29 0-.58.06-1.11.17-1.6.1-.5.28-.9.53-1.21.16-.21.4-.35.68-.44.3-.08.65-.28 1.07-.6.4-.3.7-.59.9-.84a3.93 3.93 0 011.63-1.06c.37-.1.91-.16 1.62-.16.34 0 .62.05.85.13.25.06.48.16.68.28l.66.34a8.37 8.37 0 001.84.66c.38.09.73.16 1.07.22a21.81 21.81 0 011.43.25c.21.1.43.27.66.5.25.2.48.46.69.75.2.3.38.6.53.94.14.33.24.66.28 1zm-1.6 40.12c-.03.1-.25.32-.65.66-.4.33-.83.68-1.31 1.03a32.94 32.94 0 01-1.94 1.47 5.35 5.35 0 01-2.44-.03c-.43-.09-.86-.21-1.28-.38a7.51 7.51 0 01-2.22-1.22 3 3 0 01-.56-.43 8.96 8.96 0 01-1.38-1.6c-.16-.29-.25-.5-.25-.65v-1.13l.07-1.5.12-1.37c.07-.42.13-.68.19-.78.13-.2.32-.34.6-.44.28-.13.62-.22 1-.28a59.92 59.92 0 002.6-.5 5.93 5.93 0 001.43-.47 3.47 3.47 0 011.5-.31c.22 0 .6.14 1.12.43a7.45 7.45 0 013.1 3.28c.41.82.62 1.75.62 2.82 0 .52-.1.99-.31 1.4z" fill="#FF8A0E"/>
</svg>
