<svg xmlns="http://www.w3.org/2000/svg" xmlns:xlink="http://www.w3.org/1999/xlink" fill="none" viewBox="0 0 1040 603">
  <defs/>
  <defs>
    <linearGradient id="a" x1="17" x2="497" y1="213" y2="213" gradientUnits="userSpaceOnUse">
      <stop offset="0" stop-color="#fff"/>
      <stop offset="1" stop-color="#05DFA8"/>
    </linearGradient>
    <linearGradient id="b" x1="257" x2="257" y1="12" y2="492" gradientUnits="userSpaceOnUse">
      <stop stop-opacity="0"/>
      <stop offset="1"/>
    </linearGradient>
    <symbol id="c" viewBox="0 0 479 479">
      <g stroke="#CDCDCD">
        <path fill="url(#a)" d="M17.5 12.5h479v479h-479z" transform="translate(-17.5 -12.5)"/>
        <path fill="url(#b)" d="M17.5 12.5h479v479h-479z" transform="translate(-17.5 -12.5)"/>
      </g>
    </symbol>
    <symbol id="e" viewBox="0 0 37 37">
      <path fill="#f70606" d="M593.7 413.4c.6.4 14.1 6.4 15 4 1-2.6.3-9-1.4-11.2-1.5-2-2.8-2.2-4 .5-.4.8.8 3.4.2 2.7-4.7-5.4-9-10.5-14.6-15.1-1.5-1.4-2.8-3.2-5-2.3-3 1.2 2 4.8 2.3 5a96.6 96.6 0 0114.4 15c-2.2.5-10.8-1.5-6.9 1.4z" transform="rotate(-49.7 -110 835.6)"/>
    </symbol>
    <filter id="d" width="1040" height="603" x="0" y="0" color-interpolation-filters="sRGB" filterUnits="userSpaceOnUse">
      <feFlood flood-opacity="0" result="BackgroundImageFix"/>
      <feColorMatrix in="SourceAlpha" values="0 0 0 0 0 0 0 0 0 0 0 0 0 0 0 0 0 0 127 0"/>
      <feOffset/>
      <feGaussianBlur stdDeviation="2"/>
      <feColorMatrix values="0 0 0 0 0 0 0 0 0 0 0 0 0 0 0 0 0 0 0.35 0"/>
      <feBlend in2="BackgroundImageFix" result="effect1_dropShadow"/>
      <feBlend in="SourceGraphic" in2="effect1_dropShadow" result="shape"/>
    </filter>
  </defs>
  <path fill="#fff" d="M0 0h1040v603H0z"/>
  <use width="479" height="479" pointer-events="none" transform="translate(17.6 12.2) scale(1.00209)" xlink:href="#c"/>
  <use width="479" height="479" pointer-events="none" transform="translate(541.9 12.2) scale(1.00209)" xlink:href="#c"/>

  <rect width="82" height="82" x="19" y="507" fill="#F2F2F2" stroke="#e1e1e1" rx="7"/>
  <rect width="82" height="82" x="117" y="507" fill="#B2B2B2" rx="7"/>
  <rect width="83" height="82" x="215" y="507" fill="#989898" rx="7"/>
  <rect width="82" height="82" x="314" y="507" fill="#696969" rx="7"/>
  <rect width="82" height="82" x="412" y="507" fill="#3E3E3E" rx="7"/>
  <rect width="82" height="82" x="542" y="508" fill="#F2F2F2" stroke="#e1e1e1" rx="7"/>
  <rect width="82" height="82" x="640" y="508" fill="#AFC6C0" rx="7"/>
  <rect width="83" height="82" x="738" y="508" fill="#808E8B" rx="7"/>
  <rect width="82" height="82" x="837" y="508" fill="#4E5A57" rx="7"/>
  <rect width="82" height="82" x="935" y="508" fill="#242C2A" rx="7"/>
  <use width="37" height="37" transform="translate(574 387.3) scale(1.08004)" xlink:href="#e"/>
  <use width="37" height="37" transform="translate(570.4 302) scale(.89094)" xlink:href="#e"/>
  <use width="37" height="37" transform="translate(565.2 214.7) scale(.60942)" xlink:href="#e"/>
  <use width="37" height="37" transform="translate(554.5 116.4) scale(.38441)" xlink:href="#e"/>

  <g filter="url(#d)" transform="translate(0 4)">
    <circle cx="21" cy="33" r="12" fill="#E6E6E6"/>
    <circle cx="21" cy="33" r="10" stroke="#fff" stroke-width="4"/>
  </g>
  <g filter="url(#d)">
    <circle cx="587" cy="123" r="12" fill="#B9C1BF"/>
    <circle cx="587" cy="123" r="10" stroke="#fff" stroke-width="4"/>
  </g>
  <g filter="url(#d)" transform="translate(0 -3)">
    <circle cx="612" cy="224" r="12" fill="#808E8B"/>
    <circle cx="612" cy="224" r="10" stroke="#fff" stroke-width="4"/>
  </g>
  <g filter="url(#d)">
    <circle cx="638" cy="316" r="12" fill="#4E5A57"/>
    <circle cx="638" cy="316" r="10" stroke="#fff" stroke-width="4"/>
  </g>
  <g filter="url(#d)">
    <circle cx="659" cy="405" r="12" fill="#242C2A"/>
    <circle cx="659" cy="405" r="10" stroke="#fff" stroke-width="4"/>
  </g>
  <g filter="url(#d)" transform="translate(526 6.3)">
    <circle cx="21" cy="33" r="12" fill="#E6E6E6"/>
    <circle cx="21" cy="33" r="10" stroke="#fff" stroke-width="4"/>
  </g>
  <g fill="#b2b2b2" filter="url(#d)" transform="translate(0 87.3)">
    <circle cx="21" cy="33" r="12"/>
    <circle cx="21" cy="33" r="10" stroke="#fff" stroke-width="4"/>
  </g>
  <g fill="#989898" filter="url(#d)" transform="translate(0 170.8)">
    <circle cx="21" cy="33" r="12"/>
    <circle cx="21" cy="33" r="10" stroke="#fff" stroke-width="4"/>
  </g>
  <g fill="#3e3e3e" filter="url(#d)" transform="translate(0 347.5)">
    <circle cx="21" cy="33" r="12"/>
    <circle cx="21" cy="33" r="10" stroke="#fff" stroke-width="4"/>
  </g>
  <g fill="#696969" filter="url(#d)" transform="translate(0 260)">
    <circle cx="21" cy="33" r="12"/>
    <circle cx="21" cy="33" r="10" stroke="#fff" stroke-width="4"/>
  </g>
</svg>