<svg xmlns="http://www.w3.org/2000/svg" fill="none" viewBox="3.8 1.8 1222 746.5">
  <path fill="#fff" d="M0 0h1226v749H0z" pointer-events="none"/>
  <circle cx="51.1" cy="680.4" r="20.5" fill="#9c451f"/>
  <path fill="#5e2568" d="M776 565.8C505 527.3 48 309.3 48 232.3s261-98 628.5-95 545 24 505 165.5c-19.4 68.5-134.5 301.5-405.5 263z"/>
  <g transform="translate(1)">
    <path fill="#fff" stroke="#fff" stroke-width="8" d="M952.1 276.6c-20.3-7-34-26.1-34-47.6.1-20.9 16-33 35-33 5.4 0 10.8.8 16 2.3 2 .5 3.5 1 4.7 1 1.9 0 3-1.4 4-2.6h12.6l12.6 17v36h-11.3l-15.4-14.4c-1.3-7.5-4.2-15-11.2-15-6.2 0-9.1 3.6-9.1 8.7 0 4.4 1.5 7.4 13 11.3 24.1 8.4 38.1 24.3 38.1 50a34.6 34.6 0 01-51 31.9c-2.7-1.9-5.6-3.4-7.8-3.4-2 0-3.3 3-4.3 5l-.7 1.5h-14.8L917 310.4v-42.2h15c3 6.1 7.6 13.5 10.3 16.7 3.3 4.1 8.6 8.2 15 8.2 3.6 0 8.6-2 8.6-6.5s-7.2-7.3-13.8-10z"/>
    <path fill="#fff" fill-rule="evenodd" stroke="#fff" stroke-width="8" d="M850.4 198H803v15.7l5.5 1c3.2.4 5.6 2.8 5.6 10.7v40.5c0 44.3 20.9 61.5 44.5 61.5 19.5 0 35.2-10.9 35.2-36.4v-48.7c0-9.2 2.7-12.8 5.8-13.2l5.5-.8v-13.5L892.3 198h-38.9v3.8l-3-3.8zm1.5 43.3c0-8.2 1.7-12.5 6.3-13.4l6.2-.1v43.7c0 13.5-2.6 20.4-5.3 20.4-4.1 0-7.2-1.7-7.2-19.7v-31z" clip-rule="evenodd"/>
    <path fill="#fff" stroke="#fff" stroke-width="8" d="M589.7 295.1c3.2-.7 4.4-5.4 4.4-11.4v-58.3c0-8-2.4-10.3-5.6-10.6l-5.5-1V198h52.8c31.2 0 46.4 27.9 46.4 47.7 0 11.1-5.5 19.3-12.7 23.4h11.8l13.2 16.6v10.1c0 22.2-7.7 30.4-21.6 30.4-9.5 0-20-6.3-26.1-19.4-3-7.5-5-15.4-5.8-23.5a63 63 0 00-1-6.1h-8v20l11.7 14.5v14.6H594l-11-14.4v-15.7l6.7-1zm-64.6-11.4c0 6-1.2 10.7-4.4 11.4l-6.7 1V312l11 14.4h49v-13l-11-14.6v-56.4c0-9.2 2.6-12.8 5.7-13.2l5.3-.8v-13.5L561.4 198H514v15.7l5.5 1c3.2.4 5.6 2.8 5.6 10.7v58.3zM409 268.1c0 36 23.4 60.2 47.9 60.2 19.8 0 39.8-6.8 43.6-40.9l-14.4-16h-22.7c-.7 15-3.4 23-7.9 23-3 0-4.8-3.9-4.8-8.8v-47.8c0-6.8 1.2-12.4 5-12.4 3.4 0 7.2 10.7 7.7 30l12.8 14.4h23.3V215L485 198.7h-15.7c0 3-.2 5.1-1.2 5.1a32 32 0 01-7.4-2.9c-4-1.7-8.5-2.9-14.4-2.9-20.1 0-37.4 18.5-37.4 41.6V268zm341.9 60.2c-24.5 0-47.9-24.1-47.9-60.2v-28.5c0-23.1 17.3-41.6 37.4-41.6 5.9 0 10.3 1.2 14.4 3a32 32 0 007.4 2.8c1 0 1.2-2 1.2-5.1H779l14.4 16.2v55h-23.3l-12.8-14.4c-.5-19.4-4.3-30.1-7.7-30.1-3.8 0-5 5.6-5 12.4v47.8c0 5 1.7 8.8 4.8 8.8 4.5 0 7.2-8 7.9-23H780l14.4 16c-3.8 34-23.8 40.9-43.6 40.9zm219.8 111.4v-24L951.5 379c-2.7-5.3-5-8.2-7.9-8.6l-5.6-.7V354h86.3l13.6 16.8v12.6l-5.9.9c-3.9.7-8.8 2-12.3 8.2l-11.3 20v42.2l11.2 14.6v13h-49.1l-10.8-14.4v-15.7l6.5-1c3.4-.8 4.5-5.5 4.5-11.5z"/>
    <path fill="#fff" fill-rule="evenodd" stroke="#fff" stroke-width="8" d="M855.1 381.4v58.3c0 6-1.2 10.7-4.4 11.4l-6.7 1V468l11 14.4h75V441l-13.3-18H908v-7.7l-15-20-.2-4.3c-.2-3.2 1.2-6 4.1-6 2.7 0 3.6 2 3.6 5.7v6l11.5 15h18v-40.4L916.6 354H844v15.7l5.5 1c3.2.4 5.6 2.8 5.6 10.7zm37.8 50h7.7v2.8c0 10-3.2 14.2-5.3 14.2-1.7 0-2.4-2.6-2.4-5.3v-11.6z" clip-rule="evenodd"/>
    <path fill="#fff" stroke="#fff" stroke-width="8" d="M739.7 451.1c3.2-.7 4.4-5.4 4.4-11.4v-58.3c0-8-2.4-10.3-5.6-10.6l-5.5-1V354h94.6l12.6 16.8v13.5l-6.7.8c-5 .7-9.7 2.6-15.2 9.6l-13.8 17.6 27.7 42.2 9.4 10.1v17.6h-46.2l-3.6-3.9v4H744l-11-14.4v-15.7l6.7-1zm-23.9 31.2v-84c0-9.2 2.6-12.8 5.6-13.2l5.3-.8v-13.5L714.1 354h-39v8.4l-6.3-8.4H625v15.7l5.5 1c3.2.4 5.6 2.8 5.6 10.7v58.3c0 6-1.2 10.7-4.4 11.4l-6.7 1V468l11 14.4h39v-15.8l-9.4-12.5v-19l11.3 31.5 11.8 15.8h27zm-98.4-80.5a51.7 51.7 0 00-51-49.8c-20 0-38.4 16.2-38.4 41.9v32.8c0 37.5 23.4 55.6 47.9 55.6 23.7 0 41.5-16.2 41.5-49v-31.5zM406 354v15.7l5.5 1c3.2.4 5.6 2.8 5.6 10.7v58.3c0 6-1.2 10.7-4.4 11.4l-6.7 1V468l11 14.4h39v-6.7l5 6.6h60.3v-12.8L510 454.8v-56.4c0-9.2 2.8-12.8 5.9-13.2l5.3-.8v-13.5L508.6 354h-43.4l-3.1 15.7-11.8-15.7H406zm665.9 75.5c2 1 4.5 2 7.2 3.1 6.6 2.7 13.8 5.5 13.8 10s-5 6.5-8.5 6.5c-6.5 0-11.8-4-15-8.2-4-5.2-7.5-10.8-10.4-16.7h-15v42.2l11.5 14.9h14.8l.7-1.4c1-2.2 2.4-5.1 4.3-5.1 2.2 0 5.1 1.5 7.9 3.4a34.6 34.6 0 0051-31.5v-.3c0-25.8-14.1-41.7-38.2-50.1-11.5-4-13-6.9-13-11.3 0-5.1 2.9-8.7 9-8.7 7 0 10 7.5 11.3 15l15.4 14.4h11.3v-36l-12.6-17h-12.7c-.9 1.2-2 2.5-4 2.5-1.1 0-2.7-.4-4.7-1l-2.8-.7c-3.4-.8-8.2-1.5-13.1-1.5-19 0-34.9 12.1-34.9 33a50.6 50.6 0 0026.7 44.5z"/>
  </g>
  <g pointer-events="none">
    <path fill="#93442c" d="M1080 397c-10.8-3.6-14.2-9-14.2-18 0-7.5 4.6-16.4 17-16.4 13 .6 24 10 26.8 22.7h3.3V359h-4.5a6.8 6.8 0 01-5.3 2.6c-3.4 0-7.9-1.6-11.3-2.6-3.2-.8-7-1-13-1a26 26 0 00-25.8 26.3c0 10.4 2.2 17.5 10 23.8 2.1-1.4 4.7-1.4 8.3 0 3.4-1.4 7.4-1.4 10.8 0 9.6 4 12 8.4 13.1 12.1 6.2 1.7 12 11.3 12.3 24.3 4.7-13.3 3.3-22.6-2.3-31.1-5-1.9-12.7-3.3-22.5-5.3a17 17 0 0111.7 0c3-1.4 6.3-1.4 11.8 0-5.5-4.6-15.2-7.4-26.2-11.1zm2 10.7c-13.4-3.5-20.6-7.8-25.2-14.1 0-7 1.4-14 4-20.7-.1 9.5 2 14.7 6.4 17.7-.2 6.9 4.6 11.7 15.5 17.1h-.6z"/>
    <path fill="#93442c" fill-rule="evenodd" d="M945 363.7V360h35.4v3.7l-4.6.7c-4.1.7-6.7 5.2-3.4 11.1l12.4 22.4c.9 1.6 2.4 1.6 3.3 0l12.5-22.5c3-5.5 1.2-10-3.6-10.6l-4-.7V360h28.4v3.7l-3.7.7c-3 .7-5.2 3.6-7.6 8l-20.3 36.7c-1.7-1.4-3.8-1.4-5.6 0 1 2.5 2.5 5.3 5.4 8.3a190 190 0 00-5.3 28.6c-1.2-9.2-2.9-19.2-5.6-28.6 3-3.4 4-5.6 4.4-8.3a7.2 7.2 0 00-8 0l-16-30.6c-.5-.8-1-1.6-1.3-2.4-3.4-6.2-6.1-11.2-10-11.8l-2.8-.6zm26.5 34c5 3.7 8.2 6.7 11.8 11.2h.7c-1.7-4.6-2.7-9-2.6-12.8a129.2 129.2 0 01-17-22.3 133 133 0 017.1 24zM851 363.8V360h61.4v31.5h-4.8v-4.3c0-17.8-10.3-22.4-18-22.4-11.4 0-14.3 7.5-14.3 14.9V405h17v4a18 18 0 00-11.7.2 17 17 0 00-11.6-.1c1 2.2 2.9 5.8 5.4 8.4-3.4 9-5.3 18.4-5.6 28-.3-9.6-2.2-19-5.7-28a26 26 0 005.3-8.4c-2.4-1.4-4.7-1.4-6.3 0v-27.7c0-13-3.6-16.3-6.7-17l-4.4-.6zm12.1 33.1c2.6 2.6 4.5 6 5.3 12h.6c1-6 2.9-9.4 5.3-12-3.5-7.2-5.3-15-5.5-23-1.2 12.8-3 19-5.7 23zM756.4 409c-2.4-1.3-4.6-1.3-6.3 0v-27.6c0-13-3.6-16.3-6.7-17l-4.4-.6V360h35.4v3.8l-4.4.6c-3.1.7-6.7 4-6.7 17v24.3c4 0 5.8-1 7.8-3.8l22-28a11 11 0 001.6-5c0-2.6-1.7-4.3-5-4.6l-3.3-.5V360h35.2v3.8l-4.5.6c-2.4.5-5.6 4.4-9.8 9.8l-2.3 2.9-25 32c-1.7-1.4-4-1.4-7 0 5.5 3.6 9.6 6 14.2 7.5 2 8 5.7 16.2 11.6 28.9l-2.7-3.8c-6-8.2-11.4-15.6-17-20.3-1.1-4.3-3.3-8-6.8-12.3-1.3-1.4-4.2-1.4-6.8 0a9.4 9.4 0 00-8.5 0c1 2.2 2.9 5.8 5.4 8.4-3.4 9-5.3 18.4-5.6 28-.3-9.6-2.2-19-5.7-28a26 26 0 005.3-8.4zm-5.3-12a19 19 0 015.3 12h.6c1-6 2.9-9.5 5.3-12a55.8 55.8 0 01-5.5-23.1c-1.2 12.8-3 19-5.7 23zm22.7 8.6l-1.5 3.3h.7l3.9-3.2c3.5-3 7-5.9 10.8-8.8.5-4.4 7-15.4 11.7-23a103 103 0 01-22 23c-1 3.2-2.2 5.7-3.6 8.7z" clip-rule="evenodd"/>
    <path fill="#93442c" d="M681.1 363.8V360h27v3.8l-4.4.6c-3.1.7-6.7 4-6.7 17V409c-1-1.4-3.6-1.4-4.8 0v-27.7c0-13-3.6-16.3-6.7-17l-4.4-.6z"/>
    <path fill="#93442c" fill-rule="evenodd" d="M631 363.8V360h32.8l18 49c-2.8-1.4-6-1.4-8.9 0 1.7 2.3 4.3 5.2 7.9 8.5.3 6 1.3 13.3 4.2 28-6.5-14.2-11-22-14.8-28 1.3-3.1 2.2-6.2 2.2-8.4-3.6-1.4-6.3-1.4-8.4 0l-10.3-28.2c-1-3.1-2-5-4.2-5-2 0-2.4 2.6-2.4 5.1v28c-1.6-1.3-3.6-1.3-5 0v-27.6c0-13-3.6-16.3-6.7-17l-4.4-.6zm31 33.1c3.9 2.6 6.6 6 10.4 12h.5c0-6 0-9.4.2-13-4.7-5.5-8.8-12.1-14.6-23.4 3 7.8 4.1 16.1 3.5 24.4z" clip-rule="evenodd"/>
    <path fill="#93442c" d="M552.1 385c0-16.6 6.5-22 15.4-22 8.7 0 15.2 5.4 15.2 22v23c1.4-1.3 4.8-1.3 8.2 0a28 28 0 01-5.3 8.5c3.4 9 4.5 18.5 3.3 28 5.4-12.3 6.8-21.7 7.8-28-2.4-2.8-4-6.2-5.3-8.4 3.5-1.4 6.9-1.4 8.4 0v-14.5c0-17.5-11.6-35.6-32.3-35.6-20.9 0-32.5 18.1-32.5 35.6V408c1.5-1.4 5.1-1.4 8.4 0-1.2 2.2-3 5.6-5.3 8.4 1.2 5.8 3.6 15.9 8 28a50.6 50.6 0 013-28c-2.2-2.5-4-5.3-5.2-8.4 3.4-1.4 6.8-1.4 8.2 0v-23zm-8.7 22.7c-1-6-3-9.2-5.3-12a81 81 0 019.4-22.8 38.7 38.7 0 001.7 22.9c-2.4 2.7-4.5 6-5.3 12h-.5zm47.5 0a20 20 0 00-5.3-12 40 40 0 001.7-22.8c5 7.8 7.2 15 9.4 22.9-2.4 2.7-4.2 6-5.3 12h-.5z"/>
    <path fill="#93442c" fill-rule="evenodd" d="M462.6 409l9.4-49h31.6v3.7l-4.4.7c-3 .7-6.7 4-6.7 17V409c-1.7-1.4-4-1.4-6.1 0 1.2 3 3 5.9 5.3 8.3-3.5 9-5.4 18.4-5.7 28-.3-9.6-2.2-19-5.6-28a26 26 0 005.3-8.3c-2.4-1.4-4.6-1.4-6.4 0v-28c0-2.6-.6-5.2-2.5-5.2-2.2 0-3.1 2.6-3.8 5.1l-5.3 28c-1.5-1.3-3.4-1.3-5.1 0zm17.8-12a20 20 0 015.3 11.9h.7a21 21 0 015-12c-3.4-7.2-5.3-15-5.4-23-1.2 12.8-3 19-5.6 23zM413 363.7V360h32.5l9.7 49c-1.5-1.3-3.9-1.3-6 0 1 2.3 3 5.2 6.4 8.4a123 123 0 00-1 28c-3.3-14.1-6.4-22-9.6-28 2.2-3 3.7-6.1 3.7-8.3-2.9-1.4-5.8-1.4-7.8 0l-5.7-28c-.5-2.6-1.5-5.2-3.6-5.2-1.8 0-2.5 2.6-2.5 5.1v28c-1.6-1.3-3.6-1.3-5 0v-27.6c0-13-3.6-16.3-6.7-17l-4.4-.7zm27 33.2a37 37 0 018.7 12h.6c-.2-4 .3-8.4 2.2-12a88 88 0 01-11-23 70 70 0 01-.5 23zm370-189.2V204h35.4v3.7l-4.4.7c-3.1.7-6.7 4-6.7 17V253c-.7-1.4-3.4-1.4-6.3 0a33 33 0 005.4 8.3 55 55 0 00-3.4 28c-4-14.4-6.1-22.3-7.9-28a28 28 0 005.3-8.3c-2.7-1.4-5.4-1.4-6.3 0v-27.7c0-13-3.6-16.3-6.7-17l-4.4-.7zm50.4 0V204h27v3.7l-2.7.7c-7.3 1.6-8.5 7.6-8.5 17V253c-1.4-1.4-3.3-1.4-4.8 0v-27.7c0-9.4-1.5-15.3-8.7-17l-2.3-.7zm-38.3 33c3 3.3 5 7.5 5.3 12h.6c1-6 2.9-9.2 5.4-12-3.6-7.1-5.5-15-5.6-23-1.2 12.8-3 19-5.7 23z" clip-rule="evenodd"/>
    <path fill="#93442c" d="M953 241c-10.8-3.6-14.2-9-14.2-18 0-7.5 4.6-16.4 17-16.4 13 .6 24 10 26.8 22.7h3.3V203h-4.5a6.9 6.9 0 01-5.3 2.6c-3.4 0-7.9-1.6-11.3-2.6-3.2-.8-7-1-13-1a26 26 0 00-25.8 26.3c0 10.4 2.2 17.5 10 23.8 2.1-1.4 4.7-1.4 8.3 0 3.4-1.4 7.4-1.4 10.8 0 9.5 4 12 8.4 13.1 12.1 6.2 1.7 12 11.3 12.3 24.3 4.7-13.3 3.3-22.6-2.3-31.1-5-1.9-12.7-3.3-22.4-5.3a17 17 0 0111.6 0c3-1.4 6.3-1.4 11.8 0-5.5-4.6-15.2-7.4-26.2-11.1zm2 10.7c-13.4-3.5-20.6-7.8-25.2-14.1 0-7 1.4-14 4-20.7-.1 9.5 2 14.7 6.4 17.7-.2 6.9 4.6 11.7 15.6 17.1h-.7z"/>
    <path fill="#93442c" fill-rule="evenodd" d="M590 207.7V204h45.1c17.8 0 29.5 6.3 29.5 25.6 0 12.3-5.2 19.7-12.4 23.5-1.3-1.4-3.7-1.4-6.8 0 4 2.7 6 4.8 8.7 8.3a79 79 0 012.6 28c-2.2-14.8-8-23-13.7-28 1.5-2.7 2.2-5.4 1.7-8.3-2.4-1.4-4.8-1.4-8 0a11 11 0 00-9.4 0 12.5 12.5 0 00-10 0c-3-1.3-6.5-1.3-9.5 0 .8 2.2 3 5.8 5.5 8.3a88 88 0 00-5.9 28c-.4-9.5-2.2-19-5.3-28a30 30 0 005-8.3c-2.7-1.4-4.4-1.4-6 0v-27.7c0-13-3.6-16.3-6.7-17l-4.4-.7zm12.1 33.2c2.3 2.6 4.1 6 5 12h.7c.8-6 2.9-9.4 5.5-12-3.7-7.1-5.7-15-5.9-23-.8 12.8-2.7 19-5.3 23zm48-9.7c0-11.5-6-18.2-15.3-18.2h-11.5c-7 0-9 4.2-9 13.2v22.6H635c6.4 0 15-5.5 15-17.6zm1.3 9c-.5 4.5-3.4 9.6-6.7 12.7h.7a93 93 0 0015.4-12 55 55 0 00-6.2-23c3.8 12-.1 19-3.2 22.3zM552 208.4c-3.1.7-6.7 4-6.7 17V253c-1.7-1.4-4.1-1.4-6.3 0 1 2.2 2.9 5.8 5.4 8.3-3.4 9-5.3 18.4-5.6 28-.3-9.6-2.2-19-5.7-28a26 26 0 005.3-8.3c-2.4-1.4-4.6-1.4-6.3 0v-27.7c0-13-3.6-16.3-6.7-17l-4.4-.7V204h35.4v3.7l-4.4.7zM533 241c2.6 2.6 4.5 6 5.3 12h.6c1-6 2.9-9.4 5.4-12-3.6-7.1-5.5-15-5.6-23-1.2 12.8-3 19-5.7 23z" clip-rule="evenodd"/>
    <path fill="#93442c" d="M433.1 231c0-11 2.4-22 15.4-22 14 0 20.7 19.1 21.9 40.5h11.4v-44.8h-5.4c0 3.7-2 5.4-4.5 5.4-3.2 0-6.7-1.3-10.8-3.4-4-1.7-8.3-2.7-12.6-2.7-19 0-32.5 18.8-32.5 37.8v9.4c2-1.2 5.1-1.2 8.4 0a37 37 0 01-5.3 8.4 93 93 0 007.8 27.8c-1.2-14.3.9-22 3.3-27.8-2.2-2.5-4-5.3-5.3-8.4 2.9-1.2 6.1-1.2 8.2 0V231zm-8.7 19.2c-.7-2.4-2.8-5.7-5.3-8.4 1.5-6.5 4.6-15 9.4-23.1-1.2 9.4-1 16.4 1.7 23-3 2.8-4.5 6-5.3 8.5h-.5zM727.1 231c0-11 2.4-22 15.4-22 14 0 20.7 19.1 21.9 40.5h11.4v-44.8h-5.4c0 3.7-2 5.4-4.5 5.4-3.2 0-6.7-1.3-10.8-3.4-4-1.7-8.3-2.7-12.6-2.7-19 0-32.5 18.8-32.5 37.8v9.4c2-1.2 5.1-1.2 8.4 0a37 37 0 01-5.3 8.4 93 93 0 007.8 27.8c-1.2-14.3.9-22 3.3-27.8-2.2-2.5-4-5.3-5.3-8.4 2.9-1.2 6.1-1.2 8.2 0V231zm-8.7 19.2c-.7-2.4-2.8-5.7-5.3-8.4 1.5-6.5 4.6-15 9.4-23.1-1.2 9.4-1 16.4 1.7 23-3 2.8-4.5 6-5.3 8.5h-.5z"/>
  </g>
  <g pointer-events="none">
    <path fill="#bf6b2b" fill-rule="evenodd" d="M567.5 454c-10.3 0-12.2-11-12.2-23.5V385c0-9.6 2-19 12.2-19 10 0 12.1 9.4 12.1 19v45.5c0 11.6-2 23.4-12.1 23.4zm5.4-7.4c2.6 0 3.8-7.2 3.8-16.5V391c0-6.9-.3-11.6-2.7-11.6-2 0-3.3 3.4-3.3 12.4v40.4c0 6.7.5 14.4 2.2 14.4zM1080.1 432.6c-20.3-7-34-26.1-34-47.6.1-20.9 16-33 35-33 5.4 0 10.8.8 16 2.3 2 .5 3.5 1 4.7 1 1.9 0 3-1.4 3.9-2.6h12.7l12.6 17v36h-11.3l-15.4-14.4c-1.3-7.5-4.2-15-11.3-15-6.1 0-9 3.6-9 8.7 0 4.4 1.5 7.4 13 11.3 24 8.4 38.1 24.3 38.1 50a34.6 34.6 0 01-51 31.9c-2.7-1.9-5.6-3.4-7.8-3.4-2 0-3.3 3-4.3 5l-.7 1.5h-14.8l-11.5-14.9v-42.2h15c2.8 6 6.3 11.5 10.3 16.7 3.3 4.1 8.6 8.2 15 8.2 3.7 0 8.6-2 8.6-6.5s-7.2-7.3-13.8-10zm39.5 0c0-20.6-10-29.8-32.4-36.5-13-3.7-19.1-6.8-19-16.6 0-6.6 4.5-14 14-14 7.4 0 15.8 5.7 18.9 9.6 2.6 3.2 4.6 8 5.8 13.2h8.4V356h-8.4c-1.2 1.2-2.6 2.6-4.6 2.6-2.4 0-4.8-.8-7.4-1.6l-.5-.1c-3.2-1-8.9-2-14.2-2-16.9 0-30.8 11.2-30.8 29.3 0 17.1 6.2 26.7 21.6 33.2l13.3 5.5c5.7 2.4 14.7 6.5 14.7 16.2 0 6.9-5.3 13-12.5 13-9.7.3-19-4.4-24.4-12.5-2.7-4.3-4.4-8-5.3-12.6h-8.5v36.7h8.5c1.5-3 3.4-6.5 6.2-6.5 2.6 0 5.5 1.4 9.2 3.2l.5.3c3.8 1.8 9.6 4 16 4 17.5 0 30.9-13 30.9-32.3z" clip-rule="evenodd"/>
    <path fill="#bf6b2b" d="M971.7 415.7v24c0 6-1 10.7-4.5 11.4l-6.5 1V468l10.8 14.4h49v-13l-11-14.6v-42.2l11.2-20c3.5-6.2 8.4-7.5 12.3-8.2l5.9-.9v-12.6l-13.6-16.8H939v15.7l5.6.7c3 .4 5.2 3.3 8 8.6l19 36.7zM942 357.1h41.2v9.7l-5.3.9c-3.8.7-4.8 3.6-2.6 7.5l11 19.8 10.6-19.3c2.4-4 1.7-7.3-1.6-8l-5.3-.9v-9.7h34v9.7l-5.8.9c-2.2.3-3.5 3-5.4 6.3l-19 34.4v32.1c0 7.9 1.4 12.9 5.6 13.7l5.5.9v9.7h-41.4v-9.7l5.5-.9c4.3-.8 5.6-5.8 5.6-13.7v-24.8L955.4 379c-3.2-6.5-5.3-11-8.9-11.5l-4.4-.7v-9.7zM878.3 414v28c0 6.9 2.6 11.9 11.3 11.9 12 0 15-8.8 15-19.4v-8.3h10.7v38.6H848v-9.7l5.4-.9c4.2-.7 5.5-5.8 5.5-13.7v-59.1c0-8-2-13-5.5-13.7l-5.4-.9v-9.7h67.2v37.3h-10.8v-7.2c0-12.9-6.8-19.5-14.9-19.5-8.7 0-11.3 4-11.3 12v22.2h17V414h-17zm-22.2-32.6v58.3c0 6-1.2 10.7-4.4 11.4l-6.7 1V468l11 14.4h75V441l-13.3-18H909v-7.7l-15-20-.2-4.3c-.2-3.2 1.2-6 4.1-6 2.7 0 3.6 2 3.6 5.7v6l11.5 15h18v-40.4L917.6 354H845v15.7l5.5 1c3.2.4 5.6 2.8 5.6 10.7zm37.8 50h7.7v2.8c0 10-3.2 14.2-5.3 14.2-1.7 0-2.4-2.6-2.4-5.3v-11.6zm-149.8 8.3c0 6-1.2 10.7-4.4 11.4l-6.7 1V468l11 14.4h47.8v-4l3.6 4h46.2v-17.7l-9.4-10-27.7-42.3 13.8-17.6c5.5-7 10.3-8.9 15.2-9.6l6.7-.8v-13.5L827.6 354H733v15.7l5.5 1c3.2.4 5.6 2.8 5.6 10.7v58.3zm3-58.3c0-8-2.1-13-5.6-13.7l-5.4-.9v-9.7h41.2v9.7l-5.5.9c-3.4.7-5.5 5.6-5.5 13.7V402c.9 0 2-.9 2.4-1.8l21.6-27.8c.7-.7 1.4-2 1.4-2.8 0-1-2.3-2-4.5-2.4l-4-.5V357h41.3v9.7l-5.7.9c-2.4.3-5.8 4.6-10.6 10.8L787 405.8l20.8 34.7c4.3 7.2 8.7 13 13.2 13.7l6.1.9v9.7h-43.7v-9.7l3.7-.6c1.4-.3 2.4-1.7 2.4-3.5s-1-4.3-2.5-6.9l-13.2-21.7-7.4 9.6v8.5c0 7.9 1.4 12.9 5.7 13.7l5.5.9v9.7H736v-9.7l5.4-.9c4.2-.8 5.5-5.8 5.5-13.7v-59.1zM650 440.5c0 7.9 1.3 12.7 5.6 13.7l3.8.9v9.7H628v-9.7l5.4-.9c4.2-.8 5.5-5.8 5.5-13.7v-59.1c0-8-2-13-5.5-13.7l-5.4-.9v-9.7h38.3l22.6 61.4h.1v-37.1c0-8-2-13-5.4-13.7l-5.5-.9v-9.7H711v9.7l-5.3.9c-3.6.7-5.6 5.6-5.6 13.7v83.4h-19.9l-29.9-83.4h-.3v59.1zm65.8 41.8v-84c0-9.2 2.6-12.8 5.6-13.2l5.3-.8v-13.5L714.1 354h-39v8.4l-6.3-8.4H625v15.7l5.5 1c3.2.4 5.6 2.8 5.6 10.7v58.3c0 6-1.2 10.7-4.4 11.4l-6.7 1V468l11 14.4h39v-15.8l-9.4-12.5v-19l11.3 31.5 11.8 15.8h27z"/>
    <path fill="#bf6b2b" fill-rule="evenodd" d="M567.5 352c32.6 0 51 29 51 49.8v31.4c0 32.9-17.9 49.1-41.6 49.1-24.5 0-47.9-18.1-47.9-55.6V394c0-25.7 18.5-41.9 38.5-41.9zm0 112.9c21.5 0 35.5-18.3 35.4-39.9v-31.4c-.2-21.4-14-38.7-35.4-38.7S532 373.4 532 393.6l-.2 32.6c-.2 23.3 14.2 38.7 35.6 38.7z" clip-rule="evenodd"/>
    <path fill="#bf6b2b" d="M432 440.5c0 7.9 1.3 12.7 5.6 13.7l3.8.9v9.7H410v-9.7l5.4-.9c4.2-.8 5.5-5.8 5.5-13.7v-59.1c0-8-2-13-5.4-13.7l-5.5-.9v-9.7h38.3l10.6 52.5 10-52.5h37.5v9.7l-5.4.9c-3.5.7-5.5 5.6-5.5 13.7v59.1c0 7.9 1.3 12.9 5.6 13.7l5.5.9v9.7H467v-9.7l3.8-.9c4.3-1 5.6-5.8 5.6-13.7v-59.1h-.3l-16.3 83.4h-11l-16.5-83.4h-.3v59.1zM407 354v15.7l5.5 1c3.2.4 5.6 2.8 5.6 10.7v58.3c0 6-1.2 10.7-4.4 11.4l-6.7 1V468l11 14.4h39v-6.7l5 6.6h60.3v-12.8L511 454.8v-56.4c0-9.2 2.8-12.8 5.9-13.2l5.3-.8v-13.5L509.6 354h-43.4l-3.1 15.7-11.8-15.7H407zM807 201h41.3v9.8l-5.5.9c-3.4.7-5.5 5.6-5.5 13.7v36.4c0 26.8 2.1 37 16 37 8.8 0 15.2-5.4 15.2-27v-46.4c0-6.5-1-13-5.8-13.7l-5.3-.9v-9.7h33v9.7l-5.5.9c-4.6.7-5.7 7.2-5.7 13.7V269c0 32.1-9.5 40.8-27.1 40.8-27 0-34-14-34-44v-40.4c0-8-2.1-13-5.6-13.7l-5.4-.9v-9.7zm44.4-3H804v15.7l5.5 1c3.2.4 5.6 2.8 5.6 10.7v40.5c0 44.3 20.9 61.5 44.5 61.5 19.5 0 35.2-10.9 35.2-36.4v-48.7c0-9.2 2.7-12.8 5.8-13.2l5.5-.8v-13.5L893.3 198h-38.9v3.8l-3-3.8zm1.5 43.3c0-8.2 1.7-12.5 6.3-13.4l6.2-.1v43.7c0 13.5-2.6 20.4-5.3 20.4-4.1 0-7.2-1.7-7.2-19.7v-31z"/>
    <path fill="#bf6b2b" fill-rule="evenodd" d="M953.1 276.6c-20.3-7-34-26.1-34-47.6.1-20.9 16-33 35-33 5.4 0 10.8.8 16 2.3 2 .5 3.5 1 4.7 1 1.9 0 3-1.4 4-2.6h12.6l12.6 17v36h-11.3l-15.4-14.4c-1.3-7.5-4.2-15-11.2-15-6.2 0-9.1 3.6-9.1 8.7 0 4.4 1.5 7.4 13 11.3 24.1 8.4 38.1 24.3 38.1 50a34.6 34.6 0 01-51 31.9c-2.7-1.9-5.6-3.4-7.8-3.4-2 0-3.3 3-4.3 5l-.7 1.5h-14.8L918 310.4v-42.2h15c3 6.1 7.6 13.5 10.3 16.7 3.3 4.1 8.6 8.2 15 8.2 3.6 0 8.6-2 8.6-6.5s-7.2-7.3-13.8-10zm39.5 0c0-20.6-10-29.8-32.4-36.5-13-3.7-19.1-6.8-19-16.6 0-6.6 4.5-14 14-14 7.4 0 15.8 5.7 18.9 9.6 2.6 3.2 4.6 8 5.8 13.2h8.4V200h-8.4c-1.2 1.2-2.6 2.6-4.6 2.6-2.4 0-4.8-.8-7.4-1.6l-.5-.1c-3.2-1-8.9-2-14.2-2-16.9 0-30.8 11.2-30.8 29.3 0 17.1 6.2 26.7 21.6 33.2l13.3 5.5c5.7 2.4 14.7 6.5 14.7 16.2 0 6.9-5.3 13-12.4 13-9.8.4-19-4.4-24.5-12.5a34 34 0 01-5.3-12.6h-8.6v36.7h8.6c1.5-3 3.4-6.5 6.2-6.5 2.6 0 5.5 1.4 9.2 3.2l.5.3c3.8 1.8 9.6 4 16 4 17.5 0 30.9-13 30.9-32.3z" clip-rule="evenodd"/>
    <path fill="#bf6b2b" d="M595.1 283.7c0 6-1.2 10.7-4.4 11.4l-6.7 1V312l11 14.4h49.7v-14.6L633 297.2v-20h8c1.2 3.4 1.8 18.8 6.9 29.6 6.1 13.1 16.6 19.4 26.1 19.4 13.9 0 21.6-8.2 21.6-30.4v-10L682.3 269h-11.8c8.2-5 13-13.9 12.7-23.4 0-19.8-15.2-47.7-46.4-47.7H584v15.7l5.5 1c3.2.4 5.6 2.8 5.6 10.7v58.3zm22.2-21.7v22.5c0 7.9 2 13.4 8 14l4 .6v9.7h-42.2v-9.7l5.4-.9c4.2-.8 5.5-5.8 5.5-13.7v-59.1c0-8-2-13-5.5-13.7l-5.4-.9v-9.7h48.2c21.9 0 32.1 11 32.1 28.5 0 13.7-6 21.4-12.4 25v.3c5.8 4.3 8 10.8 8.9 20.2.8 9.8 1.5 14.4 4.2 14.4 2.6 0 3.3-5.7 3.3-9.4v-7.9h9.9v7.9c0 23.7-6.5 29.9-16.6 29.9-12.3 0-17.3-6.5-19.7-27.4-1-9.9-3.7-20.6-11.6-20.6h-16zm22.8-28.6c1.4 0 2.7 1.4 2.7 3 0 3.3-4 6.6-7 6.6H633v-4.3c0-3.4 1.4-5.3 3.3-5.3h3.9zM623 216c-3.5 0-5.8 2-5.8 10.2v19.5h18c5.6 0 11.6-5.3 11.6-14.5 0-10.8-6-15.2-11.6-15.2h-12.1zm-96.9 67.7c0 6-1.2 10.7-4.4 11.4l-6.7 1V312l11 14.4h49v-13l-11-14.6v-56.4c0-9.2 2.6-12.8 5.7-13.2l5.3-.8v-13.5L562.4 198H515v15.7l5.5 1c3.2.4 5.6 2.8 5.6 10.7v58.3zm3-58.3c0-8-2.1-13-5.6-13.7l-5.4-.9v-9.7h41.2v9.7l-5.5.9c-3.4.7-5.5 5.6-5.5 13.7v59.1c0 7.9 1.4 12.9 5.7 13.7l5.5.9v9.7H518v-9.7l5.4-.9c4.2-.8 5.5-5.8 5.5-13.7v-59.1z"/>
    <path fill="#bf6b2b" fill-rule="evenodd" d="M457.9 328.3c-24.5 0-47.9-24.1-47.9-60.2v-28.5c0-23.1 17.3-41.6 37.4-41.6 5.9 0 10.3 1.2 14.4 3a32 32 0 007.4 2.8c1 0 1.2-2 1.2-5.1H486l14.4 16.2v55h-23.3l-12.8-14.4c-.5-19.4-4.3-30.1-7.7-30.1-3.8 0-5 5.6-5 12.4v47.8c0 5 1.7 8.8 4.8 8.8 4.5 0 7.2-8 7.9-23H487l14.4 16c-3.8 34-23.8 40.9-43.6 40.9zM448.5 212c13.3 0 18.8 23.4 18.8 40.4h17.6v-50.8h-11.6c0 4.4-1 5.5-2.8 5.5-2 0-5.4-1.4-8.2-3a30 30 0 00-13.8-3.2c-21.6 0-35.4 20.9-35.4 38.8v28.4c0 20.9 10.2 42.8 37.3 42.8 24.8 0 34.5-18.3 34.5-36.6h-17.6c0 19-6.2 25.6-16.4 25.6-10.1 0-14.7-9.9-14.7-23.4V231c0-9.6 2-19 12.3-19zm303.4 116.3c-24.5 0-47.9-24.1-47.9-60.2v-28.5c0-23.1 17.3-41.6 37.4-41.6 5.9 0 10.3 1.2 14.4 3a32 32 0 007.4 2.8c1 0 1.2-2 1.2-5.1H780l14.4 16.2v55h-23.3l-12.8-14.4c-.5-19.4-4.3-30.1-7.7-30.1-3.8 0-5 5.6-5 12.4v47.8c0 5 1.7 8.8 4.8 8.8 4.5 0 7.2-8 7.9-23H781l14.4 16c-3.8 34-23.8 40.9-43.6 40.9zM742.5 212c13.3 0 18.8 23.4 18.8 40.4h17.6v-50.8h-11.6c0 4.4-1 5.5-2.8 5.5-2 0-5.4-1.4-8.2-3a30 30 0 00-13.8-3.2c-21.6 0-35.4 20.9-35.4 38.8v28.4c0 20.9 10.2 42.8 37.3 42.8 24.8 0 34.5-18.3 34.5-36.6h-17.6c0 19-6.2 25.6-16.4 25.6-10.1 0-14.7-9.9-14.7-23.4V231c0-9.6 2-19 12.3-19z" clip-rule="evenodd"/>
  </g>
  <path fill="#9c3f1f" stroke="#000" stroke-width="3" d="M47 396.5c-21.5-63.5-3.6-82 18.5-82 40.5 0 71.2 12.4 132-17.5 25.7-12 89.4-60.4 109-62 24.5-2 40.5-1 47 37s-6.5 55.5-24.5 73.5-43 11.5-61 11.5c-14.4 0-75.7 26.3-104.5 39.5-31.7 21.2-99.3 50.8-116.5 0z"/>
  <path fill="#000" d="M78 385.5c-7.2-5.2-3-21.2 0-28.5.8 5.2-.3 14.6 2.5 21 3.5 8 17.5 7.5 18 11S87 392 78 385.5z"/>
  <path fill="#000" d="M78 385.5c-7.2-5.2-3-21.2 0-28.5.8 5.2-.3 14.6 2.5 21 3.5 8 17.5 7.5 18 11S87 392 78 385.5zm251.9-80.1c3.2-7.8-8.1-19.6-14.2-24.5 1.9 4.8 7.5 12.4 8.4 19.2 1.1 8.6-10.5 14.7-9.1 18 1.3 3.2 10.8-2.8 14.9-12.7z"/>
  <path fill="#000" d="M329.9 305.4c3.2-7.8-8.1-19.6-14.2-24.5 1.9 4.8 7.5 12.4 8.4 19.2 1.1 8.6-10.5 14.7-9.1 18 1.3 3.2 10.8-2.8 14.9-12.7z"/>
  <path fill="#9c3f1f" stroke="#000" stroke-width="3" d="M83 331c-16-54.8 56.7-80.8 95-87 75-19.5 119.5 0 128 46s-26.5 103-88.5 121S103 399.5 83 331z"/>
  <g fill="#000">
    <path d="M471 31l-4.4 3.7h-.6c2.5-2.5 4.1-3.7 5-3.7zm20.5-11.3c0 1.7-1.4 3.6-4.2 5.7l-6.2 4.6a125.8 125.8 0 00-25.2 29.2h1.2l2.2-.8a214 214 0 0031.9-13v2c-.6.5-1.6 1-3 1.8A195.4 195.4 0 01455 63c-.8.3-1.4.7-1.6 1.1-4.5 7.6-8.5 15-12 22a66.6 66.6 0 00-8.2 28.6c4.2-2.7 8.1-5.8 11.7-9.2v.4c0 1-2 3-5.8 6-4 2.8-6 4.7-6 5.6 0 1.7.6 2.9 1.7 3.5h2.2c4.3 0 8.8-2.4 13.5-7.1l12.5-12.6h.5l.5.6v.6c0 .3-.1.6-.5 1l-12.2 12.1c-5.5 5.5-10.5 8.2-15.2 8.2-3 0-6-1.6-8.7-5l-1.3.2c-7.3 0-11-2-11-6v-2.2c0-.8.2-1.4.5-2l15-28.2a53 53 0 01-30.5 13.9c-18.8 20.2-39.1 30.3-61 30.3-18 0-30-5.7-36.3-17-4-7-5.9-13-5.9-17.9 0-4.3 1.2-8.6 3.7-12.6 3.1-4.5 6.5-8.7 10.2-12.7 1.2-1 2.1-1.6 2.6-1.6-6.8 8-10.2 12.7-10.1 14.3l8-10c3.6-4.4 10.8-7.8 21.8-10.3H331c2-.6 4.6-.8 7.7-.8 14.2 0 23.7 2.8 28.5 8.4 1.4 1.6 2.1 7 2.1 16.2 0 7.7-3.6 14.1-10.7 19.1-6.3 4.5-14 6.9-21.7 6.8h-6c-1.6 0-3.6-.4-6.1-1.2-3-1-4.6-2-4.6-3.2l7.5 1.8c9.7 1.4 19.6-.3 28.3-5 7.1-4.1 10.7-9.6 10.7-16.3l-4.5 5a31.1 31.1 0 01-22.7 10.9c-3.7 0-7.1-1-10.3-2.7-3.8-2.2-5.7-4.9-5.7-8.2 0-2.2.9-4 2.6-5.5A8.9 8.9 0 01332 80v.4l2.6-.1 2.7-.2.5.5c-4.2 2.4-6.3 5-6.3 7.6 0 5.6 4 8.4 11.7 8.4 6.2 0 11.2-2.5 14.8-7.5.8-.9 1.7-2.3 2.8-4.3v-.5l-4.8 4.3V88c1.9-3.5 3-6 3.3-7.4.4-1.3.6-4 .6-8.2 0-6-5.8-9.1-17.3-9.1a44 44 0 00-33 15 15 15 0 00-4.7 10.3c0 3.3.9 7 2.6 11 6 14.4 20 21.1 41.6 20.3-6.4.6-12.8.6-19.2.2a80 80 0 00-7.2-.4l-.8.2a53 53 0 0017.1 2.6c9.8 0 18.3-2.1 25.6-6.4h-.7c-.8 0-2.2.4-4 1a13 13 0 01-4.4 1.1c6-1.7 12-4.4 17.7-8.1A44 44 0 00387.3 97a47.5 47.5 0 01-10.6 8.4c7.8-7.8 11.7-13 11.7-15.7-.8-1.3-1.3-1.9-1.6-1.7l-9.3 5.4c-.5 0-.8-.3-.8-1.1 0-.4 2.8-2.5 8.4-6.4-1.3-2.3-2-5-2-8.3 0-6.5 1.5-11 4.7-13.6v.2c0 .8-.3 2-.8 3.6a12 12 0 00-.8 3.5l.1.8c2.1-6.2 7-11 14.8-14.4-.3-.2-.5-.3-.8-.2-1.4.8-3 1.2-5 1.2a44 44 0 0117-4.8L423 39c-3.3 2-7 2.8-11.3 2.8 3.1-1.2 7.7-3.2 13.7-5.8 6.4-3 9.7-5.9 9.7-8.9-2.5 0-5 0-7.4.3a1007.4 1007.4 0 01-24.4-4.3h-4.6c-7 0-12.7 2.5-17.3 7.4V33c0 6.2 3.7 9.3 11.2 9.3 6.8 0 12.7-2.1 17.5-6.3l.2.1c0 2.7-2.2 5.1-6.5 7.4a22.8 22.8 0 01-21 1c-3.7-1.9-5.6-4.7-5.6-8.4 0-7.2 5.3-12 16-14.5l.5-1.2h4.3c2 0 4.3.2 6.9.6 10.8 1.5 21.6 2.7 32.5 3.7 2.6 0 6.2-1.5 10.9-4.5s7.6-4.6 8.6-4.6c1.8 0 2.7.5 2.7 1.6 0 .8-.6 1.7-2 2.8-1 .4-2.3 1-4 2a48 48 0 00-21.7 17.7l-8.4 14.8c-.3.6-.5 1.1-.5 1.7 6.1 3 9.2 5.6 9.2 7.7 0 .4 0 1-.3 1.7l-.1 1.6a8 8 0 005-1.4 80 80 0 005.5-5.6L457 43.8c.6-.7 1.3-1.2 2-1.6v.5l-3.7 5.4 3.1-3.3L469 35c3.7-3.3 7.4-6.2 11-8.8 0-.6 1.7-1.9 5-3.7 3.5-1.9 5.6-2.8 6.6-2.8zM329.3 56.9c0 .2-.2.3-.5.4-.3 0-.5-.2-.5-.4l.4-.2h.2c.1 0 .3 0 .4.2zm46.3 49.5c0 .3-.2.5-.4.5l-.2-.5.2-.1.4.1zm-49-48.8c0 .3-.2.5-.6.5-.3-.1-.5-.3-.5-.6l.4-.2h.3c.3 0 .4.1.4.3zm27.7 61.1c0 .3-.3.5-1 .5-.2 0-.4-.2-.5-.4h-.1c.1-.3.4-.3.7-.3.6 0 1 0 1 .2zm-2.7.5c0 .3-.3.5-.8.5-.4 0-.6-.2-.8-.5.2-.2.4-.3.8-.3.5 0 .8.1.8.3zm86.2-93.6c0-.1 0-.2-.3-.2l-.1.3.1.4.3-.5zm17 24c0-.3-.2-.5-.5-.5-.2.1-.3.3-.3.6 0 .2.2.4.3.5.3 0 .5-.2.5-.4v-.2zM433 33.1a3.2 3.2 0 00-2.1 2.1l2-2.1zm-5.4 3.2c-.7.3-1.6.9-2.6 1.7l-3.7 7.5c1-1 3-4 6.3-9.2zm-4 26.3c0-2.3-.8-3.4-2.3-3.4-.5.2-3.5 5.4-9 15.4h.5c2.4-.8 6-2.2 10.6-4.2v-.5l-2.1-1.6c0-.5.3-1.4 1-2.7.7-.9 1.1-1.9 1.3-3zm11.5 6.2h-.5a58 58 0 00-12 4.1 71.6 71.6 0 00-12.6 6L403.8 89l1.6.2c.9 0 2.2-.2 4-.6 1.7-.4 3.1-.6 4-.6l-1.7 1h.7c3.3 0 6.9-1.5 10.8-4.5 1.6-1.3 4.6-4 8.7-8.2l.7-1.1v-.6H431l-3.3 3.3c2.6-3 5.1-6 7.5-9.1zm-27.7-10.1h-.3c-4.8 0-8.9 1.3-12.1 4a14 14 0 00-5.2 11.4v1.7c0 4.3.7 6.4 2 6.4a5 5 0 004.6-2.8l5.1-10.8c2.7-5.3 4.6-8.6 6-10zm19.3 58a11 11 0 01-.7-2.6c-.1-5.9-.3-9-.5-9.2v.5c-1.7 3-2.6 5.3-2.6 6.7 0 3 1.3 4.6 3.8 4.6zm-65.3-33.4c0-.3-.1-.5-.3-.6-.2 0-.3.2-.3.5v.2l.3.4c.2-.1.3-.3.3-.5zm4.3 32.5v-.2c0-.3-.1-.4-.3-.6-.3 0-.4.3-.4.7v.1c0 .3.1.4.4.4.2 0 .3-.1.3-.4zm-35-34.8v-.1c-.8 0-1.1.4-1.1 1.1v.2c.8 0 1.2-.4 1.2-1.2zm-9.5 38.2c0-.2-.2-.3-.5-.3h-.1c-.3 0-.4.1-.4.3 0 .2.1.4.5.5l.5-.4v-.1zM417 86.4c0 .3-.2.5-.3.5-.4 0-.5-.2-.5-.4v-.2c0-.3.1-.4.5-.4.2.1.3.3.3.5zm-1.2.5c0 .2-.1.4-.3.4-.2 0-.3-.2-.3-.4s.1-.4.3-.5c.2.1.3.3.3.5zm-1 .6c0 .3-.1.5-.3.5-.3 0-.5-.1-.5-.4v-.2c0-.3.2-.5.5-.5.2.1.3.3.3.6z"/>
    <path d="M502.7 112.2l-4.5 1.9c0-.2 1.5-.9 4.5-2zm10.7-9.5l-.4.2a29 29 0 01-6.2 5.8 29 29 0 01-7.4 4.3l-6.7 1c-7.3 6.8-13.8 10.2-19.4 10.2-6.7 0-10-4.6-10-13.7l.3-3.9.3-3.9c-.8.5-2 1-3.9 1.6 0-1 .5-2 1.3-3 11.7-13 22.7-19.6 32.8-19.6 6.1 0 9.2 3.6 9.2 10.7a31 31 0 01-8 18.7v.3c5.3 0 11.1-3.2 17.4-9.5l.7.6v.3zm-14.6-17.3c0-.4-.2-.5-.3-.5-.3 0-.5.1-.5.5v.1c0 .3.2.4.5.4.2 0 .3-.2.3-.4v-.1zm-10.6.6c0-.4-.1-.6-.5-.6a1 1 0 00-.3.7c0 .2.2.3.3.5.4 0 .5-.2.5-.4V86zm6.5 8.2c0-2-.6-3.7-2-5h-2.2c-4.4 0-8.5 2.7-12.3 8.2a26 26 0 00-5.3 14.5c0 4.6 2.1 6.9 6.2 6.9 2.2 0 5.6-2.5 10.3-7.3l-6.8 4.7c8-7.6 12.1-15 12.1-22zm-9.3 23.7v-.2l-.3-.3c-.2 0-.3.2-.3.4s.2.4.3.5c.2 0 .3-.2.3-.4zm-1.9.9c-3.7 2-8 3-12.2 2.8l.7.4h1.7c5.3 0 8.6-1 9.8-3.2zm-12.4 2.4v-.2c0-.3-.2-.4-.3-.5-.2 0-.3.2-.3.5v.2l.3.4c.2 0 .3-.2.3-.4zm10.4-4.2l-.1.2h-.5v-.3l.5-.2v.3zm-1.2.8v.1l-.4.4c-.3 0-.4-.1-.4-.4v-.2c0-.2.1-.3.4-.3.3 0 .4.1.4.3z"/>
    <path d="M541.8 73.7c0 2.1-1.2 3.2-3.6 3.2-3.3 0-5-1-5-3.2 0-1.8 1.5-2.7 4.5-2.7h1.4c1.8 0 2.7 1 2.7 2.7zm4.8 28.1c0 .7-1.6 2.7-4.8 6.2-5.3 5.8-8.6 9.3-10 10.5-4.5 4-8.7 6-12.6 6-4 0-6.9-2.4-8.9-7.3v-1a44 44 0 015.5-12.2l4.5-7 4.4-6.9c.1-.1.3-.4.4-1L510.8 104h-.6c0-2.1 6-9.3 18.2-21.3l4.5-.3 4.5-.2v.5L521.2 111a14.5 14.5 0 00-1.9 6c0 1.2.4 1.7 1.2 1.8l2.6-.1-.5.5h.2l.1.2c1-.3 2.4-.9 4-1.7l10.5-9.1h.6l-3.7 5 11.6-11.9h.7zm-20.4 18.7v-.1c0-.2-.2-.3-.3-.4-.4 0-.5.1-.5.4v.1c0 .3.1.4.5.4.2 0 .3-.2.3-.4zm-1.5.4h-.5l-7 1.1.6.6h.8l.7.2c2.2 0 4-.6 5.4-1.9z"/>
    <path d="M598.7 71.3h-17.8c-4.6 7-8.6 14.3-12.2 21.8l-14.3 22.3c-.7 1-1.1 2-1.2 3.2 0 1.8 1 2.7 3.1 2.7 3.9 0 8.5-3 14-9s8.6-9 9.2-9c0 1.2-.6 2.5-1.9 4.1-1.5 1.8-2.3 3-2.6 3.7-6 5-10.7 9-14.3 11.7a14 14 0 01-8.8 3.2c-4.8 0-7.2-2.4-7.2-7.4 0-4.5 1.6-9.7 4.9-15.3l9-13.5-14.8 16.5h-.7l-.4-.5 16.9-20.2c4-4.3 7.4-9 10.1-14.3h-5.4c.2-1.3.4-2 .6-2h6.4l8.5-14c1.7-1 5-1.4 9.6-1.4v.9l-8 13.1c0 1 .4 1.4 1.1 1.4H598c.4 0 .6.7.8 2zM554.4 124l-.5-.2H551c-.2 0-.3 0-.5.2.2.2.7.3 1.4.3h.8c.7 0 1.2-.1 1.6-.3zm-4-.5c0-.3 0-.5-.3-.6-.3 0-.4.2-.4.5v.2c0 .2.1.4.4.4.3-.1.4-.3.4-.5zM652 101.8c0 .9-.3 1.9-1.2 3a5.3 5.3 0 00-1 4l-2 2.2a231 231 0 01-26.7 18.4l-.6.5c-5 8.2-10.2 16.2-15.7 24.1-1.2 1.7-5.2 6-11.8 12.5-4 4-8 6-12.3 6-4.9 0-7.3-2.8-7.3-8.3 0-1 .4-2.2 1-3.9a9 9 0 001.1-3.8c0-.3 0-.7-.2-1.2a3 3 0 01-.3-1.1 9 9 0 014.3-7.8v.5l-.3 1-.2 1a83.6 83.6 0 0131.1-22.7h.5l-2.2 1.6-11.5 6.8a38 38 0 00-8.7 6.6 22.2 22.2 0 00-6.3 8.4l3.8-3.2 26-17.5 2.6-3.7h-1.8c0-.6.4-1.1 1.4-1.5l-1.2-.5c2.4-.9 3.8-2.1 4.3-3.7h-.2c-1.9 0-4.5.8-7.9 2.4-3.3 1.5-6 2.3-7.8 2.3-4.3 0-6.5-3-6.5-9.2 0-4.2 2-9 5.9-14.6 2.2-3 5-7.7 8.6-13.8v-.8c0-1.4-.7-2-2-2-3 0-6.4 1.7-10 5.1a1252 1252 0 00-14 14.6h-.8c.4-1 3-4.4 8-10.1 6.7-7.9 12.2-11.8 16.5-11.8 3.7 0 6 2 7 6 1.4-1.5 3.4-2.2 6-2.2 1.2 0 2.5.2 3.7.5-1.6 3-7 12.6-16.3 28.7a3 3 0 00-.4 1.5c0 1.5.8 2.2 2.3 2.2 8.2-6.8 15.7-14.5 22.4-22.8l6.5-10c2.2-2.6 6-3.9 11.3-3.9v1.2L628 117.4v1.5h1.6l-.7.6h.4c1.2 0 1.8-.6 2-1.7 0 .3.3.5.9.5a23 23 0 009.6-6.4v-.4l9.5-9.7h.8zm-23.5 0c-4.9 5.3-9.8 10.5-14.8 15.6a40.6 40.6 0 0014.8-15.6zm-.2 18.3v-.2c0-.2-.2-.3-.3-.4-.2.1-.3.3-.3.5s.1.3.3.5c.2-.1.3-.2.3-.4zm3 1l-6.6 2.1c-1 1.1-1.6 1.9-1.6 2.4 1 0 2.5-.5 4.4-1.6 2-1 3.2-2 3.7-3zm-16.2-3.2v-.2c0-.2-.2-.3-.5-.3-.2 0-.3.2-.3.4s.1.4.3.5c.3 0 .5-.1.5-.4zm-1.4.4h-.5l-.7.3-.5.3h.5c.2 0 .4 0 .6-.3l.6-.3zm-10.6 3.3l-3.8-2.1v.5l-.1.5c0 1 .5 1.5 1.7 1.5h.4a4 4 0 001.8-.4zm6.3 11.6h-.5l-22.3 16.4c-1.3 1-2.6 2.3-3.8 3.8l-.1.2c0 1.2 1 1.9 3.3 1.9 8 0 14.1-3.6 18.5-10.8l-3.6 3.3h-.6a109 109 0 009.1-14.8zm-6.3 17c-8.9 6-15 9-18.5 9a11 11 0 01-2.1-.4l-2.3-.2c-2 0-3 2.1-3 6.3 0 3.7 1.3 5.5 4.1 5.5 6.7 0 14-6.8 21.8-20.3zM678 90.8l-1.2 3.3c0 .3-.1.5-.5.5H661c-1.2-.8-1.8-1.4-1.7-1.7l.6-2h18zM848.4 24c0 1-.9 1.8-2.7 2.6-1.6.7-3 1-4.3 1.1-2.4.4-5.9.8-10.5 1.1h-4.3l-17 .5c-.6.5-1.8.7-3.7.7 0-.7-.2-1-.6-1-.3-.2-2.7-.4-7-.8-9.6-.7-20.3-1-32.2-1-6.6 0-11.6.4-15 1.2a21.5 21.5 0 00-16.8 21c0 5.8 2.1 9.6 6.4 11.6 1.1.5 2 .8 2.3.8h4.2c11 0 16.6-3.6 16.6-10.7 0-5-1.4-7.4-4.3-7.4a24 24 0 00-7.5 2.6V46c0-.5 1.4-1.9 4.4-4H753c2.6-1.5 4.4-2.2 5.6-2.2 4.4 0 7.6.7 9.4 2.2 2 1.7 2.9 4.7 2.6 9 3.4-2.9 7.8-8.7 13.2-17.6.4.2.6.5.6 1 0 .7-.2 1.4-.6 2.3-8.6 18.2-21 29.7-37.2 34.5 1.1 3 1.7 6.3 1.7 9.8 0 7.5-2.3 13.7-7 18.7-4.6 5.1-11.3 8-18.2 7.8a34 34 0 01-12.7-3.1c-1.2.9-1.7 2.2-1.7 4l.1.7c4.3 5.2 9 7.8 14.3 8l7 .3 6.9.2c3.4 0 7.5-1.4 12.3-4.2 4.4-2.5 7.9-5.2 10.5-8-9.6 7-16.2 10.7-19.9 10.7l-.3-.1a57.3 57.3 0 0015.5-9c6-5.8 10.9-12.6 14.4-20.2 2.7-5.9 6.9-14.6 12.5-26.1 4-8.8 9.8-16.8 16.8-23.5v.5c-1.6 2.3-3.7 5.6-6.3 10.2l3.9-4.8c3.8-5.2 7.8-9.4 12-12.6.3-.2 1.5-.3 3.7-.3L807 35a16.8 16.8 0 00-4.4 5.4l-22 47.3a64 64 0 01-22 26.7c-10 7-21 10.5-32.8 10.5-10.1 0-18-2.8-23.8-8.5-6-6.3-9.2-14.9-8.7-23.6a33 33 0 016.3-20.5 46.2 46.2 0 0117.2-13.2l.5-.5-.3-1.1-.2-1v-2.4c0-3.9 1.3-7.6 4-11.1a65 65 0 018.7-8.4c1.3-1 2.4-1.6 3.3-1.6-.2 0-2.5 2.4-7 6.8l-1.7 2.2c4-4 7.2-6.8 9.6-8l11.8-6.5a72.6 72.6 0 0134.7-10h14.3c5.3 0 10.5 0 15.8.2 9 0 18-1 26.8-2.8.4 0 .8.2 1.1.5v.1c0 1.4-2.5 3.9-7.4 7.4h1.7c3.5 0 8.8-1 15.8-2.8v3.7zm-46.4.3a9 9 0 00-3.1-.9l-15.5-1.6h-6.7a56 56 0 00-27.8 6h1l10-2.5h-2.1l6.5-1H802zm-9.7 24.8V49c0-.3-.1-.4-.4-.4-.3 0-.4.3-.4.5s.2.3.4.4c.3 0 .4 0 .4-.4zM766.5 53v-.8l-1.2 3.2c.8-.4 1.2-1.2 1.2-2.4zm-29-19l-1.5 1.2a34.5 34.5 0 00-7.3 7.9c-2.5 3.7-3.8 7-3.8 9.9v2.6c0 1.1.3 1.7 1 1.9 1.9.4 4.7 1 8.6 2.1v-.4c-.6-.9-1-2.1-1.6-3.8a7 7 0 01-.7-2.6v-3c0-3.9 1.7-8.7 4.9-14.6l.5-1.2zm18.2 32.7c-4 .2-7.8 0-11.7-.7h-.4c.7.7 1.5 1.8 2.3 3.3 3.7 0 7-.9 10-2.6zm-14.4 2.1c-2.7-3.4-6.6-5-11.8-5 0 1.3 1.3 2.6 3.9 3.6 2.1 1 4 1.4 5.8 1.4h2.1zm11.8 45.1c-8.7 4-17 6-25 6-8.7.6-17.3-1.8-24.4-6.8a8.2 8.2 0 01-3.5-6.5c0-4 2-5.9 6-5.9 1.3 0 4.6 1.2 9.9 3.6 2.4.9 5 1.2 7.5 1.1 6.6 0 12.1-2.3 16.4-6.8 4.2-4.4 6.2-10 6.2-16.7 0-4.3-.7-7.6-2.3-10h-2.1c-9 .2-16.2-2.3-21.5-7.6-1.3 0-3.3.8-6.2 2.4-12 6.4-18 16.2-18 29.5 0 8.6 2.9 15.3 8.8 20.1 6 4.7 13.6 7.1 21.3 6.8 4.6 0 9.5-.7 14.6-2.2 6.1-1.8 10.2-4.1 12.3-7zm73.9-1.7l-4.6 1.9c0-.2 1.5-.9 4.6-2zm10.6-9.5l-.3.2a29 29 0 01-6.3 5.8 29 29 0 01-7.3 4.3l-6.8 1c-7.3 6.8-13.8 10.2-19.4 10.2-6.6 0-10-4.6-10-13.7l.4-3.9.3-3.9c-.8.5-2.1 1-4 1.6 0-1 .5-2 1.4-3 11.6-13.1 22.6-19.7 32.8-19.7 6 0 9.1 3.6 9.1 10.7a31 31 0 01-8 18.7v.3c5.3 0 11.2-3.2 17.5-9.5l.6.6v.3zm-14.5-17.3c-.1-.4-.2-.5-.4-.5-.3 0-.4.1-.4.5v.1c0 .3.1.4.4.4.2 0 .4-.2.4-.4v-.1zm-10.6.6c0-.4-.2-.6-.5-.6a1 1 0 00-.3.7c0 .2.1.3.3.5.3 0 .5-.2.5-.4V86zm6.5 8.2c0-2-.7-3.7-2-5h-2.2c-4.4 0-8.5 2.7-12.4 8.2a26 26 0 00-5.2 14.5c0 4.6 2 6.9 6.2 6.9 2.1 0 5.5-2.5 10.3-7.3l-6.9 4.7c8.1-7.6 12.2-15 12.2-22zm-9.3 23.7v-.2l-.3-.3c-.3 0-.4.2-.4.4l.4.5c.2 0 .3-.2.3-.4zm-2 .9c-3.7 2-8 3-12.2 2.8l.7.4h1.8c5.3 0 8.5-1 9.8-3.2zm-12.3 2.4v-.2c-.1-.3-.2-.4-.4-.5-.2 0-.3.2-.3.5v.2l.3.4c.2 0 .4-.2.4-.4zm10.3-4.2v.2h-.6v-.3l.5-.2.1.3zm-1.2.8v.1c0 .2-.2.3-.3.4-.3 0-.5-.1-.5-.4v-.2c0-.2.2-.3.5-.3.2 0 .3.1.3.3z"/>
    <path d="M866 73.7c0 2.1-1.2 3.2-3.6 3.2-3.3 0-5-1-5-3.2 0-1.8 1.5-2.7 4.6-2.7h1.3c1.8 0 2.7 1 2.7 2.7zm4.8 28.1a129 129 0 01-14.8 16.7c-4.4 4-8.6 6-12.6 6-3.9 0-6.8-2.4-8.8-7.3v-1c0-1.4 1.8-5.5 5.4-12.2l4.5-7 4.5-7c.2-.1.3-.4.5-1l-14.4 15h-.7c0-2.1 6.1-9.3 18.3-21.3l4.4-.3 4.6-.2v.5L845.5 111c-1.3 2.4-2 4.4-2 6 0 1.2.5 1.7 1.2 1.8l2.6-.1-.5.5h.2l.2.2c1-.3 2.3-.9 3.9-1.7l10.6-9.1h.6l-3.8 5 11.7-11.9h.6zm-20.4 18.7v-.1c0-.2-.1-.3-.3-.4-.3 0-.5.1-.5.4v.1c0 .3.2.4.5.4.2 0 .3-.2.3-.4zm-1.5.4h-.5l-7 1.1.7.6h.8l.7.2c2.2 0 4-.6 5.3-1.9z"/>
    <path d="M923 71.3h-17.8a180 180 0 00-12.3 21.8l-14.3 22.3c-.7 1-1 2-1.1 3.2 0 1.8 1 2.7 3.1 2.7 3.8 0 8.5-3 14-9 5.4-6 8.5-9 9.2-9 0 1.2-.7 2.5-2 4.1-1.4 1.8-2.3 3-2.5 3.7-6 5-10.8 9-14.3 11.7a14 14 0 01-8.9 3.2c-4.7 0-7.1-2.4-7.1-7.4 0-4.5 1.6-9.7 4.8-15.3l9-13.5-14.8 16.5h-.6l-.5-.5c.4-.7 2-2.6 4.7-5.9l12.2-14.3c4-4.3 7.5-9 10.2-14.3h-5.4c.2-1.3.4-2 .6-2h6.4l8.5-14a21 21 0 019.5-1.4v.9l-8 13.1c0 1 .4 1.4 1.2 1.4H922c.4 0 .7.7.8 2zM878.5 124l-.5-.2h-2.8c-.1 0-.3 0-.4.2.2.2.7.3 1.4.3h.8c.7 0 1.2-.1 1.5-.3zm-3.9-.5c0-.3-.1-.5-.3-.6-.3 0-.5.2-.5.5v.2c0 .2.2.4.5.4.2-.1.3-.3.3-.5zm101.7-21.7c0 .9-.4 1.9-1.2 3a5.3 5.3 0 00-1 4L972 111a230.9 230.9 0 01-26.6 18.4l-.7.5c-5 8.2-10.1 16.2-15.6 24.1a149 149 0 01-11.9 12.5c-4 4-8 6-12.3 6-4.8 0-7.3-2.8-7.3-8.3 0-1 .4-2.2 1.1-3.9.7-1.6 1-2.9 1-3.8 0-.3 0-.7-.2-1.2a3 3 0 01-.3-1.1c0-3.2 1.5-5.8 4.3-7.8v.5l-.2 1-.3 1a83.6 83.6 0 0131.2-22.7h.4l-2.1 1.6-11.6 6.8a38 38 0 00-8.6 6.6c-2.8 2.2-5 5.1-6.4 8.4l3.8-3.2 26-17.5c.3-.2 1.1-1.4 2.7-3.7h-1.9c0-.6.5-1.1 1.4-1.5l-1.1-.5c2.4-.9 3.8-2.1 4.2-3.7h-.2c-1.8 0-4.4.8-7.8 2.4-3.4 1.5-6 2.3-7.8 2.3-4.4 0-6.6-3-6.6-9.2 0-4.2 2-9 6-14.6 2.1-3 5-7.7 8.5-13.8v-.8c0-1.4-.7-2-2-2-3 0-6.3 1.7-10 5.1a1252 1252 0 00-14 14.6h-.8c.4-1 3-4.4 8-10.1 6.7-7.9 12.2-11.8 16.6-11.8 3.7 0 6 2 7 6 1.4-1.5 3.3-2.2 5.9-2.2 1.3 0 2.5.2 3.7.5-1.5 3-7 12.6-16.3 28.7a3 3 0 00-.3 1.5c0 1.5.7 2.2 2.2 2.2 1.7-.6 5.6-4.2 11.6-10.6 5.4-5.6 9-9.7 10.8-12.2l6.5-10c2.2-2.6 6-3.9 11.4-3.9v1.2l-21.2 34.6v1.5h1.7l-.7.6h.3c1.2 0 1.9-.6 2-1.7 0 .3.3.5 1 .5a23 23 0 009.6-6.4v-.4l9.4-9.7h.8zm-23.6 0c-4.9 5.3-9.8 10.5-14.8 15.6 6-3.4 10.9-8.6 14.8-15.6zm-.2 18.3v-.2c0-.2-.1-.3-.3-.4-.2.1-.3.3-.3.5s.2.3.3.5c.2-.1.3-.2.3-.4zm3 1l-6.5 2.1c-1.1 1.1-1.6 1.9-1.6 2.4 1 0 2.4-.5 4.3-1.6 2-1 3.3-2 3.8-3zm-16.2-3.2v-.2c0-.2-.1-.3-.4-.3-.3 0-.4.2-.4.4s.2.4.4.5c.3 0 .4-.1.4-.4zm-1.4.4h-.5l-.6.3-.6.3h.6c.1 0 .3 0 .5-.3l.6-.3zm-10.6 3.3l-3.7-2.1v.5l-.2.5c0 1 .6 1.5 1.8 1.5h.4c.5 0 1.1-.1 1.7-.4zm6.4 11.6h-.6l-22.3 16.4c-1.3 1-2.5 2.3-3.7 3.8l-.2.2c0 1.2 1.1 1.9 3.3 1.9 8 0 14.2-3.6 18.5-10.8l-3.5 3.3h-.7c3.5-4.8 6.6-9.7 9.2-14.8zm-6.4 17c-8.8 6-15 9-18.4 9a11 11 0 01-2.2-.4l-2.2-.2c-2.1 0-3.1 2.1-3.1 6.3 0 3.7 1.4 5.5 4.2 5.5 6.6 0 13.9-6.8 21.7-20.3z"/>
  </g>
  <circle cx="356" cy="655" r="39" fill="#60266b"/>
  <circle cx="446" cy="655" r="39" fill="#9c451f"/>
  <circle cx="536" cy="655" r="39" fill="#d37621"/>
  <circle cx="88.5" cy="708.5" r="20.5" fill="#60266b"/>
  <circle cx="30" cy="639.6" r="20.5" fill="#d37621"/>
  <circle cx="130.5" cy="614.5" r="103.5" stroke="#000" stroke-width="2"/>
  <path stroke="#000" stroke-width="2" d="M130.4 616.4l-40.4 93"/>
  <circle cx="156.5" cy="329.5" r="28" fill="#fff" stroke="#000" stroke-width="3"/>
  <circle cx="163.5" cy="334.5" r="14.5" fill="#000"/>
  <path fill="#fff" d="M153.5 332.5c0-4.4 4-6.2 6-6.5l-2.5 16.5a18 18 0 01-3.5-10z"/>
  <circle cx="245" cy="311" r="30.5" fill="#fff" stroke="#000" stroke-width="3"/>
  <circle cx="246" cy="317" r="17" fill="#000"/>
  <path fill="#fff" d="M234.3 314.7c0-5.2 4.7-7.3 7-7.7l-3 19.4a21.2 21.2 0 01-4-11.7z"/>
  <path fill="#d57329" stroke="#000" stroke-width="3" d="M153 180.5c0 6.4-9.7 26.3-14.5 35.5l19.5 7 41-7c-3.8-7.7-12.7-25.5-17.5-35.5a56.1 56.1 0 01-4-28c3.3 0 10-3.5 10-11.5 0-10.8-9.5-13.5-15.5-12 1-11.5-4.6-18-13-18s-16 11-12 19.5c-2.7 1.2-10 4.3-10 13.5s11.2 9.8 16 8.5v28z"/>
  <path fill="#ee7f30" stroke="#000" stroke-width="3" d="M82.5 222a741 741 0 018 71.5l203-40.5a4353 4353 0 01-16-59.5 337.8 337.8 0 01-5-48c4.7 0 14-2.8 14-14s-12.7-13-19-12.5c0-8.2-3.6-24.5-18-24.5s-14.7 16.3-13 24.5c-3.7 1.5-10.4 7-8 17 2.4 10 13.7 11.3 18 13-5.5 30-45.7 63.1-66.5 67.5-20.8 4.4-71.5-23-77.5-39.5 11.5-3 11.5-11 11.5-17.5 0-12.5-11-13.7-17-14 .7-7.3-2.4-22-20-22s-16.7 18-11 28c-6.7 2.5-14 11.3-14 18.5 0 7.2 13.3 11 20 12 2 6.2 6.9 22.8 10.5 40z"/>
  <path fill="#cf7729" stroke="#000" stroke-width="4" d="M152 346.5c10.4-7.2 25-6 31-4.5-2-2.8-4.8-7.1-6-11.5-1.5-5.5.5-9 6-13s14 0 20.5 0 8.5-4 15.5-6 13 0 14 10c.8 8-2 11.3-3.5 12 10.2-2.2 34.4-6.3 50-5.5 19.5 1 44.5 8.5 46.5 38s-46.5 78.5-80.5 93.5c-29.4 13-108.5 26-132-15s25.5-89 38.5-98z"/>
  <circle cx="194" cy="330" r="6" fill="#000"/>
  <circle cx="219" cy="326" r="6" fill="#000"/>
  <path fill="#000" d="M237.5 361c-6 1.6-9.5 11.7-10.5 16.5 2.3-2.3 8.3-7.7 13.5-10.5 6.5-3.5 9.5 2.5 9.5 8 0 4.4-10.7 7.2-16 8a37 37 0 0016 0c7-2 10.3-13 8-18-3-6.5-13-6-20.5-4z"/>
  <path stroke="#000" stroke-width="2" d="M131.2 616.8L51 681.6M130.5 617.8L30.1 640.3"/>
</svg>