<?xml version="1.0" encoding="utf-8"?>
<svg width="1226" height="749" fill="none" viewBox="3.788 1.793 1222.066 746.5" xmlns="http://www.w3.org/2000/svg">
  <path fill="#fff" d="M0 0h1226v749H0z" style="pointer-events: none;">
    <title>base</title>
  </path>
  <circle cx="58.446" cy="686.465" r="20.5" style="fill: rgb(156, 69, 31);"/>
  <path d="M776 565.8C505 527.3 48 309.3 48 232.3s261-98 628.5-95 545 24 505 165.5c-19.4 68.5-134.5 301.5-405.5 263z" style="fill: rgb(94, 37, 104);">
    <title>shape</title>
  </path>
  <g style="" transform="matrix(1, 0, 0, 1, 1, 0)">
    <title>text-back</title>
    <path d="M 952.1 276.6 C 931.814 269.555 918.185 250.474 918.1 229 C 918.2 208.1 934.1 196 953.1 196 C 958.516 196 963.904 196.775 969.1 198.3 C 971.1 198.8 972.6 199.3 973.8 199.3 C 975.7 199.3 976.8 197.9 977.8 196.7 L 990.4 196.7 L 1003 213.7 L 1003 249.7 L 991.7 249.7 L 976.3 235.3 C 975 227.8 972.1 220.3 965.1 220.3 C 958.9 220.3 956 223.9 956 229 C 956 233.4 957.5 236.4 969 240.3 C 993.1 248.7 1007.1 264.6 1007.1 290.3 C 1008.216 316.912 980.106 334.752 956.501 322.413 C 956.367 322.343 956.233 322.272 956.1 322.2 C 953.4 320.3 950.5 318.8 948.3 318.8 C 946.3 318.8 945 321.8 944 323.8 L 943.3 325.3 L 928.5 325.3 L 917 310.4 L 917 268.2 L 932 268.2 C 935 274.3 939.6 281.7 942.3 284.9 C 945.6 289 950.9 293.1 957.3 293.1 C 960.9 293.1 965.9 291.1 965.9 286.6 C 965.9 282.1 958.7 279.3 952.1 276.6 Z" fill="#fff" style="stroke-width: 8px; stroke: rgb(255, 255, 255);"/>
    <path fill-rule="evenodd" clip-rule="evenodd" d="M 850.4 198 L 803 198 L 803 213.7 L 808.5 214.7 C 811.7 215.1 814.1 217.5 814.1 225.4 L 814.1 265.9 C 814.1 310.2 835 327.4 858.6 327.4 C 878.1 327.4 893.8 316.5 893.8 291 L 893.8 242.3 C 893.8 233.1 896.5 229.5 899.6 229.1 L 905.1 228.3 L 905.1 214.8 L 892.3 198 L 853.4 198 L 853.4 201.8 L 850.4 198 Z M 851.9 241.3 C 851.9 233.1 853.6 228.8 858.2 227.9 L 864.4 227.8 L 864.4 271.5 C 864.4 285 861.8 291.9 859.1 291.9 C 855 291.9 851.9 290.2 851.9 272.2 L 851.9 241.2 Z" fill="#fff" style="stroke-width: 8px; stroke: rgb(255, 255, 255);"/>
    <path d="M 589.7 295.1 C 592.9 294.4 594.1 289.7 594.1 283.7 L 594.1 225.4 C 594.1 217.4 591.7 215.1 588.5 214.8 L 583 213.8 L 583 198 L 635.8 198 C 667 198 682.2 225.9 682.2 245.7 C 682.2 256.8 676.7 265 669.5 269.1 L 681.3 269.1 L 694.5 285.7 L 694.5 295.8 C 694.5 318 686.8 326.2 672.9 326.2 C 663.4 326.2 652.9 319.9 646.8 306.8 C 643.741 299.288 641.787 291.373 641 283.3 C 640.6 280.4 640.3 278.3 640 277.2 L 632 277.2 L 632 297.2 L 643.7 311.7 L 643.7 326.3 L 594 326.3 L 583 311.9 L 583 296.2 L 589.7 295.2 Z M 525.1 283.7 C 525.1 289.7 523.9 294.4 520.7 295.1 L 514 296.1 L 514 312 L 525 326.4 L 574 326.4 L 574 313.4 L 563 298.8 L 563 242.4 C 563 233.2 565.6 229.6 568.7 229.2 L 574 228.4 L 574 214.9 L 561.4 198 L 514 198 L 514 213.7 L 519.5 214.7 C 522.7 215.1 525.1 217.5 525.1 225.4 L 525.1 283.7 Z M 409 268.1 C 409 304.1 432.4 328.3 456.9 328.3 C 476.7 328.3 496.7 321.5 500.5 287.4 L 486.1 271.4 L 463.4 271.4 C 462.7 286.4 460 294.4 455.5 294.4 C 452.5 294.4 450.7 290.5 450.7 285.6 L 450.7 237.8 C 450.7 231 451.9 225.4 455.7 225.4 C 459.1 225.4 462.9 236.1 463.4 255.4 L 476.2 269.8 L 499.5 269.8 L 499.5 215 L 485 198.7 L 469.3 198.7 C 469.3 201.7 469.1 203.8 468.1 203.8 C 465.522 203.145 463.037 202.17 460.7 200.9 C 456.7 199.2 452.2 198 446.3 198 C 426.2 198 408.9 216.5 408.9 239.6 L 408.9 268 Z M 750.9 328.3 C 726.4 328.3 703 304.2 703 268.1 L 703 239.6 C 703 216.5 720.3 198 740.4 198 C 746.3 198 750.7 199.2 754.8 201 C 757.141 202.236 759.627 203.176 762.2 203.8 C 763.2 203.8 763.4 201.8 763.4 198.7 L 779 198.7 L 793.4 214.9 L 793.4 269.9 L 770.1 269.9 L 757.3 255.5 C 756.8 236.1 753 225.4 749.6 225.4 C 745.8 225.4 744.6 231 744.6 237.8 L 744.6 285.6 C 744.6 290.6 746.3 294.4 749.4 294.4 C 753.9 294.4 756.6 286.4 757.3 271.4 L 780 271.4 L 794.4 287.4 C 790.6 321.4 770.6 328.3 750.8 328.3 Z M 970.7 439.7 L 970.7 415.7 L 951.5 379 C 948.8 373.7 946.5 370.8 943.6 370.4 L 938 369.7 L 938 354 L 1024.3 354 L 1037.9 370.8 L 1037.9 383.4 L 1032 384.3 C 1028.1 385 1023.2 386.3 1019.7 392.5 L 1008.4 412.5 L 1008.4 454.7 L 1019.6 469.3 L 1019.6 482.3 L 970.5 482.3 L 959.7 467.9 L 959.7 452.2 L 966.2 451.2 C 969.6 450.4 970.7 445.7 970.7 439.7 Z" fill="#fff" style="stroke-width: 8px; stroke: rgb(255, 255, 255);"/>
    <path fill-rule="evenodd" clip-rule="evenodd" d="M 855.1 381.4 L 855.1 439.7 C 855.1 445.7 853.9 450.4 850.7 451.1 L 844 452.1 L 844 468 L 855 482.4 L 930 482.4 L 930 441 L 916.7 423 L 908 423 L 908 415.3 L 893 395.3 L 892.8 391 C 892.6 387.8 894 385 896.9 385 C 899.6 385 900.5 387 900.5 390.7 L 900.5 396.7 L 912 411.7 L 930 411.7 L 930 371.3 L 916.6 354 L 844 354 L 844 369.7 L 849.5 370.7 C 852.7 371.1 855.1 373.5 855.1 381.4 Z M 892.9 431.4 L 900.6 431.4 L 900.6 434.2 C 900.6 444.2 897.4 448.4 895.3 448.4 C 893.6 448.4 892.9 445.8 892.9 443.1 L 892.9 431.5 Z" fill="#fff" style="stroke-width: 8px; stroke: rgb(255, 255, 255);"/>
    <path d="M 739.7 451.1 C 742.9 450.4 744.1 445.7 744.1 439.7 L 744.1 381.4 C 744.1 373.4 741.7 371.1 738.5 370.8 L 733 369.8 L 733 354 L 827.6 354 L 840.2 370.8 L 840.2 384.3 L 833.5 385.1 C 828.5 385.8 823.8 387.7 818.3 394.7 L 804.5 412.3 L 832.2 454.5 L 841.6 464.6 L 841.6 482.2 L 795.4 482.2 L 791.8 478.3 L 791.8 482.3 L 744 482.3 L 733 467.9 L 733 452.2 L 739.7 451.2 Z M 715.8 482.3 L 715.8 398.3 C 715.8 389.1 718.4 385.5 721.4 385.1 L 726.7 384.3 L 726.7 370.8 L 714.1 354 L 675.1 354 L 675.1 362.4 L 668.8 354 L 625 354 L 625 369.7 L 630.5 370.7 C 633.7 371.1 636.1 373.5 636.1 381.4 L 636.1 439.7 C 636.1 445.7 634.9 450.4 631.7 451.1 L 625 452.1 L 625 468 L 636 482.4 L 675 482.4 L 675 466.6 L 665.6 454.1 L 665.6 435.1 L 676.9 466.6 L 688.7 482.4 L 715.7 482.4 Z M 617.4 401.8 C 616.39 374.261 593.956 352.355 566.4 352 C 546.4 352 528 368.2 528 393.9 L 528 426.7 C 528 464.2 551.4 482.3 575.9 482.3 C 599.6 482.3 617.4 466.1 617.4 433.3 L 617.4 401.8 Z M 406 354 L 406 369.7 L 411.5 370.7 C 414.7 371.1 417.1 373.5 417.1 381.4 L 417.1 439.7 C 417.1 445.7 415.9 450.4 412.7 451.1 L 406 452.1 L 406 468 L 417 482.4 L 456 482.4 L 456 475.7 L 461 482.3 L 521.3 482.3 L 521.3 469.5 L 510 454.8 L 510 398.4 C 510 389.2 512.8 385.6 515.9 385.2 L 521.2 384.4 L 521.2 370.9 L 508.6 354 L 465.2 354 L 462.1 369.7 L 450.3 354 L 406 354 Z M 1071.9 429.5 C 1073.9 430.5 1076.4 431.5 1079.1 432.6 C 1085.7 435.3 1092.9 438.1 1092.9 442.6 C 1092.9 447.1 1087.9 449.1 1084.4 449.1 C 1077.9 449.1 1072.6 445.1 1069.4 440.9 C 1065.35 435.719 1061.863 430.121 1059 424.2 L 1044 424.2 L 1044 466.4 L 1055.5 481.3 L 1070.3 481.3 L 1071 479.9 C 1072 477.7 1073.4 474.8 1075.3 474.8 C 1077.5 474.8 1080.4 476.3 1083.2 478.2 C 1106.642 490.845 1134.982 473.371 1134.212 446.747 C 1134.208 446.631 1134.205 446.516 1134.2 446.4 C 1134.2 420.6 1120.1 404.7 1096 396.3 C 1084.5 392.3 1083 389.4 1083 385 C 1083 379.9 1085.9 376.3 1092 376.3 C 1099 376.3 1102 383.8 1103.3 391.3 L 1118.7 405.7 L 1130 405.7 L 1130 369.7 L 1117.4 352.7 L 1104.7 352.7 C 1103.8 353.9 1102.7 355.2 1100.7 355.2 C 1099.6 355.2 1098 354.8 1096 354.2 L 1093.2 353.5 C 1089.8 352.7 1085 352 1080.1 352 C 1061.1 352 1045.2 364.1 1045.2 385 C 1045.237 403.615 1055.492 420.707 1071.9 429.5 Z" fill="#fff" style="stroke-width: 8px; stroke: rgb(255, 255, 255);"/>
  </g>
  <g style="pointer-events: none;">
    <title>inner-text</title>
    <path d="M 1080 397 C 1069.2 393.4 1065.8 388 1065.8 379 C 1065.8 371.5 1070.4 362.6 1082.8 362.6 C 1095.861 363.179 1106.88 372.512 1109.6 385.3 L 1112.9 385.3 L 1112.9 359 L 1108.4 359 C 1107.121 360.628 1105.17 361.585 1103.1 361.6 C 1099.7 361.6 1095.2 360 1091.8 359 C 1088.6 358.2 1084.8 358 1078.8 358 C 1064.401 358.11 1052.833 369.902 1053 384.3 C 1053 394.7 1055.2 401.8 1063 408.1 C 1065.1 406.7 1067.7 406.7 1071.3 408.1 C 1074.7 406.7 1078.7 406.7 1082.1 408.1 C 1091.7 412.1 1094.1 416.5 1095.2 420.2 C 1101.4 421.9 1107.2 431.5 1107.5 444.5 C 1112.2 431.2 1110.8 421.9 1105.2 413.4 C 1100.2 411.5 1092.5 410.1 1082.7 408.1 C 1086.477 406.716 1090.623 406.716 1094.4 408.1 C 1097.4 406.7 1100.7 406.7 1106.2 408.1 C 1100.7 403.5 1091 400.7 1080 397 Z M 1082 407.7 C 1068.6 404.2 1061.4 399.9 1056.8 393.6 C 1056.886 386.516 1058.241 379.506 1060.8 372.9 C 1060.7 382.4 1062.8 387.6 1067.2 390.6 C 1067 397.5 1071.8 402.3 1082.7 407.7 L 1082.1 407.7 Z" style="fill: rgb(147, 68, 44);"/>
    <path fill-rule="evenodd" clip-rule="evenodd" d="M 945 363.7 L 945 360 L 980.4 360 L 980.4 363.7 L 975.8 364.4 C 971.7 365.1 969.1 369.6 972.4 375.5 L 984.8 397.9 C 985.7 399.5 987.2 399.5 988.1 397.9 L 1000.6 375.4 C 1003.6 369.9 1001.8 365.4 997 364.8 L 993 364.1 L 993 360 L 1021.4 360 L 1021.4 363.7 L 1017.7 364.4 C 1014.7 365.1 1012.5 368 1010.1 372.4 L 989.8 409.1 C 988.1 407.7 986 407.7 984.2 409.1 C 985.2 411.6 986.7 414.4 989.6 417.4 C 987.105 426.784 985.333 436.345 984.3 446 C 983.1 436.8 981.4 426.8 978.7 417.4 C 981.7 414 982.7 411.8 983.1 409.1 C 980.679 407.482 977.521 407.482 975.1 409.1 L 959.1 378.5 C 958.6 377.7 958.1 376.9 957.8 376.1 C 954.4 369.9 951.7 364.9 947.8 364.3 L 945 363.7 Z M 971.5 397.7 C 976.5 401.4 979.7 404.4 983.3 408.9 L 984 408.9 C 982.3 404.3 981.3 399.9 981.4 396.1 C 974.941 389.305 969.241 381.828 964.4 373.8 C 967.516 381.559 969.893 389.595 971.5 397.8 Z" style="fill: rgb(147, 68, 44);"/>
    <path fill-rule="evenodd" clip-rule="evenodd" d="M 851 363.8 L 851 360 L 912.4 360 L 912.4 391.5 L 907.6 391.5 L 907.6 387.2 C 907.6 369.4 897.3 364.8 889.6 364.8 C 878.2 364.8 875.3 372.3 875.3 379.7 L 875.3 405 L 892.3 405 L 892.3 409 C 888.4 407.7 884 407.9 880.6 409.2 C 876.865 407.808 872.759 407.772 869 409.1 C 870 411.3 871.9 414.9 874.4 417.5 C 870.957 426.448 869.063 435.916 868.8 445.5 C 868.505 435.911 866.578 426.442 863.1 417.5 C 865.39 415.067 867.19 412.215 868.4 409.1 C 866 407.7 863.7 407.7 862.1 409.1 L 862.1 381.4 C 862.1 368.4 858.5 365.1 855.4 364.4 L 851 363.8 Z M 863.1 396.9 C 865.7 399.5 867.6 402.9 868.4 408.9 L 869 408.9 C 870 402.9 871.9 399.5 874.3 396.9 C 870.844 389.714 868.969 381.872 868.8 373.9 C 867.6 386.7 865.8 392.9 863.1 396.9 Z" style="fill: rgb(147, 68, 44);"/>
    <path fill-rule="evenodd" clip-rule="evenodd" d="M 756.4 409 C 754 407.7 751.8 407.7 750.1 409 L 750.1 381.4 C 750.1 368.4 746.5 365.1 743.4 364.4 L 739 363.8 L 739 360 L 774.4 360 L 774.4 363.8 L 770 364.4 C 766.9 365.1 763.3 368.4 763.3 381.4 L 763.3 405.7 C 767.3 405.7 769.1 404.7 771.1 401.9 L 793.1 373.9 C 793.7 372.9 794.7 370.8 794.7 368.9 C 794.7 366.3 793 364.6 789.7 364.3 L 786.4 363.8 L 786.4 360 L 821.6 360 L 821.6 363.8 L 817.1 364.4 C 814.7 364.9 811.5 368.8 807.3 374.2 L 805 377.1 L 780 409.1 C 778.3 407.7 776 407.7 773 409.1 C 778.5 412.7 782.6 415.1 787.2 416.6 C 789.2 424.6 792.9 432.8 798.8 445.5 L 796.1 441.7 C 790.1 433.5 784.7 426.1 779.1 421.4 C 778 417.1 775.8 413.4 772.3 409.1 C 771 407.7 768.1 407.7 765.5 409.1 C 762.828 407.746 759.672 407.746 757 409.1 C 758 411.3 759.9 414.9 762.4 417.5 C 758.957 426.448 757.063 435.916 756.8 445.5 C 756.505 435.911 754.578 426.442 751.1 417.5 C 753.39 415.067 755.19 412.215 756.4 409.1 Z M 751.1 397 C 753.7 399.5 755.6 403 756.4 409 L 757 409 C 758 403 759.9 399.5 762.3 397 C 758.831 389.784 756.955 381.905 756.8 373.9 C 755.6 386.7 753.8 392.9 751.1 396.9 Z M 773.8 405.6 L 772.3 408.9 L 773 408.9 L 776.9 405.7 C 780.4 402.7 783.9 399.8 787.7 396.9 C 788.2 392.5 794.7 381.5 799.4 373.9 C 793.303 382.66 785.881 390.42 777.4 396.9 C 776.4 400.1 775.2 402.6 773.8 405.6 Z" style="fill: rgb(147, 68, 44);"/>
    <path d="M 681.1 363.8 L 681.1 360 L 708.1 360 L 708.1 363.8 L 703.7 364.4 C 700.6 365.1 697 368.4 697 381.4 L 697 409 C 696 407.6 693.4 407.6 692.2 409 L 692.2 381.3 C 692.2 368.3 688.6 365 685.5 364.3 L 681.1 363.7 Z" style="fill: rgb(147, 68, 44);"/>
    <path fill-rule="evenodd" clip-rule="evenodd" d="M 631 363.8 L 631 360 L 663.8 360 L 681.8 409 C 678.993 407.622 675.707 407.622 672.9 409 C 674.6 411.3 677.2 414.2 680.8 417.5 C 681.1 423.5 682.1 430.8 685 445.5 C 678.5 431.3 674 423.5 670.2 417.5 C 671.5 414.4 672.4 411.3 672.4 409.1 C 668.8 407.7 666.1 407.7 664 409.1 L 653.7 380.9 C 652.7 377.8 651.7 375.9 649.5 375.9 C 647.5 375.9 647.1 378.5 647.1 381 L 647.1 409 C 645.5 407.7 643.5 407.7 642.1 409 L 642.1 381.4 C 642.1 368.4 638.5 365.1 635.4 364.4 L 631 363.8 Z M 662 396.9 C 665.9 399.5 668.6 402.9 672.4 408.9 L 672.9 408.9 C 672.9 402.9 672.9 399.5 673.1 395.9 C 668.4 390.4 664.3 383.8 658.5 372.5 C 661.426 380.282 662.621 388.609 662 396.9 Z" style="fill: rgb(147, 68, 44);"/>
    <path d="M 552.1 385 C 552.1 368.4 558.6 363 567.5 363 C 576.2 363 582.7 368.4 582.7 385 L 582.7 408 C 584.1 406.7 587.5 406.7 590.9 408 C 589.659 411.129 587.863 414.008 585.6 416.5 C 588.974 425.423 590.107 435.037 588.9 444.5 C 594.3 432.2 595.7 422.8 596.7 416.5 C 594.3 413.7 592.7 410.3 591.4 408.1 C 594.9 406.7 598.3 406.7 599.8 408.1 L 599.8 393.6 C 599.8 376.1 588.2 358 567.5 358 C 546.6 358 535 376.1 535 393.6 L 535 408 C 536.5 406.6 540.1 406.6 543.4 408 C 542.2 410.2 540.4 413.6 538.1 416.4 C 539.3 422.2 541.7 432.3 546.1 444.4 C 544.43 434.971 545.471 425.261 549.1 416.4 C 546.94 413.888 545.185 411.054 543.9 408 C 547.3 406.6 550.7 406.6 552.1 408 L 552.1 385 Z M 543.4 407.7 C 542.4 401.7 540.4 398.5 538.1 395.7 C 540.1 387.7 542.7 381.1 547.5 372.9 C 545.737 380.53 546.33 388.514 549.2 395.8 C 546.8 398.5 544.7 401.8 543.9 407.8 L 543.4 407.8 Z M 590.9 407.7 C 590.533 403.218 588.666 398.99 585.6 395.7 C 588.373 388.427 588.964 380.504 587.3 372.9 C 592.3 380.7 594.5 387.9 596.7 395.8 C 594.3 398.5 592.5 401.8 591.4 407.8 L 590.9 407.8 Z" style="fill: rgb(147, 68, 44);"/>
    <path fill-rule="evenodd" clip-rule="evenodd" d="M 462.6 409 L 472 360 L 503.6 360 L 503.6 363.7 L 499.2 364.4 C 496.2 365.1 492.5 368.4 492.5 381.4 L 492.5 409 C 490.8 407.6 488.5 407.6 486.4 409 C 487.622 412.079 489.421 414.896 491.7 417.3 C 488.222 426.242 486.295 435.711 486 445.3 C 485.737 435.716 483.843 426.248 480.4 417.3 C 482.679 414.896 484.478 412.079 485.7 409 C 483.3 407.6 481.1 407.6 479.3 409 L 479.3 381 C 479.3 378.4 478.7 375.8 476.8 375.8 C 474.6 375.8 473.7 378.4 473 380.9 L 467.7 408.9 C 466.2 407.6 464.3 407.6 462.6 408.9 Z M 480.4 397 C 482.9 399.5 484.8 403 485.7 408.9 L 486.4 408.9 C 487.2 402.9 489.1 399.5 491.4 396.9 C 487.979 389.707 486.138 381.864 486 373.9 C 484.8 386.7 483 392.9 480.4 396.9 Z M 413 363.7 L 413 360 L 445.5 360 L 455.2 409 C 453.7 407.7 451.3 407.7 449.2 409 C 450.2 411.3 452.2 414.2 455.6 417.4 C 454.201 426.665 453.866 436.059 454.6 445.4 C 451.3 431.3 448.2 423.4 445 417.4 C 447.2 414.4 448.7 411.3 448.7 409.1 C 445.8 407.7 442.9 407.7 440.9 409.1 L 435.2 381.1 C 434.7 378.5 433.7 375.9 431.6 375.9 C 429.8 375.9 429.1 378.5 429.1 381 L 429.1 409 C 427.5 407.7 425.5 407.7 424.1 409 L 424.1 381.4 C 424.1 368.4 420.5 365.1 417.4 364.4 L 413 363.7 Z M 440 396.9 C 444.6 401.4 446.9 404.9 448.7 408.9 L 449.3 408.9 C 449.1 404.9 449.6 400.5 451.5 396.9 C 446.736 389.808 443.031 382.06 440.5 373.9 C 441.603 381.542 441.434 389.313 440 396.9 Z M 810 207.7 L 810 204 L 845.4 204 L 845.4 207.7 L 841 208.4 C 837.9 209.1 834.3 212.4 834.3 225.4 L 834.3 253 C 833.6 251.6 830.9 251.6 828 253 C 829 255.2 830.9 258.6 833.4 261.3 C 829.852 270.179 828.68 279.83 830 289.3 C 826 274.9 823.9 267 822.1 261.3 C 824.343 258.868 826.138 256.058 827.4 253 C 824.7 251.6 822 251.6 821.1 253 L 821.1 225.3 C 821.1 212.3 817.5 209 814.4 208.3 L 810 207.6 Z M 860.4 207.7 L 860.4 204 L 887.4 204 L 887.4 207.7 L 884.7 208.4 C 877.4 210 876.2 216 876.2 225.4 L 876.2 253 C 874.8 251.6 872.9 251.6 871.4 253 L 871.4 225.3 C 871.4 215.9 869.9 210 862.7 208.3 L 860.4 207.6 Z M 822.1 240.7 C 825.166 243.99 827.033 248.218 827.4 252.7 L 828 252.7 C 829 246.7 830.9 243.5 833.4 240.7 C 829.803 233.561 827.888 225.693 827.8 217.7 C 826.6 230.5 824.8 236.7 822.1 240.7 Z" style="fill: rgb(147, 68, 44);"/>
    <path d="M 953 241 C 942.2 237.4 938.8 232 938.8 223 C 938.8 215.5 943.4 206.6 955.8 206.6 C 968.861 207.179 979.88 216.512 982.6 229.3 L 985.9 229.3 L 985.9 203 L 981.4 203 C 980.112 204.617 978.167 205.571 976.1 205.6 C 972.7 205.6 968.2 204 964.8 203 C 961.6 202.2 957.8 202 951.8 202 C 937.401 202.11 925.833 213.902 926 228.3 C 926 238.7 928.2 245.8 936 252.1 C 938.1 250.7 940.7 250.7 944.3 252.1 C 947.7 250.7 951.7 250.7 955.1 252.1 C 964.6 256.1 967.1 260.5 968.2 264.2 C 974.4 265.9 980.2 275.5 980.5 288.5 C 985.2 275.2 983.8 265.9 978.2 257.4 C 973.2 255.5 965.5 254.1 955.8 252.1 C 959.547 250.74 963.653 250.74 967.4 252.1 C 970.4 250.7 973.7 250.7 979.2 252.1 C 973.7 247.5 964 244.7 953 241 Z M 955 251.7 C 941.6 248.2 934.4 243.9 929.8 237.6 C 929.888 230.517 931.243 223.506 933.8 216.9 C 933.7 226.4 935.8 231.6 940.2 234.6 C 940 241.5 944.8 246.3 955.8 251.7 L 955.1 251.7 Z" style="fill: rgb(147, 68, 44);"/>
    <path fill-rule="evenodd" clip-rule="evenodd" d="M 590 207.7 L 590 204 L 635.1 204 C 652.9 204 664.6 210.3 664.6 229.6 C 664.6 241.9 659.4 249.3 652.2 253.1 C 650.9 251.7 648.5 251.7 645.4 253.1 C 649.4 255.8 651.4 257.9 654.1 261.4 C 656.634 270.503 657.515 279.986 656.7 289.4 C 654.5 274.6 648.7 266.4 643 261.4 C 644.5 258.7 645.2 256 644.7 253.1 C 642.3 251.7 639.9 251.7 636.7 253.1 C 633.6 251.7 630.4 251.7 627.3 253.1 C 624.112 251.709 620.488 251.709 617.3 253.1 C 614.276 251.757 610.824 251.757 607.8 253.1 C 608.6 255.3 610.8 258.9 613.3 261.4 C 609.819 270.349 607.826 279.807 607.4 289.4 C 607.014 279.857 605.228 270.423 602.1 261.4 C 604.4 258.9 606.2 255.3 607.1 253.1 C 604.4 251.7 602.7 251.7 601.1 253.1 L 601.1 225.4 C 601.1 212.4 597.5 209.1 594.4 208.4 L 590 207.7 Z M 602.1 240.9 C 604.4 243.5 606.2 246.9 607.1 252.9 L 607.8 252.9 C 608.6 246.9 610.7 243.5 613.3 240.9 C 609.579 233.794 607.559 225.92 607.4 217.9 C 606.6 230.7 604.7 236.9 602.1 240.9 Z M 650.1 231.2 C 650.1 219.7 644.1 213 634.8 213 L 623.3 213 C 616.3 213 614.3 217.2 614.3 226.2 L 614.3 248.8 L 635 248.8 C 641.4 248.8 650 243.3 650 231.2 Z M 651.4 240.2 C 650.9 244.7 648 249.8 644.7 252.9 L 645.4 252.9 C 650.94 249.451 656.102 245.429 660.8 240.9 C 660.8 235.8 659.4 227.9 654.6 217.9 C 658.4 229.9 654.5 236.9 651.4 240.2 Z M 552 208.4 C 548.9 209.1 545.3 212.4 545.3 225.4 L 545.3 253 C 543.6 251.6 541.2 251.6 539 253 C 540 255.2 541.9 258.8 544.4 261.3 C 540.957 270.248 539.063 279.716 538.8 289.3 C 538.505 279.711 536.578 270.242 533.1 261.3 C 535.379 258.896 537.178 256.079 538.4 253 C 536 251.6 533.8 251.6 532.1 253 L 532.1 225.3 C 532.1 212.3 528.5 209 525.4 208.3 L 521 207.6 L 521 204 L 556.4 204 L 556.4 207.7 L 552 208.4 Z M 533 241 C 535.6 243.6 537.5 247 538.3 253 L 538.9 253 C 539.9 247 541.8 243.6 544.3 241 C 540.703 233.861 538.788 225.993 538.7 218 C 537.5 230.8 535.7 237 533 241 Z" style="fill: rgb(147, 68, 44);"/>
    <path d="M 433.1 231 C 433.1 220 435.5 209 448.5 209 C 462.5 209 469.2 228.1 470.4 249.5 L 481.8 249.5 L 481.8 204.7 L 476.4 204.7 C 476.4 208.4 474.4 210.1 471.9 210.1 C 468.7 210.1 465.2 208.8 461.1 206.7 C 457.124 204.963 452.839 204.045 448.5 204 C 429.5 204 416 222.8 416 241.8 L 416 251.2 C 418 250 421.1 250 424.4 251.2 C 423.019 254.225 421.236 257.051 419.1 259.6 C 420.237 269.216 422.869 278.596 426.9 287.4 C 425.7 273.1 427.8 265.4 430.2 259.6 C 428.004 257.095 426.216 254.26 424.9 251.2 C 427.8 250 431 250 433.1 251.2 L 433.1 231 Z M 424.4 250.2 C 423.7 247.8 421.6 244.5 419.1 241.8 C 420.6 235.3 423.7 226.8 428.5 218.7 C 427.3 228.1 427.5 235.1 430.2 241.7 C 427.2 244.5 425.7 247.7 424.9 250.2 L 424.4 250.2 Z M 727.1 231 C 727.1 220 729.5 209 742.5 209 C 756.5 209 763.2 228.1 764.4 249.5 L 775.8 249.5 L 775.8 204.7 L 770.4 204.7 C 770.4 208.4 768.4 210.1 765.9 210.1 C 762.7 210.1 759.2 208.8 755.1 206.7 C 751.124 204.963 746.839 204.045 742.5 204 C 723.5 204 710 222.8 710 241.8 L 710 251.2 C 712 250 715.1 250 718.4 251.2 C 717.019 254.225 715.236 257.051 713.1 259.6 C 714.237 269.216 716.869 278.596 720.9 287.4 C 719.7 273.1 721.8 265.4 724.2 259.6 C 722.004 257.095 720.216 254.26 718.9 251.2 C 721.8 250 725 250 727.1 251.2 L 727.1 231 Z M 718.4 250.2 C 717.7 247.8 715.6 244.5 713.1 241.8 C 714.6 235.3 717.7 226.8 722.5 218.7 C 721.3 228.1 721.5 235.1 724.2 241.7 C 721.2 244.5 719.7 247.7 718.9 250.2 L 718.4 250.2 Z" style="fill: rgb(147, 68, 44);"/>
  </g>
  <g style="pointer-events: none;">
    <title>outer-text</title>
    <path fill-rule="evenodd" clip-rule="evenodd" d="M 567.5 454 C 557.2 454 555.3 443 555.3 430.5 L 555.3 385 C 555.3 375.4 557.3 366 567.5 366 C 577.5 366 579.6 375.4 579.6 385 L 579.6 430.5 C 579.6 442.1 577.6 453.9 567.5 453.9 Z M 572.9 446.6 C 575.5 446.6 576.7 439.4 576.7 430.1 L 576.7 391 C 576.7 384.1 576.4 379.4 574 379.4 C 572 379.4 570.7 382.8 570.7 391.8 L 570.7 432.2 C 570.7 438.9 571.2 446.6 572.9 446.6 Z" style="fill: rgb(191, 107, 43);"/>
    <path fill-rule="evenodd" clip-rule="evenodd" d="M 1080.1 432.6 C 1059.814 425.555 1046.185 406.474 1046.1 385 C 1046.2 364.1 1062.1 352 1081.1 352 C 1086.516 352 1091.904 352.775 1097.1 354.3 C 1099.1 354.8 1100.6 355.3 1101.8 355.3 C 1103.7 355.3 1104.8 353.9 1105.7 352.7 L 1118.4 352.7 L 1131 369.7 L 1131 405.7 L 1119.7 405.7 L 1104.3 391.3 C 1103 383.8 1100.1 376.3 1093 376.3 C 1086.9 376.3 1084 379.9 1084 385 C 1084 389.4 1085.5 392.4 1097 396.3 C 1121 404.7 1135.1 420.6 1135.1 446.3 C 1136.216 472.912 1108.106 490.752 1084.501 478.413 C 1084.367 478.343 1084.233 478.272 1084.1 478.2 C 1081.4 476.3 1078.5 474.8 1076.3 474.8 C 1074.3 474.8 1073 477.8 1072 479.8 L 1071.3 481.3 L 1056.5 481.3 L 1045 466.4 L 1045 424.2 L 1060 424.2 C 1062.832 430.116 1066.284 435.714 1070.3 440.9 C 1073.6 445 1078.9 449.1 1085.3 449.1 C 1089 449.1 1093.9 447.1 1093.9 442.6 C 1093.9 438.1 1086.7 435.3 1080.1 432.6 Z M 1119.6 432.6 C 1119.6 412 1109.6 402.8 1087.2 396.1 C 1074.2 392.4 1068.1 389.3 1068.2 379.5 C 1068.2 372.9 1072.7 365.5 1082.2 365.5 C 1089.6 365.5 1098 371.2 1101.1 375.1 C 1103.7 378.3 1105.7 383.1 1106.9 388.3 L 1115.3 388.3 L 1115.3 356 L 1106.9 356 C 1105.7 357.2 1104.3 358.6 1102.3 358.6 C 1099.9 358.6 1097.5 357.8 1094.9 357 L 1094.4 356.9 C 1091.2 355.9 1085.5 354.9 1080.2 354.9 C 1063.3 354.9 1049.4 366.1 1049.4 384.2 C 1049.4 401.3 1055.6 410.9 1071 417.4 L 1084.3 422.9 C 1090 425.3 1099 429.4 1099 439.1 C 1099 446 1093.7 452.1 1086.5 452.1 C 1076.752 452.433 1067.524 447.706 1062.1 439.6 C 1059.4 435.3 1057.7 431.6 1056.8 427 L 1048.3 427 L 1048.3 463.7 L 1056.8 463.7 C 1058.3 460.7 1060.2 457.2 1063 457.2 C 1065.6 457.2 1068.5 458.6 1072.2 460.4 L 1072.7 460.7 C 1076.5 462.5 1082.3 464.7 1088.7 464.7 C 1106.2 464.7 1119.6 451.7 1119.6 432.4 Z" style="fill: rgb(191, 107, 43);"/>
    <path d="M 971.7 415.7 L 971.7 439.7 C 971.7 445.7 970.7 450.4 967.2 451.1 L 960.7 452.1 L 960.7 468 L 971.5 482.4 L 1020.5 482.4 L 1020.5 469.4 L 1009.5 454.8 L 1009.5 412.6 L 1020.7 392.6 C 1024.2 386.4 1029.1 385.1 1033 384.4 L 1038.9 383.5 L 1038.9 370.9 L 1025.3 354.1 L 939 354.1 L 939 369.8 L 944.6 370.5 C 947.6 370.9 949.8 373.8 952.6 379.1 L 971.6 415.8 Z M 942 357.1 L 983.2 357.1 L 983.2 366.8 L 977.9 367.7 C 974.1 368.4 973.1 371.3 975.3 375.2 L 986.3 395 L 996.9 375.7 C 999.3 371.7 998.6 368.4 995.3 367.7 L 990 366.8 L 990 357.1 L 1024 357.1 L 1024 366.8 L 1018.2 367.7 C 1016 368 1014.7 370.7 1012.8 374 L 993.8 408.4 L 993.8 440.5 C 993.8 448.4 995.2 453.4 999.4 454.2 L 1004.9 455.1 L 1004.9 464.8 L 963.5 464.8 L 963.5 455.1 L 969 454.2 C 973.3 453.4 974.6 448.4 974.6 440.5 L 974.6 415.7 L 955.4 379 C 952.2 372.5 950.1 368 946.5 367.5 L 942.1 366.8 L 942.1 357.1 Z" style="fill: rgb(191, 107, 43);"/>
    <path d="M 878.3 414 L 878.3 442 C 878.3 448.9 880.9 453.9 889.6 453.9 C 901.6 453.9 904.6 445.1 904.6 434.5 L 904.6 426.2 L 915.3 426.2 L 915.3 464.8 L 848 464.8 L 848 455.1 L 853.4 454.2 C 857.6 453.5 858.9 448.4 858.9 440.5 L 858.9 381.4 C 858.9 373.4 856.9 368.4 853.4 367.7 L 848 366.8 L 848 357.1 L 915.2 357.1 L 915.2 394.4 L 904.4 394.4 L 904.4 387.2 C 904.4 374.3 897.6 367.7 889.5 367.7 C 880.8 367.7 878.2 371.7 878.2 379.7 L 878.2 401.9 L 895.2 401.9 L 895.2 414 L 878.2 414 Z M 856.1 381.4 L 856.1 439.7 C 856.1 445.7 854.9 450.4 851.7 451.1 L 845 452.1 L 845 468 L 856 482.4 L 931 482.4 L 931 441 L 917.7 423 L 909 423 L 909 415.3 L 894 395.3 L 893.8 391 C 893.6 387.8 895 385 897.9 385 C 900.6 385 901.5 387 901.5 390.7 L 901.5 396.7 L 913 411.7 L 931 411.7 L 931 371.3 L 917.6 354 L 845 354 L 845 369.7 L 850.5 370.7 C 853.7 371.1 856.1 373.5 856.1 381.4 Z M 893.9 431.4 L 901.6 431.4 L 901.6 434.2 C 901.6 444.2 898.4 448.4 896.3 448.4 C 894.6 448.4 893.9 445.8 893.9 443.1 L 893.9 431.5 Z M 744.1 439.7 C 744.1 445.7 742.9 450.4 739.7 451.1 L 733 452.1 L 733 468 L 744 482.4 L 791.8 482.4 L 791.8 478.4 L 795.4 482.4 L 841.6 482.4 L 841.6 464.7 L 832.2 454.7 L 804.5 412.4 L 818.3 394.8 C 823.8 387.8 828.6 385.9 833.5 385.2 L 840.2 384.4 L 840.2 370.9 L 827.6 354 L 733 354 L 733 369.7 L 738.5 370.7 C 741.7 371.1 744.1 373.5 744.1 381.4 L 744.1 439.7 Z M 747.1 381.4 C 747.1 373.4 745 368.4 741.5 367.7 L 736.1 366.8 L 736.1 357.1 L 777.3 357.1 L 777.3 366.8 L 771.8 367.7 C 768.4 368.4 766.3 373.3 766.3 381.4 L 766.3 402 C 767.2 402 768.3 401.1 768.7 400.2 L 790.3 372.4 C 791 371.7 791.7 370.4 791.7 369.6 C 791.7 368.6 789.4 367.6 787.2 367.2 L 783.2 366.7 L 783.2 357 L 824.5 357 L 824.5 366.7 L 818.8 367.6 C 816.4 367.9 813 372.2 808.2 378.4 L 787 405.8 L 807.8 440.5 C 812.1 447.7 816.5 453.5 821 454.2 L 827.1 455.1 L 827.1 464.8 L 783.4 464.8 L 783.4 455.1 L 787.1 454.5 C 788.5 454.2 789.5 452.8 789.5 451 C 789.5 449.2 788.5 446.7 787 444.1 L 773.8 422.4 L 766.4 432 L 766.4 440.5 C 766.4 448.4 767.8 453.4 772.1 454.2 L 777.6 455.1 L 777.6 464.8 L 736 464.8 L 736 455.1 L 741.4 454.2 C 745.6 453.4 746.9 448.4 746.9 440.5 L 746.9 381.4 Z" style="fill: rgb(191, 107, 43);"/>
    <path d="M 650 440.5 C 650 448.4 651.3 453.2 655.6 454.2 L 659.4 455.1 L 659.4 464.8 L 628 464.8 L 628 455.1 L 633.4 454.2 C 637.6 453.4 638.9 448.4 638.9 440.5 L 638.9 381.4 C 638.9 373.4 636.9 368.4 633.4 367.7 L 628 366.8 L 628 357.1 L 666.3 357.1 L 688.9 418.5 L 689 418.5 L 689 381.4 C 689 373.4 687 368.4 683.6 367.7 L 678.1 366.8 L 678.1 357.1 L 711 357.1 L 711 366.8 L 705.7 367.7 C 702.1 368.4 700.1 373.3 700.1 381.4 L 700.1 464.8 L 680.2 464.8 L 650.3 381.4 L 650 381.4 L 650 440.5 Z M 715.8 482.3 L 715.8 398.3 C 715.8 389.1 718.4 385.5 721.4 385.1 L 726.7 384.3 L 726.7 370.8 L 714.1 354 L 675.1 354 L 675.1 362.4 L 668.8 354 L 625 354 L 625 369.7 L 630.5 370.7 C 633.7 371.1 636.1 373.5 636.1 381.4 L 636.1 439.7 C 636.1 445.7 634.9 450.4 631.7 451.1 L 625 452.1 L 625 468 L 636 482.4 L 675 482.4 L 675 466.6 L 665.6 454.1 L 665.6 435.1 L 676.9 466.6 L 688.7 482.4 L 715.7 482.4 Z" style="fill: rgb(191, 107, 43);"/>
    <path fill-rule="evenodd" clip-rule="evenodd" d="M 567.5 352 C 600.1 352 618.5 381 618.5 401.8 L 618.5 433.2 C 618.5 466.1 600.6 482.3 576.9 482.3 C 552.4 482.3 529 464.2 529 426.7 L 529 394 C 529 368.3 547.5 352.1 567.5 352.1 Z M 567.5 464.9 C 589 464.9 603 446.6 602.9 425 L 602.9 393.6 C 602.7 372.2 588.9 354.9 567.5 354.9 C 546.1 354.9 532 373.4 532 393.6 L 531.8 426.2 C 531.6 449.5 546 464.9 567.4 464.9 Z" style="fill: rgb(191, 107, 43);"/>
    <path d="M 432 440.5 C 432 448.4 433.3 453.2 437.6 454.2 L 441.4 455.1 L 441.4 464.8 L 410 464.8 L 410 455.1 L 415.4 454.2 C 419.6 453.4 420.9 448.4 420.9 440.5 L 420.9 381.4 C 420.9 373.4 418.9 368.4 415.5 367.7 L 410 366.8 L 410 357.1 L 448.3 357.1 L 458.9 409.6 L 468.9 357.1 L 506.4 357.1 L 506.4 366.8 L 501 367.7 C 497.5 368.4 495.5 373.3 495.5 381.4 L 495.5 440.5 C 495.5 448.4 496.8 453.4 501.1 454.2 L 506.6 455.1 L 506.6 464.8 L 467 464.8 L 467 455.1 L 470.8 454.2 C 475.1 453.2 476.4 448.4 476.4 440.5 L 476.4 381.4 L 476.1 381.4 L 459.8 464.8 L 448.8 464.8 L 432.3 381.4 L 432 381.4 L 432 440.5 Z M 407 354 L 407 369.7 L 412.5 370.7 C 415.7 371.1 418.1 373.5 418.1 381.4 L 418.1 439.7 C 418.1 445.7 416.9 450.4 413.7 451.1 L 407 452.1 L 407 468 L 418 482.4 L 457 482.4 L 457 475.7 L 462 482.3 L 522.3 482.3 L 522.3 469.5 L 511 454.8 L 511 398.4 C 511 389.2 513.8 385.6 516.9 385.2 L 522.2 384.4 L 522.2 370.9 L 509.6 354 L 466.2 354 L 463.1 369.7 L 451.3 354 L 407 354 Z" style="fill: rgb(191, 107, 43);"/>
    <path d="M 807 201 L 848.3 201 L 848.3 210.8 L 842.8 211.7 C 839.4 212.4 837.3 217.3 837.3 225.4 L 837.3 261.8 C 837.3 288.6 839.4 298.8 853.3 298.8 C 862.1 298.8 868.5 293.4 868.5 271.8 L 868.5 225.4 C 868.5 218.9 867.5 212.4 862.7 211.7 L 857.4 210.8 L 857.4 201.1 L 890.4 201.1 L 890.4 210.8 L 884.9 211.7 C 880.3 212.4 879.2 218.9 879.2 225.4 L 879.2 269 C 879.2 301.1 869.7 309.8 852.1 309.8 C 825.1 309.8 818.1 295.8 818.1 265.8 L 818.1 225.4 C 818.1 217.4 816 212.4 812.5 211.7 L 807.1 210.8 L 807.1 201.1 Z M 851.4 198 L 804 198 L 804 213.7 L 809.5 214.7 C 812.7 215.1 815.1 217.5 815.1 225.4 L 815.1 265.9 C 815.1 310.2 836 327.4 859.6 327.4 C 879.1 327.4 894.8 316.5 894.8 291 L 894.8 242.3 C 894.8 233.1 897.5 229.5 900.6 229.1 L 906.1 228.3 L 906.1 214.8 L 893.3 198 L 854.4 198 L 854.4 201.8 L 851.4 198 Z M 852.9 241.3 C 852.9 233.1 854.6 228.8 859.2 227.9 L 865.4 227.8 L 865.4 271.5 C 865.4 285 862.8 291.9 860.1 291.9 C 856 291.9 852.9 290.2 852.9 272.2 L 852.9 241.2 Z" style="fill: rgb(191, 107, 43);"/>
    <path fill-rule="evenodd" clip-rule="evenodd" d="M 953.1 276.6 C 932.814 269.555 919.185 250.474 919.1 229 C 919.2 208.1 935.1 196 954.1 196 C 959.516 196 964.904 196.775 970.1 198.3 C 972.1 198.8 973.6 199.3 974.8 199.3 C 976.7 199.3 977.8 197.9 978.8 196.7 L 991.4 196.7 L 1004 213.7 L 1004 249.7 L 992.7 249.7 L 977.3 235.3 C 976 227.8 973.1 220.3 966.1 220.3 C 959.9 220.3 957 223.9 957 229 C 957 233.4 958.5 236.4 970 240.3 C 994.1 248.7 1008.1 264.6 1008.1 290.3 C 1009.216 316.912 981.106 334.752 957.501 322.413 C 957.367 322.343 957.233 322.272 957.1 322.2 C 954.4 320.3 951.5 318.8 949.3 318.8 C 947.3 318.8 946 321.8 945 323.8 L 944.3 325.3 L 929.5 325.3 L 918 310.4 L 918 268.2 L 933 268.2 C 936 274.3 940.6 281.7 943.3 284.9 C 946.6 289 951.9 293.1 958.3 293.1 C 961.9 293.1 966.9 291.1 966.9 286.6 C 966.9 282.1 959.7 279.3 953.1 276.6 Z M 992.6 276.6 C 992.6 256 982.6 246.8 960.2 240.1 C 947.2 236.4 941.1 233.3 941.2 223.5 C 941.2 216.9 945.7 209.5 955.2 209.5 C 962.6 209.5 971 215.2 974.1 219.1 C 976.7 222.3 978.7 227.1 979.9 232.3 L 988.3 232.3 L 988.3 200 L 979.9 200 C 978.7 201.2 977.3 202.6 975.3 202.6 C 972.9 202.6 970.5 201.8 967.9 201 L 967.4 200.9 C 964.2 199.9 958.5 198.9 953.2 198.9 C 936.3 198.9 922.4 210.1 922.4 228.2 C 922.4 245.3 928.6 254.9 944 261.4 L 957.3 266.9 C 963 269.3 972 273.4 972 283.1 C 972 290 966.7 296.1 959.6 296.1 C 949.817 296.468 940.543 291.737 935.1 283.6 C 932.499 279.802 930.695 275.515 929.8 271 L 921.2 271 L 921.2 307.7 L 929.8 307.7 C 931.3 304.7 933.2 301.2 936 301.2 C 938.6 301.2 941.5 302.6 945.2 304.4 L 945.7 304.7 C 949.5 306.5 955.3 308.7 961.7 308.7 C 979.2 308.7 992.6 295.7 992.6 276.4 Z" style="fill: rgb(191, 107, 43);"/>
    <path d="M 595.1 283.7 C 595.1 289.7 593.9 294.4 590.7 295.1 L 584 296.1 L 584 312 L 595 326.4 L 644.7 326.4 L 644.7 311.8 L 633 297.2 L 633 277.2 L 641 277.2 C 642.2 280.6 642.8 296 647.9 306.8 C 654 319.9 664.5 326.2 674 326.2 C 687.9 326.2 695.6 318 695.6 295.8 L 695.6 285.8 L 682.3 269 L 670.5 269 C 678.676 264.092 683.541 255.13 683.2 245.6 C 683.2 225.8 668 197.9 636.8 197.9 L 584 197.9 L 584 213.6 L 589.5 214.6 C 592.7 215 595.1 217.4 595.1 225.3 L 595.1 283.6 Z M 617.3 262 L 617.3 284.5 C 617.3 292.4 619.3 297.9 625.3 298.5 L 629.3 299.1 L 629.3 308.8 L 587.1 308.8 L 587.1 299.1 L 592.5 298.2 C 596.7 297.4 598 292.4 598 284.5 L 598 225.4 C 598 217.4 596 212.4 592.5 211.7 L 587.1 210.8 L 587.1 201.1 L 635.3 201.1 C 657.2 201.1 667.4 212.1 667.4 229.6 C 667.4 243.3 661.4 251 655 254.6 L 655 254.9 C 660.8 259.2 663 265.7 663.9 275.1 C 664.7 284.9 665.4 289.5 668.1 289.5 C 670.7 289.5 671.4 283.8 671.4 280.1 L 671.4 272.2 L 681.3 272.2 L 681.3 280.1 C 681.3 303.8 674.8 310 664.7 310 C 652.4 310 647.4 303.5 645 282.6 C 644 272.7 641.3 262 633.4 262 L 617.4 262 Z M 640.1 233.4 C 641.5 233.4 642.8 234.8 642.8 236.4 C 642.8 239.7 638.8 243 635.8 243 L 633 243 L 633 238.7 C 633 235.3 634.4 233.4 636.3 233.4 L 640.2 233.4 Z M 623 216 C 619.5 216 617.2 218 617.2 226.2 L 617.2 245.7 L 635.2 245.7 C 640.8 245.7 646.8 240.4 646.8 231.2 C 646.8 220.4 640.8 216 635.2 216 L 623.1 216 Z M 526.1 283.7 C 526.1 289.7 524.9 294.4 521.7 295.1 L 515 296.1 L 515 312 L 526 326.4 L 575 326.4 L 575 313.4 L 564 298.8 L 564 242.4 C 564 233.2 566.6 229.6 569.7 229.2 L 575 228.4 L 575 214.9 L 562.4 198 L 515 198 L 515 213.7 L 520.5 214.7 C 523.7 215.1 526.1 217.5 526.1 225.4 L 526.1 283.7 Z M 529.1 225.4 C 529.1 217.4 527 212.4 523.5 211.7 L 518.1 210.8 L 518.1 201.1 L 559.3 201.1 L 559.3 210.8 L 553.8 211.7 C 550.4 212.4 548.3 217.3 548.3 225.4 L 548.3 284.5 C 548.3 292.4 549.7 297.4 554 298.2 L 559.5 299.1 L 559.5 308.8 L 518 308.8 L 518 299.1 L 523.4 298.2 C 527.6 297.4 528.9 292.4 528.9 284.5 L 528.9 225.4 Z" style="fill: rgb(191, 107, 43);"/>
    <path fill-rule="evenodd" clip-rule="evenodd" d="M 457.9 328.3 C 433.4 328.3 410 304.2 410 268.1 L 410 239.6 C 410 216.5 427.3 198 447.4 198 C 453.3 198 457.7 199.2 461.8 201 C 464.141 202.236 466.627 203.176 469.2 203.8 C 470.2 203.8 470.4 201.8 470.4 198.7 L 486 198.7 L 500.4 214.9 L 500.4 269.9 L 477.1 269.9 L 464.3 255.5 C 463.8 236.1 460 225.4 456.6 225.4 C 452.8 225.4 451.6 231 451.6 237.8 L 451.6 285.6 C 451.6 290.6 453.3 294.4 456.4 294.4 C 460.9 294.4 463.6 286.4 464.3 271.4 L 487 271.4 L 501.4 287.4 C 497.6 321.4 477.6 328.3 457.8 328.3 Z M 448.5 212 C 461.8 212 467.3 235.4 467.3 252.4 L 484.9 252.4 L 484.9 201.6 L 473.3 201.6 C 473.3 206 472.3 207.1 470.5 207.1 C 468.5 207.1 465.1 205.7 462.3 204.1 C 458.021 201.947 453.289 200.85 448.5 200.9 C 426.9 200.9 413.1 221.8 413.1 239.7 L 413.1 268.1 C 413.1 289 423.3 310.9 450.4 310.9 C 475.2 310.9 484.9 292.6 484.9 274.3 L 467.3 274.3 C 467.3 293.3 461.1 299.9 450.9 299.9 C 440.8 299.9 436.2 290 436.2 276.5 L 436.2 231 C 436.2 221.4 438.2 212 448.5 212 Z M 751.9 328.3 C 727.4 328.3 704 304.2 704 268.1 L 704 239.6 C 704 216.5 721.3 198 741.4 198 C 747.3 198 751.7 199.2 755.8 201 C 758.141 202.236 760.627 203.176 763.2 203.8 C 764.2 203.8 764.4 201.8 764.4 198.7 L 780 198.7 L 794.4 214.9 L 794.4 269.9 L 771.1 269.9 L 758.3 255.5 C 757.8 236.1 754 225.4 750.6 225.4 C 746.8 225.4 745.6 231 745.6 237.8 L 745.6 285.6 C 745.6 290.6 747.3 294.4 750.4 294.4 C 754.9 294.4 757.6 286.4 758.3 271.4 L 781 271.4 L 795.4 287.4 C 791.6 321.4 771.6 328.3 751.8 328.3 Z M 742.5 212 C 755.8 212 761.3 235.4 761.3 252.4 L 778.9 252.4 L 778.9 201.6 L 767.3 201.6 C 767.3 206 766.3 207.1 764.5 207.1 C 762.5 207.1 759.1 205.7 756.3 204.1 C 752.021 201.947 747.289 200.85 742.5 200.9 C 720.9 200.9 707.1 221.8 707.1 239.7 L 707.1 268.1 C 707.1 289 717.3 310.9 744.4 310.9 C 769.2 310.9 778.9 292.6 778.9 274.3 L 761.3 274.3 C 761.3 293.3 755.1 299.9 744.9 299.9 C 734.8 299.9 730.2 290 730.2 276.5 L 730.2 231 C 730.2 221.4 732.2 212 742.5 212 Z" style="fill: rgb(191, 107, 43);"/>
  </g>
  <path d="M47 396.5c-21.5-63.5-3.6-82 18.5-82 40.5 0 71.2 12.4 132-17.5 25.7-12 89.4-60.4 109-62 24.5-2 40.5-1 47 37s-6.5 55.5-24.5 73.5-43 11.5-61 11.5c-14.4 0-75.7 26.3-104.5 39.5-31.7 21.2-99.3 50.8-116.5 0z" stroke="#000" stroke-width="3" style="fill: rgb(156, 63, 31);"/>
  <path d="M78 385.5c-7.2-5.2-3-21.2 0-28.5.8 5.2-.3 14.6 2.5 21 3.5 8 17.5 7.5 18 11S87 392 78 385.5z" fill="#000"/>
  <path d="M78 385.5c-7.2-5.2-3-21.2 0-28.5.8 5.2-.3 14.6 2.5 21 3.5 8 17.5 7.5 18 11S87 392 78 385.5zM329.9 305.4c3.2-7.8-8.1-19.6-14.2-24.5 1.9 4.8 7.5 12.4 8.4 19.2 1.1 8.6-10.5 14.7-9.1 18 1.3 3.2 10.8-2.8 14.9-12.7z" fill="#000"/>
  <path d="M329.9 305.4c3.2-7.8-8.1-19.6-14.2-24.5 1.9 4.8 7.5 12.4 8.4 19.2 1.1 8.6-10.5 14.7-9.1 18 1.3 3.2 10.8-2.8 14.9-12.7z" fill="#000"/>
  <path d="M83 331c-16-54.8 56.7-80.8 95-87 75-19.5 119.5 0 128 46s-26.5 103-88.5 121S103 399.5 83 331z" stroke="#000" stroke-width="3" style="fill: rgb(156, 63, 31);"/>
  <g>
    <path d="M 471 31 L 466.6 34.7 L 466 34.7 C 468.5 32.2 470.1 31 471 31 Z M 491.5 19.7 C 491.5 21.4 490.1 23.3 487.3 25.4 L 481.1 30 C 471.249 38.38 462.749 48.229 455.9 59.2 L 457.1 59.2 L 459.3 58.4 C 472.5 54 483.1 49.7 491.2 45.4 L 491.2 47.4 C 490.6 47.9 489.6 48.4 488.2 49.2 C 477.581 54.811 466.467 59.43 455 63 C 454.2 63.3 453.6 63.7 453.4 64.1 C 448.9 71.7 444.9 79.1 441.4 86.1 C 436.545 94.893 433.742 104.67 433.2 114.7 C 437.385 112.014 441.303 108.933 444.9 105.5 L 444.9 105.9 C 444.9 106.9 442.9 108.9 439.1 111.9 C 435.1 114.7 433.1 116.6 433.1 117.5 C 433.1 119.2 433.7 120.4 434.8 121 L 437 121 C 441.3 121 445.8 118.6 450.5 113.9 L 463 101.3 L 463.5 101.3 L 464 101.9 L 464 102.5 C 464 102.8 463.9 103.1 463.5 103.5 L 451.3 115.6 C 445.8 121.1 440.8 123.8 436.1 123.8 C 433.1 123.8 430.1 122.2 427.4 118.8 L 426.1 119 C 418.8 119 415.1 117 415.1 113 L 415.1 110.8 C 415.1 110 415.3 109.4 415.6 108.8 L 430.6 80.6 C 420.6 89.1 410.6 93.7 400.1 94.5 C 381.3 114.7 361 124.8 339.1 124.8 C 321.1 124.8 309.1 119.1 302.8 107.8 C 298.8 100.8 296.9 94.8 296.9 89.9 C 296.9 85.6 298.1 81.3 300.6 77.3 C 303.703 72.837 307.111 68.593 310.8 64.6 C 312 63.6 312.9 63 313.4 63 C 306.6 71 303.2 75.7 303.3 77.3 L 311.3 67.3 C 314.9 62.9 322.1 59.5 333.1 57 L 331 57 C 333 56.4 335.6 56.2 338.7 56.2 C 352.9 56.2 362.4 59 367.2 64.6 C 368.6 66.2 369.3 71.6 369.3 80.8 C 369.3 88.5 365.7 94.9 358.6 99.9 C 352.263 104.395 344.669 106.774 336.9 106.7 L 330.9 106.7 C 329.3 106.7 327.3 106.3 324.8 105.5 C 321.8 104.5 320.2 103.5 320.2 102.3 L 327.7 104.1 C 337.425 105.513 347.347 103.76 356 99.1 C 363.1 95 366.7 89.5 366.7 82.8 C 365.235 84.497 363.734 86.164 362.2 87.8 C 356.508 94.471 348.265 98.429 339.5 98.7 C 335.8 98.7 332.4 97.7 329.2 96 C 325.4 93.8 323.5 91.1 323.5 87.8 C 323.5 85.6 324.4 83.8 326.1 82.3 C 327.718 80.836 329.818 80.017 332 80 L 332 80.4 L 334.6 80.3 L 337.3 80.1 L 337.8 80.6 C 333.6 83 331.5 85.6 331.5 88.2 C 331.5 93.8 335.5 96.6 343.2 96.6 C 349.4 96.6 354.4 94.1 358 89.1 C 358.8 88.2 359.7 86.8 360.8 84.8 L 360.8 84.3 L 356 88.6 L 356 88 C 357.9 84.5 359 82 359.3 80.6 C 359.7 79.3 359.9 76.6 359.9 72.4 C 359.9 66.4 354.1 63.3 342.6 63.3 C 329.956 63.326 317.934 68.791 309.6 78.3 C 306.748 80.988 305.061 84.685 304.9 88.6 C 304.9 91.9 305.8 95.6 307.5 99.6 C 313.5 114 327.5 120.7 349.1 119.9 C 342.715 120.471 336.295 120.538 329.9 120.1 C 326.7 119.8 324.3 119.7 322.7 119.7 L 321.9 119.9 C 326.9 121.6 332.6 122.5 339 122.5 C 348.8 122.5 357.3 120.4 364.6 116.1 L 363.9 116.1 C 363.1 116.1 361.7 116.5 359.9 117.1 C 358.509 117.722 357.02 118.094 355.5 118.2 C 361.5 116.5 367.5 113.8 373.2 110.1 C 378.809 106.827 383.624 102.354 387.3 97 C 384.185 100.291 380.616 103.12 376.7 105.4 C 384.5 97.6 388.4 92.4 388.4 89.7 C 387.6 88.4 387.1 87.8 386.8 88 L 377.5 93.4 C 377 93.4 376.7 93.1 376.7 92.3 C 376.7 91.9 379.5 89.8 385.1 85.9 C 383.8 83.6 383.1 80.9 383.1 77.6 C 383.1 71.1 384.6 66.6 387.8 64 L 387.8 64.2 C 387.8 65 387.5 66.2 387 67.8 C 386.559 68.92 386.29 70.1 386.2 71.3 L 386.3 72.1 C 388.4 65.9 393.3 61.1 401.1 57.7 C 400.8 57.5 400.6 57.4 400.3 57.5 C 398.9 58.3 397.3 58.7 395.3 58.7 C 398.8 56.5 404.5 54.9 412.3 53.9 L 423 39 C 419.7 41 416 41.8 411.7 41.8 C 414.8 40.6 419.4 38.6 425.4 36 C 431.8 33 435.1 30.1 435.1 27.1 C 432.63 27.054 430.159 27.154 427.7 27.4 C 421.022 26.367 414.355 25.267 407.7 24.1 C 406.7 23.8 405.2 23.4 403.3 23.1 L 398.7 23.1 C 391.7 23.1 386 25.6 381.4 30.5 L 381.4 33 C 381.4 39.2 385.1 42.3 392.6 42.3 C 399.4 42.3 405.3 40.2 410.1 36 L 410.3 36.1 C 410.3 38.8 408.1 41.2 403.8 43.5 C 397.381 47.233 389.545 47.606 382.8 44.5 C 379.1 42.6 377.2 39.8 377.2 36.1 C 377.2 28.9 382.5 24.1 393.2 21.6 L 393.7 20.4 L 398 20.4 C 400 20.4 402.3 20.6 404.9 21 C 415.703 22.487 426.539 23.721 437.4 24.7 C 440 24.7 443.6 23.2 448.3 20.2 C 453 17.2 455.9 15.6 456.9 15.6 C 458.7 15.6 459.6 16.1 459.6 17.2 C 459.6 18 459 18.9 457.6 20 C 456.6 20.4 455.3 21 453.6 22 C 444.768 25.612 437.213 31.774 431.9 39.7 L 423.5 54.5 C 423.2 55.1 423 55.6 423 56.2 C 429.1 59.2 432.2 61.8 432.2 63.9 C 432.2 64.3 432.2 64.9 431.9 65.6 C 431.834 66.131 431.8 66.665 431.8 67.2 C 433.576 67.302 435.335 66.81 436.8 65.8 C 438.724 64.024 440.559 62.156 442.3 60.2 L 457 43.8 C 457.6 43.1 458.3 42.6 459 42.2 L 459 42.7 L 455.3 48.1 L 458.4 44.8 L 469 35 C 472.7 31.7 476.4 28.8 480 26.2 C 480 25.6 481.7 24.3 485 22.5 C 488.5 20.6 490.6 19.7 491.6 19.7 Z M 329.3 56.9 C 329.3 57.1 329.1 57.2 328.8 57.3 C 328.5 57.3 328.3 57.1 328.3 56.9 L 328.7 56.7 L 328.9 56.7 C 329 56.7 329.2 56.7 329.3 56.9 Z M 375.6 106.4 C 375.6 106.7 375.4 106.9 375.2 106.9 L 375 106.4 L 375.2 106.3 L 375.6 106.4 Z M 326.6 57.6 C 326.6 57.9 326.4 58.1 326 58.1 C 325.7 58 325.5 57.8 325.5 57.5 L 325.9 57.3 L 326.2 57.3 C 326.5 57.3 326.6 57.4 326.6 57.6 Z M 354.3 118.7 C 354.3 119 354 119.2 353.3 119.2 C 353.1 119.2 352.9 119 352.8 118.8 L 352.7 118.8 C 352.8 118.5 353.1 118.5 353.4 118.5 C 354 118.5 354.4 118.5 354.4 118.7 Z M 351.6 119.2 C 351.6 119.5 351.3 119.7 350.8 119.7 C 350.4 119.7 350.2 119.5 350 119.2 C 350.2 119 350.4 118.9 350.8 118.9 C 351.3 118.9 351.6 119 351.6 119.2 Z M 437.8 25.6 C 437.8 25.5 437.8 25.4 437.5 25.4 L 437.4 25.7 L 437.5 26.1 L 437.8 25.6 Z M 454.8 49.6 C 454.8 49.3 454.6 49.1 454.3 49.1 C 454.1 49.2 454 49.4 454 49.7 C 454 49.9 454.2 50.1 454.3 50.2 C 454.6 50.2 454.8 50 454.8 49.8 L 454.8 49.6 Z M 433 33.1 C 431.9 33.5 431.2 34.2 430.9 35.2 L 432.9 33.1 Z M 427.6 36.3 C 426.9 36.6 426 37.2 425 38 L 421.3 45.5 C 422.3 44.5 424.3 41.5 427.6 36.3 Z M 423.6 62.6 C 423.6 60.3 422.8 59.2 421.3 59.2 C 420.8 59.4 417.8 64.6 412.3 74.6 L 412.8 74.6 C 415.2 73.8 418.8 72.4 423.4 70.4 L 423.4 69.9 L 421.3 68.3 C 421.3 67.8 421.6 66.9 422.3 65.6 C 422.986 64.729 423.434 63.696 423.6 62.6 Z M 435.1 68.8 L 434.6 68.8 C 430.462 69.724 426.438 71.099 422.6 72.9 C 416 75.6 411.7 77.6 410 78.9 L 403.8 89 L 405.4 89.2 C 406.3 89.2 407.6 89 409.4 88.6 C 411.1 88.2 412.5 88 413.4 88 L 411.7 89 L 412.4 89 C 415.7 89 419.3 87.5 423.2 84.5 C 424.8 83.2 427.8 80.5 431.9 76.3 L 432.6 75.2 L 432.6 74.6 L 431 74.6 L 427.7 77.9 C 430.318 74.966 432.82 71.93 435.2 68.8 Z M 407.4 58.7 L 407.1 58.7 C 402.3 58.7 398.2 60 395 62.7 C 391.568 65.469 389.641 69.693 389.8 74.1 L 389.8 75.8 C 389.8 80.1 390.5 82.2 391.8 82.2 C 393.9 82.2 395.4 81.2 396.4 79.4 L 401.5 68.6 C 404.2 63.3 406.1 60 407.5 58.6 Z M 426.7 116.7 C 426.2 115.3 426 114.4 426 114.1 C 425.9 108.2 425.7 105.1 425.5 104.9 L 425.5 105.4 C 423.8 108.4 422.9 110.7 422.9 112.1 C 422.9 115.1 424.2 116.7 426.7 116.7 Z M 361.4 83.3 C 361.4 83 361.3 82.8 361.1 82.7 C 360.9 82.7 360.8 82.9 360.8 83.2 L 360.8 83.4 L 361.1 83.8 C 361.3 83.7 361.4 83.5 361.4 83.3 Z M 365.7 115.8 L 365.7 115.6 C 365.7 115.3 365.6 115.2 365.4 115 C 365.1 115 365 115.3 365 115.7 L 365 115.8 C 365 116.1 365.1 116.2 365.4 116.2 C 365.6 116.2 365.7 116.1 365.7 115.8 Z M 330.7 81 L 330.7 80.9 C 329.9 80.9 329.6 81.3 329.6 82 L 329.6 82.2 C 330.4 82.2 330.8 81.8 330.8 81 Z M 321.2 119.2 C 321.2 119 321 118.9 320.7 118.9 L 320.6 118.9 C 320.3 118.9 320.2 119 320.2 119.2 C 320.2 119.4 320.3 119.6 320.7 119.7 L 321.2 119.3 L 321.2 119.2 Z M 417 86.4 C 417 86.7 416.8 86.9 416.7 86.9 C 416.3 86.9 416.2 86.7 416.2 86.5 L 416.2 86.3 C 416.2 86 416.3 85.9 416.7 85.9 C 416.9 86 417 86.2 417 86.4 Z M 415.8 86.9 C 415.8 87.1 415.7 87.3 415.5 87.3 C 415.3 87.3 415.2 87.1 415.2 86.9 C 415.2 86.7 415.3 86.5 415.5 86.4 C 415.7 86.5 415.8 86.7 415.8 86.9 Z M 414.8 87.5 C 414.8 87.8 414.7 88 414.5 88 C 414.2 88 414 87.9 414 87.6 L 414 87.4 C 414 87.1 414.2 86.9 414.5 86.9 C 414.7 87 414.8 87.2 414.8 87.5 Z" style="fill: rgb(0, 0, 0);"/>
    <path d="M 502.7 112.2 L 498.2 114.1 C 498.2 113.9 499.7 113.2 502.7 112.1 Z M 513.4 102.7 L 513 102.9 C 511.229 105.127 509.14 107.081 506.8 108.7 C 504.56 110.491 502.066 111.941 499.4 113 L 492.7 114 C 485.4 120.8 478.9 124.2 473.3 124.2 C 466.6 124.2 463.3 119.6 463.3 110.5 L 463.6 106.6 L 463.9 102.7 C 463.1 103.2 461.9 103.7 460 104.3 C 460 103.3 460.5 102.3 461.3 101.3 C 473 88.3 484 81.7 494.1 81.7 C 500.2 81.7 503.3 85.3 503.3 92.4 C 503.3 98.2 500.6 104.4 495.3 111.1 L 495.3 111.4 C 500.6 111.4 506.4 108.2 512.7 101.9 L 513.4 102.5 L 513.4 102.8 Z M 498.8 85.4 C 498.8 85 498.6 84.9 498.5 84.9 C 498.2 84.9 498 85 498 85.4 L 498 85.5 C 498 85.8 498.2 85.9 498.5 85.9 C 498.7 85.9 498.8 85.7 498.8 85.5 L 498.8 85.4 Z M 488.2 86 C 488.2 85.6 488.1 85.4 487.7 85.4 C 487.5 85.6 487.4 85.8 487.4 86.1 C 487.4 86.3 487.6 86.4 487.7 86.6 C 488.1 86.6 488.2 86.4 488.2 86.2 L 488.2 86 Z M 494.7 94.2 C 494.7 92.2 494.1 90.5 492.7 89.2 L 490.5 89.2 C 486.1 89.2 482 91.9 478.2 97.4 C 475.006 101.585 473.158 106.642 472.9 111.9 C 472.9 116.5 475 118.8 479.1 118.8 C 481.3 118.8 484.7 116.3 489.4 111.5 L 482.6 116.2 C 490.6 108.6 494.7 101.2 494.7 94.2 Z M 485.4 117.9 L 485.4 117.7 L 485.1 117.4 C 484.9 117.4 484.8 117.6 484.8 117.8 C 484.8 118 485 118.2 485.1 118.3 C 485.3 118.3 485.4 118.1 485.4 117.9 Z M 483.5 118.8 C 479.77 120.843 475.547 121.812 471.3 121.6 L 472 122 L 473.7 122 C 479 122 482.3 121 483.5 118.8 Z M 471.1 121.2 L 471.1 121 C 471.1 120.7 470.9 120.6 470.8 120.5 C 470.6 120.5 470.5 120.7 470.5 121 L 470.5 121.2 L 470.8 121.6 C 471 121.6 471.1 121.4 471.1 121.2 Z M 481.5 117 L 481.4 117.2 L 480.9 117.2 L 480.9 116.9 L 481.4 116.7 L 481.4 117 Z M 480.3 117.8 L 480.3 117.9 L 479.9 118.3 C 479.6 118.3 479.5 118.2 479.5 117.9 L 479.5 117.7 C 479.5 117.5 479.6 117.4 479.9 117.4 C 480.2 117.4 480.3 117.5 480.3 117.7 Z" style="fill: rgb(0, 0, 0);"/>
    <path d="M 541.8 73.7 C 541.8 75.8 540.6 76.9 538.2 76.9 C 534.9 76.9 533.2 75.9 533.2 73.7 C 533.2 71.9 534.7 71 537.7 71 L 539.1 71 C 540.9 71 541.8 72 541.8 73.7 Z M 546.6 101.8 C 546.6 102.5 545 104.5 541.8 108 C 536.5 113.8 533.2 117.3 531.8 118.5 C 527.3 122.5 523.1 124.5 519.2 124.5 C 515.2 124.5 512.3 122.1 510.3 117.2 L 510.3 116.2 C 510.3 114.8 512.1 110.7 515.8 104 L 520.3 97 L 524.7 90.1 C 524.8 90 525 89.7 525.1 89.1 L 510.8 104 L 510.2 104 C 510.2 101.9 516.2 94.7 528.4 82.7 L 532.9 82.4 L 537.4 82.2 L 537.4 82.7 L 521.2 111 C 520 113.4 519.3 115.4 519.3 117 C 519.3 118.2 519.7 118.7 520.5 118.8 L 523.1 118.7 L 522.6 119.2 L 522.8 119.2 L 522.9 119.4 C 523.9 119.1 525.3 118.5 526.9 117.7 L 537.4 108.6 L 538 108.6 L 534.3 113.6 L 545.9 101.7 L 546.6 101.7 Z M 526.2 120.5 L 526.2 120.4 C 526.2 120.2 526 120.1 525.9 120 C 525.5 120 525.4 120.1 525.4 120.4 L 525.4 120.5 C 525.4 120.8 525.5 120.9 525.9 120.9 C 526.1 120.9 526.2 120.7 526.2 120.5 Z M 524.7 120.9 L 524.2 120.9 L 517.2 122 L 517.8 122.6 L 518.6 122.6 L 519.3 122.8 C 521.5 122.8 523.3 122.2 524.7 120.9 Z" style="fill: rgb(0, 0, 0);"/>
    <path d="M 598.7 71.3 L 580.9 71.3 C 576.334 78.276 572.257 85.56 568.7 93.1 L 554.4 115.4 C 553.708 116.333 553.292 117.442 553.2 118.6 C 553.2 120.4 554.2 121.3 556.3 121.3 C 560.2 121.3 564.8 118.3 570.3 112.3 C 575.8 106.3 578.9 103.3 579.5 103.3 C 579.5 104.5 578.9 105.8 577.6 107.4 C 576.1 109.2 575.3 110.4 575 111.1 C 569 116.1 564.3 120.1 560.7 122.8 C 558.221 124.845 555.114 125.975 551.9 126 C 547.1 126 544.7 123.6 544.7 118.6 C 544.7 114.1 546.3 108.9 549.6 103.3 L 558.6 89.8 L 543.8 106.3 L 543.1 106.3 L 542.7 105.8 C 548.302 99.041 553.936 92.307 559.6 85.6 C 563.607 81.319 567.005 76.507 569.7 71.3 L 564.3 71.3 C 564.5 70 564.7 69.3 564.9 69.3 L 571.3 69.3 L 579.8 55.3 C 581.5 54.3 584.8 53.9 589.4 53.9 L 589.4 54.8 L 581.4 67.9 C 581.4 68.9 581.8 69.3 582.5 69.3 L 598 69.3 C 598.4 69.3 598.6 70 598.8 71.3 Z M 554.4 124 L 553.9 123.8 L 551 123.8 C 550.8 123.8 550.7 123.8 550.5 124 C 550.7 124.2 551.2 124.3 551.9 124.3 L 552.7 124.3 C 553.4 124.3 553.9 124.2 554.3 124 Z M 550.4 123.5 C 550.4 123.2 550.4 123 550.1 122.9 C 549.8 122.9 549.7 123.1 549.7 123.4 L 549.7 123.6 C 549.7 123.8 549.8 124 550.1 124 C 550.4 123.9 550.5 123.7 550.5 123.5 Z M 652 101.8 C 652 102.7 651.7 103.7 650.8 104.8 C 649.94 105.944 649.58 107.386 649.8 108.8 L 647.8 111 C 639.342 117.751 630.42 123.9 621.1 129.4 L 620.5 129.9 C 615.543 138.11 610.306 146.148 604.8 154 C 603.6 155.7 599.6 160 593 166.5 C 589 170.5 585 172.5 580.7 172.5 C 575.8 172.5 573.4 169.7 573.4 164.2 C 573.4 163.2 573.8 162 574.4 160.3 C 575.2 158.7 575.5 157.4 575.5 156.5 C 575.5 156.2 575.5 155.8 575.3 155.3 C 575.131 154.956 575.029 154.582 575 154.2 C 575 151 576.4 148.4 579.3 146.4 L 579.3 146.9 L 579 147.9 L 578.8 148.9 C 587.259 139.017 597.908 131.244 609.9 126.2 L 610.4 126.2 L 608.2 127.8 C 604.408 130.136 600.574 132.403 596.7 134.6 C 593.497 136.37 590.567 138.593 588 141.2 C 585.259 143.456 583.098 146.337 581.7 149.6 L 585.5 146.4 L 611.5 128.9 L 614.1 125.2 L 612.3 125.2 C 612.3 124.6 612.7 124.1 613.7 123.7 L 612.5 123.2 C 614.9 122.3 616.3 121.1 616.8 119.5 L 616.6 119.5 C 614.7 119.5 612.1 120.3 608.7 121.9 C 605.4 123.4 602.7 124.2 600.9 124.2 C 596.6 124.2 594.4 121.2 594.4 115 C 594.4 110.8 596.4 106 600.3 100.4 C 602.5 97.4 605.3 92.7 608.9 86.6 L 608.9 85.8 C 608.9 84.4 608.2 83.8 606.9 83.8 C 603.9 83.8 600.5 85.5 596.9 88.9 C 592.194 93.729 587.527 98.596 582.9 103.5 L 582.1 103.5 C 582.5 102.5 585.1 99.1 590.1 93.4 C 596.8 85.5 602.3 81.6 606.6 81.6 C 610.3 81.6 612.6 83.6 613.6 87.6 C 615 86.1 617 85.4 619.6 85.4 C 620.8 85.4 622.1 85.6 623.3 85.9 C 621.7 88.9 616.3 98.5 607 114.6 C 606.737 115.056 606.599 115.574 606.6 116.1 C 606.6 117.6 607.4 118.3 608.9 118.3 C 617.096 111.453 624.599 103.816 631.3 95.5 L 637.8 85.5 C 640 82.9 643.8 81.6 649.1 81.6 L 649.1 82.8 L 628 117.4 L 628 118.9 L 629.6 118.9 L 628.9 119.5 L 629.3 119.5 C 630.5 119.5 631.1 118.9 631.3 117.8 C 631.3 118.1 631.6 118.3 632.2 118.3 C 635.892 117.017 639.196 114.814 641.8 111.9 L 641.8 111.5 L 651.3 101.8 L 652.1 101.8 Z M 628.5 101.8 C 623.65 107.079 618.716 112.279 613.7 117.4 C 619.6 114 624.5 108.8 628.5 101.8 Z M 628.3 120.1 L 628.3 119.9 C 628.3 119.7 628.1 119.6 628 119.5 C 627.8 119.6 627.7 119.8 627.7 120 C 627.7 120.2 627.8 120.3 628 120.5 C 628.2 120.4 628.3 120.3 628.3 120.1 Z M 631.3 121.1 L 624.7 123.2 C 623.7 124.3 623.1 125.1 623.1 125.6 C 624.1 125.6 625.6 125.1 627.5 124 C 629.5 123 630.7 122 631.2 121 Z M 615.1 117.9 L 615.1 117.7 C 615.1 117.5 614.9 117.4 614.6 117.4 C 614.4 117.4 614.3 117.6 614.3 117.8 C 614.3 118 614.4 118.2 614.6 118.3 C 614.9 118.3 615.1 118.2 615.1 117.9 Z M 613.7 118.3 L 613.2 118.3 L 612.5 118.6 L 612 118.9 L 612.5 118.9 C 612.7 118.9 612.9 118.9 613.1 118.6 L 613.7 118.3 Z M 603.1 121.6 L 599.3 119.5 L 599.3 120 L 599.2 120.5 C 599.2 121.5 599.7 122 600.9 122 L 601.3 122 C 601.9 122 602.5 121.9 603.1 121.6 Z M 609.4 133.2 L 608.9 133.2 L 586.6 149.6 C 585.3 150.6 584 151.9 582.8 153.4 L 582.7 153.6 C 582.7 154.8 583.7 155.5 586 155.5 C 594 155.5 600.1 151.9 604.5 144.7 L 600.9 148 L 600.3 148 C 603.8 143.2 606.8 138.3 609.4 133.2 Z M 603.1 150.2 C 594.2 156.2 588.1 159.2 584.6 159.2 C 583.889 159.135 583.185 159.001 582.5 158.8 L 580.2 158.6 C 578.2 158.6 577.2 160.7 577.2 164.9 C 577.2 168.6 578.5 170.4 581.3 170.4 C 588 170.4 595.3 163.6 603.1 150.1 Z M 678 90.8 L 676.8 94.1 C 676.8 94.4 676.7 94.6 676.3 94.6 L 661 94.6 C 659.8 93.8 659.2 93.2 659.3 92.9 L 659.9 90.9 L 677.9 90.9 Z M 848.4 24 C 848.4 25 847.5 25.8 845.7 26.6 C 844.1 27.3 842.7 27.6 841.4 27.7 C 839 28.1 835.5 28.5 830.9 28.8 L 826.6 28.8 C 820.932 28.935 815.266 29.102 809.6 29.3 C 809 29.8 807.8 30 805.9 30 C 805.9 29.3 805.7 29 805.3 29 C 805 28.8 802.6 28.6 798.3 28.2 C 788.7 27.5 778 27.2 766.1 27.2 C 759.5 27.2 754.5 27.6 751.1 28.4 C 741.273 30.601 734.291 39.329 734.3 49.4 C 734.3 55.2 736.4 59 740.7 61 C 741.8 61.5 742.7 61.8 743 61.8 L 747.2 61.8 C 758.2 61.8 763.8 58.2 763.8 51.1 C 763.8 46.1 762.4 43.7 759.5 43.7 C 756.873 44.144 754.338 45.023 752 46.3 L 752 46 C 752 45.5 753.4 44.1 756.4 42 L 753 42 C 755.6 40.5 757.4 39.8 758.6 39.8 C 763 39.8 766.2 40.5 768 42 C 770 43.7 770.9 46.7 770.6 51 C 774 48.1 778.4 42.3 783.8 33.4 C 784.2 33.6 784.4 33.9 784.4 34.4 C 784.4 35.1 784.2 35.8 783.8 36.7 C 775.2 54.9 762.8 66.4 746.6 71.2 C 747.7 74.2 748.3 77.5 748.3 81 C 748.3 88.5 746 94.7 741.3 99.7 C 736.67 104.842 730.017 107.694 723.1 107.5 C 718.706 107.298 714.393 106.245 710.4 104.4 C 709.2 105.3 708.7 106.6 708.7 108.4 L 708.8 109.1 C 713.1 114.3 717.8 116.9 723.1 117.1 L 730.1 117.4 L 737 117.6 C 740.4 117.6 744.5 116.2 749.3 113.4 C 753.7 110.9 757.2 108.2 759.8 105.4 C 750.2 112.4 743.6 116.1 739.9 116.1 L 739.6 116 C 745.207 113.832 750.437 110.794 755.1 107 C 761.108 101.216 765.991 94.366 769.5 86.8 C 772.2 80.9 776.4 72.2 782 60.7 C 786.084 51.887 791.782 43.916 798.8 37.2 L 798.8 37.7 C 797.2 40 795.1 43.3 792.5 47.9 L 796.4 43.1 C 800.2 37.9 804.2 33.7 808.4 30.5 C 808.7 30.3 809.9 30.2 812.1 30.2 L 807 35 C 804.8 36.9 803.4 38.7 802.6 40.4 L 780.6 87.7 C 775.6 98.8 768.2 107.7 758.6 114.4 C 748.6 121.4 737.6 124.9 725.8 124.9 C 715.7 124.9 707.8 122.1 702 116.4 C 695.949 110.083 692.797 101.533 693.3 92.8 C 693.059 85.456 695.276 78.241 699.6 72.3 C 704.205 66.598 710.101 62.073 716.8 59.1 L 717.3 58.6 L 717 57.5 L 716.8 56.5 L 716.8 54.1 C 716.8 50.2 718.1 46.5 720.8 43 C 722.4 41 725.3 38.1 729.5 34.6 C 730.8 33.6 731.9 33 732.8 33 C 732.6 33 730.3 35.4 725.8 39.8 L 724.1 42 C 728.1 38 731.3 35.2 733.7 34 L 745.5 27.5 C 756.04 21.297 767.976 17.858 780.2 17.5 L 794.5 17.5 C 799.767 17.493 805.035 17.56 810.3 17.7 C 819.306 17.69 828.287 16.752 837.1 14.9 C 837.5 14.9 837.9 15.1 838.2 15.4 L 838.2 15.5 C 838.2 16.9 835.7 19.4 830.8 22.9 L 832.5 22.9 C 836 22.9 841.3 21.9 848.3 20.1 L 848.3 23.8 Z M 802 24.3 C 801.029 23.816 799.979 23.511 798.9 23.4 L 783.4 21.8 L 776.7 21.8 C 767.071 21.374 757.496 23.441 748.9 27.8 L 749.9 27.8 L 759.9 25.3 L 757.8 25.3 L 764.3 24.3 L 802 24.3 Z M 792.3 49.1 L 792.3 49 C 792.3 48.7 792.2 48.6 791.9 48.6 C 791.6 48.6 791.5 48.9 791.5 49.1 C 791.5 49.3 791.7 49.4 791.9 49.5 C 792.2 49.5 792.3 49.5 792.3 49.1 Z M 766.5 53 L 766.5 52.2 L 765.3 55.4 C 766.1 55 766.5 54.2 766.5 53 Z M 737.5 34 L 736 35.2 C 733.169 37.435 730.705 40.101 728.7 43.1 C 726.2 46.8 724.9 50.1 724.9 53 L 724.9 55.6 C 724.9 56.7 725.2 57.3 725.9 57.5 C 727.8 57.9 730.6 58.5 734.5 59.6 L 734.5 59.2 C 733.9 58.3 733.5 57.1 732.9 55.4 C 732.501 54.587 732.263 53.704 732.2 52.8 L 732.2 49.8 C 732.2 45.9 733.9 41.1 737.1 35.2 L 737.6 34 Z M 755.7 66.7 C 751.786 66.9 747.862 66.665 744 66 L 743.6 66 C 744.3 66.7 745.1 67.8 745.9 69.3 C 749.6 69.3 752.9 68.4 755.9 66.7 Z M 741.3 68.8 C 738.6 65.4 734.7 63.8 729.5 63.8 C 729.5 65.1 730.8 66.4 733.4 67.4 C 735.5 68.4 737.4 68.8 739.2 68.8 L 741.3 68.8 Z M 753.1 113.9 C 744.4 117.9 736.1 119.9 728.1 119.9 C 719.429 120.482 710.82 118.083 703.7 113.1 C 701.569 111.611 700.27 109.199 700.2 106.6 C 700.2 102.6 702.2 100.7 706.2 100.7 C 707.5 100.7 710.8 101.9 716.1 104.3 C 718.501 105.167 721.051 105.541 723.6 105.4 C 730.2 105.4 735.7 103.1 740 98.6 C 744.2 94.2 746.2 88.6 746.2 81.9 C 746.2 77.6 745.5 74.3 743.9 71.9 L 741.8 71.9 C 732.8 72.1 725.6 69.6 720.3 64.3 C 719 64.3 717 65.1 714.1 66.7 C 702.1 73.1 696.1 82.9 696.1 96.2 C 696.1 104.8 699 111.5 704.9 116.3 C 710.968 121.022 718.518 123.433 726.2 123.1 C 730.8 123.1 735.7 122.4 740.8 120.9 C 746.9 119.1 751 116.8 753.1 113.9 Z M 827 112.2 L 822.4 114.1 C 822.4 113.9 823.9 113.2 827 112.1 Z M 837.6 102.7 L 837.3 102.9 C 835.499 105.134 833.375 107.089 831 108.7 C 828.79 110.483 826.331 111.932 823.7 113 L 816.9 114 C 809.6 120.8 803.1 124.2 797.5 124.2 C 790.9 124.2 787.5 119.6 787.5 110.5 L 787.9 106.6 L 788.2 102.7 C 787.4 103.2 786.1 103.7 784.2 104.3 C 784.2 103.3 784.7 102.3 785.6 101.3 C 797.2 88.2 808.2 81.6 818.4 81.6 C 824.4 81.6 827.5 85.2 827.5 92.3 C 827.5 98.1 824.8 104.3 819.5 111 L 819.5 111.3 C 824.8 111.3 830.7 108.1 837 101.8 L 837.6 102.4 L 837.6 102.7 Z M 823.1 85.4 C 823 85 822.9 84.9 822.7 84.9 C 822.4 84.9 822.3 85 822.3 85.4 L 822.3 85.5 C 822.3 85.8 822.4 85.9 822.7 85.9 C 822.9 85.9 823.1 85.7 823.1 85.5 L 823.1 85.4 Z M 812.5 86 C 812.5 85.6 812.3 85.4 812 85.4 C 811.8 85.6 811.7 85.8 811.7 86.1 C 811.7 86.3 811.8 86.4 812 86.6 C 812.3 86.6 812.5 86.4 812.5 86.2 L 812.5 86 Z M 819 94.2 C 819 92.2 818.3 90.5 817 89.2 L 814.8 89.2 C 810.4 89.2 806.3 91.9 802.4 97.4 C 799.242 101.597 797.429 106.652 797.2 111.9 C 797.2 116.5 799.2 118.8 803.4 118.8 C 805.5 118.8 808.9 116.3 813.7 111.5 L 806.8 116.2 C 814.9 108.6 819 101.2 819 94.2 Z M 809.7 117.9 L 809.7 117.7 L 809.4 117.4 C 809.1 117.4 809 117.6 809 117.8 L 809.4 118.3 C 809.6 118.3 809.7 118.1 809.7 117.9 Z M 807.7 118.8 C 803.97 120.843 799.747 121.812 795.5 121.6 L 796.2 122 L 798 122 C 803.3 122 806.5 121 807.8 118.8 Z M 795.4 121.2 L 795.4 121 C 795.3 120.7 795.2 120.6 795 120.5 C 794.8 120.5 794.7 120.7 794.7 121 L 794.7 121.2 L 795 121.6 C 795.2 121.6 795.4 121.4 795.4 121.2 Z M 805.7 117 L 805.7 117.2 L 805.1 117.2 L 805.1 116.9 L 805.6 116.7 L 805.7 117 Z M 804.5 117.8 L 804.5 117.9 C 804.5 118.1 804.3 118.2 804.2 118.3 C 803.9 118.3 803.7 118.2 803.7 117.9 L 803.7 117.7 C 803.7 117.5 803.9 117.4 804.2 117.4 C 804.4 117.4 804.5 117.5 804.5 117.7 Z" style="fill: rgb(0, 0, 0);"/>
    <path d="M 866 73.7 C 866 75.8 864.8 76.9 862.4 76.9 C 859.1 76.9 857.4 75.9 857.4 73.7 C 857.4 71.9 858.9 71 862 71 L 863.3 71 C 865.1 71 866 72 866 73.7 Z M 870.8 101.8 C 870.8 102.5 869.2 104.5 866 108 C 860.8 113.8 857.5 117.3 856 118.5 C 851.6 122.5 847.4 124.5 843.4 124.5 C 839.5 124.5 836.6 122.1 834.6 117.2 L 834.6 116.2 C 834.6 114.8 836.4 110.7 840 104 L 844.5 97 L 849 90 C 849.2 89.9 849.3 89.6 849.5 89 L 835.1 104 L 834.4 104 C 834.4 101.9 840.5 94.7 852.7 82.7 L 857.1 82.4 L 861.7 82.2 L 861.7 82.7 L 845.5 111 C 844.2 113.4 843.5 115.4 843.5 117 C 843.5 118.2 844 118.7 844.7 118.8 L 847.3 118.7 L 846.8 119.2 L 847 119.2 L 847.2 119.4 C 848.2 119.1 849.5 118.5 851.1 117.7 L 861.7 108.6 L 862.3 108.6 L 858.5 113.6 L 870.2 101.7 L 870.8 101.7 Z M 850.4 120.5 L 850.4 120.4 C 850.4 120.2 850.3 120.1 850.1 120 C 849.8 120 849.6 120.1 849.6 120.4 L 849.6 120.5 C 849.6 120.8 849.8 120.9 850.1 120.9 C 850.3 120.9 850.4 120.7 850.4 120.5 Z M 848.9 120.9 L 848.4 120.9 L 841.4 122 L 842.1 122.6 L 842.9 122.6 L 843.6 122.8 C 845.8 122.8 847.6 122.2 848.9 120.9 Z" style="fill: rgb(0, 0, 0);"/>
    <path d="M 923 71.3 L 905.2 71.3 C 900.599 78.273 896.489 85.557 892.9 93.1 L 878.6 115.4 C 877.944 116.344 877.563 117.452 877.5 118.6 C 877.5 120.4 878.5 121.3 880.6 121.3 C 884.4 121.3 889.1 118.3 894.6 112.3 C 900 106.3 903.1 103.3 903.8 103.3 C 903.8 104.5 903.1 105.8 901.8 107.4 C 900.4 109.2 899.5 110.4 899.3 111.1 C 893.3 116.1 888.5 120.1 885 122.8 C 882.494 124.867 879.348 125.998 876.1 126 C 871.4 126 869 123.6 869 118.6 C 869 114.1 870.6 108.9 873.8 103.3 L 882.8 89.8 L 868 106.3 L 867.4 106.3 L 866.9 105.8 C 867.3 105.1 868.9 103.2 871.6 99.9 L 883.8 85.6 C 887.842 81.326 891.274 76.513 894 71.3 L 888.6 71.3 C 888.8 70 889 69.3 889.2 69.3 L 895.6 69.3 L 904.1 55.3 C 905.8 54.3 909 53.9 913.6 53.9 L 913.6 54.8 L 905.6 67.9 C 905.6 68.9 906 69.3 906.8 69.3 L 922 69.3 C 922.4 69.3 922.7 70 922.8 71.3 Z M 878.5 124 L 878 123.8 L 875.2 123.8 C 875.1 123.8 874.9 123.8 874.8 124 C 875 124.2 875.5 124.3 876.2 124.3 L 877 124.3 C 877.7 124.3 878.2 124.2 878.5 124 Z M 874.6 123.5 C 874.6 123.2 874.5 123 874.3 122.9 C 874 122.9 873.8 123.1 873.8 123.4 L 873.8 123.6 C 873.8 123.8 874 124 874.3 124 C 874.5 123.9 874.6 123.7 874.6 123.5 Z M 976.3 101.8 C 976.3 102.7 975.9 103.7 975.1 104.8 C 974.24 105.944 973.88 107.386 974.1 108.8 L 972 111 C 963.574 117.748 954.686 123.896 945.4 129.4 L 944.7 129.9 C 939.775 138.108 934.572 146.146 929.1 154 C 927.8 155.7 923.9 160 917.2 166.5 C 913.2 170.5 909.2 172.5 904.9 172.5 C 900.1 172.5 897.6 169.7 897.6 164.2 C 897.6 163.2 898 162 898.7 160.3 C 899.4 158.7 899.7 157.4 899.7 156.5 C 899.7 156.2 899.7 155.8 899.5 155.3 C 899.331 154.956 899.229 154.582 899.2 154.2 C 899.2 151 900.7 148.4 903.5 146.4 L 903.5 146.9 L 903.3 147.9 L 903 148.9 C 911.488 139.004 922.172 131.23 934.2 126.2 L 934.6 126.2 L 932.5 127.8 C 928.675 130.137 924.807 132.404 920.9 134.6 C 917.733 136.378 914.837 138.6 912.3 141.2 C 909.522 143.444 907.327 146.326 905.9 149.6 L 909.7 146.4 L 935.7 128.9 C 936 128.7 936.8 127.5 938.4 125.2 L 936.5 125.2 C 936.5 124.6 937 124.1 937.9 123.7 L 936.8 123.2 C 939.2 122.3 940.6 121.1 941 119.5 L 940.8 119.5 C 939 119.5 936.4 120.3 933 121.9 C 929.6 123.4 927 124.2 925.2 124.2 C 920.8 124.2 918.6 121.2 918.6 115 C 918.6 110.8 920.6 106 924.6 100.4 C 926.7 97.4 929.6 92.7 933.1 86.6 L 933.1 85.8 C 933.1 84.4 932.4 83.8 931.1 83.8 C 928.1 83.8 924.8 85.5 921.1 88.9 C 916.394 93.729 911.727 98.596 907.1 103.5 L 906.3 103.5 C 906.7 102.5 909.3 99.1 914.3 93.4 C 921 85.5 926.5 81.6 930.9 81.6 C 934.6 81.6 936.9 83.6 937.9 87.6 C 939.3 86.1 941.2 85.4 943.8 85.4 C 945.1 85.4 946.3 85.6 947.5 85.9 C 946 88.9 940.5 98.5 931.2 114.6 C 930.972 115.066 930.869 115.582 930.9 116.1 C 930.9 117.6 931.6 118.3 933.1 118.3 C 934.8 117.7 938.7 114.1 944.7 107.7 C 950.1 102.1 953.7 98 955.5 95.5 L 962 85.5 C 964.2 82.9 968 81.6 973.4 81.6 L 973.4 82.8 L 952.2 117.4 L 952.2 118.9 L 953.9 118.9 L 953.2 119.5 L 953.5 119.5 C 954.7 119.5 955.4 118.9 955.5 117.8 C 955.5 118.1 955.8 118.3 956.5 118.3 C 960.192 117.017 963.496 114.814 966.1 111.9 L 966.1 111.5 L 975.5 101.8 L 976.3 101.8 Z M 952.7 101.8 C 947.85 107.079 942.916 112.279 937.9 117.4 C 943.9 114 948.8 108.8 952.7 101.8 Z M 952.5 120.1 L 952.5 119.9 C 952.5 119.7 952.4 119.6 952.2 119.5 C 952 119.6 951.9 119.8 951.9 120 C 951.9 120.2 952.1 120.3 952.2 120.5 C 952.4 120.4 952.5 120.3 952.5 120.1 Z M 955.5 121.1 L 949 123.2 C 947.9 124.3 947.4 125.1 947.4 125.6 C 948.4 125.6 949.8 125.1 951.7 124 C 953.7 123 955 122 955.5 121 Z M 939.3 117.9 L 939.3 117.7 C 939.3 117.5 939.2 117.4 938.9 117.4 C 938.6 117.4 938.5 117.6 938.5 117.8 C 938.5 118 938.7 118.2 938.9 118.3 C 939.2 118.3 939.3 118.2 939.3 117.9 Z M 937.9 118.3 L 937.4 118.3 L 936.8 118.6 L 936.2 118.9 L 936.8 118.9 C 936.9 118.9 937.1 118.9 937.3 118.6 L 937.9 118.3 Z M 927.3 121.6 L 923.6 119.5 L 923.6 120 L 923.4 120.5 C 923.4 121.5 924 122 925.2 122 L 925.6 122 C 926.1 122 926.7 121.9 927.3 121.6 Z M 933.7 133.2 L 933.1 133.2 L 910.8 149.6 C 909.5 150.6 908.3 151.9 907.1 153.4 L 906.9 153.6 C 906.9 154.8 908 155.5 910.2 155.5 C 918.2 155.5 924.4 151.9 928.7 144.7 L 925.2 148 L 924.5 148 C 928 143.2 931.1 138.3 933.7 133.2 Z M 927.3 150.2 C 918.5 156.2 912.3 159.2 908.9 159.2 C 908.155 159.142 907.418 159.008 906.7 158.8 L 904.5 158.6 C 902.4 158.6 901.4 160.7 901.4 164.9 C 901.4 168.6 902.8 170.4 905.6 170.4 C 912.2 170.4 919.5 163.6 927.3 150.1 Z" style="fill: rgb(0, 0, 0);"/>
  </g>
  <circle cx="356" cy="655" r="39" style="fill: rgb(96, 38, 107);"/>
  <circle cx="446" cy="655" r="39" style="fill: rgb(156, 69, 31);"/>
  <circle cx="536" cy="655" r="39" style="fill: rgb(211, 118, 33);"/>
  <circle cx="222.962" cy="572.135" r="20.5" style="fill: rgb(96, 38, 107);"/>
  <circle cx="29.919" cy="635.791" r="20.5" style="fill: rgb(211, 118, 33);"/>
  <circle cx="130.5" cy="614.5" r="103.5" stroke="#000" stroke-width="2"/>
  <path d="M 131.724 616.729 L 225.008 571.139" stroke="#000" stroke-width="2"/>
  <circle cx="156.5" cy="329.5" r="28" fill="#fff" stroke="#000" stroke-width="3"/>
  <circle cx="163.5" cy="334.5" r="14.5" fill="#000"/>
  <path d="M153.5 332.5c0-4.4 4-6.2 6-6.5l-2.5 16.5a18 18 0 01-3.5-10z" fill="#fff"/>
  <circle cx="245" cy="311" r="30.5" fill="#fff" stroke="#000" stroke-width="3"/>
  <circle cx="246" cy="317" r="17" fill="#000"/>
  <path d="M234.3 314.7c0-5.2 4.7-7.3 7-7.7l-3 19.4a21.2 21.2 0 01-4-11.7z" fill="#fff"/>
  <path d="M153 180.5c0 6.4-9.7 26.3-14.5 35.5l19.5 7 41-7c-3.8-7.7-12.7-25.5-17.5-35.5a56.1 56.1 0 01-4-28c3.3 0 10-3.5 10-11.5 0-10.8-9.5-13.5-15.5-12 1-11.5-4.6-18-13-18s-16 11-12 19.5c-2.7 1.2-10 4.3-10 13.5s11.2 9.8 16 8.5v28z" stroke="#000" stroke-width="3" style="fill: rgb(213, 115, 41);"/>
  <path d="M82.5 222c3.6 17.2 6.8 54.8 8 71.5l203-40.5a4353 4353 0 01-16-59.5 337.8 337.8 0 01-5-48c4.7 0 14-2.8 14-14s-12.7-13-19-12.5c0-8.2-3.6-24.5-18-24.5s-14.7 16.3-13 24.5c-3.7 1.5-10.4 7-8 17 2.4 10 13.7 11.3 18 13-5.5 30-45.7 63.1-66.5 67.5-20.8 4.4-71.5-23-77.5-39.5 11.5-3 11.5-11 11.5-17.5 0-12.5-11-13.7-17-14 .7-7.3-2.4-22-20-22s-16.7 18-11 28c-6.7 2.5-14 11.3-14 18.5 0 7.2 13.3 11 20 12 2 6.2 6.9 22.8 10.5 40z" stroke="#000" stroke-width="3" style="fill: rgb(238, 127, 48);"/>
  <path d="M152 346.5c10.4-7.2 25-6 31-4.5-2-2.8-4.8-7.1-6-11.5-1.5-5.5.5-9 6-13s14 0 20.5 0 8.5-4 15.5-6 13 0 14 10c.8 8-2 11.3-3.5 12 10.2-2.2 34.4-6.3 50-5.5 19.5 1 44.5 8.5 46.5 38s-46.5 78.5-80.5 93.5c-29.4 13-108.5 26-132-15s25.5-89 38.5-98z" stroke="#000" stroke-width="4" style="fill: rgb(207, 119, 41);"/>
  <circle cx="194" cy="330" r="6" fill="#000"/>
  <circle cx="219" cy="326" r="6" fill="#000"/>
  <path d="M237.5 361c-6 1.6-9.5 11.7-10.5 16.5 2.3-2.3 8.3-7.7 13.5-10.5 6.5-3.5 9.5 2.5 9.5 8 0 4.4-10.7 7.2-16 8 3 .7 10.4 1.6 16 0 7-2 10.3-13 8-18-3-6.5-13-6-20.5-4z" fill="#000"/>
  <line style="stroke: rgb(0, 0, 0); stroke-width: 2px;" x1="132.731" y1="616.398" x2="57.811" y2="687.626"/>
  <line style="stroke: rgb(0, 0, 0); stroke-width: 2px;" x1="132.238" y1="616.126" x2="28.633" y2="635.765"/>
</svg>