<svg fill="none" viewBox="0 0 51 80" xmlns="http://www.w3.org/2000/svg">
  <defs>
  <symbol id="interactive" class="showInteractive" >
    <path d="M4.6 77.5H3.4v-5.4h1.2v5.4zm-1.2-6.8l.1-.5.5-.1.6.1.1.5-.1.5-.6.1-.5-.1-.1-.5zm3.7 1.4v.6a2 2 0 011.6-.7c1.1 0 1.7.6 1.7 1.9v3.6H9.2V74l-.2-.8-.7-.2c-.5 0-.9.2-1.1.6v3.9H6v-5.4h1.1zm6.1-1.3v1.3h.9v.9h-.9v3l.1.4c.1.1.2.2.5.2l.4-.1v.9a3 3 0 01-.8.2c-1 0-1.4-.6-1.4-1.6v-3h-.9v-.9h.9v-1.3h1.2zm4.3 6.8c-.8 0-1.4-.3-1.9-.8-.5-.4-.7-1.1-.7-1.9v-.1c0-.6.1-1 .3-1.5.2-.4.5-.7.9-1 .3-.2.8-.3 1.2-.3.8 0 1.3.2 1.7.7.4.5.6 1.1.6 2v.5h-3.5c0 .4.2.8.4 1 .3.3.6.4 1 .4.6 0 1-.2 1.4-.7l.6.6c-.2.4-.5.6-.8.8l-1.2.3zm-.2-4.6c-.3 0-.6.1-.8.3-.2.2-.3.6-.4 1h2.3v-.1c0-.4-.1-.7-.3-.9-.2-.2-.4-.3-.8-.3zm6.1.2h-.5c-.5 0-.9.2-1.1.6v3.7h-1.2v-5.4h1.1l.1.6c.3-.5.7-.7 1.2-.7l.4.1v1.1zm3.9 4.3l-.2-.5c-.4.4-.8.6-1.4.6-.5 0-1-.2-1.3-.5-.4-.3-.5-.7-.5-1.1 0-.6.2-1.1.6-1.4.4-.3 1-.4 1.8-.4h.8v-.4c0-.2-.1-.5-.3-.6-.1-.2-.3-.3-.7-.3a1 1 0 00-.6.2c-.2.2-.3.3-.3.5H24c0-.3.1-.5.3-.8l.8-.6 1.1-.2c.6 0 1.1.2 1.5.5.4.3.6.7.6 1.3v2.4l.2 1.2v.1h-1.2zm-1.4-.9l.7-.2.5-.4v-1.1h-.7c-.4 0-.8.1-1 .3-.2.1-.3.3-.3.6l.2.6.6.2zm5.9 0c.3 0 .5-.1.7-.3.2-.1.4-.4.4-.6H34l-.3.9-.8.7a2 2 0 01-1.1.3c-.7 0-1.3-.3-1.8-.8a3 3 0 01-.7-2v-.1c0-.8.3-1.5.7-2 .4-.5 1-.7 1.8-.7.6 0 1.2.2 1.6.6.4.3.6.8.6 1.4h-1.1c0-.3-.2-.5-.4-.7-.1-.2-.4-.3-.7-.3-.4 0-.7.1-.9.4-.2.3-.3.7-.3 1.3v.2c0 .5.1 1 .3 1.3.2.3.5.4.9.4zm4.7-5.8v1.3h.9v.9h-.9v3l.1.4.4.2.4-.1v.9l-.8.2c-.9 0-1.4-.6-1.4-1.6v-3h-.9v-.9h.9v-1.3h1.3zm3.1 6.7h-1.2v-5.4h1.2v5.4zm-1.3-6.8l.2-.5.5-.1.5.1c.2.2.2.3.2.5s0 .3-.2.5l-.5.1-.5-.1-.2-.5zm4.6 5.2l1.1-3.8h1.3l-1.9 5.4h-1.1l-1.9-5.4h1.3l1.2 3.8zm5.4 1.7c-.7 0-1.4-.3-1.8-.8-.5-.4-.7-1.1-.7-1.9v-.1c0-.6.1-1 .3-1.5l.8-1c.4-.2.8-.3 1.3-.3.7 0 1.3.2 1.7.7.4.5.6 1.1.6 2v.5H47c0 .4.2.8.4 1 .3.3.6.4 1 .4.6 0 1-.2 1.4-.7l.6.6c-.2.4-.5.6-.8.8-.4.2-.8.3-1.3.3zm-.1-4.6c-.3 0-.6.1-.8.3-.2.2-.3.6-.4 1h2.3v-.1c0-.4-.1-.7-.3-.9-.2-.2-.5-.3-.8-.3z" fill="#000" stroke-width="0"/>
    <g class="hand" fill="#fff" stroke="#000" stroke-linecap="round" stroke-linejoin="round" stroke-width="3">
      <rect width="9.5" height="20.7" rx="4.7" transform="rotate(-26 80.9 11.5)"/>
      <ellipse cx="14.8" cy="14.3" rx="8.8" ry="8.3"/>
      <path d="M10 14.7c0-2.6 2.2-4.7 4.8-4.7 2.6 0 4.8 2.1 4.8 4.7v21.2V31c0-2.6 2.1-4.7 4.7-4.7s4.8 2.1 4.8 4.7v.2c0-1.3 2.3-4.2 4.7-4.2 2.6 0 4.8 2.1 4.8 4.7v2a4.8 4.8 0 019.5.6v11.6a19 19 0 01-38.1 0V14.7z"/>
      <path d="M29.1 31.2V31c0-2.6-2.2-4.7-4.8-4.7a4.7 4.7 0 00-4.7 4.7v4.9-21.2c0-2.6-2.2-4.7-4.8-4.7a4.8 4.8 0 00-4.8 4.7v31.2a19 19 0 0038.1 0V34.3a4.8 4.8 0 00-9.5-.6v3.7-5.7c0-2.6-2.2-4.7-4.8-4.7-2.4 0-4.7 2.9-4.7 4.2zm0 0v0z"/>
    </g>
  </symbol>
  </defs>
</svg>