<svg width="264" height="286" viewBox="0 0 264 286" fill="none" xmlns="http://www.w3.org/2000/svg">
<circle cx="90" cy="196" r="90" fill="#4769B3"/>
<circle cx="131.953" cy="123.006" r="90" transform="rotate(-60 131.953 123.006)" fill="#F3342E"/>
<circle cx="174" cy="196" r="90" fill="#7AC556"/>
<path fill-rule="evenodd" clip-rule="evenodd" d="M132 275.62C160.547 260.53 180 230.537 180 196C180 161.464 160.547 131.471 132 116.381C103.453 131.471 84 161.464 84 196C84 230.537 103.453 260.53 132 275.62Z" fill="#3DD0F7"/>
<path fill-rule="evenodd" clip-rule="evenodd" d="M179.905 199.189C181.11 166.921 164.862 135.078 134.952 117.81C105.043 100.541 69.3417 102.392 42 119.569C40.7948 151.836 57.0429 183.68 86.9525 200.948C116.862 218.216 152.563 216.366 179.905 199.189Z" fill="#F67CB3"/>
<path fill-rule="evenodd" clip-rule="evenodd" d="M83.9999 199.189C111.342 216.366 147.043 218.216 176.952 200.948C206.862 183.68 223.11 151.836 221.905 119.569C194.563 102.392 158.862 100.541 128.952 117.81C99.0428 135.078 82.7947 166.921 83.9999 199.189Z" fill="#FFF100"/>
<path d="M179.906 199.168C180.262 189.578 179.076 180.025 176.448 170.882C169.6 147.271 153.341 127.661 132 116.381C103.453 131.471 84 161.464 84 196C84 197.073 84.0188 198.141 84.0559 199.204C85.0066 199.801 85.9722 200.382 86.9524 200.948C89.593 202.473 92.2791 203.848 95.0002 205.078C117.904 215.367 144.805 215.969 168.924 205.069C171.638 203.842 174.318 202.469 176.952 200.948C177.952 200.371 178.937 199.777 179.906 199.168Z" fill="white"/>
<circle cx="90" cy="196" r="90" fill="#4769B3"/>
<circle cx="131.953" cy="123.006" r="90" transform="rotate(-90 131.953 123.006)" fill="#F3342E"/>
<circle cx="174" cy="196" r="90" fill="#7AC556"/>
<path d="M132 275.62C160.547 260.53 180 230.537 180 196C180 161.464 160.547 131.471 132 116.381C103.453 131.471 84 161.464 84 196C84 230.537 103.453 260.53 132 275.62Z" fill="#3DD0F7"/>
<path d="M179.905 199.189C181.11 166.921 164.862 135.078 134.953 117.81C105.043 100.541 69.3417 102.392 42.0001 119.569C40.7949 151.836 57.043 183.68 86.9525 200.948C116.862 218.216 152.563 216.366 179.905 199.189Z" fill="#F67CB3"/>
<path d="M83.9998 199.189C111.341 216.366 147.043 218.216 176.952 200.948C206.862 183.68 223.11 151.836 221.905 119.569C194.563 102.392 158.862 100.541 128.952 117.81C99.0428 135.078 82.7947 166.921 83.9998 199.189Z" fill="#FFF100"/>
<path d="M179.906 199.168C180.262 189.578 179.076 180.025 176.448 170.882C169.6 147.271 153.341 127.661 132 116.381C103.453 131.471 84 161.464 84 196C84 197.073 84.0188 198.141 84.0559 199.204C85.0066 199.801 85.9722 200.382 86.9524 200.948C89.593 202.473 92.2791 203.848 95.0002 205.078C117.904 215.367 144.805 215.969 168.924 205.069C171.638 203.842 174.318 202.469 176.952 200.948C177.952 200.371 178.937 199.777 179.906 199.168Z" fill="white"/>
</svg>
