<?xml version="1.0" encoding="utf-8"?>
<svg viewBox="13.664 0 477.78 179.695" xmlns="http://www.w3.org/2000/svg" xmlns:xlink="http://www.w3.org/1999/xlink">
  <defs>
    <symbol id="a" viewBox="0 0 107.84 108.4">
      <g stroke="#000" transform="translate(-24.19 -17.9) scale(.96779)">
        <circle cx="80.73" cy="74.81" r="53.92" fill="none" stroke-width="3"/>
        <path stroke-width="2" d="M 125.717 44.339 L 80.28 74.054 M 80.446 74.274 L 134.172 77.391"/>
        <line style="stroke: rgb(0, 0, 0); stroke-width: 2.06656px;" x1="80.00214826066306" y1="74.11860889077575" x2="28.68" y2="89.744"/>
      </g>
    </symbol>
    <symbol id="b" viewBox="0 0 24.84 24.84">
      <circle cx="80.16" cy="21.1" r="12.42" transform="translate(-67.74 -8.68)"/>
    </symbol>
    <symbol id="c" viewBox="0 0 15.61 34.06">
      <path fill="#757575" d="M197.81 45.86c-2.62.78-5.34 1.04-7.97 1.73-.81.22-1.03 1.4-.14 1.7.8.3 1.65.44 2.5.51-6.9 7.81-10.3 19.92-6.75 29.74.23.62 1.04.23 1.01-.32-.5-10.32 1.95-19.55 8.7-27.16 0 .86.06 1.73.26 2.6.46 2.03 3.65 1.47 3.19-.56-.46-2-.24-3.96.81-5.75.62-1.05-.16-2.93-1.6-2.5z" transform="translate(-184.03 -45.8)"/>
    </symbol>
  </defs>
  <g transform="matrix(0.934881, -0.354969, 0.354969, 0.934881, -24.362492, 41.426197)">
    <use width="107.84" height="108.4" transform="matrix(1, 0, 0, 1, 49.325157, 33.550186)" xlink:href="#a"/>
    <use width="24.84" height="24.84" transform="matrix(1, 0, 0, 1, 135.25293, 46.584904)" style="fill: rgb(160, 203, 56);" xlink:href="#b"/>
    <use width="24.84" height="24.84" transform="matrix(1, 0, 0, 1, 40.114174, 89.216614)" style="fill: rgb(223, 29, 41);" xlink:href="#b"/>
    <use width="24.84" height="24.84" transform="matrix(1, 0, 0, 1, 143.536545, 78.541878)" style="fill: rgb(4, 139, 177);" xlink:href="#b"/>
  </g>
  <g transform="matrix(0.999872, 0.016084, -0.016084, 0.999872, 136.793854, -2.493222)">
    <use width="107.84" height="108.4" transform="matrix(1, 0, 0, 1, 49.325157165527344, 33.55018615722656)" xlink:href="#a"/>
    <use width="24.84" height="24.84" transform="matrix(1, 0, 0, 1, 134.81987, 46.084621)" style="fill: rgb(98, 187, 77);" xlink:href="#b"/>
    <use width="24.84" height="24.84" transform="matrix(1, 0, 0, 1, 39.839695, 91.832413)" style="fill: rgb(246, 102, 30);" xlink:href="#b"/>
    <use width="24.84" height="24.84" transform="matrix(1, 0, 0, 1, 145.005859, 79.747307)" style="fill: rgb(53, 74, 160);" xlink:href="#b"/>
  </g>
  <g transform="matrix(0.839528, 0.543321, -0.543321, 0.839528, 343.300323, -42.596195)">
    <use width="107.84" height="108.4" transform="matrix(1, 0, 0, 1, 49.325157165527344, 33.55018615722656)" xlink:href="#a"/>
    <use width="24.84" height="24.84" transform="matrix(1, 0, 0, 1, 134.525635, 43.430016)" style="fill: rgb(25, 150, 154);" xlink:href="#b"/>
    <use width="24.84" height="24.84" transform="matrix(1, 0, 0, 1, 39.207485, 90.3591)" style="fill: rgb(249, 142, 27);" xlink:href="#b"/>
    <use width="24.84" height="24.84" transform="matrix(1, 0, 0, 1, 145.191986, 78.625793)" style="fill: rgb(59, 47, 141);" xlink:href="#b"/>
  </g>
  <use width="15.61" height="34.06" transform="matrix(0.237053, 0.889039, -0.889039, 0.237053, 397.285431, 46.599781)" xlink:href="#c"/>
  <use width="15.61" height="34.06" transform="matrix(0.78592, 0.478452, -0.478452, 0.78592, 226.116821, 42.835945)" xlink:href="#c"/>
</svg>