<svg viewBox="13.7 0 477.8 179.7" xmlns="http://www.w3.org/2000/svg" xmlns:xlink="http://www.w3.org/1999/xlink">
  <defs>
    <symbol id="a" viewBox="0 0 107.8 108.4">
      <g stroke="#000" transform="translate(-24.2 -17.9) scale(.96779)">
        <circle cx="80.7" cy="74.8" r="53.9" fill="none" stroke-width="3"/>
        <path stroke-width="2" d="M80.3 20.3v53.8m.1.2l47.3 26"/>
        <line style="stroke:#000;stroke-width:2.06656px" x1="80" y1="74.1" x2="32.6" y2="100.4"/>
      </g>
    </symbol>
    <symbol id="b" viewBox="0 0 24.8 24.8">
      <circle cx="80.2" cy="21.1" r="12.4" transform="translate(-67.7 -8.7)"/>
    </symbol>
    <symbol id="c" viewBox="0 0 15.6 34.1">
      <path fill="#757575" d="M197.8 45.9c-2.6.7-5.3 1-8 1.7-.8.2-1 1.4-.1 1.7.8.3 1.7.4 2.5.5a31.1 31.1 0 00-6.7 29.7c.2.7 1 .3 1-.3-.5-10.3 2-19.5 8.7-27.1 0 .8 0 1.7.2 2.6.5 2 3.7 1.4 3.2-.6s-.2-4 .8-5.8c.6-1-.1-2.9-1.6-2.4z" transform="translate(-184 -45.8)"/>
    </symbol>
  </defs>
  <use width="107.8" height="108.4" transform="translate(49.3 33.6)" xlink:href="#a"/>
  <use width="24.8" height="24.8" fill="#e7dc11" transform="translate(89.9 23)" xlink:href="#b"/>
  <use width="24.8" height="24.8" transform="translate(42.7 101.2)" style="fill:#df1d29" xlink:href="#b"/>
  <use width="24.8" height="24.8" transform="translate(136 101.2)" style="fill:#0057b2" xlink:href="#b"/>
  <g transform="rotate(30 170.7 340.1)">
    <use width="107.8" height="108.4" transform="translate(49.3 33.6)" xlink:href="#a"/>
    <use width="24.8" height="24.8" transform="translate(89.9 23)" style="fill:#a5ce31" xlink:href="#b"/>
    <use width="24.8" height="24.8" transform="translate(42.7 101.2)" style="fill:#f6661e" xlink:href="#b"/>
    <use width="24.8" height="24.8" transform="translate(136 101.2)" style="fill:#3d308d" xlink:href="#b"/>
  </g>
  <g transform="rotate(-60 243.1 -156.1)">
    <use width="107.8" height="108.4" transform="translate(49.3 33.6)" xlink:href="#a"/>
    <use width="24.8" height="24.8" transform="translate(89.9 23)" style="fill:#42b54d" xlink:href="#b"/>
    <use width="24.8" height="24.8" transform="translate(42.7 101.2)" style="fill:#f98e1b" xlink:href="#b"/>
    <use width="24.8" height="24.8" transform="translate(136 101.2)" style="fill:#652e8b" xlink:href="#b"/>
  </g>
  <use width="15.6" height="34.1" transform="rotate(66.2 163.4 325.8) scale(.9201)" xlink:href="#c"/>
  <use width="15.6" height="34.1" transform="rotate(35.6 44.1 371.5) scale(.9201)" xlink:href="#c"/>
</svg>