<svg xmlns="http://www.w3.org/2000/svg" viewBox="0 0 200 200">
  <title>
    box-note
  </title>
  <g id="Canvas" transform="translate(-506 468)">
    <g id="g-1" transform="translate(239.9)">
      <title>
        circle
      </title>
      <circle cx="366.1" cy="-367.8" r="96.5" style="stroke:#000;stroke-width:6px;fill:#27ae60"/>
    </g>
    <g id="pushpin">
      <title>
        pin
      </title>
      <path id="Union" fill="#FFF" d="M57.7 2a6.7 6.7 0 10-9.5 9.5l1.6 1.5-26.4 26.4-1.5-1.6a6.7 6.7 0 10-9.5 9.5l8.9 8.9L0 85l29.4-20.6 8.3 8.2a6.7 6.7 0 109.5-9.5L46 62l26.3-26.3 1.2 1.2a6.7 6.7 0 109.5-9.5l-1.2-1.2L59.3 3.5 57.7 2z" transform="translate(569 -417.4)"/>
      <path id="Vector" d="M101.3 33.3L69.7 1.7a6 6 0 00-8.4 0l-1.7 1.8c-1.8 1.7-3 4.7-3 7.2v6c0 .8-.6 2.3-1.2 3L38.7 36.1c-.6.6-2.1 1.3-3 1.3h-6c-2.4 0-5.4 1.2-7.1 3l-1.7 1.7a6 6 0 000 8.4L30 60 .6 98.2a3 3 0 004.2 4.2l38.3-29.5 9.3 9.2a6 6 0 008.4 0l1.7-1.7c1.8-1.7 3-4.7 3-7.2v-6c0-.8.7-2.3 1.3-3l16.6-16.6c.6-.6 2.1-1.2 3-1.2h6c2.4 0 5.4-1.2 7.1-3l1.8-1.7a6 6 0 000-8.4zm-82 50.4l15-19.6 4.6 4.6-19.6 15zm76-44.5c-.6.6-2.1 1.3-3 1.3h-6c-2.4 0-5.4 1.2-7.1 3L62.5 60c-1.7 1.7-3 4.7-3 7.2v6c0 .8-.6 2.3-1.2 2.9l-1.7 1.7L25 46.4l1.7-1.7c.6-.6 2.1-1.3 3-1.3h6c2.4 0 5.4-1.2 7.1-3l16.7-16.6c1.7-1.7 3-4.7 3-7.2v-6c0-.8.6-2.3 1.2-2.9L65.5 6 97 37.5l-1.7 1.7z" transform="translate(556 -422)"/>
    </g>
  </g>
</svg>
