<svg xmlns="http://www.w3.org/2000/svg" viewBox="0 0 200 200">
  <defs/>
  <title>
    box-tip
  </title>
  <g id="Canvas" transform="translate(-266 234)">
    <g id="g-1" transform="translate(.1 233.5)">
      <title>
        circle
      </title>
      <circle cx="366.1" cy="-367.8" r="96.5" style="stroke:#000;stroke-width:6px;fill:#9b51e0"/>
    </g>
    <g id="basic_lightbulb">
      <title>
        bulb
      </title>
      <path id="Union" fill="#FFFEFE" fill-rule="evenodd" d="M54.6 67.2A36.3 36.3 0 0035.9 0a36.3 36.3 0 00-18.7 67.2v9.6h37.4v-9.6z" transform="translate(330.1 -187.9)"/>
      <path id="Vector" d="M18.1 70.5h2.5V69l-1.2-.8-1.3 2.2zm0 9h-2.5V82h2.5v-2.5zm39.8 0V82h2.5v-2.5h-2.5zm0-9.2L56.6 68l-1.2.8v1.4H58zm-42.3.2v9h5v-9h-5zM18.1 82h39.8v-5H18.1v5zm42.3-2.5v-9.2h-5v9.2h5zm-1.2-7.1a40.4 40.4 0 0019.3-34.5h-5c0 12.8-6.8 24-16.9 30.2l2.6 4.3zm19.3-34.5A40.5 40.5 0 0038-2.5v5a35.5 35.5 0 0135.5 35.4h5zM38-2.5A40.5 40.5 0 00-2.5 37.9h5A35.5 35.5 0 0138 2.5v-5zM-2.5 37.9c0 14.6 7.7 27.6 19.3 34.7l2.6-4.3A35.7 35.7 0 012.5 38h-5z" transform="translate(328 -190)"/>
      <path id="Vector" d="M7.9 35.8L2.5-.4l-5 .8L3 36.5l4.9-.7z" transform="translate(353.3 -146.6)"/>
      <path id="Vector" d="M2.5 36.5L7.9.4l-5-.8-5.4 36.2 5 .7z" transform="translate(373.2 -146.6)"/>
      <path id="Vector" d="M7.2 5.4l-1.5 2 1.8 1.3L9 7.2 7.2 5.4zM12.7 0l1.7-1.8-1.7-1.7-1.8 1.7L12.7 0zM18 5.4l-1.8 1.8L18 8.7l1.7-1.3-1.5-2zM-1.5 2l7.2 5.4 3-4L1.5-2l-3 4zM9 7.2l5.4-5.4L11-1.8 5.5 3.7 9 7.2zm1.9-5.4l5.4 5.4L20 3.7l-5.5-5.5L11 1.8zm8.7 5.6L26.8 2l-3-4-7.2 5.4 3 4z" transform="translate(353.3 -144.8)"/>
      <path id="Vector" d="M0 0v-2.5h-2.5V0H0zm39.8 0h2.5v-2.5h-2.5V0zm0 10.8v2.5h2.5v-2.5h-2.5zM0 10.8h-2.5v2.5H0v-2.5zm0-8.3h39.8v-5H0v5zM37.3 0v10.8h5V0h-5zm2.5 8.3H0v5h39.8v-5zM2.5 10.8V0h-5v10.8h5z" transform="translate(346.1 -110.5)"/>
      <path id="Vector" d="M0 0v-2.5h-2.5V0H0zm32.6 0H35v-2.5h-2.5V0zm0 10.8v2.5H35v-2.5h-2.5zM0 10.8h-2.5v2.5H0v-2.5zm0-8.3h32.6v-5H0v5zM30 0v10.8h5V0h-5zm2.6 8.3H0v5h32.6v-5zM2.5 10.8V0h-5v10.8h5z" transform="translate(349.7 -99.7)"/>
      <path id="Vector" d="M0 0v-2.5h-2.5V0H0zm25.3 0h2.5v-2.5h-2.5V0zm0 10.8v2.5h2.5v-2.5h-2.5zM0 10.8h-2.5v2.5H0v-2.5zm0-8.3h25.3v-5H0v5zM22.8 0v10.8h5V0h-5zm2.5 8.3H0v5h25.3v-5zM2.5 10.8V0h-5v10.8h5z" transform="translate(353.3 -88.8)"/>
    </g>
  </g>
</svg>
