<svg fill="" width="200" height="200" viewBox="0 0 200 200" version="1.1" xmlns="http://www.w3.org/2000/svg" xmlns:xlink="http://www.w3.org/1999/xlink">
<title>box-attention</title>

<defs>
	<clipPath id="clip-0" clip-rule="evenodd">
		<path d="M 266 -468L 466 -468L 466 -268L 266 -268L 266 -468Z" fill="#FFFFFF"/>
	</clipPath>
	<mask id="mask0_outline_ins">
		<use xlink:href="#path0_fill" fill="white" transform="translate(266 -468)"/>
	</mask>
	<path id="path0_fill" d="M 200 100C 200 155.228 155.228 200 100 200C 44.7715 200 0 155.228 0 100C 0 44.7715 44.7715 0 100 0C 155.228 0 200 44.7715 200 100Z"/>
	<path id="path1_stroke" d="M 193 100C 193 151.362 151.362 193 100 193L 100 207C 159.094 207 207 159.094 207 100L 193 100ZM 100 193C 48.6375 193 7 151.362 7 100L -7 100C -7 159.094 40.9055 207 100 207L 100 193ZM 7 100C 7 48.6375 48.6375 7 100 7L 100 -7C 40.9055 -7 -7 40.9055 -7 100L 7 100ZM 100 7C 151.362 7 193 48.6375 193 100L 207 100C 207 40.9055 159.094 -7 100 -7L 100 7Z"/>
	<path id="path2_fill" d="M 10.4509 71C 16.5261 71 21.4509 55.1061 21.4509 35.5C 21.4509 15.8939 16.5261 0 10.4509 0C 5.6893 0 1.63428 9.76407 0.103424 23.4267C 4.3389 24.8214 7.45093 29.4746 7.45093 35C 7.45093 40.5703 4.28815 45.2541 0 46.6066C 1.44464 60.773 5.57773 71 10.4509 71Z"/>
	<path id="path3_fill" d="M 54.575 9.3821C 43.775 12.1821 19.075 14.5488 8.07497 15.3821C 5.07497 17.5488 -0.725032 24.4821 0.0749683 34.8821C 0.874968 45.2821 5.74164 49.5488 8.07497 50.3821L 17.075 50.3821L 27.075 92.8821L 34.575 97.8821L 44.075 97.8821L 47.575 92.8821L 30.575 50.3821C 34.2416 51.2154 44.175 53.3821 54.575 55.3821C 67.575 57.8821 90.25 68.2032 92 67.2032C 96.5 64.6318 87.5 52.2033 87.5 33.2033C 87.5 14.2033 97.0898 2.39986 90.5 0.203258C 86 -1.29675 68.075 5.8821 54.575 9.3821Z"/>
	<path id="path4_fill" d="M 115.365 12.4767C 111.926 2.16366 107.356 0 104.126 0C 104.06 0 103.989 2.77534e-07 103.918 0.00594439C 100.627 0.0772738 94.7788 1.78323 86.0208 4.35109C 67.6719 9.71863 39.9463 17.8383 11.8994 17.8383C 5.11674 17.8383 0 26.7842 0 38.6427C 0 50.5012 5.11674 59.4471 11.8994 59.4471C 14.0948 59.4471 16.2903 59.4946 18.4738 59.5897L 28.386 98.9873C 29.5165 103.481 34.0323 107 38.6731 107L 46.485 107C 49.0612 107 51.2507 105.93 52.4823 104.058C 53.7139 102.185 53.8448 99.7601 52.8393 97.3943L 37.5069 61.4443C 56.1652 64.1905 73.336 69.2192 86.0208 72.9283C 94.7788 75.4903 100.627 77.2022 103.918 77.2735C 103.989 77.2735 104.054 77.2794 104.126 77.2794C 107.35 77.2794 111.92 75.1158 115.365 64.8027C 117.709 57.7708 119 48.4802 119 38.6427C 119 28.8052 117.709 19.5145 115.365 12.4826L 115.365 12.4767ZM 95.2012 38.6367C 95.2012 35.5874 95.3321 32.6035 95.582 29.7444C 98.6342 30.0534 101.151 34.0003 101.151 38.6367C 101.151 43.2732 98.6401 47.226 95.582 47.5291C 95.3321 44.67 95.2012 41.6861 95.2012 38.6367ZM 5.95565 38.6367C 5.95565 29.566 9.47788 23.7765 11.9054 23.7765C 18.6583 23.7765 25.3755 23.3247 31.944 22.5639C 30.5339 27.0695 29.7545 32.651 29.7545 38.6367C 29.7545 44.6225 30.5279 50.204 31.944 54.7096C 25.3755 53.9488 18.6583 53.497 11.9054 53.497C 9.47788 53.497 5.95565 47.7075 5.95565 38.6367ZM 47.3715 99.7185C 47.6155 100.289 47.5976 100.67 47.5262 100.777C 47.4548 100.884 47.1157 101.05 46.491 101.05L 38.679 101.05C 36.7811 101.05 34.6273 99.3737 34.1632 97.531L 24.7151 59.9702C 26.7082 60.1307 28.6954 60.3209 30.6648 60.5467L 47.3715 99.7185ZM 38.6136 55.5953C 36.8049 51.5117 35.7042 45.205 35.7042 38.6367C 35.7042 31.9674 36.7751 25.7796 38.6076 21.6841C 57.5574 18.8726 74.877 13.8082 87.6927 10.0515C 90.1618 9.32632 92.5179 8.6368 94.6598 8.03644C 94.047 9.31443 93.452 10.7886 92.8868 12.4767C 90.5426 19.5086 89.2515 28.7992 89.2515 38.6367C 89.2515 48.4743 90.5426 57.7649 92.8868 64.7968C 93.452 66.4849 94.047 67.9591 94.6598 69.237C 92.5179 68.6367 90.1618 67.9472 87.6927 67.222C 74.8711 63.4713 57.5574 58.4009 38.6076 55.5894L 38.6136 55.5953ZM 109.718 62.9184C 107.499 69.5759 105.09 71.3294 104.126 71.3294C 103.162 71.3294 100.752 69.5699 98.533 62.9184C 97.5989 60.1247 96.8493 56.9208 96.3019 53.4316C 99.1934 53.0988 101.912 51.4641 103.894 48.825C 105.964 46.0669 107.101 42.4469 107.101 38.6367C 107.101 34.8266 105.958 31.2007 103.894 28.4485C 101.912 25.8093 99.1934 24.1747 96.3019 23.8418C 96.8552 20.3586 97.6049 17.1488 98.533 14.355C 100.752 7.69763 103.162 5.93817 104.126 5.93817C 105.09 5.93817 107.499 7.69763 109.718 14.3491C 111.866 20.7925 113.05 29.4115 113.05 38.6308C 113.05 47.8501 111.866 56.4691 109.718 62.9125L 109.718 62.9184Z"/>
</defs>
<desc>Attention</desc>
<g id="Canvas" transform="translate(-266 468)">

<g id="box-attention" clip-path="url(#clip-0)">

<g id="Ellipse">
	<use xlink:href="#path0_fill" transform="translate(266 -468)" fill="#2F80ED"/>
<g mask="url(#mask0_outline_ins)">
<use xlink:href="#path1_stroke" transform="translate(266 -468)"/>
</g>
</g>
<g id="Subtract">
<use xlink:href="#path2_fill" transform="translate(400.549 -418)" fill="#FFFFFF" fill-opacity="0.5"/>
</g>
<g id="Subtract">
<use xlink:href="#path3_fill" transform="translate(310 -415.703)" fill="#FFFFFF"/>
</g>
<g id="Vector">
<use xlink:href="#path4_fill" transform="translate(306 -421)"/>
</g>
</g>
</g>



</svg>
