<svg xmlns="http://www.w3.org/2000/svg" viewBox="0 0 200 200">
  <defs/>
  <title>
    box-attention
  </title>
  <g id="Canvas" transform="translate(-266 468)">
    <title>
      hailer
    </title>
    <g>
      <circle id="Ellipse" cx="366.1" cy="-367.8" r="96.5" style="fill:#2f80ed;stroke:#000;stroke-width:6px"/>
    </g>
    <g id="Subtract" fill="#FFF">
      <path fill-opacity=".5" d="M10.5 71c6 0 11-15.9 11-35.5S16.5 0 10.5 0C5.7 0 1.6 9.8 0 23.4c4.2 1.4 7.4 6 7.4 11.6S4.3 45.3 0 46.6C1.4 60.8 5.6 71 10.5 71z" transform="translate(400.5 -418)"/>
      <path d="M54.6 9.4a371.2 371.2 0 01-46.5 6c-3 2.1-8.8 9-8 19.5.8 10.4 5.6 14.6 8 15.5h9l10 42.5 7.5 5H44l3.5-5-17-42.5c3.6.8 13.6 3 24 5 13 2.5 35.6 12.8 37.4 11.8 4.5-2.6-4.5-15-4.5-34s9.6-30.8 3-33c-4.5-1.5-22.4 5.7-36 9.2z" transform="translate(310 -415.7)"/>
    </g>
    <path d="M115.4 12.5C111.9 2.2 107.4 0 104 0h-.2A94 94 0 0086 4.4C67.7 9.7 40 17.8 12 17.8 5.1 17.8 0 26.8 0 38.6c0 11.9 5.1 20.8 11.9 20.8 2.2 0 4.4 0 6.6.2L28.4 99a11 11 0 0010.3 8h7.8a7 7 0 006-3 7 7 0 00.3-6.6l-15.3-36C56.2 64.2 73.3 69.2 86 73c8.8 2.6 14.6 4.3 18 4.4h.1c3.3 0 7.8-2.2 11.3-12.5a86 86 0 003.6-26.2 86 86 0 00-3.6-26.1zM95.2 38.6c0-3 .1-6 .4-8.9 3 .4 5.6 4.3 5.6 9 0 4.6-2.6 8.5-5.6 8.8-.3-2.8-.4-5.8-.4-8.9zM6 38.6c0-9 3.5-14.8 6-14.8 6.7 0 13.4-.5 20-1.2a55 55 0 00-2.2 16c0 6 .7 11.6 2.1 16.1-6.5-.8-13.2-1.2-20-1.2-2.4 0-6-5.8-6-14.9zm41.4 61.1c.2.6.2 1 .1 1 0 .2-.4.3-1 .3h-7.8c-2 0-4-1.6-4.5-3.5L24.7 60l6 .5 16.7 39.2zm-8.8-44.1c-1.8-4-2.9-10.4-2.9-17a44 44 0 013-17A361.2 361.2 0 0094.6 8c-.7 1.3-1.2 2.8-1.8 4.5a86 86 0 00-3.6 26.1 86 86 0 003.6 26.2c.6 1.7 1.1 3.2 1.8 4.4l-7-2c-12.8-3.7-30.1-8.8-49-11.6zm71.1 7.3c-2.2 6.7-4.6 8.4-5.6 8.4s-3.3-1.7-5.6-8.4a59 59 0 01-2.2-9.5c2.9-.3 5.6-2 7.6-4.6a17 17 0 003.2-10.2 17 17 0 00-3.2-10.2c-2-2.6-4.7-4.2-7.6-4.6.6-3.4 1.3-6.7 2.2-9.4 2.3-6.7 4.7-8.5 5.6-8.5 1 0 3.4 1.8 5.6 8.4a80 80 0 013.3 24.3 80 80 0 01-3.3 24.3z" transform="translate(306 -421)"/>
  </g>
</svg>
