<svg xmlns="http://www.w3.org/2000/svg" viewBox="0 0 200 200">
  <defs/>
  <title>
    box-warning
  </title>
  <g id="Canvas" transform="translate(-506 234)">
    <g id="g-1" transform="translate(240 234)">
      <title>
        circle
      </title>
      <circle cx="366.1" cy="-367.8" r="96.5" style="stroke:#000;stroke-width:6px;fill:#e03030"/>
    </g>
    <g id="hand">
      <title>
        hand
      </title>
      <path id="Union" fill="#FFF" d="M69.5 5c-2.6 0-5 1-6.7 2.7a9.5 9.5 0 00-18.8 1 9.5 9.5 0 00-17 5.8v46l-9-17.3a9.5 9.5 0 00-17 8.7l19.6 37.5a9.5 9.5 0 006 4.9A26 26 0 0047 104h16a26 26 0 0025.7-29.6 9.5 9.5 0 006.3-8.9v-34a9.5 9.5 0 00-16-7v-10C79 9.3 74.7 5 69.5 5z" transform="translate(554 -185)"/>
      <path id="Vector" d="M88 22c-2 0-3.9.5-5.5 1.5v-7a11 11 0 00-17.1-9.1 11 11 0 00-20.8 0 11 11 0 00-17.1 9.1v40.6L20 44.2a10.7 10.7 0 00-6.6-5.2c-2.8-.8-5.6-.4-8 1-5 3-7 9.8-4.3 15.2l14.6 29.4a58.1 58.1 0 0016.9 22c4.7 3.2 8 3.4 8.5 3.4h27.5c4.7 0 9-1.5 13-4.5 3.7-2.8 6.8-7 9.4-12.1A94 94 0 0099 52.2V33c0-6-5-11-11-11zm5.5 30.3c0 15.7-2.5 29-7.3 38.6-3 6.2-8.6 13.6-17.5 13.6H41.3a13 13 0 01-6-2.9 53.6 53.6 0 01-14.5-19.5L6 52.8a6.2 6.2 0 012.2-8c1.1-.7 2.5-.8 3.7-.5 1.4.4 2.6 1.3 3.3 2.6l8.6 15c1.7 3.1 3.7 4.5 5.9 4 2.1-.6 3.2-2.8 3.2-6.4v-43a5.5 5.5 0 0111 0v35.8a2.8 2.8 0 005.5 0V11a5.5 5.5 0 0111 0v41.3a2.8 2.8 0 005.5 0V16.5a5.5 5.5 0 0111 0v41.3a2.8 2.8 0 005.5 0V33a5.5 5.5 0 0111 0v19.3z" transform="translate(552 -188)"/>
    </g>
  </g>
</svg>
