<?xml version="1.0" encoding="utf-8"?>
<svg viewBox="0 0 100 100" xmlns="http://www.w3.org/2000/svg">
  <defs>
    <style>
    .radar circle,.button, .hand, .base{
      stroke-width: 2.3;
      stroke:#000;
      /*vector-effect: non-scaling-stroke;*/
      fill: none;
    }
    .bg{
      fill: #d1f6ff;
    }
    .button{
      fill: #5eddf9;
    }
    .hand{
      fill:#fff;
      stroke-linecap:round; 
      stroke-linejoin:round;
    }
  </style>
  </defs>
  <circle class="base bg" cx="50" cy="50" r="49"/>
  <g class="radar">
    <circle cx="36.9" cy="30.3" r="16.4" stroke="#000" stroke-opacity=".3"/>
    <circle cx="36.9" cy="30.3" r="21.2" stroke="#000" stroke-opacity=".1"/>
  </g>
  <path class="bg" d="M 35.8 31 L 11.5 58.4 L 73.2 56 L 37.847 31.075 L 62.5 16.2 L 48.4 3.7 L 36.8 29.3 L 25.014 9.07 L 11.822 25.248 L 35.8 31 Z"/>
  <circle class="button" cx="36.8" cy="30.3" r="10.8" fill="#326cff"/>
  <g transform="matrix(1, 0, 0, 1, -133.800003, 0)">
    <rect class="hand" width="11.9" height="29.6" x="30.7" y="49.8" fill="#fff" rx="5.9" ry="5.9" transform="rotate(-25.5 104.4 -223.5)"/>
    <path class="hand" d="M170.8 24.5h0a6 6 0 015.9 6l.2 24.7c0-9 2.9-11.3 6-11.3h0c3.4 0 5.7 2.8 5.7 6l-.1 3.4c0-5.3 2.8-7.6 6-7.6h0a6 6 0 016 6v2.4a6 6 0 015.7-4.7h0a6 6 0 016 6V73c0 10.1-11.5 19.5-24 19.5-13 0-23.4-10.3-23.4-20.5V30.5a6 6 0 016-6z"/>
  </g>
</svg>