<?xml version="1.0" encoding="utf-8"?>
<svg viewBox="0 0 100 100" xmlns="http://www.w3.org/2000/svg">
  <defs>
    <style>
    .radar circle,.button, .hand, .base{
      stroke-width: 2.3;
      stroke:#000;
      /*vector-effect: non-scaling-stroke;*/
      fill: none;
    }
    .bg{
      fill: #d1f6ff;
    }
    .button{
      fill: #5eddf9;
    }
    .hand{
      fill:#fff;
      stroke-linecap:round; 
      stroke-linejoin:round;
    }
  </style>
  </defs>
  <circle class="base bg" cx="50" cy="50" r="49"/>
  <g class="radar">
    <circle cx="36.9" cy="30.3" r="16.4" stroke="#000" stroke-opacity=".3"/>
    <circle cx="36.9" cy="30.3" r="21.2" stroke="#000" stroke-opacity=".1"/>
  </g>
  <path class="bg" d="M 35.8 31 L 11.5 58.4 L 73.2 56 L 37.847 31.075 L 62.5 16.2 L 48.4 3.7 L 36.8 29.3 L 25.014 9.07 L 11.822 25.248 L 35.8 31 Z"/>
  <circle class="button" cx="36.8" cy="30.3" r="10.8" fill="#326cff"/>
  <g transform="translate(-133.8 0)">
    <rect class="hand" width="11.9" height="29.6" x="30.7" y="49.8" fill="#fff" rx="5.9" ry="5.9" transform="matrix(0.902585, -0.430511, 0.430511, 0.902585, 107.719055, 18.145189)"/>
    <path class="hand" d="M 170.955 24.5 L 170.955 24.5 C 173.769 24.547 176.024 26.841 176.024 29.655 L 176.196 50.877 C 176.196 43.144 178.687 41.168 181.351 41.168 L 181.351 41.168 C 184.272 41.168 186.249 43.574 186.249 46.322 L 186.163 49.244 C 186.163 44.69 188.568 42.715 191.317 42.715 L 191.317 42.715 C 194.165 42.715 196.472 45.022 196.472 47.87 L 196.472 49.931 C 196.985 47.621 199.003 45.955 201.37 45.893 L 201.37 45.893 C 204.216 45.893 206.525 48.202 206.525 51.049 L 206.525 66.169 C 206.525 74.847 196.645 82.924 185.904 82.924 C 174.735 82.924 165.8 74.074 165.8 65.31 L 165.8 29.655 C 165.8 26.808 168.108 24.5 170.955 24.5 Z" style=""/>
  </g>
</svg>