<svg viewBox="0 0 1946 954" fill="none" xmlns="http://www.w3.org/2000/svg">
  <defs/>
  <g clip-path="url(#clip0)">
    <rect width="1946" height="954" fill="#F5F5F5"/>
    <path d="M557.53 175.57h-25.56v122.55h25.56V175.57z" fill="#F36C21"/>
    <path d="M587.5 150H502v25.57h29.97V150h25.56v25.57h29.97V150z" fill="#46B978"/>
    <path d="M557.53 150h-25.56v25.57h25.56V150z" fill="#1F572B"/>
    <path d="M641.27 205.1c-5.29 0-10.58.89-15.87 3.09v38.35a15.8 15.8 0 0115.87-15.87 15.8 15.8 0 0115.87 15.87v52.02h25.56v-52.02a41.39 41.39 0 00-41.43-41.44z" fill="#C64A9B"/>
    <path d="M625.85 150.44h-25.57v96.1c0-16.75 10.14-31.74 25.57-38.35v-57.75z" fill="#00B3E2"/>
    <path d="M625.85 208.19c-15.43 6.17-25.57 21.6-25.57 38.35v52.02h25.57v-90.37z" fill="#273A92"/>
    <path d="M743.96 205.1a46.75 46.75 0 00-46.72 46.73c0 26 21.16 46.73 48.04 46.73 13.67 0 25.12-4.41 37.02-14.99l-16.74-19.4c-7.5 6.62-13.67 8.38-21.16 8.38-3.97 0-7.5-.88-10.58-2.65l-.88.45-26 10.57a45.9 45.9 0 01-9.26-21.16l26.45-11.01a20.8 20.8 0 0111.9-16.32c2.2-.88 4.85-1.32 7.05-1.32 4.4 0 8.81 1.32 12.34 4.41l.44.44 25.56-10.58a71.44 71.44 0 014.41 7.94c-6.61-17.64-23.36-28.22-41.87-28.22zM792 245.66l-26 10.58 26-10.58z" fill="#F36C21"/>
    <path d="M786.71 233.31l5.29 11.9-5.29-11.9zm-30.4 2.21l-15.88 6.61-14.98 6.17-.88.44c-1.32 11.02 4.4 16.76 8.81 20.28.44 0 .44.44.88.44l28.65-11.9 3.53-1.32c-.44 0-3.53-14.55-10.14-20.72z" fill="#C64A9B"/>
    <path d="M781.86 224.94l-25.56 10.58c6.61 6.17 9.7 20.72 9.7 20.72l26-10.58-5.29-11.9a27.29 27.29 0 00-4.85-8.82zm-57.3 23.8l-26.44 11.02a47.98 47.98 0 009.26 21.16l26-10.57.88-.45c-.44 0-.44-.44-.88-.44-4.85-3.96-10.13-10.14-8.81-20.72z" fill="#D82126"/>
    <path d="M861.2 150v25.57h11.01v122.55h25.56v-61.28h-25.56v-25.57h25.56v-35.7H861.2V150z" fill="#C64A9B"/>
    <path d="M915.85 150h-41.87a23.7 23.7 0 0123.8 23.8v1.77h17.62c9.7 0 17.63 7.93 17.63 17.63s-7.49 17.63-17.18 18.07c11.45 0 22.03 4.85 29.96 12.79 12.35-12.34 15.87-30.86 9.26-47.17-6.61-16.31-22.04-26.89-39.23-26.89zm0 86.84h-17.63 18.07-.44z" fill="#FFC843"/>
    <path d="M873.98 150h-12.79v25.57h36.58v-1.77a23.7 23.7 0 00-23.8-23.8zm-1.77 61.27v25.57h25.56-25.56v-25.57z" fill="#DA2E2E"/>
    <path d="M915.85 211.27h-17.63 18.06-.43zm30.4 12.79c-7.93 7.93-18.95 12.78-29.97 12.78 9.7.44 17.2 8.38 17.2 17.63v43.65h25.56v-43.65c0-11.46-4.41-22.48-12.78-30.41z" fill="#00B3E2"/>
    <path d="M916.28 211.27h-18.06v25.57h18.06c11.46 0 22.04-4.85 29.98-12.78-7.94-7.94-18.52-12.79-29.98-12.79z" fill="#028C45"/>
    <path d="M897.77 211.27h-25.56v25.57h25.56v-25.57z" fill="#072029"/>
    <path d="M1020.3 205.1a46.75 46.75 0 00-46.72 46.73c0 26 21.16 46.73 48.04 46.73 13.66 0 25.12-4.41 37.02-14.99l-16.75-19.4c-7.49 6.62-13.66 8.38-21.15 8.38-3.97 0-7.49-.88-10.58-2.65l-.88.45-26 10.57a45.9 45.9 0 01-9.26-21.16l26.45-11.01a20.8 20.8 0 0111.89-16.32 20 20 0 017.06-1.32c4.4 0 8.81 1.32 12.34 4.41l.44.44 25.56-10.58a71.48 71.48 0 014.41 7.94c-6.61-17.64-23.36-28.22-41.87-28.22zm48.04 40.56l-26.01 10.58 26.01-10.58z" fill="#F36C21"/>
    <path d="M1063.49 233.31l5.29 11.9-5.29-11.9zm-30.85 2.21l-15.87 6.61-14.98 6.17-.88.44c-1.33 11.02 4.4 16.76 8.81 20.28.44 0 .44.44.88.44l28.65-11.9 3.52-1.32s-3.08-14.55-10.13-20.72z" fill="#C64A9B"/>
    <path d="M1058.64 224.94l-25.56 10.58c6.61 6.17 9.69 20.72 9.69 20.72l26.01-10.58-4.85-11.9c-2.2-3.97-3.53-6.62-5.29-8.82zm-57.73 23.8l-26.45 11.02a47.98 47.98 0 009.26 21.16l26-10.57.88-.45c-.44 0-.44-.44-.88-.44-4.41-3.96-10.14-10.14-8.81-20.72z" fill="#D82126"/>
    <path d="M1144.14 205.1H1108a29.54 29.54 0 000 59.07h15.43c2.2 0 3.97 1.77 3.97 3.97s-1.77 3.97-3.97 3.97h-36.14v25.57h36.58c16.31-.44 29.53-13.67 29.09-29.98-.44-16.31-13.22-29.53-29.53-29.53H1108a3.95 3.95 0 01-3.96-3.97c0-2.2 1.76-3.97 3.96-3.97h36.14V205.1z" fill="#EF473E"/>
    <path d="M1248.16 257.12a40.77 40.77 0 01-25.57 37.91v3.09h25.57v-41z" fill="#46B978"/>
    <path d="M1192.18 205.1h-25.56v52.46c0 13.67 6.61 26.45 18.07 33.94 11.46 7.5 25.56 9.26 38.34 3.97v-37.9c0 8.37-7.05 15.42-15.42 15.42a15.62 15.62 0 01-15.43-15.43V205.1z" fill="#C64A9B"/>
    <path d="M1248.16 205.1h-25.57v90.37a40.76 40.76 0 0025.57-37.91V205.1z" fill="#163056"/>
    <path d="M1290.91 150.44h-25.57v148.12h25.57V150.44z" fill="#00B3E2"/>
    <path d="M1336.74 150.44h-25.56v54.66h25.56v-54.66zm0 80.23h-25.56V273a25.11 25.11 0 0025.12 25.13h12.78v-25.57h-12.34v-41.88" fill="#F36C21"/>
    <path d="M1348.64 205.1h-12.34v25.57h12.34V205.1zm-37.46 0h-7.49v25.57h7.49V205.1z" fill="#46B978"/>
    <path d="M1336.74 205.1h-25.56v25.57h25.56V205.1z" fill="#1F572B"/>
    <path d="M1426.21 205.1h-36.14a29.53 29.53 0 000 59.07h15.43c2.2 0 3.96 1.77 3.96 3.97s-1.76 3.97-3.96 3.97h-36.14v25.57h36.58c16.3-.44 29.53-13.67 29.08-29.98-.44-16.31-13.22-29.53-29.52-29.53h-15.43a3.96 3.96 0 01-3.97-3.97c0-2.2 1.77-3.97 3.97-3.97h36.14V205.1z" fill="#EF473E"/>
    <path d="M798.49 400.57h-26v122.55h26V400.57z" fill="#F36C21"/>
    <path d="M828.46 375H742.5v25.57h29.97V375h26v25.57h29.98V375z" fill="#46B978"/>
    <path d="M798.49 375h-26v25.57h26V375z" fill="#1F572B"/>
    <path d="M884.43 430.1v52.46c0 8.38-7.05 15.43-15.43 15.43a15.62 15.62 0 01-15.42-15.43V430.1h-25.56v52.46c0 13.67 6.6 26.45 18.07 33.94 11.45 7.5 25.56 9.26 38.34 3.97V430.1z" fill="#EF473E"/>
    <path d="M910 430.1v52.46a40.76 40.76 0 01-25.57 37.91v23.8c0 8.38-7.05 15.44-15.43 15.44a15.62 15.62 0 01-15.42-15.43h-25.56c0 22.48 18.5 41 40.98 41 22.48 0 41-18.52 41-41V430.1z" fill="#00B3E2"/>
    <path d="M910 430.1h-25.57v90.37a40.76 40.76 0 0025.56-37.9V430.1z" fill="#022F32"/>
    <path d="M973.46 430.1a49.6 49.6 0 00-21.16 4.85v41.44a21.16 21.16 0 0142.31 0c0 11.9-9.25 21.16-21.15 21.16a21.16 21.16 0 01-21.16-21.16v41.44c17.19 8.81 37.9 5.73 52.01-7.06 14.1-12.78 18.95-33.5 12.34-51.13-6.61-17.63-23.8-29.54-43.2-29.54z" fill="#46B978"/>
    <path d="M952.74 430.1h-25.56v46.73c0-17.63 9.7-33.5 25.56-41.44v-5.29zm-25.56 46.73v101.39h25.56v-59.95a46.47 46.47 0 01-25.56-41.44z" fill="#FFC843"/>
    <path d="M952.74 434.95a45.98 45.98 0 00-25.56 41.44c0 17.63 9.7 33.5 25.56 41.44v-82.88z" fill="#15A24A"/>
    <path d="M1079.23 430.1a46.75 46.75 0 00-46.72 46.73c0 26 21.16 46.73 48.04 46.73 13.67 0 25.13-4.41 37.02-14.99l-16.74-19.4c-7.5 6.62-13.67 8.38-21.16 8.38-3.96 0-7.49-.88-10.58-2.65l-.88.45-26 10.57a45.97 45.97 0 01-9.26-21.16l26.45-11.01a20.8 20.8 0 0111.9-16.32c2.2-.88 4.85-1.32 7.05-1.32 4.41 0 8.81 1.32 12.34 4.41l.44.44 25.56-10.58a69.9 69.9 0 014.41 7.94c-6.61-17.64-23.36-28.22-41.87-28.22zm48.04 40.56l-26 10.58 26-10.58z" fill="#F36C21"/>
    <path d="M1121.98 458.31l5.29 11.9-5.29-11.9zm-30.41 2.21l-15.86 6.61-14.99 6.17-.88.44c-1.32 11.02 4.41 16.76 8.81 20.28.44 0 .44.44.89.44l28.64-11.9 3.53-1.32c-.44 0-3.53-14.55-10.14-20.72z" fill="#C64A9B"/>
    <path d="M1117.13 449.94l-25.56 10.58c6.61 6.17 9.7 20.72 9.7 20.72l26-10.58-4.85-11.9a38.2 38.2 0 00-5.29-8.82zm-57.29 23.8l-26.44 11.02a47.93 47.93 0 009.25 21.17l26-10.58.88-.45c-.44 0-.44-.44-.88-.44-4.84-3.96-10.13-10.14-8.81-20.72z" fill="#D82126"/>
    <path d="M1249.79 375.44a48.99 48.99 0 00-34.81 14.55 49.02 49.02 0 00-14.55 34.82v49.38c0 26.88 22.04 48.93 49.36 48.93 27.33 0 48.92-22.05 49.37-48.94v-11.9h-25.57v11.9a23.7 23.7 0 01-23.8 23.8 23.7 23.7 0 01-23.8-23.8v-49.8c0-9.7 5.73-18.08 14.55-22.05 8.81-3.53 18.95-1.76 25.56 5.3l18.07-18.08a45.22 45.22 0 00-34.38-14.1z" fill="#46B978"/>
    <path d="M1299.16 436.27h-49.37v25.57h23.8v-25.57h25.57v25.57-25.57z" fill="#F36C21"/>
    <path d="M1299.16 436.27h-25.57v25.57h25.57v-25.57z" fill="#1F572B"/>
    <path d="M1360.42 430.1c-18.95 0-35.7 11.46-43.19 28.66a46.98 46.98 0 0010.13 50.7 46.98 46.98 0 0050.69 10.13c17.18-7.05 28.64-24.25 28.64-43.2.44-25.57-20.71-46.29-46.27-46.29zm0 67.45c-8.38 0-16.31-5.3-19.4-12.79a21.9 21.9 0 014.41-22.92c6.17-6.17 14.99-7.93 22.92-4.4a21.1 21.1 0 0112.78 19.39c.44 11.46-9.25 20.72-20.71 20.72zM577.83 431.02c-18.95 0-35.7 11.46-43.19 28.65-7.5 17.2-3.08 37.47 10.14 50.7a46.97 46.97 0 0050.68 10.13c17.19-7.05 28.65-24.24 28.65-43.2.44-25.56-20.72-46.28-46.28-46.28zm0 67.44c-8.37 0-16.3-5.29-19.39-12.78a21.9 21.9 0 014.4-22.92c6.18-6.18 15-7.94 22.92-4.41a21.1 21.1 0 0112.79 19.4c.44 11.46-9.26 20.71-20.72 20.71z" fill="#FFC843"/>
    <path d="M680.08 431.02h-12.34v25.56h12.34v-25.56zm-37.9 0h-7.5v25.56h7.5v-25.56z" fill="#00B3E2"/>
    <path d="M680.08 376.36H667.3a25.11 25.11 0 00-25.12 25.12v29.54h25.56v-29.1h12.34v-25.56zm-12.34 80.22h-25.56v67.45h25.56V456.6z" fill="#FFC843"/>
    <path d="M667.74 431.02h-25.56v25.56h25.56v-25.56z" fill="#028C45"/>
    <path d="M510.36 600.44a48.82 48.82 0 00-48.92 48.93v98.75H487v-52.46h-25.56v-25.57H487v-20.72a23.52 23.52 0 0123.36-23.36 23.52 23.52 0 0123.36 23.36v20.72h25.56v-20.72a48.82 48.82 0 00-48.92-48.93zm48.92 95.22h-25.56v52.46h25.56v-52.46z" fill="#00B3E2"/>
    <path d="M533.72 670.09h-47.16v25.57h47.16v-25.57z" fill="#EF473E"/>
    <path d="M559.28 670.09h-25.56v25.57h25.56v-25.57zm-72.72 0H461v25.57h25.56v-25.57z" fill="#022F32"/>
    <path d="M722.35 722.99h-59.94v25.57h-25.56v-25.57 25.57h85.5v-25.57z" fill="#C64A9B"/>
    <path d="M662.41 600.44h-25.56V723h25.56V600.44z" fill="#00B3E2"/>
    <path d="M662.41 722.99h-25.56v25.57h25.56v-25.57z" fill="#273A92"/>
    <path d="M778.33 655.1c-18.96 0-35.7 11.46-43.2 28.66a47 47 0 0010.14 50.7 46.98 46.98 0 0050.69 10.13c17.18-7.05 28.64-24.25 28.64-43.2.44-25.57-20.27-46.29-46.27-46.29zm0 67.45c-8.38 0-16.31-5.3-19.4-12.78a21.89 21.89 0 014.41-22.93c6.17-6.17 14.99-7.93 22.92-4.4a21.1 21.1 0 0112.78 19.39c.44 11.46-9.26 20.72-20.71 20.72z" fill="#FFC843"/>
    <path d="M865.15 655.1h-25.56v93.02-52.46a40.76 40.76 0 0125.56-37.91v-2.65z" fill="#C64A9B"/>
    <path d="M880.58 655.1c-5.3 0-10.58.88-15.43 3.09v37.9c0-8.37 7.05-15.42 15.43-15.42 8.37 0 15.42 7.05 15.42 15.43v52.46h25.56V696.1c0-22.92-18.5-41-40.98-41z" fill="#46B978"/>
    <path d="M865.15 658.19a40.77 40.77 0 00-25.56 37.91v52.46h25.56v-90.37z" fill="#163056"/>
    <path d="M982.82 655.1a47.03 47.03 0 00-41.87 26.01c-7.93 15.87-5.72 34.83 5.3 48.93a29.18 29.18 0 0119.83-7.5h16.74a21.16 21.16 0 01-21.15-21.15c0-11.9 9.25-21.16 21.15-21.16a21.16 21.16 0 0121.16 21.16v-21.6c0-6.17 2.2-11.9 6.17-16.31a49.88 49.88 0 00-27.33-8.38z" fill="#EF473E"/>
    <path d="M1041.88 655.1h-12.78c-6.61 0-13.22 2.65-17.63 7.5l-1.32 1.32a46.4 46.4 0 0119.39 37.91v-21.16h12.34V655.1zm-14.1 59.95c-5.73 19.84-24.24 33.07-44.52 33.07a46.68 46.68 0 0044.52-33.07zm-81.54 15a29.45 29.45 0 00-7.93 32.61 29.64 29.64 0 0027.77 18.96H1000a3.95 3.95 0 013.97 3.97c0 2.2-1.76 3.96-3.97 3.96h-29.53v25.57h29.53a29.53 29.53 0 000-59.07h-33.93a3.95 3.95 0 01-3.97-3.97c0-2.2 1.76-3.96 3.97-3.96h16.74a46.34 46.34 0 01-36.58-18.08z" fill="#00B3E2"/>
    <path d="M1010.15 663.92a24.18 24.18 0 00-6.17 16.3v21.61a21.16 21.16 0 01-21.16 21.16h-16.74c-7.5 0-14.55 2.64-19.84 7.5a46.34 46.34 0 0036.58 18.07c20.28 0 38.35-13.23 44.52-32.18 6.17-19.84-.88-41-17.19-52.46z" fill="#022F32"/>
    <path d="M1180.71 600v103.6a18.81 18.81 0 01-18.95 18.95 18.81 18.81 0 01-18.95-18.96V600h-25.56v103.6c0 18.07 11.01 34.38 27.32 40.99 16.31 6.61 35.7 3.09 48.48-10.14-8.37-8.38-12.78-19.4-12.78-31.3V600" fill="#EF473E"/>
    <path d="M1269.3 600h-25.56v103.6a18.82 18.82 0 01-18.96 18.95 18.82 18.82 0 01-18.95-18.96V600v103.6c0 11.45-4.4 22.92-12.78 31.3a45.01 45.01 0 0048.48 10.13 43.04 43.04 0 0027.33-41l.44-104.03z" fill="#46B978"/>
    <path d="M1206.27 600h-25.56v103.6a44.4 44.4 0 0012.78 31.3c8.38-8.38 12.78-19.4 12.78-31.3V600z" fill="#0B361D"/>
    <path d="M1377.28 655.1h-25.57v4.85a45.98 45.98 0 0125.57 41.44V655.1zm0 46.73c0 17.63-9.7 33.5-25.57 41.44v4.85h25.57v-46.29z" fill="#EF473E"/>
    <path d="M1330.56 655.1a46.78 46.78 0 00-43.63 29.98 45.65 45.65 0 0012.34 51.13c14.1 12.79 34.82 15.87 52 7.06v-41.44c0 8.38-5.28 16.31-12.78 19.4a21.88 21.88 0 01-22.92-4.41c-6.17-5.73-7.93-14.99-4.4-22.93 3.08-7.93 11.02-12.78 19.39-12.78a21.16 21.16 0 0121.15 21.16v-41.44a40.18 40.18 0 00-21.15-5.73z" fill="#00B3E2"/>
    <path d="M1351.71 659.95v82.88a45.98 45.98 0 0025.57-41.44c0-17.2-10.14-33.5-25.57-41.44z" fill="#022F32"/>
    <path d="M1450.44 655.1v52.46c0 8.38-7.05 15.43-15.43 15.43a15.61 15.61 0 01-15.42-15.43V655.1h-25.57v52.46c0 13.67 6.62 26.45 18.07 33.94 11.46 7.5 25.57 9.26 38.35 3.97V655.1" fill="#EF473E"/>
    <path d="M1476 655.1v52.46a40.77 40.77 0 01-25.56 37.91v23.8c0 8.38-7.05 15.44-15.43 15.44a15.61 15.61 0 01-15.42-15.43h-25.57c0 22.48 18.52 41 40.99 41 22.48 0 40.99-18.52 40.99-41V655.1z" fill="#00B3E2"/>
    <path d="M1476 655.1h-25.56v90.37a40.77 40.77 0 0025.56-37.91V655.1z" fill="#022F32"/>
    <path d="M1749.78 940.02h-3.98V944h-.72v-8.53h5.28v.61h-4.56v3.32h3.98v.62zm1.49.72c0-.61.12-1.16.35-1.65.24-.49.57-.87 1-1.14.44-.27.93-.4 1.47-.4.85 0 1.53.29 2.05.88.53.6.79 1.38.79 2.35v.15c0 .61-.12 1.17-.36 1.66-.23.49-.57.86-.99 1.13-.43.26-.92.4-1.48.4-.84 0-1.52-.3-2.05-.89a3.44 3.44 0 01-.78-2.35v-.14zm.7.19c0 .76.2 1.38.59 1.87.39.48.91.73 1.54.73.64 0 1.15-.25 1.54-.73a3 3 0 00.59-1.93v-.13c0-.49-.09-.93-.27-1.33-.18-.4-.43-.72-.75-.93-.33-.23-.7-.34-1.12-.34-.62 0-1.13.25-1.53.74a2.99 2.99 0 00-.59 1.92v.13zm7.2-3.27l.02 1.08c.24-.39.54-.68.89-.89.36-.2.75-.3 1.18-.3.68 0 1.19.18 1.52.57.33.38.5.95.5 1.72V944h-.69v-4.17c-.01-.56-.13-.98-.37-1.26-.23-.28-.61-.42-1.13-.42-.43 0-.82.14-1.15.41a2.4 2.4 0 00-.74 1.1V944h-.7v-6.34h.67zm7.14-1.62v1.62h1.31v.57h-1.31v4.23c0 .35.06.61.19.78.13.18.34.26.64.26.11 0 .3-.02.56-.06l.03.58c-.18.06-.43.1-.75.1-.48 0-.83-.14-1.05-.42-.21-.28-.32-.7-.32-1.24v-4.23h-1.17v-.57h1.17v-1.62h.7zm2.71 7.54c0-.14.05-.25.13-.35.09-.1.22-.14.37-.14.16 0 .28.04.37.14.09.1.14.21.14.35 0 .13-.05.25-.14.34a.5.5 0 01-.37.13.52.52 0 01-.37-.13.5.5 0 01-.13-.34zm.02-5.41c0-.14.04-.25.13-.35.09-.1.21-.14.36-.14.16 0 .28.05.37.14.09.1.14.21.14.35 0 .14-.05.25-.14.34a.5.5 0 01-.37.13.5.5 0 01-.36-.13.46.46 0 01-.13-.34zm12.15 4.82c-.25.35-.64.63-1.17.83-.53.2-1.13.3-1.79.3a3.24 3.24 0 01-2.99-1.84 4.62 4.62 0 01-.43-2.02v-1.08c0-1.18.3-2.11.89-2.8.6-.68 1.4-1.03 2.41-1.03.88 0 1.59.23 2.12.67.54.45.86 1.07.96 1.85h-.72a2.2 2.2 0 00-.77-1.42c-.4-.32-.93-.48-1.58-.48-.8 0-1.43.28-1.89.85-.47.56-.7 1.36-.7 2.4v1c0 .65.11 1.22.33 1.72a2.5 2.5 0 002.37 1.57 4 4 0 001.6-.3c.29-.12.5-.27.64-.45v-2.2h-2.29v-.6h3.01v3.03zm2.79 1.01h-.7v-6.34h.7V944zm-.83-8.17a.5.5 0 01.13-.34c.09-.1.21-.14.35-.14.15 0 .27.05.36.14.09.1.13.2.13.34 0 .13-.04.24-.13.33a.49.49 0 01-.36.13.48.48 0 01-.35-.13.5.5 0 01-.13-.33zm3.65 8.17h-.71v-9h.71v9zm7.13-3.1c0 .98-.22 1.77-.66 2.35-.43.58-1.02.87-1.76.87-.88 0-1.55-.33-2-.99l-.03.87h-.66v-9h.7v3.58a2.2 2.2 0 011.98-1.04c.75 0 1.34.29 1.77.86.44.58.66 1.37.66 2.39v.1zm-.7-.13c0-.83-.17-1.48-.49-1.93a1.58 1.58 0 00-1.37-.69c-.45 0-.83.11-1.14.34-.32.22-.55.54-.71.96v2.86c.35.8.97 1.2 1.86 1.2.58 0 1.03-.23 1.35-.69.33-.46.5-1.14.5-2.05zm4.83 3.35a2.73 2.73 0 01-2.48-1.5 3.5 3.5 0 01-.36-1.6v-.26c0-.61.11-1.16.35-1.65s.57-.87.99-1.14c.42-.29.88-.43 1.37-.43.77 0 1.38.27 1.83.8.45.52.68 1.23.68 2.14v.4h-4.53v.13c0 .72.21 1.32.62 1.8.41.48.93.72 1.56.72a2.13 2.13 0 001.77-.86l.44.33a2.55 2.55 0 01-2.24 1.12zm-.13-5.98c-.53 0-.97.2-1.34.58-.36.39-.58.9-.65 1.56h3.8v-.08c-.02-.6-.19-1.1-.52-1.49a1.62 1.62 0 00-1.29-.57zm6.92.12a2.58 2.58 0 00-.47-.04c-.44 0-.81.12-1.12.37a2 2 0 00-.64 1.06V944h-.7v-6.34h.69l.01 1c.37-.74.97-1.12 1.79-1.12.19 0 .35.03.46.08l-.02.64zm2.62-2.22v1.62h1.31v.57h-1.31v4.23c0 .35.06.61.18.78.13.18.35.26.64.26.12 0 .31-.02.57-.06l.03.58c-.18.06-.43.1-.75.1-.48 0-.83-.14-1.05-.42-.22-.28-.33-.7-.33-1.24v-4.23h-1.16v-.57h1.16v-1.62h.71zm8.1 4.5h-2.81v-.6h2.81v.6zm8.41 3.46c-.07-.2-.11-.5-.13-.88a2.5 2.5 0 01-.94.74c-.38.17-.78.26-1.21.26-.61 0-1.1-.17-1.48-.51a1.65 1.65 0 01-.57-1.3c0-.6.26-1.1.77-1.46a3.72 3.72 0 012.15-.54h1.27v-.72c0-.45-.14-.8-.42-1.06-.28-.26-.68-.4-1.22-.4-.49 0-.89.13-1.21.38-.32.25-.48.55-.48.9h-.7c0-.5.23-.94.7-1.31a2.7 2.7 0 011.73-.56c.71 0 1.26.18 1.67.54.41.35.62.84.63 1.47v3c0 .62.07 1.08.19 1.38v.07h-.75zm-2.2-.5c.47 0 .89-.12 1.26-.34.37-.23.64-.53.8-.91v-1.4h-1.25c-.7.01-1.25.14-1.64.39-.4.25-.59.59-.59 1.02 0 .36.13.65.39.88.27.24.61.36 1.03.36zm10.14.02c.49 0 .89-.13 1.22-.4.33-.28.51-.64.54-1.08h.68c-.02.39-.15.74-.37 1.06-.22.32-.52.57-.89.75-.37.18-.76.27-1.18.27-.83 0-1.49-.3-1.98-.87a3.49 3.49 0 01-.73-2.33v-.21c0-.63.11-1.18.33-1.66.22-.48.53-.85.94-1.11.41-.27.89-.4 1.43-.4.7 0 1.27.21 1.72.62.45.42.69.96.73 1.64h-.68a1.7 1.7 0 00-1.77-1.66c-.63 0-1.12.23-1.47.69a3.1 3.1 0 00-.53 1.92v.2c0 .81.18 1.44.53 1.9.35.45.84.67 1.48.67zm3.57-2.78c0-.61.12-1.16.36-1.65a2.65 2.65 0 012.47-1.55c.84 0 1.53.3 2.05.9.52.58.78 1.37.78 2.34v.15c0 .61-.11 1.17-.35 1.66s-.57.86-1 1.13c-.43.26-.92.4-1.47.4-.84 0-1.52-.3-2.05-.89a3.45 3.45 0 01-.79-2.35v-.14zm.71.19c0 .76.19 1.38.58 1.87.4.48.91.73 1.55.73.63 0 1.15-.25 1.54-.73a3 3 0 00.59-1.93v-.13c0-.49-.09-.93-.27-1.33-.18-.4-.43-.72-.76-.93a1.9 1.9 0 00-1.11-.34c-.63 0-1.14.25-1.53.74a2.99 2.99 0 00-.59 1.92v.13zm7.31 3.07h-.7v-9h.7v9zm1.65-3.26c0-.61.11-1.16.35-1.65s.57-.87 1-1.14c.43-.27.92-.4 1.47-.4.84 0 1.53.29 2.05.88.53.6.79 1.38.79 2.35v.15c0 .61-.12 1.17-.36 1.66a2.61 2.61 0 01-2.47 1.53c-.84 0-1.52-.3-2.05-.89a3.44 3.44 0 01-.78-2.35v-.14zm.7.19c0 .76.2 1.38.59 1.87.39.48.91.73 1.54.73.64 0 1.15-.25 1.54-.73a3 3 0 00.59-1.93v-.13c0-.49-.09-.93-.27-1.33-.18-.4-.43-.72-.76-.93a1.9 1.9 0 00-1.11-.34c-.62 0-1.13.25-1.53.74a2.99 2.99 0 00-.59 1.92v.13zm9.46-2.67a2.58 2.58 0 00-.47-.04c-.44 0-.81.12-1.12.37a2 2 0 00-.64 1.06V944h-.7v-6.34h.69l.01 1c.37-.74.96-1.12 1.78-1.12.2 0 .35.03.47.08l-.02.64zm3.88 2.48c0-.61.12-1.16.36-1.65a2.65 2.65 0 012.47-1.55c.84 0 1.53.3 2.05.9.52.58.78 1.37.78 2.34v.15c0 .61-.11 1.17-.35 1.66s-.57.86-1 1.13c-.43.26-.92.4-1.47.4-.84 0-1.52-.3-2.05-.89a3.45 3.45 0 01-.79-2.35v-.14zm.71.19c0 .76.19 1.38.58 1.87.4.48.91.73 1.55.73a1.9 1.9 0 001.54-.73 3 3 0 00.59-1.93v-.13c0-.49-.09-.93-.27-1.33-.18-.4-.43-.72-.76-.93a1.9 1.9 0 00-1.11-.34c-.63 0-1.14.25-1.53.74-.4.49-.59 1.13-.59 1.92v.13zm11.63-.03c0 .98-.22 1.77-.66 2.35a2.1 2.1 0 01-1.76.87c-.87 0-1.53-.3-1.99-.92v3.24h-.7v-8.78h.65l.04.9a2.24 2.24 0 011.98-1.02c.76 0 1.36.29 1.78.86.44.58.66 1.38.66 2.4v.1zm-.71-.13c0-.8-.16-1.45-.5-1.91a1.6 1.6 0 00-1.38-.7c-.43 0-.8.1-1.11.3-.31.21-.55.51-.71.9v3.05a1.88 1.88 0 001.83 1.12c.59 0 1.05-.24 1.37-.7.34-.48.5-1.16.5-2.06zm4.84 3.35a2.73 2.73 0 01-2.48-1.5 3.5 3.5 0 01-.36-1.6v-.26c0-.61.11-1.16.35-1.65s.57-.87.99-1.14c.42-.29.88-.43 1.37-.43.77 0 1.38.27 1.83.8.45.52.68 1.23.68 2.14v.4h-4.53v.13c0 .72.21 1.32.62 1.8.41.48.93.72 1.56.72a2.13 2.13 0 001.77-.86l.44.33a2.55 2.55 0 01-2.24 1.12zm-.13-5.98c-.53 0-.97.2-1.34.58-.36.39-.57.9-.65 1.56h3.8v-.08c-.02-.6-.19-1.1-.52-1.49a1.62 1.62 0 00-1.29-.57zm4.66-.48l.02 1.08c.24-.39.54-.68.9-.89.35-.2.74-.3 1.17-.3.68 0 1.19.18 1.52.57.33.38.5.95.5 1.72V944h-.69v-4.17c-.01-.56-.13-.98-.37-1.26-.23-.28-.61-.42-1.13-.42-.43 0-.82.14-1.15.41a2.4 2.4 0 00-.74 1.1V944h-.7v-6.34h.67zm7.14-1.62v1.62h1.31v.57h-1.31v4.23c0 .35.06.61.19.78.13.18.34.26.64.26.11 0 .3-.02.57-.06l.02.58c-.18.06-.43.1-.75.1-.48 0-.83-.14-1.04-.42-.22-.28-.33-.7-.33-1.24v-4.23h-1.17v-.57h1.17v-1.62h.7zm4.9 6.95l1.85-5.33h.75l-2.7 7.42-.14.33c-.35.77-.89 1.15-1.62 1.15-.16 0-.34-.03-.53-.08l-.01-.58.36.03c.35 0 .62-.08.83-.25.22-.17.4-.46.55-.88l.31-.85-2.39-6.29h.77l1.97 5.33zm8.91-2.1c0 1-.22 1.78-.66 2.36-.43.58-1.02.87-1.75.87-.87 0-1.53-.3-2-.92v3.24h-.69v-8.78h.65l.03.9a2.26 2.26 0 011.99-1.02c.76 0 1.35.29 1.78.86.43.58.65 1.38.65 2.4v.1zm-.7-.12c0-.8-.17-1.45-.5-1.91-.33-.47-.8-.7-1.39-.7-.43 0-.8.1-1.11.3-.31.21-.54.51-.71.9v3.05c.17.36.41.64.73.83.31.19.68.28 1.1.28a1.6 1.6 0 001.38-.7c.33-.47.5-1.15.5-2.05zm4.83 3.35a2.73 2.73 0 01-2.47-1.5c-.25-.49-.37-1.02-.37-1.6v-.26c0-.61.12-1.16.35-1.65.24-.49.57-.87.99-1.14.43-.29.88-.43 1.38-.43.77 0 1.37.27 1.82.8.46.52.68 1.23.68 2.14v.4h-4.52v.13c0 .72.21 1.32.62 1.8.41.48.93.72 1.55.72.38 0 .71-.07.99-.21.29-.14.55-.36.79-.66l.44.34a2.57 2.57 0 01-2.25 1.12zm-.12-5.98c-.53 0-.98.2-1.34.58-.36.39-.58.9-.66 1.56h3.81v-.08c-.02-.6-.2-1.1-.53-1.49a1.59 1.59 0 00-1.28-.57zm7.53 5.86v-5.77h-1.05v-.57h1.05v-.77c0-.65.16-1.14.49-1.5.33-.34.8-.51 1.39-.51.26 0 .51.03.74.1l-.05.58c-.2-.04-.41-.07-.64-.07-.39 0-.69.12-.9.37-.22.23-.33.57-.33 1.01v.79h1.52v.57h-1.52V944h-.7zm3.2-3.26c0-.61.12-1.16.35-1.65a2.74 2.74 0 012.48-1.55c.84 0 1.52.3 2.05.9.52.58.78 1.37.78 2.34v.15c0 .61-.12 1.17-.35 1.66-.24.49-.57.86-1 1.13-.43.26-.92.4-1.47.4-.84 0-1.52-.3-2.05-.89a3.4 3.4 0 01-.79-2.35v-.14zm.71.19c0 .76.19 1.38.58 1.87.4.48.91.73 1.55.73.63 0 1.14-.25 1.53-.73.4-.49.6-1.13.6-1.93v-.13c0-.49-.09-.93-.27-1.33-.18-.4-.44-.72-.76-.93-.32-.23-.7-.34-1.11-.34-.63 0-1.14.25-1.53.74-.4.49-.59 1.13-.59 1.92v.13zm7.19-3.27l.03 1.08c.24-.39.53-.68.89-.89.35-.2.75-.3 1.18-.3.68 0 1.18.18 1.51.57.34.38.5.95.51 1.72V944h-.7v-4.17c0-.56-.13-.98-.36-1.26-.24-.28-.61-.42-1.13-.42-.44 0-.82.14-1.16.41a2.4 2.4 0 00-.74 1.1V944h-.69v-6.34h.66zm7.14-1.62v1.62h1.32v.57h-1.32v4.23c0 .35.07.61.19.78.13.18.34.26.64.26.12 0 .31-.02.57-.06l.03.58c-.19.06-.44.1-.75.1-.48 0-.83-.14-1.05-.42-.22-.28-.33-.7-.33-1.24v-4.23h-1.17v-.57h1.17v-1.62h.7z" fill="black"/>
    <rect y="150" width="1946" height="148" fill="#00C5FF" fill-opacity=".1"/>
    <rect y="375" width="1946" height="148" fill="#00C5FF" fill-opacity=".1"/>
    <rect y="601" width="1946" height="148" fill="#00C5FF" fill-opacity=".1"/>
    <line x1="0" y1="148.5" x2="1946" y2="153.02" stroke="#739CB3" stroke-opacity=".39"/>
    <line x1="0" y1="297.5" x2="1946" y2="302.02" stroke="#739CB3" stroke-opacity=".39"/>
    <line x1="0" y1="374.5" x2="1946" y2="379.02" stroke="#739CB3" stroke-opacity=".39"/>
    <line x1="0" y1="521.5" x2="1946" y2="526.02" stroke="#739CB3" stroke-opacity=".39"/>
    <line x1="0" y1="600.5" x2="1946" y2="605.02" stroke="#739CB3" stroke-opacity=".39"/>
    <line x1="0" y1="748.5" x2="1946" y2="753.02" stroke="#739CB3" stroke-opacity=".39"/>
  </g>
  <defs>
    <clipPath id="clip0">
      <rect width="1946" height="954" fill="white"/>
    </clipPath>
  </defs>
</svg>
