<svg xmlns="http://www.w3.org/2000/svg" viewBox="3 9.8 592.8 349.7">
  <defs/>
  <defs>
    <filter id="a" width="1000%" height="1000%" x="-500%" y="-500%">
      <feGaussianBlur in="SourceAlpha" stdDeviation="5"/>
      <feOffset dx="5" dy="5"/>
      <feComponentTransfer result="offsetblur">
        <feFuncA slope=".8" type="linear"/>
      </feComponentTransfer>
      <feFlood x="10" y="10" flood-color="rgba(0,0,0,0.42)"/>
      <feComposite in2="offsetblur" operator="in"/>
      <feMerge>
        <feMergeNode/>
        <feMergeNode in="SourceGraphic"/>
      </feMerge>
    </filter>
  </defs>
  <rect width="564.8" height="324.7" x="12.5" y="17.8" style="filter:url(#a);fill:#fff;stroke:#ededed"/>
  <path d="M40 62.5c-3.2 0-6.4-1-9-2.8v-5.5h2.8l.6 4a10.3 10.3 0 008.6 1 4 4 0 002-1.5c.5-.6.7-1.4.7-2.2 0-.8-.2-1.5-.6-2-.4-.7-1-1.2-2-1.6-.8-.5-2-.9-3.6-1.2-1.6-.4-3-1-4.5-1.7a7.8 7.8 0 01-2.9-2.5 6 6 0 01-1-3.4 6 6 0 011.1-3.5 7 7 0 013.1-2.5 14 14 0 019.6-.1c1.4.5 2.6 1.2 3.5 2v5h-2.8l-.6-3.6a9 9 0 00-7.8-1c-.8.4-1.4.9-1.8 1.5-.4.6-.7 1.3-.7 2.2 0 .7.2 1.3.6 1.9.4.5 1 1 2 1.4.9.4 2 .8 3.6 1.2 2.8.7 4.9 1.6 6.3 3a6 6 0 012.2 4.8 6 6 0 01-1.1 3.6c-.8 1-1.9 1.9-3.3 2.5-1.4.6-3 .9-5 .9zm22.2-.4h-9.5v-2.2l3-.5v-20l-3-.6v-2.2h7.8L69 56h.1l8.4-19.4h8v2.2l-3 .5v20l3 .6V62h-9.6v-2.2l3.2-.5v-18H79l-8.7 19.9H68l-9-19.8v18l3.2.5V62zm36 0h-9.5v-2.2l3-.5v-20l-3-.6v-2.2h9.6v2.2l-3 .5v20l3 .6V62zm19.2 0h-9.6v-2.2l3-.5V39.2h-6l-.6 3.6h-2.7v-6.2h22.1v6.2H121l-.6-3.6h-6v20.2l3 .5V62zm19.1 0H127v-2.2l3-.5v-20l-3-.6v-2.2h9.6v2.2l-3 .5v8.8h12.7v-8.8l-3-.5v-2.2h9.7v2.2l-3 .5v20l3 .6V62h-9.6v-2.2l3-.5v-8.6h-12.8v8.6l3 .5V62zm22.6-18.5h-1.7v-8.8h2.8v3.9l-1 5zm14.7 18.9c-3.2 0-6.4-1-9-2.8v-5.5h2.8l.6 4c1.7 1 3.6 1.5 5.6 1.5a8 8 0 003.1-.5c.9-.4 1.5-.9 2-1.5a4 4 0 00.6-2.2 4 4 0 00-.5-2c-.4-.7-1-1.2-2-1.6-.9-.5-2-.9-3.6-1.2a18 18 0 01-4.7-1.6c-1.1-.6-2-1.5-2.8-2.5a6 6 0 01-1-3.4 6 6 0 011-3.5c.8-1.1 1.8-2 3.2-2.5a14 14 0 019.6-.1c1.4.5 2.5 1.2 3.5 2v5h-2.8l-.6-3.6c-.6-.4-1.3-.8-2-1-.9-.3-2-.5-3.1-.5-1 0-2 .2-2.7.5-.8.4-1.4.9-1.9 1.5a3.8 3.8 0 000 4.1c.4.5 1 1 2 1.4.8.4 2 .8 3.5 1.2 2.8.7 5 1.6 6.4 3a6.2 6.2 0 012.2 4.8A6 6 0 01182 59c-.8 1-1.8 1.9-3.2 2.5-1.4.6-3 .9-5 .9zM40 98.3c-3.2 0-6.4-1-9-2.8v-5.4h2.8l.6 4c1.7 1 3.6 1.5 5.6 1.4 1 0 2-.1 3-.5s1.6-.8 2-1.5c.5-.6.7-1.3.7-2.2 0-.8-.2-1.4-.6-2-.4-.6-1-1.2-2-1.6-.8-.5-2-.9-3.6-1.2A18 18 0 0135 85a7.8 7.8 0 01-2.9-2.5 6 6 0 01-1-3.4 6 6 0 011.1-3.5c.8-1 1.8-1.9 3.1-2.5a14 14 0 019.6-.1c1.4.5 2.6 1.2 3.5 2v5h-2.8l-.6-3.6a9 9 0 00-5-1.5c-1 0-2 .2-2.8.6a3.8 3.8 0 00-2.5 3.6c0 .7.2 1.4.6 2 .4.5 1 1 2 1.4.9.4 2 .8 3.6 1.1 2.8.7 4.9 1.7 6.3 3a6 6 0 012.2 4.8 6 6 0 01-1.1 3.6c-.8 1-1.9 1.9-3.3 2.5-1.4.6-3 .9-5 .9zm32.7-.4H52.4v-2.2l3-.5v-20l-3-.5v-2.3h19.8v6.2h-3L69 75H59v8.3h9.8V86H59v9.2h10.4l.4-3.5h3V98zM86 98h-9.6v-2.2l3-.5v-20l-3-.5v-2.2h11.9c2 0 3.6.2 5 .8a8 8 0 013 2.4c.7 1 1 2.3 1 3.8s-.3 2.8-1 3.8-1.7 1.8-3 2.3a12 12 0 01-4.3.8l-6 .1v8.7l3 .5V98zm12.4 0H94l-6-12.7h3.7l4.9 10.1 1.8.4V98zM83 75.2v8.6h5c2 0 3.4-.3 4.3-1 1-.8 1.4-1.9 1.4-3.3a4 4 0 00-1.3-3.2c-1-.8-2.3-1.1-4.1-1.1H83zm31 22.7h-3l-9-23-2.1-.2v-2.3h8.4v2.3l-2.4.3 6 16.2.6 2 .7-2 6.2-16.2-2.7-.3v-2.3h8.4v2.3l-2.1.2-9 23zm23.4 0h-9.6v-2.2l3-.5v-20l-3-.5v-2.3h9.6v2.3l-3 .5v20l3 .5V98zm15 .4c-2.7 0-5-.6-6.7-1.7a10.4 10.4 0 01-4-4.6c-1-2-1.4-4.2-1.4-6.6V85c0-2.5.5-4.7 1.4-6.6A11 11 0 01152 72c1.8 0 3.3.2 4.8.8 1.4.5 2.6 1.1 3.5 2v5.4h-2.9l-.3-4a6 6 0 00-1.4-.8L154 75l-2-.2c-1.7 0-3.2.5-4.4 1.3a8 8 0 00-2.8 3.6c-.6 1.5-.9 3.2-.9 5.2v.4c0 2.1.3 4 1 5.4a7.4 7.4 0 003 3.5 8 8 0 004.6 1.2c1.6 0 3-.3 4.5-1l.4-3.6h2.8v5.5a16 16 0 01-7.9 1.9zm31.8-.4h-20.3v-2.2l3-.5v-20l-3-.5v-2.3h19.7v6.2h-2.9l-.4-3.5h-9.8v8.3h9.8V86h-9.8v9.2h10.4l.4-3.5h2.9V98zm13.2.4c-3.2 0-6.4-1-9-2.8v-5.4h2.8l.6 4c1.7 1 3.6 1.5 5.6 1.4a8 8 0 003.1-.5 5 5 0 002-1.5c.4-.6.6-1.3.6-2.2 0-.8-.2-1.4-.6-2-.3-.6-1-1.2-1.9-1.6-.9-.5-2.1-.9-3.7-1.2a18 18 0 01-4.6-1.6 7.8 7.8 0 01-2.9-2.5 6 6 0 01.2-6.9c.7-1 1.7-1.9 3-2.5a14 14 0 019.6-.1c1.4.5 2.6 1.2 3.5 2v5H203l-.6-3.6c-.5-.4-1.2-.8-2-1-.8-.3-1.8-.5-3-.5-1 0-2 .2-2.8.6-.7.3-1.3.8-1.8 1.4-.4.6-.6 1.3-.6 2.2 0 .7.2 1.4.6 2 .3.5 1 1 1.9 1.4.9.4 2 .8 3.6 1.1 2.8.7 5 1.7 6.4 3a6.3 6.3 0 012.1 4.8 6 6 0 01-1.1 3.6c-.8 1-1.9 1.9-3.3 2.5-1.4.6-3 .9-4.9.9zm67.8 43.3a4 4 0 01-1.5-.3 3 3 0 01-1.2-.8 2 2 0 01-.4-1.2c0-.4 0-.7.3-1 .3-.2.6-.4 1.1-.4l.9.3c.2.2.3.5.3.8v.4c0 .3-.2.5-.3.8 0 .2 0 .4.2.5.2.2.4.3.8.3.5 0 .9-.2 1.1-.4.3-.2.5-.5.6-.8l.2-1v-12.5a6 6 0 00-.1-1.8 1 1 0 00-.7-.8l-1.5-.2h-.5v-.7h8v.6h-.5l-1.4.3a1 1 0 00-.7.8 6 6 0 00-.2 1.8v11.3c0 1-.1 1.6-.4 2.1-.3.6-.6 1-1.1 1.2a4 4 0 01-1.4.6h-1.6zm13.7-.3h-3.4v-.5h.4l1.3-.3c.2-.1.4-.3.5-.7l.2-1.6v-5.5c0-1-.2-1.5-.6-1.8a3 3 0 00-1.6-.3h-.2v-.6c1.4 0 2.9-.1 4.3-.3v8.5c0 .7 0 1.3.2 1.6 0 .4.3.6.6.7l1.2.2h.4v.7l-3.3-.1zm-.4-14.7c-.5 0-.8-.1-1.1-.5-.3-.3-.4-.6-.4-1 0-.5.1-1 .4-1.2.3-.3.6-.5 1.1-.5.5 0 1 .2 1.2.5.2.3.3.7.3 1.1 0 .5 0 .8-.3 1.1-.3.4-.7.5-1.2.5zm9.4 14.7h-3.3v-.5h.4l1.2-.3c.3-.1.5-.3.6-.7l.2-1.6v-5.5c0-.7-.1-1.1-.3-1.4-.2-.3-.5-.5-.8-.6l-1.3-.1v-.6c1.4 0 2.9-.1 4.3-.3v2c.4-.6 1-1.1 1.7-1.6.7-.4 1.5-.6 2.4-.6 1 0 1.8.2 2.4.6.7.4 1.1 1 1.3 1.8.4-.6 1-1.2 1.7-1.7.8-.5 1.6-.7 2.7-.7s2 .3 2.8.9c.7.6 1 1.5 1 2.8v5c0 .7 0 1.3.2 1.6 0 .3.3.6.5.7l1.3.2h.4v.7l-3.3-.1h-3.1v-.5h.4l1-.3c.3-.1.5-.3.6-.7l.1-1.6v-5.5c0-.7-.2-1.3-.6-1.8-.5-.4-1-.6-1.9-.6-.6 0-1.2.1-1.7.4a4 4 0 00-1.2 1c-.3.5-.6.9-.7 1.3v5.2l.1 1.6c.1.4.3.6.5.7l1 .2h.5v.7l-3-.1h-3.1v-.5h.4l1-.3c.3-.1.5-.3.6-.7l.1-1.6v-5.5c0-.7-.2-1.3-.7-1.8-.4-.4-1-.6-1.8-.6-.6 0-1.2.1-1.7.4-1 .5-1.6 1.3-2 2.3v5.2l.2 1.6c.1.4.3.6.5.7l1 .2h.5v.7l-3-.1zm38 .3c-.8 0-1.4-.1-2-.4l-2.6-1.1-.7-.2c-.2 0-.4.1-.5.4l-.2.6-.1.4h-.7l.1-3v-3.4h.6l.3 1.2a7 7 0 003 4c.9.5 1.8.7 2.8.7.5 0 1 0 1.6-.3a3 3 0 001.3-1c.3-.6.5-1.2.5-2 0-1.2-.4-2-1.2-2.8-.8-.7-1.9-1.4-3.3-2l-1.1-.6a8.9 8.9 0 01-3-2c-.7-.8-1-1.7-1-3 0-.8.2-1.7.7-2.4.4-.7 1-1.2 1.9-1.6.8-.4 1.8-.6 2.8-.6.8 0 1.4 0 2 .3l1.1.5 1.1.3c.3 0 .5-.3.5-.8h.7v5h-.7c-.1-1-.4-1.8-.8-2.5a4 4 0 00-1.7-1.5 4 4 0 00-2-.6c-1.1 0-2 .3-2.6.9a3 3 0 00-1 2.3c0 1 .3 1.7 1 2.3l2.6 1.6 1.1.5 2.6 1.4c.7.5 1.3 1.1 1.6 1.8.4.6.6 1.5.6 2.4a4.7 4.7 0 01-2.7 4.5c-.7.5-1.6.7-2.6.7zm12.3-.3h-3.4v-.5h.5l1.2-.3c.3-.1.5-.3.6-.7l.1-1.6v-5.5c0-.7 0-1.1-.3-1.4-.1-.3-.4-.5-.8-.6l-1.3-.1v-.6c1.4 0 2.9-.1 4.3-.3v2c.4-.6 1-1.1 1.7-1.6.7-.4 1.6-.6 2.5-.6 1 0 1.8.2 2.4.6.6.4 1 1 1.3 1.8.4-.6 1-1.2 1.7-1.7s1.6-.7 2.6-.7c1.2 0 2.1.3 2.8.9.7.6 1 1.5 1 2.8v5l.2 1.6c.1.3.3.6.6.7l1.2.2h.4v.7l-3.3-.1h-3v-.5h.4l1-.3c.3-.1.4-.3.5-.7l.2-1.6v-5.5c0-.7-.2-1.3-.7-1.8-.4-.4-1-.6-1.8-.6-.7 0-1.3.1-1.7.4-.5.3-1 .6-1.3 1l-.6 1.3v6.8c.2.4.4.6.6.7l1 .2h.5v.7l-3-.1H343v-.5h.5l1-.3c.3-.1.4-.3.5-.7l.2-1.6v-5.5c0-.7-.3-1.3-.7-1.8-.4-.4-1-.6-1.9-.6a3 3 0 00-1.6.4c-1 .5-1.6 1.3-2 2.3v5.2c0 .7 0 1.3.2 1.6 0 .4.2.6.5.7l1 .2h.5v.7l-3.1-.1zm25.1 0H360v-.5h.4l1.2-.3c.3-.1.5-.3.6-.7l.1-1.6v-5.5c0-1-.1-1.5-.5-1.8a3 3 0 00-1.7-.3h-.1v-.6c1.4 0 2.9-.1 4.3-.3v8.5l.1 1.6c.1.4.3.6.6.7l1.2.2h.4v.7l-3.3-.1zm-.3-14.7c-.5 0-.9-.1-1.1-.5-.3-.3-.5-.6-.5-1 0-.5.2-1 .5-1.2.2-.3.6-.5 1-.5.6 0 1 .2 1.2.5.3.3.4.7.4 1.1 0 .5-.1.8-.4 1.1-.2.4-.6.5-1.1.5zm11 15a3 3 0 01-2-.8c-.6-.5-.9-1.3-.9-2.5v-7.7h-2v-.6h.7c.8-.1 1.3-.4 1.7-1a4 4 0 00.8-2.2h.7v3.2h3.5v.6H373v7.8c0 1.5.6 2.3 1.7 2.3.5 0 .8-.1 1.1-.4.3-.4.6-.7.8-1.2l.6.3a4 4 0 01-.8 1.3l-1 .7-1.3.2zm8.6-.3h-3.3v-.5h.4l1.2-.3c.3-.1.5-.3.6-.7l.1-1.6v-12.7c0-1-.2-1.5-.5-1.8a3 3 0 00-1.7-.3h-.1v-.6l4.2-.3v9.3a5.6 5.6 0 014.5-2.3c1.2 0 2.2.3 2.9.9.7.6 1 1.4 1 2.6v5.2l.2 1.6c.1.4.3.6.6.7l1.2.2h.5v.7l-3.4-.1h-3.3v-.5h.4l1.2-.3c.3-.1.5-.3.6-.7l.2-1.6V133c0-1-.3-1.6-.7-2-.5-.5-1.2-.7-2-.7-.7 0-1.3.1-1.8.4-.5.3-1 .6-1.3 1l-.8 1.3v5.2l.2 1.6c.1.4.3.6.6.7l1.2.2h.4v.7l-3.3-.1z" style="fill:#333;white-space:pre"/>
  <path d="M261.2 162.6h-2.5l.2-.4h.3c.6 0 1-.2 1.3-.4.3-.3.5-.7.7-1.2l2.8-8.1v-.3c0-.2 0-.3-.2-.4l-1-.2h-.3l.2-.4h4.2c1.5 0 2.6.2 3.3.8.8.5 1.1 1.2 1.1 2a3 3 0 01-.6 2 5 5 0 01-2 1.3 8.9 8.9 0 01-3.9.4h-1.2l-1.2 3.3a1.3 1.3 0 00-.1.6c0 .2.1.3.3.4l1 .2h.4l-.2.4h-2.6zm5.8-11h-1.4l-1.9 5.6a403.8 403.8 0 011.7 0c.9 0 1.6 0 2.1-.3.6-.2 1-.4 1.4-.8.4-.3.6-.6.8-1l.2-1.2a2 2 0 00-.8-1.7c-.5-.4-1.2-.6-2-.6zm7.3 11h-1.2l2-5.5.3-.8c0-.2-.2-.3-.4-.3h-.8l.2-.5h2.3l-.8 2.3.8-1.2 1-1a2 2 0 011.1-.3c.3 0 .6 0 .9.3.2.1.4.4.4.8 0 .1 0 .3-.2.5l-.5.2c-.2 0-.4 0-.5-.2a1 1 0 01-.3-.5c0-.3-.2-.5-.5-.5l-.6.3c-.3.2-.5.5-.8 1a15.6 15.6 0 00-1.3 2.5l-1 2.9zm11.1.2c-.5 0-1-.1-1.4-.4-.4-.2-.7-.5-1-1l-.2-1.2a4.7 4.7 0 011.4-3.4 5 5 0 011.5-1.1 4 4 0 011.8-.4c.6 0 1 .1 1.5.4.4.2.7.5.9 1 .2.3.3.7.3 1.2a5.3 5.3 0 01-3 4.5c-.5.3-1.1.4-1.8.4zm0-.4a2 2 0 001.2-.3 4 4 0 001-1l.7-1.1.5-1.4.2-1.2c0-1.2-.5-1.7-1.5-1.7-.4 0-.8 0-1.1.3-.4.2-.7.5-1 .9a6.7 6.7 0 00-1.3 2.5l-.1 1.2c0 1.2.5 1.8 1.4 1.8zm6.4 4.8c-.7 0-1.2-.1-1.4-.4-.3-.2-.5-.5-.5-.8 0-.2.1-.4.3-.5l.6-.2c.2 0 .4 0 .5.2l.2.6.2.5c0 .2.2.3.4.3.3 0 .6-.2.8-.7l.8-1.6 3-8.7h-1.5l.1-.4h1.5l.6-1.8c.3-1 .8-1.7 1.4-2.1.6-.4 1.2-.6 2-.6.5 0 1 .1 1.3.3.2.3.4.5.4.8 0 .2 0 .4-.2.6-.1.2-.3.2-.6.2-.2 0-.4 0-.5-.2a1 1 0 01-.2-.5l-.1-.7c0-.1-.2-.2-.5-.2l-.7.3c-.3.2-.6.6-.8 1.2l-1 2.7h1.9l-.2.4h-1.8l-3 8.7c-.2.7-.4 1.2-.7 1.6-.3.4-.7.7-1 .8l-1.3.2zm13.2-4.4c-.6 0-1-.1-1.5-.4-.3-.2-.6-.6-.8-1-.2-.4-.2-.8-.2-1.3 0-.7 0-1.3.4-1.8a5.3 5.3 0 012.5-2.6c.5-.2 1-.4 1.6-.4.5 0 1 .2 1.2.4.3.3.5.6.5 1 0 .6-.3 1.1-1 1.5a6 6 0 01-2.4.7l-1.4.1-.2 1.4c0 .3 0 .6.2 1l.4.7c.2.2.5.3.9.3a2 2 0 001.2-.4l.9-.9.2.3-1 1c-.4.2-.9.4-1.5.4zm2-7.1a2 2 0 00-1.1.4 5.8 5.8 0 00-1.8 2.6l.9-.1 1.4-.4.8-.6a1.8 1.8 0 00.5-1.1c0-.3 0-.5-.2-.6 0-.2-.3-.2-.5-.2zm6.8 7.1c-.6 0-1-.1-1.4-.3-.3-.2-.6-.4-.7-.7-.2-.2-.2-.5-.2-.7 0-.3 0-.5.2-.6.1-.2.3-.3.6-.3.2 0 .3 0 .4.2l.2.4c0 .1 0 .3-.2.4v.5c0 .2 0 .4.2.5.2.2.5.2.8.2a1.5 1.5 0 001.4-.7l.2-.7c0-.2 0-.4-.2-.6 0-.2-.2-.4-.5-.7l-.6-.6a2.6 2.6 0 01-.7-1.8c0-.3 0-.6.2-1 .2-.2.4-.5.8-.7.3-.2.7-.3 1.3-.3.5 0 1 0 1.2.2l.6.5.1.5c0 .2 0 .4-.2.5a.7.7 0 01-.9 0l-.2-.4v-.4l-.1-.4-.6-.1c-.4 0-.7 0-1 .3-.2.3-.3.5-.3.9 0 .2 0 .4.2.6 0 .2.2.4.4.6l.6.7.7.7a2 2 0 010 2.1 2.7 2.7 0 01-2.3 1.2zm8.7 0c-.6 0-1-.1-1.3-.3-.4-.2-.6-.4-.8-.7l-.2-.7c0-.3 0-.5.2-.6l.6-.3c.2 0 .3 0 .4.2l.2.4-.1.4-.1.5c0 .2 0 .4.3.5.2.2.4.2.7.2a1.5 1.5 0 001.4-.7c.2-.2.2-.5.2-.7l-.1-.6-.5-.7-.6-.6a2.6 2.6 0 01-.8-1.8l.3-1 .7-.7c.4-.2.8-.3 1.3-.3s1 0 1.2.2l.6.5.2.5-.2.5a.7.7 0 01-1 0l-.2-.4v-.8l-.6-.1c-.4 0-.8 0-1 .3-.2.3-.3.5-.3.9l.1.6.4.6.7.7.6.7c.2.3.3.6.3 1s0 .8-.3 1.1a2.7 2.7 0 01-2.3 1.2zm8 0c-.3 0-.5 0-.6-.2a1 1 0 01-.3-.7l.1-.5.2-.6 1.5-3.8v-.9a1 1 0 00-.6-.2h-.6l.1-.4h2.7l-2 5.7a5.3 5.3 0 00-.2.7c0 .3 0 .4.2.4.3 0 .5-.2.8-.4l.5-.7.3.2-.8 1c-.3.2-.7.4-1.2.4zm2.4-9l-.6-.3a.8.8 0 010-1.2c.1-.2.4-.3.6-.3.3 0 .5.1.6.3.2.1.3.3.3.6 0 .2 0 .4-.3.6l-.6.2zm6.6 9c-.6 0-1-.1-1.5-.4-.4-.2-.7-.5-.9-1l-.2-1.2a4.7 4.7 0 011.4-3.4 5 5 0 011.5-1.1 4 4 0 011.8-.4c.6 0 1 .1 1.5.4.4.2.7.5.9 1 .2.3.3.7.3 1.2 0 .6-.2 1.2-.4 1.8a5.3 5.3 0 01-2.6 2.7c-.5.3-1.1.4-1.8.4zm0-.4a2 2 0 001.2-.3 4 4 0 001-1l.7-1.1.5-1.4.2-1.2c0-1.2-.5-1.7-1.5-1.7-.4 0-.8 0-1.1.3-.4.2-.7.5-1 .9a6.7 6.7 0 00-1.3 2.5l-.2 1.2c0 1.2.5 1.8 1.5 1.8zm14 .4c-.3 0-.5 0-.7-.2a1 1 0 01-.2-.7l.1-.5.2-.6 1.4-4c.2-.3.2-.5.1-.8 0-.2-.3-.3-.6-.3a2 2 0 00-1 .3 5.3 5.3 0 00-2.3 2.5l-1.5 4h-1.2l2-5.4c.2-.6.2-.9 0-1 0-.1-.4-.2-1-.2l.2-.4h2.5l-.6 1.7a5.3 5.3 0 012-1.6 3 3 0 011.2-.3c.7 0 1.2.2 1.4.5.2.4.2.8 0 1.5l-1.6 4-.1.6c0 .3 0 .4.3.4l.7-.4.5-.7.3.2a4 4 0 01-.8 1c-.3.3-.7.4-1.2.4zm8.4 0c-.5 0-1-.1-1.3-.3-.3-.2-.6-.5-.8-.9l-.2-1c0-.7.2-1.4.5-2a6 6 0 012.7-2.9c.6-.3 1.2-.4 1.7-.4s.9.2 1.2.5c.2.3.4.7.4 1.2l.6-1.5h1l-2 5.7a91.4 91.4 0 00-.2.7c0 .3.1.4.3.4l.7-.4.6-.7.3.2-.8 1c-.4.2-.8.4-1.2.4-.4 0-.6 0-.8-.2a1 1 0 01-.2-.7l.1-.7-1.2 1.2c-.4.3-1 .4-1.4.4zm.1-.4c.7 0 1.3-.3 1.8-.9.6-.6 1-1.3 1.5-2.3l.2-.5.3-1.5c0-.4-.1-.8-.3-1a1 1 0 00-.9-.5c-.5 0-.9.2-1.3.5a7.4 7.4 0 00-2 3 5 5 0 00-.4 1.7c0 .5 0 .8.3 1 .2.3.5.5.8.5zm10.3.4c-.4 0-.6 0-.8-.2a1 1 0 01-.2-.7v-.5l.3-.6 2.7-8a1.9 1.9 0 00.1-.7l-.1-.4a1 1 0 00-.5 0l-.6-.1.1-.4h2.7l-3.4 10a91.4 91.4 0 00-.2.7c0 .3.1.4.3.4.3 0 .5-.2.7-.4l.6-.7.3.2a5 5 0 01-.8 1c-.4.2-.8.4-1.2.4zm17.3 0a4.5 4.5 0 01-2.2-.6l-.7-.4a1 1 0 00-.4-.1c-.2 0-.4 0-.5.2l-.3.6-.4-.2.7-2.1.5-2h.5v1.2c0 .9.2 1.6.7 2.1.5.5 1.1.8 2 .8.7 0 1.2-.2 1.7-.6.4-.5.6-1 .6-1.6 0-.6 0-1-.3-1.5a4 4 0 00-1.1-1.2l-.8-.7-.8-.8-.8-1a2 2 0 01-.3-1.1c0-.6.2-1 .5-1.5a4 4 0 011.2-1l1.7-.2 1.2.1.8.4.6.4.4.1.2-.1.2-.5h.5l-.5 1.8-.2 1.7h-.5v-.5c0-.5 0-1-.2-1.4-.2-.5-.4-.9-.8-1.2-.4-.3-.9-.4-1.5-.4-.4 0-.7 0-1 .2a2 2 0 00-.8.7c-.3.3-.4.7-.4 1.1 0 .4.1.7.3 1l.5.7.8.7.7.7 1.4 1.5c.3.5.4 1 .4 1.5a3 3 0 01-.4 1.6c-.3.5-.8.8-1.3 1.1a4 4 0 01-1.9.4zm10.8 0c-.6 0-1-.1-1.5-.4-.3-.2-.6-.6-.8-1-.2-.4-.2-.8-.2-1.3 0-.7 0-1.3.4-1.8a5.3 5.3 0 012.5-2.6c.5-.2 1-.4 1.6-.4.5 0 1 .2 1.2.4.3.3.5.6.5 1 0 .6-.3 1.1-1 1.5a6 6 0 01-2.4.7l-1.4.1-.2 1.4c0 .3 0 .6.2 1l.4.7c.3.2.5.3.9.3a2 2 0 001.2-.4l.9-.9.2.3-1 1c-.4.2-.9.4-1.5.4zm2-7.1a2 2 0 00-1.1.4 5.8 5.8 0 00-1.8 2.6l.9-.1 1.4-.4.8-.6.4-.6.1-.5c0-.3 0-.5-.2-.6 0-.2-.3-.2-.5-.2zm5.9 6.9H407l2-5.5.2-.8c0-.2-.1-.3-.3-.3h-.8l.1-.5h2.3l-.7 2.3.8-1.2c.2-.4.5-.7.9-1a2 2 0 011.1-.3c.3 0 .6 0 .9.3.3.1.4.4.4.8l-.1.5-.6.2c-.2 0-.4 0-.5-.2a1 1 0 01-.2-.5c0-.3-.3-.5-.5-.5s-.5.1-.7.3l-.8 1a15.6 15.6 0 00-1.2 2.5l-1.1 2.9zm11.6.1h-.3a32.1 32.1 0 00-1.4-3.6 3 3 0 01-.2-1c0-.4.2-.9.5-1.3l1.3-1-1.7.1.2-.4h2.5l.1.2-.6.3a1.7 1.7 0 00-.9 1.6 59.1 59.1 0 00.7 3l.3 1.1 2-2.2.8-1.1.3-1-.1-.6-.2-.4-.2-.4.2-.5.6-.2c.3 0 .5.1.7.3.2.2.2.5.2 1 0 .4-.1.9-.5 1.4l-1.3 1.5-3 3.2zm9.2.1c-.3 0-.6 0-.7-.2a1 1 0 01-.2-.7v-.5l.2-.6 1.5-3.8.1-.5c0-.2 0-.4-.2-.4a1 1 0 00-.4-.2h-.6v-.4h2.8l-2.1 5.7a6 6 0 00-.2.7c0 .3 0 .4.3.4l.7-.4.6-.7.3.2-.9 1c-.3.2-.7.4-1.2.4zm2.4-9c-.3 0-.5-.2-.7-.3a.8.8 0 010-1.2c.2-.2.4-.3.7-.3l.6.3.2.6c0 .2 0 .4-.2.6l-.6.2zm6.6 9c-.9 0-1.6-.3-2-.8-.5-.5-.7-1.1-.7-2 0-.6.1-1.2.4-1.8l1.2-1.5a5.3 5.3 0 013.3-1.4c.6 0 1 0 1.3.2a1.1 1.1 0 01.6 1c0 .2 0 .4-.2.6l-.5.2-.5-.1a.6.6 0 01-.2-.5v-.8c0-.2-.2-.2-.6-.2-.4 0-.9.1-1.3.4l-1.1 1c-.4.5-.6 1-.8 1.5-.2.6-.3 1-.3 1.6 0 .6.1 1.1.4 1.6.3.4.7.6 1.3.6.3 0 .6 0 .8-.2l.8-.5.6-.8.3.2a3 3 0 01-1 1.2 3 3 0 01-1.8.5zm9.8 0c-.6 0-1-.1-1.4-.4-.4-.2-.7-.6-.8-1-.2-.4-.3-.8-.3-1.3 0-.7.1-1.3.4-1.8a5.3 5.3 0 012.5-2.6c.6-.2 1.1-.4 1.6-.4.6 0 1 .2 1.3.4.3.3.4.6.4 1 0 .6-.3 1.1-.9 1.5a6 6 0 01-2.4.7l-1.4.1c-.2.5-.2 1-.2 1.4l.1 1 .5.7c.2.2.5.3.8.3a2 2 0 001.2-.4l.9-.9.3.3-1 1c-.4.2-1 .4-1.6.4zm2-7.1a2 2 0 00-1.1.4 5.8 5.8 0 00-1.8 2.6l1-.1 1.3-.4.9-.6a1.8 1.8 0 00.5-1.1l-.2-.6c-.1-.2-.3-.2-.6-.2zm12.3 6.9h-2v-.4h.4c.6 0 1-.2 1.3-.5l.8-1 7.1-9.7.4.2v10.3c0 .2.2.3.4.5l.8.2h.3v.4h-4.9l.1-.4h.3c.5 0 1-.2 1.2-.4.3-.1.4-.5.4-1v-2.4H465l-1.7 2.4c-.3.3-.4.6-.4.8 0 .3.4.5 1 .6h.4l-.1.4h-2zm6.6-9.5l-3.5 5h3.5v-5zm8.5 9.7c-.6 0-1-.1-1.3-.3-.4-.2-.6-.4-.8-.7l-.2-.7c0-.3 0-.5.2-.6l.6-.3c.2 0 .3 0 .4.2.2 0 .2.2.2.4l-.1.4-.1.5c0 .2 0 .4.3.5.2.2.4.2.7.2a1.5 1.5 0 001.4-.7c.2-.2.2-.5.2-.7l-.1-.6-.5-.7-.6-.6a2.6 2.6 0 01-.8-1.8l.3-1 .7-.7c.4-.2.8-.3 1.3-.3.6 0 1 0 1.2.2l.6.5.2.5c0 .2 0 .4-.2.5a.7.7 0 01-1 0l-.1-.4v-.4c0-.1 0-.3-.2-.4l-.5-.1c-.4 0-.7 0-1 .3-.2.3-.3.5-.3.9l.1.6.4.6.7.7.6.7c.2.3.3.6.3 1s0 .8-.3 1.1a2.7 2.7 0 01-2.3 1.2zm8.8 0c-.6 0-1-.1-1.4-.3-.3-.2-.6-.4-.7-.7-.2-.2-.2-.5-.2-.7 0-.3 0-.5.2-.6.1-.2.3-.3.6-.3.2 0 .3 0 .4.2l.2.4c0 .1 0 .3-.2.4v.5c0 .2 0 .4.2.5.2.2.5.2.8.2a1.5 1.5 0 001.4-.7l.2-.7c0-.2 0-.4-.2-.6 0-.2-.2-.4-.5-.7l-.6-.6a2.6 2.6 0 01-.7-1.8c0-.3 0-.6.2-1 .2-.2.4-.5.8-.7.3-.2.7-.3 1.3-.3.5 0 1 0 1.2.2l.6.5.1.5c0 .2 0 .4-.2.5a.7.7 0 01-.9 0l-.2-.4v-.4l-.1-.4-.6-.1c-.4 0-.7 0-1 .3-.2.3-.3.5-.3.9 0 .2 0 .4.2.6 0 .2.2.4.4.6l.6.7.7.7c.2.3.3.6.3 1s-.1.8-.4 1.1a2.7 2.7 0 01-2.2 1.2zm9.7 0c-.6 0-1-.1-1.5-.4-.4-.2-.7-.5-.9-1-.2-.3-.3-.8-.3-1.2a4.7 4.7 0 011.5-3.4 5 5 0 011.5-1.1c.6-.3 1.1-.4 1.8-.4.6 0 1 .1 1.5.4.4.2.7.5.9 1 .2.3.3.7.3 1.2 0 .6-.2 1.2-.4 1.8a5.3 5.3 0 01-2.6 2.7c-.5.3-1.1.4-1.8.4zm0-.4a2 2 0 001.2-.3 4 4 0 001-1l.7-1.1.5-1.4.2-1.2c0-1.2-.5-1.7-1.5-1.7-.4 0-.8 0-1.2.3l-1 .9a6.7 6.7 0 00-1.2 2.5l-.2 1.2c0 1.2.5 1.8 1.5 1.8zm11.4.4c-1 0-1.6-.3-2-.8-.5-.5-.8-1.1-.8-2 0-.6.2-1.2.4-1.8l1.2-1.5a5.3 5.3 0 013.4-1.4c.5 0 1 0 1.2.2a1.1 1.1 0 01.6 1l-.1.6-.6.2-.5-.1a.6.6 0 01-.2-.5v-.8c0-.2-.2-.2-.5-.2-.5 0-1 .1-1.3.4a4 4 0 00-1.2 1l-.8 1.5c-.2.6-.3 1-.3 1.6 0 .6.2 1.1.4 1.6.3.4.7.6 1.3.6.3 0 .6 0 .9-.2l.7-.5.7-.8.3.2a4 4 0 01-1 1.2 3 3 0 01-1.8.5zm8.3 0c-.4 0-.6 0-.7-.2a1 1 0 01-.2-.7v-.5l.2-.6 1.5-3.8.1-.5c0-.2 0-.4-.2-.4a1 1 0 00-.5-.2h-.6l.1-.4h2.8l-2.2 5.7a5.3 5.3 0 00-.1.7c0 .3 0 .4.2.4.3 0 .5-.2.8-.4l.5-.7.3.2-.8 1c-.3.2-.7.4-1.2.4zm2.3-9l-.6-.3a.8.8 0 010-1.2c.1-.2.4-.3.6-.3.3 0 .5.1.6.3.2.1.3.3.3.6 0 .2 0 .4-.3.6l-.6.2zm6 9c-.5 0-.9-.1-1.2-.3-.4-.2-.6-.5-.8-.9l-.2-1c0-.7.2-1.4.5-2a6 6 0 012.7-2.9c.6-.3 1.2-.4 1.7-.4s.9.2 1.2.5c.2.3.4.7.4 1.2l.6-1.5h1l-2 5.7a19.6 19.6 0 00-.2.7c0 .3.1.4.3.4l.7-.4.6-.7.3.2-.8 1c-.4.2-.8.4-1.2.4-.4 0-.6 0-.8-.2a1 1 0 01-.2-.7l.1-.7-1.2 1.2c-.5.3-1 .4-1.4.4zm.2-.4c.7 0 1.3-.3 1.8-.9.6-.6 1-1.3 1.5-2.3l.2-.5.3-1.5c0-.4-.1-.8-.3-1-.2-.3-.5-.5-1-.5a2 2 0 00-1.2.5c-.5.3-.9.8-1.2 1.3l-1 1.7a5 5 0 00-.2 1.7c0 .5 0 .8.3 1 .2.3.5.5.8.5zm10.5.4c-.4 0-.6 0-.7-.3a1 1 0 01-.3-.6l.1-.5.2-.6 1.8-4.9h-1v-.4h1.2l.5-1.3h1.1l-.5 1.3h1.5v.4h-1.6l-2 5.4-.1.5c0 .3.1.5.4.5l.7-.4.6-.7.3.2c-.2.4-.5.7-.9 1a2 2 0 01-1.3.4zm9.2 0c-.6 0-1-.1-1.4-.4-.4-.2-.7-.6-.8-1-.2-.4-.3-.8-.3-1.3 0-.7.1-1.3.4-1.8a5.3 5.3 0 012.5-2.6c.6-.2 1-.4 1.6-.4.6 0 1 .2 1.3.4.3.3.4.6.4 1 0 .6-.3 1.1-.9 1.5a6 6 0 01-2.4.7l-1.5.1-.2 1.4.2 1c0 .2.2.5.5.7.2.2.5.3.8.3a2 2 0 001.2-.4l.9-.9.3.3-1 1c-.4.2-1 .4-1.6.4zm2-7.1a2 2 0 00-1.1.4 5.8 5.8 0 00-1.8 2.6l1-.1 1.3-.4.9-.6a1.8 1.8 0 00.4-1.1l-.1-.6c-.1-.2-.3-.2-.6-.2zm-283.9 40.5l-.3-.2v-.3l3.3-2.2c.2 0 .2.1.3.3a6 6 0 00-.2 1.8v7.3l.1 1.6.6.3.7.1.1.3v.3a77.3 77.3 0 00-4.7-.4l.1-.2.8-.1c.4 0 .5-.2.6-.3v-7.7a6 6 0 000-1.1l-.2-.1-.3.1a8.1 8.1 0 00-1 .5zm10.6 3.3c0 1.4.2 2.7.7 3.7.4 1 1 1.5 1.7 1.5.9 0 1.5-.5 2-1.5.4-1 .6-2.3.6-3.8s-.2-2.7-.6-3.7c-.5-1-1-1.5-1.8-1.5s-1.4.5-1.9 1.5-.7 2.3-.7 3.8zm-1.7 0c0-1.7.4-3.1 1.1-4.3a3.5 3.5 0 013.1-1.7c1.3 0 2.3.6 3.1 1.7a7.5 7.5 0 011.1 4.3 8 8 0 01-1 4.2 3.5 3.5 0 01-3.2 1.8c-1.3 0-2.3-.6-3-1.8a7.5 7.5 0 01-1.2-4.2zm12.7 0c0 1.4.2 2.7.7 3.7.4 1 1 1.5 1.7 1.5.8 0 1.5-.5 2-1.5.4-1 .6-2.3.6-3.8s-.2-2.7-.6-3.7c-.5-1-1-1.5-1.8-1.5s-1.4.5-1.9 1.5-.7 2.3-.7 3.8zm-1.7 0c0-1.7.4-3.1 1.1-4.3a3.5 3.5 0 013.1-1.7c1.3 0 2.3.6 3.1 1.7a7.5 7.5 0 011.1 4.3c0 1.7-.3 3-1.1 4.2a3.5 3.5 0 01-3 1.8c-1.4 0-2.4-.6-3.2-1.8a7.5 7.5 0 01-1.1-4.2zm22.1-5.5l-1.3.1-.2.1v4.2c0 .3.5.5 1.6.5h.5c.5 0 1-.2 1.4-.6.5-.5.7-1 .7-1.8 0-1.7-.9-2.5-2.7-2.5zm.3-.8a5.3 5.3 0 012.7.7c.5.2.8.6 1.1 1a2.8 2.8 0 01-.2 3.2c-.4.7-1 1.1-1.6 1.4-.2 0-.2.1-.2.2.7 1.3 1.4 2.4 2.3 3.3 1.2 1.3 2.2 1.9 3 1.9v.5h-.5c-1.8 0-3.4-.8-4.7-2.6a24.8 24.8 0 01-1.8-2.3l-.4-.5-.4-.2a2.4 2.4 0 00-1 0l-.2.2v2.8c0 .8 0 1.3.2 1.6 0 .1.3.3.7.4l.8.1v.6l-2.5-.1h-2.3v-.5l.7-.1.6-.3.1-1.7v-8.7c-.1 0-.3-.2-.7-.2l-.7-.2-.1-.2v-.3h2.4a29.5 29.5 0 002.7 0zm11.3 11c.2.2.5.3.8.3.4 0 .7-.1 1-.3.4-.2.5-.4.5-.7v-1.9a16 16 0 01-1.7.6 2 2 0 00-.6.5 1 1 0 00-.4.7c0 .4.2.6.4.8zm1.8-6.9c.7 0 1.2.2 1.5.5.3.3.5.9.5 1.6v4.3c0 .2 0 .5.2.6.2.2.3.3.6.3l.7-.3v.7c-.6.4-1 .6-1.4.6l-.9-.3a2 2 0 01-.5-.8l-.2.1-.3.3-.5.3c-.2.2-.4.2-.7.3l-.7.1c-.6 0-1.1-.1-1.5-.4-.4-.3-.6-.8-.6-1.4 0-.3 0-.5.2-.8l.5-.6.8-.4a10.2 10.2 0 011.8-.7l.8-.3c.2 0 .2-.1.2-.2v-1.4c0-.4-.1-.7-.4-1-.2-.2-.5-.3-.9-.3s-.7.1-1 .4c-.2.2-.4.6-.4 1s-.2.6-.8.6c-.3 0-.6 0-.7-.3 0-.5.4-1 1.2-1.6.8-.5 1.7-.8 2.5-.8zm11.5 0c1 0 1.6.3 2 .9.3.6.5 1.6.5 3v1.7l.1 1.6.5.3.7.1v.6a143.3 143.3 0 00-4.2-.4l.1-.2.7-.1c.3 0 .4-.2.4-.3l.2-1.2v-1.9c0-1.2-.2-2-.5-2.4-.3-.4-.8-.6-1.5-.6a2 2 0 00-1.2.4c-.4.3-.6.6-.6.8v3.3c0 .7 0 1.3.2 1.6l.5.3.6.1.1.2v.4a143.3 143.3 0 00-4.3-.4l.1-.2.7-.1c.3 0 .5-.2.5-.3l.1-1.2v-3.6c0-.4 0-.8-.2-1a1 1 0 00-.5-.3h-.7c0-.4 0-.5.2-.5a22.5 22.5 0 002.7-.5l.1.1v1c.3-.3.7-.6 1.2-.8a3 3 0 011.5-.4zm10.7.7a2 2 0 00-1.7 1 4 4 0 00-.7 2.2c0 1 .3 1.7.8 2.4.5.6 1.2 1 2 1 .5 0 .8-.1 1-.3.3-.2.5-.5.5-.8v-4.4c0-.3-.2-.5-.5-.7-.3-.3-.7-.4-1.4-.4zm.3-.8c.5 0 1 .1 1.4.4l.2-.4v-2c0-.4 0-.8-.2-1.2 0-.2-.4-.3-1-.3h-.1l-.1-.2v-.3a15.3 15.3 0 002.4-.5l.3-.1h.4v.2l-.1 1.6v9.8l.3.2a1.7 1.7 0 00.7.1h.2v.5l-.7.1a13.3 13.3 0 00-1.8.4h-.1l-.1-.3v-.2l-.1-.1c-.7.4-1.4.6-2 .6-1.1 0-2-.4-2.8-1.1-.7-.7-1-1.6-1-2.6 0-1.2.4-2.3 1.3-3.2.9-1 1.9-1.4 3-1.4zm10.9.8a2 2 0 00-1.7 1c-.5.5-.7 1.2-.7 2.1 0 1 .3 1.9.9 2.6.5.7 1.2 1.1 1.9 1.1a2 2 0 001.7-1c.4-.5.6-1.3.6-2.1a4 4 0 00-.8-2.6c-.6-.7-1.2-1-2-1zm.2-.7c1.1 0 2.1.4 3 1.2a4 4 0 011.2 2.9 4 4 0 01-1.2 3 4 4 0 01-3 1.1 4 4 0 01-3-1.2 4 4 0 01-1.2-2.9 4 4 0 014.2-4.1zm12.8 0c.5 0 1 .1 1.3.4.3.2.5.5.6.9 1-.9 2-1.3 3-1.3 1.7 0 2.5 1.2 2.5 3.5v2c0 .8 0 1.4.2 1.7l.5.3.6.1.1.2v.4a143.3 143.3 0 00-4.3-.4l.1-.2.7-.1c.3 0 .4-.2.5-.3l.1-1.1v-2.1c0-2-.6-2.9-2-2.9a2 2 0 00-1.2.4c-.3.3-.5.5-.5.7v3.5l.2 1.5.5.3.7.1v.2c.1.2 0 .3 0 .4a143.3 143.3 0 00-4.2-.4v-.2l.8-.1c.3 0 .4-.2.5-.3v-3.2c0-2-.5-2.9-1.8-2.9a2 2 0 00-1.2.4c-.3.3-.5.6-.5.8v3.3l.1 1.6.5.3.7.1v.6a143.3 143.3 0 00-4.2-.4v-.2l.7-.1c.3 0 .5-.2.5-.3l.2-1.2v-3.6c0-.4-.1-.8-.3-1a1 1 0 00-.5-.3h-.5v-.5a21.8 21.8 0 002.8-.5l.2.1v.2l-.1.8 1.3-.8c.5-.3 1-.4 1.5-.4zm18-1c0-1 .5-1.7 1.2-2.3a4 4 0 012.7-1 5.9 5.9 0 011.4.2 26.2 26.2 0 011.5.4c.2.6.3 1.5.3 2.6l-.2.1-.5-.1c0-.6-.4-1.1-.9-1.6-.4-.5-1-.8-1.7-.8-.8 0-1.4.2-1.7.6a2 2 0 00-.5 1.3c0 .3 0 .5.2.7 0 .2.2.4.3.5 0 .2.2.4.5.5a7.6 7.6 0 001.1.8 19.4 19.4 0 001.3.8 21 21 0 011.5 1l.7.6.4.7.1.9a3 3 0 01-1.2 2.4 4 4 0 01-2.8 1h-1a15.2 15.2 0 01-2.5-.6l-.5-2.9.3-.1c.3 0 .4 0 .5.2.4 1.7 1.5 2.6 3.2 2.6.7 0 1.2-.2 1.7-.5.4-.4.7-1 .7-1.6 0-.3 0-.5-.2-.7l-.2-.5c0-.2-.2-.3-.4-.4a16.8 16.8 0 00-3.3-2 4 4 0 01-1.3-1.2 2 2 0 01-.5-.7l-.1-.9zm11.6 6.9v-4.7h-1.1l-.1-.4v-.2c.4-.1.8-.4 1.2-1a6.2 6.2 0 001-1.3l.5.1v1.9h2.6l.2.1-.2.8h-2.6v4.5c0 .5.1.9.4 1.2.3.3.6.4 1 .4s.8 0 1.2-.3l.2.1.1.3a2 2 0 01-.9.5l-1.2.3c-.7 0-1.2-.2-1.6-.6-.5-.4-.7-1-.7-1.7zm11.8-6c.8 0 1.3.3 1.5.6 0 .5 0 .8-.2 1-.1.2-.3.3-.5.3a.9.9 0 01-.6-.3 1 1 0 00-.8-.4c-.4 0-.8.2-1 .6-.4.3-.5.7-.5 1.1v2.8l.1 1.6.5.3.7.1v.2c.1.2 0 .3 0 .4a134.8 134.8 0 00-4.2-.4v-.2l.7-.1c.3 0 .5-.2.5-.3l.2-1.2v-3.6c0-.4-.1-.8-.3-1l-.5-.3h-.6l.1-.5a22.5 22.5 0 002.7-.5l.2.1v.2l-.1 1c.2-.4.5-.7 1-1 .3-.3.7-.4 1.1-.4zm7.7.8a2 2 0 00-1.6.8c-.3.6-.5 1-.5 1.4l.1.1h3.8l.1-.2c0-.4-.2-.8-.5-1.3-.4-.5-.8-.8-1.4-.8zm.2-.7c.6 0 1.1.1 1.5.3.5.2.8.5 1 .9a3.6 3.6 0 01.8 2l-.1.5-.5.1h-5c0 .9.2 1.6.7 2.2.5.7 1.2 1 2.1 1a3.9 3.9 0 002.2-.6l.1-.1c.1 0 .2 0 .2.2l-.2.4a3.6 3.6 0 01-2.7 1.3c-1.1 0-2-.4-2.8-1.1a3.9 3.9 0 01-1.2-2.9 4 4 0 011.1-3c.8-.8 1.7-1.2 2.8-1.2zm9.7.7c-.6 0-1.2.3-1.5.8-.4.6-.6 1-.6 1.4l.2.1h3.8v-.2a2 2 0 00-.5-1.3c-.3-.5-.8-.8-1.4-.8zm.2-.7c.6 0 1.1.1 1.6.3.4.2.8.5 1 .9a3.6 3.6 0 01.7 2v.5l-.5.1h-5c0 .9.2 1.6.6 2.2.5.7 1.2 1 2.2 1a3.9 3.9 0 002.2-.6v-.1c.2 0 .2 0 .2.2l-.1.4a3.6 3.6 0 01-2.8 1.3c-1 0-2-.4-2.8-1.1a3.9 3.9 0 01-1.1-2.9c0-1.3.3-2.3 1-3 .8-.8 1.7-1.2 2.8-1.2zm7 5.9v-4.7h-1.2V197.9a3 3 0 001.2-1 6.5 6.5 0 00.9-1.3l.6.1v1.9h2.5l.2.1c0 .3 0 .5-.2.8h-2.5v4.5c0 .5 0 .9.3 1.2.3.3.7.4 1 .4.5 0 .9 0 1.3-.3l.2.1v.3c-.1.2-.4.4-.8.5-.4.2-.8.3-1.3.3-.6 0-1.2-.2-1.6-.6-.4-.4-.6-1-.6-1.7zM262 219.1c0-1 .4-1.7 1.2-2.3.7-.7 1.6-1 2.6-1a5.9 5.9 0 011.4.2 26.2 26.2 0 011.6.4l.2 2.6-.2.1-.5-.1c0-.6-.4-1.1-.8-1.6-.5-.5-1.1-.8-1.8-.8-.8 0-1.3.2-1.7.6a2 2 0 00-.4 1.3l.1.7.3.5c0 .2.2.4.5.5a7.6 7.6 0 001.1.8 19.4 19.4 0 001.4.8 23.6 23.6 0 011.4 1l.7.6.4.7.2.9a3 3 0 01-1.3 2.4 4 4 0 01-2.8 1h-1a15 15 0 01-2.5-.6l-.5-2.9.3-.1c.3 0 .4 0 .5.2.5 1.7 1.5 2.6 3.2 2.6.7 0 1.2-.2 1.7-.5.4-.4.7-1 .7-1.6l-.1-.7-.3-.5c0-.2-.2-.3-.4-.4a16.8 16.8 0 00-3.3-2 4 4 0 01-1.3-1.2 2 2 0 01-.5-.7v-.9zm18.4 2.8v3.7l.1 1.4s.1.2.3.2h.3l.4.1h.2v.4l-.1.1-.7.1a6.7 6.7 0 00-1.2.3l-.4.1h-.2c-.1 0-.2 0-.2-.3v-.9c-.9.8-1.7 1.2-2.6 1.2-.4 0-.8 0-1.2-.3a2 2 0 01-.7-1 5.6 5.6 0 01-.4-2.2v-2.3c0-.4-.2-.8-.4-1a1 1 0 00-.4-.3h-.7l.1-.5a22.5 22.5 0 002.8-.5l.1.1v.2l-.1 1.4v2.5c0 1 .1 1.7.4 2.1.3.5.8.7 1.5.7.4 0 .7-.1 1.1-.4.4-.3.5-.6.5-.8v-3.5c0-.4 0-.8-.2-1a1 1 0 00-.5-.3h-.7l.1-.5a21.8 21.8 0 002.8-.5l.1.1v.2l-.1 1.4zm5.1-4a1 1 0 010-1.3c.2-.2.4-.3.7-.3.3 0 .5 0 .7.2a1 1 0 010 1.3 1 1 0 01-.7.3 1 1 0 01-.7-.3zm1.6 4v3.8c0 .7 0 1.3.2 1.6l.5.3.6.1.1.2v.4a143.3 143.3 0 00-4.3-.4v-.2l.8-.1c.3 0 .5-.2.5-.3l.1-1.2v-3.6c0-.4 0-.8-.3-1l-.4-.3h-.7l.1-.5 2.7-.5h.1l.1.1v1.7zm4.9 4v-4.6h-1.2V220.7a3 3 0 001.2-1 6 6 0 00.9-1.3l.6.1v1.9h2.5l.2.1c0 .3 0 .5-.2.8h-2.5v4.5c0 .5.1.9.4 1.2.2.3.6.4 1 .4s.8 0 1.2-.3l.2.1v.3c-.1.2-.4.4-.8.5-.4.2-.8.3-1.3.3-.6 0-1.1-.2-1.6-.6-.4-.4-.6-1-.6-1.7zm10.5-5.1a2 2 0 00-1.6.8c-.3.6-.5 1-.5 1.4l.1.1h3.8l.1-.2c0-.4-.2-.8-.5-1.3-.4-.5-.8-.8-1.4-.8zm.2-.7c.6 0 1 .1 1.5.3.5.2.8.5 1 .9a3.6 3.6 0 01.8 2l-.1.5-.5.1h-5c0 .9.2 1.6.7 2.2.5.7 1.2 1 2.1 1a3.9 3.9 0 002.2-.6l.1-.1c.1 0 .2 0 .2.2l-.2.4a3.6 3.6 0 01-2.7 1.3c-1.1 0-2-.4-2.8-1.1a3.9 3.9 0 01-1.2-2.9 4 4 0 011.1-3c.8-.8 1.7-1.2 2.8-1.2zm14-1.1l-.3-.2-.1-.3 3.4-2.2.3.3a6 6 0 00-.2 1.8v7.3l.1 1.6.6.3.7.1.1.3v.3a77.3 77.3 0 00-4.7-.4v-.2l.9-.1c.3 0 .5-.2.5-.3l.2-1v-6.7a6 6 0 00-.2-1.1l-.1-.1-.4.1a8.1 8.1 0 00-.9.5zm11 5.3c0 .9.1 1.6.6 2.3.4.7 1 1 1.6 1 .6 0 1-.3 1.5-.7a3 3 0 00.6-2c0-.8-.2-1.5-.6-2-.4-.6-1-.8-1.9-.8a2 2 0 00-1 .2l-.6.6c-.2.4-.3.9-.3 1.4zm2 4c-1.1 0-2-.4-2.7-1.2a4 4 0 01-1-2.8c0-1 .2-1.9.6-2.7.4-1 .9-1.7 1.6-2.4a12.8 12.8 0 014.7-3l.2.2.2.3c-1.3.5-2.4 1.2-3.3 2a6 6 0 00-2 3l.1.2 1-.5a4 4 0 011.3-.3c1 0 1.7.4 2.3 1.1.6.7 1 1.5 1 2.4 0 1-.5 1.9-1.3 2.6a4 4 0 01-2.7 1.1zM262 241.9c0-1 .4-1.7 1.2-2.3.7-.7 1.6-1 2.6-1a5.9 5.9 0 011.4.2 26.2 26.2 0 011.6.4l.2 2.6-.2.1-.5-.1c0-.6-.4-1.1-.8-1.6-.5-.5-1.1-.8-1.8-.8-.8 0-1.3.2-1.7.6a2 2 0 00-.4 1.3l.1.7.3.5c0 .2.2.4.5.5a7.6 7.6 0 001.1.8 19.4 19.4 0 001.4.8 23.6 23.6 0 011.4 1l.7.6.4.7.2.9a3 3 0 01-1.3 2.4 4 4 0 01-2.8 1h-1a15 15 0 01-2.5-.6l-.5-2.9.3-.1c.3 0 .4 0 .5.2.5 1.7 1.5 2.6 3.2 2.6.7 0 1.2-.2 1.7-.5.4-.4.7-1 .7-1.6l-.1-.7-.3-.5c0-.2-.2-.3-.4-.4a16.8 16.8 0 00-3.3-2 4 4 0 01-1.3-1.2 2 2 0 01-.5-.7v-.9zm14.7 1.7a2 2 0 00-1.7 1c-.4.5-.7 1.2-.7 2.1 0 1 .3 1.9.9 2.6.5.7 1.2 1.1 1.9 1.1a2 2 0 001.7-1c.4-.5.7-1.3.7-2.1a4 4 0 00-.9-2.6c-.5-.7-1.2-1-2-1zm.2-.7a4 4 0 013 1.2 4 4 0 011.2 2.9 4 4 0 01-1.2 3 4 4 0 01-3 1.1 4 4 0 01-3-1.2 4 4 0 01-1.2-2.9 4 4 0 014.2-4.1zm12.8 0c.5 0 1 .1 1.3.4.3.2.5.5.7.9 1-.9 2-1.3 3-1.3 1.6 0 2.4 1.2 2.4 3.5v2c0 .8 0 1.4.2 1.7l.5.3.6.1.1.2v.4a144.2 144.2 0 00-4.3-.4l.1-.2.7-.1c.3 0 .5-.2.5-.3l.1-1.1v-2.1c0-2-.6-2.9-2-2.9a2 2 0 00-1.2.4c-.3.3-.5.5-.5.7v3.5c0 .7.1 1.2.3 1.5 0 .1.1.2.4.3l.7.1.1.2v.4a144.2 144.2 0 00-4.3-.4v-.2l.8-.1c.3 0 .4-.2.5-.3l.1-1.2v-2c0-2-.6-2.9-1.9-2.9a2 2 0 00-1.1.4c-.4.3-.6.6-.6.8v3.3l.1 1.6.5.3.7.1v.6a144.2 144.2 0 00-4.2-.4v-.2l.7-.1c.4 0 .5-.2.5-.3l.2-1.2v-3.6c0-.4-.1-.8-.3-1a1 1 0 00-.5-.3h-.6l.1-.5a21.8 21.8 0 002.7-.5l.2.1v.2l-.1.8 1.3-.8c.5-.3 1-.4 1.5-.4zm15.2.7c-.6 0-1.1.3-1.5.8-.4.6-.5 1-.5 1.4v.1h3.9v-.2a2 2 0 00-.5-1.3c-.3-.5-.8-.8-1.4-.8zm.2-.7c.6 0 1.2.1 1.6.3.5.2.8.5 1 .9a3.6 3.6 0 01.7 2v.5l-.5.1h-5c0 .9.2 1.6.7 2.2.5.7 1.2 1 2.1 1a3.9 3.9 0 002.2-.6l.1-.1.1.2-.1.4a3.6 3.6 0 01-2.8 1.3 3.9 3.9 0 01-4-4c.1-1.3.5-2.3 1.2-3 .7-.8 1.6-1.2 2.7-1.2zm17.5 1.2c0-.4-.4-.6-1.3-.6l-.1-.2v-.3h.7a23.3 23.3 0 002.4 0h.6v.5l-.7.1a1 1 0 00-.6.6l-2.5 6.6c-.1.3-.3.4-.5.4h-.3l-2.4-5.5-2 5.1v.1l-.2.2-.3.1h-.2a61.2 61.2 0 01-2.1-5l-1.3-2.3c-.1-.3-.5-.4-1-.4l-.1-.3v-.2h.7a24.7 24.7 0 001.3 0h2v.5c-.7 0-1 .1-1 .4l.2.6a366.8 366.8 0 002 4.3 101.2 101.2 0 011.5-4.1v-.3l-.3-.4v-.1c-.1-.2-.3-.2-.4-.3l-.6-.1-.1-.2v-.3h.7a26.5 26.5 0 002.5 0h.6v.5c-.6 0-1 .2-1 .7 0 .3.8 1.8 2.2 4.6a49.2 49.2 0 011.6-4.7zm9.8-1.2c.9 0 1.5.3 1.9.9.4.6.5 1.5.5 2.7v2l.2 1.6.5.3.7.1v.6a144.2 144.2 0 00-4.2-.4l.1-.2.7-.1c.2 0 .4-.2.4-.3l.2-1.2v-2c0-1.2-.2-2-.5-2.3-.4-.4-.9-.6-1.6-.6-.4 0-.7.1-1.1.4-.4.3-.6.6-.6.8v3.3c0 .7 0 1.3.2 1.6l.5.3.6.1.1.2v.4a144.2 144.2 0 00-4.3-.4v-.2l.8-.1c.3 0 .4-.2.5-.3l.1-1.2v-8l-.1-1.3c0-.2-.4-.3-1-.3h-.2v-.5a15.5 15.5 0 002.4-.5l.2-.1h.3l.1.2-.2 1.6v4.2h.1c.3-.4.7-.6 1.2-1l1.5-.3zm10.2.7c-.7 0-1.2.3-1.5.8-.4.6-.6 1-.6 1.4l.2.1h3.7l.1-.2a2 2 0 00-.5-1.3c-.3-.5-.8-.8-1.4-.8zm.2-.7c.6 0 1.1.1 1.6.3.4.2.8.5 1 .9a3.6 3.6 0 01.7 2l-.1.5-.5.1h-5c0 .9.2 1.6.7 2.2.5.7 1.2 1 2.2 1a3.9 3.9 0 002.1-.6l.2-.1.1.2-.1.4a3.7 3.7 0 01-2.8 1.3c-1 0-2-.4-2.8-1.1a3.9 3.9 0 01-1.1-2.9c0-1.3.3-2.3 1-3 .8-.8 1.7-1.2 2.8-1.2zm11 0c.8 0 1.3.2 1.6.5 0 .5 0 .8-.2 1-.2.2-.3.3-.5.3a.9.9 0 01-.7-.3 1 1 0 00-.8-.4c-.4 0-.7.2-1 .6-.3.3-.5.7-.5 1.1v2.8c0 .7 0 1.3.2 1.6l.5.3.7.1v.6a134.8 134.8 0 00-4.3-.4l.1-.2.7-.1c.3 0 .5-.2.5-.3l.1-1.2v-3.6c0-.4 0-.8-.2-1l-.5-.3h-.7c0-.4 0-.5.2-.5a22.5 22.5 0 002.7-.5l.1.1v1.2c.1-.4.5-.7.9-1a2 2 0 011.2-.4zm7.7.7c-.6 0-1.1.3-1.5.8-.4.6-.5 1-.5 1.4v.1h3.9v-.2a2 2 0 00-.5-1.3c-.3-.5-.8-.8-1.4-.8zm.2-.7c.6 0 1.2.1 1.6.3.5.2.8.5 1 .9a3.6 3.6 0 01.7 2v.5l-.5.1h-5c0 .9.2 1.6.7 2.2.4.7 1.2 1 2.1 1a3.9 3.9 0 002.2-.6l.1-.1.1.2-.1.4a3.6 3.6 0 01-2.8 1.3c-1 0-2-.4-2.8-1.1a3.9 3.9 0 01-1.1-2.9c0-1.3.4-2.3 1-3 .8-.8 1.7-1.2 2.8-1.2zm7.7 8.4c0-.3 0-.6-.3-1l-.3-.7c0-.3.2-.5.5-.7a1.7 1.7 0 011.4-.2c.2.2.2.6.2 1.2v.4c-.2.9-.4 1.5-.8 2-.3.5-.8 1-1.7 1.7l-.2-.1c-.2-.1-.2-.2-.2-.3l.2-.2.5-.5c.2-.1.3-.4.5-.7l.2-1zm12.6-12.5h2.5v.5h-.5c-.1 0-.3 0-.5.2l-.2.4a47.5 47.5 0 003.6 8l2.9-6.6.3-1.3c0-.2 0-.3-.3-.5l-.6-.2h-.4l-.1-.3v-.3a76.5 76.5 0 004.2.3l-.1.3c-.6 0-1 .1-1.2.5l-1 1.9-3.8 8.9c-.2.4-.4.6-.7.6l-.2-.1-4-9.6-.8-1.8c-.1-.2-.3-.3-.6-.3l-.7-.1v-.6a46.2 46.2 0 012.2.1zm19.7-.1h.1l4 9.9.5 1.3c0 .2.3.3.6.4.3.2.6.2.7.2v.6a110.2 110.2 0 00-4.4-.4v-.2h.7l.4-.3V249.3l-.2-.5v-.2l-.9-2v-.2a21.3 21.3 0 00-4 0l-.1.1-.8 2-.4 1.3c0 .2 0 .3.2.4l.5.2.6.1v.6a288.5 288.5 0 00-2.6-.1h-1.4v-.5h.6l.5-.3 1-1.8 3.3-8.3.1-.3a5.4 5.4 0 01.3-.5v-.3l.2-.1.2-.2h.3zm-2.1 6.7a44.5 44.5 0 003.1 0l-1.5-4.2-1.6 4.2zm17.8-.5l1-5.5c2.5 0 4-.1 4.5-.2l.1.4v1l-2.3.2H419v.2l-.7 3a4.7 4.7 0 014.6.7c.7.7 1 1.5 1 2.5 0 1.1-.3 2-1.2 2.8-.8.7-1.8 1-3.1 1a5 5 0 01-2.6-.5c-.1 0-.2-.2-.2-.5 0-.6.2-.9.7-.9l.4.2.4.3.4.4c.3.2.8.3 1.5.3.5 0 1-.2 1.5-.6.4-.4.6-1.1.6-2l-.1-1a3 3 0 00-.5-.8 2 2 0 00-.8-.7l-1.4-.2a6 6 0 00-1.7.2l-.4-.3zm16.3-5.9l.2.2v7.5h1.2c.2 0 .3.3.3.9v.2h-1.5v3.2l-.8.1-.7-.1v-3.2h-5v-.6l5.8-8 .5-.2zm-4.9 7.7h3.6v-5l-.1-.1-3.6 4.9.1.2zm13.7-7.6c.6 0 1 .2 1.6.6a2.3 2.3 0 01.3 3.2c-.2.3-.6.7-1.1 1a5 5 0 011.8 1.2c.6.6.9 1.3.9 2a4 4 0 01-1.3 3 5.9 5.9 0 01-5.8.4c-.1 0-.2-.2-.2-.5 0-.6.3-.9.8-.9 0 0 .2 0 .3.2l.4.3.4.4c.4.2.9.3 1.5.3.5 0 1-.2 1.5-.6.5-.4.7-1.1.7-2 0-.8-.2-1.4-.7-1.9-.5-.5-1.1-.8-1.8-.8-.4 0-.9 0-1.2.2l-.2-.5v-.2c1-.1 1.7-.4 2.2-.9.5-.4.8-1 .8-1.8 0-.4-.2-.8-.5-1.1-.3-.4-.7-.5-1.2-.5a2.2 2.2 0 00-1.3.4 3.2 3.2 0 00-.6.5l-.1-.1-.1-.4 1.2-1.1c.4-.3 1-.4 1.7-.4zm11.1 0c.9 0 1.6.3 2 1 .6.5.8 1.2.8 2 0 .5 0 1-.2 1.4-.2.5-.4 1-.8 1.5a57.8 57.8 0 01-2 2.7 235.8 235.8 0 00-2 2h3.8c.4 0 .6-.1.8-.3l.5-1.2c0-.1.1-.2.3-.2l.3.1a70 70 0 00-.5 2.6c0 .2-.2.3-.4.3h-6.4l-.1-.2v-.4c1.3-1.3 2.5-2.7 3.5-4.2a7 7 0 001.5-3.7c0-.7-.1-1.2-.5-1.6a2 2 0 00-1.4-.5c-1 0-1.9.5-2.5 1.5l-.3-.1-.1-.2.3-.6.7-.8a4 4 0 012.7-1.1zm8.6 2.7l-.2-.2-.2-.3 3.4-2.2c.2 0 .3.1.3.3a6 6 0 00-.2 1.8v7.3c0 .7 0 1.3.2 1.6l.5.3.8.1v.6a77.3 77.3 0 00-4.6-.4v-.2l.8-.1c.4 0 .6-.2.6-.3l.1-1v-6.7a6 6 0 00-.1-1.1l-.2-.1-.3.1a8.1 8.1 0 00-.9.5zm-200 39.8a78 78 0 007.8-.2l.4 2.6-.5.1h-.2c-.1-.7-.4-1.2-.6-1.4-.3-.2-.8-.3-1.5-.3-1.4 0-2.1 0-2.2.3l-.1 1.8v6.7l.1 1.8.6.2.7.1v.6a87.5 87.5 0 00-4.6-.3v-.3h.8l.5-.3.2-1.7v-6.7c0-1 0-1.7-.2-2-.1-.1-.8-.2-2.1-.2-.7 0-1.2.1-1.5.3-.3.2-.5.7-.7 1.4h-.6l.3-2.7 1.4.2h2zm14.7 4.8a2 2 0 00-1.6.8c-.3.6-.5 1-.5 1.4l.1.1h3.8l.1-.2c0-.4-.2-.8-.5-1.3-.4-.5-.8-.8-1.4-.8zm.2-.7c.6 0 1 .1 1.5.3.5.3.8.5 1 .9a3.6 3.6 0 01.8 2l-.1.5-.5.1h-4.9l-.1.1c0 .8.2 1.5.7 2.2.5.6 1.2 1 2.1 1a3.9 3.9 0 002.2-.7l.1-.1c.1 0 .2 0 .2.2l-.2.4a3.6 3.6 0 01-2.7 1.3c-1.1 0-2-.4-2.8-1.1a3.9 3.9 0 01-1.2-2.9 4 4 0 011.1-3c.8-.8 1.7-1.2 2.8-1.2zm7 6v-9.3c-.1-.2-.5-.3-1-.3h-.2c-.1 0-.2 0-.2-.2s0-.3.2-.3a15.1 15.1 0 001.8-.3 12 12 0 00.8-.3h.4v.2l-.2 1.6v8.5c0 .7 0 1.3.2 1.7l.5.2.6.1.1.3v.3a143.3 143.3 0 00-4.3-.3l.1-.3h.7l.5-.3.1-1.3zm6.3 2a1 1 0 01-.3-.7c0-.3 0-.6.3-.8.2-.2.5-.3.8-.3.3 0 .6.1.8.3.2.2.3.5.3.8 0 .3 0 .5-.3.7a1 1 0 01-.8.4 1 1 0 01-.8-.4zm15.4-.4a2 2 0 001.5-.5c.4-.4.6-1 .6-1.5a2 2 0 00-.4-1.1l-.8-1a9.9 9.9 0 00-1.4-.9h-.1c-.6.3-1 .7-1.2 1.1-.2.4-.3 1-.3 1.5 0 .7.2 1.3.6 1.7.4.5 1 .7 1.5.7zm0-10.8c-.5 0-.9.2-1.2.6-.3.4-.5 1-.5 1.6 0 .8.7 1.6 2 2.4h.3a2.6 2.6 0 00.7-3.9c-.3-.4-.8-.7-1.3-.7zm0-.6c1 0 1.7.2 2.4.8.6.5.9 1.1.9 2 0 1-.7 1.8-2.2 2.7v.1c.7.4 1.3.9 1.8 1.4.5.6.7 1.2.7 1.8a3 3 0 01-1 2.3 4 4 0 01-2.7 1c-1 0-2-.3-2.6-.9a2.7 2.7 0 01-.8-3l.2-.4.3-.4.3-.3a9 9 0 011.3-1h.2c.1-.1.1-.2 0-.2-.5-.3-1-.7-1.3-1.2-.4-.5-.6-1-.6-1.7 0-.8.3-1.5 1-2.1a3 3 0 012.2-1zm8.8 8c0 .9.2 1.6.7 2.3.4.7 1 1 1.6 1 .6 0 1-.2 1.5-.7a3 3 0 00.6-2c0-.8-.2-1.5-.6-2-.4-.5-1-.8-1.9-.8a2 2 0 00-1 .3 1 1 0 00-.6.5c-.2.4-.3.9-.3 1.4zm2 4c-1 0-2-.4-2.6-1.2a4 4 0 01-1-2.8c0-1 .1-1.8.6-2.7.4-1 .9-1.7 1.6-2.4a12.8 12.8 0 014.7-3l.2.2.2.3c-1.3.6-2.4 1.2-3.3 2a6 6 0 00-2 3l.1.2 1-.5a4 4 0 011.3-.3c1 0 1.7.4 2.3 1.1.6.7 1 1.5 1 2.4 0 1-.5 1.9-1.3 2.6a4 4 0 01-2.7 1.1zm13.7-10.3h-4.6c-.3 0-.5 0-.6.2a2 2 0 00-.4.5l-.2.7-.3.1a1 1 0 01-.4 0 149.2 149.2 0 00.9-3h7v.4a14.2 14.2 0 01-.5 1l-5.1 10.4h-.2c-.2 0-.3 0-.5-.2l-.2-.3 5.1-9.8zm4.9 6.3c0-.6 0-1 .2-1l4.7-.2.2.2-.1.7-.1.3h-.1l-4.7.2-.1-.2zm9.5-2.1l1-5.6c2.5 0 4-.1 4.5-.2l.1.4-.1 1c-.4.1-1 .2-2.2.2h-1.7l-.1.2-.6 3c.4-.2 1-.2 1.8-.2 1 0 2 .3 2.7 1a3 3 0 011.1 2.4c0 1.1-.4 2-1.2 2.8-.8.7-1.9 1.1-3.2 1.1a5 5 0 01-2.6-.5l-.2-.6c0-.6.3-.9.8-.9 0 0 .2 0 .3.2l.4.3.4.4c.4.2.9.4 1.6.4.5 0 1-.3 1.4-.7.5-.4.7-1.1.7-2 0-.4 0-.7-.2-1a3 3 0 00-.4-.8 2 2 0 00-.9-.6c-.4-.2-.8-.3-1.4-.3a6 6 0 00-1.6.2l-.4-.2zm14.1-5.9c.6 0 1 .2 1.6.7.5.4.8 1 .8 1.7 0 .5-.2 1-.5 1.4-.2.3-.6.7-1.1 1a5 5 0 011.8 1.3c.6.5.9 1.2.9 2 0 1.2-.5 2.1-1.3 2.8-.9.7-2 1.1-3.3 1.1-1 0-1.9-.2-2.5-.5l-.2-.6c0-.6.3-.9.8-.9 0 0 .2 0 .3.2l.4.3.4.4c.4.2.9.4 1.5.4.5 0 1-.3 1.5-.7.5-.4.7-1 .7-2 0-.8-.2-1.4-.7-1.9-.5-.5-1.1-.7-1.8-.7H357l-.2-.4v-.2c1-.1 1.7-.4 2.2-.9.5-.4.8-1 .8-1.8 0-.4-.2-.8-.5-1.1-.3-.3-.7-.5-1.2-.5a2.2 2.2 0 00-1.3.4 3.2 3.2 0 00-.6.5l-.1-.1-.1-.3c.4-.5.8-1 1.2-1.2.4-.3 1-.4 1.7-.4zm8.3 6c0 1.5.3 2.7.7 3.7.5 1 1 1.6 1.8 1.6s1.4-.6 1.9-1.6.7-2.3.7-3.8-.2-2.7-.7-3.7c-.4-1-1-1.5-1.7-1.5-.8 0-1.5.5-2 1.5-.4 1-.7 2.3-.7 3.8zm-1.7 0c0-1.7.4-3.1 1.2-4.3a3.5 3.5 0 013-1.7c1.4 0 2.4.6 3.1 1.7a7.5 7.5 0 011.2 4.3c0 1.7-.4 3-1.2 4.2a3.5 3.5 0 01-3 1.8c-1.3 0-2.4-.6-3.1-1.8a7.5 7.5 0 01-1.2-4.2zm17.4-2a4 4 0 00-.7-2.4c-.4-.6-1-1-1.6-1-.6 0-1 .3-1.5.8a3 3 0 00-.6 2c0 .7.3 1.4.7 2 .4.5 1 .7 1.8.7.4 0 .7 0 1-.2l.6-.6c.2-.4.3-.8.3-1.4zm-2-4c1 0 2 .3 2.6 1.1a4 4 0 011 2.8c0 1-.1 1.9-.6 2.8-.4 1-.9 1.7-1.5 2.4l-2.1 1.8a9 9 0 01-2.2 1.1s-.2 0-.3-.2l-.1-.3a8.4 8.4 0 004.8-4.9v-.2h-.1a2 2 0 01-1 .4l-1.1.3c-1 0-1.8-.4-2.4-1a3.5 3.5 0 01.2-5 4 4 0 012.8-1.2zm-118.1 22.5a98.9 98.9 0 006.3-.1 16.8 16.8 0 00.5 2.5l-.3.1-.3-.1c-.2-.7-.5-1.1-.8-1.3-.4-.2-.8-.3-1.4-.3h-1.3c-1.2 0-1.7 0-1.8.2v4.6l.8.1h1c.9 0 1.4 0 1.6-.2.2 0 .4-.4.5-1v-.1c0-.1.1-.2.3-.2l.4.1v3.6l-.4.1c-.1 0-.2 0-.3-.2a12.6 12.6 0 00-.4-1l-.1-.1c-.2-.1-.9-.2-2-.2-1 0-1.5 0-1.5.2v3l.2 1.7.6.2.7.1v.6a87.5 87.5 0 00-4.7-.3l.1-.3h.8l.5-.3.2-1.7v-7.2c0-.7 0-1.2-.2-1.5l-.5-.3-.8-.2v-.5h2.3zm11.8 11l.9.3a2 2 0 001-.3c.3-.2.5-.4.5-.6v-2a16 16 0 01-1.7.6 2 2 0 00-.7.5 1 1 0 00-.3.7c0 .4.1.6.3.8zm1.9-6.9c.7 0 1.2.2 1.5.5.3.3.5.9.5 1.6v4.3c0 .2 0 .5.2.6.1.2.3.3.6.3.1 0 .4 0 .6-.3l.1.2v.4c-.6.4-1 .6-1.4.6-.3 0-.6 0-.9-.3a2 2 0 01-.6-.8l-.1.2-.3.2-.5.4-.7.2-.8.1c-.6 0-1-.1-1.4-.4-.4-.3-.6-.8-.6-1.4 0-.2 0-.5.2-.7.1-.3.3-.5.5-.6l.8-.5a10.2 10.2 0 011.8-.7l.8-.3c.1 0 .2 0 .2-.2v-1.4c0-.4-.1-.7-.4-1-.2-.2-.6-.3-1-.3-.3 0-.6.2-.9.4-.3.3-.4.6-.4 1s-.3.7-.8.7a.8.8 0 01-.7-.4c0-.5.4-1 1.2-1.6.8-.5 1.6-.8 2.5-.8zm5.5.6v-.5a217 217 0 004 .2v.3c-.5 0-.8.1-.8.3l.1.2 1.3 2a28 28 0 011.1-1.8l.2-.4s-.1-.2-.3-.2h-.5l-.3-.1v-.5a300.5 300.5 0 003.9.2v.3c-1 .1-1.5.3-1.8.6L287 312v.4l2.1 3c.4.4 1 .7 1.7.7v.6a388 388 0 00-4-.3v-.3c.5 0 .8-.1.8-.3v-.1l-1.5-2.2-1.3 1.9-.2.3c0 .2.4.4 1 .4h.1v.6a217 217 0 00-3.9-.3l.1-.3a2 2 0 001.7-.8l2-2.5V312.5l-2-2.8c0-.1-.3-.3-.7-.4l-.9-.2zm11.9 7.4a1 1 0 01-.4-.7c0-.3.2-.6.4-.8.2-.2.5-.3.8-.3.3 0 .6.1.8.3.2.2.3.5.3.8 0 .3-.1.5-.3.7a1 1 0 01-.8.4 1 1 0 01-.8-.4zm12.4-6l1-5.5c2.5 0 4-.1 4.5-.2l.1.4v1l-2.3.2h-1.7l-.1.2-.6 3c.5-.2 1-.2 1.9-.2 1 0 1.9.3 2.6 1 .8.7 1.2 1.5 1.2 2.4 0 1.1-.4 2-1.3 2.8-.8.7-1.9 1.1-3.1 1.1a5 5 0 01-2.6-.5c-.2-.1-.2-.3-.2-.6 0-.6.2-.9.7-.9l.4.2.4.3.3.4c.4.2 1 .4 1.6.4.5 0 1-.3 1.5-.7.4-.4.6-1.1.6-2l-.1-1a3 3 0 00-.5-.8 2 2 0 00-.9-.6c-.3-.2-.8-.3-1.3-.3a6 6 0 00-1.7.2l-.4-.2zm11 0l1-5.5c2.5 0 4-.1 4.5-.2l.1.4v1c-.4.1-1.1.2-2.3.2h-1.7v.2l-.7 3c.5-.2 1-.2 1.9-.2 1 0 1.9.3 2.7 1 .7.7 1 1.5 1 2.4 0 1.1-.3 2-1.2 2.8-.8.7-1.8 1.1-3.1 1.1a5 5 0 01-2.6-.5l-.2-.6c0-.6.2-.9.7-.9l.4.2.4.3.4.4c.3.2.8.4 1.5.4.5 0 1-.3 1.5-.7.4-.4.6-1.1.6-2l-.1-1a3 3 0 00-.5-.8 2 2 0 00-.8-.6c-.4-.2-.9-.3-1.4-.3a6 6 0 00-1.7.2l-.4-.2zm11 0l1-5.5c2.5 0 4-.1 4.5-.2l.2.4c0 .3 0 .6-.2 1-.3.1-1 .2-2.2.2H330l-.2.2-.5 3c.4-.2 1-.2 1.8-.2 1 0 2 .3 2.7 1 .7.7 1.1 1.5 1.1 2.4 0 1.1-.4 2-1.3 2.8-.8.7-1.8 1.1-3.1 1.1a5 5 0 01-2.6-.5l-.2-.6c0-.6.2-.9.7-.9.1 0 .3 0 .4.2l.4.3.4.4c.3.2.9.4 1.5.4s1-.3 1.5-.7c.4-.4.6-1.1.6-2l-.1-1a3 3 0 00-.4-.8 2 2 0 00-1-.6c-.3-.2-.8-.3-1.3-.3a6 6 0 00-1.7.2l-.3-.2zm10.4 2.2c0-.6.1-1 .3-1l4.7-.2.1.2v.7l-.2.3-4.7.2h-.1v-.2zm12.8-8c.8 0 1.5.3 2 1 .5.5.7 1.2.7 2 0 .5 0 1-.2 1.4-.2.5-.4 1-.8 1.5a57.8 57.8 0 01-2 2.7 235.8 235.8 0 00-2 2h3.8c.4 0 .6-.1.8-.3.2-.2.3-.6.5-1.2 0 0 .1-.2.3-.2l.3.1a70 70 0 00-.5 2.6c0 .2-.1.3-.4.3h-6.3c-.1 0-.2 0-.2-.2v-.4c1.3-1.3 2.6-2.7 3.6-4.2a7 7 0 001.5-3.7c0-.7-.2-1.2-.5-1.6-.4-.3-.9-.5-1.4-.5-1.1 0-2 .5-2.6 1.5h-.2l-.2-.3.4-.6.6-.8a4 4 0 012.8-1.1zm10.8 0c.6 0 1.1.2 1.6.7.5.4.8 1 .8 1.7 0 .5-.1 1-.4 1.4l-1.2 1a5 5 0 011.9 1.3c.5.5.8 1.2.8 2 0 1.2-.4 2.1-1.3 2.8-.9.7-2 1.1-3.2 1.1-1.1 0-2-.2-2.5-.5-.2-.1-.2-.3-.2-.6 0-.6.2-.9.7-.9.1 0 .2 0 .3.2.2 0 .3.2.4.3l.4.4c.4.2.9.4 1.5.4s1-.3 1.5-.7c.5-.4.7-1 .7-2 0-.8-.2-1.4-.7-1.9-.5-.5-1-.7-1.7-.7a5 5 0 00-1.3 0l-.1-.4v-.2c1-.1 1.6-.4 2.1-.9.6-.4.8-1 .8-1.8 0-.4-.1-.8-.5-1.1-.3-.3-.7-.5-1.1-.5a2.2 2.2 0 00-1.4.4 3 3 0 00-.3.3l-.2.2-.2-.1v-.3c.3-.5.7-1 1.1-1.2a3 3 0 011.7-.4zm8.7 8c0 .9.2 1.6.7 2.3.4.7 1 1 1.6 1 .6 0 1-.2 1.5-.7a3 3 0 00.6-2c0-.8-.2-1.5-.6-2-.4-.5-1-.8-1.9-.8a2 2 0 00-1 .3 1 1 0 00-.6.5c-.2.4-.3.9-.3 1.4zm2 4c-1 0-2-.4-2.6-1.2a4 4 0 01-1-2.8c0-1 .1-1.8.5-2.7.5-1 1-1.7 1.7-2.4a12.8 12.8 0 014.7-3l.2.2.2.3c-1.3.6-2.4 1.2-3.3 2a6 6 0 00-2 3l.1.2 1-.5a4 4 0 011.3-.3c1 0 1.7.4 2.3 1.1.6.7 1 1.5 1 2.4 0 1-.5 1.9-1.3 2.6a4 4 0 01-2.7 1.1zm11.2-.6a2 2 0 001.5-.5c.4-.4.6-1 .6-1.5a2 2 0 00-.4-1.1l-.8-1a9.9 9.9 0 00-1.4-.9h-.1c-.6.3-1 .7-1.2 1.1-.2.4-.4 1-.4 1.5 0 .7.3 1.3.7 1.7.4.5 1 .7 1.5.7zm0-10.8c-.5 0-1 .2-1.2.6-.4.4-.5 1-.5 1.6 0 .8.7 1.6 2 2.4h.2a2.6 2.6 0 00.8-3.9c-.3-.4-.8-.7-1.3-.7zm0-.6c1 0 1.7.2 2.3.8.7.5 1 1.1 1 2 0 1-.8 1.8-2.2 2.7-.1 0-.1 0 0 .1.7.4 1.2.9 1.8 1.4.5.6.7 1.2.7 1.8a3 3 0 01-1 2.3 4 4 0 01-2.7 1c-1 0-2-.3-2.6-.9a2.7 2.7 0 01-.8-3l.2-.4.3-.4.3-.3a9 9 0 011.3-1h.2c.1-.1.1-.2 0-.2-.5-.3-1-.7-1.3-1.2-.4-.5-.7-1-.7-1.7a3 3 0 011-2.1c.7-.6 1.4-1 2.3-1z" style="fill:#333;line-height:27.5132px;white-space:pre"/>
  <rect width="3.2" height="135.2" x="228.6" y="31.8" style="fill:#0a0909"/>
</svg>
