<svg viewBox="0 0 322 208" fill="none" xmlns="http://www.w3.org/2000/svg">
  <g>
    <rect width="322" height="208" fill="#fff"/>
    <path d="M206.7 194.8a56.6 56.6 0 01-20.8-48c1.1-10.6 5.5-20.2 12.2-28.3-21.5 5.4-36.5 16.9-38 31.6-2 18.3 17.7 36 46.6 44.7z" fill="#FB746D"/>
    <ellipse cx="161" cy="90" rx="148" ry="83" fill="#EF473E"/>
    <g filter="url(#filter0_d)" fill="#fff">
      <path d="M121.4 39.6a33.6 33.6 0 01-.2-4v-.4a6 6 0 000-.8l.1-.4v-1l.1-1v-2.1-.2-.4-.5-.5h-.5a4 4 0 00-.8-.1h-.5a5 5 0 00-.8 0v1.4l.1.5v8.4l-.1 1v1.3h.8a30 30 0 011.9-.2v-1z"/>
      <path d="M130.7 30.2h1.4v.2l.2 1.2.1.5.1.6.3 1a4 4 0 000 .4l.4 1.6v.1l.7 3v.3l.1.3.1.4.4 1.4c0 .4.2.5.2.6.8 0 1.6-.2 2.3-.4v-.2h.1V41l.3-.6v-.1l.1-.1 1-2.9.4-.9.4-1 .7-1.4v.1l.1.2v.3a4 4 0 00.2.3l.2.9 1 3.7.3.6.1.6.4 1.1.5-.1.8-.2h.7l.1-.7v-.2l.1-.1.1-.4.1-.4v-.3l.2-.4V39v-.2l.2-.7a3.9 3.9 0 01.1-.4l1.3-5.3.6-2.7a22.7 22.7 0 01.1-1v-.3-.2h-.3l-.6-.1a13.8 13.8 0 00-1.4 0l-.6.1-.1.6V29l-1.1 4.7-.2.5-.2 1.4v.3l-1.5-4.6-.1-.4v-.2l-.1-.2-.2-.3h-.6a44.4 44.4 0 00-1 .3l-.1.2-.2.4v.3l-.2.4a23.7 23.7 0 00-.5 1l-.5 1.4-.2.4s0 .2-.2.3l-1 2.2-.4-2.3-.7-4.2-.3-1.6v-.7l-.1-.5a128 128 0 00-4.2.1l.1 2.3z"/>
      <path d="M155.3 35.7a4 4 0 00-.4 0h-.4-.2-.4a19.2 19.2 0 00-1.8 0h-.3l.5-2.5.3-1.4a3.5 3.5 0 01.2-1.3v-.1a2.6 2.6 0 00.1-.3l.6-2 .3-.8.1.2.2.3V28.7l.1.6v.5l.1.4v.4a1.4 1.4 0 00.1.5l.2.9.1.7v.2l.2.6v.2l.2.8v.2l.2 1zm3.4 2.9v-.4-.3-.4-.4-.2l-.1-.2-.1-.5-.1-.5-.1-.4v-.1l-.1-.2-.3-1-.2-.6v-.8l-.2-1v-1.4-.3l-.1-.3-.1-.6-.4-2 .1-.1h.7a9.4 9.4 0 001.3 0l.7-.2c.2 0 .4-.1.4-.3l.2-.7v-.8-.6h-1.1l-.4.1h-1.3a8 8 0 00-.6 0H155.2l-.5.1-1 .1a7 7 0 01-1 .1h-.7-.1-.8a16.9 16.9 0 00-2.1 0h-.6c-.1 0-.2 0-.2.2v.2l-.2 1.5.1.3h3.8l.1.2-.1.6-.2.5v.3l-.1.2v.2l-.2.6-.1.4-.1.3-.2.8-.2 1v.4l-.2.7-.3 1.2-.2 1.5a41 41 0 01-.2.8l-.2 1.3-.1.7-.1.4a3 3 0 000 .6l.1.3h2.2l.2-.4.1-.4V38.2l.1-.5s.1-.2.3-.2H154.4l.2-.1H155.5l.2.9v1l.2.6a81.5 81.5 0 012.9-.4l-.1-1z"/>
      <path d="M167 28c-.2 0-.2.1-.2.2a26.2 26.2 0 000 2.1v2.4l.1.3v2.7l-.3-.8-.9-2.2-.6-1.9-.3-.5-.2-.6-.4-1c-.1-.4-.3-.5-.4-.5h-2.6v.6a13.3 13.3 0 000 1.4v.5a55.5 55.5 0 00.2 4.1V42.8h.1l.1.1h.5a17.4 17.4 0 011 0l.5-.1.2-.2.1-.7v-.3V39.4v-.7V35v-.3-1l1.7 3.5.1.4.2.3 1.4 3c0 .2.2.3.3.4a2 2 0 00.9 0h1.2l.1-.6v-2.2-.4-.5a43.5 43.5 0 01.2-1.4V36v-.3-.8-.6-.9-1-1-.3V30a17.4 17.4 0 01-.1-1.7l-3-.2z"/>
      <path d="M179.4 24.1a37.4 37.4 0 00-2.5 0h-1.3a71.6 71.6 0 01-4.7 0h-.6c-.3 0-.4 0-.5.2l-.2.5v1.9h.4l.6.1h1.4l1 .1v9.8a21.7 21.7 0 010 1.8v.5c0 .4 0 .6.2.7l.4.1h1.2a9 9 0 001-.2c.2 0 .3-.1.3-.2v-.7-1.2-.3-.6-.3V35.7v-.2-.6l-.1-.3v-.2-.5-1.3-.1-2-.3-3.3h.5l.6-.1h2.3v-2.7z"/>
      <path d="M192.7 24.1a37.4 37.4 0 00-2.5 0H189a71.6 71.6 0 01-4.7 0h-.6c-.3 0-.4 0-.5.2l-.2.5v1.9h.4l.6.1h1.4l1.1.1v8.4l-.1 1v.4a21.7 21.7 0 010 1.8v.5c0 .4 0 .6.2.7l.4.1h1.2a9 9 0 001-.2c.2 0 .3-.1.3-.2v-.7-1.2-.3-.6-.3V35.7v-.2-.6l-.1-.3v-.2-.5-1.3-.1-2-.3-3.3h.5l.6-.1h2.3v-2.7z"/>
      <path d="M195.7 33.2v-.5-.8-.7l.3-.5.5-.4a2.4 2.4 0 011-.1h.3c.7 0 1 0 1.4.3.2.2.4.6.4 1.2v1.4a9.2 9.2 0 000 1.2v.6l.1.3v1.6l-.2.8c0 .3-.2.5-.4.7l-.8.3h-.7a6 6 0 01-.8 0l-.5-.1a.8.8 0 01-.2-.4 3 3 0 01-.2-.5V37.3v-.4-.9l-.1-.2v-.3-.2-.5-.5-1.1zm2.6-5.4a17.8 17.8 0 00-3.7.5l-.6.2c-.7.3-1 .7-1.2 1.2l-.2.6v.3l-.1.3v.5l-.1.2v1.1l-.1 1V37l.2 1 .1.4c.3.6.5 1 .9 1.4.3.3.8.6 1.2.7l1.4.3 1.6.1c1 0 1.9-.1 2.6-.4a3 3 0 002-2.3l.1-.9v-.1a13.3 13.3 0 010-1.5v-2.2-.4-.5-.6V31.1a11.3 11.3 0 00-.1-.5l-.1-.3c-.1-.5-.3-.9-.6-1.3s-.6-.6-1-.8h-.2a22.9 22.9 0 00-2-.4z"/>
      <path d="M56.7 57.9v1.6l.2 1.4.1 1.4v.9c.2.3.2.6.2 1V66l.1.2.2.1h.2a942.8 942.8 0 012.5-.4v-.2-.2-.4-.5l-.4-1.2a3.4 3.4 0 01-.2-1.2l-.2-1.5a20.4 20.4 0 00-.2-3.6l-.1-1.2-.1-.6-.1-.7V54a116.3 116.3 0 00-.2-1.4l-1.4.1-1.2.1a6 6 0 00-.4 1.4c0 .5-.2 1-.4 1.5l-.3 1-.4 1.4L54 60l-.1.2v.3h-.1l-.5-1.7v-.4l-.2-.4-.4-1.4v-.2-.2l-.4-1.2a33.2 33.2 0 01-.4-1.9V53a14.2 14.2 0 00-.2-.8h-.3a40.7 40.7 0 00-7 .1 12.3 12.3 0 010 2h1.3l.3-.1H48.5a22.8 22.8 0 010 1.7v.6a43.7 43.7 0 01-.3 1.6v1l-.1.9V61.5l-.2 1V64a11.5 11.5 0 00-.1 2.3h.9a111.6 111.6 0 001.3-.2v-1a77 77 0 01.2-1.8v-.4a3.8 3.8 0 010-.8v-.7a26.1 26.1 0 01.3-4l.2.2v.6a464.4 464.4 0 00.2.7l.3 1.4a6.1 6.1 0 00.2 1l.6 3a112 112 0 00.5 1.3h1c.2 0 .4-.1.5-.3.2-.1.3-.4.4-.7l.4-1.3 1.2-3.6.6-2v.2z"/>
      <path d="M66.7 64.9h-1.1l.2-1.1v-.2l.1-.2.4-1.5v-.7l.3-.6.5-2a9.6 9.6 0 01.1-.5l.3.5v.5l.1.3a4 4 0 00.1.3l.2 1a4 4 0 00.1.3l.2.7v.2l.1.2.2.7a4 4 0 000 .4l.1.2.1.3v.3l.2.5v.2l.1.2h-2.3zm-4.5-9.5v.6l-.2.6v1.2a15 15 0 002-.1H65l-.1.6V58.6l-.3.8-.4 1.6-.2.8-.4 1.8a3.9 3.9 0 00-.2.8l-.5 2.6v.4l-.2.4v.4a40 40 0 01-.3 1.2v.1s.1.2.3.2l.5.2h.6l.5.1c.4 0 .6 0 .7-.3.2-.1.3-.5.3-1l.1-.5a200 200 0 00.1-.4l.1-.5.2-.6h.5a7 7 0 011 0H69l.1-.1h.2a92.6 92.6 0 00.3 1.2L70 69v.2h.1l.2.4.1.4.6-.2h.2a11.6 11.6 0 001.2-.2h.5l.3-.2a2.5 2.5 0 01-.1-.4l-.2-.8v-.3-.4l-.2-.3-.3-1-.2-.4-.1-.4a3 3 0 01-.2-.4l-.1-.5-.5-1.5a299 299 0 00-.2-.6l-.1-.8-.4-1.8a6.1 6.1 0 00-.2-.5l-.6-2.1h1.5l.4-.1h.1l.1-.2v-.3-.4a7.8 7.8 0 000-1l-.1-.3a17.7 17.7 0 00-2.3.1h-.3a6 6 0 00-1 0l-.9.1-1 .1h-1.1-.2-.2l-.7.1a8 8 0 00-.8 0 8 8 0 01-.8 0h-.3z"/>
      <path d="M83.2 51.4c-.5 0-.8 0-1 .3l-.7.9c-.2.4-.4 1-.8 1.5-.3.6-.8 1.4-1.5 2.2l-.4.4-.6.5a1 1 0 01-.5.1h-.2v-.7-.8a18 18 0 010-1.1v-.3-.2-.3l-.1-.1v-1.2c-.1-.5-.2-.8-.4-1l-1.2-.1H73.7a20.5 20.5 0 00-2.1 0h-.2v2.7H73a21.2 21.2 0 011.5.1v.8a33 33 0 00.1 3.5V63l.1.2a27 27 0 00.2 3.9h.2l.3.1h.2a7 7 0 001 0 5.6 5.6 0 001-.1v-.3a235.7 235.7 0 010-.9v-.6-1V60.3l1.3 1.5c.4.5.6 1 .8 1.6l.5 1.6.2.5.2 1.2a7.2 7.2 0 01.1.7h2.9A15.7 15.7 0 0083 65l-.2-.8a15.3 15.3 0 00-2.2-4.5c-.3-.4-.6-.7-1-.9l.2-.2.3-.2h.2l.2-.2.7-.5.7-.8a11 11 0 001.6-2.4l.7-1.3.8-1.8h-1.9z"/>
      <path d="M94.4 55.5l-1.3-.2h-7.8v.4a21.2 21.2 0 010 2.3v.5h1.3a110 110 0 01-.1 1.3V64.7a19.6 19.6 0 01-.2 1.7v1.9l-.2 1 .1 1a17.3 17.3 0 001.7-.1h.2l3.5.1h.5a20 20 0 002.5 0h.4a33.2 33.2 0 002.2-.1l.2-2.1h-6.6a17.5 17.5 0 01-1.7-.1v-.3-.3-.3-.3-.2-.2l.1-.5v-.4-.2-.2-.2-.3-.2-.2l.1-1h1l.5-.1H93c.4 0 .7 0 .9-.2l.3-.6v-.5-.4H93l-.8-.1H91l-1.1-.1h-.2V61l.1-1.9v-.8h4.2l.1-.4.1-.6v-.8-.6-.2-.2z"/>
      <path d="M109 61.8c.5 0 .8.2.9.6l.3 1.4V65c0 .4 0 .8-.2 1-.2.2-.6.3-1.1.3h-.2a41.6 41.6 0 00-1.5-.1 11.2 11.2 0 010-2l.1-.9V62l.7-.1 1-.1zm-.6-5.6c.4 0 .7 0 1 .2h.2c.5.3.7.8.7 1.6v.8l-.2.8v.2l-.5.4a2 2 0 01-.7 0h-1.4V60a27.5 27.5 0 00-.1-3V57v-.3-.3h1zm0 12l.7-.1h1.5l.8-.2c.3 0 .6-.1.8-.3.2 0 .4-.2.6-.4l.4-.6.2-1v-1.5-1c-.1-.5-.3-1-.6-1.3-.2-.3-.5-.6-1-.8.6-.3.9-.8.9-1.4V59a6.5 6.5 0 00.1-1V58v-1a2.8 2.8 0 00-1-1.6c-.2-.3-.6-.5-1-.6h-.3l-1.2-.2H105.7l-1.2.1a335.3 335.3 0 000 6.1l-.1 3.8-.1 3.4c1.1.2 2.5.2 4 .2z"/>
      <path d="M123.2 65.1v-.8l.2-.7-.2-.2h-.2a2.5 2.5 0 00-.7-.2h-.7a4 4 0 00-.8.1h-.1-.4-.2-1.2v-.4-.3-.3-1l.1-1V60 59.6h1.5a25 25 0 002.2-.2h.2v-1-.7h-2-.3-1-.2-.2v-2-.1-.2-.7l.1-.6v-.1H123.3v-.3l.1-.7v-1.2h-1H121.9 121.2h-.1-1.2-.1l-.2-.1h-.1-.5-.1-.2a5.9 5.9 0 00-1 0 6 6 0 00-.8 0h-.5-.2-1.2-.2-1.4l-.2.1-.1.7V54l.3.1h.6a284.6 284.6 0 012 0h.3v.7l-.1 1a12.3 12.3 0 000 1.3V58.9a24.1 24.1 0 000 1.9v.4l-.1.7v.7l-.1.8v2a5 5 0 001 0l.8-.1H122a46 46 0 001-.2h.2z"/>
      <path d="M129.7 64.9h-1l.2-1.1v-.2-.2l.4-1.5v-.7l.3-.6.5-2a9.3 9.3 0 01.1-.5l.3.5.1.5v.3a4 4 0 00.1.3l.3 1a4 4 0 000 .3l.2.7v.2l.1.2.2.7a4 4 0 00.1.4v.2l.1.3.1.3.2.5v.4h-2.3zm-4.4-9.5l-.2.6V57.8a15 15 0 002-.1h.8l-.1.6V58.6l-.3.8-.4 1.6-.2.8-.4 1.8a4 4 0 00-.1.8l-.6 2.6v.4l-.2.4v.4a41.1 41.1 0 01-.3 1.2v.1s.1.2.3.2l.5.2h.7l.5.1c.3 0 .5 0 .6-.3.2-.1.3-.5.4-1v-.5-.2l.1-.2.1-.5.2-.6h.5a7 7 0 011 0h1.8l.1-.1H132.4a61.2 61.2 0 00.3 1.2l.4 1.2v.2l.2.4.1.4.6-.2H134.3a11.7 11.7 0 001.1-.2h.5l.3-.2a2.4 2.4 0 01-.1-.4l-.2-.8v-.3-.4l-.2-.3-.3-1-.1-.4-.2-.4-.2-.4-.1-.5-.5-1.5v-.3l-.2-.3-.1-.8-.4-1.8-.1-.2v-.3l-.7-2.1h1.5l.4-.1h.1l.2-.2v-.3-.4a8 8 0 000-1l-.2-.3a17.7 17.7 0 00-2.2.1h-.4a6 6 0 00-1 0l-.8.1-1.1.1h-1.1-.2-.2l-.7.1a8 8 0 00-.8 0 8 8 0 01-.8 0h-.2z"/>
      <path d="M144.6 51.8v.1a7.6 7.6 0 010 1.2l.1.7V58l.1.3v.5a13.3 13.3 0 000 1.4l.1 1.4v2.2l-.1.7c-.2.5-.5.8-1 1h-1.6a.8.8 0 01-.5-.3l-.2-.7-.1-1.2v-3-.8-.9-3.5L138 55v2.5a255.3 255.3 0 000 2.2v.3l.1.3a19 19 0 000 1.7v2.2l.1 1 .2 1 .5.7c.2.2.4.4.8.5l.4.1h.3l.3.1h.5a8.1 8.1 0 001 .1h1.8l1.2-.3a3 3 0 001-.6l.7-1v-.4l.2-.5v-.5l.1-.8v-.4-2.3-.2-1.5-.2-1.3-.6-.5-.2-.5-.2-.3-.4-.4L147 53v-1.4h-.1a8.4 8.4 0 00-1.1.1 10.6 10.6 0 00-1.1 0z"/>
      <path d="M155.6 55.2h-1.2a23.4 23.4 0 00-2.6 0h-.4-1.7v.4l-.1 1V58l.4.3h1.6l.6.1h.6V64.7a9.8 9.8 0 01-.1 1.3 11.4 11.4 0 010 1.4l.2.2h1.2a6 6 0 001.6-.2 20.6 20.6 0 000-2.4v-1.1-1.7-.7V58H158.6v-2.9H155.6z"/>
      <path d="M160 54.3a11.6 11.6 0 001.3-.1h.2V62.9a27.4 27.4 0 000 2.9V66.9l.1.3a6.2 6.2 0 001.8 0h.9l.2-.6V66l-.2-.8v-.5-.4-.6-2.2-.2-.2-.3-.2a8 8 0 000-1.1v-.7l-.1-1.5V56a42.4 42.4 0 010-4.5 10 10 0 00-.8.1 19.6 19.6 0 01-1.8 0 12.7 12.7 0 00-1 0H159.7v.9a76.4 76.4 0 00.2 1.9z"/>
      <path d="M168.5 57.7v.6l.1.5v4.3l.1.4V70c0 .2 0 .3.2.3l.3.1h1.4l.4-.1h.4v-.2-1.5a41.1 41.1 0 00-.1-3.7v-1c0-.3.1-.6.3-.7h2.1a5.6 5.6 0 011-.1v-.8-.8-.3h-3.1V61v-.3-.5l-.1-1.2V57.7h2.8a18.5 18.5 0 011.6 0v-.9a13.4 13.4 0 010-1.2v-.2a2 2 0 00-.3 0h-.3a16 16 0 00-2 0h-.4a7 7 0 01-1 0h-.5-.1-2.2-.8a4.9 4.9 0 01-1 .1l.1 2.2h1.1z"/>
      <path d="M185.5 51.8v.1a7.6 7.6 0 01.1 1.2v3l.1.3v2.5a13.3 13.3 0 000 1.4l.1 1.4V64.6h-.1c-.1.5-.5.8-1 1h-.3-.2-1.1a.8.8 0 01-.4-.3c-.2-.2-.2-.4-.3-.7l-.1-1.2v-3-.8-.9-1.5l.1-2-3.5-.2v2.5a255.3 255.3 0 000 2.2v.6a19 19 0 000 1.7v.7l.1.2v2.3l.2 1 .5.7.8.5.4.1h.3l.3.1h.5a8.1 8.1 0 001.1.1h1.7l1.2-.3a3 3 0 001-.6l.7-1 .1-.4.1-.5.1-.5v-.8-.4-2.3-.2-1.5-.2-1.3-.6-.5-.2-.5-.2-.3-.4-.4l-.1-1.5v-1.4h-.1a8.4 8.4 0 00-1.1.1 10.6 10.6 0 00-1 0h-.2z"/>
      <path d="M194.5 55.3a8.5 8.5 0 01-1.2-.1 287.3 287.3 0 00-2 0v3.9l-.1.4v8.6a43.4 43.4 0 010 2.7h1.7a21.6 21.6 0 013.1.1h2.8l.5-2.3a14.5 14.5 0 01-1.4 0h-.6v-.1h-1.1-.5-.3-1-.1l-.2-1.2a20.8 20.8 0 010-2.3v-.5l.1-.8a18 18 0 01.1-1.4l.1-1.8a16.4 16.4 0 01.1-1.6v-1-.2-.4-.4l.1-.5-.1-1.1z"/>
      <path d="M210.3 55.2h-1.1a23.5 23.5 0 00-2.7 0h-2v.4l-.2 1v1l.1.4.4.3H206.4l.5.1h.6V64.7a10.5 10.5 0 010 1.3 12.2 12.2 0 010 1.4l.1.2h1.2a6 6 0 001.7-.2 22.2 22.2 0 000-2.4v-1.1-1.7l-.1-.7V58H213.4v-2.9H210.3z"/>
      <path d="M212.5 54.2h2.3a19.4 19.4 0 011.2 0V58l.1.5v1.7a9.1 9.1 0 00-.1 1.6l-.1.3v2.1h.4l1.6-.1.1-.6a3.6 3.6 0 000-1v-.4-1l.1-1 .2-.8V59H219.2a37.7 37.7 0 012.2.2v7.1l.2.4.4.2h1.1a8 8 0 00.8-.3c.1 0 .2 0 .3-.2v-.3-4.3-.3-.7a145.3 145.3 0 01.2-4.6v-.2-.1V54.4 54v-.5-.1-.4-.2-.1l.1-.1v-.2l-.2-.1-.7-.1a10 10 0 00-1.7 0h-.3l-.1.9V53.6a8.4 8.4 0 010 1.3v1.9l-.2.3H218.3V57v-.3-1-.3-.3-.2-.5-.5a3.5 3.5 0 000-1.1v-1.1h-.4-1.6a2 2 0 00-.3.1h-.2l-.4.1h-.8-1-.2H212.5V53a10 10 0 000 1.2z"/>
      <path d="M229.9 66.6a32.8 32.8 0 01-.2-4v-.4a6 6 0 000-.8V61v-1l.2-1v-2.1-.2-.4-.5l-.1-.5h-.4a4 4 0 00-.9-.1h-.4a5 5 0 00-.8 0v1.9l.1.5V65.5l-.1 1v1.3h.8a30 30 0 011.8-.2v-1z"/>
      <path d="M239 53.7v.4a8.6 8.6 0 000 1V60.4l.1.2v.5l-1.2-2.5-.7-1.5V57l-.1-.2-.7-2-.3-.7a11.1 11.1 0 01-.4-1.2l-.3-.6-.2-.2h-1.4a33 33 0 00-2.3 0H231.2c-.2 0-.3 0-.4.2l-.1.4v1.1l.2.4.3.2h1.4v2.5l.1.4v8.4l.1.2v1l.1.4.5.1h.9l.8-.1v-.1-.1l.1-.4.1-.7v-.5-.4-1.8-.2-4-.4-.7.2l1.2 2.6 2.4 5.3v.2l.1.2.1.2.2.1a25.3 25.3 0 001.6.1h.2c.3 0 .4 0 .4-.2V66l.1-1v-.8-.2-.6a24.7 24.7 0 010-2v-.9-.2l.1-.2V59v-.3-1.4-.2-.5-.5-.7-.3a44.4 44.4 0 010-1.4 11.6 11.6 0 00-2.7 0z"/>
      <path d="M250.9 55.2c-1.6 0-2.8.2-3.7.5-.9.3-1.5.8-1.8 1.4l-.1.4a4 4 0 00-.2.4l-.1.4-.1.6-.1.5v1a6 6 0 00-.1.6v1.5a22.5 22.5 0 00.3 3.2l.2.4c.1.4.4.8.7 1.1l1 .8a4.8 4.8 0 001.2.5l1.3.2 1.3.1.8-.1.6-.5.5-.5.3-.6V69.7a83.8 83.8 0 002.3-.1h.9v-.2-.4-.4-.4-.6-1.9-.4-.7-.2-.5-.6l-.2-.5h-.4a63.8 63.8 0 00-3.2 0h-1.6-.5v1.8h1.9c0 .5 0 1-.2 1.2 0 .4-.4.6-.9.8l-.5.1h-.5c-.7 0-1.1-.1-1.4-.5-.3-.5-.4-1.2-.4-2.2v-.3-.4a34.4 34.4 0 01.4-4l.1-.5.1-.4c.1-.4.3-.7.7-.9.3-.2.7-.3 1.2-.3h.5c.3 0 .5 0 .7.2.2 0 .3.2.4.4l.1.5.1.6a19.8 19.8 0 01.2 1.4h.2a7 7 0 001.7.2h.6l.6.1.4-.1.1-.4v-1.5c0-.5-.2-1-.3-1.4l-.2-.4c-.2-.4-.6-.8-1-1-.6-.3-1.1-.4-1.8-.5h-.6l-.4-.1H251z"/>
      <path d="M263 51.4a11 11 0 00-1.8.1h-.3c-.4 0-.8.1-1 .3a2.3 2.3 0 00-1 1.1v.4l-.1.1-.2 1.1v1c0 .6.1 1.1.3 1.5.2.5.5.8.9 1.2l.4.1.2.2h.3l2.4.7a6.3 6.3 0 01.5.2h.2l.5.4.4.7a4 4 0 01.3 1.5c0 .5-.1.8-.4 1-.2.3-.6.5-1.2.5h-.4l-.5-.2a.6.6 0 01-.3-.5v-1.4c0-.2-.2-.4-.4-.4h-2.7a2 2 0 00-.6 0l-.2.1v.4c0 1.1.3 2 .8 2.7.5.6 1.4 1 2.6 1.1l.7.1h1c1.5 0 2.7-.2 3.6-.8.8-.6 1.2-1.3 1.2-2.2v-.5-1.3l-.4-1.2-.6-.9a3 3 0 00-1.2-.7 24.2 24.2 0 01-2.6-.6l-1.2-.4a1 1 0 01-.4-.4l-.2-.4v-.6-.6-.8l.4-.4 1-.1H263.5c.1.1.3.2.3.4l.2.5.1.5v.3l.2 1.4a22 22 0 003.6 0 17.7 17.7 0 00-.1-2.5V54l-.1-.5a3.2 3.2 0 00-.8-1.3h-.1a3.4 3.4 0 00-1.4-.5l-.7-.1-.8-.1h-.9z"/>
      <path d="M271.3 64l-.8 2a39 39 0 00-.9 4.1h.7l.4-.2a104.5 104.5 0 001.3 0l.1-.6.1-.4a34.3 34.3 0 00.8-2.5 464.4 464.4 0 00.5-2.2V64h-.2-.5a9 9 0 01-.8 0h-.7z"/>
      <path d="M49.3 92.1a91.2 91.2 0 010-1.7h-.2a2.6 2.6 0 00-.7-.2h-.7a4 4 0 00-.7.1h-.2-.4-.2-1.1v-.4-.3-.3-1V87 86.6H46.8a25 25 0 002-.2h.3v-1l.1-.7H49 46.7a1 1 0 00-.3 0H45.5h-.1v-2-.1-.2-.7-.7H49.5l.1-.3V80v-1.2h-.9-.2-.5-.1-.5-.1H46 46l-.2-.1h-.3-.4-.2a5.9 5.9 0 00-1 0 6 6 0 00-.8 0h-.5-.2-1.1-.3-1.4l-.2.1-.1.7V81l.3.1h.6a262 262 0 012 0h.3v1.7a12 12 0 00-.1 1.3V85.9a23.6 23.6 0 000 1.9v1.1l-.1.3v.4l-.1.8v2a5.1 5.1 0 001 0l.8-.1h4.3a46.5 46.5 0 001-.2z"/>
      <path d="M50.8 78.9a4 4 0 01.2.4l.4 1.3.7 3V83.8l.4 1.4a7 7 0 010 .5l1 5.2.2.8.3 1.1a573.4 573.4 0 01.1.8l.2.8c0 .2.2.3.5.3a5 5 0 001.5 0h.7l.7-1.5.8-2 .8-2.7.6-2.4.6-2.4.2-1.4v-.2h-2l-.7.1c-.2 0-.3.2-.3.4l-.5 2.2v.3l-.4 1.9-.1.4-.4 1.2v.4l-.2.4-.1.3-.3-1.4-.1-.7-1.3-6.8-.4-2.2h-.6a23.5 23.5 0 00-2.5.2z"/>
      <path d="M70.4 92.1a87.8 87.8 0 01.1-1.7h-.3a2.6 2.6 0 00-.6-.2h-.7a4 4 0 00-.8.1h-.2-.5H66.2v-.4-.3-.3-1l.1-1V87 86.6h1.5a25 25 0 002.1-.2h.2l.1-1v-.7h-.1H67.9a1 1 0 00-.3 0h-.7-.2-.2v-2-.1-.2-.7l.1-.6v-.1h3.9l.1-.3V80l.1-.9V79h-1-.2-.5-.1H67.2 67l-.1-.1h-.4-.2-.2-.1a5.8 5.8 0 00-1 0 6 6 0 00-.9 0h-.4-.2-1.2-1.6l-.3.1V81l.2.1h.6a258.6 258.6 0 012 0H63.5v1.7a12 12 0 00-.1 1.3V85.9a23.4 23.4 0 000 1.9V89.2l-.1.2v1.5l-.1.2v1.2l.1.1a5.1 5.1 0 001 0l.8-.1h4.2a46.7 46.7 0 001-.2h.1z"/>
      <path d="M78.5 82l-.1.2a25.7 25.7 0 000 2.1v3.3l.1.1v2l-.3-.8-.9-2.2-.7-1.9a5 5 0 01-.2-.5l-.2-.6-.4-1c-.1-.4-.3-.5-.4-.5h-2.6v.6a13 13 0 000 1.4v.5a54 54 0 00.1 4.1V94.8l.1.2V96.8h.1v.1h.5a17 17 0 011 0l.6-.1.2-.2.1-.7v-.3V93.4v-.7V89v-.3-1l1.6 3.5.2.4.2.3 1.3 3 .4.4a2 2 0 00.8 0h1.3l.1-.6v-2.2-.4-.5a40.8 40.8 0 01.2-1.4V90v-.3-.8-.6-.9-1-1-.3V84a16.8 16.8 0 01-.1-1.7l-3-.2z"/>
      <path d="M94.4 93.6a33.5 33.5 0 01-.1-4v-.4a5.8 5.8 0 000-.8V88a25.6 25.6 0 01.1-2v-2.1-.2-.4-.5-.5H94a4 4 0 00-.9-.1h-.5a5 5 0 00-.8 0v1.4l.2.5v3.2l-.1.6V93.5l-.1 1V94.8h.8a30 30 0 011.9-.2v-1z"/>
      <path d="M97.3 81.1v.4a18.2 18.2 0 010 .8 31.6 31.6 0 000 1.2v.3l.1.5a6.8 6.8 0 010 .8V86.4l.1.7v4.2l-.1.8v.8h.6a27.3 27.3 0 012.3-.3h.2a6 6 0 00-.1-1v-.4l-.1-.3v-.3a11.8 11.8 0 00-.2-2.5v-.3c.1-.3.3-.4.6-.5l.7-.1h1.9v-.5-.5-.5l.1-.5v-.1h-.4-.2-.1a7 7 0 00-1 0 10 10 0 01-1 .1H100.4V84v-.8l-.1-.9V82l-.1-.2v-.6-.2h.8a9 9 0 011.2 0h1.1l.5.1v-.4-.3-.9-.5l-.1-.3h-.3-.2H102.3l-.4.1h-.5a9.2 9.2 0 01-1.2-.1h-.5-.3-5v1.2a9.3 9.3 0 000 1.1H97l.3.1z"/>
      <path d="M119.3 80.7v.4a8 8 0 000 1V85.3l.1.2V88l-1.2-2.5-.6-1.5-.1-.1v-.2l-.7-2-.3-.7a11.1 11.1 0 01-.5-1.2l-.2-.6-.3-.2h-1.3a33 33 0 00-2.3 0h-.2-.2c-.1 0-.3 0-.4.2l-.1.4v1.1l.2.4.4.2h1.4V89.3l.1.2v4.4c0 .2 0 .3.2.4l.5.1h.8l.8-.1v-.1l.1-.1v-.4l.1-.7v-.5-.4-1.8-.2-4-.4-.7.2l1.2 2.6 2.4 5.3v.2l.2.2v.2l.2.1a25 25 0 001.6.1h.2c.3 0 .4 0 .5-.2V93v-1-.8-.2-.6a22.9 22.9 0 01.1-2v-.9-.2-1.3-.3-1.4-.2-.5l.1-.5v-.7-.3a29.8 29.8 0 01-.1-1.4 11.6 11.6 0 00-2.7 0z"/>
      <path d="M128.5 87.2v-.5-.8-.7l.2-.5.5-.4a2.4 2.4 0 011-.1h.4c.6 0 1 0 1.3.3.3.2.4.6.4 1.2v1.4a9.2 9.2 0 00.1 1.2v2.5c0 .3 0 .5-.2.8 0 .3-.2.5-.4.7l-.7.3h-.8a6 6 0 01-.7 0l-.5-.1a.8.8 0 01-.3-.4 3 3 0 01-.2-.5V91.3v-.4-.9-.2-.3l-.1-.2v-.5-.5-1.1zm2.5-5.4a17.8 17.8 0 00-3.7.5l-.5.2c-.7.3-1.1.7-1.2 1.2l-.2.6-.2.3v1l-.1.4v.7l-.1 1V91c0 .5.1.8.3 1v.4c.3.6.6 1 1 1.4.3.3.7.6 1.1.7l1.5.3 1.6.1c1 0 1.8-.1 2.5-.4a3 3 0 002-2.3l.2-.9v-.1a13.3 13.3 0 010-1.5v-2.2-.4-.5a43.3 43.3 0 000-1.2l-.1-.3a7.6 7.6 0 00-.1-.5v-.3l-.7-1.3c-.3-.4-.6-.6-1-.8h-.2a22.5 22.5 0 00-1.9-.4h-.2z"/>
      <path d="M141 87.3h.4l.3-.1H142.7l.3-.1c.2 0 .4 0 .6.2.2 0 .3.2.3.4v.8l.1.6V89.7l.1.3V91l-.4.4c-.3.2-.5.2-.7.2h-1.1-.8v-.4-1.6-.2V88.6v-1.3zm.9-6.4h.2l.3.1h.5l.2.2.2.2.2.1.1.2.1.5V83.2c0 .6 0 1.2-.2 1.8l-.2.3-.4.1H141V85 83.7v-.5-.8-.4-.4l.1-.6h.7zm1 12.6h1.5c.5-.2.9-.4 1.2-.7l.3-.3.4-.6.2-.7V91v-.2-.8-.2-.1-.3-.4-.1-.7a4 4 0 00-.2-.7v-.3c0-.2 0-.4-.3-.5l-.5-.4-.3-.1-.1-.1.2-.2.2-.3.1-.1c.2-.4.2-.7.2-1.1V83 83v-.7-1.4c0-.4-.3-.7-.7-1l-.2-.2-.7-.3h-.9l-1.4-.2h-1.6-.2-.2l-.8.1h-1.2-.3-.5l-.4.1v1.8H137.3a2 2 0 01.6-.1l.3.1v.8l-.1.8v.6a26.2 26.2 0 010 2.5v2.5l-.1 1v1.4l-.1 2.6a38.5 38.5 0 002.9.2h2.1z"/>
      <path d="M152.2 87.2v-.5-.8-.7l.3-.5c0-.2.3-.3.5-.4a2.4 2.4 0 011-.1h.4c.5 0 1 0 1.2.3.3.2.5.6.5 1.2v1.4a9.2 9.2 0 000 1.2v2.5l-.1.8c0 .3-.2.5-.4.7l-.8.3h-.4-.3a6 6 0 01-.8 0l-.5-.1a.8.8 0 01-.3-.4 3 3 0 01-.1-.5V91.3v-.4-.4l-.1-.5v-.2-.3-.2-.5-.5-1.1zm2.6-5.4a17.8 17.8 0 00-3.7.5l-.6.2c-.7.3-1 .7-1.2 1.2l-.2.6-.1.3v.7l-.1.1v1l-.1.3V91l.2 1 .1.4a3.5 3.5 0 002 2.1l1.5.3 1.6.1c1 0 1.8-.1 2.6-.4a3 3 0 002-2.3l.1-.9v-.1a13.3 13.3 0 010-1.5v-2.2-.4-.5a43.3 43.3 0 000-1.2v-.3a7.6 7.6 0 00-.2-.5v-.3L158 83c-.3-.4-.7-.6-1-.8h-.3a22.5 22.5 0 00-1.8-.4h-.2z"/>
      <path d="M164.1 81.3H166.3l.3.2h.3l.2.2c.2 0 .3.2.4.4.2.2.2.4.3.7v.1l.1.6v2.3a8 8 0 010 1.1v.5l-.1.2v1l-.1.1-.2 1v.2l-.1.2-.1.2c-.1.3-.3.4-.5.5a7.4 7.4 0 01-1.4.4h-.6a26.5 26.5 0 00-1-.2 24.3 24.3 0 01.1-2v-.6a39 39 0 010-2.6v-.1l.1-.1v-.4-.2-.5a26.8 26.8 0 010-2.2v-.2-.3l.1-.2v-.3zm2.1-2.2h-1.6L163 79h-.7a11.5 11.5 0 00-1 0h-1.1v2.5h1.1V90l.1.4v3.2a102 102 0 014 .1h.5a22 22 0 001.7-.1l.5-.1 1.5-.7c.5-.3.8-.7 1-1.1l.4-.8v-.2a7.3 7.3 0 01.2-.6l.2-.9v-.4-.7-.4-3.5a12.4 12.4 0 00-.2-2.2l-.2-.5-.4-.5-.3-.3a4.4 4.4 0 00-1.1-.8l-.4-.2a4 4 0 00-.5-.1l-.5-.1a30 30 0 00-1.6-.3z"/>
      <path d="M178.9 96.1h.5l.3-.1v-.3-.3-.7-1.4-.4-.4-.2l.1-.2v-.4a2.6 2.6 0 01.1-.6l.1-.5 1.7-3.5 1.9-4.5v-.4l-.2-.1h-.4a79 79 0 00-1.8-.1l-.1.2a10.9 10.9 0 01-.2.4l-.2.6-.8 2a18.5 18.5 0 01-.5 1l-.5 1.3-.3.5a3.5 3.5 0 01-.2-.5l-.1-.4-.3-.8a5 5 0 01-.1-.5l-.1-.3-.1-.2V85l-1-3a120.8 120.8 0 00-.4-1.1l-.3-.6a16 16 0 00-.3-.8l-.1-.3v-.3l-.1-.2h-2.7v.2a8.4 8.4 0 00.3.8l.5 1.5a14.6 14.6 0 01.8 2.4l.1.4v.2l.2.2.2.8a100.2 100.2 0 01.3 1l.7 2.3a33 33 0 01.6 1.8l.2.4V95.4l.3.7a21.3 21.3 0 001.9 0z"/>
      <path d="M199.1 81.8a9.3 9.3 0 00-1.2 0l-.7.1-1 .2-1 .4-.7.7a2 2 0 00-.4 1v.5a19.3 19.3 0 00-.3 3.3v1.2a10.2 10.2 0 000 1.2v.3l.1.4v.5l.3 1c0 .3.2.6.4 1 .2.3.5.6 1 .9.4.3 1 .5 1.8.6l.5.1H200.6a5.4 5.4 0 001.5-.5l.6-.5.4-.5.1-.3V93a7 7 0 000-1.4h-2.9l-.1.4a1.4 1.4 0 01-1.5 1.1h-.4a1 1 0 01-.4-.3c-.3-.2-.4-.6-.5-1l-.1-1.3v-1.7-.5-.5l.1-.8.2-.9.2-1 .1-.4a1.3 1.3 0 01.7-.7l.6-.1h.1c.3 0 .6 0 .7.2.2 0 .3.2.4.4v2.4h3.4c.1 0 .2 0 .2-.3a13.8 13.8 0 000-2l-.4-1-.1-.4c-.3-.4-.6-.7-1.1-.9a8.6 8.6 0 00-3-.5h-.3z"/>
      <path d="M211.9 89.7a4 4 0 00-.4 0h-.4-.7a19.3 19.3 0 00-1.7 0h-.3l.5-2.5.2-1.4.1-.8.2-.5v-.1-.2-.1l.7-2 .2-.8.2.2.1.3v.3l.1.6v.6l.1.5v.4l.1.4a1.5 1.5 0 000 .5l.2.9.2.7v.2l.1.6v.2l.2.8v.2l.3 1zm3.3 2.9v-.4-.3-.4-.4-.4l-.2-.5v-.5l-.1-.4-.1-.1V89l-.3-1-.2-.6-.1-.8-.1-1v-1.4l-.1-.3v-.3l-.1-.6-.5-2 .2-.1h1.9l.8-.2c.2 0 .3-.1.4-.3l.2-.7v-.8-.6h-1.1l-.5.1H213h-.2-1l-.5.1-1 .1a7 7 0 01-1.1.1h-.6-.2-.7a16.9 16.9 0 00-2.1 0h-.4-.3s-.2 0-.2.2v.2l-.1 1.5v.3h3.9v.8l-.2.5-.1.3v.4l-.3.6v.4l-.2.3-.2.8-.2 1v.4l-.1.7-.3 1.2-.3 1.5a24.7 24.7 0 01-.1.8l-.2 1.3-.2.7v.4a3.2 3.2 0 000 .6v.3h2.3l.2-.4V93v-.2l.1-.7v-.5l.4-.2h1.8l.3-.1H212l.1.9v.3l.1.7.2.6a82 82 0 012.9-.4l-.2-1z"/>
      <path d="M221.1 87.2a4.5 4.5 0 01-.1-1v-.5V84.9v-.2-.2-.2-.1-.2-.3h1.9l.4.2v.2l.2.2v.2l.1.2V86.4l-.1.3-.4.3-.4.1h-.5H222h-.5-.2zm-2.8-2.5V91.7a4.9 4.9 0 000 1v.2a12 12 0 000 1.4v.2l1.3.1 1.6.2.1-.6v-1.6a9 9 0 000-1.2l-.2-1v-1h1.1c.2 0 .4.1.6.4l.5.9.2.3.1.7.1.7a14.4 14.4 0 00.2 1.4l.1.7.2.5.1.3a6 6 0 001 1.2l.3.2.3.1.4.2 1.6.4h3l-.1-2.2h-1.6-.2-.2-.2-.2l-.8-.2-.2-.1-.2-.2-.2-.1-.1-.2-1-4v-.3l-.2-.3-.2-.3-.1-.2a6.1 6.1 0 01-.3-.3l.2-.1.4-.2.3-.2.4-.4.3-.6.2-.7a18.5 18.5 0 000-1.7v-.6l-.1-.6-.2-.4a4 4 0 00-.6-1l-.5-.2-.6-.2-.8-.2a28.5 28.5 0 01-1.2-.2h-3l-1 .1-.6.1h-.7v2.7l.7.1z"/>
      <path d="M236.8 92.1l.1-.8v-.7-.2h-.3a2.5 2.5 0 00-.7-.2h-.7a4 4 0 00-.8.1h-.1-.4-.2-1.2v-.4-.3-.3l.1-1V87 86.6h1.5a25 25 0 002.2-.2h.2v-1l.1-.7h-.2-1.9-.3-1-.2-.2v-2-.1-.2l.1-.7v-.7H237v-.3l.1-.7v-1.2h-.9-.7H234.8h-.1-1.2-.1l-.2-.1h-.1-.5-.1-.2a5.9 5.9 0 00-1 0 6 6 0 00-.8 0h-.5-.2-1.2-.2-1.4l-.2.1-.1.7V81l.3.1h.6a284.6 284.6 0 012 0h.3v.7l-.1 1a12.3 12.3 0 000 1.3V85.9a24.1 24.1 0 000 1.9v.4l-.1.7v.7l-.1.8v2a5 5 0 001 0l.8-.1H235.6a46 46 0 001-.2h.2z"/>
      <path d="M239.2 85.6c0 1 .2 1.8.6 2.5.4.7 1 1.2 1.8 1.5a30.3 30.3 0 001.1.4l.4.1.2.1h.3l.4.3.7.3c.2 0 .4.3.5.6l.1.2a4.4 4.4 0 01.2 1.2v.5l-.2.5-.3.4h-.1a1 1 0 01-.4.3 2.4 2.4 0 01-1 0l-.3-.2a1 1 0 01-.3-.4l-.2-.7v-.6l-.1-.5-.2-.3-.6-.2h-2.4l-.4.2v1.5a18.3 18.3 0 00.3.7v.3l.4.6.4.6.7.4 1 .3h.9l.3.1h.6a19.4 19.4 0 001.7-.1l.6-.1 1.3-.5 1-.9.2-.7V93c0-1.2-.2-2.2-.7-3.1a2.4 2.4 0 00-1.1-1 21.6 21.6 0 00-2.7-1l-.9-.3a2 2 0 01-.7-.6c-.2-.3-.3-.6-.3-1.1v-.4c0-.4 0-.8.2-1.1.2-.3.5-.5 1-.5l.6.1.4.2.4.8v.8l.1.4v.4l.1.2v.1l.1.2.7.1a8.3 8.3 0 001.7 0l.7-.2v-.4-.6a4.6 4.6 0 000-1v-.5l-.1-.4-.1-.4c-.3-.6-.7-1-1.3-1.3-.6-.3-1.5-.4-2.7-.4h-.8-.3H241.8l-.5.2h-.5l-.9.7a2 2 0 00-.4.7l-.2.7v1.2z"/>
      <path d="M251.6 91l-.8 2-.9 4.1h.7l.5-.2a104.5 104.5 0 001.2 0l.1-.6.2-.4a34.3 34.3 0 00.7-2.5 357.6 357.6 0 00.6-2.2V91h-.2-.3-.2a8.9 8.9 0 01-.9 0h-.3a3 3 0 00-.4 0z"/>
      <path d="M267.4 91.9h-1l.2-1.1v-.2-.2l.4-1.5.1-.7.2-.6.5-2a13 13 0 01.2-.5 76.2 76.2 0 01.4 1v.3a6 6 0 000 .3l.3 1a6 6 0 00.1.3l.2.7v.4l.3.7a6 6 0 000 .4l.1.2v.3l.2.3.1.5v.2l.1.2h-2.4zm-4.4-9.5l-.1.6V84.8a15 15 0 002-.1h.8l-.1.6v.2l-.1.1-.2.8-.5 1.6-.2.8-.3 1.8a4 4 0 00-.2.8l-.5 2.6-.1.4-.1.4v.4a31.8 31.8 0 01-.3 1.2v.1s0 .2.2.2l.6.2h.6l.5.1c.3 0 .6 0 .7-.3l.3-1v-.5a20 20 0 00.2-.4v-.5l.3-.6h.4a7 7 0 011 0H269.8l.2-.1h.2a403 403 0 00.3 1.2l.4 1.2v.2l.2.4.2.4.6-.2H272a11.5 11.5 0 001-.2h.5l.4-.2a2.9 2.9 0 01-.2-.4l-.2-.8v-.3-.4l-.1-.3-.4-1v-.4l-.3-.4a3 3 0 01-.1-.4l-.2-.5-.4-1.5a36.5 36.5 0 00-.2-.6l-.1-.8-.5-1.8v-.2l-.1-.3-.6-2.1h1.4l.4-.1h.2l.1-.2v-.3-.4a7.5 7.5 0 000-1c0-.2-.1-.3-.2-.3a17.7 17.7 0 00-2.2.1h-.3a6 6 0 00-1 0l-.9.1-1 .1h-1.2-.4l-.6.1a8 8 0 00-.8 0 8 8 0 01-.8 0h-.3z"/>
      <path d="M279.9 78.4a11 11 0 00-2 .1h-.2c-.4 0-.8.1-1 .3a2.3 2.3 0 00-1 1.1v.5l-.3 1.1v1c0 .6.1 1.1.3 1.5.2.5.5.8 1 1.2l.3.1.2.2h.3l2.4.7a6.3 6.3 0 01.5.2h.2l.5.4.4.7a4.1 4.1 0 01.3 1.5c0 .5-.1.8-.4 1-.2.3-.6.5-1.2.5h-.4l-.5-.2a.6.6 0 01-.3-.5v-1.4c0-.2-.2-.4-.4-.4H276a2 2 0 00-.6 0l-.2.1v.4c0 1.1.3 2 .8 2.7.5.6 1.4 1 2.6 1.1l.7.1h1c1.6 0 2.7-.2 3.6-.8.8-.6 1.2-1.3 1.2-2.2v-.5-1.3c0-.4-.2-.8-.4-1.2l-.6-.9a3 3 0 00-1.2-.7 23.8 23.8 0 01-2.6-.6l-1.2-.4a1 1 0 01-.4-.4l-.2-.4v-.6-.6-.8l.4-.4 1-.1H280.3c.1.1.3.2.3.4l.2.5.1.5v.3l.2 1.4a22 22 0 003.6 0 17.7 17.7 0 00-.1-2.5V81l-.1-.5a3.3 3.3 0 00-.8-1.3 3.4 3.4 0 00-1.5-.5l-.7-.1-.8-.1h-.9z"/>
      <path d="M51.2 108.8h.5l.7.1c.3 0 .5.2.6.3.1.2.3.5.3 1l.1 1.6a27.4 27.4 0 01.1 2.7v1.5c0 .4-.2.7-.3 1l-.5.6a2 2 0 01-1 .2h-.2a5 5 0 01-1.2-.2 1 1 0 01-.5-.5l-.2-.8a41.3 41.3 0 010-2.9V112v-1.2-1l.5-.7c.2-.2.5-.3.8-.3h.3zm.6-2.5a16.5 16.5 0 00-3.7.6 4 4 0 00-1.2.6c-.3.2-.5.5-.5.8l-.2.6a3.7 3.7 0 01-.2.5v1.1l-.1.5a28.4 28.4 0 00-.1 2.4v.5a43.7 43.7 0 00.1 2.5l.3 1.2.6 1 .8.8 1 .4 1.1.2 1.6.1c.8 0 1.5 0 2-.2.7-.2 1.2-.5 1.5-.8.4-.4.7-.8.9-1.4a35.2 35.2 0 00.3-3.3v-1.7a42.4 42.4 0 00-.3-3.6c0-.5-.3-1-.5-1.4a3 3 0 00-1.2-1 7.2 7.2 0 00-2.2-.4z"/>
      <path d="M63 111a6 6 0 01.9 0l.4.2.3.1.2.2v.1l.2.3v.2l.2.5v1.5l-.1.5-.1.4v.2l-.3.3-.3.2h-.2l-.2.1-.3.1h-1.5V111l.9-.1zm-3.8-2.5V123.8h3.1v-.3-.7-1l-.1-.2v-.3-.4-.4a12 12 0 000-1.5v-.5l-.1-.4v-.4h2c.5 0 1-.2 1.4-.4l1-.7.2-.2.4-.7v-.3l.3-.7v-1-1.9-.2-.7l-.2-.8-.2-.4c-.1-.3-.4-.5-.7-.7h-.2a11 11 0 00-1.6-.5H64l-1.8-.2h-.4a15.5 15.5 0 00-2.6.2z"/>
      <path d="M74 108.2a4.3 4.3 0 01.8 0h.2l.5.3.4.4v.6l.1.4v2.1l-.1.3-.2.2-.1.2h-.1l-.2.2h-.1l-.2.1-.5.2h-1.2l-.2-.1v-4.8h.2l.6-.1zm-1.7-2.6h-1.5a7.8 7.8 0 00-1 0h-.4a8.5 8.5 0 00-1.5.1v1.4a4.5 4.5 0 000 1.1c0 .2.2.2.2.2h.8a7.2 7.2 0 00.9 0h.2v11l1.7.1h1.5l-.1-1.4a22.5 22.5 0 00-.1-1.5v-.5-.5-.6a40 40 0 002.4-.2l.4-.1.6-.2.4-.2.8-.7.5-.9a4.7 4.7 0 00.2-1.6v-.3-.4-1.2a6.2 6.2 0 00-.2-1.6l-.1-.6-.2-.2a2 2 0 00-.5-.6l-.7-.3-.7-.2a5.1 5.1 0 00-1 0h-.2l-1-.1h-1.4z"/>
      <path d="M84.1 114.2v-.5-.8-.7l.3-.5.5-.4a2.4 2.4 0 011-.1h.3c.7 0 1 0 1.4.3.3.2.4.6.4 1.2v1.4a9 9 0 000 1.2v.6l.1.3v1.6l-.2.8c0 .3-.2.5-.4.7l-.7.3h-1.6l-.4-.1a.8.8 0 01-.3-.4 2.9 2.9 0 01-.2-.5V118.3v-.4-.9l-.1-.2v-.3-.2-.5-.5-1.1zm2.6-5.4a17.7 17.7 0 00-3.7.5l-.6.2c-.6.3-1 .7-1.2 1.2l-.2.6v.3l-.1.3v.5l-.1.2v1.1l-.1 1v3.3l.2 1 .1.4c.3.6.5 1 .9 1.4.4.3.8.6 1.2.7l1.5.3 1.5.1c1 0 1.9-.1 2.6-.4a3 3 0 002-2.3l.2-.9v-.1a13 13 0 010-1.5v-2.2-.4-.5a73.9 73.9 0 00-.1-1.2v-.3a12.3 12.3 0 00-.1-.5l-.1-.3c-.1-.5-.3-.9-.6-1.3s-.6-.6-1-.8h-.2a23.6 23.6 0 00-2-.4z"/>
      <path d="M97.7 105.4a11 11 0 00-1.9.1h-.3c-.4 0-.8.1-1 .3a2.3 2.3 0 00-1 1.1v.5c-.2.4-.2.7-.2 1.1v1c0 .6 0 1.1.2 1.5.3.5.5.8 1 1.2l.3.1.3.2h.2l2.4.7a6.3 6.3 0 01.5.2h.2l.5.4.4.7a4 4 0 01.3 1.5c0 .5 0 .8-.3 1-.3.3-.7.5-1.2.5a6 6 0 01-.5 0l-.4-.2a.6.6 0 01-.4-.5v-1.4c0-.2-.1-.4-.3-.4h-2.8a2 2 0 00-.6 0l-.2.1v.4c0 1.1.3 2 .8 2.7.6.6 1.4 1 2.7 1.1l.6.1h1c1.6 0 2.8-.2 3.6-.8.8-.6 1.2-1.3 1.2-2.2v-.5-1.3l-.3-1.2-.7-.9a3 3 0 00-1.2-.7 23.5 23.5 0 01-2.6-.6l-1.2-.4a1 1 0 01-.4-.4l-.2-.4a4 4 0 010-1.2v-.8l.4-.4 1-.1H98.1l.4.4.2.5v.5l.1.3.1 1.4a22 22 0 002.6 0h1a17.7 17.7 0 00-.1-2.5v-.2l-.1-.5a3.3 3.3 0 00-.8-1.3 3.4 3.4 0 00-1.5-.5l-.7-.1-.8-.1h-.9z"/>
      <path d="M114 109.5l-1.2-.2H104.9v.4a21.7 21.7 0 010 2.3v.5H106.3v.6l-.1.7v1.3l-.1 1v2.6a19.6 19.6 0 01-.1 1.7v1.3l-.1.6-.1 1v1a17.7 17.7 0 001.8-.1h.2l3.5.1h.5a19.7 19.7 0 002.5 0h.4a34 34 0 002.2-.1l.2-2.1h-6.6a17.8 17.8 0 01-1.7-.1v-.3-.3-.3-.3-.2-.2-.5-.4-.2-.2-.2l.1-.3v-.2-1.2h1.1l.5-.1h2.2c.4 0 .7 0 .8-.2l.4-.6v-.5l-.1-.4h-1.2l-.8-.1h-1l-1.1-.1h-.2V112.2h4.2l.2-.4v-.6-.8-.6-.2l.1-.2z"/>
      <path d="M119.2 108.3h2.2l.3.2h.2l.2.2c.2 0 .4.2.5.4l.3.7v3a8 8 0 010 1.1v.7l-.1 1v.1l-.2 1-.1.2v.2l-.1.2-.5.5a7.4 7.4 0 01-1.5.4h-.5a27.6 27.6 0 00-1-.2 24.3 24.3 0 010-2v-.6a39 39 0 01.1-2.6v-.1-.5-.2-.5a26.9 26.9 0 01.1-2.2v-.2-.3-.5zm2-2.2h-1.5l-1.6-.1h-.7a11.8 11.8 0 00-1 0h-.2a6 6 0 00-.5 0 6 6 0 01-.4 0v2.5h1v5.6l.1.2V120.6a97.9 97.9 0 014 .1h.5a22.7 22.7 0 001.7-.1l.6-.1 1.5-.7c.4-.3.8-.7 1-1.1l.4-.8v-.2a7 7 0 01.2-.6l.1-.9v-.4-.7-.4-3.5a12.4 12.4 0 00-.1-2.2c0-.2-.2-.4-.3-.5l-.3-.5-.3-.3a4.4 4.4 0 00-1.2-.8l-.4-.2a4.1 4.1 0 00-.4-.1l-.5-.1-.7-.2a30 30 0 00-1-.2z"/>
      <path d="M142.6 105.1a38.4 38.4 0 00-2.5 0h-1.3a70.7 70.7 0 01-4.8 0h-.6c-.2 0-.3 0-.4.2l-.2.5v1.9h.3l.7.1h1.4l1 .1v9.8a21.7 21.7 0 010 1.8v.5c0 .4 0 .6.2.7l.4.1h1.1a8.5 8.5 0 001.2-.2l.2-.2v-.7-1.2-.3-.6-.3V116.7v-.2-.6l-.1-.3v-.2-.5-1.3-.1-2-.3-3.3h.5l.6-.1h2.3v-2.7z"/>
      <path d="M145.6 114.2v-.5-.8-.7l.3-.5.5-.4a2.4 2.4 0 011-.1h.3c.6 0 1 0 1.4.3.2.2.4.6.4 1.2v1.4a9.2 9.2 0 000 1.2v.6l.1.3v1.6l-.2.8c0 .3-.2.5-.4.7l-.8.3h-1.5l-.5-.1a.8.8 0 01-.2-.4 3 3 0 01-.2-.5V118.3v-.4-.4l-.1-.5v-.2-.3-.2-.5-.5-1.1zm2.6-5.4a17.7 17.7 0 00-3.7.5l-.6.2c-.7.3-1 .7-1.2 1.2l-.2.6-.1.3v.7l-.1.1v1l-.1.3v4.3l.2 1 .1.4a3.5 3.5 0 002 2.1l1.5.3 1.6.1c1 0 1.8-.1 2.6-.4a3 3 0 002-2.3l.1-.9v-.1a13.3 13.3 0 010-1.5v-2.2-.4-.5-.6V112.1a11.7 11.7 0 00-.1-.5l-.1-.3c-.1-.5-.3-.9-.6-1.3s-.7-.6-1-.8h-.2a23.6 23.6 0 00-2-.4h-.1z"/>
      <path d="M162.2 109v8.7a14.4 14.4 0 000 1.4v.5l.1.4v.4c.3.5.6.8 1 1l1.4.4h.5l.3.1h2.3a4 4 0 002.5-1.1c.6-.6.9-1.4.9-2.5v-.3-5a13.3 13.3 0 010-1.4v-1-1l-2.7-.1V119c0 .2 0 .4-.2.5l-.4.2h-.9a2 2 0 01-1-.1c-.2-.2-.3-.5-.3-1l-.1-1v-.6-.5-.9-.8-1l.2-2.1v-.3a2.6 2.6 0 000-.6l.1-.2v-.7l.1-.7h-.8l-1-.1a25.9 25.9 0 00-2-.1z"/>
      <path d="M182.6 121.1a6.6 6.6 0 010 1l-.1.4-.1.6v.3h1.7c.3-.1.4-.2.5-.4a58.5 58.5 0 00.1-1v-.4a11 11 0 010-1.4v-.2-.5l.1-.4v-.7a12 12 0 010-1.2v-.2-.5-.4-.3-.5-.6h-.1H179.8l-.5.2-.3.5v1.2h.5a11.9 11.9 0 001.3 0H181.2a10.7 10.7 0 000 1.6l-.1.8-.2.2c-.2.2-.4.3-.7.3a3.1 3.1 0 00-1.1 0h-.7l-.6-.5v-.1l-.3-.8a5.9 5.9 0 010-1.6v-.8-1.1l.1-1a10.7 10.7 0 01.2-1v-.2l.1-1v-.4-.4c0-.3 0-.5.2-.6l.6-.4h.3l1-.1c.2 0 .5 0 .7.2.3 0 .4.3.4.6v2c0 .2.1.3.3.4h.7a9.2 9.2 0 001.2 0h.4l.2-.3v-1.2-.4-.8l-.2-.8-.3-.6h-.1c-.2-.3-.4-.4-.7-.5a5.4 5.4 0 00-1.8-.5 5.6 5.6 0 00-1.4 0h-.7l-.9.1-1 .2-.6.5a22.2 22.2 0 00-1 .9l-.5.5-.3.5v.9l-.1 1V113.6a8.3 8.3 0 000 1.2v1.9a12 12 0 000 1.3v.7l.3.9c.2.3.3.6.6.8.2.3.4.5.7.6.3.2.5.3.8.3h.3a15.2 15.2 0 012.2.3h1.1l.8-.2c.2 0 .5 0 .7-.2l.5-.5.4-1v.3a5 5 0 010 1v.2z"/>
      <path d="M191 109.3a8.9 8.9 0 01-1-.1h-.9a16.2 16.2 0 00-1.3 0V122.1a43.4 43.4 0 010 2.7h1.7a22 22 0 013.1.1h2.8l.4-2.3a14.8 14.8 0 01-1.3 0h-.6v-.1h-1.1-.5-.3-1-.2l-.1-1.2a20.8 20.8 0 010-2.3v-.5l.1-.8a18 18 0 01.1-1.4l.1-1.8v-.8l.1-.8v-1-.2-.4-.4l.1-.5-.1-1.1z"/>
      <path d="M202.9 106.3h-1a1 1 0 00-.5.2l-.7 1.3-.5 1c0 .3-.2.6-.4.9l-.4.8-.2.7-.3.6-.3.5a15 15 0 01-1-1.7l-.3-.6v-.3l-.2-.2-.5-1.3-1.2-2.4h-1.2a14.2 14.2 0 00-1.2 0l-.9-.1h-.4a5 5 0 00-.5 0h-.3a4.3 4.3 0 00-.9.1 36.7 36.7 0 010 2.2 1.9 1.9 0 01.6 0h1.8l.3.2v.1a7.4 7.4 0 01.8 1.2 14.4 14.4 0 01.5 1.1l.1.2.3.7.3.4.1.3.1.2.2.3a47.7 47.7 0 00.3.6l.4.6.4 1c.2.3.2.7.2 1V117.1l.1.7v.7a7 7 0 010 1v.5l-.1.8v.8a1 1 0 00.4.2h.4l.4-.1h1.3l.9-.2v-1.3-.3-.2-.3-.3l-.1-.7v-.8l-.1-.8v-.9-.1-.2l-.1-.7 2.5-4.4.2-.4.3-.5 1.3-2.3.2-.4.2-.3v-.2h-.7l-.6-.1z"/>
      <path d="M218.4 105.1a38.5 38.5 0 00-2.5 0h-1.3a70.8 70.8 0 01-4.7 0h-.6c-.2 0-.4 0-.5.2l-.2.5V107.6l.1.1h.3l.7.1h1.3l1.1.1v9.8a20.2 20.2 0 01-.1 1.8v.5c0 .4 0 .6.2.7l.4.1h1.2a8.5 8.5 0 001.1-.2l.2-.2v-.7-1.2-.3-.6-.3V116.7v-.2-.6-.3-.2l-.1-.5v-1.3-.1-2-.3-3.3h.5l.6-.1h2.3v-2.7z"/>
      <path d="M226.4 109.2a7.4 7.4 0 00-1.2-.1l-1 .1c-.3.1-.5.4-.5.7v5c0 .2-.1.3-.3.3h-.8-1.2l-.1-.3v-.2-.6-.7-.7a15.6 15.6 0 00-.2-1.5c0-.2 0-.3-.2-.4h-2.1a9.6 9.6 0 01-1 .1h-.3v3h.7v1a94 94 0 000 5.3V121.7l.2.4h2.5l.2-.6v-.3-.3V119.7v-.3-.3-1l.1-.5h2.6v1.2l.1.2v.4a67.3 67.3 0 010 3.3v.7l.2.1a7.3 7.3 0 001.3.1H226.3l.2-.8v-.2-.2-.5-.4-1.6-.4-.4-.1l.1-.2v-.2-.2-.3-1-.6-.6-.4l.1-.4v-.5-3.6-.2-1.3-.3h-.3z"/>
      <path d="M228.5 108.3a11.5 11.5 0 001.3-.1h.3V115.4l-.1 1.5a28.5 28.5 0 000 2.9V120.9s0 .2.2.3a6.2 6.2 0 001.7 0h1l.1-.6v-.6l-.1-.8v-.5-.4a9.6 9.6 0 010-1.3v-1.5-.2a12.4 12.4 0 010-.5v-.2a7.5 7.5 0 000-1.1l-.1-.7v-2.9a42.4 42.4 0 010-4.5 10.7 10.7 0 00-.8.1 20.2 20.2 0 01-1.9 0h-.3a11 11 0 00-1.2 0h-.4a12.9 12.9 0 00.2 1.8l.1 1z"/>
      <path d="M241.5 109l-.2.2a26.2 26.2 0 000 2.1v.3l.1.3V115l.1.2v1.6l-.3-.8-1-2.2-.6-1.9-.2-.5-.2-.6-.4-1c-.2-.4-.3-.5-.5-.5h-2.5v.6a13.3 13.3 0 000 1.4v.5a55.5 55.5 0 00.1 4.1V123l.1.5v.4l.2.1h.4a17.8 17.8 0 011 0l.5-.1c.2 0 .3-.1.3-.2l.1-.7v-.3V120.4v-.7V116v-.3-1l1.6 3.5a56.6 56.6 0 01.3.7l1.4 3 .4.4a2 2 0 00.8 0h1.2l.2-.6v-2.2-.4-.5a43.5 43.5 0 01.2-1.4v-.4-.3-.8-.6-.9-1-1-.3-1.1a17.4 17.4 0 01-.1-1.7l-3-.2z"/>
      <path d="M255.9 121.1a6.6 6.6 0 01-.1 1v.4l-.1.6v.3h1.7l.5-.4a32.6 32.6 0 00.1-1v-.4a11.9 11.9 0 010-1.4v-.2-.5-1.1a13.1 13.1 0 01.1-1.2v-.2-.5l-.1-.4v-.3-.5l.1-.6h-.1H254.2h-1.1l-.5.2-.3.5v1.2h.4a11.9 11.9 0 001.4 0H254.4a10.7 10.7 0 000 1.6c0 .3 0 .6-.2.8l-.2.2c-.1.2-.4.3-.6.3a3.1 3.1 0 00-1.1 0h-.7l-.6-.5v-.1c-.2-.3-.3-.5-.3-.8a6 6 0 01-.1-1.6v-.8-1.1l.2-1v-.3-.3l.1-.3v-.3l.2-1v-.4-.4c0-.3 0-.5.2-.6.1-.2.3-.3.6-.4h.3l1-.1c.2 0 .4 0 .7.2.2 0 .3.3.3.6v.6l.1.3v1.1c0 .2 0 .3.3.4h.6a9.2 9.2 0 001.2 0h.5l.2-.3v-1.2-.4-.8c0-.3-.1-.5-.3-.8 0-.3-.2-.5-.3-.6-.2-.3-.5-.4-.8-.5a5.4 5.4 0 00-1.8-.5 5.5 5.5 0 00-1.4 0h-.6l-.9.1-1 .2-.6.5a22.2 22.2 0 00-1.1.9l-.5.5-.2.5-.1.9v2.3a9 9 0 000 1.2v.5l-.1.5v.9a13 13 0 000 1.3v.7l.4.9.5.8c.3.3.5.5.8.6.2.2.5.3.7.3h.3a15.2 15.2 0 012.2.3h1.1l.8-.2c.3 0 .5 0 .7-.2.3-.1.5-.3.6-.5.2-.3.3-.6.3-1v.3a5 5 0 010 1v.2z"/>
      <path d="M260.7 112.6c0 1 .2 1.8.5 2.5.4.7 1 1.2 1.8 1.5a27.5 27.5 0 001.2.4l.4.1.2.1h.2l.5.3.6.3c.2 0 .4.3.6.6v.2a4.6 4.6 0 01.2 1.2v.5l-.2.5-.3.4a1 1 0 01-.5.3 2.3 2.3 0 01-1 0l-.3-.2a1 1 0 01-.3-.4l-.2-.7v-.6-.5l-.3-.3-.5-.2h-2.5c-.2 0-.3.1-.3.2l-.1.7v.8a13.7 13.7 0 00.3.7l.1.3.4.6c0 .3.2.4.4.6l.6.4 1 .3H264.1l.4.1h.5a20 20 0 001.8-.1l.6-.1 1.3-.5c.4-.3.7-.5.9-.9l.3-.7v-.9c0-1.2-.2-2.2-.7-3.1l-.5-.6-.6-.4a22.2 22.2 0 00-2.7-1l-1-.3a2 2 0 01-.7-.6c-.2-.3-.3-.6-.3-1.1v-.4c0-.4.1-.8.3-1.1.1-.3.5-.5 1-.5l.6.1.4.2c.1.2.3.5.3.8l.1.8v.4l.1.4V114l.2.2.6.1a8.1 8.1 0 001.8 0l.6-.2v-.4l.1-.6a4.6 4.6 0 000-1v-.5l-.2-.4-.1-.4c-.3-.6-.7-1-1.3-1.3-.6-.3-1.5-.4-2.7-.4h-1.9l-.6.2h-.4l-1 .7a2 2 0 00-.4.7l-.1.7-.1 1.2z"/>
      <path d="M274 118.8h-1l-.5.2-.4.5-.1.8v.1c0 .3 0 .5.2.6.2.2.5.2 1 .2h.2c.4 0 .7 0 1-.2.4-.1.6-.3.6-.5v-.3-.2-.4-.3l-.3-.3-.6-.2z"/>
      <path d="M89.1 136.2H88a24.2 24.2 0 00-2.7 0h-2v.4l-.1 1-.1 1 .1.4.4.3H85.2l.6.1h.6V145.7a10.3 10.3 0 01-.1 1.3 12 12 0 010 1.4l.1.2h1.3a5.9 5.9 0 001.6-.2 21.7 21.7 0 000-2.4 705.6 705.6 0 010-2.5v-.3-.7V139h2.9v-2.9h-3.1z"/>
      <path d="M91.3 135.2h2.2a20 20 0 011.3 0l.1.2v1.5l-.1.4V139.1l.1.5v1.7a9 9 0 00-.1 1.6l-.1.3v2.1h.4l1.7-.1v-.6a3.7 3.7 0 00.1-1v-.4-1-1l.2-.8v-.3H98a39 39 0 012.2.2h.1v7.1l.2.4.3.2h1.1a8.3 8.3 0 00.8-.3c.2 0 .3 0 .3-.2v-.3-4.3-.3-.7a145.4 145.4 0 01.2-4.6v-.2-.1V135.4v-.5-.5-.1-.4-.2l.1-.1v-.1-.2l-.2-.1-.6-.1a9.8 9.8 0 00-2.1 0V134.7a8.4 8.4 0 01-.1 1.3v1.9l-.2.3h-2.9v-.1-.3-1-.3-.3-.2-.5-.5a3.5 3.5 0 000-1.1v-.6l-.1-.5h-.4-.3a7 7 0 00-.4 0h-.8a2 2 0 00-.4.1h-.2l-.4.1h-.8H92.5h-1.1v.3l-.1.8a9.7 9.7 0 000 1.2z"/>
      <path d="M110 145.9h-1l.2-1.1v-.2l.1-.2.4-1.5v-.7l.3-.6.5-2a12.2 12.2 0 01.1-.5l.3.5v.5l.1.3a5.5 5.5 0 00.1.3l.2 1a5.5 5.5 0 00.1.3l.2.7v.2l.1.2.2.7a5.5 5.5 0 000 .4l.1.2.1.3v.3l.2.5v.2l.1.2h-2.3zm-4.4-9.5v.6l-.2.6v1.2a15.4 15.4 0 002-.1H108.4l-.1.6a14.1 14.1 0 010 .3l-.3.8-.4 1.6-.2.8-.4 1.8a4 4 0 00-.2.8l-.5 2.6v.4l-.2.4v.4a32.4 32.4 0 01-.3 1.2v.1s.1.2.3.2l.5.2h.6l.5.1c.4 0 .6 0 .7-.3.2-.1.3-.5.3-1l.1-.5a20 20 0 00.1-.4l.1-.5.2-.6h.5a7.2 7.2 0 011 0h1.8l.1-.1h.2l.2.6.1.6.4 1.2v.2h.1l.2.4.1.4.6-.2h.2a11.9 11.9 0 001.2-.2h.5l.3-.2a2.7 2.7 0 01-.1-.4l-.2-.8v-.3-.4l-.2-.3-.3-1-.2-.4-.1-.4a3 3 0 01-.2-.4l-.1-.5-.5-1.5v-.3l-.2-.3-.1-.8-.4-1.8a5.2 5.2 0 00-.2-.5l-.6-2.1h1.5l.4-.1h.1l.1-.2v-.3-.4a7.5 7.5 0 000-1l-.1-.3a17.5 17.5 0 00-2.3.1h-1.3l-.9.1-1 .1h-1.1-.2-.2l-.7.1a8 8 0 00-.8 0 8 8 0 01-.8 0h-.3z"/>
      <path d="M124.7 132.1a38.4 38.4 0 00-2.5 0H121a70.7 70.7 0 01-4.7 0h-.6c-.2 0-.4 0-.5.2l-.2.5V134.6l.1.1h.3l.7.1h1.3l1.1.1v9.8a21.7 21.7 0 01-.1 1.8v.5c0 .4 0 .6.2.7l.4.1h1.2a8.5 8.5 0 001.1-.2c.2 0 .2-.1.2-.2v-.7-1.2-.3-.6-.3V143.7v-.2-.6-.3-.2-.5-1.3l-.1-.1v-2-.3-3.3h.5l.6-.1h2.3v-2.7z"/>
      <path d="M127.6 132.7c0-.1-.3-.2-.8-.2h-.3-.3-1.1l-.1.3v.8a23.6 23.6 0 010 2v2.4a6.2 6.2 0 010 .9h.4a107.3 107.3 0 012.3-.1 148.2 148.2 0 01-.1-5.3v-.8z"/>
      <path d="M136.6 132.4a11 11 0 00-2 .1h-.2c-.5 0-.8.1-1 .3a2.3 2.3 0 00-1 1.1v.4l-.1.1-.2 1.1v1c0 .6 0 1.1.3 1.5.2.5.5.8.9 1.2l.4.1.2.2h.3l2.3.7a6 6 0 01.6.2h.2l.5.4.4.7a4 4 0 01.3 1.5c0 .5-.1.8-.4 1-.2.3-.6.5-1.2.5a6 6 0 01-.4 0l-.5-.2a.6.6 0 01-.3-.5l-.1-1.2v-.2c0-.2 0-.4-.3-.4H132.5a2 2 0 00-.6 0l-.1.1v.4c0 1.1.3 2 .8 2.7.5.6 1.4 1 2.6 1.1l.6.1h1.1c1.5 0 2.7-.2 3.5-.8.9-.6 1.3-1.3 1.3-2.2v-.5-1.3l-.4-1.2c-.1-.3-.4-.6-.7-.9a3 3 0 00-1.2-.7 23.8 23.8 0 01-2.5-.6l-1.2-.4a1 1 0 01-.5-.4l-.2-.4a4 4 0 010-1.2l.1-.8.4-.4.9-.1h.7l.3.4.2.5.1.5v.3l.2 1.4a22 22 0 002.6 0h1a16.5 16.5 0 00-.1-2.5v-.2l-.2-.5a3.2 3.2 0 00-.7-1.3h-.1a3.4 3.4 0 00-1.4-.5l-.8-.1-.7-.1h-.9z"/>
      <path d="M160 138.9v1.6l.2 1.4.1 1.4v.9c.2.3.2.6.2 1v1.7l.1.2.2.1h.7l.6-.1h.4a4 4 0 001-.3v-.2-.2-.4-.5l-.4-1.2-.2-.6v-.6l-.2-1.5a20.6 20.6 0 00-.2-3.6l-.1-1.2-.1-.6-.1-.7v-.4l-.1-.7v-.7l-1.5.1-1.2.1a6 6 0 00-.4 1.4c0 .5-.2 1-.4 1.5l-.3 1-.4 1.4-.5 1.8-.1.2v.3h-.1l-.5-1.7v-.4l-.2-.4-.4-1.4v-.2-.2l-.4-1.2a31.1 31.1 0 01-.4-1.9v-.2a17.3 17.3 0 00-.2-.8h-.3a41.7 41.7 0 00-3.8 0h-.8a21.3 21.3 0 01-2.3 0 12.6 12.6 0 01-.1 2H151.9a23.4 23.4 0 01-.1 1.7v.6a45.6 45.6 0 01-.2 1.6v.5l-.1.5-.1.9V142.5l-.1 1-.2 1.5a11.4 11.4 0 000 2.3h1.9l.4-.2v-1a59.9 59.9 0 010-1.8v-.4-.4l.1-.4v-.7a25.9 25.9 0 01.3-3.7v-.3l.2.2v1l.2.3.3 1.4a5.8 5.8 0 00.2 1l.7 3v.5l.2.4a2 2 0 00.2.4h1c.2 0 .4-.1.5-.3.2-.1.3-.4.4-.7l.5-1.3 1-3.6.7-2v.2z"/>
      <path d="M170.9 150.1h.5l.3-.1v-.3-.3-.7-1.4-.4-.4-.2-.2l.1-.4a2.6 2.6 0 01.1-.6v-.5l1.7-3.5 2-4.5v-.4l-.2-.1h-.4a82.6 82.6 0 00-1.9-.1v.2a6.5 6.5 0 01-.2.4l-.3.6-.7 2a18 18 0 01-.5 1l-.5 1.3-.3.5-.1-.2-.1-.3-.1-.4-.3-.8a5.2 5.2 0 01-.2-.5v-.3a22.5 22.5 0 00-.2-.5l-1-3-.2-.6-.2-.5-.2-.6v-.2l-.1-.2-.2-.4-.1-.3v-.3l-.1-.2h-2.7v.5l.2.3v.2l.5 1.5a14.5 14.5 0 01.9 2.4v.4l.2.2v.2l.3.8.2.5.1.5.7 2.3a33.9 33.9 0 01.6 1.8l.2.4V149.4l.3.7a21.8 21.8 0 001.9 0z"/>
      <path d="M188.5 147.6a34.4 34.4 0 01-.1-4v-.4-.5-.3-.4a26.1 26.1 0 01.1-2v-2.1-.2-.4-.5-.5h-.4a4 4 0 00-.9-.1 6.5 6.5 0 00-1 0h-.3v.8a93.5 93.5 0 00.2 1.1v3.2l-.1.6V147.5l-.1 1V148.8h.8a30.5 30.5 0 011.9-.2v-1z"/>
      <path d="M197.7 134.7v.4a8 8 0 000 1V141.6l.1.5-1.2-2.5-.7-1.5v-.1l-.1-.2-.7-2-.3-.7a11 11 0 01-.5-1.2l-.2-.6-.2-.2H193a33.9 33.9 0 00-2.8 0h-.3-.2c-.1 0-.2 0-.3.2l-.2.4v.6l.1.5c0 .2 0 .3.2.4 0 .1.1.2.3.2h1.4V139l.1.4v8.4l.2.4.5.1h.9l.8-.1v-.1-.1l.1-.4v-1.2-.4-1.8-.2-4-.4-.7.2h.1l1.1 2.6 2.4 5.3.1.2.1.2.1.2.2.1a23 23 0 001.5.1h.2c.3 0 .5 0 .5-.2v-.5l.1-1v-.8-.2-.6a22.8 22.8 0 010-2v-.9-.2-1.3-.3l.1-.2v-1.2-.2-.5-.5-.7-.3a29.5 29.5 0 010-1.4 11.6 11.6 0 00-2.7 0z"/>
      <path d="M209.2 136.2H208a24.2 24.2 0 00-2.6 0h-.4-1.7v.4l-.1 1v1.4l.4.3h1.6l.6.1h.6V145.7a9.8 9.8 0 010 1.3 11.4 11.4 0 01-.1 1.4l.2.2h1.2a5.9 5.9 0 001.6-.2 20.6 20.6 0 000-2.4v-1.1-1.7-.7V139H212.2v-2.9H209.2z"/>
      <path d="M222 146.1a80.7 80.7 0 010-1.7h-.3a2.5 2.5 0 00-.6-.2h-.7a4 4 0 00-.8.1h-.7H217.7v-.4-.3-.3-1l.1-1v-.3V140.6h1.5a25 25 0 002.1-.2h.2l.1-1v-.7h-.1H219.4a1 1 0 00-.3 0h-.7-.2-.2v-2-.1-.2-.7l.1-.6v-.1h3.9l.1-.3v-.7l.1-.9v-.3h-1-.2-1.3a5 5 0 00-.4 0h-.6-.2l-.1-.1h-.4-.2-.2-.1a6 6 0 00-1 0 6.2 6.2 0 00-.9 0h-.4-.2-1.2-.2H212.2l-.3.1v2.1l.2.1h1.4a14 14 0 011.2 0H215v1.7a11.9 11.9 0 000 1.3v1.2l-.1.2v.4a24.1 24.1 0 000 1.9V143.2l-.1.2v2.7l-.1.2.1.1a5.2 5.2 0 001 0l.8-.1h4.2a43.7 43.7 0 001-.2h.1z"/>
      <path d="M230 136l-.1.2a26.2 26.2 0 000 2.1v3.3l.1.1v2l-.3-.8-.9-2.2-.6-1.9-.3-.5-.2-.6-.4-1c-.1-.4-.3-.5-.4-.5h-2.6v.6a13.3 13.3 0 000 1.4v.5a55.5 55.5 0 00.2 4.1V150.8h.1v.1h.6a17.8 17.8 0 011 0l.5-.1.2-.2.1-.7v-.3V147.4v-.7V143v-.3-1l1.7 3.5.1.4.2.3 1.4 3c0 .2.2.3.3.4a2 2 0 00.9 0h1.2l.1-.6v-2.2-.4-.5a43.5 43.5 0 01.2-1.4v-.4-.3-.8-.6-.9-1-1-.3-1.1a17.4 17.4 0 01-.1-1.7l-3-.2z"/>
      <path d="M242.5 132.1a38.4 38.4 0 00-2.5 0h-1.3a70.7 70.7 0 01-4.8 0h-.6c-.2 0-.3 0-.4.2l-.2.5v1.9h.3l.7.1h1.4l1 .1v9.8a21.7 21.7 0 010 1.8v.5l.1.7.5.1h1.1a8.5 8.5 0 001.2-.2l.2-.2v-.7-1.2-.3-.6-.3V143.7v-.2-.6l-.1-.3v-.2-.5-1.3-.1-2-.3-3.3h.5l.6-.1h2.3v-2.7z"/>
      <path d="M244 145.8h-1.1l-.5.2-.4.5-.1.8v.1c0 .3 0 .5.2.6.2.2.5.2 1 .2h.2c.4 0 .7 0 1-.2.4-.1.6-.3.6-.5v-.3-.2-.4-.3l-.3-.3-.6-.2z"/>
    </g>
    <path d="M212.3 191.4c0 1 .2 1.8.6 2.5.4.7 1 1.2 1.8 1.6a26 26 0 001.2.4l.4.1a17.8 17.8 0 01.5.2l.4.1.7.4c.2 0 .4.3.6.6v.2a4.5 4.5 0 01.3 1.3v.3l-.1.1c0 .2 0 .4-.2.5 0 .2-.1.3-.3.5a1 1 0 01-.5.2 2.5 2.5 0 01-1 0l-.3-.1a1 1 0 01-.3-.4l-.2-.8-.1-.6v-.5l-.2-.3-.6-.2h-1.3a38.2 38.2 0 00-1.6.3l-.1.6V199l.1.2a17.8 17.8 0 00.2.8l.1.2.4.7.4.6.7.4 1 .3h1.9a21.2 21.2 0 001.8 0l.6-.2c.5 0 1-.2 1.4-.5.4-.2.7-.5.9-.8.2-.3.3-.5.3-.8v-.8c0-1.3-.2-2.3-.7-3.2l-.5-.7-.6-.4-.8-.3a22.8 22.8 0 00-2-.6l-1-.4a2 2 0 01-.8-.6l-.2-1v-.5c0-.4 0-.8.2-1.1.2-.3.5-.5 1-.5h.6l.5.3c.1.2.3.5.3.8l.1.8v.5l.1.3V192.8l.2.3h.7a8.7 8.7 0 001.8 0c.3 0 .5 0 .6-.2l.1-.4v-.6a4.4 4.4 0 000-1v-.5l-.2-.5v-.3c-.4-.6-.8-1-1.4-1.3a7 7 0 00-2.8-.5h-.8-.3-.2l-.7.1-.6.1-.4.1-1 .6a2 2 0 00-.4.8l-.2.7v1.2z" fill="#000"/>
    <path d="M228.5 195.6h-1.1-.4a19.7 19.7 0 00-1.8 0h-.3l.5-2.5.3-1.5v-.8l.2-.5v-.2-.1l.1-.2.6-2 .3-.8.2.3v.3l.1.2v.6l.1.6v.6l.1.4v.4a1.4 1.4 0 00.2.5l.1.9.2.8v.2l.1.5v.2l.2.9v.1l.3 1zm3.4 2.9v-.3-.4-.4-.4-.4a7.4 7.4 0 01-.3-1v-.4l-.1-.2v-.2l-.4-.9-.1-.7-.1-.8-.1-1v-1.5l-.1-.2v-.3l-.2-.6-.4-2c0-.1 0-.2.2-.2h.6a10.2 10.2 0 001.3 0l.8-.1c.2 0 .4-.2.5-.4l.1-.7v-.8-.6H232l-.4.1a5 5 0 00-.5 0h-.4a9 9 0 00-.6 0H229a4 4 0 00-.5 0l-.6.1-1 .1a7 7 0 01-1.1.1h-.6-.2-.7a17.8 17.8 0 00-2.2 0h-.4-.3l-.2.1v.3l-.2 1.5.1.3h4v.8l-.2.5-.1.4v.2l-.1.1-.2.7v.4l-.2.3-.2.8-.2 1v.4l-.2.7-.3 1.3-.3 1.5a23.6 23.6 0 01-.1.8l-.2 1.4-.2.6a8 8 0 000 .8v.5l1.8.1.5-.1.3-.4v-.4-.2l.1-.7v-.4c0-.2.2-.3.4-.3H227.5l.3-.1H228.7l.1.9v.3l.1.7.2.6a83.8 83.8 0 013-.4l-.2-.9z" fill="#000"/>
    <path d="M233.3 187.7v8.9a15 15 0 000 1.5v.9l.2.3c.2.5.5.9.9 1 .4.3.9.4 1.4.5h3.3c1-.1 1.9-.5 2.5-1 .6-.7 1-1.5 1-2.6v-.3-5a12.8 12.8 0 010-1.5v-1-1.1h-2.9v6.3l.1.4v3c0 .1 0 .3-.2.4 0 .1-.2.2-.5.2a5 5 0 01-.8.1c-.4 0-.7 0-1-.2-.3-.2-.5-.5-.5-1v-1-.6-.6-.8-.9-1l.2-2.2v-.3-.3-.2-.3l.1-.7.1-.7h-1.8a27.5 27.5 0 00-2.1-.2z" fill="#000"/>
    <path d="M244 184.4v2l.2 2v10.9a27.4 27.4 0 010 .8h.6a9.6 9.6 0 001.2 0 5.7 5.7 0 00.9 0h1.3l1.3-.2a14 14 0 012.7 0c.2 0 .2 0 .3-.2v-.4-.5-.5-.4-.4a7.9 7.9 0 01-1.7 0h-.7a23.2 23.2 0 00-2.1.2h-.3c-.2 0-.4 0-.6-.2v-1.8-.3-.8-1-1a21.3 21.3 0 000-3 25.6 25.6 0 010-2v-.7-.5l-.1-1.1-.1-1.3a55 55 0 01-2.9.4z" fill="#000"/>
    <path d="M263 193.1h.6l.2-.1h1.6l.4.6V194.9l.1.5v1.6c0 .2-.2.3-.4.4-.2.2-.4.2-.7.3H263v-.5-1.6-.2V194.5v-.1-1.3zm.8-6.4h1l.2.2.2.2c.1 0 .2 0 .2.2l.1.2.2.5V188.9c0 .7-.1 1.3-.3 2l-.1.2-.5.1H263v-.3V189.5v-.6-.7-.4-1h.4l.4-.1zm1 12.8l1.6-.1c.5-.1.9-.3 1.2-.7l.3-.2.4-.7.2-.7v-.2-.2-.8-.2-.1-.3-.4-.2-.6a3.8 3.8 0 00-.1-.8v-.3c0-.2-.2-.3-.4-.5l-.5-.4-.3-.1-.2-.1.3-.2.2-.3.1-.1c.2-.4.2-.7.2-1.1v-1.3-.1-.8-1.4c0-.4-.3-.7-.7-1l-.3-.2c-.2-.2-.4-.2-.7-.3h-.8l-1.5-.2H262h-.2l-.9.1H259.6h-.8l-.4.1V186.8H259a2.1 2.1 0 01.7 0l.2.1v2.2a25.2 25.2 0 01-.1 2.6v3.5l-.1 1v3.1a38.8 38.8 0 003 .2h2.1z" fill="#000"/>
    <path d="M273.7 197.8h-.4a3 3 0 00-.3 0h-.3l.2-1.1v-.2-.2l.4-1.5.1-.7.2-.7.6-2a9 9 0 01.1-.5l.3.5v.5l.1.3v.2l.1.1.3 1a4.4 4.4 0 000 .3l.2.7v.3l.2.2.1.7a5.6 5.6 0 00.1.3v.3l.1.3.1.3.2.5v.2l.1.2h-2.5zm-4.5-9.7l-.2.6v1.9a16.4 16.4 0 002-.1H272l-.1.6V191.4l-.3.9-.4 1.6-.2.7-.4 1.9a3.9 3.9 0 00-.2.8l-.5 2.6-.2.5v.4l-.1.3a40 40 0 01-.2 1.3c0 .2 0 .2.2.3l.6.2h.6l.5.1c.4 0 .6 0 .7-.3.2-.1.3-.5.4-1v-.5l.1-.3v-.2l.1-.4.2-.7h.5a7.7 7.7 0 011.1 0h2.2a78.4 78.4 0 00.3 1.1l.4 1.3v.1l.1.2.2.3.1.4.6-.2H278.5a12.5 12.5 0 001.1-.2h.6l.3-.3a2 2 0 01-.1-.3l-.3-.9v-.3V200.5l-.1-.3-.4-1-.1-.4-.2-.5a3 3 0 01-.1-.4l-.2-.5-.5-1.5v-.3l-.2-.3-.1-.8-.4-1.8-.1-.3-.1-.3-.6-2.1h1.5l.4-.1h.2v-.2l.1-.3v-.5a7.7 7.7 0 000-1c0-.2-.1-.2-.2-.2a18.7 18.7 0 00-2.3 0h-.3l-1 .1a7 7 0 01-1 0l-1 .1h-1.2-.2-.2l-.7.1h-.8l-.9.1h-.2z" fill="#000"/>
    <path d="M285.2 184a11.7 11.7 0 00-2 .2h-.3a2 2 0 00-1 .3 2.4 2.4 0 00-1 1.1l-.1.4v.2l-.2 1v1c0 .7 0 1.2.3 1.6.2.5.5.8.9 1.2l.4.1.2.2h.3l2.4.8a6.5 6.5 0 01.6.1l.2.1c.2 0 .4.2.5.4l.4.7a4 4 0 01.4 1.5c0 .4-.2.8-.4 1-.3.3-.7.4-1.3.4h-.4c-.2 0-.3 0-.5-.2a.6.6 0 01-.3-.4l-.1-1.2v-.2c0-.3-.1-.4-.3-.5H280.4c-.1 0-.2 0-.2.2v.3c0 1.2.3 2.1.9 2.8.5.7 1.4 1 2.7 1.2h1.7c1.6 0 2.8-.2 3.7-.8.8-.6 1.3-1.3 1.3-2.2v-.5l-.1-1.4c0-.4-.2-.8-.3-1.1l-.7-1c-.3-.3-.7-.5-1.3-.7a26.4 26.4 0 01-2.6-.7l-1.2-.4a1 1 0 01-.5-.3l-.2-.5v-.5-.6-.8l.5-.4.9-.2h.7l.4.4.2.5v.5l.1.3.1 1.5a23.4 23.4 0 003.7 0 17 17 0 000-2.6l-.1-.2-.1-.5a3.2 3.2 0 00-.8-1.3 3.6 3.6 0 00-1.5-.5l-.8-.1-.8-.1h-.9z" fill="#000"/>
    <path d="M291.5 191.4c0 1 .1 1.8.5 2.5s1 1.2 1.9 1.6a26 26 0 001.2.4l.4.1a17.8 17.8 0 01.4.2l.5.1.7.4c.2 0 .4.3.5.6l.1.2a4.4 4.4 0 01.2 1.3v.4l-.2.5c0 .2-.2.3-.3.5h-.1a1 1 0 01-.5.2 2.5 2.5 0 01-1 0l-.3-.1a1 1 0 01-.3-.4l-.2-.8v-.6-.5l-.3-.3-.6-.2H293a38 38 0 00-1.7.3v1.4a17.8 17.8 0 00.3.8v.2l.5.7c0 .2.2.4.4.6l.6.4 1.1.3h1.8a21.2 21.2 0 001.8 0l.7-.2c.5 0 1-.2 1.3-.5l1-.8.2-.8.1-.8c0-1.3-.3-2.3-.8-3.2l-.5-.7-.6-.4-.7-.3a22.8 22.8 0 00-2-.6l-1-.4a2 2 0 01-.8-.6c-.2-.2-.3-.6-.3-1v-.5c0-.4 0-.8.2-1.1.2-.3.6-.5 1-.5h.7l.4.3.4.8v.8l.1.5v.3l.1.2v.1l.1.3h.7a8.7 8.7 0 001.8 0c.3 0 .5 0 .7-.2v-.4-.6a4.4 4.4 0 000-1v-.5l-.1-.5-.1-.3c-.3-.6-.7-1-1.4-1.3a7 7 0 00-2.8-.5h-1.3l-.7.1-.6.1-.4.1-1 .6a2 2 0 00-.4.8c0 .1 0 .4-.2.7v1.2z" fill="#000"/>
  </g>
  <defs>
    <filter id="filter0_d" x="39.2" y="24.1" width="247.8" height="128.9" filterUnits="userSpaceOnUse" color-interpolation-filters="sRGB">
      <feFlood flood-opacity="0" result="BackgroundImageFix"/>
      <feColorMatrix in="SourceAlpha" values="0 0 0 0 0 0 0 0 0 0 0 0 0 0 0 0 0 0 127 0"/>
      <feOffset dx="2" dy="2"/>
      <feColorMatrix values="0 0 0 0 0 0 0 0 0 0 0 0 0 0 0 0 0 0 0.25 0"/>
      <feBlend in2="BackgroundImageFix" result="effect1_dropShadow"/>
      <feBlend in="SourceGraphic" in2="effect1_dropShadow" result="shape"/>
    </filter>
  </defs>
</svg>