<svg viewBox="0 0 489 972" fill="none" xmlns="http://www.w3.org/2000/svg">
  <path d="M465 0c-1.5 2.8 2 31.2 0 54.9-8.3 102.9-15.6 202.2-17.6 241a491 491 0 01-4.4 48c-2 6.5-26.8 23.7-92.5 64.1-22.8 14-42 28-42.8 31.7-2.8 8.8-12.8 75.6-24.8 161.3-2.4 17.6-1.6 18.8 6.8 20.8 4.6 1.1 33 6.3 65.5 12.2l12.2 2.3c37.6 7.2 70.4 14 73.6 15.6 5.6 2.8 43.7 103.7 47.3 124.5 1.2 8.8-3.2 13.2-37.3 36-67.2 44.9-69.6 46.9-69.6 59.7 0 6.4-2 20.8-4.8 32-4.4 19.3-5.6 20.9-20.4 24.9-8.5 2.4-16.5 3.6-16.9 2.8-.8-.8-2-19.3-2.4-41.3-1.2-39.2-6-77.7-7.2-54-.4 8.4-9.2 52.8-18.4 94.9-2 9.2-6 11.2-30.8 15.6l-15.2 2.4V902c0-26.4-1.6-50-3.2-52.4-2-3.2-8.5 8.8-16.9 32-22.1 61.2-26.6 75.7-36.2 81.2-4.2 2.3-9.2 3-17 5-12.8 3.1-24.4 4.7-25.6 3.1-1.6-1.2 5.6-43.2 15.6-93.3 13.2-66.5 16.8-92.9 14-96.5a80 80 0 00-22.8-14.4c-10-4.8-26.5-13.6-36.5-19.6L118 736l-36.4 67.6L45 871l-20.8 4.4c-11.6 2.4-22.4 3.2-24 1.6-1.6-1.2 7.6-44.8 20.8-96.5l9-35 .7-2.8a12358 12358 0 0021.1-83.1c7.2-28.8 7.6-29.2 37.3-33.2 10-1.6 18.8-3.3 19.6-4 .8-.9-1.6-28.5-5.2-61l-3.3-33-.1-.8c-2.2-21.8-4.2-41.9-5-51.4-1.2-14.4-6.8-70-12.4-124.1l-10-98.1 15.6-14c8.4-7.7 35.6-30.9 59.6-51.3l44.5-37.2 6.8-38.9c3.6-21.2 8.4-45.2 10-52.8 2-7.6 4.8-24.5 6-36.9L218 0h247.1z" fill="#000"/>
</svg>