<svg width="300px" height="300px" xmlns="http://www.w3.org/2000/svg"  
	 viewBox="0 0 200 205" style="enable-background:new 0 0 200 205;" xml:space="preserve">
<style type="text/css">
 path{stroke-width:5;fill:none}.st2{stroke:#A53587}.st3{stroke:#9F4480}.st4{stroke:#99537A}.st5{stroke:#926273}.st6{stroke:#8C716C}.st7{stroke:#867F66}.st8{stroke:#808E5F}.st9{stroke:#799D58}.st10{stroke:#73AC52}.st11{stroke:#6DBB4B}.frameholder{-webkit-animation:flipbook 11s steps(9) infinite;animation:flipbook 11s steps(9) infinite}@-webkit-keyframes flipbook{23%{-webkit-transform:translateX(0px);transform:translateX(0px)}27%{-webkit-transform:translateX(-1800px);transform:translateX(-1800px)}73%{-webkit-transform:translateX(-1800px);transform:translateX(-1800px)}77%{-webkit-transform:translateX(0px) rotate(0deg);transform:translateX(0px) rotate(0deg);-webkit-transform-origin:100px 100px;transform-origin:100px 100px}}@keyframes flipbook{23%{-webkit-transform:translateX(0px);transform:translateX(0px)}27%{-webkit-transform:translateX(-1800px);transform:translateX(-1800px)}73%{-webkit-transform:translateX(-1800px);transform:translateX(-1800px)}77%{-webkit-transform:translateX(0px) rotate(0deg);transform:translateX(0px) rotate(0deg);-webkit-transform-origin:100px 100px;transform-origin:100px 100px}}
</style>
 
<g class="frameholder">
	<path class="st2" d="M20.8,22.8l79.7,0l80.4,0v79.6l0,78.5h-80.1l-80,0l0-78.5V22.8z"/>
	<path class="st3" d="M290.5,28.8c3-1.8,72.7-15.1,77.2-12c3,2.1,6,72.6,6.1,75.6c0.1,3.1,15.2,69.6,13.3,74.9
		c-1.8,5.3-75.4,7.2-77.2,7.3c-2.8,0.3-72.2,14.8-75.8,14c-5.4-1.2-6.6-75-7.9-77.2c-2.1-3.7-15.9-67.9-14.6-72.8
		C213,33.7,288.5,30,290.5,28.8z"/>
	<path class="st4" d="M474,38c5-4.8,59-35.6,69.1-31.5c6.7,2.7,18,63.7,19.6,69.6c1.7,5.9,34.9,54.7,33.8,65.9
		c-1.2,11.2-68.1,21.4-71.6,22.5c-5.3,1.8-58.4,34.8-65.9,34.9c-11.1,0.1-20.6-69.2-24.1-72.9c-5.9-6.3-35.1-50.1-34.8-60.3
		C400.4,56,470.6,41.3,474,38z"/>
	<path class="st5" d="M657,52.8c5-9.2,36.4-53.2,52.6-51.9c10.9,0.9,30.4,51.3,35.4,58.9c5,7.7,51,31.2,54.3,47.8
		c3.3,16.6-55.8,37.1-60.3,40.3c-6.9,4.9-36,52-46.7,55.4c-15.8,5.1-37-58.4-43.7-62.2c-11.2-6.4-48.8-24.2-53-38.9
		C591.5,87.7,653.6,59,657,52.8z"/>
	<path class="st6" d="M842.4,76.8c1.1-13.9,2.1-61.1,22.6-68.4c13.7-4.9,41.8,32.8,52.2,39.4s56.1-2.7,69.3,15.6
		s-34.6,52.4-38.3,58.7c-5.6,9.7-2.4,59.6-13.5,69.7c-16.4,14.9-54.1-38-64.3-39c-17.2-1.6-49.4,10.2-62.5-5.4
		S841.7,86.2,842.4,76.8z"/>
	<path class="st7" d="M1039.3,106.1c-7.1-15.9-34.2-48.3-16.1-68.5c12.2-13.5,45.6,11,60.9,12.1s40.4-36.6,65.9-24.2
		c25.4,12.3-6.7,58.2-6.9,67.3c-0.4,14,33,46.9,26.8,64.6c-9.2,26.1-62.4-9.4-74.3-4.4c-19.8,8.4-28.3,40.8-52,31.4
		C1019.9,175.1,1044.2,116.9,1039.3,106.1z"/>
	<path class="st8" d="M1251.7,133.4c-17.5-11.5-57.2-13.1-51.9-45.3c3.6-21.5,39.8-9.8,55.9-18.6c16.1-8.8,4-54.7,37.7-58.7
		s22.2,49.6,27.9,59c8.7,14.5,55.1,12.5,60.3,34.4c7.6,32.3-55.9,22.4-64.7,35.2c-14.6,21.3,11.2,51-18.8,56.9
		C1268.1,202.2,1263.5,141.2,1251.7,133.4z"/>
	<path class="st9" d="M1468.4,144.3c-24.1-3.9-56,20.7-65.7-16c-6.5-24.6,30.4-18.4,43.3-35.5s-29.1-49.3,4.9-69.6
		s36.2,34.8,46.7,42.1c16.1,11.2,53.6-20.3,69.5,0.5c23.5,30.8-41.6,39.6-44.8,57.4c-5.4,29.7,43.6,37.9,14.5,58.5
		C1507.6,202.3,1484.8,146.9,1468.4,144.3z"/>
	<path class="st10" d="M1686.4,146c-26.9,7.5-36.8,50.2-64.5,16.6c-18.5-22.5,20.9-22.5,26.2-46.3c5.3-23.9-55.6-26.1-30-63.4
		s43,17,57.4,19.5c22.1,3.9,34.5-48.6,61-34.6c39.2,20.7-22.4,50-17.3,70c8.7,33.4,65.1,7.2,44.8,42.5
		C1743.7,185.6,1704.6,140.9,1686.4,146z"/>
	<path class="st11" d="M1906,135.4c-22.9,21.5-1,66-46.1,47c-30.2-12.7,12.3-23.9,5.1-50.4s-65.8,12.3-59.9-38.2s42.2-2.3,57.9-7.3
		c24.1-7.7-0.4-63.2,33.3-63.1c49.8,0.2,0.6,52.3,16.2,69.5c26.1,28.8,65.5-36.2,63.6,9.6S1921.5,120.8,1906,135.4z"/>
</g>
</svg>