
<svg viewBox="0 0 984 234" fill="none" xmlns="http://www.w3.org/2000/svg">
  <g clip-path="url(#clip0)">
    <rect width="984" height="234" fill="#fff"/>
    <g opacity="1" fill="#D7D7D7">
      <path d="M733 207c4.5 0 8.5 3 9 5.5l.5 1.5h.5c2.5-3.5 4.2-5.2 7.5-9-3.8-5.5-10.2-8-17.5-8v10zM733 187c9.3.2 19.2 4.7 24.5 11.5 3-2.5 5.3-3.6 9-6A42.9 42.9 0 00733 176v11zM733 166a53.7 53.7 0 0141 22.5c4.3-2 4.8-2.3 9.5-3.5a59 59 0 00-50.5-29v10z"/>
    </g>
    <path d="M733 146c26 .2 49.6 16 62 36.6-2.5.4-9.1 1.8-11.5 2.4a59 59 0 00-50.5-29v-10zM774 188.5a53.7 53.7 0 00-41-22.5v10c13.5 0 25.8 6.7 33.5 16.5 2.3-1.4 5-2.8 7.5-4zM757.5 198.5A33.2 33.2 0 00733 187v10c7.2 0 13.7 2.5 17.5 8 1.7-2 5-4.7 7-6.5zM740.5 218.5l2-4c0-4.4-5-7.5-9.5-7.5v11c2.7 0 4.9.2 7.5.5z" fill="#F2F5F7"/>
    <g opacity="1" fill="#D7D7D7">
      <path d="M733 156c-4.5 0-8.5-3-9-5.5l-.5-1.5h-.5c-2.5 3.5-4.2 5.2-7.5 9 3.8 5.5 10.2 8 17.5 8v-10zM733 176a33.2 33.2 0 01-24.5-11.5c-3 2.5-5.3 3.6-9 6A42.9 42.9 0 00733 187v-11zM733 197a53.7 53.7 0 01-41-22.5c-4.3 2-4.8 2.3-9.5 3.5a59 59 0 0050.5 29v-10z"/>
    </g>
    <path d="M733 217c-26-.2-49.6-16-62-36.6 2.5-.4 9.1-1.8 11.5-2.4a59 59 0 0050.5 29v10zM692 174.5a53.7 53.7 0 0041 22.5v-10a42.9 42.9 0 01-33.5-16.5c-2.3 1.4-5 2.8-7.5 4zM708.5 164.5A33.2 33.2 0 00733 176v-10c-7.2 0-13.7-2.5-17.5-8-1.7 2-5 4.7-7 6.5zM725.5 144.5l-2 4c0 4.4 5 7.5 9.5 7.5v-11c-2.7 0-4.9-.2-7.5-.5z" fill="#F2F5F7"/>
    <g opacity="1" fill="#D7D7D7">
      <path d="M732 278c4.5 0 8.5 3 9 5.5l.5 1.5h.5c2.5-3.5 4.2-5.2 7.5-9-3.8-5.5-10.2-8-17.5-8v10zM732 258c9.3.2 19.2 4.7 24.5 11.5 3-2.5 5.3-3.6 9-6A42.9 42.9 0 00732 247v11zM732 237a53.7 53.7 0 0141 22.5c4.3-2 4.8-2.3 9.5-3.5a59 59 0 00-50.5-29v10z"/>
    </g>
    <path d="M732 217c26 .2 49.6 16 62 36.6-2.5.4-9.1 1.8-11.5 2.4a59 59 0 00-50.5-29v-10zM773 259.5a53.7 53.7 0 00-41-22.5v10c13.5 0 25.8 6.7 33.5 16.5 2.3-1.4 5-2.8 7.5-4zM756.5 269.5A33.2 33.2 0 00732 258v10c7.2 0 13.7 2.5 17.5 8 1.7-2 5-4.7 7-6.5zM739.5 289.5l2-4c0-4.4-5-7.5-9.5-7.5v11c2.7 0 4.9.2 7.5.5z" fill="#F2F5F7"/>
    <g opacity="1" fill="#D7D7D7">
      <path d="M732 227c-4.5 0-8.5-3-9-5.5l-.5-1.5h-.5c-2.5 3.5-4.2 5.2-7.5 9 3.8 5.5 10.2 8 17.5 8v-10zM732 247a33.2 33.2 0 01-24.5-11.5c-3 2.5-5.3 3.6-9 6A42.9 42.9 0 00732 258v-11zM732 268a53.7 53.7 0 01-41-22.5c-4.3 2-4.8 2.3-9.5 3.5a59 59 0 0050.5 29v-10z"/>
    </g>
    <path d="M732 288c-26-.2-49.6-16-62-36.6 2.5-.4 9.1-1.8 11.5-2.4a59 59 0 0050.5 29v10zM691 245.5a53.7 53.7 0 0041 22.5v-10a42.9 42.9 0 01-33.5-16.5c-2.3 1.4-5 2.8-7.5 4zM707.5 235.5A33.2 33.2 0 00732 247v-10c-7.2 0-13.7-2.5-17.5-8-1.7 2-5 4.7-7 6.5zM724.5 215.5l-2 4c0 4.4 5 7.5 9.5 7.5v-11c-2.7 0-4.9-.2-7.5-.5z" fill="#F2F5F7"/>
    <g opacity="1" fill="#D7D7D7">
      <path d="M733 136c4.5 0 8.5 3 9 5.5l.5 1.5h.5c2.5-3.5 4.2-5.2 7.5-9-3.8-5.5-10.2-8-17.5-8v10zM733 116c9.3.2 19.2 4.7 24.5 11.5 3-2.5 5.3-3.6 9-6A42.9 42.9 0 00733 105v11zM733 95a53.7 53.7 0 0141 22.5c4.3-2 4.8-2.3 9.5-3.5A59 59 0 00733 85v10z"/>
    </g>
    <path d="M733 75c26 .2 49.6 16 62 36.6-2.5.4-9.1 1.8-11.5 2.4A59 59 0 00733 85V75zM774 117.5A53.7 53.7 0 00733 95v10c13.5 0 25.8 6.7 33.5 16.5 2.3-1.4 5-2.8 7.5-4zM757.5 127.5A33.2 33.2 0 00733 116v10c7.2 0 13.7 2.5 17.5 8 1.7-2 5-4.7 7-6.5zM740.5 147.5l2-4c0-4.4-5-7.5-9.5-7.5v11c2.7 0 4.9.2 7.5.5z" fill="#F2F5F7"/>
    <g opacity="1" fill="#D7D7D7">
      <path d="M733 85c-4.5 0-8.5-3-9-5.5l-.5-1.5h-.5c-2.5 3.5-4.2 5.2-7.5 9 3.8 5.5 10.2 8 17.5 8V85zM733 105a33.2 33.2 0 01-24.5-11.5c-3 2.5-5.3 3.6-9 6A42.9 42.9 0 00733 116v-11zM733 126a53.7 53.7 0 01-41-22.5c-4.3 2-4.8 2.3-9.5 3.5a59 59 0 0050.5 29v-10z"/>
    </g>
    <path d="M733 146c-26-.2-49.6-16-62-36.6 2.5-.4 9.1-1.8 11.5-2.4a59 59 0 0050.5 29v10zM692 103.5a53.7 53.7 0 0041 22.5v-10a42.9 42.9 0 01-33.5-16.5c-2.3 1.4-5 2.8-7.5 4zM708.5 93.5A33.2 33.2 0 00733 105V95c-7.2 0-13.7-2.5-17.5-8-1.7 2-5 4.7-7 6.5zM725.5 73.5l-2 4c0 4.4 5 7.5 9.5 7.5V74a64 64 0 01-7.5-.5z" fill="#F2F5F7"/>
    <g opacity="1" fill="#D7D7D7">
      <path d="M733 63c4.5 0 8.5 3 9 5.5l.5 1.5h.5c2.5-3.5 4.2-5.2 7.5-9-3.8-5.5-10.2-8-17.5-8v10zM733 43c9.3.2 19.2 4.7 24.5 11.5 3-2.5 5.3-3.6 9-6A42.9 42.9 0 00733 32v11zM733 22a53.7 53.7 0 0141 22.5c4.3-2 4.8-2.3 9.5-3.5A59 59 0 00733 12v10z"/>
    </g>
    <path d="M733 2c26 .2 49.6 16 62 36.6-2.5.4-9.1 1.8-11.5 2.4A59 59 0 00733 12V2zM774 44.5A53.7 53.7 0 00733 22v10c13.5 0 25.8 6.7 33.5 16.5 2.3-1.4 5-2.8 7.5-4zM757.5 54.5A33.2 33.2 0 00733 43v10c7.2 0 13.7 2.5 17.5 8 1.7-2 5-4.7 7-6.5zM740.5 74.5l2-4c0-4.4-5-7.5-9.5-7.5v11c2.7 0 4.9.2 7.5.5z" fill="#F2F5F7"/>
    <g opacity="1" fill="#D7D7D7">
      <path d="M733 12c-4.5 0-8.5-3-9-5.5l-.5-1.5h-.5c-2.5 3.5-4.2 5.2-7.5 9 3.8 5.5 10.2 8 17.5 8V12zM733 32a33.2 33.2 0 01-24.5-11.5c-3 2.5-5.3 3.6-9 6A42.9 42.9 0 00733 43V32zM733 53a53.7 53.7 0 01-41-22.5c-4.3 2-4.8 2.3-9.5 3.5A59 59 0 00733 63V53z"/>
    </g>
    <path d="M733 73c-26-.2-49.6-16-62-36.6 2.5-.4 9.1-1.8 11.5-2.4A59 59 0 00733 63v10zM692 30.5A53.7 53.7 0 00733 53V43a42.9 42.9 0 01-33.5-16.5c-2.3 1.4-5 2.8-7.5 4zM708.5 20.5A33.2 33.2 0 00733 32V22c-7.2 0-13.7-2.5-17.5-8-1.7 2-5 4.7-7 6.5zM725.5.5l-2 4c0 4.4 5 7.5 9.5 7.5V1a64 64 0 01-7.5-.5zM148 119a8 8 0 100-16 8 8 0 000 16z" fill="#F2F5F7"/>
    <path fill-rule="evenodd" clip-rule="evenodd" d="M147.5 141a29.5 29.5 0 100-59 29.5 29.5 0 000 59zm.5-9a21 21 0 100-42 21 21 0 000 42z" fill="#F2F5F7"/>
    <path fill-rule="evenodd" clip-rule="evenodd" d="M198 111a50 50 0 11-100 0 50 50 0 01100 0zm-8 0a42 42 0 11-84 0 42 42 0 0184 0z" fill="#F2F5F7"/>
    <path fill-rule="evenodd" clip-rule="evenodd" d="M219 111.5a71.5 71.5 0 11-143 0 71.5 71.5 0 01143 0zm-7 0a64.5 64.5 0 11-129 0 64.5 64.5 0 01129 0z" fill="#F2F5F7"/>
    <path fill-rule="evenodd" clip-rule="evenodd" d="M147.5 176a64.5 64.5 0 100-129 64.5 64.5 0 000 129zm.5-15a50 50 0 100-100 50 50 0 000 100z" fill="#DFDFDF"/>
    <path fill-rule="evenodd" clip-rule="evenodd" d="M148 153a42 42 0 100-84 42 42 0 000 84zm-.5-12a29.5 29.5 0 100-59 29.5 29.5 0 000 59z" fill="#DFDFDF"/>
    <path fill-rule="evenodd" clip-rule="evenodd" d="M148 132a21 21 0 100-42 21 21 0 000 42zm0-13a8 8 0 100-16 8 8 0 000 16z" fill="#DFDFDF"/>
    <path d="M77 155a8 8 0 100-16 8 8 0 000 16z" fill="#F2F5F7"/>
    <path fill-rule="evenodd" clip-rule="evenodd" d="M76.5 177a29.5 29.5 0 100-59 29.5 29.5 0 000 59zm.5-9a21 21 0 100-42 21 21 0 000 42z" fill="#F2F5F7"/>
    <path fill-rule="evenodd" clip-rule="evenodd" d="M127 147a50 50 0 11-100 0 50 50 0 01100 0zm-8 0a42 42 0 11-84 0 42 42 0 0184 0z" fill="#F2F5F7"/>
    <path fill-rule="evenodd" clip-rule="evenodd" d="M148 147.5a71.5 71.5 0 11-143 0 71.5 71.5 0 01143 0zm-7 0a64.5 64.5 0 11-129 0 64.5 64.5 0 01129 0z" fill="#F2F5F7"/>
    <path fill-rule="evenodd" clip-rule="evenodd" d="M76.5 212a64.5 64.5 0 100-129 64.5 64.5 0 000 129zm.5-15a50 50 0 100-100 50 50 0 000 100z" fill="#DFDFDF"/>
    <path fill-rule="evenodd" clip-rule="evenodd" d="M77 189a42 42 0 100-84 42 42 0 000 84zm-.5-12a29.5 29.5 0 100-59 29.5 29.5 0 000 59z" fill="#DFDFDF"/>
    <path fill-rule="evenodd" clip-rule="evenodd" d="M77 168a21 21 0 100-42 21 21 0 000 42zm0-13a8 8 0 100-16 8 8 0 000 16z" fill="#DFDFDF"/>
    <path d="M220 155a8 8 0 100-16 8 8 0 000 16z" fill="#F2F5F7"/>
    <path fill-rule="evenodd" clip-rule="evenodd" d="M219.5 177a29.5 29.5 0 100-59 29.5 29.5 0 000 59zm.5-9a21 21 0 100-42 21 21 0 000 42z" fill="#F2F5F7"/>
    <path fill-rule="evenodd" clip-rule="evenodd" d="M270 147a50 50 0 11-100 0 50 50 0 01100 0zm-8 0a42 42 0 11-84 0 42 42 0 0184 0z" fill="#F2F5F7"/>
    <path fill-rule="evenodd" clip-rule="evenodd" d="M291 147.5a71.5 71.5 0 11-143 0 71.5 71.5 0 01143 0zm-7 0a64.5 64.5 0 11-129 0 64.5 64.5 0 01129 0z" fill="#F2F5F7"/>
    <path fill-rule="evenodd" clip-rule="evenodd" d="M219.5 212a64.5 64.5 0 100-129 64.5 64.5 0 000 129zm.5-15a50 50 0 100-100 50 50 0 000 100z" fill="#DFDFDF"/>
    <path fill-rule="evenodd" clip-rule="evenodd" d="M220 189a42 42 0 100-84 42 42 0 000 84zm-.5-12a29.5 29.5 0 100-59 29.5 29.5 0 000 59z" fill="#DFDFDF"/>
    <path fill-rule="evenodd" clip-rule="evenodd" d="M220 168a21 21 0 100-42 21 21 0 000 42zm0-13a8 8 0 100-16 8 8 0 000 16z" fill="#DFDFDF"/>
    <g opacity="1" fill="#D7D7D7">
      <path d="M597 135c-4.5 0-8.5 3-9 5.5l-.5 1.5h-.5c-2.5-3.5-4.2-5.2-7.5-9 3.8-5.5 10.2-8 17.5-8v10zM597 115c-9.3.2-19.2 4.7-24.5 11.5-3-2.5-5.3-3.6-9-6A42.9 42.9 0 01597 104v11zM597 94a53.7 53.7 0 00-41 22.5c-4.3-2-4.8-2.3-9.5-3.5A59 59 0 01597 84v10z"/>
    </g>
    <path d="M597 74c-26 .2-49.6 16-62 36.6 2.5.4 9.1 1.8 11.5 2.4A59 59 0 01597 84V74zM556 116.5A53.7 53.7 0 01597 94v10a42.9 42.9 0 00-33.5 16.5c-2.3-1.4-5-2.8-7.5-4zM572.5 126.5A33.2 33.2 0 01597 115v10c-7.2 0-13.7 2.5-17.5 8-1.7-2-5-4.7-7-6.5zM589.5 146.5l-2-4c0-4.4 5-7.5 9.5-7.5v11c-2.7 0-4.9.2-7.5.5z" fill="#F2F5F7"/>
    <g opacity="1" fill="#D7D7D7">
      <path d="M597 84c4.5 0 8.5-3 9-5.5l.5-1.5h.5c2.5 3.5 4.2 5.2 7.5 9-3.8 5.5-10.2 8-17.5 8V84zM597 104c9.3-.2 19.2-4.7 24.5-11.5 3 2.5 5.3 3.6 9 6A42.9 42.9 0 01597 115v-11zM597 125a53.7 53.7 0 0041-22.5c4.3 2 4.8 2.3 9.5 3.5a59 59 0 01-50.5 29v-10z"/>
    </g>
    <path d="M597 145c26-.2 49.6-16 62-36.6-2.5-.4-9.1-1.8-11.5-2.4a59 59 0 01-50.5 29v10zM638 102.5a53.7 53.7 0 01-41 22.5v-10c13.5 0 25.8-6.7 33.5-16.5 2.3 1.4 5 2.8 7.5 4zM621.5 92.5A33.2 33.2 0 01597 104V94c7.2 0 13.7-2.5 17.5-8 1.7 2 5 4.7 7 6.5zM604.5 72.5l2 4c0 4.4-5 7.5-9.5 7.5V73a64 64 0 007.5-.5z" fill="#F2F5F7"/>
    <g opacity="1" fill="#D7D7D7">
      <path d="M597 63c-4.5 0-8.5 3-9 5.5l-.5 1.5h-.5c-2.5-3.5-4.2-5.2-7.5-9 3.8-5.5 10.2-8 17.5-8v10zM597 43c-9.3.2-19.2 4.7-24.5 11.5-3-2.5-5.3-3.6-9-6A42.9 42.9 0 01597 32v11zM597 22a53.7 53.7 0 00-41 22.5c-4.3-2-4.8-2.3-9.5-3.5A59 59 0 01597 12v10z"/>
    </g>
    <path d="M597 2c-26 .2-49.6 16-62 36.6 2.5.4 9.1 1.8 11.5 2.4A59 59 0 01597 12V2zM556 44.5A53.7 53.7 0 01597 22v10a42.9 42.9 0 00-33.5 16.5c-2.3-1.4-5-2.8-7.5-4zM572.5 54.5A33.2 33.2 0 01597 43v10c-7.2 0-13.7 2.5-17.5 8-1.7-2-5-4.7-7-6.5zM589.5 74.5l-2-4c0-4.4 5-7.5 9.5-7.5v11a64 64 0 00-7.5.5z" fill="#F2F5F7"/>
    <g opacity="1" fill="#D7D7D7">
      <path d="M597 12c4.5 0 8.5-3 9-5.5l.5-1.5h.5c2.5 3.5 4.2 5.2 7.5 9-3.8 5.5-10.2 8-17.5 8V12zM597 32c9.3-.2 19.2-4.7 24.5-11.5 3 2.5 5.3 3.6 9 6A42.9 42.9 0 01597 43V32zM597 53a53.7 53.7 0 0041-22.5c4.3 2 4.8 2.3 9.5 3.5A59 59 0 01597 63V53z"/>
    </g>
    <path d="M597 73c26-.2 49.6-16 62-36.6-2.5-.4-9.1-1.8-11.5-2.4A59 59 0 01597 63v10zM638 30.5A53.7 53.7 0 01597 53V43c13.5 0 25.8-6.7 33.5-16.5 2.3 1.4 5 2.8 7.5 4zM621.5 20.5A33.2 33.2 0 01597 32V22c7.2 0 13.7-2.5 17.5-8 1.7 2 5 4.7 7 6.5zM604.5.5l2 4c0 4.4-5 7.5-9.5 7.5V1a64 64 0 007.5-.5z" fill="#F2F5F7"/>
    <g opacity="1" fill="#D7D7D7">
      <path d="M360 192c-4.5 0-8.5 3-9 5.5l-.5 1.5h-.5c-2.5-3.5-4.2-5.2-7.5-9 3.8-5.5 10.2-8 17.5-8v10zM360 172c-9.3.2-19.2 4.7-24.5 11.5-3-2.5-5.3-3.6-9-6A42.9 42.9 0 01360 161v11zM360 151a53.7 53.7 0 00-41 22.5c-4.3-2-4.8-2.3-9.5-3.5a59 59 0 0150.5-29v10z"/>
    </g>
    <path d="M360 131c-26 .2-49.6 16-62 36.6 2.5.4 9.1 1.8 11.5 2.4a59 59 0 0150.5-29v-10zM319 173.5a53.7 53.7 0 0141-22.5v10a42.9 42.9 0 00-33.5 16.5c-2.3-1.4-5-2.8-7.5-4zM335.5 183.5A33.2 33.2 0 01360 172v10c-7.2 0-13.7 2.5-17.5 8-1.7-2-5-4.7-7-6.5zM352.5 203.5l-2-4c0-4.4 5-7.5 9.5-7.5v11c-2.7 0-4.9.2-7.5.5z" fill="#F2F5F7"/>
    <g opacity="1" fill="#D7D7D7">
      <path d="M359 100c-4.5 0-8.5 3-9 5.5l-.5 1.5h-.5c-2.5-3.5-4.2-5.2-7.5-9 3.8-5.5 10.2-8 17.5-8v10zM359 80c-9.3.2-19.2 4.7-24.5 11.5-3-2.5-5.3-3.6-9-6A42.9 42.9 0 01359 69v11zM359 59a53.7 53.7 0 00-41 22.5c-4.3-2-4.8-2.3-9.5-3.5A59 59 0 01359 49v10z"/>
    </g>
    <path d="M359 39c-26 .2-49.6 16-62 36.6 2.5.4 9.1 1.8 11.5 2.4A59 59 0 01359 49V39zM318 81.5A53.7 53.7 0 01359 59v10a42.9 42.9 0 00-33.5 16.5c-2.3-1.4-5-2.8-7.5-4zM334.5 91.5A33.2 33.2 0 01359 80v10c-7.2 0-13.7 2.5-17.5 8-1.7-2-5-4.7-7-6.5zM351.5 111.5l-2-4c0-4.4 5-7.5 9.5-7.5v11c-2.7 0-4.9.2-7.5.5z" fill="#F2F5F7"/>
    <g opacity="1" fill="#D7D7D7">
      <path d="M370 100c4.5 0 8.5 3 9 5.5l.5 1.5h.5c2.5-3.5 4.2-5.2 7.5-9-3.8-5.5-10.2-8-17.5-8v10zM370 80c9.3.2 19.2 4.7 24.5 11.5 3-2.5 5.3-3.6 9-6A42.9 42.9 0 00370 69v11zM370 59a53.7 53.7 0 0141 22.5c4.3-2 4.8-2.3 9.5-3.5A59 59 0 00370 49v10z"/>
    </g>
    <path d="M370 39c26 .2 49.6 16 62 36.6-2.5.4-9.1 1.8-11.5 2.4A59 59 0 00370 49V39zM411 81.5A53.7 53.7 0 00370 59v10c13.5 0 25.8 6.7 33.5 16.5 2.3-1.4 5-2.8 7.5-4zM394.5 91.5A33.2 33.2 0 00370 80v10c7.2 0 13.7 2.5 17.5 8 1.7-2 5-4.7 7-6.5zM377.5 111.5l2-4c0-4.4-5-7.5-9.5-7.5v11c2.7 0 4.9.2 7.5.5z" fill="#F2F5F7"/>
    <g opacity="1" fill="#D7D7D7">
      <path d="M460 135c4.5 0 8.5 3 9 5.5l.5 1.5h.5c2.5-3.5 4.2-5.2 7.5-9-3.8-5.5-10.2-8-17.5-8v10zM460 115c9.3.2 19.2 4.7 24.5 11.5 3-2.5 5.3-3.6 9-6A42.9 42.9 0 00460 104v11zM460 94a53.7 53.7 0 0141 22.5c4.3-2 4.8-2.3 9.5-3.5A59 59 0 00460 84v10z"/>
    </g>
    <path d="M460 74c26 .2 49.6 16 62 36.6-2.5.4-9.1 1.8-11.5 2.4A59 59 0 00460 84V74zM501 116.5A53.7 53.7 0 00460 94v10c13.5 0 25.8 6.7 33.5 16.5 2.3-1.4 5-2.8 7.5-4zM484.5 126.5A33.2 33.2 0 00460 115v10c7.2 0 13.7 2.5 17.5 8 1.7-2 5-4.7 7-6.5zM467.5 146.5l2-4c0-4.4-5-7.5-9.5-7.5v11c2.7 0 4.9.2 7.5.5z" fill="#F2F5F7"/>
    <g opacity="1" fill="#D7D7D7">
      <path d="M460 64c4.5 0 8.5 3 9 5.5l.5 1.5h.5c2.5-3.5 4.2-5.2 7.5-9-3.8-5.5-10.2-8-17.5-8v10zM460 44c9.3.2 19.2 4.7 24.5 11.5 3-2.5 5.3-3.6 9-6A42.9 42.9 0 00460 33v11zM460 23a53.7 53.7 0 0141 22.5c4.3-2 4.8-2.3 9.5-3.5A59 59 0 00460 13v10z"/>
    </g>
    <path d="M460 3c26 .2 49.6 16 62 36.6-2.5.4-9.1 1.8-11.5 2.4A59 59 0 00460 13V3zM501 45.5A53.7 53.7 0 00460 23v10c13.5 0 25.8 6.7 33.5 16.5 2.3-1.4 5-2.8 7.5-4zM484.5 55.5A33.2 33.2 0 00460 44v10c7.2 0 13.7 2.5 17.5 8 1.7-2 5-4.7 7-6.5zM467.5 75.5l2-4c0-4.4-5-7.5-9.5-7.5v11c2.7 0 4.9.2 7.5.5z" fill="#F2F5F7"/>
    <g opacity="1" fill="#D7D7D7">
      <path d="M460 207c4.5 0 8.5 3 9 5.5l.5 1.5h.5c2.5-3.5 4.2-5.2 7.5-9-3.8-5.5-10.2-8-17.5-8v10zM460 187c9.3.2 19.2 4.7 24.5 11.5 3-2.5 5.3-3.6 9-6A42.9 42.9 0 00460 176v11zM460 166a53.7 53.7 0 0141 22.5c4.3-2 4.8-2.3 9.5-3.5a59 59 0 00-50.5-29v10z"/>
    </g>
    <path d="M460 146c26 .2 49.6 16 62 36.6-2.5.4-9.1 1.8-11.5 2.4a59 59 0 00-50.5-29v-10zM501 188.5a53.7 53.7 0 00-41-22.5v10c13.5 0 25.8 6.7 33.5 16.5 2.3-1.4 5-2.8 7.5-4zM484.5 198.5A33.2 33.2 0 00460 187v10c7.2 0 13.7 2.5 17.5 8 1.7-2 5-4.7 7-6.5zM467.5 218.5l2-4c0-4.4-5-7.5-9.5-7.5v11c2.7 0 4.9.2 7.5.5z" fill="#F2F5F7"/>
    <g opacity="1" fill="#D7D7D7">
      <path d="M460 277c4.5 0 8.5 3 9 5.5l.5 1.5h.5c2.5-3.5 4.2-5.2 7.5-9-3.8-5.5-10.2-8-17.5-8v10zM460 257c9.3.2 19.2 4.7 24.5 11.5 3-2.5 5.3-3.6 9-6A42.9 42.9 0 00460 246v11zM460 236a53.7 53.7 0 0141 22.5c4.3-2 4.8-2.3 9.5-3.5a59 59 0 00-50.5-29v10z"/>
    </g>
    <path d="M460 216c26 .2 49.6 16 62 36.6-2.5.4-9.1 1.8-11.5 2.4a59 59 0 00-50.5-29v-10zM501 258.5a53.7 53.7 0 00-41-22.5v10c13.5 0 25.8 6.7 33.5 16.5 2.3-1.4 5-2.8 7.5-4zM484.5 268.5A33.2 33.2 0 00460 257v10c7.2 0 13.7 2.5 17.5 8 1.7-2 5-4.7 7-6.5zM467.5 288.5l2-4c0-4.4-5-7.5-9.5-7.5v11c2.7 0 4.9.2 7.5.5z" fill="#F2F5F7"/>
    <g opacity="1" fill="#D7D7D7">
      <path d="M529 100c-4.5 0-8.5 3-9 5.5l-.5 1.5h-.5c-2.5-3.5-4.2-5.2-7.5-9 3.8-5.5 10.2-8 17.5-8v10zM529 80c-9.3.2-19.2 4.7-24.5 11.5-3-2.5-5.3-3.6-9-6A42.9 42.9 0 01529 69v11zM529 59a53.7 53.7 0 00-41 22.5c-4.3-2-4.8-2.3-9.5-3.5A59 59 0 01529 49v10z"/>
    </g>
    <path d="M529 39c-26 .2-49.6 16-62 36.6 2.5.4 9.1 1.8 11.5 2.4A59 59 0 01529 49V39zM488 81.5A53.7 53.7 0 01529 59v10a42.9 42.9 0 00-33.5 16.5c-2.3-1.4-5-2.8-7.5-4zM504.5 91.5A33.2 33.2 0 01529 80v10c-7.2 0-13.7 2.5-17.5 8-1.7-2-5-4.7-7-6.5zM521.5 111.5l-2-4c0-4.4 5-7.5 9.5-7.5v11c-2.7 0-4.9.2-7.5.5z" fill="#F2F5F7"/>
    <g opacity="1" fill="#D7D7D7">
      <path d="M529 100c4.5 0 8.5 3 9 5.5l.5 1.5h.5c2.5-3.5 4.2-5.2 7.5-9-3.8-5.5-10.2-8-17.5-8v10zM529 80c9.3.2 19.2 4.7 24.5 11.5 3-2.5 5.3-3.6 9-6A42.9 42.9 0 00529 69v11zM529 59a53.7 53.7 0 0141 22.5c4.3-2 4.8-2.3 9.5-3.5A59 59 0 00529 49v10z"/>
    </g>
    <path d="M529 39c26 .2 49.6 16 62 36.6-2.5.4-9.1 1.8-11.5 2.4A59 59 0 00529 49V39zM570 81.5A53.7 53.7 0 00529 59v10c13.5 0 25.8 6.7 33.5 16.5 2.3-1.4 5-2.8 7.5-4zM553.5 91.5A33.2 33.2 0 00529 80v10c7.2 0 13.7 2.5 17.5 8 1.7-2 5-4.7 7-6.5zM536.5 111.5l2-4c0-4.4-5-7.5-9.5-7.5v11c2.7 0 4.9.2 7.5.5z" fill="#F2F5F7"/>
    <g opacity="1" fill="#D7D7D7">
      <path d="M530 29c-4.5 0-8.5 3-9 5.5l-.5 1.5h-.5c-2.5-3.5-4.2-5.2-7.5-9 3.8-5.5 10.2-8 17.5-8v10zM530 9c-9.3.2-19.2 4.7-24.5 11.5-3-2.5-5.3-3.6-9-6A42.9 42.9 0 01530-2V9zM530-12a53.7 53.7 0 00-41 22.5c-4.3-2-4.8-2.3-9.5-3.5A59 59 0 01530-22v10z"/>
    </g>
    <path d="M530-32c-26 .2-49.6 16-62 36.6 2.5.4 9.1 1.8 11.5 2.4A59 59 0 01530-22v-10zM489 10.5A53.7 53.7 0 01530-12v10a42.9 42.9 0 00-33.5 16.5c-2.3-1.4-5-2.8-7.5-4zM505.5 20.5A33.2 33.2 0 01530 9v10c-7.2 0-13.7 2.5-17.5 8-1.7-2-5-4.7-7-6.5zM522.5 40.5l-2-4c0-4.4 5-7.5 9.5-7.5v11a64 64 0 00-7.5.5z" fill="#F2F5F7"/>
    <g opacity="1" fill="#D7D7D7">
      <path d="M530 29c4.5 0 8.5 3 9 5.5l.5 1.5h.5c2.5-3.5 4.2-5.2 7.5-9-3.8-5.5-10.2-8-17.5-8v10zM530 9c9.3.2 19.2 4.7 24.5 11.5 3-2.5 5.3-3.6 9-6A42.9 42.9 0 00530-2V9zM530-12a53.7 53.7 0 0141 22.5c4.3-2 4.8-2.3 9.5-3.5A59 59 0 00530-22v10z"/>
    </g>
    <path d="M530-32c26 .2 49.6 16 62 36.6-2.5.4-9.1 1.8-11.5 2.4A59 59 0 00530-22v-10zM571 10.5A53.7 53.7 0 00530-12v10c13.5 0 25.8 6.7 33.5 16.5 2.3-1.4 5-2.8 7.5-4zM554.5 20.5A33.2 33.2 0 00530 9v10c7.2 0 13.7 2.5 17.5 8 1.7-2 5-4.7 7-6.5zM537.5 40.5l2-4c0-4.4-5-7.5-9.5-7.5v11c2.7 0 4.9.2 7.5.5z" fill="#F2F5F7"/>
    <g opacity="1" fill="#D7D7D7">
      <path d="M529 171c-4.5 0-8.5 3-9 5.5l-.5 1.5h-.5c-2.5-3.5-4.2-5.2-7.5-9 3.8-5.5 10.2-8 17.5-8v10zM529 151c-9.3.2-19.2 4.7-24.5 11.5-3-2.5-5.3-3.6-9-6A42.9 42.9 0 01529 140v11zM529 130a53.7 53.7 0 00-41 22.5c-4.3-2-4.8-2.3-9.5-3.5a59 59 0 0150.5-29v10z"/>
    </g>
    <path d="M529 110c-26 .2-49.6 16-62 36.6 2.5.4 9.1 1.8 11.5 2.4a59 59 0 0150.5-29v-10zM488 152.5a53.7 53.7 0 0141-22.5v10a42.9 42.9 0 00-33.5 16.5c-2.3-1.4-5-2.8-7.5-4zM504.5 162.5A33.2 33.2 0 01529 151v10c-7.2 0-13.7 2.5-17.5 8-1.7-2-5-4.7-7-6.5zM521.5 182.5l-2-4c0-4.4 5-7.5 9.5-7.5v11c-2.7 0-4.9.2-7.5.5z" fill="#F2F5F7"/>
    <g opacity="1" fill="#D7D7D7">
      <path d="M529 171c4.5 0 8.5 3 9 5.5l.5 1.5h.5c2.5-3.5 4.2-5.2 7.5-9-3.8-5.5-10.2-8-17.5-8v10zM529 151c9.3.2 19.2 4.7 24.5 11.5 3-2.5 5.3-3.6 9-6A42.9 42.9 0 00529 140v11zM529 130a53.7 53.7 0 0141 22.5c4.3-2 4.8-2.3 9.5-3.5a59 59 0 00-50.5-29v10z"/>
    </g>
    <path d="M529 110c26 .2 49.6 16 62 36.6-2.5.4-9.1 1.8-11.5 2.4a59 59 0 00-50.5-29v-10zM570 152.5a53.7 53.7 0 00-41-22.5v10c13.5 0 25.8 6.7 33.5 16.5 2.3-1.4 5-2.8 7.5-4zM553.5 162.5A33.2 33.2 0 00529 151v10c7.2 0 13.7 2.5 17.5 8 1.7-2 5-4.7 7-6.5zM536.5 182.5l2-4c0-4.4-5-7.5-9.5-7.5v11c2.7 0 4.9.2 7.5.5z" fill="#F2F5F7"/>
    <g opacity="1" fill="#D7D7D7">
      <path d="M530 242c-4.5 0-8.5 3-9 5.5l-.5 1.5h-.5c-2.5-3.5-4.2-5.2-7.5-9 3.8-5.5 10.2-8 17.5-8v10zM530 222c-9.3.2-19.2 4.7-24.5 11.5-3-2.5-5.3-3.6-9-6A42.9 42.9 0 01530 211v11zM530 201a53.7 53.7 0 00-41 22.5c-4.3-2-4.8-2.3-9.5-3.5a59 59 0 0150.5-29v10z"/>
    </g>
    <path d="M530 181c-26 .2-49.6 16-62 36.6 2.5.4 9.1 1.8 11.5 2.4a59 59 0 0150.5-29v-10zM489 223.5a53.7 53.7 0 0141-22.5v10a42.9 42.9 0 00-33.5 16.5c-2.3-1.4-5-2.8-7.5-4zM505.5 233.5A33.2 33.2 0 01530 222v10c-7.2 0-13.7 2.5-17.5 8-1.7-2-5-4.7-7-6.5zM522.5 253.5l-2-4c0-4.4 5-7.5 9.5-7.5v11c-2.7 0-4.9.2-7.5.5z" fill="#F2F5F7"/>
    <g opacity="1" fill="#D7D7D7">
      <path d="M530 242c4.5 0 8.5 3 9 5.5l.5 1.5h.5c2.5-3.5 4.2-5.2 7.5-9-3.8-5.5-10.2-8-17.5-8v10zM530 222c9.3.2 19.2 4.7 24.5 11.5 3-2.5 5.3-3.6 9-6A42.9 42.9 0 00530 211v11zM530 201a53.7 53.7 0 0141 22.5c4.3-2 4.8-2.3 9.5-3.5a59 59 0 00-50.5-29v10z"/>
    </g>
    <path d="M530 181c26 .2 49.6 16 62 36.6-2.5.4-9.1 1.8-11.5 2.4a59 59 0 00-50.5-29v-10zM571 223.5a53.7 53.7 0 00-41-22.5v10c13.5 0 25.8 6.7 33.5 16.5 2.3-1.4 5-2.8 7.5-4zM554.5 233.5A33.2 33.2 0 00530 222v10c7.2 0 13.7 2.5 17.5 8 1.7-2 5-4.7 7-6.5zM537.5 253.5l2-4c0-4.4-5-7.5-9.5-7.5v11c2.7 0 4.9.2 7.5.5z" fill="#F2F5F7"/>
    <g opacity="1" fill="#D7D7D7">
      <path d="M815 99c-4.5 0-8.5 3-9 5.5l-.5 1.5h-.5c-2.5-3.5-4.2-5.2-7.5-9 3.8-5.5 10.2-8 17.5-8v10zM815 79c-9.3.2-19.2 4.7-24.5 11.5-3-2.5-5.3-3.6-9-6A42.9 42.9 0 01815 68v11zM815 58a53.7 53.7 0 00-41 22.5c-4.3-2-4.8-2.3-9.5-3.5A59 59 0 01815 48v10z"/>
    </g>
    <path d="M815 38c-26 .2-49.6 16-62 36.6 2.5.4 9.1 1.8 11.5 2.4A59 59 0 01815 48V38zM774 80.5A53.7 53.7 0 01815 58v10a42.9 42.9 0 00-33.5 16.5c-2.3-1.4-5-2.8-7.5-4zM790.5 90.5A33.2 33.2 0 01815 79v10c-7.2 0-13.7 2.5-17.5 8-1.7-2-5-4.7-7-6.5zM807.5 110.5l-2-4c0-4.4 5-7.5 9.5-7.5v11c-2.7 0-4.9.2-7.5.5z" fill="#F2F5F7"/>
    <g opacity="1" fill="#D7D7D7">
      <path d="M815 99c4.5 0 8.5 3 9 5.5l.5 1.5h.5c2.5-3.5 4.2-5.2 7.5-9-3.8-5.5-10.2-8-17.5-8v10zM815 79c9.3.2 19.2 4.7 24.5 11.5 3-2.5 5.3-3.6 9-6A42.9 42.9 0 00815 68v11zM815 58a53.7 53.7 0 0141 22.5c4.3-2 4.8-2.3 9.5-3.5A59 59 0 00815 48v10z"/>
    </g>
    <path d="M815 38c26 .2 49.6 16 62 36.6-2.5.4-9.1 1.8-11.5 2.4A59 59 0 00815 48V38zM856 80.5A53.7 53.7 0 00815 58v10c13.5 0 25.8 6.7 33.5 16.5 2.3-1.4 5-2.8 7.5-4zM839.5 90.5A33.2 33.2 0 00815 79v10c7.2 0 13.7 2.5 17.5 8 1.7-2 5-4.7 7-6.5zM822.5 110.5l2-4c0-4.4-5-7.5-9.5-7.5v11c2.7 0 4.9.2 7.5.5z" fill="#F2F5F7"/>
    <g opacity="1" fill="#D7D7D7">
      <path d="M815 170c-4.5 0-8.5 3-9 5.5l-.5 1.5h-.5c-2.5-3.5-4.2-5.2-7.5-9 3.8-5.5 10.2-8 17.5-8v10zM815 150c-9.3.2-19.2 4.7-24.5 11.5-3-2.5-5.3-3.6-9-6A42.9 42.9 0 01815 139v11zM815 129a53.7 53.7 0 00-41 22.5c-4.3-2-4.8-2.3-9.5-3.5a59 59 0 0150.5-29v10z"/>
    </g>
    <path d="M815 109c-26 .2-49.6 16-62 36.6 2.5.4 9.1 1.8 11.5 2.4a59 59 0 0150.5-29v-10zM774 151.5a53.7 53.7 0 0141-22.5v10a42.9 42.9 0 00-33.5 16.5c-2.3-1.4-5-2.8-7.5-4zM790.5 161.5A33.2 33.2 0 01815 150v10c-7.2 0-13.7 2.5-17.5 8-1.7-2-5-4.7-7-6.5zM807.5 181.5l-2-4c0-4.4 5-7.5 9.5-7.5v11c-2.7 0-4.9.2-7.5.5z" fill="#F2F5F7"/>
    <g opacity="1" fill="#D7D7D7">
      <path d="M815 170c4.5 0 8.5 3 9 5.5l.5 1.5h.5c2.5-3.5 4.2-5.2 7.5-9-3.8-5.5-10.2-8-17.5-8v10zM815 150c9.3.2 19.2 4.7 24.5 11.5 3-2.5 5.3-3.6 9-6A42.9 42.9 0 00815 139v11zM815 129a53.7 53.7 0 0141 22.5c4.3-2 4.8-2.3 9.5-3.5a59 59 0 00-50.5-29v10z"/>
    </g>
    <path d="M815 109c26 .2 49.6 16 62 36.6-2.5.4-9.1 1.8-11.5 2.4a59 59 0 00-50.5-29v-10zM856 151.5a53.7 53.7 0 00-41-22.5v10c13.5 0 25.8 6.7 33.5 16.5 2.3-1.4 5-2.8 7.5-4zM839.5 161.5A33.2 33.2 0 00815 150v10c7.2 0 13.7 2.5 17.5 8 1.7-2 5-4.7 7-6.5zM822.5 181.5l2-4c0-4.4-5-7.5-9.5-7.5v11c2.7 0 4.9.2 7.5.5z" fill="#F2F5F7"/>
    <g opacity="1" fill="#D7D7D7">
      <path d="M809 243c-4.5 0-8.5 3-9 5.5l-.5 1.5h-.5c-2.5-3.5-4.2-5.2-7.5-9 3.8-5.5 10.2-8 17.5-8v10zM809 223c-9.3.2-19.2 4.7-24.5 11.5-3-2.5-5.3-3.6-9-6A42.9 42.9 0 01809 212v11zM809 202a53.7 53.7 0 00-41 22.5c-4.3-2-4.8-2.3-9.5-3.5a59 59 0 0150.5-29v10z"/>
    </g>
    <path d="M809 182c-26 .2-49.6 16-62 36.6 2.5.4 9.1 1.8 11.5 2.4a59 59 0 0150.5-29v-10zM768 224.5a53.7 53.7 0 0141-22.5v10a42.9 42.9 0 00-33.5 16.5c-2.3-1.4-5-2.8-7.5-4zM784.5 234.5A33.2 33.2 0 01809 223v10c-7.2 0-13.7 2.5-17.5 8-1.7-2-5-4.7-7-6.5zM801.5 254.5l-2-4c0-4.4 5-7.5 9.5-7.5v11c-2.7 0-4.9.2-7.5.5z" fill="#F2F5F7"/>
    <g opacity="1" fill="#D7D7D7">
      <path d="M809 243c4.5 0 8.5 3 9 5.5l.5 1.5h.5c2.5-3.5 4.2-5.2 7.5-9-3.8-5.5-10.2-8-17.5-8v10zM809 223c9.3.2 19.2 4.7 24.5 11.5 3-2.5 5.3-3.6 9-6A42.9 42.9 0 00809 212v11zM809 202a53.7 53.7 0 0141 22.5c4.3-2 4.8-2.3 9.5-3.5a59 59 0 00-50.5-29v10z"/>
    </g>
    <path d="M809 182c26 .2 49.6 16 62 36.6-2.5.4-9.1 1.8-11.5 2.4a59 59 0 00-50.5-29v-10zM850 224.5a53.7 53.7 0 00-41-22.5v10c13.5 0 25.8 6.7 33.5 16.5 2.3-1.4 5-2.8 7.5-4zM833.5 234.5A33.2 33.2 0 00809 223v10c7.2 0 13.7 2.5 17.5 8 1.7-2 5-4.7 7-6.5zM816.5 254.5l2-4c0-4.4-5-7.5-9.5-7.5v11c2.7 0 4.9.2 7.5.5z" fill="#F2F5F7"/>
    <g opacity="1" fill="#D7D7D7">
      <path d="M666 190c4.5 0 8.5-3 9-5.5l.5-1.5h.5c2.5 3.5 4.2 5.2 7.5 9-3.8 5.5-10.2 8-17.5 8v-10zM666 210c9.3-.2 19.2-4.7 24.5-11.5 3 2.5 5.3 3.6 9 6A42.9 42.9 0 01666 221v-11zM666 231a53.7 53.7 0 0041-22.5c4.3 2 4.8 2.3 9.5 3.5a59 59 0 01-50.5 29v-10z"/>
    </g>
    <path d="M666 251c26-.2 49.6-16 62-36.6-2.5-.4-9.1-1.8-11.5-2.4a59 59 0 01-50.5 29v10zM707 208.5a53.7 53.7 0 01-41 22.5v-10c13.5 0 25.8-6.7 33.5-16.5 2.3 1.4 5 2.8 7.5 4zM690.5 198.5A33.2 33.2 0 01666 210v-10c7.2 0 13.7-2.5 17.5-8 1.7 2 5 4.7 7 6.5zM673.5 178.5l2 4c0 4.4-5 7.5-9.5 7.5v-11c2.7 0 4.9-.2 7.5-.5z" fill="#F2F5F7"/>
    <g opacity="1" fill="#D7D7D7">
      <path d="M666 190c-4.5 0-8.5-3-9-5.5l-.5-1.5h-.5c-2.5 3.5-4.2 5.2-7.5 9 3.8 5.5 10.2 8 17.5 8v-10zM666 210a33.2 33.2 0 01-24.5-11.5c-3 2.5-5.3 3.6-9 6A42.9 42.9 0 00666 221v-11zM666 231a53.7 53.7 0 01-41-22.5c-4.3 2-4.8 2.3-9.5 3.5a59 59 0 0050.5 29v-10z"/>
    </g>
    <path d="M666 251c-26-.2-49.6-16-62-36.6 2.5-.4 9.1-1.8 11.5-2.4a59 59 0 0050.5 29v10zM625 208.5a53.7 53.7 0 0041 22.5v-10a42.9 42.9 0 01-33.5-16.5c-2.3 1.4-5 2.8-7.5 4zM641.5 198.5A33.2 33.2 0 00666 210v-10c-7.2 0-13.7-2.5-17.5-8-1.7 2-5 4.7-7 6.5zM658.5 178.5l-2 4c0 4.4 5 7.5 9.5 7.5v-11c-2.7 0-4.9-.2-7.5-.5z" fill="#F2F5F7"/>
    <g opacity="1" fill="#D7D7D7">
      <path d="M666 119c4.5 0 8.5-3 9-5.5l.5-1.5h.5c2.5 3.5 4.2 5.2 7.5 9-3.8 5.5-10.2 8-17.5 8v-10zM666 139c9.3-.2 19.2-4.7 24.5-11.5 3 2.5 5.3 3.6 9 6A42.9 42.9 0 01666 150v-11zM666 160a53.7 53.7 0 0041-22.5c4.3 2 4.8 2.3 9.5 3.5a59 59 0 01-50.5 29v-10z"/>
    </g>
    <path d="M666 180c26-.2 49.6-16 62-36.6-2.5-.4-9.1-1.8-11.5-2.4a59 59 0 01-50.5 29v10zM707 137.5a53.7 53.7 0 01-41 22.5v-10c13.5 0 25.8-6.7 33.5-16.5 2.3 1.4 5 2.8 7.5 4zM690.5 127.5A33.2 33.2 0 01666 139v-10c7.2 0 13.7-2.5 17.5-8 1.7 2 5 4.7 7 6.5zM673.5 107.5l2 4c0 4.4-5 7.5-9.5 7.5v-11c2.7 0 4.9-.2 7.5-.5z" fill="#F2F5F7"/>
    <g opacity="1" fill="#D7D7D7">
      <path d="M666 119c-4.5 0-8.5-3-9-5.5l-.5-1.5h-.5c-2.5 3.5-4.2 5.2-7.5 9 3.8 5.5 10.2 8 17.5 8v-10zM666 139a33.2 33.2 0 01-24.5-11.5c-3 2.5-5.3 3.6-9 6A42.9 42.9 0 00666 150v-11zM666 160a53.7 53.7 0 01-41-22.5c-4.3 2-4.8 2.3-9.5 3.5a59 59 0 0050.5 29v-10z"/>
    </g>
    <path d="M666 180c-26-.2-49.6-16-62-36.6 2.5-.4 9.1-1.8 11.5-2.4a59 59 0 0050.5 29v10zM625 137.5a53.7 53.7 0 0041 22.5v-10a42.9 42.9 0 01-33.5-16.5c-2.3 1.4-5 2.8-7.5 4zM641.5 127.5A33.2 33.2 0 00666 139v-10c-7.2 0-13.7-2.5-17.5-8-1.7 2-5 4.7-7 6.5zM658.5 107.5l-2 4c0 4.4 5 7.5 9.5 7.5v-11c-2.7 0-4.9-.2-7.5-.5z" fill="#F2F5F7"/>
    <g opacity="1" fill="#D7D7D7">
      <path d="M665 48c4.5 0 8.5-3 9-5.5l.5-1.5h.5c2.5 3.5 4.2 5.2 7.5 9-3.8 5.5-10.2 8-17.5 8V48zM665 68c9.3-.2 19.2-4.7 24.5-11.5 3 2.5 5.3 3.6 9 6A42.9 42.9 0 01665 79V68zM665 89a53.7 53.7 0 0041-22.5c4.3 2 4.8 2.3 9.5 3.5A59 59 0 01665 99V89z"/>
    </g>
    <path d="M665 109c26-.2 49.6-16 62-36.6-2.5-.4-9.1-1.8-11.5-2.4A59 59 0 01665 99v10zM706 66.5A53.7 53.7 0 01665 89V79c13.5 0 25.8-6.7 33.5-16.5 2.3 1.4 5 2.8 7.5 4zM689.5 56.5A33.2 33.2 0 01665 68V58c7.2 0 13.7-2.5 17.5-8 1.7 2 5 4.7 7 6.5zM672.5 36.5l2 4c0 4.4-5 7.5-9.5 7.5V37a64 64 0 007.5-.5z" fill="#F2F5F7"/>
    <g opacity="1" fill="#D7D7D7">
      <path d="M665 48c-4.5 0-8.5-3-9-5.5l-.5-1.5h-.5c-2.5 3.5-4.2 5.2-7.5 9 3.8 5.5 10.2 8 17.5 8V48zM665 68a33.2 33.2 0 01-24.5-11.5c-3 2.5-5.3 3.6-9 6A42.9 42.9 0 00665 79V68zM665 89a53.7 53.7 0 01-41-22.5c-4.3 2-4.8 2.3-9.5 3.5A59 59 0 00665 99V89z"/>
    </g>
    <path d="M665 109c-26-.2-49.6-16-62-36.6 2.5-.4 9.1-1.8 11.5-2.4A59 59 0 00665 99v10zM624 66.5A53.7 53.7 0 00665 89V79a42.9 42.9 0 01-33.5-16.5c-2.3 1.4-5 2.8-7.5 4zM640.5 56.5A33.2 33.2 0 00665 68V58c-7.2 0-13.7-2.5-17.5-8-1.7 2-5 4.7-7 6.5zM657.5 36.5l-2 4c0 4.4 5 7.5 9.5 7.5V37a64 64 0 01-7.5-.5z" fill="#F2F5F7"/>
    <g opacity="1" fill="#D7D7D7">
      <path d="M666-24c4.5 0 8.5-3 9-5.5l.5-1.5h.5c2.5 3.5 4.2 5.2 7.5 9-3.8 5.5-10.2 8-17.5 8v-10zM666-4c9.3-.2 19.2-4.7 24.5-11.5 3 2.5 5.3 3.6 9 6A42.9 42.9 0 01666 7V-4zM666 17a53.7 53.7 0 0041-22.5c4.3 2 4.8 2.3 9.5 3.5A59 59 0 01666 27V17z"/>
    </g>
    <path d="M666 37c26-.2 49.6-16 62-36.6-2.5-.4-9.1-1.8-11.5-2.4A59 59 0 01666 27v10zM707-5.5A53.7 53.7 0 01666 17V7c13.5 0 25.8-6.7 33.5-16.5 2.3 1.4 5 2.8 7.5 4zM690.5-15.5A33.2 33.2 0 01666-4v-10c7.2 0 13.7-2.5 17.5-8 1.7 2 5 4.7 7 6.5zM673.5-35.5l2 4c0 4.4-5 7.5-9.5 7.5v-11a64 64 0 007.5-.5z" fill="#F2F5F7"/>
    <g opacity="1" fill="#D7D7D7">
      <path d="M666-24c-4.5 0-8.5-3-9-5.5l-.5-1.5h-.5c-2.5 3.5-4.2 5.2-7.5 9 3.8 5.5 10.2 8 17.5 8v-10zM666-4a33.2 33.2 0 01-24.5-11.5c-3 2.5-5.3 3.6-9 6A42.9 42.9 0 00666 7V-4zM666 17a53.7 53.7 0 01-41-22.5c-4.3 2-4.8 2.3-9.5 3.5A59 59 0 00666 27V17z"/>
    </g>
    <path d="M666 37c-26-.2-49.6-16-62-36.6 2.5-.4 9.1-1.8 11.5-2.4A59 59 0 00666 27v10zM625-5.5A53.7 53.7 0 00666 17V7a42.9 42.9 0 01-33.5-16.5c-2.3 1.4-5 2.8-7.5 4zM641.5-15.5A33.2 33.2 0 00666-4v-10c-7.2 0-13.7-2.5-17.5-8-1.7 2-5 4.7-7 6.5zM658.5-35.5l-2 4c0 4.4 5 7.5 9.5 7.5v-11a64 64 0 01-7.5-.5z" fill="#F2F5F7"/>
    <g opacity="1" fill="#D7D7D7">
      <path d="M368 141.7c4.5 0 8.5-3 9-5.5l.5-1.5h.5c2.5 3.5 4.2 5.2 7.5 9-3.8 5.5-10.2 8-17.5 8v-10zM368 161.7c9.3-.2 19.2-4.8 24.5-11.5 3 2.5 5.3 3.6 9 6a42.9 42.9 0 01-33.5 16.5v-11zM368 182.7a53.7 53.7 0 0041-22.5c4.3 2 4.8 2.3 9.5 3.5a59 59 0 01-50.5 29v-10z"/>
    </g>
    <path d="M368 202.7c26-.2 49.6-16 62-36.6-2.5-.4-9.1-1.8-11.5-2.4a59 59 0 01-50.5 29v10zM409 160.2a53.7 53.7 0 01-41 22.5v-10c13.5 0 25.8-6.7 33.5-16.5 2.3 1.4 5 2.8 7.5 4zM392.5 150.2a33.2 33.2 0 01-24.5 11.5v-10c7.2 0 13.7-2.5 17.5-8 1.7 2 5 4.7 7 6.5zM375.5 130.2l2 4c0 4.4-5 7.5-9.5 7.5v-11a64 64 0 007.5-.5z" fill="#F2F5F7"/>
    <g opacity="1" fill="#D7D7D7">
      <path d="M597 206c-4.5 0-8.5 3-9 5.5l-.5 1.5h-.5c-2.5-3.5-4.2-5.2-7.5-9 3.8-5.5 10.2-8 17.5-8v10zM597 186c-9.3.2-19.2 4.7-24.5 11.5-3-2.5-5.3-3.6-9-6A42.9 42.9 0 01597 175v11zM597 165a53.7 53.7 0 00-41 22.5c-4.3-2-4.8-2.3-9.5-3.5a59 59 0 0150.5-29v10z"/>
    </g>
    <path d="M597 145c-26 .2-49.6 16-62 36.6 2.5.4 9.1 1.8 11.5 2.4a59 59 0 0150.5-29v-10zM556 187.5a53.7 53.7 0 0141-22.5v10a42.9 42.9 0 00-33.5 16.5c-2.3-1.4-5-2.8-7.5-4zM572.5 197.5A33.2 33.2 0 01597 186v10c-7.2 0-13.7 2.5-17.5 8-1.7-2-5-4.7-7-6.5zM589.5 217.5l-2-4c0-4.4 5-7.5 9.5-7.5v11c-2.7 0-4.9.2-7.5.5z" fill="#F2F5F7"/>
    <g opacity="1" fill="#D7D7D7">
      <path d="M597 155c4.5 0 8.5-3 9-5.5l.5-1.5h.5c2.5 3.5 4.2 5.2 7.5 9-3.8 5.5-10.2 8-17.5 8v-10zM597 175c9.3-.2 19.2-4.7 24.5-11.5 3 2.5 5.3 3.6 9 6A42.9 42.9 0 01597 186v-11zM597 196a53.7 53.7 0 0041-22.5c4.3 2 4.8 2.3 9.5 3.5a59 59 0 01-50.5 29v-10z"/>
    </g>
    <path d="M597 216c26-.2 49.6-16 62-36.6-2.5-.4-9.1-1.8-11.5-2.4a59 59 0 01-50.5 29v10zM638 173.5a53.7 53.7 0 01-41 22.5v-10c13.5 0 25.8-6.7 33.5-16.5 2.3 1.4 5 2.8 7.5 4zM621.5 163.5A33.2 33.2 0 01597 175v-10c7.2 0 13.7-2.5 17.5-8 1.7 2 5 4.7 7 6.5zM604.5 143.5l2 4c0 4.4-5 7.5-9.5 7.5v-11c2.7 0 4.9-.2 7.5-.5z" fill="#F2F5F7"/>
    <g opacity="1" fill="#D7D7D7">
      <path d="M598 278c-4.5 0-8.5 3-9 5.5l-.5 1.5h-.5c-2.5-3.5-4.2-5.2-7.5-9 3.8-5.5 10.2-8 17.5-8v10zM598 258c-9.3.2-19.2 4.7-24.5 11.5-3-2.5-5.3-3.6-9-6A42.9 42.9 0 01598 247v11zM598 237a53.7 53.7 0 00-41 22.5c-4.3-2-4.8-2.3-9.5-3.5a59 59 0 0150.5-29v10z"/>
    </g>
    <path d="M598 217c-26 .2-49.6 16-62 36.6 2.5.4 9.1 1.8 11.5 2.4a59 59 0 0150.5-29v-10zM557 259.5a53.7 53.7 0 0141-22.5v10a42.9 42.9 0 00-33.5 16.5c-2.3-1.4-5-2.8-7.5-4zM573.5 269.5A33.2 33.2 0 01598 258v10c-7.2 0-13.7 2.5-17.5 8-1.7-2-5-4.7-7-6.5zM590.5 289.5l-2-4c0-4.4 5-7.5 9.5-7.5v11c-2.7 0-4.9.2-7.5.5z" fill="#F2F5F7"/>
    <g opacity="1" fill="#D7D7D7">
      <path d="M598 227c4.5 0 8.5-3 9-5.5l.5-1.5h.5c2.5 3.5 4.2 5.2 7.5 9-3.8 5.5-10.2 8-17.5 8v-10zM598 247c9.3-.2 19.2-4.7 24.5-11.5 3 2.5 5.3 3.6 9 6A42.9 42.9 0 01598 258v-11zM598 268a53.7 53.7 0 0041-22.5c4.3 2 4.8 2.3 9.5 3.5a59 59 0 01-50.5 29v-10z"/>
    </g>
    <path d="M598 288c26-.2 49.6-16 62-36.6-2.5-.4-9.1-1.8-11.5-2.4a59 59 0 01-50.5 29v10zM639 245.5a53.7 53.7 0 01-41 22.5v-10c13.5 0 25.8-6.7 33.5-16.5 2.3 1.4 5 2.8 7.5 4zM622.5 235.5A33.2 33.2 0 01598 247v-10c7.2 0 13.7-2.5 17.5-8 1.7 2 5 4.7 7 6.5zM605.5 215.5l2 4c0 4.4-5 7.5-9.5 7.5v-11c2.7 0 4.9-.2 7.5-.5z" fill="#F2F5F7"/>
    <g opacity="1" fill="#D7D7D7">
      <path d="M907 134c-4.5 0-8.5 3-9 5.5l-.5 1.5h-.5c-2.5-3.5-4.2-5.2-7.5-9 3.8-5.5 10.2-8 17.5-8v10zM907 114c-9.3.2-19.2 4.7-24.5 11.5-3-2.5-5.3-3.6-9-6A42.9 42.9 0 01907 103v11zM907 93a53.7 53.7 0 00-41 22.5c-4.3-2-4.8-2.3-9.5-3.5A59 59 0 01907 83v10z"/>
    </g>
    <path d="M907 73c-26 .2-49.6 16-62 36.6 2.5.4 9.1 1.8 11.5 2.4A59 59 0 01907 83V73zM866 115.5A53.7 53.7 0 01907 93v10a42.9 42.9 0 00-33.5 16.5c-2.3-1.4-5-2.8-7.5-4zM882.5 125.5A33.2 33.2 0 01907 114v10c-7.2 0-13.7 2.5-17.5 8-1.7-2-5-4.7-7-6.5zM899.5 145.5l-2-4c0-4.4 5-7.5 9.5-7.5v11c-2.7 0-4.9.2-7.5.5z" fill="#F2F5F7"/>
    <g opacity="1" fill="#D7D7D7">
      <path d="M907 83c4.5 0 8.5-3 9-5.5l.5-1.5h.5c2.5 3.5 4.2 5.2 7.5 9-3.8 5.5-10.2 8-17.5 8V83zM907 103c9.3-.2 19.2-4.7 24.5-11.5 3 2.5 5.3 3.6 9 6A42.9 42.9 0 01907 114v-11zM907 124a53.7 53.7 0 0041-22.5c4.3 2 4.8 2.3 9.5 3.5a59 59 0 01-50.5 29v-10z"/>
    </g>
    <path d="M907 144c26-.2 49.6-16 62-36.6-2.5-.4-9.1-1.8-11.5-2.4a59 59 0 01-50.5 29v10zM948 101.5a53.7 53.7 0 01-41 22.5v-10c13.5 0 25.8-6.7 33.5-16.5 2.3 1.4 5 2.8 7.5 4zM931.5 91.5A33.2 33.2 0 01907 103V93c7.2 0 13.7-2.5 17.5-8 1.7 2 5 4.7 7 6.5zM914.5 71.5l2 4c0 4.4-5 7.5-9.5 7.5V72a64 64 0 007.5-.5z" fill="#F2F5F7"/>
    <g opacity="1" fill="#D7D7D7">
      <path d="M893 60c-4.5 0-8.5 3-9 5.5l-.5 1.5h-.5c-2.5-3.5-4.2-5.2-7.5-9 3.8-5.5 10.2-8 17.5-8v10zM893 40c-9.3.2-19.2 4.7-24.5 11.5-3-2.5-5.3-3.6-9-6A42.9 42.9 0 01893 29v11zM893 19a53.7 53.7 0 00-41 22.5c-4.3-2-4.8-2.3-9.5-3.5A59 59 0 01893 9v10z"/>
    </g>
    <path d="M893-1c-26 .2-49.6 16-62 36.6 2.5.4 9.1 1.8 11.5 2.4A59 59 0 01893 9V-1zM852 41.5A53.7 53.7 0 01893 19v10a42.9 42.9 0 00-33.5 16.5c-2.3-1.4-5-2.8-7.5-4zM868.5 51.5A33.2 33.2 0 01893 40v10c-7.2 0-13.7 2.5-17.5 8-1.7-2-5-4.7-7-6.5zM885.5 71.5l-2-4c0-4.4 5-7.5 9.5-7.5v11a64 64 0 00-7.5.5z" fill="#F2F5F7"/>
    <g opacity="1" fill="#D7D7D7">
      <path d="M893 9c4.5 0 8.5-3 9-5.5l.5-1.5h.5c2.5 3.5 4.2 5.2 7.5 9-3.8 5.5-10.2 8-17.5 8V9zM893 29c9.3-.2 19.2-4.7 24.5-11.5 3 2.5 5.3 3.6 9 6A42.9 42.9 0 01893 40V29zM893 50a53.7 53.7 0 0041-22.5c4.3 2 4.8 2.3 9.5 3.5A59 59 0 01893 60V50z"/>
    </g>
    <path d="M893 70c26-.2 49.6-16 62-36.6-2.5-.4-9.1-1.8-11.5-2.4A59 59 0 01893 60v10zM934 27.5A53.7 53.7 0 01893 50V40c13.5 0 25.8-6.7 33.5-16.5 2.3 1.4 5 2.8 7.5 4zM917.5 17.5A33.2 33.2 0 01893 29V19c7.2 0 13.7-2.5 17.5-8 1.7 2 5 4.7 7 6.5zM900.5-2.5l2 4c0 4.4-5 7.5-9.5 7.5V-2a64 64 0 007.5-.5z" fill="#F2F5F7"/>
    <g opacity="1" fill="#D7D7D7">
      <path d="M894 210c-4.5 0-8.5 3-9 5.5l-.5 1.5h-.5c-2.5-3.5-4.2-5.2-7.5-9 3.8-5.5 10.2-8 17.5-8v10zM894 190c-9.3.2-19.2 4.7-24.5 11.5-3-2.5-5.3-3.6-9-6A42.9 42.9 0 01894 179v11zM894 169a53.7 53.7 0 00-41 22.5c-4.3-2-4.8-2.3-9.5-3.5a59 59 0 0150.5-29v10z"/>
    </g>
    <path d="M894 149c-26 .2-49.6 16-62 36.6 2.5.4 9.1 1.8 11.5 2.4a59 59 0 0150.5-29v-10zM853 191.5a53.7 53.7 0 0141-22.5v10a42.9 42.9 0 00-33.5 16.5c-2.3-1.4-5-2.8-7.5-4zM869.5 201.5A33.2 33.2 0 01894 190v10c-7.2 0-13.7 2.5-17.5 8-1.7-2-5-4.7-7-6.5zM886.5 221.5l-2-4c0-4.4 5-7.5 9.5-7.5v11c-2.7 0-4.9.2-7.5.5z" fill="#F2F5F7"/>
    <g opacity="1" fill="#D7D7D7">
      <path d="M894 159c4.5 0 8.5-3 9-5.5l.5-1.5h.5c2.5 3.5 4.2 5.2 7.5 9-3.8 5.5-10.2 8-17.5 8v-10zM894 179c9.3-.2 19.2-4.7 24.5-11.5 3 2.5 5.3 3.6 9 6A42.9 42.9 0 01894 190v-11zM894 200a53.7 53.7 0 0041-22.5c4.3 2 4.8 2.3 9.5 3.5a59 59 0 01-50.5 29v-10z"/>
    </g>
    <path d="M894 220c26-.2 49.6-16 62-36.6-2.5-.4-9.1-1.8-11.5-2.4a59 59 0 01-50.5 29v10zM935 177.5a53.7 53.7 0 01-41 22.5v-10c13.5 0 25.8-6.7 33.5-16.5 2.3 1.4 5 2.8 7.5 4zM918.5 167.5A33.2 33.2 0 01894 179v-10c7.2 0 13.7-2.5 17.5-8 1.7 2 5 4.7 7 6.5zM901.5 147.5l2 4c0 4.4-5 7.5-9.5 7.5v-11c2.7 0 4.9-.2 7.5-.5z" fill="#F2F5F7"/>
    <line x1="220.5" y1="9" x2="220.5" y2="227" stroke="#CDCDCD" stroke-dasharray="3 3"/>
    <line x1="439.5" y1="4" x2="439.5" y2="222" stroke="#CDCDCD" stroke-dasharray="3 3"/>
    <line x1="364.5" y1="9" x2="364.5" y2="227" stroke="#CDCDCD" stroke-dasharray="3 3"/>
    <line x1="529.5" y1="8" x2="529.5" y2="226" stroke="#CDCDCD" stroke-dasharray="3 3"/>
    <line x1="76.5" y1="9" x2="76.5" y2="227" stroke="#CDCDCD" stroke-dasharray="3 3"/>
    <line x1="148.5" y1="9" x2="148.5" y2="227" stroke="#CDCDCD" stroke-dasharray="3 3"/>
    <line x1="263" y1="116.5" x2="45" y2="116.5" stroke="#CDCDCD" stroke-dasharray="3 3"/>
    <line x1="257" y1="39.5" x2="39" y2="39.5" stroke="#CDCDCD" stroke-dasharray="3 3"/>
    <path d="M404.9 133.6c.1-1-1.3-1.5-1.5-.5a12 12 0 01-3 6.1c-.5.5-.3 1.6.5 1.6 2.7 0 5.2.7 7.9 1 .5 0 .8-.8.3-1-1.5-1-3.5-1.5-5.4-1.7 3.8-1.9 9-1.9 12.4 1 2 1.8 2.4 5 2.2 7.5-.1 1.3-.4 2.5-.9 3.6-.5 1.3-1.4 2.3-1.9 3.6-.6 1.4 1.3 2.3 2.3 1.6 2.6-1.8 3.6-6.3 3.6-9.4 0-3.3-1-6.8-4-8.7-3.7-2.6-10-3.2-14-.7.7-1.2 1.2-2.5 1.5-4zM331 117.8a39 39 0 00-5.2-3.5.8.8 0 00-.7 0l-.3-.1a1 1 0 00-.9.5c0 .3-.2.5-.1.7l-.1.3-.3 1.8c-3.8.2-7.5.4-11.3.4-3.8.1-7.6 0-11.5.3-.5 0-.6.8-.1.9a90 90 0 0022.7.5l-.2 3c0 1 .8 1.3 1.6.8l6-3.8c.6-.4.8-1.4.4-1.8zM448 117.8a39 39 0 00-5.2-3.5.8.8 0 00-.7 0l-.3-.1a1 1 0 00-.9.5c0 .3-.2.5-.1.7l-.1.3-.3 1.8c-3.8.2-7.5.4-11.3.4-3.8.1-7.6 0-11.5.3-.5 0-.6.8-.1.9a90 90 0 0022.7.5l-.2 3c0 1 .8 1.3 1.6.8l6-3.8c.6-.4.8-1.4.4-1.8z" fill="#FF1515"/>
    <g opacity="1">
      <mask id="path-122-inside-1" fill="#fff">
        <path fill-rule="evenodd" clip-rule="evenodd" d="M148 40h-.6C120.5 40 96 55.6 83 76.5a78.3 78.3 0 0157 39c1.1-.1 1.8-.5 2.4-.9 1-.5 2.2-1.2 5-1.2h.6V40z"/>
      </mask>
      <path fill-rule="evenodd" clip-rule="evenodd" d="M148 40h-.6C120.5 40 96 55.6 83 76.5a78.3 78.3 0 0157 39c1.1-.1 1.8-.5 2.4-.9 1-.5 2.2-1.2 5-1.2h.6V40z" fill="#56CCF2" fill-opacity=".3"/>
      <path d="M148 40h1v-1h-1v1zM83 76.5l-.8-.5-.9 1.3 1.6.2.1-1zm57 39l-.9.5.4.6.6-.1v-1zm2.4-.9l.5.9-.5-.9zm5.6-1.2v1h1v-1h-1zm-.6-74.4h-1v2h1v-2zm-3 0l-2.1.2.1 2 2-.1v-2zm-4.2.4l-2 .2.3 2 2-.2-.3-2zm-4 .5l-2 .4.3 2 2-.4-.3-2zm-4.1.8l-2 .4.5 2a72 72 0 012-.5l-.5-2zm-4 1l-2 .5.6 2 2-.6-.6-2zm-4 1.2l-1.9.6.7 2 1.9-.7-.6-2zm-3.8 1.4l-2 .8.9 1.8 1.8-.8-.7-1.8zm-3.8 1.6l-1.8.9.8 1.8a76 76 0 011.8-.9l-.8-1.8zm-3.7 1.8l-1.8 1 1 1.7a78 78 0 011.7-1l-.9-1.7zm-3.6 2l-1.7 1 1 1.8 1.7-1-1-1.8zm-3.5 2.2L104 53l1.2 1.7 1.6-1.1-1-1.7zm-3.3 2.3l-1.7 1.3L102 57l1.6-1.2-1.1-1.7zM99 56.8L97.5 58l1.3 1.5 1.6-1.3-1.3-1.5zM96 59.5l-1.5 1.4 1.4 1.4 1.4-1.4-1.3-1.4zm-3 2.8l-1.4 1.5L93 65l1.4-1.4-1.4-1.4zm-2.8 3l-1.4 1.5 1.5 1.3 1.4-1.5-1.5-1.3zm-2.7 3.1L86.2 70l1.6 1.3 1.3-1.6-1.6-1.3zM85 71.7l-1.2 1.7 1.7 1.1 1.1-1.6-1.6-1.2zM82.7 75l-.5.9 1.6 1 .6-.8-1.7-1.1zm.2 2.4l1 .1.2-2h-1l-.2 1.9zm2.9.4l2 .3.3-2c-.7 0-1.3-.2-2-.3l-.3 2zm3.8.7l2 .5.4-2-2-.5-.4 2zm3.8 1l2 .5.5-1.9-2-.6-.5 2zm3.8 1.1l1.8.7.7-1.8-1.9-.7-.6 1.8zm3.6 1.4l1.8.8.9-1.8-1.9-.8-.8 1.8zm3.6 1.6l1.8 1 .9-1.9a78 78 0 00-1.8-.9l-.9 1.8zm3.5 1.8l1.7 1 1-1.7-1.7-1-1 1.7zm3.4 2l1.7 1 1-1.7-1.6-1-1 1.7zm3.3 2.1l1.6 1.1 1.2-1.6a82 82 0 00-1.7-1.1l-1 1.6zm3.2 2.3l1.6 1.2 1.2-1.6-1.6-1.2-1.2 1.6zm3.1 2.4l1.5 1.3 1.3-1.5-1.5-1.3-1.3 1.5zm3 2.6l1.4 1.4 1.4-1.5-1.5-1.4L124 97zm2.8 2.7l1.4 1.4 1.4-1.3-1.4-1.5-1.4 1.4zm2.7 2.9l1.3 1.5 1.5-1.3-1.3-1.5-1.5 1.3zm2.6 3l1.2 1.5 1.6-1.2-1.3-1.6-1.5 1.3zm2.4 3l1.1 1.7 1.6-1.2-1.1-1.6-1.6 1.2zm2.2 3.3l1 1.7 1.8-1-1.1-1.8-1.7 1.1zm2 3.3l.5.9 1.8-1-.5-.9-1.7 1zm1.5 1.4l.8-.1-.5-2-.5.1.2 2zm2.2-.7l.6-.3-1-1.7-.5.3 1 1.7zm.6-.3a9 9 0 011-.5l-.7-1.9-1.2.7 1 1.7zm3.3-1h1.2v-2h-1.3l.1 2zm1.2 0h.2v-2h-.2v2zm.4 0h.2v-2h-.1v2zm1.2-1v-1h-2v1h2zm0-3.1v-2h-2v2h2zm0-4.1v-2h-2v2h2zm0-4v-2.1h-2v2h2zm0-4.2v-2h-2v2h2zm0-4v-2h-2v2h2zm0-4.1v-2h-2v2h2zm0-4.1v-2h-2v2h2zm0-4v-2.1h-2v2h2zm0-4.2v-2h-2v2h2zm0-4v-2h-2v2h2zm0-4.1v-2h-2v2h2zm0-4.1v-2h-2v2h2zm0-4v-2.1h-2v2h2zm0-4.2v-2h-2v2h2zm0-4v-2h-2v2h2zm0-4.1v-2h-2v2h2zm0-4.1v-2h-2v2h2zm0-4V40h-2v1h2zm-1-2.1h-.1v2l.1-2zm-.4 0h-.2v2h.2v-2zm.4 1h2v-2h-2v2zM83 76.5l-1.7-1-1.7 2.7 3.2.3.2-2zm57 39l-1.7 1 .6 1.1 1.3-.1-.2-2zm2.4-.9l1 1.8-1-1.8zm5.6-1.2v2l2 .1v-2h-2zm-.6-75.4h-1v4h1v-4zm-3 0l-2.2.2.3 4 2-.1-.2-4zm-4.3.4l-2 .2.5 4 2-.2-.5-4zm-4.1.5l-2 .4.7 3.9 2-.3-.7-4zm-4.1.8l-2 .5 1 3.8 1.8-.4-.8-4zm-4 1l-2 .6L127 45l1.9-.6-1-3.8zm-4 1.2l-2 .7 1.4 3.8 1.8-.7-1.3-3.8zm-4 1.4l-1.9.8 1.6 3.7 1.8-.7-1.5-3.8zm-3.8 1.7l-1.9.9 1.8 3.6 1.8-.9L116 45zm-3.7 1.8l-1.9 1 2 3.5a79 79 0 011.7-1l-1.8-3.5zm-3.7 2L107 50l2.2 3.4a79 79 0 011.6-1l-2-3.5zm-3.5 2.3l-1.7 1.1 2.2 3.3 1.7-1.1-2.2-3.3zm-3.4 2.3l-1.7 1.3 2.5 3.2 1.5-1.2-2.3-3.3zM98.5 56l-1.6 1.3 2.6 3 1.5-1.2-2.5-3.1zm-3.2 2.7l-1.5 1.4 2.8 3 1.4-1.4-2.7-3zm-3 2.9L90.8 63l3 2.7 1.3-1.4-2.8-2.8zm-2.9 3l-1.3 1.6 3 2.6 1.3-1.5-3-2.7zm-2.7 3.2l-1.3 1.6 3.2 2.5 1.2-1.6-3-2.5zM84.2 71a76 76 0 00-1.2 1.7l3.3 2.3 1.1-1.7-3.2-2.3zm-2.3 3.5l-.6.8 3.4 2.2.5-.9-3.3-2.1zm.9 3.9l1 .1.4-4h-1l-.4 3.9zm2.8.4c.7 0 1.3.2 2 .3l.7-4a64 64 0 00-2-.3l-.7 4zm3.8.7l2 .4.9-3.9-2-.4-.9 3.9zm3.8 1l1.8.5 1.2-3.8-2-.6-1 3.8zm3.6 1l1.9.8 1.4-3.8-2-.7-1.3 3.8zm3.7 1.5l1.7.7 1.7-3.6-2-.8-1.4 3.7zm3.5 1.5l1.7.9 1.8-3.6-1.8-.9-1.7 3.6zm3.4 1.8l1.7 1 2-3.5-1.7-1-2 3.5zm3.4 2l1.6 1 2.2-3.4-1.7-1-2.1 3.3zm3.3 2l1.6 1.2 2.3-3.3-1.7-1.2-2.2 3.3zm3.1 2.3l1.6 1.2 2.4-3.2-1.6-1.2-2.4 3.2zm3 2.4l1.5 1.3 2.7-3-1.6-1.4-2.5 3.1zm3 2.6l1.4 1.3 2.8-2.9-1.5-1.4-2.7 3zm2.8 2.6l1.3 1.4 3-2.7-1.5-1.5-2.8 2.8zm2.7 2.9l1.2 1.4 3-2.6-1.3-1.5-3 2.7zm2.5 2.9l1.2 1.5 3.2-2.4-1.3-1.6-3.1 2.5zm2.4 3l1 1.6 3.4-2.2-1.2-1.7-3.2 2.4zm2.2 3.2l1 1.7 3.4-2.1-1-1.7-3.4 2.1zm2 3.3l.5.9 3.5-2-.5-.9-3.5 2zm2.4 1.9c.3 0 .6 0 .9-.2l-.9-3.9-.4.1.4 4zm2.6-.8l.6-.3-2-3.5-.4.3 1.8 3.5zm.6-.3l1-.5-1.6-3.7-1.3.7 2 3.5zm3-1h1v-4H146l.3 4zm1 0h.2v-4h-.2v4zm.4 0h.1l.2-4h-.2v4zm2.2-2v-1h-4v1h4zm0-3v-2h-4v2h4zm0-4.1v-2h-4v2h4zm0-4v-2.1h-4v2h4zm0-4.2v-2h-4v2h4zm0-4v-2h-4v2h4zm0-4.1v-2h-4v2h4zm0-4.1v-2h-4v2h4zm0-4v-2.1h-4v2h4zm0-4.2v-2h-4v2h4zm0-4v-2h-4v2h4zm0-4.1v-2h-4v2h4zm0-4.1v-2h-4v2h4zm0-4v-2.1h-4v2h4zm0-4.2v-2h-4v2h4zm0-4v-2h-4v2h4zm0-4.1v-2h-4v2h4zm0-4.1v-2h-4v2h4zm0-4V40h-4v1h4zm-2-3.1h-.1v4l.1-4zm-.4 0h-.2v4h.2v-4z" fill="#333" mask="url(#path-122-inside-1)"/>
    </g>
    <g opacity="1" fill="#D7D7D7">
      <path d="M811 23c-4.5 0-8.5 3-9 5.5l-.5 1.5h-.5c-2.5-3.5-4.2-5.2-7.5-9 3.8-5.5 10.2-8 17.5-8v10zM811 3c-9.3.2-19.2 4.7-24.5 11.5-3-2.5-5.3-3.6-9-6A42.9 42.9 0 01811-8V3zM811-18a53.7 53.7 0 00-41 22.5c-4.3-2-4.8-2.3-9.5-3.5A59 59 0 01811-28v10z"/>
    </g>
    <path d="M811-38c-26 .2-49.6 16-62 36.6 2.5.4 9.1 1.8 11.5 2.4A59 59 0 01811-28v-10zM770 4.5A53.7 53.7 0 01811-18v10a42.9 42.9 0 00-33.5 16.5c-2.3-1.4-5-2.8-7.5-4zM786.5 14.5A33.2 33.2 0 01811 3v10c-7.2 0-13.7 2.5-17.5 8-1.7-2-5-4.7-7-6.5zM803.5 34.5l-2-4c0-4.4 5-7.5 9.5-7.5v11a64 64 0 00-7.5.5z" fill="#F2F5F7"/>
    <g opacity="1" fill="#D7D7D7">
      <path d="M811 23c4.5 0 8.5 3 9 5.5l.5 1.5h.5c2.5-3.5 4.2-5.2 7.5-9-3.8-5.5-10.2-8-17.5-8v10zM811 3c9.3.2 19.2 4.7 24.5 11.5 3-2.5 5.3-3.6 9-6A42.9 42.9 0 00811-8V3zM811-18a53.7 53.7 0 0141 22.5c4.3-2 4.8-2.3 9.5-3.5A59 59 0 00811-28v10z"/>
    </g>
    <path d="M811-38c26 .2 49.6 16 62 36.6-2.5.4-9.1 1.8-11.5 2.4A59 59 0 00811-28v-10zM852 4.5A53.7 53.7 0 00811-18v10c13.5 0 25.8 6.7 33.5 16.5 2.3-1.4 5-2.8 7.5-4zM835.5 14.5A33.2 33.2 0 00811 3v10c7.2 0 13.7 2.5 17.5 8 1.7-2 5-4.7 7-6.5zM818.5 34.5l2-4c0-4.4-5-7.5-9.5-7.5v11c2.7 0 4.9.2 7.5.5z" fill="#F2F5F7"/>
  </g>
  <defs>
    <clipPath id="clip0">
      <rect width="984" height="234" fill="#fff"/>
    </clipPath>
  </defs>
</svg>
