<svg xmlns="http://www.w3.org/2000/svg" xmlns:xlink="http://www.w3.org/1999/xlink" fill="none" viewBox="0 0 984 234">
  <defs>
    <clipPath id="a">
      <path fill="#fff" d="M0 0h984v234H0z"/>
    </clipPath>
    <symbol id="b" viewBox="0 0 142.1 142.1">
      <circle cx="77.9" cy="147.1" r="71" fill="#f2f5f7" transform="translate(-6.9 -76)"/>
      <circle cx="77.9" cy="147.1" r="61.5" fill="#dfdfdf" transform="translate(-6.9 -76)"/>
      <circle cx="77.9" cy="147.1" r="52.2" fill="#f2f5f7" transform="translate(-6.9 -76)"/>
      <circle cx="77.9" cy="147.1" r="41.7" fill="#dfdfdf" transform="translate(-6.9 -76)"/>
      <circle cx="77.9" cy="147.1" r="32.2" fill="#f2f5f7" transform="translate(-6.9 -76)"/>
      <circle cx="77.9" cy="147.1" r="22.2" fill="#dfdfdf" transform="translate(-6.9 -76)"/>
      <circle cx="77.9" cy="147.1" r="12.4" fill="#f2f5f7" transform="translate(-6.9 -76)"/>
    </symbol>
  </defs>
  <g clip-path="url(#a)">
    <path fill="#f9fbea" d="M0 0h984v234H0z" pointer-events="none"/>
    <use width="142.1" height="142.1" transform="matrix(.99826 0 0 .99826 75.4 40.6)" xlink:href="#b"/>
    <path fill="#D7D7D7" d="M733 207c4.5 0 8.5 3 9 5.5l.5 1.5h.5c2.5-3.5 4.2-5.2 7.5-9-3.8-5.5-10.2-8-17.5-8v10zm0-20c9.3.2 19.2 4.7 24.5 11.5 3-2.5 5.3-3.6 9-6A42.9 42.9 0 00733 176v11zm0-21a53.7 53.7 0 0141 22.5c4.3-2 4.8-2.3 9.5-3.5a59 59 0 00-50.5-29v10z"/>
    <path fill="#F2F5F7" d="M733 146c26 .2 49.6 16 62 36.6-2.5.4-9.1 1.8-11.5 2.4a59 59 0 00-50.5-29v-10zm41 42.5a53.7 53.7 0 00-41-22.5v10a43 43 0 0133.5 16.5 89 89 0 017.5-4zm-16.5 10A33.2 33.2 0 00733 187v10c7.2 0 13.7 2.5 17.5 8 1.7-2 5-4.7 7-6.5zm-17 20l2-4c0-4.4-5-7.5-9.5-7.5v11c2.7 0 4.9.2 7.5.5z"/>
    <path fill="#D7D7D7" d="M733 156c-4.5 0-8.5-3-9-5.5l-.5-1.5h-.5c-2.5 3.5-4.2 5.2-7.5 9 3.8 5.5 10.2 8 17.5 8v-10zm0 20a33.2 33.2 0 01-24.5-11.5c-3 2.5-5.3 3.6-9 6A42.9 42.9 0 00733 187v-11zm0 21a53.7 53.7 0 01-41-22.5c-4.3 2-4.8 2.3-9.5 3.5a59 59 0 0050.5 29v-10z"/>
    <path fill="#F2F5F7" d="M733 217c-26-.2-49.6-16-62-36.6 2.5-.4 9.1-1.8 11.5-2.4a59 59 0 0050.5 29v10zm-41-42.5a53.7 53.7 0 0041 22.5v-10a42.9 42.9 0 01-33.5-16.5 89 89 0 01-7.5 4zm16.5-10A33.2 33.2 0 00733 176v-10c-7.2 0-13.7-2.5-17.5-8-1.7 2-5 4.7-7 6.5zm17-20l-2 4c0 4.4 5 7.5 9.5 7.5v-11c-2.7 0-4.9-.2-7.5-.5z"/>
    <path fill="#D7D7D7" d="M732 278c4.5 0 8.5 3 9 5.5l.5 1.5h.5c2.5-3.5 4.2-5.2 7.5-9-3.8-5.5-10.2-8-17.5-8v10zm0-20c9.3.2 19.2 4.7 24.5 11.5 3-2.5 5.3-3.6 9-6A42.9 42.9 0 00732 247v11zm0-21a53.7 53.7 0 0141 22.5c4.3-2 4.8-2.3 9.5-3.5a59 59 0 00-50.5-29v10z"/>
    <path fill="#F2F5F7" d="M732 217c26 .2 49.6 16 62 36.6-2.5.4-9.1 1.8-11.5 2.4a59 59 0 00-50.5-29v-10zm41 42.5a53.7 53.7 0 00-41-22.5v10a43 43 0 0133.5 16.5 89 89 0 017.5-4zm-16.5 10A33.2 33.2 0 00732 258v10c7.2 0 13.7 2.5 17.5 8 1.7-2 5-4.7 7-6.5zm-17 20l2-4c0-4.4-5-7.5-9.5-7.5v11c2.7 0 4.9.2 7.5.5z"/>
    <path fill="#D7D7D7" d="M732 227c-4.5 0-8.5-3-9-5.5l-.5-1.5h-.5c-2.5 3.5-4.2 5.2-7.5 9 3.8 5.5 10.2 8 17.5 8v-10zm0 20a33.2 33.2 0 01-24.5-11.5c-3 2.5-5.3 3.6-9 6A42.9 42.9 0 00732 258v-11zm0 21a53.7 53.7 0 01-41-22.5c-4.3 2-4.8 2.3-9.5 3.5a59 59 0 0050.5 29v-10z"/>
    <path fill="#F2F5F7" d="M732 288c-26-.2-49.6-16-62-36.6 2.5-.4 9.1-1.8 11.5-2.4a59 59 0 0050.5 29v10zm-41-42.5a53.7 53.7 0 0041 22.5v-10a42.9 42.9 0 01-33.5-16.5 89 89 0 01-7.5 4zm16.5-10A33.2 33.2 0 00732 247v-10c-7.2 0-13.7-2.5-17.5-8-1.7 2-5 4.7-7 6.5zm17-20l-2 4c0 4.4 5 7.5 9.5 7.5v-11c-2.7 0-4.9-.2-7.5-.5z"/>
    <path fill="#D7D7D7" d="M733 136c4.5 0 8.5 3 9 5.5l.5 1.5h.5c2.5-3.5 4.2-5.2 7.5-9-3.8-5.5-10.2-8-17.5-8v10zm0-20c9.3.2 19.2 4.7 24.5 11.5 3-2.5 5.3-3.6 9-6A42.9 42.9 0 00733 105v11zm0-21a53.7 53.7 0 0141 22.5c4.3-2 4.8-2.3 9.5-3.5A59 59 0 00733 85v10z"/>
    <path fill="#F2F5F7" d="M733 75c26 .2 49.6 16 62 36.6-2.5.4-9.1 1.8-11.5 2.4A59 59 0 00733 85V75zm41 42.5A53.7 53.7 0 00733 95v10a43 43 0 0133.5 16.5 89 89 0 017.5-4zm-16.5 10A33.2 33.2 0 00733 116v10c7.2 0 13.7 2.5 17.5 8 1.7-2 5-4.7 7-6.5zm-17 20l2-4c0-4.4-5-7.5-9.5-7.5v11c2.7 0 4.9.2 7.5.5z"/>
    <path fill="#D7D7D7" d="M733 85c-4.5 0-8.5-3-9-5.5l-.5-1.5h-.5c-2.5 3.5-4.2 5.2-7.5 9 3.8 5.5 10.2 8 17.5 8V85zm0 20a33.2 33.2 0 01-24.5-11.5c-3 2.5-5.3 3.6-9 6A42.9 42.9 0 00733 116v-11zm0 21a53.7 53.7 0 01-41-22.5c-4.3 2-4.8 2.3-9.5 3.5a59 59 0 0050.5 29v-10z"/>
    <path fill="#F2F5F7" d="M733 146c-26-.2-49.6-16-62-36.6 2.5-.4 9.1-1.8 11.5-2.4a59 59 0 0050.5 29v10zm-41-42.5a53.7 53.7 0 0041 22.5v-10a42.9 42.9 0 01-33.5-16.5 89 89 0 01-7.5 4zm16.5-10A33.2 33.2 0 00733 105V95c-7.2 0-13.7-2.5-17.5-8-1.7 2-5 4.7-7 6.5zm17-20l-2 4c0 4.4 5 7.5 9.5 7.5V74a64 64 0 01-7.5-.5z"/>
    <path fill="#D7D7D7" d="M733 63c4.5 0 8.5 3 9 5.5l.5 1.5h.5c2.5-3.5 4.2-5.2 7.5-9-3.8-5.5-10.2-8-17.5-8v10zm0-20c9.3.2 19.2 4.7 24.5 11.5 3-2.5 5.3-3.6 9-6A42.9 42.9 0 00733 32v11zm0-21a53.7 53.7 0 0141 22.5c4.3-2 4.8-2.3 9.5-3.5A59 59 0 00733 12v10z"/>
    <path fill="#F2F5F7" d="M733 2c26 .2 49.6 16 62 36.6-2.5.4-9.1 1.8-11.5 2.4A59 59 0 00733 12V2zm41 42.5A53.7 53.7 0 00733 22v10a43 43 0 0133.5 16.5 89 89 0 017.5-4zm-16.5 10A33.2 33.2 0 00733 43v10c7.2 0 13.7 2.5 17.5 8 1.7-2 5-4.7 7-6.5zm-17 20l2-4c0-4.4-5-7.5-9.5-7.5v11c2.7 0 4.9.2 7.5.5z"/>
    <path fill="#D7D7D7" d="M733 12c-4.5 0-8.5-3-9-5.5l-.5-1.5h-.5c-2.5 3.5-4.2 5.2-7.5 9 3.8 5.5 10.2 8 17.5 8V12zm0 20a33.2 33.2 0 01-24.5-11.5c-3 2.5-5.3 3.6-9 6A42.9 42.9 0 00733 43V32zm0 21a53.7 53.7 0 01-41-22.5c-4.3 2-4.8 2.3-9.5 3.5A59 59 0 00733 63V53zM597 135c-4.5 0-8.5 3-9 5.5l-.5 1.5h-.5c-2.5-3.5-4.2-5.2-7.5-9 3.8-5.5 10.2-8 17.5-8v10zm0-20c-9.3.2-19.2 4.7-24.5 11.5-3-2.5-5.3-3.6-9-6A42.9 42.9 0 01597 104v11zm0-21a53.7 53.7 0 00-41 22.5c-4.3-2-4.8-2.3-9.5-3.5A59 59 0 01597 84v10z"/>
    <path fill="#F2F5F7" d="M597 74c-26 .2-49.6 16-62 36.6 2.5.4 9.1 1.8 11.5 2.4A59 59 0 01597 84V74zm-41 42.5A53.7 53.7 0 01597 94v10a42.9 42.9 0 00-33.5 16.5 89 89 0 00-7.5-4zm16.5 10A33.2 33.2 0 01597 115v10c-7.2 0-13.7 2.5-17.5 8-1.7-2-5-4.7-7-6.5zm17 20l-2-4c0-4.4 5-7.5 9.5-7.5v11c-2.7 0-4.9.2-7.5.5z"/>
    <path fill="#D7D7D7" d="M597 84c4.5 0 8.5-3 9-5.5l.5-1.5h.5c2.5 3.5 4.2 5.2 7.5 9-3.8 5.5-10.2 8-17.5 8V84zm0 20c9.3-.2 19.2-4.7 24.5-11.5 3 2.5 5.3 3.6 9 6A42.9 42.9 0 01597 115v-11zm0 21a53.7 53.7 0 0041-22.5c4.3 2 4.8 2.3 9.5 3.5a59 59 0 01-50.5 29v-10z"/>
    <path fill="#F2F5F7" d="M597 145c26-.2 49.6-16 62-36.6-2.5-.4-9.1-1.8-11.5-2.4a59 59 0 01-50.5 29v10zm41-42.5a53.7 53.7 0 01-41 22.5v-10a43 43 0 0033.5-16.5 89 89 0 007.5 4zm-16.5-10A33.2 33.2 0 01597 104V94c7.2 0 13.7-2.5 17.5-8 1.7 2 5 4.7 7 6.5zm-17-20l2 4c0 4.4-5 7.5-9.5 7.5V73a64 64 0 007.5-.5z"/>
    <path fill="#D7D7D7" d="M597 63c-4.5 0-8.5 3-9 5.5l-.5 1.5h-.5c-2.5-3.5-4.2-5.2-7.5-9 3.8-5.5 10.2-8 17.5-8v10zm0-20c-9.3.2-19.2 4.7-24.5 11.5-3-2.5-5.3-3.6-9-6A42.9 42.9 0 01597 32v11zm0-21a53.7 53.7 0 00-41 22.5c-4.3-2-4.8-2.3-9.5-3.5A59 59 0 01597 12v10z"/>
    <path fill="#F2F5F7" d="M597 2c-26 .2-49.6 16-62 36.6 2.5.4 9.1 1.8 11.5 2.4A59 59 0 01597 12V2zm-41 42.5A53.7 53.7 0 01597 22v10a42.9 42.9 0 00-33.5 16.5 89 89 0 00-7.5-4zm16.5 10A33.2 33.2 0 01597 43v10c-7.2 0-13.7 2.5-17.5 8-1.7-2-5-4.7-7-6.5zm17 20l-2-4c0-4.4 5-7.5 9.5-7.5v11a64 64 0 00-7.5.5z"/>
    <path fill="#D7D7D7" d="M597 12c4.5 0 8.5-3 9-5.5l.5-1.5h.5c2.5 3.5 4.2 5.2 7.5 9-3.8 5.5-10.2 8-17.5 8V12zm0 20c9.3-.2 19.2-4.7 24.5-11.5 3 2.5 5.3 3.6 9 6A42.9 42.9 0 01597 43V32zm0 21a53.7 53.7 0 0041-22.5c4.3 2 4.8 2.3 9.5 3.5A59 59 0 01597 63V53z"/>
    <path fill="#F2F5F7" d="M597 73c26-.2 49.6-16 62-36.6-2.5-.4-9.1-1.8-11.5-2.4A59 59 0 01597 63v10zm41-42.5A53.7 53.7 0 01597 53V43a43 43 0 0033.5-16.5 89 89 0 007.5 4zm-16.5-10A33.2 33.2 0 01597 32V22c7.2 0 13.7-2.5 17.5-8 1.7 2 5 4.7 7 6.5zm-17-20l2 4c0 4.4-5 7.5-9.5 7.5V1a64 64 0 007.5-.5z"/>
    <path fill="#D7D7D7" d="M360 192c-4.5 0-8.5 3-9 5.5l-.5 1.5h-.5c-2.5-3.5-4.2-5.2-7.5-9 3.8-5.5 10.2-8 17.5-8v10zm0-20c-9.3.2-19.2 4.7-24.5 11.5-3-2.5-5.3-3.6-9-6A42.9 42.9 0 01360 161v11zm0-21a53.7 53.7 0 00-41 22.5c-4.3-2-4.8-2.3-9.5-3.5a59 59 0 0150.5-29v10z"/>
    <path fill="#F2F5F7" d="M360 131c-26 .2-49.6 16-62 36.6 2.5.4 9.1 1.8 11.5 2.4a59 59 0 0150.5-29v-10zm-41 42.5a53.7 53.7 0 0141-22.5v10a42.9 42.9 0 00-33.5 16.5 89 89 0 00-7.5-4zm16.5 10A33.2 33.2 0 01360 172v10c-7.2 0-13.7 2.5-17.5 8-1.7-2-5-4.7-7-6.5zm17 20l-2-4c0-4.4 5-7.5 9.5-7.5v11c-2.7 0-4.9.2-7.5.5z"/>
    <g fill="#D7D7D7">
      <path d="M359 100c-4.5 0-8.5 3-9 5.5l-.5 1.5h-.5c-2.5-3.5-4.2-5.2-7.5-9 3.8-5.5 10.2-8 17.5-8v10zm0-20c-9.3.2-19.2 4.7-24.5 11.5-3-2.5-5.3-3.6-9-6A42.9 42.9 0 01359 69v11zm0-21a53.7 53.7 0 00-41 22.5c-4.3-2-4.8-2.3-9.5-3.5A59 59 0 01359 49v10z"/>
      <path fill="#f2f5f7" d="M359 39c-26 .2-49.6 16-62 36.6 2.5.4 9.1 1.8 11.5 2.4A59 59 0 01359 49V39zm-41 42.5A53.7 53.7 0 01359 59v10a42.9 42.9 0 00-33.5 16.5 89 89 0 00-7.5-4zm16.5 10c6.2-7.1 15-11.3 24.5-11.5v10c-7.2 0-13.7 2.5-17.5 8-1.7-2-5-4.7-7-6.5zm17 20l-2-4c0-4.4 5-7.5 9.5-7.5v11c-2.7 0-4.9.2-7.5.5z"/>
    </g>
    <path fill="#D7D7D7" d="M370 100c4.5 0 8.5 3 9 5.5l.5 1.5h.5c2.5-3.5 4.2-5.2 7.5-9-3.8-5.5-10.2-8-17.5-8v10zm0-20c9.3.2 19.2 4.7 24.5 11.5 3-2.5 5.3-3.6 9-6A42.9 42.9 0 00370 69v11zm0-21a53.7 53.7 0 0141 22.5c4.3-2 4.8-2.3 9.5-3.5A59 59 0 00370 49v10z"/>
    <path fill="#F2F5F7" d="M370 39c26 .2 49.6 16 62 36.6-2.5.4-9.1 1.8-11.5 2.4A59 59 0 00370 49V39zm41 42.5A53.7 53.7 0 00370 59v10a43 43 0 0133.5 16.5 89 89 0 017.5-4zm-16.5 10A33.2 33.2 0 00370 80v10c7.2 0 13.7 2.5 17.5 8 1.7-2 5-4.7 7-6.5zm-17 20l2-4c0-4.4-5-7.5-9.5-7.5v11c2.7 0 4.9.2 7.5.5z"/>
    <path fill="#D7D7D7" d="M460 135c4.5 0 8.5 3 9 5.5l.5 1.5h.5c2.5-3.5 4.2-5.2 7.5-9-3.8-5.5-10.2-8-17.5-8v10zm0-20c9.3.2 19.2 4.7 24.5 11.5 3-2.5 5.3-3.6 9-6A42.9 42.9 0 00460 104v11zm0-21a53.7 53.7 0 0141 22.5c4.3-2 4.8-2.3 9.5-3.5A59 59 0 00460 84v10z"/>
    <path fill="#F2F5F7" d="M460 74c26 .2 49.6 16 62 36.6-2.5.4-9.1 1.8-11.5 2.4A59 59 0 00460 84V74zm41 42.5A53.7 53.7 0 00460 94v10a43 43 0 0133.5 16.5 89 89 0 017.5-4zm-16.5 10A33.2 33.2 0 00460 115v10c7.2 0 13.7 2.5 17.5 8 1.7-2 5-4.7 7-6.5zm-17 20l2-4c0-4.4-5-7.5-9.5-7.5v11c2.7 0 4.9.2 7.5.5z"/>
    <path fill="#D7D7D7" d="M460 64c4.5 0 8.5 3 9 5.5l.5 1.5h.5c2.5-3.5 4.2-5.2 7.5-9-3.8-5.5-10.2-8-17.5-8v10zm0-20c9.3.2 19.2 4.7 24.5 11.5 3-2.5 5.3-3.6 9-6A42.9 42.9 0 00460 33v11zm0-21a53.7 53.7 0 0141 22.5c4.3-2 4.8-2.3 9.5-3.5A59 59 0 00460 13v10z"/>
    <path fill="#F2F5F7" d="M460 3c26 .2 49.6 16 62 36.6-2.5.4-9.1 1.8-11.5 2.4A59 59 0 00460 13V3zm41 42.5A53.7 53.7 0 00460 23v10a43 43 0 0133.5 16.5 89 89 0 017.5-4zm-16.5 10A33.2 33.2 0 00460 44v10c7.2 0 13.7 2.5 17.5 8 1.7-2 5-4.7 7-6.5zm-17 20l2-4c0-4.4-5-7.5-9.5-7.5v11c2.7 0 4.9.2 7.5.5z"/>
    <path fill="#D7D7D7" d="M460 207c4.5 0 8.5 3 9 5.5l.5 1.5h.5c2.5-3.5 4.2-5.2 7.5-9-3.8-5.5-10.2-8-17.5-8v10zm0-20c9.3.2 19.2 4.7 24.5 11.5 3-2.5 5.3-3.6 9-6A42.9 42.9 0 00460 176v11zm0-21a53.7 53.7 0 0141 22.5c4.3-2 4.8-2.3 9.5-3.5a59 59 0 00-50.5-29v10z"/>
    <path fill="#F2F5F7" d="M460 146c26 .2 49.6 16 62 36.6-2.5.4-9.1 1.8-11.5 2.4a59 59 0 00-50.5-29v-10zm41 42.5a53.7 53.7 0 00-41-22.5v10a43 43 0 0133.5 16.5 89 89 0 017.5-4zm-16.5 10A33.2 33.2 0 00460 187v10c7.2 0 13.7 2.5 17.5 8 1.7-2 5-4.7 7-6.5zm-17 20l2-4c0-4.4-5-7.5-9.5-7.5v11c2.7 0 4.9.2 7.5.5z"/>
    <path fill="#D7D7D7" d="M460 277c4.5 0 8.5 3 9 5.5l.5 1.5h.5c2.5-3.5 4.2-5.2 7.5-9-3.8-5.5-10.2-8-17.5-8v10zm0-20c9.3.2 19.2 4.7 24.5 11.5 3-2.5 5.3-3.6 9-6A42.9 42.9 0 00460 246v11zm0-21a53.7 53.7 0 0141 22.5c4.3-2 4.8-2.3 9.5-3.5a59 59 0 00-50.5-29v10z"/>
    <path fill="#F2F5F7" d="M460 216c26 .2 49.6 16 62 36.6-2.5.4-9.1 1.8-11.5 2.4a59 59 0 00-50.5-29v-10zm41 42.5a53.7 53.7 0 00-41-22.5v10a43 43 0 0133.5 16.5 89 89 0 017.5-4zm-16.5 10A33.2 33.2 0 00460 257v10c7.2 0 13.7 2.5 17.5 8 1.7-2 5-4.7 7-6.5zm-17 20l2-4c0-4.4-5-7.5-9.5-7.5v11c2.7 0 4.9.2 7.5.5z"/>
    <path fill="#D7D7D7" d="M529 100c-4.5 0-8.5 3-9 5.5l-.5 1.5h-.5c-2.5-3.5-4.2-5.2-7.5-9 3.8-5.5 10.2-8 17.5-8v10zm0-20c-9.3.2-19.2 4.7-24.5 11.5-3-2.5-5.3-3.6-9-6A42.9 42.9 0 01529 69v11zm0-21a53.7 53.7 0 00-41 22.5c-4.3-2-4.8-2.3-9.5-3.5A59 59 0 01529 49v10z"/>
    <path fill="#F2F5F7" d="M529 39c-26 .2-49.6 16-62 36.6 2.5.4 9.1 1.8 11.5 2.4A59 59 0 01529 49V39zm-41 42.5A53.7 53.7 0 01529 59v10a42.9 42.9 0 00-33.5 16.5 89 89 0 00-7.5-4zm16.5 10A33.2 33.2 0 01529 80v10c-7.2 0-13.7 2.5-17.5 8-1.7-2-5-4.7-7-6.5zm17 20l-2-4c0-4.4 5-7.5 9.5-7.5v11c-2.7 0-4.9.2-7.5.5z"/>
    <path fill="#D7D7D7" d="M529 100c4.5 0 8.5 3 9 5.5l.5 1.5h.5c2.5-3.5 4.2-5.2 7.5-9-3.8-5.5-10.2-8-17.5-8v10zm0-20c9.3.2 19.2 4.7 24.5 11.5 3-2.5 5.3-3.6 9-6A42.9 42.9 0 00529 69v11zm0-21a53.7 53.7 0 0141 22.5c4.3-2 4.8-2.3 9.5-3.5A59 59 0 00529 49v10z"/>
    <path fill="#F2F5F7" d="M529 39c26 .2 49.6 16 62 36.6-2.5.4-9.1 1.8-11.5 2.4A59 59 0 00529 49V39zm41 42.5A53.7 53.7 0 00529 59v10a43 43 0 0133.5 16.5 89 89 0 017.5-4zm-16.5 10A33.2 33.2 0 00529 80v10c7.2 0 13.7 2.5 17.5 8 1.7-2 5-4.7 7-6.5zm-17 20l2-4c0-4.4-5-7.5-9.5-7.5v11c2.7 0 4.9.2 7.5.5z"/>
    <path fill="#D7D7D7" d="M530 29c-4.5 0-8.5 3-9 5.5l-.5 1.5h-.5c-2.5-3.5-4.2-5.2-7.5-9 3.8-5.5 10.2-8 17.5-8v10zm0-20c-9.3.2-19.2 4.7-24.5 11.5-3-2.5-5.3-3.6-9-6A42.9 42.9 0 01530-2V9zm0-21a53.7 53.7 0 00-41 22.5c-4.3-2-4.8-2.3-9.5-3.5A59 59 0 01530-22v10z"/>
    <path fill="#F2F5F7" d="M530-32c-26 .2-49.6 16-62 36.6 2.5.4 9.1 1.8 11.5 2.4A59 59 0 01530-22v-10zm-41 42.5A53.7 53.7 0 01530-12v10a42.9 42.9 0 00-33.5 16.5 89 89 0 00-7.5-4zm16.5 10A33.2 33.2 0 01530 9v10c-7.2 0-13.7 2.5-17.5 8-1.7-2-5-4.7-7-6.5zm17 20l-2-4c0-4.4 5-7.5 9.5-7.5v11a64 64 0 00-7.5.5z"/>
    <path fill="#D7D7D7" d="M530 29c4.5 0 8.5 3 9 5.5l.5 1.5h.5c2.5-3.5 4.2-5.2 7.5-9-3.8-5.5-10.2-8-17.5-8v10zm0-20c9.3.2 19.2 4.7 24.5 11.5 3-2.5 5.3-3.6 9-6A42.9 42.9 0 00530-2V9zm0-21a53.7 53.7 0 0141 22.5c4.3-2 4.8-2.3 9.5-3.5A59 59 0 00530-22v10z"/>
    <path fill="#F2F5F7" d="M530-32c26 .2 49.6 16 62 36.6-2.5.4-9.1 1.8-11.5 2.4A59 59 0 00530-22v-10zm41 42.5A53.7 53.7 0 00530-12v10a43 43 0 0133.5 16.5 89 89 0 017.5-4zm-16.5 10A33.2 33.2 0 00530 9v10c7.2 0 13.7 2.5 17.5 8 1.7-2 5-4.7 7-6.5zm-17 20l2-4c0-4.4-5-7.5-9.5-7.5v11c2.7 0 4.9.2 7.5.5z"/>
    <path fill="#D7D7D7" d="M529 171c-4.5 0-8.5 3-9 5.5l-.5 1.5h-.5c-2.5-3.5-4.2-5.2-7.5-9 3.8-5.5 10.2-8 17.5-8v10zm0-20c-9.3.2-19.2 4.7-24.5 11.5-3-2.5-5.3-3.6-9-6A42.9 42.9 0 01529 140v11zm0-21a53.7 53.7 0 00-41 22.5c-4.3-2-4.8-2.3-9.5-3.5a59 59 0 0150.5-29v10z"/>
    <path fill="#F2F5F7" d="M529 110c-26 .2-49.6 16-62 36.6 2.5.4 9.1 1.8 11.5 2.4a59 59 0 0150.5-29v-10zm-41 42.5a53.7 53.7 0 0141-22.5v10a42.9 42.9 0 00-33.5 16.5 89 89 0 00-7.5-4zm16.5 10A33.2 33.2 0 01529 151v10c-7.2 0-13.7 2.5-17.5 8-1.7-2-5-4.7-7-6.5zm17 20l-2-4c0-4.4 5-7.5 9.5-7.5v11c-2.7 0-4.9.2-7.5.5z"/>
    <path fill="#D7D7D7" d="M529 171c4.5 0 8.5 3 9 5.5l.5 1.5h.5c2.5-3.5 4.2-5.2 7.5-9-3.8-5.5-10.2-8-17.5-8v10zm0-20c9.3.2 19.2 4.7 24.5 11.5 3-2.5 5.3-3.6 9-6A42.9 42.9 0 00529 140v11zm0-21a53.7 53.7 0 0141 22.5c4.3-2 4.8-2.3 9.5-3.5a59 59 0 00-50.5-29v10z"/>
    <path fill="#F2F5F7" d="M529 110c26 .2 49.6 16 62 36.6-2.5.4-9.1 1.8-11.5 2.4a59 59 0 00-50.5-29v-10zm41 42.5a53.7 53.7 0 00-41-22.5v10a43 43 0 0133.5 16.5 89 89 0 017.5-4zm-16.5 10A33.2 33.2 0 00529 151v10c7.2 0 13.7 2.5 17.5 8 1.7-2 5-4.7 7-6.5zm-17 20l2-4c0-4.4-5-7.5-9.5-7.5v11c2.7 0 4.9.2 7.5.5z"/>
    <path fill="#D7D7D7" d="M530 242c-4.5 0-8.5 3-9 5.5l-.5 1.5h-.5c-2.5-3.5-4.2-5.2-7.5-9 3.8-5.5 10.2-8 17.5-8v10zm0-20c-9.3.2-19.2 4.7-24.5 11.5-3-2.5-5.3-3.6-9-6A42.9 42.9 0 01530 211v11zm0-21a53.7 53.7 0 00-41 22.5c-4.3-2-4.8-2.3-9.5-3.5a59 59 0 0150.5-29v10z"/>
    <path fill="#F2F5F7" d="M530 181c-26 .2-49.6 16-62 36.6 2.5.4 9.1 1.8 11.5 2.4a59 59 0 0150.5-29v-10zm-41 42.5a53.7 53.7 0 0141-22.5v10a42.9 42.9 0 00-33.5 16.5 89 89 0 00-7.5-4zm16.5 10A33.2 33.2 0 01530 222v10c-7.2 0-13.7 2.5-17.5 8-1.7-2-5-4.7-7-6.5zm17 20l-2-4c0-4.4 5-7.5 9.5-7.5v11c-2.7 0-4.9.2-7.5.5z"/>
    <path fill="#D7D7D7" d="M530 242c4.5 0 8.5 3 9 5.5l.5 1.5h.5c2.5-3.5 4.2-5.2 7.5-9-3.8-5.5-10.2-8-17.5-8v10zm0-20c9.3.2 19.2 4.7 24.5 11.5 3-2.5 5.3-3.6 9-6A42.9 42.9 0 00530 211v11zm0-21a53.7 53.7 0 0141 22.5c4.3-2 4.8-2.3 9.5-3.5a59 59 0 00-50.5-29v10z"/>
    <path fill="#F2F5F7" d="M530 181c26 .2 49.6 16 62 36.6-2.5.4-9.1 1.8-11.5 2.4a59 59 0 00-50.5-29v-10zm41 42.5a53.7 53.7 0 00-41-22.5v10a43 43 0 0133.5 16.5 89 89 0 017.5-4zm-16.5 10A33.2 33.2 0 00530 222v10c7.2 0 13.7 2.5 17.5 8 1.7-2 5-4.7 7-6.5zm-17 20l2-4c0-4.4-5-7.5-9.5-7.5v11c2.7 0 4.9.2 7.5.5z"/>
    <path fill="#D7D7D7" d="M815 99c-4.5 0-8.5 3-9 5.5l-.5 1.5h-.5c-2.5-3.5-4.2-5.2-7.5-9 3.8-5.5 10.2-8 17.5-8v10zm0-20c-9.3.2-19.2 4.7-24.5 11.5-3-2.5-5.3-3.6-9-6A42.9 42.9 0 01815 68v11zm0-21a53.7 53.7 0 00-41 22.5c-4.3-2-4.8-2.3-9.5-3.5A59 59 0 01815 48v10z"/>
    <path fill="#F2F5F7" d="M815 38c-26 .2-49.6 16-62 36.6 2.5.4 9.1 1.8 11.5 2.4A59 59 0 01815 48V38zm-41 42.5A53.7 53.7 0 01815 58v10a42.9 42.9 0 00-33.5 16.5 89 89 0 00-7.5-4zm16.5 10A33.2 33.2 0 01815 79v10c-7.2 0-13.7 2.5-17.5 8-1.7-2-5-4.7-7-6.5zm17 20l-2-4c0-4.4 5-7.5 9.5-7.5v11c-2.7 0-4.9.2-7.5.5z"/>
    <path fill="#D7D7D7" d="M815 99c4.5 0 8.5 3 9 5.5l.5 1.5h.5c2.5-3.5 4.2-5.2 7.5-9-3.8-5.5-10.2-8-17.5-8v10zm0-20c9.3.2 19.2 4.7 24.5 11.5 3-2.5 5.3-3.6 9-6A42.9 42.9 0 00815 68v11zm0-21a53.7 53.7 0 0141 22.5c4.3-2 4.8-2.3 9.5-3.5A59 59 0 00815 48v10z"/>
    <path fill="#F2F5F7" d="M815 38c26 .2 49.6 16 62 36.6-2.5.4-9.1 1.8-11.5 2.4A59 59 0 00815 48V38zm41 42.5A53.7 53.7 0 00815 58v10a43 43 0 0133.5 16.5 89 89 0 017.5-4zm-16.5 10A33.2 33.2 0 00815 79v10c7.2 0 13.7 2.5 17.5 8 1.7-2 5-4.7 7-6.5zm-17 20l2-4c0-4.4-5-7.5-9.5-7.5v11c2.7 0 4.9.2 7.5.5z"/>
    <path fill="#D7D7D7" d="M815 170c-4.5 0-8.5 3-9 5.5l-.5 1.5h-.5c-2.5-3.5-4.2-5.2-7.5-9 3.8-5.5 10.2-8 17.5-8v10zm0-20c-9.3.2-19.2 4.7-24.5 11.5-3-2.5-5.3-3.6-9-6A42.9 42.9 0 01815 139v11zm0-21a53.7 53.7 0 00-41 22.5c-4.3-2-4.8-2.3-9.5-3.5a59 59 0 0150.5-29v10z"/>
    <path fill="#F2F5F7" d="M815 109c-26 .2-49.6 16-62 36.6 2.5.4 9.1 1.8 11.5 2.4a59 59 0 0150.5-29v-10zm-41 42.5a53.7 53.7 0 0141-22.5v10a42.9 42.9 0 00-33.5 16.5 89 89 0 00-7.5-4zm16.5 10A33.2 33.2 0 01815 150v10c-7.2 0-13.7 2.5-17.5 8-1.7-2-5-4.7-7-6.5zm17 20l-2-4c0-4.4 5-7.5 9.5-7.5v11c-2.7 0-4.9.2-7.5.5z"/>
    <path fill="#D7D7D7" d="M815 170c4.5 0 8.5 3 9 5.5l.5 1.5h.5c2.5-3.5 4.2-5.2 7.5-9-3.8-5.5-10.2-8-17.5-8v10zm0-20c9.3.2 19.2 4.7 24.5 11.5 3-2.5 5.3-3.6 9-6A42.9 42.9 0 00815 139v11zm0-21a53.7 53.7 0 0141 22.5c4.3-2 4.8-2.3 9.5-3.5a59 59 0 00-50.5-29v10z"/>
    <path fill="#F2F5F7" d="M815 109c26 .2 49.6 16 62 36.6-2.5.4-9.1 1.8-11.5 2.4a59 59 0 00-50.5-29v-10zm41 42.5a53.7 53.7 0 00-41-22.5v10a43 43 0 0133.5 16.5 89 89 0 017.5-4zm-16.5 10A33.2 33.2 0 00815 150v10c7.2 0 13.7 2.5 17.5 8 1.7-2 5-4.7 7-6.5zm-17 20l2-4c0-4.4-5-7.5-9.5-7.5v11c2.7 0 4.9.2 7.5.5z"/>
    <path fill="#D7D7D7" d="M809 243c-4.5 0-8.5 3-9 5.5l-.5 1.5h-.5c-2.5-3.5-4.2-5.2-7.5-9 3.8-5.5 10.2-8 17.5-8v10zm0-20c-9.3.2-19.2 4.7-24.5 11.5-3-2.5-5.3-3.6-9-6A42.9 42.9 0 01809 212v11zm0-21a53.7 53.7 0 00-41 22.5c-4.3-2-4.8-2.3-9.5-3.5a59 59 0 0150.5-29v10z"/>
    <path fill="#F2F5F7" d="M809 182c-26 .2-49.6 16-62 36.6 2.5.4 9.1 1.8 11.5 2.4a59 59 0 0150.5-29v-10zm-41 42.5a53.7 53.7 0 0141-22.5v10a42.9 42.9 0 00-33.5 16.5 89 89 0 00-7.5-4zm16.5 10A33.2 33.2 0 01809 223v10c-7.2 0-13.7 2.5-17.5 8-1.7-2-5-4.7-7-6.5zm17 20l-2-4c0-4.4 5-7.5 9.5-7.5v11c-2.7 0-4.9.2-7.5.5z"/>
    <path fill="#D7D7D7" d="M809 243c4.5 0 8.5 3 9 5.5l.5 1.5h.5c2.5-3.5 4.2-5.2 7.5-9-3.8-5.5-10.2-8-17.5-8v10zm0-20c9.3.2 19.2 4.7 24.5 11.5 3-2.5 5.3-3.6 9-6A42.9 42.9 0 00809 212v11zm0-21a53.7 53.7 0 0141 22.5c4.3-2 4.8-2.3 9.5-3.5a59 59 0 00-50.5-29v10z"/>
    <path fill="#F2F5F7" d="M809 182c26 .2 49.6 16 62 36.6-2.5.4-9.1 1.8-11.5 2.4a59 59 0 00-50.5-29v-10zm41 42.5a53.7 53.7 0 00-41-22.5v10a43 43 0 0133.5 16.5 89 89 0 017.5-4zm-16.5 10A33.2 33.2 0 00809 223v10c7.2 0 13.7 2.5 17.5 8 1.7-2 5-4.7 7-6.5zm-17 20l2-4c0-4.4-5-7.5-9.5-7.5v11c2.7 0 4.9.2 7.5.5z"/>
    <path fill="#D7D7D7" d="M666 190c4.5 0 8.5-3 9-5.5l.5-1.5h.5c2.5 3.5 4.2 5.2 7.5 9-3.8 5.5-10.2 8-17.5 8v-10zm0 20c9.3-.2 19.2-4.7 24.5-11.5 3 2.5 5.3 3.6 9 6A42.9 42.9 0 01666 221v-11zm0 21a53.7 53.7 0 0041-22.5c4.3 2 4.8 2.3 9.5 3.5a59 59 0 01-50.5 29v-10z"/>
    <path fill="#F2F5F7" d="M666 251c26-.2 49.6-16 62-36.6-2.5-.4-9.1-1.8-11.5-2.4a59 59 0 01-50.5 29v10zm41-42.5a53.7 53.7 0 01-41 22.5v-10a43 43 0 0033.5-16.5 89 89 0 007.5 4zm-16.5-10A33.2 33.2 0 01666 210v-10c7.2 0 13.7-2.5 17.5-8 1.7 2 5 4.7 7 6.5zm-17-20l2 4c0 4.4-5 7.5-9.5 7.5v-11c2.7 0 4.9-.2 7.5-.5z"/>
    <path fill="#D7D7D7" d="M666 190c-4.5 0-8.5-3-9-5.5l-.5-1.5h-.5c-2.5 3.5-4.2 5.2-7.5 9 3.8 5.5 10.2 8 17.5 8v-10zm0 20a33.2 33.2 0 01-24.5-11.5c-3 2.5-5.3 3.6-9 6A42.9 42.9 0 00666 221v-11zm0 21a53.7 53.7 0 01-41-22.5c-4.3 2-4.8 2.3-9.5 3.5a59 59 0 0050.5 29v-10z"/>
    <path fill="#F2F5F7" d="M666 251c-26-.2-49.6-16-62-36.6 2.5-.4 9.1-1.8 11.5-2.4a59 59 0 0050.5 29v10zm-41-42.5a53.7 53.7 0 0041 22.5v-10a42.9 42.9 0 01-33.5-16.5 89 89 0 01-7.5 4zm16.5-10A33.2 33.2 0 00666 210v-10c-7.2 0-13.7-2.5-17.5-8-1.7 2-5 4.7-7 6.5zm17-20l-2 4c0 4.4 5 7.5 9.5 7.5v-11c-2.7 0-4.9-.2-7.5-.5z"/>
    <path fill="#D7D7D7" d="M666 119c4.5 0 8.5-3 9-5.5l.5-1.5h.5c2.5 3.5 4.2 5.2 7.5 9-3.8 5.5-10.2 8-17.5 8v-10zm0 20c9.3-.2 19.2-4.7 24.5-11.5 3 2.5 5.3 3.6 9 6A42.9 42.9 0 01666 150v-11zm0 21a53.7 53.7 0 0041-22.5c4.3 2 4.8 2.3 9.5 3.5a59 59 0 01-50.5 29v-10z"/>
    <path fill="#F2F5F7" d="M666 180c26-.2 49.6-16 62-36.6-2.5-.4-9.1-1.8-11.5-2.4a59 59 0 01-50.5 29v10zm41-42.5a53.7 53.7 0 01-41 22.5v-10a43 43 0 0033.5-16.5 89 89 0 007.5 4zm-16.5-10A33.2 33.2 0 01666 139v-10c7.2 0 13.7-2.5 17.5-8 1.7 2 5 4.7 7 6.5zm-17-20l2 4c0 4.4-5 7.5-9.5 7.5v-11c2.7 0 4.9-.2 7.5-.5z"/>
    <path fill="#D7D7D7" d="M666 119c-4.5 0-8.5-3-9-5.5l-.5-1.5h-.5c-2.5 3.5-4.2 5.2-7.5 9 3.8 5.5 10.2 8 17.5 8v-10zm0 20a33.2 33.2 0 01-24.5-11.5c-3 2.5-5.3 3.6-9 6A42.9 42.9 0 00666 150v-11zm0 21a53.7 53.7 0 01-41-22.5c-4.3 2-4.8 2.3-9.5 3.5a59 59 0 0050.5 29v-10z"/>
    <path fill="#F2F5F7" d="M666 180c-26-.2-49.6-16-62-36.6 2.5-.4 9.1-1.8 11.5-2.4a59 59 0 0050.5 29v10zm-41-42.5a53.7 53.7 0 0041 22.5v-10a42.9 42.9 0 01-33.5-16.5 89 89 0 01-7.5 4zm16.5-10A33.2 33.2 0 00666 139v-10c-7.2 0-13.7-2.5-17.5-8-1.7 2-5 4.7-7 6.5zm17-20l-2 4c0 4.4 5 7.5 9.5 7.5v-11c-2.7 0-4.9-.2-7.5-.5z"/>
    <path fill="#D7D7D7" d="M665 48c4.5 0 8.5-3 9-5.5l.5-1.5h.5c2.5 3.5 4.2 5.2 7.5 9-3.8 5.5-10.2 8-17.5 8V48zm0 20c9.3-.2 19.2-4.7 24.5-11.5 3 2.5 5.3 3.6 9 6A42.9 42.9 0 01665 79V68zm0 21a53.7 53.7 0 0041-22.5c4.3 2 4.8 2.3 9.5 3.5A59 59 0 01665 99V89z"/>
    <path fill="#F2F5F7" d="M665 109c26-.2 49.6-16 62-36.6-2.5-.4-9.1-1.8-11.5-2.4A59 59 0 01665 99v10zm41-42.5A53.7 53.7 0 01665 89V79a43 43 0 0033.5-16.5 89 89 0 007.5 4zm-16.5-10A33.2 33.2 0 01665 68V58c7.2 0 13.7-2.5 17.5-8 1.7 2 5 4.7 7 6.5zm-17-20l2 4c0 4.4-5 7.5-9.5 7.5V37a64 64 0 007.5-.5z"/>
    <path fill="#D7D7D7" d="M665 48c-4.5 0-8.5-3-9-5.5l-.5-1.5h-.5c-2.5 3.5-4.2 5.2-7.5 9 3.8 5.5 10.2 8 17.5 8V48zm0 20a33.2 33.2 0 01-24.5-11.5c-3 2.5-5.3 3.6-9 6A42.9 42.9 0 00665 79V68zm0 21a53.7 53.7 0 01-41-22.5c-4.3 2-4.8 2.3-9.5 3.5A59 59 0 00665 99V89z"/>
    <path fill="#F2F5F7" d="M665 109c-26-.2-49.6-16-62-36.6 2.5-.4 9.1-1.8 11.5-2.4A59 59 0 00665 99v10zm-41-42.5A53.7 53.7 0 00665 89V79a42.9 42.9 0 01-33.5-16.5 89 89 0 01-7.5 4zm16.5-10A33.2 33.2 0 00665 68V58c-7.2 0-13.7-2.5-17.5-8-1.7 2-5 4.7-7 6.5zm17-20l-2 4c0 4.4 5 7.5 9.5 7.5V37a64 64 0 01-7.5-.5z"/>
    <path fill="#D7D7D7" d="M666-24c4.5 0 8.5-3 9-5.5l.5-1.5h.5c2.5 3.5 4.2 5.2 7.5 9-3.8 5.5-10.2 8-17.5 8v-10zm0 20c9.3-.2 19.2-4.7 24.5-11.5 3 2.5 5.3 3.6 9 6A42.9 42.9 0 01666 7V-4zm0 21a53.7 53.7 0 0041-22.5c4.3 2 4.8 2.3 9.5 3.5A59 59 0 01666 27V17z"/>
    <path fill="#F2F5F7" d="M666 37c26-.2 49.6-16 62-36.6-2.5-.4-9.1-1.8-11.5-2.4A59 59 0 01666 27v10zm41-42.5A53.7 53.7 0 01666 17V7a43 43 0 0033.5-16.5 89 89 0 007.5 4zm-16.5-10A33.2 33.2 0 01666-4v-10c7.2 0 13.7-2.5 17.5-8 1.7 2 5 4.7 7 6.5zm-17-20l2 4c0 4.4-5 7.5-9.5 7.5v-11a64 64 0 007.5-.5z"/>
    <path fill="#D7D7D7" d="M666-24c-4.5 0-8.5-3-9-5.5l-.5-1.5h-.5c-2.5 3.5-4.2 5.2-7.5 9 3.8 5.5 10.2 8 17.5 8v-10zm0 20a33.2 33.2 0 01-24.5-11.5c-3 2.5-5.3 3.6-9 6A42.9 42.9 0 00666 7V-4zm0 21a53.7 53.7 0 01-41-22.5c-4.3 2-4.8 2.3-9.5 3.5A59 59 0 00666 27V17z"/>
    <path fill="#F2F5F7" d="M666 37c-26-.2-49.6-16-62-36.6 2.5-.4 9.1-1.8 11.5-2.4A59 59 0 00666 27v10zM625-5.5A53.7 53.7 0 00666 17V7a42.9 42.9 0 01-33.5-16.5 89 89 0 01-7.5 4zm16.5-10A33.2 33.2 0 00666-4v-10c-7.2 0-13.7-2.5-17.5-8-1.7 2-5 4.7-7 6.5zm17-20l-2 4c0 4.4 5 7.5 9.5 7.5v-11a64 64 0 01-7.5-.5z"/>
    <path fill="#D7D7D7" d="M368 141.7c4.5 0 8.5-3 9-5.5l.5-1.5h.5c2.5 3.5 4.2 5.2 7.5 9-3.8 5.5-10.2 8-17.5 8v-10zm0 20c9.3-.2 19.2-4.8 24.5-11.5 3 2.5 5.3 3.6 9 6a42.9 42.9 0 01-33.5 16.5v-11zm0 21a53.7 53.7 0 0041-22.5c4.3 2 4.8 2.3 9.5 3.5a59 59 0 01-50.5 29v-10z"/>
    <path fill="#F2F5F7" d="M368 202.7c26-.2 49.6-16 62-36.6-2.5-.4-9.1-1.8-11.5-2.4a59 59 0 01-50.5 29v10zm41-42.5a53.7 53.7 0 01-41 22.5v-10a43 43 0 0033.5-16.5 89 89 0 007.5 4zm-16.5-10a33.2 33.2 0 01-24.5 11.5v-10c7.2 0 13.7-2.5 17.5-8 1.7 2 5 4.7 7 6.5zm-17-20l2 4c0 4.4-5 7.5-9.5 7.5v-11a64 64 0 007.5-.5z"/>
    <path fill="#D7D7D7" d="M597 206c-4.5 0-8.5 3-9 5.5l-.5 1.5h-.5c-2.5-3.5-4.2-5.2-7.5-9 3.8-5.5 10.2-8 17.5-8v10zm0-20c-9.3.2-19.2 4.7-24.5 11.5-3-2.5-5.3-3.6-9-6A42.9 42.9 0 01597 175v11zm0-21a53.7 53.7 0 00-41 22.5c-4.3-2-4.8-2.3-9.5-3.5a59 59 0 0150.5-29v10z"/>
    <path fill="#F2F5F7" d="M597 145c-26 .2-49.6 16-62 36.6 2.5.4 9.1 1.8 11.5 2.4a59 59 0 0150.5-29v-10zm-41 42.5a53.7 53.7 0 0141-22.5v10a42.9 42.9 0 00-33.5 16.5 89 89 0 00-7.5-4zm16.5 10A33.2 33.2 0 01597 186v10c-7.2 0-13.7 2.5-17.5 8-1.7-2-5-4.7-7-6.5zm17 20l-2-4c0-4.4 5-7.5 9.5-7.5v11c-2.7 0-4.9.2-7.5.5z"/>
    <path fill="#D7D7D7" d="M597 155c4.5 0 8.5-3 9-5.5l.5-1.5h.5c2.5 3.5 4.2 5.2 7.5 9-3.8 5.5-10.2 8-17.5 8v-10zm0 20c9.3-.2 19.2-4.7 24.5-11.5 3 2.5 5.3 3.6 9 6A42.9 42.9 0 01597 186v-11zm0 21a53.7 53.7 0 0041-22.5c4.3 2 4.8 2.3 9.5 3.5a59 59 0 01-50.5 29v-10z"/>
    <path fill="#F2F5F7" d="M597 216c26-.2 49.6-16 62-36.6-2.5-.4-9.1-1.8-11.5-2.4a59 59 0 01-50.5 29v10zm41-42.5a53.7 53.7 0 01-41 22.5v-10a43 43 0 0033.5-16.5 89 89 0 007.5 4zm-16.5-10A33.2 33.2 0 01597 175v-10c7.2 0 13.7-2.5 17.5-8 1.7 2 5 4.7 7 6.5zm-17-20l2 4c0 4.4-5 7.5-9.5 7.5v-11c2.7 0 4.9-.2 7.5-.5z"/>
    <path fill="#D7D7D7" d="M598 278c-4.5 0-8.5 3-9 5.5l-.5 1.5h-.5c-2.5-3.5-4.2-5.2-7.5-9 3.8-5.5 10.2-8 17.5-8v10zm0-20c-9.3.2-19.2 4.7-24.5 11.5-3-2.5-5.3-3.6-9-6A42.9 42.9 0 01598 247v11zm0-21a53.7 53.7 0 00-41 22.5c-4.3-2-4.8-2.3-9.5-3.5a59 59 0 0150.5-29v10z"/>
    <path fill="#F2F5F7" d="M598 217c-26 .2-49.6 16-62 36.6 2.5.4 9.1 1.8 11.5 2.4a59 59 0 0150.5-29v-10zm-41 42.5a53.7 53.7 0 0141-22.5v10a42.9 42.9 0 00-33.5 16.5 89 89 0 00-7.5-4zm16.5 10A33.2 33.2 0 01598 258v10c-7.2 0-13.7 2.5-17.5 8-1.7-2-5-4.7-7-6.5zm17 20l-2-4c0-4.4 5-7.5 9.5-7.5v11c-2.7 0-4.9.2-7.5.5z"/>
    <path fill="#D7D7D7" d="M598 227c4.5 0 8.5-3 9-5.5l.5-1.5h.5c2.5 3.5 4.2 5.2 7.5 9-3.8 5.5-10.2 8-17.5 8v-10zm0 20c9.3-.2 19.2-4.7 24.5-11.5 3 2.5 5.3 3.6 9 6A42.9 42.9 0 01598 258v-11zm0 21a53.7 53.7 0 0041-22.5c4.3 2 4.8 2.3 9.5 3.5a59 59 0 01-50.5 29v-10z"/>
    <path fill="#F2F5F7" d="M598 288c26-.2 49.6-16 62-36.6-2.5-.4-9.1-1.8-11.5-2.4a59 59 0 01-50.5 29v10zm41-42.5a53.7 53.7 0 01-41 22.5v-10a43 43 0 0033.5-16.5 89 89 0 007.5 4zm-16.5-10A33.2 33.2 0 01598 247v-10c7.2 0 13.7-2.5 17.5-8 1.7 2 5 4.7 7 6.5zm-17-20l2 4c0 4.4-5 7.5-9.5 7.5v-11c2.7 0 4.9-.2 7.5-.5z"/>
    <path fill="#D7D7D7" d="M907 134c-4.5 0-8.5 3-9 5.5l-.5 1.5h-.5c-2.5-3.5-4.2-5.2-7.5-9 3.8-5.5 10.2-8 17.5-8v10zm0-20c-9.3.2-19.2 4.7-24.5 11.5-3-2.5-5.3-3.6-9-6A42.9 42.9 0 01907 103v11zm0-21a53.7 53.7 0 00-41 22.5c-4.3-2-4.8-2.3-9.5-3.5A59 59 0 01907 83v10z"/>
    <path fill="#F2F5F7" d="M907 73c-26 .2-49.6 16-62 36.6 2.5.4 9.1 1.8 11.5 2.4A59 59 0 01907 83V73zm-41 42.5A53.7 53.7 0 01907 93v10a42.9 42.9 0 00-33.5 16.5 89 89 0 00-7.5-4zm16.5 10A33.2 33.2 0 01907 114v10c-7.2 0-13.7 2.5-17.5 8-1.7-2-5-4.7-7-6.5zm17 20l-2-4c0-4.4 5-7.5 9.5-7.5v11c-2.7 0-4.9.2-7.5.5z"/>
    <path fill="#D7D7D7" d="M907 83c4.5 0 8.5-3 9-5.5l.5-1.5h.5c2.5 3.5 4.2 5.2 7.5 9-3.8 5.5-10.2 8-17.5 8V83zm0 20c9.3-.2 19.2-4.7 24.5-11.5 3 2.5 5.3 3.6 9 6A42.9 42.9 0 01907 114v-11zm0 21a53.7 53.7 0 0041-22.5c4.3 2 4.8 2.3 9.5 3.5a59 59 0 01-50.5 29v-10z"/>
    <path fill="#F2F5F7" d="M907 144c26-.2 49.6-16 62-36.6-2.5-.4-9.1-1.8-11.5-2.4a59 59 0 01-50.5 29v10zm41-42.5a53.7 53.7 0 01-41 22.5v-10a43 43 0 0033.5-16.5 89 89 0 007.5 4zm-16.5-10A33.2 33.2 0 01907 103V93c7.2 0 13.7-2.5 17.5-8 1.7 2 5 4.7 7 6.5zm-17-20l2 4c0 4.4-5 7.5-9.5 7.5V72a64 64 0 007.5-.5z"/>
    <path fill="#D7D7D7" d="M893 60c-4.5 0-8.5 3-9 5.5l-.5 1.5h-.5c-2.5-3.5-4.2-5.2-7.5-9 3.8-5.5 10.2-8 17.5-8v10zm0-20c-9.3.2-19.2 4.7-24.5 11.5-3-2.5-5.3-3.6-9-6A42.9 42.9 0 01893 29v11zm0-21a53.7 53.7 0 00-41 22.5c-4.3-2-4.8-2.3-9.5-3.5A59 59 0 01893 9v10z"/>
    <path fill="#F2F5F7" d="M893-1c-26 .2-49.6 16-62 36.6 2.5.4 9.1 1.8 11.5 2.4A59 59 0 01893 9V-1zm-41 42.5A53.7 53.7 0 01893 19v10a42.9 42.9 0 00-33.5 16.5 89 89 0 00-7.5-4zm16.5 10A33.2 33.2 0 01893 40v10c-7.2 0-13.7 2.5-17.5 8-1.7-2-5-4.7-7-6.5zm17 20l-2-4c0-4.4 5-7.5 9.5-7.5v11a64 64 0 00-7.5.5z"/>
    <path fill="#D7D7D7" d="M893 9c4.5 0 8.5-3 9-5.5l.5-1.5h.5c2.5 3.5 4.2 5.2 7.5 9-3.8 5.5-10.2 8-17.5 8V9zm0 20c9.3-.2 19.2-4.7 24.5-11.5 3 2.5 5.3 3.6 9 6A42.9 42.9 0 01893 40V29zm0 21a53.7 53.7 0 0041-22.5c4.3 2 4.8 2.3 9.5 3.5A59 59 0 01893 60V50z"/>
    <path fill="#F2F5F7" d="M893 70c26-.2 49.6-16 62-36.6-2.5-.4-9.1-1.8-11.5-2.4A59 59 0 01893 60v10zm41-42.5A53.7 53.7 0 01893 50V40a43 43 0 0033.5-16.5 89 89 0 007.5 4zm-16.5-10A33.2 33.2 0 01893 29V19c7.2 0 13.7-2.5 17.5-8 1.7 2 5 4.7 7 6.5zm-17-20l2 4c0 4.4-5 7.5-9.5 7.5V-2a64 64 0 007.5-.5z"/>
    <path fill="#D7D7D7" d="M894 210c-4.5 0-8.5 3-9 5.5l-.5 1.5h-.5c-2.5-3.5-4.2-5.2-7.5-9 3.8-5.5 10.2-8 17.5-8v10zm0-20c-9.3.2-19.2 4.7-24.5 11.5-3-2.5-5.3-3.6-9-6A42.9 42.9 0 01894 179v11zm0-21a53.7 53.7 0 00-41 22.5c-4.3-2-4.8-2.3-9.5-3.5a59 59 0 0150.5-29v10z"/>
    <path fill="#F2F5F7" d="M894 149c-26 .2-49.6 16-62 36.6 2.5.4 9.1 1.8 11.5 2.4a59 59 0 0150.5-29v-10zm-41 42.5a53.7 53.7 0 0141-22.5v10a42.9 42.9 0 00-33.5 16.5 89 89 0 00-7.5-4zm16.5 10A33.2 33.2 0 01894 190v10c-7.2 0-13.7 2.5-17.5 8-1.7-2-5-4.7-7-6.5zm17 20l-2-4c0-4.4 5-7.5 9.5-7.5v11c-2.7 0-4.9.2-7.5.5z"/>
    <path fill="#D7D7D7" d="M894 159c4.5 0 8.5-3 9-5.5l.5-1.5h.5c2.5 3.5 4.2 5.2 7.5 9-3.8 5.5-10.2 8-17.5 8v-10zm0 20c9.3-.2 19.2-4.7 24.5-11.5 3 2.5 5.3 3.6 9 6A42.9 42.9 0 01894 190v-11zm0 21a53.7 53.7 0 0041-22.5c4.3 2 4.8 2.3 9.5 3.5a59 59 0 01-50.5 29v-10z"/>
    <path fill="#F2F5F7" d="M894 220c26-.2 49.6-16 62-36.6-2.5-.4-9.1-1.8-11.5-2.4a59 59 0 01-50.5 29v10zm41-42.5a53.7 53.7 0 01-41 22.5v-10a43 43 0 0033.5-16.5 89 89 0 007.5 4zm-16.5-10A33.2 33.2 0 01894 179v-10c7.2 0 13.7-2.5 17.5-8 1.7 2 5 4.7 7 6.5zm-17-20l2 4c0 4.4-5 7.5-9.5 7.5v-11c2.7 0 4.9-.2 7.5-.5z"/>
    <path fill="#FF1515" d="M402.6 135.5c.1-1-1.3-1.5-1.5-.5a12 12 0 01-3 6.1c-.5.5-.3 1.6.5 1.6 2.7 0 5.2.7 8 1 .4 0 .7-.8.2-1-1.5-1-3.5-1.5-5.4-1.7 3.8-1.9 9-1.9 12.4 1 2 1.8 2.4 5 2.2 7.5 0 1.3-.4 2.5-.9 3.6-.5 1.3-1.4 2.3-1.9 3.6-.6 1.4 1.3 2.3 2.3 1.6 2.6-1.8 3.6-6.3 3.6-9.4 0-3.3-1-6.8-4-8.7-3.7-2.6-10-3.2-14-.7.7-1.2 1.2-2.5 1.5-4zm-73.9-15.8a39 39 0 00-5.2-3.5.8.8 0 00-.7 0h-.3a1 1 0 00-.9.4c0 .3-.2.5 0 .7l-.2.3-.3 1.8c-3.8.2-7.5.4-11.3.4-3.8.1-7.6 0-11.5.3-.5 0-.6.8 0 1a90 90 0 0022.6.4l-.2 3c0 1 .8 1.3 1.6.8l6-3.8c.6-.4.8-1.4.4-1.8zm117 0a39 39 0 00-5.2-3.5.8.8 0 00-.7 0h-.3a1 1 0 00-.9.4c0 .3-.2.5 0 .7l-.2.3-.3 1.8c-3.8.2-7.5.4-11.3.4-3.8.1-7.6 0-11.5.3-.5 0-.6.8 0 1a90 90 0 0022.6.4l-.2 3c0 1 .8 1.3 1.6.8l6-3.8c.6-.4.8-1.4.4-1.8z"/>
    <path fill="#D7D7D7" d="M811 23c-4.5 0-8.5 3-9 5.5l-.5 1.5h-.5c-2.5-3.5-4.2-5.2-7.5-9 3.8-5.5 10.2-8 17.5-8v10zm0-20c-9.3.2-19.2 4.7-24.5 11.5-3-2.5-5.3-3.6-9-6A42.9 42.9 0 01811-8V3zm0-21a53.7 53.7 0 00-41 22.5c-4.3-2-4.8-2.3-9.5-3.5A59 59 0 01811-28v10z"/>
    <path fill="#F2F5F7" d="M811-38c-26 .2-49.6 16-62 36.6 2.5.4 9.1 1.8 11.5 2.4A59 59 0 01811-28v-10zM770 4.5A53.7 53.7 0 01811-18v10a42.9 42.9 0 00-33.5 16.5 89 89 0 00-7.5-4zm16.5 10A33.2 33.2 0 01811 3v10c-7.2 0-13.7 2.5-17.5 8-1.7-2-5-4.7-7-6.5zm17 20l-2-4c0-4.4 5-7.5 9.5-7.5v11a64 64 0 00-7.5.5z"/>
    <path fill="#D7D7D7" d="M811 23c4.5 0 8.5 3 9 5.5l.5 1.5h.5c2.5-3.5 4.2-5.2 7.5-9-3.8-5.5-10.2-8-17.5-8v10zm0-20c9.3.2 19.2 4.7 24.5 11.5 3-2.5 5.3-3.6 9-6A42.9 42.9 0 00811-8V3zm0-21a53.7 53.7 0 0141 22.5c4.3-2 4.8-2.3 9.5-3.5A59 59 0 00811-28v10z"/>
    <path fill="#F2F5F7" d="M811-38c26 .2 49.6 16 62 36.6-2.5.4-9.1 1.8-11.5 2.4A59 59 0 00811-28v-10zm41 42.5A53.7 53.7 0 00811-18v10a43 43 0 0133.5 16.5 89 89 0 017.5-4zm-16.5 10A33.2 33.2 0 00811 3v10c7.2 0 13.7 2.5 17.5 8 1.7-2 5-4.7 7-6.5zm-17 20l2-4c0-4.4-5-7.5-9.5-7.5v11c2.7 0 4.9.2 7.5.5z"/>
    <path stroke="#CDCDCD" stroke-dasharray="3 3" d="M596.9 5.2v218M666.4 8v218M732.5 6.4v218"/>
    <text x="362.6" y="26.3" fill="#333" font-family="Roboto Slab" font-size="8" style="white-space:pre" text-anchor="middle">
      Scallop shell unit
    </text>
    <text x="363.8" y="224.3" fill="#333" font-family="Roboto Slab" font-size="8" style="white-space:pre" text-anchor="middle">
      Weave unit
    </text>
  </g>
  <path stroke="#bd17ff" stroke-dasharray="2" stroke-opacity=".2" stroke-width="2" d="M290.8 37.3H360v76.3h-69.2z"/>
  <use width="142.1" height="142.1" transform="matrix(.99826 0 0 .99826 5.9 76)" xlink:href="#b"/>
  <use width="142.1" height="142.1" transform="matrix(.99826 0 0 .99826 148.8 76)" xlink:href="#b"/>
  <path stroke="#CDCDCD" stroke-dasharray="3 3" d="M220.5 9v218M460.1 6.1v218M364.5 41v167.1M529.5 8v218M76.5 9v218M148.5 9v218M263 116.5H45M257 39.5H39"/>
  <mask id="c" fill="#fff">
    <path fill-rule="evenodd" d="M148 40h-.6A77.6 77.6 0 0083 76.5a78.3 78.3 0 0157 39c1.1-.1 1.8-.5 2.4-.9 1-.5 2.2-1.2 5-1.2h.6V40z" clip-rule="evenodd"/>
  </mask>
  <path fill="#56CCF2" fill-opacity=".3" fill-rule="evenodd" d="M148 40h-.6A77.6 77.6 0 0083 76.5a78.3 78.3 0 0157 39c1.1-.1 1.8-.5 2.4-.9 1-.5 2.2-1.2 5-1.2h.6V40z" clip-rule="evenodd"/>
  <path fill="#333" d="M148 40h1v-1h-1v1zM83 76.5l-.8-.5-.9 1.3 1.6.2.1-1zm57 39l-.9.5.4.6.6-.1v-1zm2.4-.9l.5.9-.5-.9zm5.6-1.2v1h1v-1h-1zm-.6-74.4h-1v2h1v-2zm-3 0l-2.1.2.1 2 2-.1v-2zm-4.2.4l-2 .2.3 2 2-.2-.3-2zm-4 .5l-2 .4.3 2 2-.4-.3-2zm-4.1.8l-2 .4.5 2a72 72 0 012-.5l-.5-2zm-4 1l-2 .5.6 2 2-.6-.6-2zm-4 1.2l-1.9.6.7 2 1.9-.7-.6-2zm-3.8 1.4l-2 .8.9 1.8 1.8-.8-.7-1.8zm-3.8 1.6l-1.8.9.8 1.8a76 76 0 011.8-.9l-.8-1.8zm-3.7 1.8l-1.8 1 1 1.7a78 78 0 011.7-1l-.9-1.7zm-3.6 2l-1.7 1 1 1.8 1.7-1-1-1.8zm-3.5 2.2L104 53l1.2 1.7 1.6-1.1-1-1.7zm-3.3 2.3l-1.7 1.3L102 57l1.6-1.2-1.1-1.7zM99 56.8L97.5 58l1.3 1.5 1.6-1.3-1.3-1.5zm-3 2.7l-1.5 1.4 1.4 1.4 1.4-1.4-1.3-1.4zm-3 2.8l-1.4 1.5L93 65l1.4-1.4-1.4-1.4zm-2.8 3l-1.4 1.5 1.5 1.3 1.4-1.5-1.5-1.3zm-2.7 3.1L86.2 70l1.6 1.3 1.3-1.6-1.6-1.3zM85 71.7l-1.2 1.7 1.7 1.1 1.1-1.6-1.6-1.2zM82.7 75l-.5.9 1.6 1 .6-.8-1.7-1.1zm.2 2.4l1 .1.2-2h-1l-.2 1.9zm2.9.4l2 .3.3-2c-.7 0-1.3-.2-2-.3l-.3 2zm3.8.7l2 .5.4-2-2-.5-.4 2zm3.8 1l2 .5.5-1.9-2-.6-.5 2zm3.8 1.1l1.8.7.7-1.8-1.9-.7-.6 1.8zm3.6 1.4l1.8.8.9-1.8-1.9-.8-.8 1.8zm3.6 1.6l1.8 1 .9-1.9a78 78 0 00-1.8-.9l-.9 1.8zm3.5 1.8l1.7 1 1-1.7-1.7-1-1 1.7zm3.4 2l1.7 1 1-1.7-1.6-1-1 1.7zm3.3 2.1l1.6 1.1 1.2-1.6a82 82 0 00-1.7-1.1l-1 1.6zm3.2 2.3l1.6 1.2 1.2-1.6-1.6-1.2-1.2 1.6zm3.1 2.4l1.5 1.3 1.3-1.5-1.5-1.3-1.3 1.5zm3 2.6l1.4 1.4 1.4-1.5-1.5-1.4L124 97zm2.8 2.7l1.4 1.4 1.4-1.3-1.4-1.5-1.4 1.4zm2.7 2.9l1.3 1.5 1.5-1.3-1.3-1.5-1.5 1.3zm2.6 3l1.2 1.5 1.6-1.2-1.3-1.6-1.5 1.3zm2.4 3l1.1 1.7 1.6-1.2-1.1-1.6-1.6 1.2zm2.2 3.3l1 1.7 1.8-1-1.1-1.8-1.7 1.1zm2 3.3l.5.9 1.8-1-.5-.9-1.7 1zm1.5 1.4l.8-.1-.5-2-.5.1.2 2zm2.2-.7l.6-.3-1-1.7-.5.3 1 1.7zm.6-.3a9 9 0 011-.5l-.7-1.9-1.2.7 1 1.7zm3.3-1h1.2v-2h-1.3l.1 2zm1.2 0h.2v-2h-.2v2zm.4 0h.2v-2h-.1v2zm1.2-1v-1h-2v1h2zm0-3.1v-2h-2v2h2zm0-4.1v-2h-2v2h2zm0-4v-2.1h-2v2h2zm0-4.2v-2h-2v2h2zm0-4v-2h-2v2h2zm0-4.1v-2h-2v2h2zm0-4.1v-2h-2v2h2zm0-4v-2.1h-2v2h2zm0-4.2v-2h-2v2h2zm0-4v-2h-2v2h2zm0-4.1v-2h-2v2h2zm0-4.1v-2h-2v2h2zm0-4v-2.1h-2v2h2zm0-4.2v-2h-2v2h2zm0-4v-2h-2v2h2zm0-4.1v-2h-2v2h2zm0-4.1v-2h-2v2h2zm0-4v-1h-2v1h2zm-1-2.1h-.1v2l.1-2zm-.4 0h-.2v2h.2v-2zm.4 1h2v-2h-2v2zM83 76.5l-1.7-1-1.7 2.7 3.2.3.2-2zm57 39l-1.7 1 .6 1.1 1.3-.1-.2-2zm2.4-.9l1 1.8-1-1.8zm5.6-1.2v2l2 .1v-2h-2zm-.6-75.4h-1v4h1v-4zm-3 0l-2.2.2.3 4 2-.1-.2-4zm-4.3.4l-2 .2.5 4 2-.2-.5-4zm-4.1.5l-2 .4.7 3.9 2-.3-.7-4zm-4.1.8l-2 .5 1 3.8 1.8-.4-.8-4zm-4 1l-2 .6L127 45l1.9-.6-1-3.8zm-4 1.2l-2 .7 1.4 3.8 1.8-.7-1.3-3.8zm-4 1.4l-1.9.8 1.6 3.7 1.8-.7-1.5-3.8zm-3.8 1.7l-1.9.9 1.8 3.6 1.8-.9L116 45zm-3.7 1.8l-1.9 1 2 3.5a79 79 0 011.7-1l-1.8-3.5zm-3.7 2L107 50l2.2 3.4a79 79 0 011.6-1l-2-3.5zm-3.5 2.3l-1.7 1.1 2.2 3.3 1.7-1.1-2.2-3.3zm-3.4 2.3l-1.7 1.3 2.5 3.2 1.5-1.2-2.3-3.3zM98.5 56l-1.6 1.3 2.6 3 1.5-1.2-2.5-3.1zm-3.2 2.7l-1.5 1.4 2.8 3 1.4-1.4-2.7-3zm-3 2.9L90.8 63l3 2.7 1.3-1.4-2.8-2.8zm-2.9 3l-1.3 1.6 3 2.6 1.3-1.5-3-2.7zm-2.7 3.2l-1.3 1.6 3.2 2.5 1.2-1.6-3-2.5zM84.2 71a76 76 0 00-1.2 1.7l3.3 2.3 1.1-1.7-3.2-2.3zm-2.3 3.5l-.6.8 3.4 2.2.5-.9-3.3-2.1zm.9 3.9l1 .1.4-4h-1l-.4 3.9zm2.8.4c.7 0 1.3.2 2 .3l.7-4a64 64 0 00-2-.3l-.7 4zm3.8.7l2 .4.9-3.9-2-.4-.9 3.9zm3.8 1l1.8.5 1.2-3.8-2-.6-1 3.8zm3.6 1l1.9.8 1.4-3.8-2-.7-1.3 3.8zm3.7 1.5l1.7.7 1.7-3.6-2-.8-1.4 3.7zm3.5 1.5l1.7.9 1.8-3.6-1.8-.9-1.7 3.6zm3.4 1.8l1.7 1 2-3.5-1.7-1-2 3.5zm3.4 2l1.6 1 2.2-3.4-1.7-1-2.1 3.3zm3.3 2l1.6 1.2 2.3-3.3-1.7-1.2-2.2 3.3zm3.1 2.3l1.6 1.2 2.4-3.2-1.6-1.2-2.4 3.2zm3 2.4l1.5 1.3 2.7-3-1.6-1.4-2.5 3.1zm3 2.6l1.4 1.3 2.8-2.9-1.5-1.4-2.7 3zm2.8 2.6l1.3 1.4 3-2.7-1.5-1.5-2.8 2.8zm2.7 2.9l1.2 1.4 3-2.6-1.3-1.5-3 2.7zm2.5 2.9l1.2 1.5 3.2-2.4-1.3-1.6-3.1 2.5zm2.4 3l1 1.6 3.4-2.2-1.2-1.7-3.2 2.4zm2.2 3.2l1 1.7 3.4-2.1-1-1.7-3.4 2.1zm2 3.3l.5.9 3.5-2-.5-.9-3.5 2zm2.4 1.9c.3 0 .6 0 .9-.2l-.9-3.9-.4.1.4 4zm2.6-.8l.6-.3-2-3.5-.4.3 1.8 3.5zm.6-.3l1-.5-1.6-3.7-1.3.7 2 3.5zm3-1h1v-4H146l.3 4zm1 0h.2v-4h-.2v4zm.4 0h.1l.2-4h-.2v4zm2.2-2v-1h-4v1h4zm0-3v-2h-4v2h4zm0-4.1v-2h-4v2h4zm0-4v-2.1h-4v2h4zm0-4.2v-2h-4v2h4zm0-4v-2h-4v2h4zm0-4.1v-2h-4v2h4zm0-4.1v-2h-4v2h4zm0-4v-2.1h-4v2h4zm0-4.2v-2h-4v2h4zm0-4v-2h-4v2h4zm0-4.1v-2h-4v2h4zm0-4.1v-2h-4v2h4zm0-4v-2.1h-4v2h4zm0-4.2v-2h-4v2h4zm0-4v-2h-4v2h4zm0-4.1v-2h-4v2h4zm0-4.1v-2h-4v2h4zm0-4v-1h-4v1h4zm-2-3.1h-.1v4l.1-4zm-.4 0h-.2v4h.2v-4z" mask="url(#c)"/>
</svg>