<svg viewBox="0 0 74 67" fill="none" xmlns="http://www.w3.org/2000/svg">
  <g>
    <path d="M67.6 63.5V68H6c-.9-1.5-1.6-4.5-2.6-7.5-.5-1.5-3-8.5-2-14v-1L6.2 43c-1.2-.5-3.7-3.7-4.5-12.5C.8 21.7 4.2 19.2 6 19c.8-1.5 2.9-5.4 4.5-9 2-4.5 12-7.5 17-9S52 5 58 10s9.5 11 9.5 14.5S69.6 37 71 38c1.2.8.5 8.3 0 12 .1 1.7.4 5.7 0 8.5a7 7 0 01-3.5 5z" fill="#C4C4C4"/>
    <path d="M50 9s-8-1.5-12.5-1-7.4 1-10.9 6.5-2.5 11.5-3.5 15c-.8 2.8 2.7 10.2 4.5 13.5 1.2 1.4 4.2 4.1 7 4.5 2.8.4 5.5 6.9 6.5 10 1.4 4.5 2.5 11 2.9 10.5.4-.4 15.8.7 22.6 0l1-5 .9-6.5 1.6-4.5-2.5-11.5-2.6-14s-2-8.4-6-12C55 11 50 9 50 9z" fill="#DDD"/>
    <path d="M12 34.5s1.5-6.5 3.5-8.3c-3.2-1.5-13-2.7-13-2.7s-1.2 10 0 13.2L6 44.2c-1.2 0-3.9.4-5.5 2-2 2 2.5 9 2 12.5-.4 2.8 2.2 7.5 3.5 9.3h6c-1.2-3-1.3-4.9-1-8 1 4.1 1 5.5 2.5 8H25a15 15 0 00-3.5-4.8c-1.6-1.2-2-5.8-2-8v-5.5l-6-5.5c.7-2.3-1.5-9.7-1.5-9.7z" fill="#888"/>
    <path d="M26 49h-9l-1 5.5 4 4.5c.8-1 2.9-3.2 4.5-4 1.6-.8 6-1.5 8-1.5s8 5.5 8 5.5l.5-4-6.5-6.5-8.5.5z" fill="#888"/>
    <path d="M49 46.5c-1 1-1 4-1 4l9-1.5 5.5 1.5 6 4v-4l-1.5-4-7.5-5.5S50 45.5 49 46.5z" fill="#888"/>
    <path d="M58 55c-2.8 1.2-5.2-.5-6-1.5 0 1.3.8 4.3 4 5.5 3.2 1.2 5.7 1.8 6.5 2v-6l2.5-5a26.6 26.6 0 01-7 5z" fill="#C4C4C4"/>
    <path d="M59 49.6c1.7-.4 3.4 1 4 1.9-1 .5-3.7 1.6-6 2a4 4 0 01-4-2c1.2-.5 4-1.6 6-2z" fill="#fff"/>
    <path d="M32.5 56.5c2-.4 2.5-1.5 2.5-2-.7-.2-2.3-.5-3.5-.5h-3l-.5 3c.7 0 2.5-.1 4.5-.5z" fill="#fff"/>
    <path d="M55.5 67.5l-4.5-2c.3.2 1.1.6 1.5 1l1 1h2z" fill="#888"/>
    <path d="M44 66l-1.5-3.5-.5-1c0 1.3-.1 4.2-.5 5-.4.8-1.8 1-2.5 1h5V66z" fill="#888"/>
    <path d="M31 59.5l3-2v.5c-.8.8-3 2.5-5 2.5s-4.2-1-5-1.5a30 30 0 004.5 3.5c.4 0 5.5-2 8-3V61c-1.8.8-6.1 2.5-8.5 2.5-2.4 0-4.7-3.7-5.5-5.5h2c.8.5 2.8 1.5 4 1.5H31z" fill="#888"/>
    <path d="M57.5 60.5c-2.8.4-5.5-2.8-6.5-4.5v-1l1.5-1.5-.5 1 .5 1L58 55l.8.2.2-.2 1.5.5-1.7-.3-.8.8-.5-.5-1.5 1v-1l-1 .5v-.5h-1.5l-1 1c.8.7 2.7 2.1 3.5 2.5.8.4 4-.2 5.5-.5-.2.5-1.2 1.6-4 2z" fill="#888"/>
    <path d="M59.5 50c1.6 0 2.7 1 3 1.5 0 0-.5-2-4-2.5s-4 .5-4 .5L51 49c.5-.7 2.7-2.2 7.5-3 4.8-.8 6 .3 6 1l3.5-2-4.5-1.5 2-1-4-1.5-7 2.5c-1.5 1-4.7 3.2-5.5 4-.8.8-.3 3 0 4l2 3.5 1-1.5v-2c.7-.5 1.9-1.2 1.5 0-.5 1.5 1 2 3 2 1.6 0 2-1.3 2-2-3 1-2-1.5 1-1.5z" fill="#000"/>
    <path d="M58 54.5c-2 .5-3.7 0-4.5 0l2 1 5.5-1c0-2.7.9-2 1-1 .5 4-.3 7.7-1 8 .7-.3 2-1.6 2-4v-5l2.5-2L61 50l1 1-.5 1.5c-.8.7-1.5 1.5-3.5 2z" fill="#000"/>
    <path d="M18 51.5l2-3 4-2c4 0 12.2.2 13 1l3 3 2 6-.5 4v3l-3-4.8c-.3.8-1.1 1.7-3 2.8L38 58l.4.7c.2-.8 0-1.5-.4-2.2-1-2-3.5-3-4-3-.3 0 1.2-.5 2.5-.1-1-.5-2.2-.9-2.5-.9h-4l-5 2-.5 2 3 1.5c.8.4 3 .2 4 0-.8.3-3 .8-5 0s-2.8-1.3-3-1.5h-1l1-1.5c.7-.8 2.8-2.6 6-3a16 16 0 017.7 1.7c.4.2.6.4.8.8l2 3.5a37 37 0 00-2-6.5c-.8-1.6-6.3-2-9-2l-6.5 2-2.5 2-2-2z" fill="#000"/>
    <path d="M27 54.5c-.8.4-1.3 1.2-1.5 1.5 1.3 1 3.5 1.5 3.5 1.5s0-.5-1.5-1L26 56l1.5-1c.7 2.3 2.2 2 3 2 1.5 0 1.3-1.7 1.5-2.5l-.5.5s-.5.5-1 0 0-1 0-1h2c1 .3 2.9.9 2.5.5-.5-.5-3-1-4-1s-3 .5-4 1z" fill="#000"/>
    <path d="M12.3 42.7L9.4 45l9.5-2c-.3.2-1.4.6-3 1s-1.7 1.2-1.5 1.5l5-2-4.8 3.2 5.8-1.7-1 1.5L21 46l-3.5 1.5 2-2-4 1.5-4 1.5 4.1-2.7c-1 .6-2.1 1.2-2.6 1.2l-1.7.2a25 25 0 010 0c.3 0 .6-.2 1-.5 1-.6 1.9-1.7 2.2-2.2l-6 1 4-4-2 1 1.8-1.5-3.8 1.7 4-4.2a9 9 0 01-2 1.5c-.8.4-2 .2-2.5 0l-2.5.5c.2-.3.8-1 2-1h3l1-2.5-1 1-3-.5-3 .5 4-2-4 1 6-3-6 2L9 33l-6 2 5.5-3L3 33l5.3-1.5H8a24 24 0 01-4-1 83.8 83.8 0 00.5 0c1.2 0 4.2-.7 5.5-1H6c-.8 0-2.7-1-3.5-1.5.7.2 2.2.5 3 .5.5 0 2-.4 3.4-.8-.4 0-.9 0-1.4-.2-2.2-.6-3-2.6-3-3.5l2 .5-2-2 3 1.5a136 136 0 005.4 1c-1 .2-2.5.9-3.9.5-1.6-.4-1.7.5-1.5 1 .2.3 1.2.8 4 0s1.8.3 1 1L8 29h4.3l-4.8 2 4-.5L8 33l3.5-1L9 34l3.5-1-3 2.5 3-1L8 37l2.5.5 2-2-1 3.5 2-1.5-1.3 3L14 39l-1.8 2.5 2.8-1-2.8 2.2z" fill="#000"/>
    <path fill-rule="evenodd" clip-rule="evenodd" d="M6 43c2.3 2.5 2.5 3.5 6 6 .8.4 4 3.2 4.5 3.5l9-1.5h11c1.3.5 4.4 1.5 6 1.5 1.6 0 3.7-1 4.5-1.5.2-.8 3.5-2.8 6.5-3L70 46.5V43l-1-6.5h1c1 3.5 2.8 10.9 2 12.5a35.4 35.4 0 01-2 3.5c-.4.7-.6 1.5-.8 2.5a7.7 7.7 0 01-1.2 3.5c-1 3-6.5 6-10 6s-7-1-8.5-3.5a20 20 0 01-1.1-2.3c-.9-2-1.6-3.7-3.4-3.7-2 0-3.2 3.3-3.5 5-.3 1.7-1.4 5.2-3 6A28 28 0 0127 69c-3-.5-5.5-3-6-4.5l-2.5-7S15.5 56 14 55s-3.5-2.5-5-4.5l-3-4c-1-1.5-1-1-1-1L6 43zm61.5 7.5c-3-3-15.5 0-17 2S49 59 52 61s6.5 3 11 .5c3.6-2 4-4.5 4.5-6.5v-4.5zm-46.2 7.3c-.1.8 0 2.2.2 3.2.2.2 1.2 3.1 1.5 3.5 1.6 1.8 3 2.5 4.5 2.5.7-.3 3.1 0 4.2-.4 3-1 7-2.1 7.3-3.6.1-.6.4-1.3.8-2 .8-1.9 1.8-4.6.7-6-1.5-2-2-2-5-2.5-2.5 0-8-.5-10 0-1.6.8-3.3 2.3-4 3l-.2 2.3z" fill="#000"/>
    <path d="M9.5 54c0 1.2-1 3.5-1.5 4.5l1 2.4c1.3 1.1 1.9 3.7 2 5.1l-1.5-3.5-.6-1.6-.9-.4c-2.5-.5-3.5 0-3-2 .4-1.6 1.2-3.7 1.5-4.5-.7.2-2.1.7-2.5 1.5-.4.8.5-3.3 1-5.5l3 2.5L9.5 54z" fill="#000"/>
    <path d="M4.5 45.5l4 5.5-5-5c-.4-.4-1.8-.2-2.5 0 .2-.2.7-.6 1.5-1l2 .5z" fill="#000"/>
    <path d="M2 47c.4 0 1.2 1 1.5 1.5-.2.8-.5 2.8-.5 4 0 1.5 1 6 1 8 0 1.6 1 2.3 1.5 2.5l-1 .5c-.3-.3-1-1.1-1-1.5 0-.5-1-3.5-.5-5.5.4-1.6-.5-4.3-1-5.5l-1-3.5c.2-.2.6-.5 1-.5z" fill="#000"/>
    <path d="M68 42c.5-1.3 1.2-4.3 0-5.5a22.4 22.4 0 00-3-2.5c.7.2 2.1.6 2.5 1 .4.4.2-1-.3-2a20.8 20.8 0 01-.7-1 59.6 59.6 0 01-1.5-2.5 9 9 0 012.8 1.7L65 26.5l2.6 2.8L65 25l2 1.5-1.5-3-2-1H65L63 21l.5-.5L61 19l1-.5-2-1 3.5 1-1 .5 2 1.5-.5.5 2.5 1.5-1 .5 2.5 3.5-1.5.5 2.5 3.5h-1l.5 2-2-1.5 2.5 3h-1l.5 1.5c.5 1.2 1.4 3.7 1 4.5-.4.8-1.2 1.7-1.5 2z" fill="#000"/>
    <path d="M44.5 7c-.8-1.2-3-3.5-4-4.5l-1.5-1v2l-2-2 .5 2L35 1v1.5l-2-2 .5 4-2-4 1 4.5-3-4.5 2.5 5L28 1l2 4.5L26.5 1l.5 3-2-1.5 2.5 4-5-3.5 3 4.5-4-3.5 1 3-3-2 3 3.5-5-2.5 4 4.5L16 7l4.5 4.5-5-3 2 1.5L14 9l3 3-4-1.5 2.5 2-4-1 2 2-3-1 4 2.5-5-1 4.5 2.5L8.5 15l5.5 3-6.5-1.5 6 2.5-7-1 5.5 2.5L6 19l4 2.5-4.5-1 2 1h-3l1.5 1 7.5 2L9 23h7l-4.5-1.5 4.5.5-2.5-2 3.5.5-3-2 4 .5-3.5-1.5h4l-4.5-2 6 1-5-3 5.5 1.5-3.5-2 5 1.5-4-3.5 4.5 2.5L22 12l2.5 2-2-4 4 3.5-2.5-4 3.5 2.5-4-5c1.7 1.5 4.9 4.3 4.5 3.5A65 65 0 0126.5 7l3.5 4.5L28.5 7l4 6a5 5 0 01-.5-2c0-.8-1.3-3-2-4l3 3c.8.8 2 3.7 2.5 5a20.5 20.5 0 00-4-8.5c.7.5 2.3 1.9 3.5 3.5 1.2 1.6 2.5 5 3 6.5-.2-1-.6-3.2-1-4L33.5 6c.8 1 2.7 3.3 3.5 4.5.8 1.2 2.7 5.5 3.5 7.5-.8-2.3-2.5-7.1-2.5-7.5 0-.4-2.3-4.2-3.5-6a77 77 0 004 5c.8.8 2.7 6 3.5 8.5-.5-2-1.6-6.2-2-7l-4-7c1.3 1.5 4.2 4.9 5 6.5l3.5 7.5c-.5-2-1.7-6.3-2.5-7.5-.8-1.2-2-4.2-2.5-5.5.5.3 1.9 1.8 3.5 5s2.3 4.3 2.5 4.5l-3.5-9 3.5 4.5a6 6 0 00-1-3z" fill="#000"/>
    <path d="M45.5 4l-3-1v.5l1 1 2 2L48 12l-1-5.5 1.5 3.5 1-2.5.5 4L51.5 9v3L53 9.5v2l2.5-1.5-.5 2 2.5-1-.5 2 2-1-1.5 2 2-1 2 1.5 2 1.5h-1l2 1-2 .5L66 19h-1.5l2 1h-2l1.5 1 2 2h-1.5l1.5 2 1 4-.5-5a93 93 0 01-2.5-7 16 16 0 00-3.5-3l-5-4.5-.5.5-3-2.5v1l-2.5-2v1L49 5l-.5 1L47 4h-1.5z" fill="#000"/>
    <path d="M19.5 3.5C28-1 34.5 1 34.5 1c-2 .5-6.6.6-9.5 1-3.5.5-10 3.5-13.5 9.5s-9 10.2-8.5 22c.2 4 2 6.5 4.5 11l-6 .5L5 42.5c-1.2-2-2-4.5-3.5-9a32 32 0 01.5-11C2.5 21 6.5 18 6.5 18L11 9s0-1 8.5-5.5z" fill="#000"/>
  </g>

</svg>