<svg viewBox="0 0 690 200" fill="none" xmlns="http://www.w3.org/2000/svg">
  <rect width="690" height="200" fill="#fff"/>
  <path d="M73.8 188.2c.3 0 .5-.1.7-.3l.3-.6H76c0 .3 0 .6-.3.9a2 2 0 01-.7.6c-.4.2-.7.3-1.1.3-.7 0-1.3-.2-1.8-.7-.4-.5-.6-1.2-.6-2v-.1c0-.8.2-1.5.6-2 .5-.4 1-.7 1.8-.7.6 0 1.1.2 1.5.6.4.3.6.8.6 1.4h-1a1 1 0 00-.4-.7 1 1 0 00-.7-.3 1 1 0 00-1 .4l-.2 1.3v.1c0 .6 0 1 .3 1.3.2.3.5.5.9.5zm5 .8h-1.2v-5.3h1.2v5.3zm-1.3-6.7l.2-.4.5-.2c.2 0 .4 0 .5.2l.2.4c0 .2 0 .4-.2.5l-.5.2c-.2 0-.4 0-.5-.2a.6.6 0 01-.2-.5zm6 2.5a3 3 0 00-.4 0c-.6 0-1 .2-1.1.6v3.6h-1.2v-5.3h1.1v.6c.3-.5.7-.7 1.3-.7h.4v1.2zm3.6 3.3c.3 0 .5 0 .7-.2l.3-.6h1.2c0 .3-.2.6-.4.9a2 2 0 01-.7.6c-.4.2-.7.3-1.1.3-.7 0-1.3-.2-1.8-.7-.4-.5-.6-1.2-.6-2v-.1c0-.8.2-1.5.6-2 .5-.4 1-.7 1.8-.7.6 0 1.1.2 1.5.6.4.3.6.8.7 1.4H88a1 1 0 00-.3-.7 1 1 0 00-.7-.3 1 1 0 00-.9.4c-.2.3-.3.7-.3 1.3v.1c0 .6 0 1 .3 1.3.2.3.5.5.9.5zm5 .9H91v-7.5h1.2v7.5zm4.3.1c-.7 0-1.3-.2-1.8-.7-.5-.5-.7-1.1-.7-2 0-.6.1-1 .3-1.5.2-.4.5-.7.9-1 .3-.2.7-.3 1.2-.3a2 2 0 011.7.7c.4.5.6 1.1.6 2v.4H95a1.3 1.3 0 001.4 1.4c.6 0 1-.2 1.3-.6l.7.6c-.2.3-.5.6-.9.7-.3.2-.7.3-1.2.3zm-.1-4.5a1 1 0 00-.8.3c-.2.2-.3.6-.4 1h2.3v-.1c0-.4-.1-.7-.3-1a1 1 0 00-.8-.2zm3.9 1.5c0-.7.1-1.5.3-2.1.2-.7.5-1.3.9-1.8.4-.6.8-1 1.2-1.2l.3.7c-.5.4-.9 1-1.2 1.6-.2.7-.4 1.6-.4 2.5v.4c0 1 .1 1.9.4 2.6a4 4 0 001.2 1.8l-.3.7c-.4-.3-.8-.6-1.2-1.2a6 6 0 01-.9-1.8c-.2-.6-.3-1.4-.3-2.2zm4.4-.6l.4-3.6h3.8v1H106l-.2 1.7c.3-.2.7-.3 1.1-.3a2 2 0 011.6.7c.4.4.5 1 .5 1.7 0 .8-.2 1.3-.6 1.8-.4.4-1 .6-1.7.6-.6 0-1.2-.2-1.6-.6a2 2 0 01-.7-1.4h1.1c0 .3.2.6.4.8.2.2.5.3.8.3.4 0 .6-.2.8-.4.3-.3.4-.7.4-1.1 0-.4-.2-.8-.4-1-.2-.3-.5-.4-1-.4h-.5l-.4.4-1-.2zm10.7.5c0 1-.2 1.8-.6 2.3-.3.5-1 .8-1.7.8-.8 0-1.4-.3-1.7-.8-.4-.5-.6-1.2-.6-2.2v-1.2c0-1 .1-1.8.5-2.3.4-.6 1-.8 1.8-.8s1.3.2 1.7.7c.4.5.6 1.3.6 2.3v1.2zm-1.2-1.3a3 3 0 00-.2-1.5c-.2-.3-.5-.5-1-.5-.3 0-.6.2-.8.5-.2.3-.3.7-.3 1.4v1.6c0 .6.1 1.1.3 1.5.2.3.5.5.9.5s.7-.2.8-.5c.2-.3.3-.8.3-1.4v-1.6zm3-1.4a1.4 1.4 0 011.4-1.5c.5 0 .8.1 1.1.4.3.3.4.6.4 1v.4c0 .5-.1.8-.4 1-.3.4-.6.5-1 .5-.5 0-.9-.1-1.2-.4-.2-.3-.4-.6-.4-1.1v-.3zm.7.3l.2.6.5.2c.2 0 .4 0 .5-.2l.2-.6v-.3c0-.3 0-.4-.2-.6a.6.6 0 00-.5-.2c-.2 0-.4 0-.5.2l-.2.6v.3zm2.6 3.7c0-.5.2-.8.5-1.1.2-.3.6-.4 1-.4.5 0 .8.1 1.1.4.3.3.4.6.4 1v.4c0 .5 0 .8-.4 1-.2.4-.6.5-1 .5-.5 0-.9-.1-1.2-.4-.2-.3-.4-.6-.4-1v-.4zm.9.3c0 .3 0 .4.2.6l.4.2c.3 0 .4 0 .5-.2.2-.1.2-.3.2-.6v-.3c0-.3 0-.5-.2-.6a.6.6 0 00-.5-.2c-.2 0-.3 0-.5.2l-.1.6v.3zm-2.5.9l-.6-.4 3.4-5.5.6.3-3.4 5.6zm8.7-2.3c0 .7-.1 1.4-.3 2a6 6 0 01-1 2c-.3.5-.8.8-1.2 1l-.2-.6c.5-.4.8-1 1.1-1.7.3-.8.5-1.7.5-2.7v-.1c0-1-.2-1.7-.4-2.5-.3-.7-.6-1.3-1-1.8l-.2-.1.2-.7c.4.2.8.6 1.2 1.1l1 1.7.3 2v.4z" fill="#000"/>
  <path d="M318.8 188.2c.3 0 .5-.1.7-.3l.3-.6h1.1c0 .3 0 .6-.3.9a2 2 0 01-.7.6c-.4.2-.7.3-1.1.3-.7 0-1.3-.2-1.8-.7-.4-.5-.6-1.2-.6-2v-.1c0-.8.2-1.5.6-2 .5-.4 1-.7 1.8-.7.6 0 1.1.2 1.5.6.4.3.6.8.6 1.4h-1a1 1 0 00-.4-.7 1 1 0 00-.7-.3 1 1 0 00-1 .4l-.2 1.3v.1c0 .6 0 1 .3 1.3.2.3.5.5.9.5zm5 .8h-1.2v-5.3h1.2v5.3zm-1.3-6.7l.2-.4.5-.2c.2 0 .4 0 .5.2l.2.4c0 .2 0 .4-.2.5l-.5.2c-.2 0-.4 0-.5-.2a.6.6 0 01-.2-.5zm6 2.5a3 3 0 00-.4 0c-.6 0-1 .2-1.1.6v3.6h-1.2v-5.3h1.1v.6c.3-.5.7-.7 1.3-.7h.4v1.2zm3.6 3.3c.3 0 .5 0 .7-.2l.3-.6h1.2c0 .3-.2.6-.4.9a2 2 0 01-.7.6c-.4.2-.7.3-1.1.3-.7 0-1.3-.2-1.8-.7-.4-.5-.6-1.2-.6-2v-.1c0-.8.2-1.5.6-2 .5-.4 1-.7 1.8-.7.6 0 1.1.2 1.5.6.4.3.6.8.7 1.4H333a1 1 0 00-.3-.7 1 1 0 00-.7-.3 1 1 0 00-.9.4c-.2.3-.3.7-.3 1.3v.1c0 .6 0 1 .3 1.3.2.3.5.5.9.5zm5 .9H336v-7.5h1.2v7.5zm4.3.1c-.7 0-1.3-.2-1.8-.7-.5-.5-.7-1.1-.7-2 0-.6.1-1 .3-1.5.2-.4.5-.7.9-1 .3-.2.7-.3 1.2-.3a2 2 0 011.7.7c.4.5.6 1.1.6 2v.4H340c0 .5.2.8.4 1 .3.3.6.5 1 .5.6 0 1-.3 1.3-.7l.7.6c-.2.3-.5.6-.9.7-.3.2-.7.3-1.2.3zm-.1-4.5a1 1 0 00-.8.3c-.2.2-.3.6-.4 1h2.3v-.1c0-.4-.1-.7-.3-1a1 1 0 00-.8-.2zm3.9 1.5c0-.7.1-1.5.3-2.1.2-.7.5-1.3.9-1.8.4-.6.8-1 1.2-1.2l.3.7c-.5.4-.9 1-1.2 1.6-.2.7-.4 1.6-.4 2.5v.4c0 1 .1 1.9.4 2.6a4 4 0 001.2 1.8l-.3.7c-.4-.3-.8-.6-1.2-1.2a6 6 0 01-.9-1.8c-.2-.6-.3-1.4-.3-2.2zm7.8-4.2v1h-.2c-.6 0-1.2.1-1.6.5-.3.3-.6.8-.7 1.5a2 2 0 011.5-.6c.6 0 1.1.2 1.5.7.3.4.5 1 .5 1.7s-.2 1.3-.6 1.7c-.4.5-1 .7-1.7.7s-1.3-.3-1.7-.8c-.4-.5-.7-1.2-.7-2v-.5c0-1.2.3-2.2 1-2.9.6-.7 1.4-1 2.6-1zm-1.3 3.3c-.3 0-.5.1-.7.3-.2.1-.4.3-.5.6v.3c0 .5.1 1 .4 1.3.2.3.5.4.8.4.4 0 .6 0 .8-.4.3-.2.4-.6.4-1s-.2-.8-.4-1a1 1 0 00-.8-.4zm4.3.3l.4-3.6h3.8v1h-2.8l-.2 1.7c.3-.2.7-.3 1-.3a2 2 0 011.7.7c.3.4.5 1 .5 1.7 0 .8-.2 1.3-.6 1.8-.4.4-1 .6-1.7.6s-1.2-.2-1.6-.6a2 2 0 01-.7-1.4h1.1c0 .3.2.6.4.8.2.2.5.3.8.3.3 0 .6-.2.8-.4.2-.3.3-.7.3-1.1 0-.4 0-.8-.3-1-.2-.3-.5-.4-1-.4h-.5l-.5.4-.9-.2zm6-2.2a1.4 1.4 0 011.5-1.5c.5 0 .8.1 1.1.4.3.3.4.6.4 1v.4c0 .5-.1.8-.4 1-.3.4-.6.5-1 .5-.5 0-.9-.1-1.2-.4-.2-.3-.4-.6-.4-1.1v-.3zm.8.3l.2.6.5.2c.2 0 .4 0 .5-.2l.2-.6v-.3c0-.3 0-.4-.2-.6a.6.6 0 00-.5-.2c-.2 0-.4 0-.5.2l-.2.6v.3zm2.6 3.7c0-.5.2-.8.5-1.1.2-.3.6-.4 1-.4.5 0 .8.1 1.1.4.3.3.4.6.4 1v.4c0 .5 0 .8-.4 1-.2.4-.6.5-1 .5-.5 0-.9-.1-1.2-.4-.2-.3-.4-.6-.4-1v-.4zm.9.3l.1.6.5.2c.3 0 .4 0 .5-.2.2-.1.2-.3.2-.6v-.3c0-.3 0-.5-.2-.6a.6.6 0 00-.5-.2c-.2 0-.3 0-.5.2l-.1.6v.3zm-2.5.9l-.6-.4 3.4-5.5.6.3-3.4 5.6zm8.7-2.3c0 .7-.1 1.4-.3 2a6 6 0 01-1 2c-.3.5-.8.8-1.2 1l-.2-.6c.5-.4.8-1 1.1-1.7.3-.8.5-1.7.5-2.7v-.1c0-1-.2-1.7-.4-2.5-.3-.7-.6-1.3-1-1.8l-.2-.1.2-.7c.4.2.8.6 1.2 1.1l1 1.7.3 2v.4z" fill="#000"/>
  <path d="M563.8 188.2c.3 0 .5-.1.7-.3l.3-.6h1.1c0 .3 0 .6-.3.9a2 2 0 01-.7.6c-.4.2-.7.3-1.1.3-.7 0-1.3-.2-1.8-.7-.4-.5-.6-1.2-.6-2v-.1c0-.8.2-1.5.6-2 .5-.4 1-.7 1.8-.7.6 0 1.1.2 1.5.6.4.3.6.8.6 1.4h-1a1 1 0 00-.4-.7 1 1 0 00-.7-.3 1 1 0 00-1 .4l-.2 1.3v.1c0 .6 0 1 .3 1.3.2.3.5.5.9.5zm5 .8h-1.2v-5.3h1.2v5.3zm-1.3-6.7l.2-.4.5-.2c.2 0 .4 0 .5.2l.2.4c0 .2 0 .4-.2.5l-.5.2c-.2 0-.4 0-.5-.2a.6.6 0 01-.2-.5zm6 2.5a3 3 0 00-.4 0c-.6 0-1 .2-1.1.6v3.6h-1.2v-5.3h1.1v.6c.3-.5.7-.7 1.3-.7h.4v1.2zm3.6 3.3c.3 0 .5 0 .7-.2l.3-.6h1.2l-.3.9a2 2 0 01-.8.6c-.4.2-.7.3-1.1.3-.7 0-1.3-.2-1.8-.7-.4-.5-.6-1.2-.6-2v-.1c0-.8.2-1.5.6-2 .5-.4 1-.7 1.8-.7.6 0 1.1.2 1.5.6.4.3.6.8.7 1.4H578a1 1 0 00-.3-.7 1 1 0 00-.7-.3 1 1 0 00-.9.4c-.2.3-.3.7-.3 1.3v.1c0 .6 0 1 .3 1.3.2.3.5.5.9.5zm5 .9H581v-7.5h1.2v7.5zm4.3.1c-.7 0-1.3-.2-1.8-.7-.5-.5-.7-1.1-.7-2 0-.6.1-1 .3-1.5.2-.4.5-.7.9-1 .3-.2.7-.3 1.2-.3a2 2 0 011.7.7c.4.5.6 1.1.6 2v.4H585c0 .5.2.8.4 1 .3.3.6.5 1 .5.5 0 1-.3 1.3-.7l.7.6c-.2.3-.5.6-.9.7-.3.2-.7.3-1.2.3zm-.1-4.5a1 1 0 00-.8.3c-.2.2-.3.6-.4 1h2.3v-.1c0-.4-.1-.7-.3-1a1 1 0 00-.8-.2zm3.9 1.5c0-.7.1-1.5.3-2.1.2-.7.5-1.3.9-1.8.4-.6.8-1 1.2-1.2l.3.7c-.5.4-.9 1-1.2 1.6-.2.7-.4 1.6-.4 2.5v.4c0 1 .1 1.9.4 2.6a4 4 0 001.2 1.8l-.3.7c-.4-.3-.8-.6-1.2-1.2a6 6 0 01-.9-1.8c-.2-.6-.3-1.4-.3-2.2zm8.1.4h.9v1h-.9v1.5h-1.2v-1.6h-3v-.7l3-4.8h1.2v4.6zm-3 0h1.8v-3 .2l-1.8 2.8zm10-.5c0 1-.2 1.8-.6 2.3-.3.5-1 .8-1.7.8-.8 0-1.4-.3-1.7-.8-.4-.5-.6-1.2-.6-2.2v-1.2c0-1 .1-1.8.5-2.3.4-.6 1-.8 1.8-.8s1.3.2 1.7.7c.4.5.6 1.3.6 2.3v1.2zm-1.2-1.3a3 3 0 00-.2-1.5c-.2-.3-.5-.5-1-.5-.3 0-.6.2-.8.5-.2.3-.3.7-.3 1.4v1.6c0 .6.1 1.1.3 1.5.2.3.5.5.9.5s.7-.2.8-.5c.2-.3.3-.8.3-1.4v-1.6zm3-1.4a1.4 1.4 0 011.4-1.5c.5 0 .8.1 1.1.4.3.3.4.6.4 1v.4c0 .5-.1.8-.4 1-.3.4-.6.5-1 .5-.5 0-.9-.1-1.2-.4-.2-.3-.4-.6-.4-1.1v-.3zm.7.3l.2.6.5.2c.2 0 .4 0 .5-.2l.2-.6v-.3c0-.3 0-.4-.2-.6a.6.6 0 00-.5-.2c-.2 0-.4 0-.5.2l-.2.6v.3zm2.6 3.7c0-.5.2-.8.5-1.1.2-.3.6-.4 1-.4.5 0 .8.1 1.1.4.3.3.4.6.4 1v.4c0 .5 0 .8-.4 1-.2.4-.6.5-1 .5-.5 0-.9-.1-1.2-.4-.2-.3-.4-.6-.4-1v-.4zm.9.3c0 .3 0 .4.2.6l.4.2c.3 0 .4 0 .5-.2.2-.1.2-.3.2-.6v-.3c0-.3 0-.5-.2-.6a.6.6 0 00-.5-.2c-.2 0-.3 0-.5.2l-.1.6v.3zm-2.5.9l-.6-.4 3.4-5.5.6.3-3.4 5.6zm8.7-2.3c0 .7-.1 1.4-.3 2a6 6 0 01-1 2c-.3.5-.8.8-1.2 1l-.2-.6c.5-.4.8-1 1.1-1.7.3-.8.5-1.7.5-2.7v-.1c0-1-.2-1.7-.4-2.5-.3-.7-.6-1.3-1-1.8l-.2-.1.2-.7c.4.2.8.6 1.2 1.1l1 1.7.3 2v.4z" fill="#000"/>
  <rect x="29" y="16" width="155" height="157.1" fill="#000"/>
  <circle cx="106.4" cy="94.5" r="67.1" fill="url(#paint0_radial)"/>
  <circle cx="106.4" cy="94.5" r="67.1" fill="url(#paint1_radial)" fill-opacity=".5"/>
  <g style="mix-blend-mode:lighten">
    <circle cx="106.4" cy="94.5" r="67.1" fill="url(#paint2_radial)"/>
  </g>
  <ellipse cx="128.3" cy="94.5" rx="42.9" ry="14.7" transform="rotate(13.4 128.3 94.5)" fill="url(#paint3_radial)"/>
  <rect x="268" y="16" width="155" height="157.1" fill="#000"/>
  <circle cx="345.4" cy="94.5" r="67.1" fill="url(#paint4_radial)"/>
  <circle cx="345.4" cy="94.5" r="67.1" fill="url(#paint5_radial)" fill-opacity=".5"/>
  <g style="mix-blend-mode:lighten">
    <circle cx="345.4" cy="94.5" r="67.1" fill="url(#paint6_radial)"/>
  </g>
  <ellipse cx="367.3" cy="94.5" rx="42.9" ry="14.7" transform="rotate(13.4 367.3 94.5)" fill="url(#paint7_radial)"/>
  <rect x="507" y="16" width="155" height="157.1" fill="#000"/>
  <circle cx="584.4" cy="94.5" r="67.1" fill="url(#paint8_radial)"/>
  <circle cx="584.4" cy="94.5" r="67.1" fill="url(#paint9_radial)" fill-opacity=".5"/>
  <g style="mix-blend-mode:lighten">
    <circle cx="584.4" cy="94.5" r="67.1" fill="url(#paint10_radial)"/>
  </g>
  <ellipse cx="606.3" cy="94.5" rx="42.9" ry="14.7" transform="rotate(13.4 606.3 94.5)" fill="url(#paint11_radial)"/>
  <circle cx="106.5" cy="94.5" r="75.5" stroke="#FF1515" stroke-width="4" stroke-dasharray="4 5"/>
  <circle cx="584" cy="95" r="53" stroke="#FF1515" stroke-width="4" stroke-dasharray="4 5"/>
  <mask id="mask0" mask-type="alpha" maskUnits="userSpaceOnUse" x="268" y="16" width="155" height="158">
    <rect x="268" y="16" width="155" height="157.1" fill="#000"/>
  </mask>
  <g mask="url(#mask0)">
    <circle cx="344" cy="93" r="98" stroke="#FF1515" stroke-width="4" stroke-dasharray="4 5"/>
  </g>
  <rect opacity=".5" x="152" y="20" width="58" height="6" fill="#C4C4C4"/>
  <rect opacity=".5" x="167" y="31" width="43" height="6" fill="#C4C4C4"/>
  <rect opacity=".5" x="174" y="42" width="36" height="6" fill="#C4C4C4"/>
  <rect opacity=".5" x="181" y="53" width="29" height="6" fill="#C4C4C4"/>
  <rect opacity=".5" x="189" y="64" width="21" height="6" fill="#C4C4C4"/>
  <rect opacity=".5" x="189" y="75" width="21" height="6" fill="#C4C4C4"/>
  <rect opacity=".5" x="189" y="86" width="21" height="6" fill="#C4C4C4"/>
  <rect opacity=".5" x="189" y="97" width="21" height="6" fill="#C4C4C4"/>
  <rect opacity=".5" x="189" y="108" width="21" height="6" fill="#C4C4C4"/>
  <rect opacity=".5" x="189" y="119" width="21" height="6" fill="#C4C4C4"/>
  <rect opacity=".5" x="181" y="130" width="29" height="6" fill="#C4C4C4"/>
  <rect opacity=".5" x="174" y="141" width="36" height="6" fill="#C4C4C4"/>
  <rect opacity=".5" x="164" y="152" width="46" height="6" fill="#C4C4C4"/>
  <rect opacity=".5" x="152" y="163" width="58" height="6" fill="#C4C4C4"/>
  <rect opacity=".5" x="418" y="20" width="34" height="6" fill="#C4C4C4"/>
  <rect opacity=".5" x="431" y="31" width="21" height="6" fill="#C4C4C4"/>
  <rect opacity=".5" x="431" y="42" width="21" height="6" fill="#C4C4C4"/>
  <rect opacity=".5" x="431" y="53" width="21" height="6" fill="#C4C4C4"/>
  <rect opacity=".5" x="431" y="64" width="21" height="6" fill="#C4C4C4"/>
  <rect opacity=".5" x="431" y="75" width="21" height="6" fill="#C4C4C4"/>
  <rect opacity=".5" x="431" y="86" width="21" height="6" fill="#C4C4C4"/>
  <rect opacity=".5" x="431" y="97" width="21" height="6" fill="#C4C4C4"/>
  <rect opacity=".5" x="431" y="108" width="21" height="6" fill="#C4C4C4"/>
  <rect opacity=".5" x="431" y="119" width="21" height="6" fill="#C4C4C4"/>
  <rect opacity=".5" x="431" y="130" width="21" height="6" fill="#C4C4C4"/>
  <rect opacity=".5" x="431" y="141" width="21" height="6" fill="#C4C4C4"/>
  <rect opacity=".5" x="431" y="152" width="21" height="6" fill="#C4C4C4"/>
  <rect opacity=".5" x="418" y="163" width="34" height="6" fill="#C4C4C4"/>
  <rect opacity=".5" x="512" y="20" width="169" height="6" fill="#C4C4C4"/>
  <rect opacity=".5" x="512" y="31" width="169" height="6" fill="#C4C4C4"/>
  <rect opacity=".5" x="622" y="42" width="59" height="6" fill="#C4C4C4"/>
  <rect opacity=".5" x="633" y="53" width="48" height="6" fill="#C4C4C4"/>
  <rect opacity=".5" x="641" y="64" width="40" height="6" fill="#C4C4C4"/>
  <rect opacity=".5" x="647" y="75" width="34" height="6" fill="#C4C4C4"/>
  <rect opacity=".5" x="649" y="86" width="32" height="6" fill="#C4C4C4"/>
  <rect opacity=".5" x="649" y="97" width="32" height="6" fill="#C4C4C4"/>
  <rect opacity=".5" x="645" y="108" width="36" height="6" fill="#C4C4C4"/>
  <rect opacity=".5" x="641" y="119" width="40" height="6" fill="#C4C4C4"/>
  <rect opacity=".5" x="635" y="130" width="46" height="6" fill="#C4C4C4"/>
  <rect opacity=".5" x="626" y="141" width="55" height="6" fill="#C4C4C4"/>
  <rect opacity=".5" x="512" y="152" width="169" height="6" fill="#C4C4C4"/>
  <rect opacity=".5" x="512" y="163" width="169" height="6" fill="#C4C4C4"/>
  <defs>
    <radialGradient id="paint0_radial" cx="0" cy="0" r="1" gradientUnits="userSpaceOnUse" gradientTransform="rotate(36.1 -84.4 195.5) scale(74.7327)">
      <stop stop-color="#4367FC"/>
      <stop offset=".9" stop-color="#2B3985"/>
      <stop offset="1"/>
    </radialGradient>
    <radialGradient id="paint1_radial" cx="0" cy="0" r="1" gradientUnits="userSpaceOnUse" gradientTransform="matrix(249.28228 23.07524 -10.56547 114.13904 103 148.2)">
      <stop stop-color="#3144A9"/>
      <stop offset=".1" stop-color="#3442A9"/>
      <stop offset=".1" stop-color="#2F44AD"/>
      <stop offset=".2" stop-color="#324AB6"/>
      <stop offset=".3" stop-color="#446FFD"/>
      <stop offset=".4" stop-color="#4065EB"/>
      <stop offset=".5" stop-color="#4468FD"/>
      <stop offset=".6" stop-color="#3850DF"/>
      <stop offset=".8" stop-color="#3343AF"/>
      <stop offset=".9" stop-color="#3C49CC"/>
      <stop offset=".9" stop-color="#4769FE"/>
      <stop offset="1" stop-color="#3E53D3"/>
    </radialGradient>
    <radialGradient id="paint2_radial" cx="0" cy="0" r="1" gradientUnits="userSpaceOnUse" gradientTransform="matrix(90.20304 29.8346 -20.31345 61.41644 91.2 81.7)">
      <stop offset=".2" stop-color="#4870FC"/>
      <stop offset=".6" stop-color="#2F49A4"/>
      <stop offset="1"/>
    </radialGradient>
    <radialGradient id="paint3_radial" cx="0" cy="0" r="1" gradientUnits="userSpaceOnUse" gradientTransform="matrix(0 14.6842 -42.9468 0 128.3 94.5)">
      <stop stop-color="#1F2557"/>
      <stop offset=".4" stop-color="#27337E" stop-opacity=".7"/>
      <stop offset="1" stop-color="#3750CC" stop-opacity="0"/>
    </radialGradient>
    <radialGradient id="paint4_radial" cx="0" cy="0" r="1" gradientUnits="userSpaceOnUse" gradientTransform="rotate(36.1 35.1 562) scale(74.7327)">
      <stop stop-color="#4367FC"/>
      <stop offset=".9" stop-color="#2B3985"/>
      <stop offset="1"/>
    </radialGradient>
    <radialGradient id="paint5_radial" cx="0" cy="0" r="1" gradientUnits="userSpaceOnUse" gradientTransform="matrix(249.28228 23.07524 -10.56547 114.13904 342 148.2)">
      <stop stop-color="#3144A9"/>
      <stop offset=".1" stop-color="#3442A9"/>
      <stop offset=".1" stop-color="#2F44AD"/>
      <stop offset=".2" stop-color="#324AB6"/>
      <stop offset=".3" stop-color="#446FFD"/>
      <stop offset=".4" stop-color="#4065EB"/>
      <stop offset=".5" stop-color="#4468FD"/>
      <stop offset=".6" stop-color="#3850DF"/>
      <stop offset=".8" stop-color="#3343AF"/>
      <stop offset=".9" stop-color="#3C49CC"/>
      <stop offset=".9" stop-color="#4769FE"/>
      <stop offset="1" stop-color="#3E53D3"/>
    </radialGradient>
    <radialGradient id="paint6_radial" cx="0" cy="0" r="1" gradientUnits="userSpaceOnUse" gradientTransform="matrix(90.20304 29.8346 -20.31345 61.41644 330.2 81.7)">
      <stop offset=".2" stop-color="#4870FC"/>
      <stop offset=".6" stop-color="#2F49A4"/>
      <stop offset="1"/>
    </radialGradient>
    <radialGradient id="paint7_radial" cx="0" cy="0" r="1" gradientUnits="userSpaceOnUse" gradientTransform="matrix(0 14.6842 -42.9468 0 367.3 94.5)">
      <stop stop-color="#1F2557"/>
      <stop offset=".4" stop-color="#27337E" stop-opacity=".7"/>
      <stop offset="1" stop-color="#3750CC" stop-opacity="0"/>
    </radialGradient>
    <radialGradient id="paint8_radial" cx="0" cy="0" r="1" gradientUnits="userSpaceOnUse" gradientTransform="rotate(36.1 154.6 928.5) scale(74.7327)">
      <stop stop-color="#4367FC"/>
      <stop offset=".9" stop-color="#2B3985"/>
      <stop offset="1"/>
    </radialGradient>
    <radialGradient id="paint9_radial" cx="0" cy="0" r="1" gradientUnits="userSpaceOnUse" gradientTransform="matrix(249.28228 23.07524 -10.56547 114.13904 581 148.2)">
      <stop stop-color="#3144A9"/>
      <stop offset=".1" stop-color="#3442A9"/>
      <stop offset=".1" stop-color="#2F44AD"/>
      <stop offset=".2" stop-color="#324AB6"/>
      <stop offset=".3" stop-color="#446FFD"/>
      <stop offset=".4" stop-color="#4065EB"/>
      <stop offset=".5" stop-color="#4468FD"/>
      <stop offset=".6" stop-color="#3850DF"/>
      <stop offset=".8" stop-color="#3343AF"/>
      <stop offset=".9" stop-color="#3C49CC"/>
      <stop offset=".9" stop-color="#4769FE"/>
      <stop offset="1" stop-color="#3E53D3"/>
    </radialGradient>
    <radialGradient id="paint10_radial" cx="0" cy="0" r="1" gradientUnits="userSpaceOnUse" gradientTransform="matrix(90.20304 29.8346 -20.31345 61.41644 569.2 81.7)">
      <stop offset=".2" stop-color="#4870FC"/>
      <stop offset=".6" stop-color="#2F49A4"/>
      <stop offset="1"/>
    </radialGradient>
    <radialGradient id="paint11_radial" cx="0" cy="0" r="1" gradientUnits="userSpaceOnUse" gradientTransform="matrix(0 14.6842 -42.9468 0 606.3 94.5)">
      <stop stop-color="#1F2557"/>
      <stop offset=".4" stop-color="#27337E" stop-opacity=".7"/>
      <stop offset="1" stop-color="#3750CC" stop-opacity="0"/>
    </radialGradient>
  </defs>
</svg>