<svg viewBox="0 0 465 268" fill="none" xmlns="http://www.w3.org/2000/svg">
  <rect width="465" height="268" fill="#fff"/>
  <path d="M48 241c-.1-.8-.6-1.4-1.4-1.8L45 239c-1 0-2 .4-2.6 1.2-.7.8-1 2-1 3.6s.4 2.7 1.1 3.4c.7.6 1.6 1 2.5 1 .9 0 1.6-.3 2.2-.8.6-.6 1-1.2 1-2h-3V243h5.5v7H49l-.3-1.6-1.4 1.3a5 5 0 01-2.6.6c-1.7 0-3.1-.6-4.2-1.7a6.8 6.8 0 01-1.8-5c0-2 .6-3.7 1.8-5a5.9 5.9 0 014.6-1.9 6 6 0 014 1.3c1 .8 1.5 1.8 1.6 3h-2.6zm9 1.2c-.6 0-1 .2-1.4.6-.3.3-.5.8-.6 1.5H59c0-.7-.2-1.2-.6-1.6-.4-.3-.8-.5-1.3-.5zm0-2a5 5 0 012.1.4c.6.3 1.2.8 1.6 1.4.4.6.6 1.3.7 2l.1 1.9h-6.6c0 1 .4 1.6 1 2 .3.3.7.4 1.2.4s1-.2 1.3-.5l.4-.6h2.6c0 .6-.4 1.1-1 1.7-.7 1-1.9 1.4-3.4 1.4-1.2 0-2.2-.4-3.2-1.2-1-.7-1.4-2-1.4-3.8 0-1.7.4-3 1.3-3.8.8-.9 2-1.3 3.3-1.3zm10.5 8a2 2 0 001.7-.7c.4-.6.6-1.3.6-2.3 0-1-.2-1.7-.6-2.2a2 2 0 00-1.7-.8 2 2 0 00-1.7.8c-.4.5-.6 1.3-.6 2.2 0 1 .2 1.7.6 2.3.4.5 1 .7 1.7.7zm4.9-3c0 1.4-.4 2.6-1.2 3.6-.8 1-2 1.5-3.7 1.5-1.6 0-2.9-.5-3.7-1.5-.8-1-1.2-2.2-1.2-3.6s.4-2.6 1.2-3.6c.8-1 2-1.5 3.7-1.5 1.7 0 2.9.5 3.7 1.5.8 1 1.2 2.2 1.2 3.6zm12.5-5c.4 0 .8 0 1.3.3a2.8 2.8 0 011.6 2l.1 1.5v6h-2.6v-6.1c0-.4 0-.7-.2-.9-.2-.4-.6-.7-1.2-.7-.7 0-1.2.3-1.4.9-.2.3-.2.7-.2 1.1v5.7h-2.5v-5.7l-.2-1.2c-.2-.5-.6-.7-1.3-.7-.7 0-1.2.2-1.4.7l-.2 1.1v5.8h-2.5v-9.6h2.4v1.4a3 3 0 012.8-1.6 3 3 0 011.7.5c.4.3.7.7.9 1.1.3-.5.7-1 1.2-1.2.5-.3 1-.4 1.7-.4zm9.1 2c-.6 0-1 .2-1.4.6-.3.3-.5.8-.6 1.5h4c-.1-.7-.3-1.2-.7-1.6-.3-.3-.8-.5-1.3-.5zm0-2a5 5 0 012.1.4c.7.3 1.2.8 1.6 1.4.4.6.6 1.3.8 2v1.9H92c0 1 .3 1.6.9 2 .3.3.7.4 1.2.4.6 0 1-.2 1.3-.5l.5-.6h2.5c0 .6-.3 1.1-.9 1.7-.8 1-2 1.4-3.4 1.4-1.2 0-2.3-.4-3.2-1.2-1-.7-1.4-2-1.4-3.8 0-1.7.4-3 1.2-3.8.9-.9 2-1.3 3.3-1.3zm5.3 2v-1.7h1.3v-2.7h2.5v2.7h1.5v1.8h-1.5v5l.1.8 1 .1h.4v1.9h-1.2c-1.1 0-2-.1-2.4-.6-.3-.3-.4-.7-.4-1.3v-6h-1.3zm12.1-2h.4v2.6a7.5 7.5 0 00-.8 0c-1 0-1.6.3-2 1-.2.3-.3.9-.3 1.6v4.6h-2.5v-9.6h2.4v1.7l1-1.3c.5-.4 1-.6 1.8-.6zm4.4-1h-2.5V237h2.5v2.3zm-2.5 1.2h2.5v9.6h-2.5v-9.6zM124 244c0-.4-.2-.7-.4-1-.3-.4-.7-.6-1.3-.6-.8 0-1.4.4-1.7 1.3-.2.4-.3 1-.3 1.7s.1 1.3.3 1.7c.3.8.8 1.2 1.7 1.2.5 0 1-.1 1.2-.4.3-.4.4-.8.5-1.3h2.5a4.2 4.2 0 01-4.3 3.8c-1.5 0-2.7-.4-3.4-1.3-.7-1-1-2.1-1-3.6 0-1.6.3-3 1.1-3.8.8-1 2-1.4 3.3-1.4a5 5 0 013 .8c.7.5 1.2 1.5 1.3 2.9H124zm11.2 3c0 .5.2.8.4 1 .3.3.9.5 1.7.5.5 0 .9 0 1.2-.2.3-.2.4-.4.4-.7 0-.3-.1-.5-.3-.6-.3-.2-1.1-.4-2.7-.8-1-.3-1.8-.6-2.2-1-.5-.4-.7-1-.7-1.7a3 3 0 011-2.3c.7-.6 1.7-1 3-1 1.2 0 2.1.3 2.9.8.7.4 1.2 1.3 1.3 2.4h-2.5c0-.3-.2-.5-.3-.7-.3-.4-.7-.5-1.4-.5-.6 0-1 0-1.2.2l-.3.6c0 .3.1.5.3.6.3.2 1.2.4 2.7.7 1 .3 1.7.6 2.2 1.1.5.5.7 1 .7 1.8a3 3 0 01-1 2.3c-.7.6-1.8 1-3.3 1-1.5 0-2.6-.4-3.3-1-.7-.7-1.1-1.5-1.1-2.5h2.5zm13.4-6.7a4 4 0 011.6.3 2.8 2.8 0 011.7 2v7.5h-2.5v-5.8c0-.5 0-1-.3-1.3-.2-.4-.6-.6-1.3-.6-.6 0-1.1.2-1.5.6a3 3 0 00-.5 2v5.1h-2.5v-13h2.5v4.7c.4-.6.8-1 1.3-1.2l1.5-.3zm11 5.1a3 3 0 01-1.2.5h-.5l-1.2.4c-.3.2-.5.6-.5 1 0 .5 0 .8.3 1l.9.3c.5 0 1-.2 1.5-.5.4-.3.7-.9.7-1.7v-1zm-1.5-1.1a4 4 0 001-.2c.3-.2.5-.4.5-.8s-.1-.6-.4-.8l-1.2-.2c-.6 0-1 .2-1.3.4-.1.3-.3.6-.3 1H154c0-1 .3-1.6.7-2.1.6-.9 1.8-1.3 3.4-1.3 1 0 2 .2 2.8.6.8.4 1.2 1.2 1.2 2.4v4.4a45 45 0 00.2 1.7c0 .2.2.3.3.3v.4H160l-.2-.5v-.6l-1.2 1c-.6.2-1.2.4-1.8.4-1 0-1.6-.2-2.2-.7-.6-.5-.8-1.2-.8-2.1 0-1.2.4-2 1.3-2.6a6 6 0 012.2-.6l.9-.1zm12.8 1c0-.7-.1-1.4-.5-2-.3-.5-.9-.8-1.6-.8-1 0-1.6.4-1.9 1.3-.2.4-.3 1-.3 1.7 0 1.1.3 2 1 2.4.3.2.7.4 1.2.4.7 0 1.2-.3 1.6-.8.3-.6.5-1.3.5-2.2zm-1.4-5c1.1 0 2 .4 2.8 1.2.8.9 1.2 2 1.2 3.7 0 1.7-.4 3-1.1 3.8-.8 1-1.8 1.4-3 1.4a3 3 0 01-1.9-.6l-.8-1v5h-2.4v-13.3h2.4v1.4l.8-1c.6-.4 1.2-.6 2-.6zm9.6 2c-.6 0-1 .2-1.3.6-.4.3-.6.8-.6 1.5h3.9c0-.7-.3-1.2-.7-1.6-.3-.3-.8-.5-1.3-.5zm0-2a5 5 0 012.2.4c.6.3 1.1.8 1.5 1.4.4.6.7 1.3.8 2v1.9h-6.5c0 1 .3 1.6.9 2 .3.3.8.4 1.2.4.6 0 1-.2 1.3-.5l.5-.6h2.5c0 .6-.3 1.1-.9 1.7-.8 1-2 1.4-3.4 1.4-1.2 0-2.3-.4-3.2-1.2-1-.7-1.4-2-1.4-3.8 0-1.7.4-3 1.2-3.8.9-.9 2-1.3 3.3-1.3zm8.2 6.7c0 .5.2.8.3 1 .4.3 1 .5 1.8.5.5 0 .8 0 1.1-.2.3-.2.5-.4.5-.7 0-.3-.1-.5-.4-.6-.2-.2-1-.4-2.6-.8-1-.3-1.8-.6-2.3-1-.4-.4-.6-1-.6-1.7a3 3 0 011-2.3c.7-.6 1.7-1 3-1 1.1 0 2 .3 2.8.8.8.4 1.2 1.3 1.3 2.4h-2.5c0-.3 0-.5-.2-.7-.3-.4-.8-.5-1.4-.5-.6 0-1 0-1.2.2-.2.2-.4.4-.4.6 0 .3.2.5.4.6.3.2 1.1.4 2.6.7 1 .3 1.8.6 2.3 1.1.5.5.7 1 .7 1.8a3 3 0 01-1 2.3c-.8.6-1.9 1-3.3 1-1.5 0-2.6-.4-3.4-1-.7-.7-1-1.5-1-2.5h2.5z" fill="#000"/>
  <path d="M288.3 237h9.2v2.3H291v3h5.7v2.3H291v5.4h-2.7v-13zm16 3.2H304.6v2.6a7.4 7.4 0 00-.7 0c-1 0-1.7.3-2 1-.2.3-.3.9-.3 1.6v4.6H299v-9.6h2.3v1.7l1-1.3c.5-.4 1.1-.6 1.9-.6zm5.6 2c-.6 0-1 .2-1.4.6-.3.3-.5.8-.6 1.5h4c-.1-.7-.3-1.2-.7-1.6-.3-.3-.8-.5-1.3-.5zm0-2a5 5 0 012.1.4c.7.3 1.2.8 1.6 1.4.4.6.6 1.3.7 2l.1 1.9H308c0 1 .3 1.6.9 2 .3.3.7.4 1.2.4s1-.2 1.3-.5l.4-.6h2.6c0 .6-.4 1.1-.9 1.7-.8 1-2 1.4-3.4 1.4-1.3 0-2.3-.4-3.3-1.2-.9-.7-1.4-2-1.4-3.8 0-1.7.5-3 1.3-3.8.8-.9 2-1.3 3.3-1.3zm10 2c-.6 0-1 .2-1.4.6-.3.3-.5.8-.6 1.5h4c-.1-.7-.3-1.2-.7-1.6-.3-.3-.8-.5-1.3-.5zm0-2a5 5 0 012.2.4c.6.3 1.1.8 1.5 1.4.4.6.6 1.3.8 2v1.9H318c0 1 .3 1.6.9 2 .3.3.8.4 1.2.4.6 0 1-.2 1.3-.5l.5-.6h2.5c0 .6-.3 1.1-.9 1.7-.8 1-2 1.4-3.4 1.4-1.2 0-2.3-.4-3.2-1.2-1-.7-1.4-2-1.4-3.8 0-1.7.4-3 1.2-3.8.9-.9 2-1.3 3.3-1.3zm9.8-3.3h.9v2.1h-.7c-.3 0-.5 0-.7.2l-.2.5v.8h1.7v1.8H329v7.7h-2.4v-7.7h-1.4v-1.8h1.3v-.6c0-1 .2-1.7.5-2.1.4-.6 1.3-.9 2.7-.9zm6.7 11.3a2 2 0 001.7-.7c.4-.6.6-1.3.6-2.3 0-1-.2-1.7-.6-2.2a2 2 0 00-1.7-.8 2 2 0 00-1.7.8c-.4.5-.6 1.3-.6 2.2 0 1 .2 1.7.6 2.3.4.5 1 .7 1.7.7zm5-3c0 1.4-.5 2.6-1.3 3.6s-2 1.5-3.7 1.5c-1.6 0-2.8-.5-3.6-1.5-.9-1-1.3-2.2-1.3-3.6s.4-2.6 1.3-3.6c.8-1 2-1.5 3.6-1.5 1.7 0 3 .5 3.7 1.5.8 1 1.2 2.2 1.2 3.6zm7-5h.3v2.6a7.4 7.4 0 00-.7 0c-1 0-1.7.3-2 1-.3.3-.4.9-.4 1.6v4.6h-2.5v-9.6h2.4v1.7l1-1.3c.5-.4 1-.6 1.8-.6zm12.5 0c.4 0 .8 0 1.2.3a2.8 2.8 0 011.7 2v7.5h-2.5v-6.1c0-.4 0-.7-.2-.9-.2-.4-.6-.7-1.2-.7-.7 0-1.2.3-1.5.9l-.2 1.1v5.7h-2.5v-5.7c0-.6 0-1-.2-1.2-.2-.5-.6-.7-1.2-.7-.7 0-1.2.2-1.5.7l-.2 1.1v5.8h-2.5v-9.6h2.4v1.4c.4-.5.6-.8 1-1a3 3 0 011.8-.6 3 3 0 011.8.5l.8 1.1c.3-.5.7-1 1.2-1.2.5-.3 1.1-.4 1.8-.4zM373 247c0 .5.2.8.4 1 .3.3.9.5 1.7.5.5 0 .9 0 1.2-.2.3-.2.4-.4.4-.7 0-.3-.1-.5-.4-.6-.2-.2-1-.4-2.6-.8-1-.3-1.8-.6-2.3-1-.4-.4-.6-1-.6-1.7a3 3 0 011-2.3c.7-.6 1.7-1 3-1 1.1 0 2.1.3 2.9.8.7.4 1.2 1.3 1.3 2.4h-2.5c0-.3-.2-.5-.3-.7-.3-.4-.8-.5-1.4-.5-.6 0-1 0-1.2.2l-.3.6c0 .3 0 .5.3.6.3.2 1.2.4 2.6.7 1 .3 1.8.6 2.3 1.1.5.5.7 1 .7 1.8a3 3 0 01-1 2.3c-.7.6-1.8 1-3.3 1-1.5 0-2.6-.4-3.3-1-.8-.7-1.1-1.5-1.1-2.5h2.5zm13.4-6.7a4 4 0 011.6.3 2.8 2.8 0 011.7 2v7.5h-2.5v-5.8c0-.5-.1-1-.3-1.3-.2-.4-.6-.6-1.3-.6-.6 0-1.1.2-1.5.6a3 3 0 00-.5 2v5.1h-2.5v-13h2.5v4.7c.4-.6.8-1 1.3-1.2.4-.2 1-.3 1.5-.3zm11 5.1a3 3 0 01-.5.3l-.7.2h-.5l-1.2.4c-.3.2-.5.6-.5 1 0 .5 0 .8.3 1 .3.2.5.3.9.3.5 0 1-.2 1.5-.5.4-.3.7-.9.7-1.7v-1zm-1.5-1.1a4 4 0 001-.2c.3-.2.5-.4.5-.8s-.2-.6-.4-.8l-1.2-.2c-.6 0-1 .2-1.3.4-.2.3-.3.6-.3 1h-2.4c0-1 .2-1.6.7-2.1.6-.9 1.8-1.3 3.4-1.3 1 0 2 .2 2.8.6.8.4 1.2 1.2 1.2 2.4v4.4a41 41 0 00.1 1.7c.1.2.3.3.4.3v.4h-2.7l-.2-.5v-.6l-1.2 1c-.6.2-1.2.4-1.9.4-.8 0-1.5-.2-2.1-.7-.6-.5-.9-1.2-.9-2.1 0-1.2.5-2 1.4-2.6a6 6 0 012.2-.6l.9-.1zm12.8 1c0-.7-.2-1.4-.5-2-.3-.5-.9-.8-1.6-.8-1 0-1.6.4-1.9 1.3-.2.4-.3 1-.3 1.7 0 1.1.3 2 1 2.4.3.2.7.4 1.2.4.7 0 1.2-.3 1.6-.8.3-.6.5-1.3.5-2.2zm-1.4-5c1.1 0 2 .4 2.8 1.2.8.9 1.2 2 1.2 3.7 0 1.7-.4 3-1.1 3.8-.8 1-1.8 1.4-3 1.4a3 3 0 01-1.9-.6l-.8-1v5h-2.5v-13.3h2.4v1.4l.9-1c.6-.4 1.2-.6 2-.6zm9.6 2c-.6 0-1 .2-1.4.6-.3.3-.5.8-.6 1.5h4c-.1-.7-.3-1.2-.7-1.6-.3-.3-.8-.5-1.3-.5zm0-2a5 5 0 012.2.4c.6.3 1.1.8 1.5 1.4.4.6.7 1.3.8 2v1.9H415c0 1 .3 1.6.9 2 .3.3.8.4 1.2.4.6 0 1-.2 1.3-.5l.5-.6h2.5c0 .6-.3 1.1-.9 1.7-.8 1-2 1.4-3.4 1.4-1.2 0-2.3-.4-3.2-1.2-1-.7-1.4-2-1.4-3.8 0-1.7.4-3 1.2-3.8.9-.9 2-1.3 3.3-1.3zm8.2 6.7c0 .5.2.8.3 1 .3.3 1 .5 1.8.5.4 0 .8 0 1.1-.2.3-.2.5-.4.5-.7 0-.3-.2-.5-.4-.6-.2-.2-1-.4-2.6-.8-1-.3-1.8-.6-2.3-1-.4-.4-.7-1-.7-1.7a3 3 0 011-2.3c.8-.6 1.8-1 3-1s2.2.3 3 .8c.7.4 1.1 1.3 1.2 2.4h-2.5l-.2-.7c-.3-.4-.8-.5-1.5-.5-.5 0-.9 0-1.1.2-.3.2-.4.4-.4.6 0 .3.2.5.4.6.3.2 1.1.4 2.6.7 1 .3 1.8.6 2.3 1.1.4.5.7 1 .7 1.8a3 3 0 01-1 2.3c-.8.6-1.9 1-3.3 1-1.5 0-2.7-.4-3.4-1-.7-.7-1-1.5-1-2.5h2.5z" fill="#000"/>
  <path fill-rule="evenodd" clip-rule="evenodd" d="M281.8 210.1c1-2.2 2.4-4.5 3.3-5.3 2-1.7 7.6-1.5 10.6.5 3.6 2.3 8.5 2 11-1 1.2-1.3 2.1-3.2 2.1-4 0-4.1-6.2-8.6-12-8.6-3.3 0-5-2-4.2-5 .5-2.1.9-2.4 2.6-1.8 3 1.2 8.6.9 10.3-.5 3.4-2.9.2-10.8-5.4-13.5-4-2-5.3-1.8-8.3.5-1.8 1.5-2.4 2.7-2.4 5.5 0 5.2-3.8 8.3-6.3 5.3-.6-.8-.5-1.8.3-3.5 3.2-5.8-.3-11.1-7.3-11.1-4 0-7 1.7-7 3.8 0 .5 1.6 2.6 3.6 4.6 3.8 3.8 4.1 5.9.9 6.9-1.2.4-2.8-.2-4.7-1.8-3.4-2.8-5.7-3-8.2-.5-2.4 2.4-2.4 6.5.1 9.6 2.1 2.7 4 3 9.3 1.3 4.1-1.2 8.2.1 8.2 2.5 0 1.4-.7 1.8-7.2 4.3-1.8.7-3.5 2-4 3-1.8 5.2 4 12.7 9.8 12.7 2.9 0 3.3-.4 5-3.9zm69-2.5c1.5-1.5 5.7-3.7 10.2-5.1 2.4-.8 2-4-1.7-10.4-1.8-3.3-2.9-6-2.4-6.3a48 48 0 0117 3c2 1 3.5 1.3 3.2.8l-1.5-4.4-1.6-5a26.5 26.5 0 00-3.8-8.6c-.6-.3-3.4.8-6.2 2.5l-5 2.9-11-7.5-5 1.9c-2.7 1-6.5 2-8.5 2-3.2 0-3.5.2-3 2 .3 1 .8 3.7 1 5.8l.7 4 4.6-1.8c2.6-1 5.3-2.5 6.1-3.2 1.2-1.2 1.7-.8 4 3.8 1.4 2.9 2.5 5.3 2.4 5.4-1.3 1-4.6 2.3-6 2.3-1.8 0-1.8.3-.6 4.8.7 2.7 1.3 5.6 1.3 6.5 0 2.5 2 6.4 3.2 6.4.6 0 1.8-.8 2.7-1.8zm62.8.5c15-3.6 21.6-14 21-32.7l-.3-7.4-8.2 10.7c-12.7 16.4-13 16.3-1.4-.5 4-6 7.1-11 7-11.4-1.1-.9-9 1-14.2 3.5a29.8 29.8 0 00-13.4 12.9 49.5 49.5 0 00-2.1 19.5l.5 6.7h3c1.6 0 5.2-.6 8-1.3zm8.7-78.7c1.4-3.1 2-3.6 4.8-3.6 1.7 0 6.2 1.4 10 3.2l6.7 3.1-2-3.1c-2.6-3.7-2.2-7.1 1-9.6.8-.7 1.3-1 1.2-1.3-.1-.3-1.6-.2-5.5 0-7.8.6-8.3 0-6-7.6 1.2-4.5 1.3-5.8.3-7.8l-1-2.4-.6 2.7c-1.3 6-9.8 8.5-18.7 5.7l-3-1-3.4-1.1c-.8-.3.3 1.3 2.6 3.6 4.2 4.5 4.6 5.8 2.4 9-2.4 3.3-6.8 5-14.8 5.7-7 .5-7.2.6-4.6 1.7a51 51 0 0011.6 1.7c4.8.3 9 .8 9.3 1.1a32.1 32.1 0 013.2 7.9c2 6.1 3 8.8 3.4 8.7.4 0 .5-1.7.8-4.8v-.8c.4-4 1.4-9 2.3-11zm-63.6 15c1.5-1 3-2.4 3-3l.3-4.3v-.6c0-4 .2-4.1 9.8-5.6 4.4-.6 6.3-2 5-3.2-.6-.7-.8-2.8-.6-5.1.4-3.9.2-4.1-3.1-6.5-2-1.3-4.2-2.4-4.8-2.4-.7 0-1.1-.5-1-1 .6-3.5-3-7.3-7-7.3-.8 0-1-.9-.7-2.3.5-3.1-1.6-3.9-5.3-2-2.5 1.4-2.9 1.4-3.6 0-1-1.6-2.9-1.8-9.4-1-5.1.6-8 3.5-6.4 6.4.8 1.6.7 2.1-.5 2.8-2 1-1.8 2.4.2 6.5l1.7 3.3-2.2 1c-3 1.4-4 4.6-2.5 7.7.8 1.4 1.3 3.1 1.3 3.9 0 2 2.6 3.7 6.8 4.2 3.6.6 3.9.8 4.4 4.2.4 2 1.4 4.2 2.3 5 2.4 1.7 8.7 1.4 12.3-.7zm-70.6-3.8a18 18 0 006-4.1c5.3-5.6 4.8-15.3-1.2-20.4-7.8-6.7-18.3-3.7-18.3 5.3 0 4 5.6 7.3 8.7 5 2.1-1.5 1.1-3.7-2.4-5-2.4-1-2.7-1.4-1.7-2.6 1.8-2.1 6.8-1.7 9.6 1 3.3 3 3.3 7.6 0 11.6-8.2 9.7-21.6 6-24-6.6-1.4-8.2 4-15.9 12-17.1 5.5-.8 16.4 1.6 23.4 5.2l5.7 2.7c.2 0-.5-1.3-1.4-2.9a38.8 38.8 0 00-26-14.7c-9.4 0-15 4.9-17 15-1.7 8.9 2.6 20.9 9.5 26 4.3 3.2 9.8 3.8 17.1 1.6zm66.2-66.7c2.2-1.6 5.8-4.6 8-6.9 3.7-3.7 4-4.2 3-6.6-1.4-3.7-1-5.2.9-5.2 2.2 0 5.4-3.9 8.3-9.9 2.7-6 2.2-7.7-2.2-7.7-4 0-8.6 2.2-14.8 7L353 48l.7-2.7c1.2-4.6 3.2-8 8.8-15 3.1-3.8 5.6-7 5.6-7.3 0-.2-1.8.6-3.8 1.8-5.3 3-11.3 9.8-14.4 16.7l-2.6 5.7-.7-5.2c-.7-5.7-3.3-11.6-6-13.7-.8-.6-1.1-1-1.2-.9l1.1 1.5c3.2 3.7 4.6 8.8 4 13.7-.8 7-1.7 7.8-3.6 3.5-1-2-3.2-5-5-6.8l-3.3-3 2.6 4.4c2.3 4 2.5 5.3 2.4 12.5-.2 20.3 5.9 27.9 16.7 20.7zm-48-7.7c1.9-1.1 3.8-2.9 4-3.9 1.2-3.7-5.8-7-15.3-7.1-7.4 0-13.8-1.3-15.5-3-1.8-1.8-1.2-2.8 5.6-10.9 6.7-7.8 5.7-12-3.1-12.8-8.2-.7-25 6.2-25 10.5 0 1.6 2 1.9 3.4.4.7-.7 1.3 1 2 6.1.6 3.9 1 7.9 1 8.8 0 1.4.7 1.9 2.4 1.9 1.2 0 5 1 8.3 2.2 11 4 17.8 10 15.5 13.6-.8 1.3 0 1.2 6.1-1.2a122 122 0 0010.6-4.6zm123.2 4.6c3.7-.5 6.6-1.4 6.8-2.2.6-1.5-3-6.9-4.7-6.9-.6 0-1.2-1.2-1.3-2.6 0-1.5-.7-4.1-1.6-5.7a41.7 41.7 0 01-4-17.6l.3-4.2-3.5-.3c-3-.3-4 .2-7 3.2-2 2-4.7 4.4-6.1 5.4-4.3 3.2-2.8 5.8 5.7 10.7 7 4 7.1 4.2 4.5 4.6-1.5.4-4 .3-5.5-.1-4.4-1.2-8.2 1-11.1 6.7-2.7 5.4-3 7.8-1.3 8.9 3.5 2 15.5 2.2 28.8.1z" fill="#000"/>
  <circle cx="114.9" cy="113" r="20.9" fill="#000"/>
  <path d="M42.1 22.6L63 58.7H21.2l21-36.1z" fill="#000"/>
  <rect x="22.6" y="95.8" width="38" height="38" fill="#000"/>
  <path d="M63 183.9L42 156.1l-20.9 27.8h13.5v22.3h15.8v-22.3H63z" fill="#000"/>
  <path d="M114.9 17l7.8 14.8 16.4 2.8-11.6 12 2.4 16.5-15-7.3-15 7.3 2.4-16.5-11.7-12 16.5-2.8 7.8-14.8z" fill="#000"/>
  <path d="M127.8 191.5a18 18 0 00-12.9-30.8 18 18 0 00-12.9 30.8l.3 1.6-2.4 16.5 15-7.3 15 7.3-2.4-16.5.3-1.6z" fill="#000"/>
  <path d="M184.9 93l21.2 15.4-8.1 24.9h-26.2l-8-24.9L184.8 93z" fill="#000"/>
  <path d="M164.7 32.8c-1.2 0-2 .9-2 2a22.3 22.3 0 0044.4 0c0-1.1-.8-2-2-2h-40.4z" fill="#000"/>
  <path d="M163.6 182.6l22-15.4 22.4 15.7a22.3 22.3 0 01-44.4-.3z" fill="#000"/>
</svg>