<svg xmlns="http://www.w3.org/2000/svg" fill="none" viewBox="0 0 579 578">
    <defs>
        <linearGradient id="paint0_linear" x1="228.92" x2="348.637" y1="66.324" y2="65.791" gradientUnits="userSpaceOnUse">
            <stop stop-color="#C3DD11"/>
            <stop offset=".5" stop-color="#FEF200"/>
            <stop offset="1" stop-color="#FFDC01"/>
        </linearGradient>
        <linearGradient id="paint1_linear" x1="230.937" x2="131.992" y1="76.182" y2="132.492" gradientUnits="userSpaceOnUse">
            <stop stop-color="#C3DD11"/>
            <stop offset=".5" stop-color="#8AC81F"/>
            <stop offset="1" stop-color="#47AC3C"/>
        </linearGradient>
        <linearGradient id="paint2_linear" x1="131.026" x2="74.449" y1="132.233" y2="229.401" gradientUnits="userSpaceOnUse">
            <stop offset="0" stop-color="#4BAE3B"/>
            <stop offset=".5" stop-color="#008F5A"/>
            <stop offset="1" stop-color="#02928B"/>
        </linearGradient>
        <linearGradient id="paint3_linear" x1="72.259" x2="73.12" y1="229.849" y2="344.478" gradientUnits="userSpaceOnUse">
            <stop stop-color="#02928C"/>
            <stop offset=".5" stop-color="#0395BA"/>
            <stop offset="1" stop-color="#1584B7"/>
        </linearGradient>
        <linearGradient id="paint4_linear" x1="74.534" x2="133.94" y1="346.927" y2="442.044" gradientUnits="userSpaceOnUse">
            <stop stop-color="#1584B7"/>
            <stop offset=".5" stop-color="#2772B3"/>
            <stop offset="1" stop-color="#3660A9"/>
        </linearGradient>
        <linearGradient id="paint5_linear" x1="128.196" x2="228.261" y1="451.892" y2="509.246" gradientUnits="userSpaceOnUse">
            <stop stop-color="#3660A9"/>
            <stop offset=".5" stop-color="#434EA0"/>
            <stop offset="1" stop-color="#5C419C"/>
        </linearGradient>
        <linearGradient id="paint6_linear" x1="231.806" x2="348.625" y1="507.607" y2="506.297" gradientUnits="userSpaceOnUse">
            <stop offset="0" stop-color="#5B429C"/>
            <stop offset="1" stop-color="#9D1C8B"/>
        </linearGradient>
        <linearGradient id="paint7_linear" x1="448.597" x2="348.625" y1="453.886" y2="506.298" gradientUnits="userSpaceOnUse">
            <stop stop-color="#E00243"/>
            <stop offset=".5" stop-color="#C5037E"/>
            <stop offset="1" stop-color="#9D1C8B"/>
        </linearGradient>
        <linearGradient id="paint8_linear" x1="509.788" x2="450.469" y1="349.155" y2="450.765" gradientUnits="userSpaceOnUse">
            <stop stop-color="#FF6301"/>
            <stop offset=".5" stop-color="#E93F33"/>
            <stop offset="1" stop-color="#E00243"/>
        </linearGradient>
        <linearGradient id="paint9_linear" x1="504.356" x2="502.32" y1="232.266" y2="346.119" gradientUnits="userSpaceOnUse">
            <stop stop-color="#FF8501"/>
            <stop offset=".5" stop-color="#FF6201"/>
            <stop offset="1" stop-color="#FF6301"/>
        </linearGradient>
        <linearGradient id="paint10_linear" x1="442.958" x2="500.07" y1="132.993" y2="234.741" gradientUnits="userSpaceOnUse">
            <stop offset="0" stop-color="#FFAC01"/>
            <stop offset=".5" stop-color="#FF9000"/>
            <stop offset="1" stop-color="#FF8501"/>
        </linearGradient>
        <linearGradient id="paint11_linear" x1="463.236" x2="352.321" y1="117.203" y2="55.907" gradientUnits="userSpaceOnUse">
            <stop offset="0" stop-color="#FFAC01"/>
            <stop offset=".5" stop-color="#FFC700"/>
            <stop offset="1" stop-color="#FFDB01"/>
        </linearGradient>
        <clipPath id="crop">
            <rect width="579" height="578" fill="#fff"/>
        </clipPath>
        	 <style>
 svg {
     font-family: sans-serif;
}
 text{
     font-family: sans-serif;
}
 .no-touch {
     pointer-events: none;
}
 #label{
     font-family:sans-serif;
}
 .touchslices #focal {
     transform-origin: 50% 50%;
     transition: all 2.2s;
}
 .slice {
     stroke: rgba(0, 0, 0, 0);
}
 .slice ~ #focal #darken {
     transition: all 1.2s;
}
 .slice:hover ~ #focal, .slice:active ~ #focal {
     transition: all 0.6s;
}
 .slice:hover ~ #focal #darken, .slice:focus ~ #focal #darken, .slice:active ~ #focal #darken {
     transition: all 1.2s;
     fill: rgba(0, 0, 0, 0.7);
}
 #slice1:hover ~ #focal, #slice1:focus ~ #focal, #slice1:active ~ #focal {
     transform: rotate(30deg);
}
 #slice2:hover ~ #focal, #slice2:focus ~ #focal, #slice2:active ~ #focal {
     transform: rotate(60deg);
}
 #slice3:hover ~ #focal, #slice3:focus ~ #focal, #slice3:active ~ #focal {
     transform: rotate(90deg);
}
 #slice4:hover ~ #focal, #slice4:focus ~ #focal, #slice4:active ~ #focal {
     transform: rotate(120deg);
}
 #slice5:hover ~ #focal, #slice5:focus ~ #focal, #slice5:active ~ #focal {
     transform: rotate(150deg);
}
 #slice6:hover ~ #focal, #slice6:focus ~ #focal, #slice6:active ~ #focal {
     transform: rotate(180deg);
}
 #slice7:hover ~ #focal, #slice7:focus ~ #focal, #slice7:active ~ #focal {
     transform: rotate(210deg);
}
 #slice8:hover ~ #focal, #slice8:focus ~ #focal, #slice8:active ~ #focal {
     transform: rotate(240deg);
}
 #slice9:hover ~ #focal, #slice9:focus ~ #focal, #slice9:active ~ #focal {
     transform: rotate(270deg);
}
 #slice10:hover ~ #focal, #slice10:focus ~ #focal, #slice10:active ~ #focal {
     transform: rotate(300deg);
}
 #slice11:hover ~ #focal, #slice11:focus ~ #focal, #slice11:active ~ #focal {
     transform: rotate(330deg);
}
 #slice12:hover ~ #focal, #slice12:focus ~ #focal, #slice12:active ~ #focal {
     transform: rotate(0deg);
}

	 </style>
    </defs>
    <g id="AnalogousColor-wheel" style="clip-path:url(#crop)">
        <rect width="579" height="578" fill="#fff" stroke="#f6f6f6"/>
        <g id="wheel">
            <path id="Subtract" fill="#ddd" fill-opacity=".6" fill-rule="evenodd" d="M289.462 576.066c158.782 0 287.5-128.718 287.5-287.5 0-158.781-128.718-287.5-287.5-287.5-158.781 0-287.5 128.719-287.5 287.5 0 158.782 128.719 287.5 287.5 287.5zm-.5-88c110.457 0 200-89.543 200-200s-89.543-200-200-200-200 89.543-200 200 89.543 200 200 200z" clip-rule="evenodd"/>
            <path id="s12" fill="url(#paint0_linear)" d="M237.75 94.864c32.833-8.836 68.362-9.41 103.567.023l22.517-84.035c-50.507-13.441-101.465-12.564-148.557.139l22.473 83.873z"/>
            <path id="s11" fill="url(#paint1_linear)" d="M147.883 146.531c24.016-24.068 54.499-42.33 89.704-51.763L215.07 10.733c-50.462 13.613-94.154 39.851-128.586 74.4l61.399 61.398z"/>
            <path id="s10" fill="url(#paint2_linear)" d="M95.89 236.21c8.765-32.852 26.033-63.908 51.805-89.679L86.177 85.013c-36.895 37.02-61.614 81.589-74.16 128.724L95.89 236.21z"/>
            <path id="s9" fill="url(#paint3_linear)" d="M95.703 339.871c-8.836-32.833-9.41-68.362.023-103.567l-84.035-22.517C-1.75 264.294-.873 315.252 11.83 362.345l83.873-22.474z"/>
            <path id="s8" fill="url(#paint4_linear)" d="M147.37 429.738c-24.068-24.016-42.33-54.499-51.763-89.704l-84.035 22.517c13.613 50.462 39.851 94.154 74.4 128.586l61.398-61.399z"/>
            <path id="s7" fill="url(#paint5_linear)" d="M237.049 481.73c-32.852-8.764-63.908-26.032-89.68-51.804l-61.517 61.518c37.02 36.895 81.588 61.614 128.724 74.159l22.473-83.873z"/>
            <path id="s6" fill="url(#paint6_linear)" d="M340.71 481.918c-32.833 8.836-68.362 9.41-103.567-.024l-22.517 84.035c50.507 13.442 101.465 12.565 148.557-.138l-22.473-83.873z"/>
            <path id="s5" fill="url(#paint7_linear)" d="M430.576 430.251c-24.016 24.068-54.498 42.329-89.703 51.763l22.517 84.035c50.462-13.613 94.154-39.852 128.586-74.399l-61.4-61.399z"/>
            <path id="s4" fill="url(#paint8_linear)" d="M482.57 340.572c-8.765 32.852-26.033 63.908-51.805 89.68l61.518 61.518c36.895-37.02 61.614-81.589 74.159-128.725l-83.872-22.473z"/>
            <path id="s3" fill="url(#paint9_linear)" d="M482.757 236.911c8.836 32.833 9.41 68.362-.024 103.567l84.036 22.518c13.441-50.508 12.564-101.465-.139-148.558l-83.873 22.473z"/>
            <path id="s2" fill="url(#paint10_linear)" d="M431.089 147.044c24.069 24.017 42.33 54.499 51.763 89.704l84.036-22.517c-13.614-50.462-39.852-94.154-74.399-128.586l-61.4 61.399z"/>
            <path id="s1" fill="url(#paint11_linear)" d="M341.411 95.051c32.852 8.765 63.908 26.033 89.68 51.804l61.518-61.517c-37.021-36.895-81.589-61.614-128.725-74.16l-22.473 83.873z"/>
        </g>
        <g id="touch">
            <g class="touchslices" stroke="rgba(0,0,0,0.2)" fill="rgba(0,0,0,0)">
                <a href="#0" id="slice12" class="slice">
                    <path data-tabindex="0" d="M340.964 94.276c-34.962-9.277-70.23-8.719-102.86-.025l-22.215-82.907c46.725-12.517 97.243-13.375 147.333-.137l-22.258 83.069z"/>
                </a>
                <a href="#0" id="slice11" class="slice">
                    <path data-tabindex="0" d="M236.975 94.415c-34.916 9.447-65.18 27.565-89.092 51.409L87.191 85.132c34.207-34.203 77.527-60.206 127.526-73.785l22.258 83.068z"/>
                </a>
                <a href="#0" id="slice10" class="slice">
                    <path data-tabindex="0" d="M146.988 146.531c-25.515 25.639-42.665 56.461-51.451 89.067L12.63 213.383c12.522-46.724 37.038-90.903 73.547-127.662l60.811 60.81z"/>
                </a>
                <a href="#0" id="slice9" class="slice">
                    <path data-tabindex="0" d="M95.115 236.658c-9.277 34.961-8.719 70.229-.025 102.859l-82.907 22.215c-12.517-46.725-13.376-97.243-.137-147.333l83.069 22.259z"/>
                </a>
                <a href="#0" id="slice8" class="slice">
                    <path data-tabindex="0" d="M95.254 340.646c9.447 34.916 27.565 65.18 51.409 89.092L85.971 490.43c-34.203-34.207-60.205-77.527-73.785-127.525l83.068-22.259z"/>
                </a>
                <a href="#0" id="slice7" class="slice">
                    <path data-tabindex="0" d="M147.37 430.633c25.639 25.514 56.461 42.665 89.067 51.451l-22.215 82.907c-46.724-12.523-90.903-37.038-127.663-73.548l60.811-60.81z"/>
                </a>
                <a href="#0" id="slice6" class="slice">
                    <path data-tabindex="0" d="M237.496 482.506c34.962 9.277 70.23 8.718 102.86.024l22.215 82.908c-46.725 12.517-97.243 13.375-147.333.137l22.258-83.069z"/>
                </a>
                <a href="#0" id="slice5" class="slice">
                    <path data-tabindex="0" d="M341.485 482.367c34.916-9.448 65.18-27.565 89.091-51.409l60.693 60.692c-34.207 34.203-77.528 60.205-127.526 73.785l-22.258-83.068z"/>
                </a>
                <a href="#0" id="slice4" class="slice">
                    <path data-tabindex="0" d="M431.472 430.251c25.514-25.639 42.665-56.461 51.451-89.067l82.907 22.215c-12.522 46.724-37.038 90.903-73.548 127.663l-60.81-60.811z"/>
                </a>
                <a href="#0" id="slice3" class="slice">
                    <path data-tabindex="0" d="M483.345 340.125c9.277-34.962 8.719-70.23.024-102.86l82.908-22.215c12.517 46.725 13.375 97.243.137 147.333l-83.069-22.258z"/>
                </a>
                <a href="#0" id="slice2" class="slice">
                    <path data-tabindex="0" d="M483.205 236.136c-9.447-34.916-27.564-65.18-51.409-89.092l60.693-60.692c34.203 34.207 60.205 77.527 73.785 127.526l-83.069 22.258z"/>
                </a>
                <a href="#0" id="slice1" class="slice">
                    <path data-tabindex="0" d="M431.09 146.149c-25.639-25.515-56.461-42.665-89.067-51.451l22.215-82.907c46.724 12.522 90.903 37.038 127.662 73.547l-60.81 60.811z"/>
                </a>
                <g id="focal" class="no-touch">
                    <path id="keyline" stroke="#000" stroke-width="5" d="M703.5 289.5c0 227.541-184.459 412-412 412s-412-184.459-412-412 184.459-412 412-412 412 184.459 412 412zM163 532.5c19.606 0 35.5-15.894 35.5-35.5s-15.894-35.5-35.5-35.5-35.5 15.894-35.5 35.5 15.894 35.5 35.5 35.5zm126-453c19.606 0 35.5-15.894 35.5-35.5S308.606 8.5 289 8.5 253.5 24.394 253.5 44s15.894 35.5 35.5 35.5zm120 456c19.606 0 35.5-15.894 35.5-35.5s-15.894-35.5-35.5-35.5-35.5 15.894-35.5 35.5 15.894 35.5 35.5 35.5z"/>
                    <path id="darken" fill="rgba(0,0,0,0.0)" fill-rule="evenodd" d="M706 289.5C706 518.422 520.422 704 291.5 704S-123 518.422-123 289.5 62.578-125 291.5-125 706 60.578 706 289.5zM196 497c0 18.225-14.775 33-33 33s-33-14.775-33-33 14.775-33 33-33 33 14.775 33 33zm93-420c18.225 0 33-14.775 33-33s-14.775-33-33-33-33 14.775-33 33 14.775 33 33 33zm152 423c0 18.225-14.775 33-33 33s-33-14.775-33-33 14.775-33 33-33 33 14.775 33 33z" clip-rule="evenodd"/>
                    <g id="triangle" stroke-width="5" class="no-touch">
                        <path stroke="#000" stroke-dasharray="4 2" d="M277 79l-99.517 385.128"/>
                        <line x1="200" x2="374" y1="500" y2="500" stroke="#000" stroke-dasharray="4 2"/>
                        <path stroke="#000" stroke-dasharray="4 2" d="M298 76.5l97 387"/>
                    </g>
                </g>
            </g>
        </g>
        <g id="label" class="-no-touch">
            <rect width="294" height="56" x="144" y="261" fill="#000" rx="23"/>
            <text fill="#fff" style="white-space:pre" font-family="Roboto, sans-serif" font-size="28" letter-spacing="0em">
                <tspan x="182.213" y="298">Analogous colors</tspan>
            </text>
        </g>
    </g>
</svg>
