<svg viewBox="0 0 600 146" fill="none" xmlns="http://www.w3.org/2000/svg">
  <rect width="600" height="146" fill="#fff"/>
  <line y1="17.5" x2="600" y2="17.5" stroke="#C4C4C4"/>
  <line y1="52.5" x2="600" y2="52.5" stroke="#C4C4C4"/>
  <line y1="93.5" x2="600" y2="93.5" stroke="#C4C4C4"/>
  <line y1="124.5" x2="600" y2="124.5" stroke="#C4C4C4"/>
  <path d="M331.4 39v-7.3c7-.7 11.8-1.8 14.5-3.4 2.7-1.6 4.8-5.3 6.1-11.2h7.6V93h-10.2V39h-18z" fill="#000"/>
  <path d="M387.1 73.6c.7 5.4 3.2 9.2 7.6 11.3 2.3 1 5 1.6 8 1.6 5.6 0 9.8-1.8 12.5-5.4 2.8-3.6 4.1-7.7 4.1-12 0-5.4-1.6-9.5-4.9-12.4-3.2-3-7-4.4-11.6-4.4-3.3 0-6.2.7-8.5 2-2.4 1.2-4.4 3-6 5.3L380 59l5.8-41h39.6v9.2h-32.5l-3.2 21.2c1.8-1.3 3.5-2.4 5-3 2.9-1.2 6.2-1.8 9.9-1.8 7 0 13 2.3 17.8 6.8a22.4 22.4 0 017.3 17.1c0 7.2-2.3 13.6-6.7 19-4.5 5.6-11.6 8.3-21.3 8.3-6.2 0-11.7-1.7-16.5-5.2-4.8-3.5-7.4-8.9-8-16.1h10z" fill="#000"/>
  <path d="M468.2 16.5c8.5 0 14.5 2.2 17.8 6.6 3.4 4.4 5 9 5 13.6h-9.4c-.6-3-1.5-5.3-2.7-7-2.3-3.2-5.8-4.8-10.5-4.8-5.4 0-9.6 2.5-12.8 7.4-3.1 5-4.9 12-5.3 21.3a20.8 20.8 0 0118.6-9.4c6.4 0 12 2 16.7 6.1 4.7 4.1 7.1 10.2 7.1 18.3 0 6.9-2.2 13-6.7 18.4-4.6 5.3-11 8-19.3 8-7.1 0-13.3-2.7-18.5-8.1-5.2-5.4-7.8-14.6-7.8-27.4 0-9.5 1.2-17.5 3.5-24 4.4-12.7 12.5-19 24.3-19zm-.7 70c5 0 8.8-1.7 11.3-5.1a20.4 20.4 0 00.4-23.2C477 54.7 473 53 467.1 53a16 16 0 00-10.9 4.1c-3 2.8-4.6 6.9-4.6 12.4 0 4.8 1.4 8.9 4.2 12.2 2.8 3.2 6.7 4.9 11.7 4.9z" fill="#000"/>
  <path d="M554 18v8.4A127.1 127.1 0 00533.5 58a130.1 130.1 0 00-11 35.1h-10.6c2.4-14.5 7.7-29 16-43.4 4.8-8.5 10-15.8 15.3-21.9H501v-9.6h53z" fill="#000"/>
  <path d="M86 94H50.3v-3.8a194.2 194.2 0 009.6-1.1c1.1-.4 2-1 2.5-1.8.6-.8 1-2 1-3.6V46.4H50v-4.5h2.9c3.8 0 7.3-.7 10.3-2.1 3-1.5 5.2-3 6.5-4.6h4.4a705.8 705.8 0 00-.4 16.4V83a7 7 0 00.8 3.4c.5 1 1.3 1.7 2.3 2.1a44.4 44.4 0 009.2 1.6V94z" fill="#000"/>
  <path d="M134.7 69a21.8 21.8 0 018.1 18 25 25 0 01-7.8 19c-5.2 5-11.8 7.4-19.8 7.4-6.2 0-11.5-1.4-15.8-4.4-4.3-3-6.4-6.4-6.4-10.3 0-1.8.4-3.4 1.3-4.7.9-1.3 2.3-2 4.1-2 2.1 0 3.7.5 4.8 1.7a5 5 0 011.8 3.6c0 1.1-.2 2.6-.6 4.3-.4 1.7-.7 3-1 3.7a14.3 14.3 0 003.7 2.3 20.5 20.5 0 008 1.5c2.3 0 4.5-.5 6.5-1.4 2-1 3.7-2.3 5.1-4.1 1.5-2 2.7-4.3 3.4-6.8.8-2.6 1.2-5.8 1.2-9.7 0-5-1.4-9.1-4.2-12.4-2.8-3.3-6.4-5-11-5a17.1 17.1 0 00-14.6 7L98 75.3l4.5-38.4h38.1v9.5h-33.8L104 68.9c1.6-1.1 3.7-2.2 6.3-3.3 2.7-1.2 5.5-1.7 8.6-1.7 2.6 0 5.3.4 8 1.2 2.9.8 5.5 2 7.8 4z" fill="#000"/>
  <path d="M204.6 69.5a26.7 26.7 0 01-7.3 18.6 25.2 25.2 0 01-18.4 7.6c-4 0-7.5-.7-10.7-2.2-3.2-1.4-6-3.5-8.2-6.2-2.2-2.6-4-6-5.2-9.9a43.3 43.3 0 01-1.9-13.1c0-12.7 3.8-23.3 11.3-32 7.5-8.7 17.7-14 30.3-15.7l1 4.8-4.8.9a36.6 36.6 0 00-17.9 11.6 40.7 40.7 0 00-8.1 19 27 27 0 0118.5-7.3c5.9 0 11 2.3 15.1 6.9a24 24 0 016.3 17zm-11.5 1.4c0-5.7-1.3-10.4-4-13.8a12.6 12.6 0 00-10.6-5.3c-2.7 0-5.1.5-7.4 1.5-2.3 1-4.5 2.7-6.6 5a109.5 109.5 0 00-.3 6.6c0 8.3 1.3 14.9 4 19.6 2.8 4.7 6.3 7 10.8 7a12 12 0 0010.2-5.5 26 26 0 003.9-15.1z" fill="#000"/>
  <path d="M264 40.4l-38 73h-6.7L255 45.8h-20.9l-7.2.1c-1.8.1-3.4.4-4.8 1-1.1.5-2.1 1.7-3 3.6-.8 1.9-1.5 4.3-2 7.3H214v-21h50v3.6z" fill="#000"/>
</svg>
