<svg width="600" height="146" viewBox="0 0 600 146" fill="none" xmlns="http://www.w3.org/2000/svg">
<rect width="600" height="146" fill="white"/>
<line y1="17.5" x2="600" y2="17.5" stroke="#C4C4C4"/>
<line y1="52.5" x2="600" y2="52.5" stroke="#C4C4C4"/>
<line y1="93.5" x2="600" y2="93.5" stroke="#C4C4C4"/>
<line y1="124.5" x2="600" y2="124.5" stroke="#C4C4C4"/>
<path d="M331.432 39.0322V31.6875C338.351 31.0133 343.176 29.8957 345.908 28.3345C348.64 26.7378 350.681 22.9945 352.029 17.1045H359.586V93H349.368V39.0322H331.432Z" fill="black"/>
<path d="M387.139 73.5737C387.778 79.0379 390.315 82.8167 394.75 84.9102C397.021 85.9746 399.646 86.5068 402.627 86.5068C408.304 86.5068 412.509 84.6973 415.241 81.0781C417.973 77.459 419.339 73.4495 419.339 69.0498C419.339 63.7275 417.707 59.6117 414.442 56.7021C411.214 53.7926 407.328 52.3379 402.787 52.3379C399.487 52.3379 396.648 52.9766 394.271 54.2539C391.929 55.5312 389.924 57.3053 388.257 59.5762L379.954 59.0972L385.755 18.0625H425.353V27.3232H392.94L389.694 48.5059C391.468 47.1576 393.153 46.1463 394.75 45.4722C397.589 44.3013 400.871 43.7158 404.596 43.7158C411.586 43.7158 417.512 45.9689 422.373 50.4751C427.234 54.9813 429.664 60.6938 429.664 67.6128C429.664 74.8156 427.429 81.1668 422.958 86.6665C418.523 92.1662 411.426 94.916 401.669 94.916C395.46 94.916 389.96 93.1774 385.17 89.7002C380.415 86.1875 377.754 80.812 377.187 73.5737H387.139Z" fill="black"/>
<path d="M468.228 16.4658C476.744 16.4658 482.669 18.6834 486.004 23.1187C489.375 27.5184 491.061 32.0601 491.061 36.7437H481.587C481.019 33.7277 480.114 31.3682 478.873 29.665C476.566 26.4717 473.071 24.875 468.388 24.875C463.03 24.875 458.772 27.3587 455.614 32.3262C452.456 37.2581 450.7 44.3368 450.345 53.562C452.545 50.3332 455.313 47.9204 458.648 46.3237C461.699 44.9045 465.106 44.1948 468.867 44.1948C475.253 44.1948 480.824 46.235 485.579 50.3154C490.333 54.3958 492.71 60.481 492.71 68.5708C492.71 75.4897 490.457 81.6281 485.951 86.9858C481.445 92.3081 475.023 94.9692 466.685 94.9692C459.553 94.9692 453.397 92.2726 448.216 86.8794C443.036 81.4507 440.446 72.3319 440.446 59.5229C440.446 50.0493 441.599 42.0127 443.905 35.4131C448.34 22.7816 456.448 16.4658 468.228 16.4658ZM467.536 86.4536C472.575 86.4536 476.336 84.7682 478.819 81.3975C481.339 77.9912 482.598 73.9818 482.598 69.3691C482.598 65.4661 481.48 61.7583 479.245 58.2456C477.01 54.6974 472.947 52.9233 467.057 52.9233C462.941 52.9233 459.322 54.2894 456.2 57.0215C453.113 59.7536 451.569 63.8695 451.569 69.3691C451.569 74.1947 452.971 78.2573 455.774 81.5571C458.612 84.8215 462.533 86.4536 467.536 86.4536Z" fill="black"/>
<path d="M554.023 18.0625V26.4185C551.575 28.7957 548.31 32.9294 544.23 38.8193C540.185 44.7093 536.601 51.0605 533.479 57.873C530.392 64.5081 528.05 70.5578 526.454 76.022C525.425 79.5347 524.094 85.194 522.462 93H511.871C514.283 78.4525 519.606 63.9759 527.837 49.5703C532.698 41.1257 537.808 33.8341 543.166 27.6958H501.013V18.0625H554.023Z" fill="black"/>
<path d="M86.0571 94H50.1851V90.2212C51.2495 90.1502 52.8994 90.0083 55.1348 89.7954C57.4056 89.547 58.9668 89.2987 59.8184 89.0503C60.9183 88.6955 61.7521 88.1278 62.3198 87.3472C62.923 86.5311 63.2246 85.3247 63.2246 83.728V46.3657H49.9722V41.895H52.8994C56.7314 41.895 60.1554 41.1854 63.1714 39.7661C66.2228 38.3468 68.4049 36.8211 69.7178 35.189H74.1353C74.0288 37.4953 73.9224 40.1919 73.8159 43.2788C73.7095 46.3657 73.6562 49.1333 73.6562 51.5815V83.1426C73.6562 84.3844 73.9224 85.5021 74.4546 86.4956C75.0223 87.4536 75.8206 88.1632 76.8496 88.6245C77.7721 89.0148 79.2801 89.3696 81.3735 89.689C83.467 90.0083 85.0282 90.1857 86.0571 90.2212V94Z" fill="black"/>
<path d="M134.703 69.0386C137.044 70.8836 138.978 73.2609 140.504 76.1704C142.065 79.0799 142.846 82.7168 142.846 87.0811C142.846 94.7096 140.238 101.008 135.022 105.975C129.806 110.943 123.189 113.426 115.17 113.426C108.961 113.426 103.709 111.954 99.416 109.009C95.1227 106.064 92.9761 102.64 92.9761 98.7368C92.9761 96.9272 93.4196 95.3483 94.3066 94C95.1937 92.6517 96.5597 91.9775 98.4048 91.9775C100.534 91.9775 102.148 92.5452 103.248 93.6807C104.383 94.7806 104.951 95.987 104.951 97.2998C104.951 98.4352 104.756 99.8545 104.366 101.558C103.975 103.261 103.674 104.52 103.461 105.336C103.745 105.585 104.206 105.922 104.845 106.348C105.483 106.773 106.246 107.181 107.133 107.572C108.056 107.962 109.174 108.299 110.486 108.583C111.835 108.902 113.396 109.062 115.17 109.062C117.441 109.062 119.587 108.601 121.61 107.678C123.632 106.756 125.335 105.39 126.719 103.58C128.245 101.593 129.38 99.3223 130.125 96.7676C130.906 94.2484 131.296 91.0373 131.296 87.1343C131.296 82.1313 129.895 77.9977 127.092 74.7334C124.324 71.4336 120.67 69.7837 116.128 69.7837C113.289 69.7837 110.628 70.3159 108.145 71.3804C105.696 72.4448 103.496 74.2189 101.545 76.7026L97.979 75.3188L102.503 36.8921H140.61V46.3657H106.814L104.046 68.9321C105.643 67.7967 107.736 66.679 110.327 65.5791C112.952 64.4437 115.826 63.876 118.949 63.876C121.539 63.876 124.218 64.284 126.985 65.1001C129.788 65.8807 132.361 67.1935 134.703 69.0386Z" fill="black"/>
<path d="M204.637 69.4644C204.637 73.1545 203.963 76.6139 202.615 79.8428C201.302 83.0716 199.528 85.8215 197.292 88.0923C194.702 90.6825 191.828 92.5985 188.67 93.8403C185.548 95.0822 182.284 95.7031 178.877 95.7031C174.939 95.7031 171.373 94.9757 168.18 93.521C164.986 92.0662 162.272 90.0083 160.037 87.3472C157.766 84.6506 156.009 81.3507 154.768 77.4478C153.526 73.5448 152.905 69.1628 152.905 64.3018C152.905 51.6348 156.666 40.9548 164.188 32.2617C171.746 23.5687 181.858 18.3529 194.525 16.6143L195.483 21.4043L190.693 22.2559C182.993 24.7396 177.032 28.6071 172.81 33.8584C168.623 39.1097 165.909 45.4787 164.667 52.9653C167.718 50.3042 170.734 48.4237 173.715 47.3237C176.695 46.2238 179.835 45.6738 183.135 45.6738C189.061 45.6738 194.117 47.9447 198.304 52.4863C202.526 57.028 204.637 62.6873 204.637 69.4644ZM193.088 70.9014C193.088 65.1533 191.757 60.5407 189.096 57.0635C186.471 53.5863 182.94 51.8477 178.505 51.8477C175.844 51.8477 173.36 52.3444 171.054 53.3379C168.783 54.3314 166.583 55.999 164.454 58.3408C164.419 58.7666 164.365 59.7601 164.294 61.3213C164.223 62.847 164.188 64.0534 164.188 64.9404C164.188 73.2432 165.536 79.7541 168.233 84.4731C170.965 89.1567 174.549 91.4985 178.984 91.4985C183.206 91.4985 186.612 89.6712 189.203 86.0166C191.793 82.3265 193.088 77.2881 193.088 70.9014Z" fill="black"/>
<path d="M263.927 40.3516L225.979 113.426H219.327L255.039 45.8335H234.123C231.036 45.8335 228.623 45.869 226.884 45.9399C225.146 46.0109 223.549 46.348 222.094 46.9512C220.994 47.4124 220.001 48.6011 219.114 50.5171C218.262 52.3976 217.606 54.8104 217.145 57.7554H213.898V36.8921H263.927V40.3516Z" fill="black"/>
</svg>
