<svg version="1.0" xmlns="http://www.w3.org/2000/svg" viewBox="0 0 3940 4930">
  <g id="layer101" fill="#036f3d" stroke="none">
    <path d="M0 2465V0h3940v4930H0V2465z"/>
  </g>
  <g id="layer102" fill="#003991" stroke="none">
    <path d="M0 2465V0h3940v4930H0V2465zm3643 2038c-18-2-48-2-65 0-18 2-4 4 32 4s50-2 33-4zm-153-21c-19-9-41-30-48-45-17-35-9-88 17-111 46-42 245-45 296-5 20 17 25 29 25 66 0 38-5 50-32 75l-33 31 32-16c50-26 77-72 78-132 1-112-51-145-243-152-121-4-182-16-182-34 0-54 62-88 127-70 93 26 207-4 251-67 42-58 23-148-38-192-28-20-31-27-28-68 3-48 24-69 30-30 2 18 9 23 33 23 27 0 30-3 30-30s-3-30-36-33c-48-4-69 17-69 70 0 39-1 40-27 32-79-24-187 5-232 62-48 61-46 157 4 190 28 18 33 34 10 34-49 0-92 66-81 123 7 37 24 55 71 80l30 16-40 16c-54 23-75 43-75 73 0 31 55 84 101 99 53 17 67 15 29-5zm217 11c-4-3-10-3-14 0-3 4 0 7 7 7s10-3 7-7z"/>
  </g>
  <g id="layer103" fill="#26913a" stroke="none">
    <path d="M0 2465V0h3940v4930H0V2465zm3643 2038c-18-2-48-2-65 0-18 2-4 4 32 4s50-2 33-4zm-153-21c-19-9-41-30-48-45-17-35-9-88 17-111 46-42 245-45 296-5 20 17 25 29 25 66 0 38-5 50-32 75l-33 31 32-16c50-26 77-72 78-132 1-112-51-145-243-152-121-4-182-16-182-34 0-54 62-88 127-70 93 26 207-4 251-67 42-58 23-148-38-192-28-20-31-27-28-68 3-48 24-69 30-30 2 18 9 23 33 23 27 0 30-3 30-30s-3-30-36-33c-48-4-69 17-69 70 0 39-1 40-27 32-79-24-187 5-232 62-48 61-46 157 4 190 28 18 33 34 10 34-49 0-92 66-81 123 7 37 24 55 71 80l30 16-40 16c-54 23-75 43-75 73 0 31 55 84 101 99 53 17 67 15 29-5zm217 11c-4-3-10-3-14 0-3 4 0 7 7 7s10-3 7-7zM1565 3400c3-5 4-10 1-10s-8 5-11 10c-3 6-4 10-1 10s8-4 11-10zM527 3273c-4-3-7 0-7 7s3 10 7 7c3-4 3-10 0-14zm1708-1083c3-5 4-10 1-10s-8 5-11 10c-3 6-4 10-1 10s8-4 11-10zm180-210c3-5 4-10 1-10s-8 5-11 10c-3 6-4 10-1 10s8-4 11-10z"/>
    <path d="M3531 4064c-45-57-35-214 16-254 35-27 85-26 120 4 25 22 28 31 31 105 7 136-14 171-97 171-41 0-53-4-70-26z"/>
  </g>
  <g id="layer104" fill="#2e3192" stroke="none">
    <path d="M0 2465V0h3940v4930H0V2465zm3711 2030c24-9 54-26 68-38 51-47 66-137 32-193-32-52-77-66-238-73-116-5-146-10-160-24-16-16-16-18 3-44 22-30 68-44 100-32 34 13 143 10 182-7 118-49 143-169 52-247-40-34-50-68-34-111 9-24 24-19 24 8s26 41 54 30c22-9 21-61-2-73-19-10-58-5-78 11-7 5-15 29-18 53-7 42-8 44-32 35-125-48-290 76-260 195 3 13 20 40 37 60 29 33 30 35 9 35-12 0-35 13-51 29-39 39-40 96-4 140 14 16 35 33 45 36 29 9 24 19-15 34-47 16-65 37-65 71 0 46 64 93 155 113 47 11 156 6 196-8zM1565 3400c3-5 4-10 1-10s-8 5-11 10c-3 6-4 10-1 10s8-4 11-10zM527 3273c-4-3-7 0-7 7s3 10 7 7c3-4 3-10 0-14zm1708-1083c3-5 4-10 1-10s-8 5-11 10c-3 6-4 10-1 10s8-4 11-10zm180-210c3-5 4-10 1-10s-8 5-11 10c-3 6-4 10-1 10s8-4 11-10zm366-876c66-20 138-88 157-150 8-29 12-140 12-378V240h96l-4-40-4-40h-168v40c0 43-9 50-31 24-21-26-101-61-167-74-128-26-263 10-342 89-67 68-94 129-94 221-1 129 59 221 184 279 49 23 67 26 165 26 100 0 116-3 172-29 34-15 70-37 79-47 9-11 21-19 26-19 12 0 10 207-2 252-13 44-66 93-117 107-61 17-219 13-323-9-52-11-97-16-101-12-3 4-9 21-12 39-6 32-6 32 50 43 111 23 149 28 259 29 75 1 128-4 165-15z"/>
  </g>
  <g id="layer105" fill="#0556a8" stroke="none">
    <path d="M0 2465V0h3940v4930H0V2465zm3711 2030c24-9 54-26 68-38 51-47 66-137 32-193-32-52-77-66-238-73-116-5-146-10-160-24-16-16-16-18 3-44 22-30 68-44 100-32 34 13 143 10 182-7 118-49 143-169 52-247-40-34-50-68-34-111 9-24 24-19 24 8s26 41 54 30c22-9 21-61-2-73-19-10-58-5-78 11-7 5-15 29-18 53-7 42-8 44-32 35-125-48-290 76-260 195 3 13 20 40 37 60 29 33 30 35 9 35-12 0-35 13-51 29-39 39-40 96-4 140 14 16 35 33 45 36 29 9 24 19-15 34-47 16-65 37-65 71 0 46 64 93 155 113 47 11 156 6 196-8zM1565 3400c3-5 4-10 1-10s-8 5-11 10c-3 6-4 10-1 10s8-4 11-10zM527 3273c-4-3-7 0-7 7s3 10 7 7c3-4 3-10 0-14zm3003-133c163-17 244-70 293-192 19-47 21-78 25-279 4-247 3-257-51-289-29-18-52-20-232-20-288 0-275-13-275 278v214l29 29c28 28 34 29 117 29 98 0 124-13 124-61 0-39-24-59-71-59-77 0-79-4-79-149 0-97 3-131 14-140 9-8 59-11 152-9l139 3 3 175c4 231-10 275-101 322-35 18-64 22-167 26-141 5-160 13-160 69 0 29 5 36 33 48 38 17 81 18 207 5zm-1295-950c3-5 4-10 1-10s-8 5-11 10c-3 6-4 10-1 10s8-4 11-10zm180-210c3-5 4-10 1-10s-8 5-11 10c-3 6-4 10-1 10s8-4 11-10zm366-876c66-20 138-88 157-150 8-29 12-140 12-378V240h96l-4-40-4-40h-168v40c0 43-9 50-31 24-21-26-101-61-167-74-128-26-263 10-342 89-67 68-94 129-94 221-1 129 59 221 184 279 49 23 67 26 165 26 100 0 116-3 172-29 34-15 70-37 79-47 9-11 21-19 26-19 12 0 10 207-2 252-13 44-66 93-117 107-61 17-219 13-323-9-52-11-97-16-101-12-3 4-9 21-12 39-6 32-6 32 50 43 111 23 149 28 259 29 75 1 128-4 165-15z"/>
  </g>
  <g id="layer106" fill="#c2262c" stroke="none">
    <path d="M0 2465V0h3940v4930H0V2465zm3711 2030c24-9 54-26 68-38 51-47 66-137 32-193-32-52-77-66-238-73-116-5-146-10-160-24-16-16-16-18 3-44 22-30 68-44 100-32 34 13 143 10 182-7 118-49 143-169 52-247-40-34-50-68-34-111 9-24 24-19 24 8s26 41 54 30c22-9 21-61-2-73-19-10-58-5-78 11-7 5-15 29-18 53-7 42-8 44-32 35-125-48-290 76-260 195 3 13 20 40 37 60 29 33 30 35 9 35-12 0-35 13-51 29-39 39-40 96-4 140 14 16 35 33 45 36 29 9 24 19-15 34-47 16-65 37-65 71 0 46 64 93 155 113 47 11 156 6 196-8zm-2630-850c275-41 512-201 721-485 92-125 406-638 608-990 200-351 321-579 322-608 1-39-12-74-25-69-12 3-48 54-99 141-27 45-29 46-76 46-106 0-243 104-360 273-131 189-162 337-72 337 58 0 148-82 280-255 30-38 51-62 47-52s-78 150-166 310c-87 161-207 382-266 492-144 268-236 405-356 530-207 214-392 295-644 282-182-10-308-58-389-148-61-68-80-128-73-236 4-64 2-82-7-73-7 7-11 53-11 128 0 143 17 200 81 271 96 107 253 141 485 106zm2449-505c163-17 244-70 293-192 19-47 21-78 25-279 4-247 3-257-51-289-29-18-52-20-232-20-288 0-275-13-275 278v214l29 29c28 28 34 29 117 29 98 0 124-13 124-61 0-39-24-59-71-59-77 0-79-4-79-149 0-97 3-131 14-140 9-8 59-11 152-9l139 3 3 175c4 231-10 275-101 322-35 18-64 22-167 26-141 5-160 13-160 69 0 29 5 36 33 48 38 17 81 18 207 5zm-749-2036c66-20 138-88 157-150 8-29 12-140 12-378V240h96l-4-40-4-40h-168v40c0 43-9 50-31 24-21-26-101-61-167-74-128-26-263 10-342 89-67 68-94 129-94 221-1 129 59 221 184 279 49 23 67 26 165 26 100 0 116-3 172-29 34-15 70-37 79-47 9-11 21-19 26-19 12 0 10 207-2 252-13 44-66 93-117 107-61 17-219 13-323-9-52-11-97-16-101-12-3 4-9 21-12 39-6 32-6 32 50 43 111 23 149 28 259 29 75 1 128-4 165-15z"/>
  </g>
  <g id="layer107" fill="#662c91" stroke="none">
    <path d="M0 2465V0h3940v4930H0V2465zm647 2271c95-30 143-88 143-173 0-63-27-112-76-137-34-19-58-21-199-22-196-1-185 1-185-28 0-39 19-46 126-44 83 1 107-2 149-21 163-72 182-234 40-329-55-37-67-68-25-65 14 1 41 5 61 9 31 5 39 2 53-17 23-33 20-66-9-94-20-21-34-25-79-25-74 0-107 28-115 94l-6 47-90 2c-107 2-168 28-219 90-26 33-31 48-34 105-4 79 16 120 75 154 33 20 35 23 18 32-10 6-38 28-62 50-73 65-70 137 7 176l42 21-44 22c-41 21-43 24-43 66 0 52 25 76 102 97 65 19 299 12 370-10zm3064-241c24-9 54-26 68-38 51-47 66-137 32-193-32-52-77-66-238-73-116-5-146-10-160-24-16-16-16-18 3-44 22-30 68-44 100-32 34 13 143 10 182-7 118-49 143-169 52-247-40-34-50-68-34-111 9-24 24-19 24 8s26 41 54 30c22-9 21-61-2-73-19-10-58-5-78 11-7 5-15 29-18 53-7 42-8 44-32 35-125-48-290 76-260 195 3 13 20 40 37 60 29 33 30 35 9 35-12 0-35 13-51 29-39 39-40 96-4 140 14 16 35 33 45 36 29 9 24 19-15 34-47 16-65 37-65 71 0 46 64 93 155 113 47 11 156 6 196-8zm-2630-850c275-41 512-201 721-485 92-125 406-638 608-990 200-351 321-579 322-608 1-39-12-74-25-69-12 3-48 54-99 141-27 45-29 46-76 46-106 0-243 104-360 273-131 189-162 337-72 337 58 0 148-82 280-255 30-38 51-62 47-52s-78 150-166 310c-87 161-207 382-266 492-144 268-236 405-356 530-207 214-392 295-644 282-182-10-308-58-389-148-61-68-80-128-73-236 4-64 2-82-7-73-7 7-11 53-11 128 0 143 17 200 81 271 96 107 253 141 485 106zm2449-505c163-17 244-70 293-192 19-47 21-78 25-279 4-247 3-257-51-289-29-18-52-20-232-20-288 0-275-13-275 278v214l29 29c28 28 34 29 117 29 98 0 124-13 124-61 0-39-24-59-71-59-77 0-79-4-79-149 0-97 3-131 14-140 9-8 59-11 152-9l139 3 3 175c4 231-10 275-101 322-35 18-64 22-167 26-141 5-160 13-160 69 0 29 5 36 33 48 38 17 81 18 207 5zm-749-2036c66-20 138-88 157-150 8-29 12-140 12-378V240h96l-4-40-4-40h-168v40c0 43-9 50-31 24-21-26-101-61-167-74-128-26-263 10-342 89-67 68-94 129-94 221-1 129 59 221 184 279 49 23 67 26 165 26 100 0 116-3 172-29 34-15 70-37 79-47 9-11 21-19 26-19 12 0 10 207-2 252-13 44-66 93-117 107-61 17-219 13-323-9-52-11-97-16-101-12-3 4-9 21-12 39-6 32-6 32 50 43 111 23 149 28 259 29 75 1 128-4 165-15z"/>
  </g>
  <g id="layer108" fill="#018eb0" stroke="none">
    <path d="M0 2465V0h3940v4930H0V2465zm647 2271c95-30 143-88 143-173 0-63-27-112-76-137-34-19-58-21-199-22-196-1-185 1-185-28 0-39 19-46 126-44 83 1 107-2 149-21 163-72 182-234 40-329-55-37-67-68-25-65 14 1 41 5 61 9 31 5 39 2 53-17 23-33 20-66-9-94-20-21-34-25-79-25-74 0-107 28-115 94l-6 47-90 2c-107 2-168 28-219 90-26 33-31 48-34 105-4 79 16 120 75 154 33 20 35 23 18 32-10 6-38 28-62 50-73 65-70 137 7 176l42 21-44 22c-41 21-43 24-43 66 0 52 25 76 102 97 65 19 299 12 370-10zm3064-241c24-9 54-26 68-38 51-47 66-137 32-193-32-52-77-66-238-73-116-5-146-10-160-24-16-16-16-18 3-44 22-30 68-44 100-32 34 13 143 10 182-7 118-49 143-169 52-247-40-34-50-68-34-111 9-24 24-19 24 8s26 41 54 30c22-9 21-61-2-73-19-10-58-5-78 11-7 5-15 29-18 53-7 42-8 44-32 35-125-48-290 76-260 195 3 13 20 40 37 60 29 33 30 35 9 35-12 0-35 13-51 29-39 39-40 96-4 140 14 16 35 33 45 36 29 9 24 19-15 34-47 16-65 37-65 71 0 46 64 93 155 113 47 11 156 6 196-8zm-2582-854c78-15 114-28 234-88 167-84 309-212 443-398 93-129 412-649 604-985 200-351 321-579 322-608 1-39-12-74-25-69-12 3-48 54-99 141-27 45-29 46-76 46-106 0-243 104-360 273-131 189-162 337-72 337 58 0 148-82 280-255 30-38 51-62 47-52s-78 150-166 310c-87 161-207 382-266 492-144 268-236 405-356 530-207 214-392 295-644 282-181-10-308-58-388-147-61-68-82-134-74-241 4-62 2-78-6-70-20 20-15 236 6 298 37 105 144 190 269 212 60 11 246 6 327-8zm2434-501c95-14 161-45 207-97 64-73 72-110 79-350 3-117 3-227-1-245-3-18-20-45-37-60l-31-28h-213c-297 0-287-9-287 285v195l34 37c31 34 39 37 99 41 79 5 111-2 137-28 46-46 2-110-74-110-33 0-48-5-54-17-5-10-10-68-11-129-3-148-7-144 158-144 85 0 131 4 139 12 15 15 16 317 1 371-13 48-63 106-109 125-22 9-82 17-159 20-103 4-127 8-142 23-26 26-24 55 6 84 22 23 32 25 107 25 46 0 114-5 151-10zM1771 1823c83-39 143-99 182-181l32-67 3-499c3-585 13-536-110-536-217 0-416 141-552 390-75 139-111 362-72 454 79 190 405 0 603-351l38-68 3 250c4 319-8 384-84 474-48 57-97 76-199 76-80 0-95-3-136-27-26-15-49-36-52-48-14-52-77-23-77 36 0 73 139 137 286 130 54-2 87-10 135-33zm1010-719c66-20 138-88 157-150 8-29 12-140 12-378V240h96l-4-40-4-40h-168v40c0 43-9 50-31 24-21-26-101-61-167-74-128-26-263 10-342 89-67 68-94 129-94 221-1 129 59 221 184 279 49 23 67 26 165 26 100 0 116-3 172-29 34-15 70-37 79-47 9-11 21-19 26-19 12 0 10 207-2 252-13 44-66 93-117 107-61 17-219 13-323-9-52-11-97-16-101-12-3 4-9 21-12 39-6 32-6 32 50 43 111 23 149 28 259 29 75 1 128-4 165-15z"/>
    <path d="M3507 4485c-50-17-66-40-67-92 0-79 41-97 205-91 87 3 99 5 116 27 43 53 16 127-57 157-42 18-147 17-197-1z"/>
    <path d="M3547 4079c-27-16-38-55-38-136 0-105 30-153 96-153 65 0 95 50 95 155 0 71-17 117-49 135-25 13-81 12-104-1z"/>
    <path d="M2145 2220c-10-16 23-129 59-207 47-98 103-178 168-240 58-54 92-67 161-61l38 3-55 92c-70 119-183 270-267 355-63 65-90 80-104 58z"/>
  </g>
  <g id="layer109" fill="#932691" stroke="none">
    <path d="M0 2465V0h3940v4930H0V2465zm647 2271c95-30 143-88 143-173 0-63-27-112-76-137-34-19-58-21-199-22-196-1-185 1-185-28 0-39 19-46 126-44 83 1 107-2 149-21 163-72 182-234 40-329-55-37-67-68-25-65 14 1 41 5 61 9 31 5 39 2 53-17 23-33 20-66-9-94-20-21-34-25-79-25-74 0-107 28-115 94l-6 47-90 2c-107 2-168 28-219 90-26 33-31 48-34 105-4 79 16 120 75 154 33 20 35 23 18 32-10 6-38 28-62 50-73 65-70 137 7 176l42 21-44 22c-41 21-43 24-43 66 0 52 25 76 102 97 65 19 299 12 370-10zm3078-245c95-44 134-149 85-229-31-51-75-64-236-71-174-8-203-23-149-77 24-24 28-25 123-18 113 8 155-2 208-48 67-59 65-150-6-211-40-34-50-68-34-111 9-24 24-19 24 8 0 26 23 40 51 31 26-8 26-61 1-74-19-10-58-5-78 11-7 5-15 29-18 53-7 42-8 44-32 35-70-27-166 1-221 63-53 60-56 128-8 185 30 36 31 42 6 42-31 0-71 56-71 99s20 75 63 102l31 18-36 15c-75 32-90 81-39 130 65 63 247 88 336 47zm-2598-850c109-23 239-78 343-146 99-65 258-226 344-348 171-244 677-1098 866-1462 56-109 61-123 53-155-16-59-36-49-93 48l-53 90-52 5c-82 8-169 58-251 143-116 121-221 290-239 388-10 51 14 86 59 86 49 0 116-57 222-187 111-137 113-139 77-73-33 59-213 392-413 760-152 282-228 395-348 521-199 210-414 303-656 285-313-23-471-160-453-391 6-78-6-103-17-37-16 101-1 246 34 312 44 84 136 149 240 169 81 16 239 12 337-8zm2436-501c95-14 161-45 207-97 64-73 72-110 79-350 3-117 3-227-1-245-3-18-20-45-37-60l-31-28h-213c-297 0-287-9-287 285v195l34 37c31 34 39 37 99 41 79 5 111-2 137-28 46-46 2-110-74-110-33 0-48-5-54-17-5-10-10-68-11-129-3-148-7-144 158-144 85 0 131 4 139 12 15 15 16 317 1 371-13 48-63 106-109 125-22 9-82 17-159 20-103 4-127 8-142 23-26 26-24 55 6 84 22 23 32 25 107 25 46 0 114-5 151-10zM1771 1823c83-39 143-99 182-181l32-67 3-499c3-585 13-536-110-536-217 0-416 141-552 390-75 139-111 362-72 454 79 190 405 0 603-351l38-68 3 250c4 319-8 384-84 474-48 57-97 76-199 76-80 0-95-3-136-27-26-15-49-36-52-48-14-52-77-23-77 36 0 73 139 137 286 130 54-2 87-10 135-33zM655 1365c181-50 311-154 330-264 15-91-46-156-199-208-44-15-112-44-151-63-60-30-70-39-73-64-3-26 9-42 107-136 140-135 170-195 148-300l-7-35 85 2c84 2 85 2 85-22s-3-25-65-25c-51 0-87-8-167-38-132-50-162-55-243-42-85 14-154 49-221 112-73 69-97 124-92 209 3 54 9 73 32 104 52 68 171 106 274 87 28-5 52-7 52-3 0 3-16 19-36 35-41 33-74 82-74 112 0 12 13 39 29 60l28 40-85 22c-212 55-332 145-332 249 0 78 65 136 195 175 75 22 286 18 380-7zm2126-261c66-20 138-88 157-150 8-29 12-140 12-378V240h96l-4-40-4-40h-168v40c0 43-9 50-31 24-21-26-101-61-167-74-128-26-263 10-342 89-67 68-94 129-94 221-1 129 59 221 184 279 49 23 67 26 165 26 100 0 116-3 172-29 34-15 70-37 79-47 9-11 21-19 26-19 12 0 10 207-2 252-13 44-66 93-117 107-61 17-219 13-323-9-52-11-97-16-101-12-3 4-9 21-12 39-6 32-6 32 50 43 111 23 149 28 259 29 75 1 128-4 165-15z"/>
    <path d="M1340 1351c-17-32-11-151 10-229 63-226 237-420 429-476 30-9 68-16 83-16 29 0 29 0 23 48-22 162-97 319-233 486-58 70-162 161-219 190-43 22-80 20-93-3z"/>
  </g>
  <g id="layer110" fill="#bd198e" stroke="none">
    <path d="M0 2465V0h3940v4930H0V2465zm603 2280c37-8 85-24 106-36 106-59 109-229 5-283-34-19-58-21-199-22-196-1-185 1-185-28 0-39 19-46 126-44 83 1 107-2 149-21 163-72 182-234 40-329-55-37-67-68-25-65 14 1 41 5 60 8 45 7 59-3 67-48 4-29 1-40-20-61-22-22-35-26-81-26-74 0-107 28-115 95l-6 49-68-3c-166-6-278 77-279 209 0 61 24 106 76 140 34 22 36 26 20 35-10 5-37 27-61 49-73 65-70 137 7 176l42 21-44 22c-41 21-43 24-43 66 0 52 25 76 102 97 65 17 242 17 326-1zm3122-254c95-44 134-149 85-229-31-51-75-64-236-71-174-8-203-23-149-77 24-24 28-25 123-18 113 8 155-2 208-48 67-59 65-150-6-211-40-34-50-68-34-111 9-24 24-19 24 8 0 26 23 40 51 31 26-8 26-61 1-74-19-10-58-5-78 11-7 5-15 29-18 53-7 42-8 44-32 35-70-27-166 1-221 63-53 60-56 128-8 185 30 36 31 42 6 42-31 0-71 56-71 99s20 75 63 102l31 18-36 15c-75 32-90 81-39 130 65 63 247 88 336 47zm-2598-850c109-23 239-78 343-146 99-65 258-226 344-348 171-244 677-1098 866-1462 56-109 61-123 53-155-16-59-36-49-93 48l-53 90-52 5c-82 8-169 58-251 143-116 121-221 290-239 388-10 51 14 86 59 86 49 0 116-57 222-187 111-137 113-139 77-73-33 59-213 392-413 760-152 282-228 395-348 521-199 210-414 303-656 285-313-23-471-160-453-391 6-78-6-103-17-37-16 101-1 246 34 312 44 84 136 149 240 169 81 16 239 12 337-8zm-90-397c114-39 227-131 359-295 73-90 109-126 144-144 76-39 169-115 236-193 82-96 84-129 3-42-33 36-58 58-54 50 3-8-13 6-37 31-42 45-131 103-147 97-5-2 51-104 125-227 74-124 134-229 134-233s-21-8-46-8c-40 0-51 5-78 33l-32 34-38-33c-22-19-54-36-73-40-47-9-142 17-210 57-95 56-264 228-200 204 9-4 12 16 13 78 1 109 19 145 89 170 35 12 66 16 105 12 48-5 53-4 40 9-8 8-73 37-145 66-176 70-236 103-294 165-52 55-71 100-63 153 9 66 75 88 169 56zm2617-124c67-26 129-77 155-129 36-71 44-140 45-354l1-208-37-35-38-34h-430l-32 29-33 29-3 211-3 210 35 38 34 38h92c84 0 93-2 111-24 42-52 9-102-72-111l-54-5-3-134c-2-101 1-136 10-143 21-13 262-10 276 4 15 15 16 316 2 370-27 96-100 137-240 138-52 0-112 5-132 10-62 18-77 73-30 110 25 21 34 22 157 17 101-4 143-10 189-27zM1771 1827c84-41 143-98 181-175l33-67 3-510c3-473 1-511-15-522-27-21-170-16-244 7-135 42-261 144-353 284-98 150-140 276-140 421-1 142 39 199 137 198 136-2 364-204 484-428l38-70 3 35c2 19 2 145 0 280-5 267-11 302-68 385-55 80-172 119-284 95-48-10-66-20-100-56-47-49-56-52-78-26-32 36-31 59 4 98 78 84 279 110 399 51zm1166-249c-3-7-5-2-5 12s2 19 5 13c2-7 2-19 0-25zM655 1365c181-50 311-154 330-264 15-91-46-156-199-208-44-15-112-44-151-63-60-30-70-39-73-64-3-26 9-42 107-136 140-135 170-195 148-300l-7-35 85 2c84 2 85 2 85-22s-3-25-65-25c-51 0-87-8-167-38-132-50-162-55-243-42-85 14-154 49-221 112-73 69-97 124-92 209 3 54 9 73 32 104 52 68 171 106 274 87 28-5 52-7 52-3 0 3-16 19-36 35-41 33-74 82-74 112 0 12 13 39 29 60l28 40-85 22c-212 55-332 145-332 249 0 78 65 136 195 175 75 22 286 18 380-7zm2832-92c-4-3-10-3-14 0-3 4 0 7 7 7s10-3 7-7zm-706-169c66-20 138-88 157-150 8-29 12-140 12-378V240h96l-4-40-4-40h-168v40c0 43-9 50-31 24-21-26-101-61-167-74-128-26-263 10-342 89-67 68-94 129-94 221-1 129 59 221 184 279 49 23 67 26 165 26 100 0 116-3 172-29 34-15 70-37 79-47 9-11 21-19 26-19 12 0 10 207-2 252-13 44-66 93-117 107-61 17-219 13-323-9-52-11-97-16-101-12-3 4-9 21-12 39-6 32-6 32 50 43 111 23 149 28 259 29 75 1 128-4 165-15z"/>
    <path d="M382 4700c-63-9-84-25-80-59 5-39 45-53 154-52 111 0 148 13 152 54 3 23-2 30-30 41-44 18-131 25-196 16z"/>
    <path d="M421 4261c-24-24-36-95-27-169 8-69 28-102 61-102 32 0 51 37 58 115 12 135-34 214-92 156z"/>
    <path d="M1365 2390c63-65 152-102 199-84 27 11 18 21-30 33-26 7-62 23-80 37s-37 23-42 20-23 4-40 15c-49 29-50 23-7-21z"/>
  </g>
  <g id="layer111" fill="#018fd5" stroke="none">
    <path d="M0 2465V0h3940v4930H0V2465zm604 2280c131-28 186-81 186-182 0-63-27-112-76-137-34-19-58-21-199-22-196-1-185 1-185-28 0-39 19-45 131-44 117 1 152-9 214-63 97-85 84-211-30-287-28-19-50-41-50-50 0-17 2-18 85-6 45 6 59-4 67-49 4-29 1-40-20-61s-36-26-76-26c-90 0-120 25-126 109l-3 34-66-2c-120-4-222 43-263 123-9 18-16 55-16 88 0 66 29 120 76 139 15 6 29 15 32 19 2 4-17 21-43 37-68 42-99 113-72 164 6 10 29 28 51 40l41 20-44 22c-38 19-43 26-46 60-2 21 2 45 9 53 18 21 68 46 109 55 62 12 243 9 314-6zm3121-254c95-44 134-149 85-229-31-51-75-64-236-71-174-8-203-23-149-77 24-24 28-25 123-18 113 8 155-2 208-48 67-59 65-150-6-211-40-34-50-68-34-111 9-24 24-19 24 8 0 26 23 40 51 31 26-8 26-61 1-74-19-10-58-5-78 11-7 5-15 29-18 53-7 42-8 44-32 35-70-27-166 1-221 63-53 60-56 128-8 185 30 36 31 42 6 42-31 0-71 56-71 99s20 75 63 102l31 18-36 15c-75 32-90 81-39 130 65 63 247 88 336 47zm-2598-850c109-23 239-78 343-146 99-65 258-226 344-348 171-244 677-1098 866-1462 56-109 61-123 53-155-16-59-36-49-93 48l-53 90-52 5c-82 8-169 58-251 143-116 121-221 290-239 388-10 51 14 86 59 86 49 0 116-57 222-187 111-137 113-139 77-73-33 59-213 392-413 760-152 282-228 395-348 521-199 210-414 303-656 285-313-23-471-160-453-391 6-78-6-103-17-37-16 101-1 246 34 312 44 84 136 149 240 169 81 16 239 12 337-8zm-90-397c114-39 227-131 359-295 73-90 109-126 144-144 76-39 169-115 236-193 75-88 88-135 15-52-27 30-55 55-61 55-7 0-29 18-49 41-36 40-124 98-140 92-5-2 51-104 125-227 74-124 134-229 134-233s-21-8-46-8c-40 0-51 5-78 33l-32 34-38-33c-22-19-54-36-73-40-47-9-142 17-210 57-95 56-264 228-200 204 9-4 12 16 13 78 1 109 19 145 89 170 35 12 66 16 105 12 48-5 53-4 40 9-8 8-73 37-145 66-176 70-236 103-294 165-75 79-88 162-33 205 30 24 75 25 139 4zm2617-124c67-26 129-77 155-129 36-71 44-140 45-354l1-208-37-35-38-34h-430l-32 29-33 29-3 211-3 210 35 38 34 38h92c84 0 93-2 111-24 42-52 9-102-72-111l-54-5-3-134c-2-101 1-136 10-143 21-13 262-10 276 4 15 15 16 316 2 370-27 96-100 137-240 138-52 0-112 5-132 10-62 18-77 73-30 110 25 21 34 22 157 17 101-4 143-10 189-27zm-236-944c100-46 150-118 171-246 6-36 12-219 14-408l2-342h-57c-55 0-58 1-59 25-1 14-3 30-4 35-1 6-3 15-4 22 0 7-18-4-38-24-46-43-66-54-128-68-60-13-154 2-212 36-57 33-118 106-145 173-29 75-32 231-5 309 72 206 322 279 474 139l43-40v51c0 71-18 145-44 184-50 75-166 104-286 74-36-9-75-24-88-32-28-18-25-21-45 39-16 46-15 48 6 62 46 30 130 45 237 42 91-2 114-7 168-31zm-1647-349c84-41 143-98 181-175l33-67 3-510c3-473 1-511-15-522-27-21-170-16-244 7-135 42-261 144-353 284-98 150-140 276-140 421-1 142 39 199 137 198 136-2 364-204 484-428l38-70 3 35c2 19 2 145 0 280-5 267-11 302-68 385-55 80-172 119-284 95-48-10-66-20-100-56-47-49-56-52-78-26-32 36-31 59 4 98 78 84 279 110 399 51zM655 1365c181-50 311-154 330-264 15-91-46-156-199-208-44-15-112-44-151-63-60-30-70-39-73-64-3-26 9-42 107-136 140-135 170-195 148-300l-7-35 85 2c84 2 85 2 85-22s-3-25-65-25c-51 0-87-8-167-38-132-50-162-55-243-42-85 14-154 49-221 112-73 69-97 124-92 209 3 54 9 73 32 104 52 68 171 106 274 87 28-5 52-7 52-3 0 3-16 19-36 35-41 33-74 82-74 112 0 12 13 39 29 60l28 40-85 22c-212 55-332 145-332 249 0 78 65 136 195 175 75 22 286 18 380-7zm2126-261c66-20 138-88 157-150 8-29 12-140 12-378V240h96l-4-40-4-40h-168v40c0 43-9 50-31 24-21-26-101-61-167-74-128-26-263 10-342 89-67 68-94 129-94 221-1 129 59 221 184 279 49 23 67 26 165 26 100 0 116-3 172-29 34-15 70-37 79-47 9-11 21-19 26-19 12 0 10 207-2 252-13 44-66 93-117 107-61 17-219 13-323-9-52-11-97-16-101-12-3 4-9 21-12 39-6 32-6 32 50 43 111 23 149 28 259 29 75 1 128-4 165-15z"/>
    <path d="M2150 2199c0-141 181-436 293-478 35-14 117-14 117-2 0 49-274 425-354 486-43 33-56 32-56-6z"/>
    <path d="M360 1324c-155-42-205-152-108-239 46-43 153-95 245-120l62-17 93 32c121 42 185 75 199 101 6 12 9 42 6 66-6 52-55 111-121 145-88 45-268 61-376 32z"/>
    <path d="M423 620c-18-10-45-38-60-61-36-54-44-157-19-224 58-150 245-164 317-23 56 110 22 250-75 309-42 25-121 25-163-1z"/>
  </g>
  <g id="layer112" fill="#f46521" stroke="none">
    <path d="M0 2465V0h3940v4930H0V2465zm604 2280c131-28 186-81 186-182 0-63-27-112-76-137-34-19-58-21-199-22-196-1-185 1-185-28 0-39 19-45 131-44 117 1 152-9 214-63 97-85 84-211-30-287-28-19-50-41-50-50 0-17 2-18 85-6 45 6 59-4 67-49 4-29 1-40-20-61s-36-26-76-26c-90 0-120 25-126 109l-3 34-66-2c-120-4-222 43-263 123-9 18-16 55-16 88 0 66 29 120 76 139 15 6 29 15 32 19 2 4-17 21-43 37-68 42-99 113-72 164 6 10 29 28 51 40l41 20-44 22c-38 19-43 26-46 60-2 21 2 45 9 53 18 21 68 46 109 55 62 12 243 9 314-6zm1078-17c67-31 152-107 179-159 61-121 20-240-94-274-37-11-90-15-183-14-83 1-139-3-152-10-31-17-28-54 7-84 24-20 41-25 97-26 121-2 221-69 249-165 20-66 19-112-5-163l-19-43h44c36 0 47-5 69-31 34-40 33-53-4-45-17 3-65 8-108 12-65 5-84 3-113-12-52-27-160-25-227 5-181 81-205 316-42 409l49 28-52 31c-29 17-62 34-74 38-51 15 0 110 73 137 19 6 34 15 34 18s-27 25-61 50c-82 60-99 83-99 137 0 80 50 145 138 179 25 9 69 13 137 11 83-2 109-7 157-29zm2043-237c95-44 134-149 85-229-31-51-75-64-236-71-174-8-203-23-149-77 24-24 28-25 123-18 113 8 155-2 208-48 67-59 65-150-6-211-40-34-50-68-34-111 9-24 24-19 24 8 0 26 23 40 51 31 26-8 26-61 1-74-19-10-58-5-78 11-7 5-15 29-18 53-7 42-8 44-32 35-70-27-166 1-221 63-53 60-56 128-8 185 30 36 31 42 6 42-31 0-71 56-71 99s20 75 63 102l31 18-36 15c-75 32-90 81-39 130 65 63 247 88 336 47zm-2551-860c229-61 437-213 618-451 107-141 515-814 740-1220 224-405 223-403 198-451-19-35-39-20-92 70l-53 89-54 5c-82 9-156 50-242 136-164 165-288 410-234 464 25 26 76 21 121-11 44-32 128-122 187-199 22-29 41-53 44-53 2 0 2 3 0 8-2 4-82 151-177 327-394 730-432 792-569 945-125 140-274 238-426 282-101 28-282 30-389 4-91-22-199-80-241-129-64-74-89-181-66-279 7-29 6-38-4-38-8 0-17 24-24 68-21 120 14 268 82 347 30 36 111 82 176 101 70 20 305 12 405-15zm-137-387c114-39 227-131 359-295 73-90 109-126 144-144 76-39 169-115 236-193 75-88 88-135 15-52-27 30-55 55-61 55-7 0-29 18-49 41-36 40-124 98-140 92-5-2 51-104 125-227 74-124 134-229 134-233s-21-8-46-8c-40 0-51 5-78 33l-32 34-38-33c-22-19-54-36-73-40-47-9-142 17-210 57-95 56-264 228-200 204 9-4 12 16 13 78 1 109 19 145 89 170 35 12 66 16 105 12 48-5 53-4 40 9-8 8-73 37-145 66-176 70-236 103-294 165-75 79-88 162-33 205 30 24 75 25 139 4zm2617-124c67-26 129-77 155-129 36-71 44-140 45-354l1-208-37-35-38-34h-430l-32 29-33 29-3 211-3 210 35 38 34 38h92c84 0 93-2 111-24 42-52 9-102-72-111l-54-5-3-134c-2-101 1-136 10-143 21-13 262-10 276 4 15 15 16 316 2 370-27 96-100 137-240 138-52 0-112 5-132 10-62 18-77 73-30 110 25 21 34 22 157 17 101-4 143-10 189-27zm-236-944c100-46 150-118 171-246 6-36 12-219 14-408l2-342h-57c-55 0-58 1-59 25-1 14-3 30-4 35-1 6-3 15-4 22 0 7-18-4-38-24-46-43-66-54-128-68-60-13-154 2-212 36-57 33-118 106-145 173-29 75-32 231-5 309 72 206 322 279 474 139l43-40v51c0 71-18 145-44 184-50 75-166 104-286 74-36-9-75-24-88-32-28-18-25-21-45 39-16 46-15 48 6 62 46 30 130 45 237 42 91-2 114-7 168-31zm-1647-349c84-41 143-98 181-175l33-67 3-510c3-473 1-511-15-522-27-21-170-16-244 7-135 42-261 144-353 284-98 150-140 276-140 421-1 142 39 199 137 198 136-2 364-204 484-428l38-70 3 35c2 19 2 145 0 280-5 267-11 302-68 385-55 80-172 119-284 95-48-10-66-20-100-56-47-49-56-52-78-26-32 36-31 59 4 98 78 84 279 110 399 51zM675 1360c208-66 328-182 312-300-3-23-12-52-21-65-18-28-98-76-166-102-218-80-240-92-240-134 0-14 41-62 119-138 109-106 120-121 136-175s16-87 0-128c-6-15 3-18 82-20 80-3 88-5 88-23s-9-21-75-26c-54-4-106-18-185-49-104-40-114-42-184-37-135 10-286 107-333 214-24 54-26 149-4 192 42 81 150 128 270 117l69-6-51 54c-62 66-69 105-26 156 15 17 25 32 23 34-2 1-42 12-89 25-172 45-297 125-319 206-27 101 45 180 204 221 80 21 302 12 390-16zm2106-256c66-20 138-88 157-150 8-29 12-140 12-378V240h96l-4-40-4-40h-168v40c0 43-9 50-31 24-21-26-101-61-167-74-128-26-263 10-342 89-67 68-94 129-94 221-1 129 59 221 184 279 49 23 67 26 165 26 100 0 116-3 172-29 34-15 70-37 79-47 9-11 21-19 26-19 12 0 10 207-2 252-13 44-66 93-117 107-61 17-219 13-323-9-52-11-97-16-101-12-3 4-9 21-12 39-6 32-6 32 50 43 111 23 149 28 259 29 75 1 128-4 165-15z"/>
    <path d="M390 4701c-61-9-90-27-90-55 0-43 23-51 155-51s155 8 155 51c0 17-9 27-32 37-42 18-131 26-188 18z"/>
    <path d="M433 4270c-39-16-55-124-32-215 13-53 30-69 63-61 31 8 45 46 47 131 3 87-7 132-31 145-21 11-18 11-47 0z"/>
  </g>
  <g id="layer113" fill="#8cc63d" stroke="none">
    <path d="M0 2465V0h3940v4930H0V2465zm596 2284c75-14 149-54 174-94 27-44 27-138 0-182-36-60-65-68-250-69-91 0-171-3-178-8-17-10-15-41 3-56 10-8 35-10 84-5 129 13 230-27 288-114 56-82 13-199-90-252-26-14-37-26-35-37 4-17 9-18 89-6 66 10 93-57 45-113-21-24-30-27-80-27-71 1-102 21-116 75-6 23-9 47-6 54 3 10-19 14-92 17-103 4-143 18-195 67-43 40-60 80-60 143 0 66 27 115 81 146l34 19-45 26c-107 63-116 172-18 215 30 13 32 16 16 20-11 2-32 13-47 24-22 15-28 27-28 57 0 48 32 79 97 97 60 16 249 18 329 3zm1086-21c67-31 152-107 179-159 61-121 20-240-94-274-37-11-90-15-183-14-83 1-139-3-152-10-31-17-28-54 7-84 24-20 41-25 97-26 121-2 221-69 249-165 20-66 19-112-5-163l-19-43h44c36 0 47-5 69-31 34-40 33-53-4-45-17 3-65 8-108 12-65 5-84 3-113-12-52-27-160-25-227 5-181 81-205 316-42 409l49 28-52 31c-29 17-62 34-74 38-51 15 0 110 73 137 19 6 34 15 34 18s-27 25-61 50c-82 60-99 83-99 137 0 80 50 145 138 179 25 9 69 13 137 11 83-2 109-7 157-29zm2043-237c95-44 134-149 85-229-31-51-75-64-236-71-174-8-203-23-149-77 24-24 28-25 123-18 113 8 155-2 208-48 67-59 65-150-6-211-40-34-50-68-34-111 9-24 24-19 24 8 0 26 23 40 51 31 26-8 26-61 1-74-19-10-58-5-78 11-7 5-15 29-18 53-7 42-8 44-32 35-70-27-166 1-221 63-53 60-56 128-8 185 30 36 31 42 6 42-31 0-71 56-71 99s20 75 63 102l31 18-36 15c-75 32-90 81-39 130 65 63 247 88 336 47zm-2551-860c229-61 437-213 618-451 107-141 515-814 740-1220 224-405 223-403 198-451-19-35-39-20-92 70l-53 89-54 5c-82 9-156 50-242 136-164 165-288 410-234 464 25 26 76 21 121-11 44-32 128-122 187-199 22-29 41-53 44-53 2 0 2 3 0 8-2 4-82 151-177 327-394 730-432 792-569 945-125 140-274 238-426 282-101 28-282 30-389 4-91-22-199-80-241-129-64-74-89-181-66-279 7-29 6-38-4-38-8 0-17 24-24 68-21 120 14 268 82 347 30 36 111 82 176 101 70 20 305 12 405-15zm-137-387c114-39 227-131 359-295 73-90 109-126 144-144 76-39 169-115 236-193 75-88 88-135 15-52-27 30-55 55-61 55-7 0-29 18-49 41-36 40-124 98-140 92-5-2 51-104 125-227 74-124 134-229 134-233s-21-8-46-8c-40 0-51 5-78 33l-32 34-38-33c-22-19-54-36-73-40-47-9-142 17-210 57-95 56-264 228-200 204 9-4 12 16 13 78 1 109 19 145 89 170 35 12 66 16 105 12 48-5 53-4 40 9-8 8-73 37-145 66-176 70-236 103-294 165-75 79-88 162-33 205 30 24 75 25 139 4zm2617-124c67-26 129-77 155-129 36-71 44-140 45-354l1-208-37-35-38-34h-430l-32 29-33 29-3 211-3 210 35 38 34 38h92c84 0 93-2 111-24 42-52 9-102-72-111l-54-5-3-134c-2-101 1-136 10-143 21-13 262-10 276 4 15 15 16 316 2 370-27 96-100 137-240 138-52 0-112 5-132 10-62 18-77 73-30 110 25 21 34 22 157 17 101-4 143-10 189-27zM405 2904c11-5-1-14-41-30-67-27-117-65-160-122-18-22-35-38-38-35-22 22 20 122 66 154 45 32 132 49 173 33zm179-65c21-6 56-27 78-48 32-30 41-46 45-82 9-80-39-115-252-180-122-37-155-61-155-113 0-22 8-40 25-56 31-29 38-23 23 18-11 28-10 34 7 51 11 11 69 34 128 51 137 40 185 60 230 100 46 40 62 93 48 158l-10 47 24-27c57-66 35-179-46-237-36-26-236-101-270-101-27 0-79-33-79-51 0-23 18-32 99-53 120-31 161-87 161-221 0-147-63-220-190-220-126 0-190 73-190 218 0 92 14 131 64 174 20 18 36 34 36 36 0 3-14 10-30 17-41 17-90 75-90 106 0 36 24 77 54 94 14 7 26 17 26 20 0 4-18 19-40 34-55 36-66 68-44 124 41 109 213 179 348 141zm112-597c37-29 57-82 58-147 0-33-6-70-13-82-15-29-4-29 39 1 52 35 75 39 110 21 40-21 38-32-5-27-24 3-46-3-72-18-21-13-51-26-68-30l-30-6 28-19c28-18 29-18 80 3 29 12 67 22 85 22 28 0 35-5 48-35 19-46 9-62-19-30-22 24-23 24-62 8-69-27-116-27-149 0l-30 24-33-20-34-20 24 36c47 70 57 208 21 296-8 18-14 35-14 37 0 9 16 3 36-14zm-473-29c-26-58-23-185 5-247 12-27 22-51 22-54s-18 12-40 33c-54 53-77 126-60 193 13 52 53 112 75 112 12 0 11-7-2-37zm3195-37c100-46 150-118 171-246 6-36 12-219 14-408l2-342h-57c-55 0-58 1-59 25-1 14-3 30-4 35-1 6-3 15-4 22 0 7-18-4-38-24-46-43-66-54-128-68-60-13-154 2-212 36-57 33-118 106-145 173-29 75-32 231-5 309 72 206 322 279 474 139l43-40v51c0 71-18 145-44 184-50 75-166 104-286 74-36-9-75-24-88-32-28-18-25-21-45 39-16 46-15 48 6 62 46 30 130 45 237 42 91-2 114-7 168-31zm-1647-349c84-41 143-98 181-175l33-67 3-510c3-473 1-511-15-522-27-21-170-16-244 7-135 42-261 144-353 284-98 150-140 276-140 421-1 142 39 199 137 198 136-2 364-204 484-428l38-70 3 35c2 19 2 145 0 280-5 267-11 302-68 385-55 80-172 119-284 95-48-10-66-20-100-56-47-49-56-52-78-26-32 36-31 59 4 98 78 84 279 110 399 51zM675 1360c208-66 328-182 312-300-3-23-12-52-21-65-18-28-98-76-166-102-218-80-240-92-240-134 0-14 41-62 119-138 109-106 120-121 136-175s16-87 0-128c-6-15 3-18 82-20 80-3 88-5 88-23s-9-21-75-26c-54-4-106-18-185-49-104-40-114-42-184-37-135 10-286 107-333 214-24 54-26 149-4 192 42 81 150 128 270 117l69-6-51 54c-62 66-69 105-26 156 15 17 25 32 23 34-2 1-42 12-89 25-172 45-297 125-319 206-27 101 45 180 204 221 80 21 302 12 390-16zm2106-256c66-20 138-88 157-150 8-29 12-140 12-378V240h96l-4-40-4-40h-168v40c0 43-9 50-31 24-21-26-101-61-167-74-128-26-263 10-342 89-67 68-94 129-94 221-1 129 59 221 184 279 49 23 67 26 165 26 100 0 116-3 172-29 34-15 70-37 79-47 9-11 21-19 26-19 12 0 10 207-2 252-13 44-66 93-117 107-61 17-219 13-323-9-52-11-97-16-101-12-3 4-9 21-12 39-6 32-6 32 50 43 111 23 149 28 259 29 75 1 128-4 165-15z"/>
    <path d="M425 4256c-30-30-41-113-25-189 13-63 29-82 64-73s49 62 45 170c-3 73-7 90-23 102-27 19-33 18-61-10z"/>
    <path d="M3516 4490c-50-15-76-48-76-97 0-79 41-97 205-91 87 3 99 5 116 27 29 35 25 91-8 123-16 15-41 32-56 37-33 13-140 13-181 1z"/>
    <path d="M3541 4072c-40-32-45-189-8-245 20-31 69-43 110-28 37 14 57 65 57 146 0 71-17 117-49 135-30 16-86 12-110-8z"/>
    <path d="M2489 674c-72-22-145-93-165-160-17-59-13-97 16-154 70-136 281-180 424-89 85 53 120 179 77 275-51 112-213 171-352 128z"/>
  </g>
  <g id="layer114" fill="#f8941d" stroke="none">
    <path d="M0 2465V0h3940v4930H0V2465zm595 2284c80-15 148-51 174-92 28-46 29-139 1-184-36-60-65-68-250-69-91 0-171-3-178-8-16-10-15-41 2-56 11-8 38-9 94-5 102 9 176-11 233-62 52-47 69-81 69-138 0-72-41-130-118-169-22-11-32-23-30-34 4-17 9-18 89-6 59 9 84-34 59-100-17-45-118-56-177-20-23 15-48 86-39 110 4 11-11 14-82 14-103 0-168 25-219 83-78 89-61 220 35 275l34 19-45 26c-104 61-116 166-24 214 22 11 27 18 17 21-8 3-27 14-42 24-22 15-28 27-28 57 0 48 32 79 97 97 60 16 249 18 328 3zm1087-21c67-31 152-107 179-159 61-121 20-240-94-274-37-11-90-15-183-14-83 1-139-3-152-10-31-17-28-54 7-84 24-20 41-25 97-26 121-2 221-69 249-165 20-66 19-112-5-163l-19-43h44c36 0 47-5 69-31 34-40 33-53-4-45-17 3-65 8-108 12-65 5-84 3-113-12-52-27-160-25-227 5-181 81-205 316-42 409l49 28-52 31c-29 17-62 34-74 38-51 15 0 110 73 137 19 6 34 15 34 18s-27 25-61 50c-82 60-99 83-99 137 0 80 50 145 138 179 25 9 69 13 137 11 83-2 109-7 157-29zm2059-241c56-27 83-72 87-142 3-50 0-65-18-88-39-49-74-60-225-67-77-4-148-11-157-15-27-11-22-52 8-71 22-15 35-16 102-6 75 11 113 8 172-16 32-12 80-60 91-90 22-58-3-130-57-165-28-18-34-28-34-58 0-47 27-74 32-32 2 20 9 29 26 31 46 7 69-40 36-72-38-38-114 4-114 63v29l-60-5c-93-9-165 25-209 98-36 58-24 135 26 176 12 9 9 14-20 28-40 19-57 50-57 104 0 43 20 73 64 95l28 14-45 20c-57 25-73 53-57 93 15 35 57 67 113 85 60 19 221 14 268-9zm-2567-856c228-61 442-217 619-452 109-145 518-820 739-1219 224-405 223-403 198-451-19-35-39-20-92 70l-53 89-54 5c-82 9-156 50-242 136-164 165-288 410-234 464 25 26 76 21 121-11 44-32 128-122 187-199 22-29 41-53 44-53 2 0 2 3 0 8-2 4-82 151-177 327-394 730-432 792-569 945-125 140-275 239-426 281-103 29-284 31-390 4-94-23-198-79-240-128-64-74-89-181-66-279 7-29 6-38-4-38-23 0-37 123-25 210 23 167 103 261 260 306 69 20 305 12 404-15zm1206-376c61-32 154-134 262-288 9-13 82-73 162-133 110-82 146-114 146-131 0-12-5-25-10-28-6-4-50 22-98 57-48 36-93 68-101 73-8 4 16-48 52-117 37-69 67-136 67-147 0-22-41-71-59-71-5 0-33 26-62 58-154 165-203 209-257 226-29 10-59 15-67 12-34-13-7-93 45-133 8-6 80-46 159-90 79-43 151-89 159-102 15-22 15-25-7-42-31-25-62-24-144 6-82 28-160 74-227 132-88 78-118 149-99 241 14 70 50 112 96 112 48 0 139-50 213-117 33-30 60-51 60-47 0 3-21 46-46 94-30 55-59 95-80 109-56 39-191 175-223 226s-39 93-19 113c13 13 35 9 78-13zm-1343-11c114-39 227-131 359-295 73-90 109-126 144-144 76-39 169-115 236-193 75-88 88-135 15-52-27 30-55 55-61 55-7 0-29 18-49 41-36 40-124 98-140 92-5-2 51-104 125-227 74-124 134-229 134-233s-21-8-46-8c-40 0-51 5-78 33l-32 34-38-33c-22-19-54-36-73-40-47-9-142 17-210 57-95 56-264 228-200 204 9-4 12 16 13 78 1 109 19 145 89 170 35 12 66 16 105 12 48-5 53-4 40 9-8 8-73 37-145 66-176 70-236 103-294 165-75 79-88 162-33 205 30 24 75 25 139 4zm2617-124c67-26 129-77 155-129 36-71 44-140 45-354l1-208-37-35-38-34h-430l-32 29-33 29-3 211-3 210 35 38 34 38h92c84 0 93-2 111-24 42-52 9-102-72-111l-54-5-3-134c-2-101 1-136 10-143 21-13 262-10 276 4 15 15 16 316 2 370-27 96-100 137-240 138-52 0-112 5-132 10-62 18-77 73-30 110 25 21 34 22 157 17 101-4 143-10 189-27zM405 2904c11-5-1-14-41-30-67-27-117-65-160-122-18-22-35-38-38-35-22 22 20 122 66 154 45 32 132 49 173 33zm179-65c21-6 56-27 78-48 32-30 41-46 45-82 9-80-39-115-252-180-122-37-155-61-155-113 0-22 8-40 25-56 31-29 38-23 23 18-11 28-10 34 7 51 11 11 69 34 128 51 137 40 185 60 230 100 46 40 62 93 48 158l-10 47 24-27c57-66 35-179-46-237-36-26-236-101-270-101-27 0-79-33-79-51 0-23 18-32 99-53 120-31 161-87 161-221 0-147-63-220-190-220-126 0-190 73-190 218 0 92 14 131 64 174 20 18 36 34 36 36 0 3-14 10-30 17-41 17-90 75-90 106 0 36 24 77 54 94 14 7 26 17 26 20 0 4-18 19-40 34-55 36-66 68-44 124 41 109 213 179 348 141zm112-597c37-29 57-82 58-147 0-33-6-70-13-82-15-29-4-29 39 1 52 35 75 39 110 21 40-21 38-32-5-27-24 3-46-3-72-18-21-13-51-26-68-30l-30-6 28-19c28-18 29-18 80 3 29 12 67 22 85 22 28 0 35-5 48-35 19-46 9-62-19-30-22 24-23 24-62 8-69-27-116-27-149 0l-30 24-33-20-34-20 24 36c47 70 57 208 21 296-8 18-14 35-14 37 0 9 16 3 36-14zm-473-29c-26-58-23-185 5-247 12-27 22-51 22-54s-18 12-40 33c-54 53-77 126-60 193 13 52 53 112 75 112 12 0 11-7-2-37zm3195-37c100-46 150-118 171-246 6-36 12-219 14-408l2-342h-57c-55 0-58 1-59 25-1 14-3 30-4 35-1 6-3 15-4 22 0 7-18-4-38-24-46-43-66-54-128-68-60-13-154 2-212 36-57 33-118 106-145 173-29 75-32 231-5 309 72 206 322 279 474 139l43-40v51c0 71-18 145-44 184-50 75-166 104-286 74-36-9-75-24-88-32-28-18-25-21-45 39-16 46-15 48 6 62 46 30 130 45 237 42 91-2 114-7 168-31zm-1647-349c84-41 143-98 181-175l33-67 3-510c3-473 1-511-15-522-27-21-170-16-244 7-135 42-261 144-353 284-98 150-140 276-140 421-1 142 39 199 137 198 136-2 364-204 484-428l38-70 3 35c2 19 2 145 0 280-5 267-11 302-68 385-55 80-172 119-284 95-48-10-66-20-100-56-47-49-56-52-78-26-32 36-31 59 4 98 78 84 279 110 399 51zM675 1360c208-66 328-182 312-300-3-23-12-52-21-65-18-28-98-76-166-102-218-80-240-92-240-134 0-14 41-62 119-138 109-106 120-121 136-175s16-87 0-128c-6-15 3-18 82-20 80-3 88-5 88-23s-9-21-75-26c-54-4-106-18-183-47-159-62-257-53-387 33-108 72-153 145-151 247 1 68 17 103 66 146 50 45 131 66 219 58l69-6-51 54c-62 66-69 105-26 156 15 17 25 32 23 34-2 1-42 12-89 25-172 45-297 125-319 206-27 99 41 174 199 221 73 22 307 12 395-16zm2050-241c65-12 140-46 167-76 9-10 26-39 37-63 19-42 21-65 21-387V251l48-3 47-3 3-42 3-43h-191v36c0 36 0 36-22 20-13-9-48-29-78-43-50-25-66-27-170-27-97-1-122 3-162 21-64 30-134 96-166 158-23 43-27 62-27 135s4 92 27 136c31 60 94 119 153 145 124 55 306 37 415-41l30-21v123c0 144-11 173-82 210-37 19-59 22-158 23-77 0-146-6-207-19-51-11-95-17-98-14s-6 22-8 43c-2 37-1 39 38 47 71 16 218 36 271 37 28 1 77-4 109-10z"/>
    <path d="M333 4685c-47-20-46-60 2-81 46-19 194-19 241 1 47 19 44 53-6 77-44 22-189 24-237 3z"/>
    <path d="M426 4257c-26-26-41-100-31-157 16-99 27-117 69-106 35 9 49 62 45 170-3 73-7 90-23 102-27 19-33 18-60-9z"/>
    <path d="M419 2785c-25-8-66-32-90-53-36-32-43-45-43-75 0-38 31-81 66-93 20-6 187 46 251 78 50 25 66 58 43 92-36 55-141 79-227 51z"/>
    <path d="M395 2260c-92-37-112-228-34-308 49-50 118-55 172-12 55 43 72 183 32 260-30 57-109 86-170 60z"/>
  </g>
  <g id="layer115" fill="#fec20b" stroke="none">
    <path d="M0 2465V0h3940v4930H0V2465zm602 2284c147-31 218-118 188-231-26-97-61-112-280-118-151-4-175-7-178-21-2-9 4-24 13-33 14-14 30-15 94-10 58 5 91 2 134-10 62-18 127-69 153-117 18-36 18-112 0-148-18-34-79-89-113-102-16-6-23-15-21-27 4-17 8-18 89-6 45 7 69-14 69-62 0-64-66-97-148-74-50 13-73 44-75 100l-2 40h-85c-101 0-166 25-217 83-77 88-62 222 31 272l35 19-49 33c-104 70-109 162-12 213l24 12-34 16c-43 22-64 64-49 101 24 57 97 79 258 80 67 1 146-4 175-10zm1080-21c67-31 152-107 179-159 61-121 20-240-94-274-37-11-90-15-183-14-83 1-139-3-152-10-31-17-28-54 7-84 24-20 41-25 97-26 121-2 221-69 249-165 20-66 19-112-5-163l-19-43h44c36 0 47-5 69-31 34-40 33-53-4-45-17 3-65 8-108 12-65 5-84 3-113-12-52-27-160-25-227 5-181 81-205 316-42 409l49 28-52 31c-29 17-62 34-74 38-51 15 0 110 73 137 19 6 34 15 34 18s-27 25-61 50c-82 60-99 83-99 137 0 80 50 145 138 179 25 9 69 13 137 11 83-2 109-7 157-29zm2059-241c56-27 83-72 87-142 3-50 0-65-18-88-39-49-74-60-225-67-77-4-148-11-157-15-27-11-22-52 8-71 22-15 35-16 102-6 75 11 113 8 172-16 32-12 80-60 91-90 22-58-3-130-57-165-28-18-34-28-34-58 0-47 27-74 32-32 2 20 9 29 26 31 46 7 69-40 36-72-38-38-114 4-114 63v29l-60-5c-93-9-165 25-209 98-36 58-24 135 26 176 12 9 9 14-20 28-40 19-57 50-57 104 0 43 20 73 64 95l28 14-45 20c-57 25-73 53-57 93 15 35 57 67 113 85 60 19 221 14 268-9zm-2567-856c228-61 442-217 619-452 109-145 518-820 739-1219 224-405 223-403 198-451-19-35-39-20-92 70l-53 89-54 5c-82 9-156 50-242 136-164 165-288 410-234 464 25 26 76 21 121-11 44-32 128-122 187-199 22-29 41-53 44-53 2 0 2 3 0 8-2 4-82 151-177 327-394 730-432 792-569 945-125 140-275 239-426 281-103 29-284 31-390 4-94-23-198-79-240-128-64-74-89-181-66-279 7-29 6-38-4-38-23 0-37 123-25 210 23 167 103 261 260 306 69 20 305 12 404-15zm1206-376c61-32 154-134 262-288 9-13 82-73 162-133 110-82 146-114 146-131 0-12-5-25-10-28-6-4-50 22-98 57-48 36-93 68-101 73-8 4 16-48 52-117 37-69 67-136 67-147 0-22-41-71-59-71-5 0-33 26-62 58-154 165-203 209-257 226-29 10-59 15-67 12-34-13-7-93 45-133 8-6 80-46 159-90 79-43 151-89 159-102 15-22 15-25-7-42-31-25-62-24-144 6-82 28-160 74-227 132-88 78-118 149-99 241 14 70 50 112 96 112 48 0 139-50 213-117 33-30 60-51 60-47 0 3-21 46-46 94-30 55-59 95-80 109-56 39-191 175-223 226s-39 93-19 113c13 13 35 9 78-13zm-1343-11c114-39 227-131 359-295 73-90 109-126 144-144 76-39 169-115 236-193 75-88 88-135 15-52-27 30-55 55-61 55-7 0-29 18-49 41-36 40-124 98-140 92-5-2 51-104 125-227 74-124 134-229 134-233s-21-8-46-8c-40 0-51 5-78 33l-32 34-38-33c-22-19-54-36-73-40-47-9-142 17-210 57-95 56-264 228-200 204 9-4 12 16 13 78 1 109 19 145 89 170 35 12 66 16 105 12 48-5 53-4 40 9-8 8-73 37-145 66-176 70-236 103-294 165-75 79-88 162-33 205 30 24 75 25 139 4zm2617-124c67-26 129-77 155-129 36-71 44-140 45-354l1-208-37-35-38-34h-430l-32 29-33 29-3 211-3 210 35 38 34 38h92c84 0 93-2 111-24 42-52 9-102-72-111l-54-5-3-134c-2-101 1-136 10-143 21-13 262-10 276 4 15 15 16 316 2 370-27 96-100 137-240 138-52 0-112 5-132 10-62 18-77 73-30 110 25 21 34 22 157 17 101-4 143-10 189-27zM424 2902c2-4-17-16-44-25-72-26-141-76-176-129-35-52-44-52-44-1 0 61 56 135 116 153 37 11 141 12 148 2zm193-77c63-29 93-72 93-131 0-73-45-104-240-164-119-37-164-65-168-103-3-28 21-77 38-77 5 0 6 16 3 35-3 20-1 41 6 49 6 8 64 29 128 47 223 65 283 111 283 220 0 32-4 61-10 64-5 3-10 11-10 16 0 20 38-11 54-45 33-70 15-149-48-204-46-40-82-56-226-98-63-19-121-41-129-49-23-23 8-49 77-63 107-22 157-72 174-173 15-89-1-163-48-217-42-49-87-66-164-60-113 8-174 86-174 223-1 93 24 153 75 184l30 18-44 26c-55 32-77 65-77 113 0 30 7 44 40 75 35 34 37 38 20 44-29 9-80 73-80 101 0 67 89 154 190 185 56 17 153 10 207-16zm75-577c56-40 82-134 59-216-11-38-8-39 44-7 46 29 72 31 103 9 31-21 27-35-8-28-21 5-44-1-80-20-27-14-59-26-71-26-18 0-19-2-9-15 17-21 59-19 115 6 57 25 89 19 110-21 27-53 13-83-19-39-16 23-28 23-104-5-50-19-82-13-112 19l-23 24-25-19c-38-31-41-24-13 32 23 46 26 65 26 153 0 76-4 108-17 134-26 50-23 53 24 19zm-452 3c0-5-7-26-16-47-26-63-22-169 9-237 14-31 22-57 16-57-5 0-27 18-48 39-59 59-77 144-45 219 22 53 84 115 84 83zm3178-75c100-46 150-118 171-246 6-36 12-219 14-408l2-342h-57c-55 0-58 1-59 25-1 14-3 30-4 35-1 6-3 15-4 22 0 7-18-4-38-24-46-43-66-54-128-68-60-13-154 2-212 36-57 33-118 106-145 173-29 75-32 231-5 309 72 206 322 279 474 139l43-40v51c0 71-18 145-44 184-50 75-166 104-286 74-36-9-75-24-88-32-28-18-25-21-45 39-16 46-15 48 6 62 46 30 130 45 237 42 91-2 114-7 168-31zm-1647-349c84-41 143-98 181-175l33-67 3-510c3-473 1-511-15-522-27-21-170-16-244 7-135 42-261 144-353 284-98 150-140 276-140 421-1 142 39 199 137 198 136-2 364-204 484-428l38-70 3 35c2 19 2 145 0 280-5 267-11 302-68 385-55 80-172 119-284 95-48-10-66-20-100-56-47-49-56-52-78-26-32 36-31 59 4 98 78 84 279 110 399 51zM675 1360c208-66 328-182 312-300-3-23-12-52-21-65-18-28-98-76-166-102-218-80-240-92-240-134 0-14 41-62 119-138 109-106 120-121 136-175s16-87 0-128c-6-15 3-18 82-20 80-3 88-5 88-23s-9-21-75-26c-54-4-106-18-183-47-159-62-257-53-387 33-108 72-153 145-151 247 1 68 17 103 66 146 50 45 131 66 219 58l69-6-51 54c-62 66-69 105-26 156 15 17 25 32 23 34-2 1-42 12-89 25-172 45-297 125-319 206-27 99 41 174 199 221 73 22 307 12 395-16zm2050-241c65-12 140-46 167-76 9-10 26-39 37-63 19-42 21-65 21-387V251l48-3 47-3 3-42 3-43h-191v36c0 36 0 36-22 20-13-9-48-29-78-43-50-25-66-27-170-27-97-1-122 3-162 21-64 30-134 96-166 158-23 43-27 62-27 135s4 92 27 136c31 60 94 119 153 145 124 55 306 37 415-41l30-21v123c0 144-11 173-82 210-37 19-59 22-158 23-77 0-146-6-207-19-51-11-95-17-98-14s-6 22-8 43c-2 37-1 39 38 47 71 16 218 36 271 37 28 1 77-4 109-10zm845-205c39-11 65-28 101-65 73-75 84-118 84-324 0-188-7-224-58-281-52-60-100-79-197-79-68 0-93 5-125 22-48 25-96 75-120 122-22 44-30 135-16 187 28 105 132 181 233 172 28-3 54-12 59-19 5-8 9-49 9-91v-78h-39c-44 0-71-26-71-67 0-56 83-85 114-41 23 33 23 276-1 325-23 49-93 70-144 42-19-10-20-7-17 83l3 93 30 6c53 12 100 9 155-7z"/>
  </g>
  <g id="layer116" fill="#fff" stroke="none">
    <path d="M0 2465V0h3940v4930H0V2465zm2880 2351c136-38 247-122 270-205 16-57 12-142-9-186-26-55-95-119-161-149-76-34-212-56-360-57-198-1-262-19-284-82-12-32 7-80 39-97 20-11 36-8 112 18 189 65 343 47 460-52 64-55 96-126 101-224 4-77 2-87-27-147-21-41-49-79-77-102-48-40-52-58-29-108 25-50 84-69 140-43 28 13 32 30 10 48-8 7-15 27-15 45 0 76 96 98 153 35 22-24 27-40 27-79 0-65-30-108-99-143-132-67-317-7-336 109-11 62-7 60-74 49-160-26-336 57-397 189-31 66-33 170-4 234 25 54 25 58-2 65-33 8-96 63-115 99-10 20-16 53-15 86 2 70 34 121 104 160 44 26 49 31 33 37-48 18-103 65-128 112-29 54-36 125-17 193 28 99 157 180 335 210 73 12 301 2 365-15zm-2278-67c147-31 218-118 188-231-26-97-61-112-280-118-151-4-175-7-178-21-2-9 4-24 13-33 14-14 30-15 94-10 58 5 91 2 134-10 62-18 127-69 153-117 18-36 18-112 0-148-18-34-79-89-113-102-16-6-23-15-21-27 4-17 8-18 89-6 45 7 69-14 69-62 0-64-66-97-148-74-50 13-73 44-75 100l-2 40h-85c-101 0-166 25-217 83-77 88-62 222 31 272l35 19-49 33c-104 70-109 162-12 213l24 12-34 16c-43 22-64 64-49 101 24 57 97 79 258 80 67 1 146-4 175-10zm1080-21c67-31 152-107 179-159 61-121 20-240-94-274-37-11-90-15-183-14-83 1-139-3-152-10-31-17-28-54 7-84 24-20 41-25 97-26 121-2 221-69 249-165 20-66 19-112-5-163l-19-43h44c36 0 47-5 69-31 34-40 33-53-4-45-17 3-65 8-108 12-65 5-84 3-113-12-52-27-160-25-227 5-181 81-205 316-42 409l49 28-52 31c-29 17-62 34-74 38-51 15 0 110 73 137 19 6 34 15 34 18s-27 25-61 50c-82 60-99 83-99 137 0 80 50 145 138 179 25 9 69 13 137 11 83-2 109-7 157-29zm2059-241c56-27 83-72 87-142 3-50 0-65-18-88-39-49-74-60-225-67-77-4-148-11-157-15-27-11-22-52 8-71 22-15 35-16 102-6 75 11 113 8 172-16 32-12 80-60 91-90 22-58-3-130-57-165-28-18-34-28-34-58 0-47 27-74 32-32 2 20 9 29 26 31 46 7 69-40 36-72-38-38-114 4-114 63v29l-60-5c-93-9-165 25-209 98-36 58-24 135 26 176 12 9 9 14-20 28-40 19-57 50-57 104 0 43 20 73 64 95l28 14-45 20c-57 25-73 53-57 93 15 35 57 67 113 85 60 19 221 14 268-9zm-2567-856c228-61 442-217 619-452 109-145 518-820 739-1219 224-405 223-403 198-451-19-35-39-20-92 70l-53 89-54 5c-82 9-156 50-242 136-164 165-288 410-234 464 25 26 76 21 121-11 44-32 128-122 187-199 22-29 41-53 44-53 2 0 2 3 0 8-2 4-82 151-177 327-394 730-432 792-569 945-125 140-275 239-426 281-103 29-284 31-390 4-94-23-198-79-240-128-64-74-89-181-66-279 7-29 6-38-4-38-23 0-37 123-25 210 23 167 103 261 260 306 69 20 305 12 404-15zm1206-376c61-32 154-134 262-288 9-13 82-73 162-133 110-82 146-114 146-131 0-12-5-25-10-28-6-4-50 22-98 57-48 36-93 68-101 73-8 4 16-48 52-117 37-69 67-136 67-147 0-22-41-71-59-71-5 0-33 26-62 58-154 165-203 209-257 226-29 10-59 15-67 12-34-13-7-93 45-133 8-6 80-46 159-90 79-43 151-89 159-102 15-22 15-25-7-42-31-25-62-24-144 6-82 28-160 74-227 132-88 78-118 149-99 241 14 70 50 112 96 112 48 0 139-50 213-117 33-30 60-51 60-47 0 3-21 46-46 94-30 55-59 95-80 109-56 39-191 175-223 226s-39 93-19 113c13 13 35 9 78-13zm-1343-11c114-39 227-131 359-295 73-90 109-126 144-144 76-39 169-115 236-193 75-88 88-135 15-52-27 30-55 55-61 55-7 0-29 18-49 41-36 40-124 98-140 92-5-2 51-104 125-227 74-124 134-229 134-233s-21-8-46-8c-40 0-51 5-78 33l-32 34-38-33c-22-19-54-36-73-40-47-9-142 17-210 57-95 56-264 228-200 204 9-4 12 16 13 78 1 109 19 145 89 170 35 12 66 16 105 12 48-5 53-4 40 9-8 8-73 37-145 66-176 70-236 103-294 165-75 79-88 162-33 205 30 24 75 25 139 4zm2617-124c67-26 129-77 155-129 36-71 44-140 45-354l1-208-37-35-38-34h-430l-32 29-33 29-3 211-3 210 35 38 34 38h92c84 0 93-2 111-24 42-52 9-102-72-111l-54-5-3-134c-2-101 1-136 10-143 21-13 262-10 276 4 15 15 16 316 2 370-27 96-100 137-240 138-52 0-112 5-132 10-62 18-77 73-30 110 25 21 34 22 157 17 101-4 143-10 189-27zM424 2902c2-4-17-16-44-25-72-26-141-76-176-129-35-52-44-52-44-1 0 61 56 135 116 153 37 11 141 12 148 2zm193-77c63-29 93-72 93-131 0-73-45-104-240-164-119-37-164-65-168-103-3-28 21-77 38-77 5 0 6 16 3 35-3 20-1 41 6 49 6 8 64 29 128 47 223 65 283 111 283 220 0 32-4 61-10 64-5 3-10 11-10 16 0 20 38-11 54-45 33-70 15-149-48-204-46-40-82-56-226-98-63-19-121-41-129-49-23-23 8-49 77-63 107-22 157-72 174-173 15-89-1-163-48-217-42-49-87-66-164-60-113 8-174 86-174 223-1 93 24 153 75 184l30 18-44 26c-55 32-77 65-77 113 0 30 7 44 40 75 35 34 37 38 20 44-29 9-80 73-80 101 0 67 89 154 190 185 56 17 153 10 207-16zm75-577c56-40 82-134 59-216-11-38-8-39 44-7 46 29 72 31 103 9 31-21 27-35-8-28-21 5-44-1-80-20-27-14-59-26-71-26-18 0-19-2-9-15 17-21 59-19 115 6 57 25 89 19 110-21 27-53 13-83-19-39-16 23-28 23-104-5-50-19-82-13-112 19l-23 24-25-19c-38-31-41-24-13 32 23 46 26 65 26 153 0 76-4 108-17 134-26 50-23 53 24 19zm-452 3c0-5-7-26-16-47-26-63-22-169 9-237 14-31 22-57 16-57-5 0-27 18-48 39-59 59-77 144-45 219 22 53 84 115 84 83zm3178-75c100-46 150-118 171-246 6-36 12-219 14-408l2-342h-57c-55 0-58 1-59 25-1 14-3 30-4 35-1 6-3 15-4 22 0 7-18-4-38-24-46-43-66-54-128-68-60-13-154 2-212 36-57 33-118 106-145 173-29 75-32 231-5 309 72 206 322 279 474 139l43-40v51c0 71-18 145-44 184-50 75-166 104-286 74-36-9-75-24-88-32-28-18-25-21-45 39-16 46-15 48 6 62 46 30 130 45 237 42 91-2 114-7 168-31zm-1647-349c84-41 143-98 181-175l33-67 3-510c3-473 1-511-15-522-27-21-170-16-244 7-135 42-261 144-353 284-98 150-140 276-140 421-1 142 39 199 137 198 136-2 364-204 484-428l38-70 3 35c2 19 2 145 0 280-5 267-11 302-68 385-55 80-172 119-284 95-48-10-66-20-100-56-47-49-56-52-78-26-32 36-31 59 4 98 78 84 279 110 399 51zM675 1360c208-66 328-182 312-300-3-23-12-52-21-65-18-28-98-76-166-102-218-80-240-92-240-134 0-14 41-62 119-138 109-106 120-121 136-175s16-87 0-128c-6-15 3-18 82-20 80-3 88-5 88-23s-9-21-75-26c-54-4-106-18-183-47-159-62-257-53-387 33-108 72-153 145-151 247 1 68 17 103 66 146 50 45 131 66 219 58l69-6-51 54c-62 66-69 105-26 156 15 17 25 32 23 34-2 1-42 12-89 25-172 45-297 125-319 206-27 99 41 174 199 221 73 22 307 12 395-16zm2050-241c65-12 140-46 167-76 9-10 26-39 37-63 19-42 21-65 21-387V251l48-3 47-3 3-42 3-43h-191v36c0 36 0 36-22 20-13-9-48-29-78-43-50-25-66-27-170-27-97-1-122 3-162 21-64 30-134 96-166 158-23 43-27 62-27 135s4 92 27 136c31 60 94 119 153 145 124 55 306 37 415-41l30-21v123c0 144-11 173-82 210-37 19-59 22-158 23-77 0-146-6-207-19-51-11-95-17-98-14s-6 22-8 43c-2 37-1 39 38 47 71 16 218 36 271 37 28 1 77-4 109-10zm845-205c39-11 65-28 101-65 73-75 84-118 84-324 0-188-7-224-58-281-52-60-100-79-197-79-68 0-93 5-125 22-48 25-96 75-120 122-22 44-30 135-16 187 28 105 132 181 233 172 28-3 54-12 59-19 5-8 9-49 9-91v-78h-39c-44 0-71-26-71-67 0-56 83-85 114-41 23 33 23 276-1 325-23 49-93 70-144 42-19-10-20-7-17 83l3 93 30 6c53 12 100 9 155-7z"/>
    <path d="M2471 4678c-140-47-183-157-94-242 116-114 501-110 598 6 74 88 21 194-121 238-95 29-292 28-383-2z"/>
    <path d="M2564 3941c-113-51-143-207-57-296 45-47 95-66 168-66s123 19 168 66c89 92 62 237-55 294-58 28-165 29-224 2z"/>
    <path d="M333 4686c-47-21-46-62 2-82 46-19 194-19 240 0 43 18 46 48 8 73-36 24-204 30-250 9z"/>
    <path d="M425 4255c-23-22-25-32-25-115 0-98 17-150 48-150 45 1 62 45 62 161 0 62-4 81-21 103-25 32-33 32-64 1z"/>
    <path d="M1480 4685c-155-70-153-254 3-296 26-7 72-9 121-5 132 11 176 41 184 126 11 114-59 181-197 187-54 2-86-1-111-12z"/>
    <path d="M1484 4111c-63-38-100-175-74-270 17-62 67-111 114-111 57 0 91 23 120 82 31 63 36 173 10 238-30 75-104 101-170 61z"/>
    <path d="M3520 4489c-53-15-82-52-78-102 5-63 37-81 150-86 51-2 108 2 128 8 92 27 72 149-28 179-46 14-122 14-172 1z"/>
    <path d="M3553 4078c-32-15-46-68-41-155 3-70 6-77 36-104 40-36 73-37 112-1 35 31 48 95 35 177-12 81-73 116-142 83z"/>
    <path d="M2153 2180c20-164 194-429 303-459 41-11 104-15 104-6 0 15-50 100-111 190-118 173-254 325-292 325-6 0-7-20-4-50z"/>
    <path d="M926 3208c-9-12-15-22-13-23 13-4 147 9 147 15 0 11-57 30-91 30-17 0-34-8-43-22z"/>
    <path d="M980 3141c-19-5-26-15-28-38-4-42 45-89 142-137 75-37 216-89 216-79 0 25-155 225-189 242-24 13-112 21-141 12z"/>
    <path d="M1295 2720c-39-44 20-184 122-287 50-51 53-53 107-53 50 0 56 2 56 20 0 29-40 105-93 175-47 63-149 165-165 165-5 0-17-9-27-20z"/>
    <path d="M1365 2390c63-65 152-102 199-84 27 11 18 21-31 33-25 7-57 21-71 32-14 10-32 19-41 19s-31 9-49 20c-49 30-50 24-7-20z"/>
    <path d="M451 2789c-113-22-197-123-148-180 46-55 45-55 180-10s167 66 167 111c0 43-41 69-132 84-13 2-43 0-67-5z"/>
    <path d="M390 2252c-48-24-71-74-71-157 0-105 42-168 121-181 44-7 97 26 122 76 26 50 24 159-3 211-32 64-101 85-169 51z"/>
    <path d="M3223 1791c-91-23-155-123-155-243-1-90 13-143 52-196 37-51 95-82 154-82 58 0 93 14 133 52 50 48 66 111 61 234-4 92-8 108-34 150-44 72-129 106-211 85z"/>
    <path d="M1351 1361c-22-14-25-115-7-201 30-140 131-312 234-398 82-69 219-132 284-132 37 0 15 141-42 267-74 163-250 373-370 441-58 33-76 37-99 23z"/>
    <path d="M392 1330c-90-17-169-71-187-128-10-34 12-87 50-121 42-37 138-83 232-111l72-22 88 33c190 70 213 85 213 148 0 73-84 153-193 186-66 20-206 27-275 15z"/>
    <path d="M426 617c-103-58-128-229-49-335 33-44 72-62 135-62 105 0 171 81 169 205-1 102-32 160-103 196-49 25-104 24-152-4z"/>
    <path d="M2521 680c-23-5-62-21-86-34-84-50-121-118-113-212 6-75 47-129 128-172 55-28 71-32 143-32 65 0 93 5 133 24 145 67 178 244 67 353-64 62-177 92-272 73z"/>
  </g>
</svg>