<svg viewBox="0 0 553 800" fill="none" xmlns="http://www.w3.org/2000/svg">
  <style>
    text{fill:#000;white-space:pre;font-family:Helvetica,sans-serif;font-size:18px;letter-spacing:0}
  </style>
  <rect width="553" height="800" fill="#fff"/>
  <path d="M181 190h-64v-7.7c5.6-.4 10.3-1 14-2.2 3.7-1 5.6-2.4 5.6-4a16 16 0 00-.9-4.9L123 136.8H69.1a304.7 304.7 0 00-8.4 23.6c-1 3.1-1.6 5.6-2 7.6-.3 2-.5 3.5-.5 4.8 0 2.9 2.3 5.1 6.8 6.7a55 55 0 0015.4 2.8v7.7H22.6v-7.7c1.8-.1 4.2-.5 7-1.2a23.9 23.9 0 0013.7-8.9c1.5-2.1 3.1-5.1 4.6-8.9 7.8-19.3 16.3-41 25.6-65l25-64.3h8.6l51.3 132.7c1 2.8 2.3 5 3.7 6.8 1.3 1.8 3.3 3.5 5.7 5.1 1.7 1 3.8 1.9 6.5 2.6 2.7.7 5 1 6.7 1.1v7.7zm-62-62.9L95.7 67.5 73 127.1H119z" fill="#042557"/>
  <path d="M402.4 43.9c-1.8 0-3.9.5-6.3 1.3-2.3.7-4.5 1.7-6.6 3a23 23 0 00-6.1 5.4c-1.6 2-2.9 5-4 8.6l-18 58.5c-6.7 22.3-14 46-22 71.3h-10L290.8 73.6 250.2 192h-9.5l-22.2-78.7L203 58.5a18.4 18.4 0 00-8-10.7 34.7 34.7 0 00-12.9-3.9v-7.7h62.7v7.7c-5.5.3-10.2.8-14 1.6-3.9.8-5.8 2.1-5.8 4l.3 3 .6 2.8c1.6 6.3 4.5 16.8 8.7 31.5l18.9 65.7L292 38.4h10.6L341.3 155c5.2-18 9.7-33.6 13.4-47 3.8-13.4 6.9-24.9 9.4-34.4 1.7-6.7 2.8-11.3 3.2-13.8.4-2.5.7-4.6.7-6.4 0-2.4-1.7-4.5-5.1-6.2a47 47 0 00-16.3-3.3v-7.7h55.8v7.7z" fill="#042557"/>
  <path d="M534.7 144.7l-3 45.3H404.2v-7.7c2.1-.1 5-.4 8.6-.9 3.6-.5 6-1 7-1.5 2.4-1 4-2.5 4.8-4.2 1-1.7 1.5-4 1.5-6.6V58.5c0-2.4-.4-4.5-1.2-6.3-.8-1.9-2.5-3.4-5-4.5a57.6 57.6 0 00-15.7-3.8v-7.7h119v37H515a49.1 49.1 0 00-9.5-17.4c-4.7-6.2-9.3-9.6-13.6-10.2a231.2 231.2 0 00-18.6-.9H449V106h17.4c5.6 0 9.6-.5 12.1-1.5a17 17 0 006.9-5.3c1.6-2.1 2.9-5 4-8.4 1.1-3.5 1.9-6.9 2.2-10h8.2V141h-8.2a46 46 0 00-6.2-19.4 15.6 15.6 0 00-7.7-5.5c-2.9-.9-6.6-1.3-11.3-1.3H449v46.1c0 4.7.4 8.3 1 11 .7 2.7 2 4.7 3.8 6 1.9 1.4 4.5 2.3 7.7 2.8 3.3.3 7.9.5 13.9.5h9.4a61.3 61.3 0 0018.3-2c3-.7 5.1-1.8 6.3-3 3.3-3.6 6.8-8.8 10.4-15.8 3.7-7 6-12.3 7-15.6h7.9z" fill="#042557"/>
  <path d="M181 455h-64v-7.7c5.6-.4 10.3-1 14-2.2 3.7-1 5.6-2.4 5.6-4a16 16 0 00-.9-4.9L123 401.8H69.1a304.7 304.7 0 00-8.4 23.6c-1 3.1-1.6 5.6-2 7.6-.3 2-.5 3.5-.5 4.8 0 2.9 2.3 5.1 6.8 6.7a55 55 0 0015.4 2.8v7.7H22.6v-7.7c1.8-.1 4.2-.5 7-1.2a23.9 23.9 0 0013.7-8.9c1.5-2.1 3.1-5.1 4.6-8.9 7.8-19.3 16.3-41 25.6-65l25-64.3h8.6l51.3 132.7c1 2.8 2.3 5 3.7 6.8 1.3 1.8 3.3 3.5 5.7 5.1 1.7 1 3.8 1.9 6.5 2.6 2.7.7 5 1 6.7 1.1v7.7zm-62-62.9l-23.3-59.6L73 392.1H119z" fill="#042557"/>
  <path d="M380.2 308.9c-1.8 0-3.9.5-6.3 1.3-2.3.7-4.5 1.7-6.6 3a23 23 0 00-6.1 5.4c-1.6 2-2.9 5-4 8.6l-18 58.5c-6.7 22.3-14 46-22 71.3h-10l-38.7-118.4L228 457h-9.5l-22.2-78.7-15.4-54.8a18.4 18.4 0 00-8-10.7 34.7 34.7 0 00-12.9-3.9v-7.7h62.7v7.7c-5.5.3-10.2.8-14 1.6-3.9.8-5.8 2.1-5.8 4l.3 3 .6 2.8c1.6 6.3 4.5 16.8 8.7 31.5l18.9 65.7 38.4-114.1h10.6L319.1 420c5.2-18 9.7-33.6 13.4-47 3.8-13.4 6.9-24.9 9.4-34.4 1.7-6.7 2.8-11.3 3.2-13.8.4-2.5.7-4.6.7-6.4 0-2.4-1.7-4.5-5.1-6.2a47 47 0 00-16.3-3.3v-7.7h55.8v7.7z" fill="#042557"/>
  <path d="M514.7 409.7l-3 45.3H384.2v-7.7c2.1-.1 5-.4 8.7-.9 3.6-.5 6-1 7-1.5 2.3-1 3.9-2.5 4.8-4.2 1-1.7 1.4-4 1.4-6.6V323.5c0-2.4-.4-4.5-1.2-6.3-.8-1.9-2.5-3.4-5-4.5a57.5 57.5 0 00-15.7-3.8v-7.7h119v37H495a49.1 49.1 0 00-9.5-17.4c-4.7-6.2-9.3-9.6-13.6-10.2a230.5 230.5 0 00-18.6-.9H429V371h17.3c5.6 0 9.6-.5 12.2-1.5 2.6-1.1 4.8-2.9 6.8-5.3 1.6-2.1 3-5 4-8.4 1.1-3.5 2-6.9 2.3-10h8.1V406h-8.1a46 46 0 00-6.3-19.4 15.6 15.6 0 00-7.7-5.5c-2.8-.9-6.6-1.3-11.3-1.3h-17.3v46.1c0 4.7.3 8.3 1 11 .6 2.7 1.9 4.7 3.7 6 2 1.4 4.5 2.3 7.7 2.8 3.3.3 8 .5 14 .5h9.3a61.3 61.3 0 0018.3-2c3-.7 5.1-1.8 6.3-3 3.4-3.6 6.8-8.8 10.5-15.8 3.6-7 6-12.3 7-15.6h7.8z" fill="#042557"/>
  <path d="M181 718h-64v-7.7c5.6-.4 10.3-1 14-2.2 3.7-1 5.6-2.4 5.6-4a16 16 0 00-.9-4.9L123 664.8H69.1a304.7 304.7 0 00-8.4 23.6c-1 3.1-1.6 5.6-2 7.6-.3 2-.5 3.5-.5 4.8 0 2.9 2.3 5.1 6.8 6.7a55 55 0 0015.4 2.8v7.7H22.6v-7.7c1.8-.1 4.2-.5 7-1.2a23.9 23.9 0 0013.7-8.9c1.5-2.1 3.1-5.1 4.6-8.9 7.8-19.3 16.3-41 25.6-65l25-64.3h8.6l51.3 132.7a26 26 0 003.7 6.8c1.3 1.8 3.3 3.5 5.7 5.1 1.7 1 3.8 1.9 6.5 2.6 2.7.7 5 1 6.7 1.1v7.7zm-62-62.9l-23.3-59.6L73 655.1H119z" fill="#042557"/>
  <path d="M368.4 571.9c-1.9 0-4 .5-6.3 1.3-2.4.7-4.6 1.7-6.6 3a23 23 0 00-6.2 5.4c-1.5 2-2.9 5-4 8.6l-18 58.5c-6.7 22.3-14 46-22 71.3h-9.9l-38.8-118.4L216.2 720h-9.6l-22.2-78.7-15.4-54.8a18.4 18.4 0 00-8-10.7 34.7 34.7 0 00-12.9-3.9v-7.7h62.7v7.7c-5.4.3-10.1.8-14 1.6-3.9.8-5.8 2.1-5.8 4l.3 3 .6 2.8c1.6 6.3 4.6 16.8 8.8 31.5l18.8 65.7L258 566.4h10.6L307.2 683l13.5-47 9.3-34.4c1.7-6.7 2.8-11.3 3.2-13.8.5-2.5.7-4.6.7-6.4 0-2.4-1.7-4.5-5.1-6.2a47 47 0 00-16.3-3.3v-7.7h55.9v7.7z" fill="#042557"/>
  <path d="M505.8 672.7l-3 45.3H375.3v-7.7c2.2-.1 5-.4 8.7-.9 3.6-.5 6-1 7-1.5 2.3-1 4-2.5 4.8-4.2 1-1.7 1.4-4 1.4-6.6V586.5c0-2.4-.4-4.5-1.2-6.3-.8-1.9-2.5-3.4-5-4.5a57.5 57.5 0 00-15.7-3.8v-7.7h119v37h-8.1a49.1 49.1 0 00-9.4-17.4c-4.8-6.2-9.4-9.6-13.7-10.2a230.5 230.5 0 00-18.6-.9h-24.2V634h17.3c5.6 0 9.6-.5 12.2-1.5 2.6-1.1 4.8-2.9 6.8-5.3 1.6-2.1 3-5 4-8.4 1.2-3.5 2-6.9 2.3-10h8.1V669h-8.1a46 46 0 00-6.3-19.4 15.6 15.6 0 00-7.7-5.5c-2.8-.9-6.6-1.3-11.3-1.3h-17.3v46.1c0 4.7.3 8.3 1 11 .6 2.7 1.9 4.7 3.8 6 1.8 1.4 4.4 2.3 7.7 2.8 3.2.3 7.8.5 13.8.5h9.5a61.3 61.3 0 0018.3-2c3-.7 5-1.8 6.3-3 3.3-3.6 6.8-8.8 10.4-15.8 3.7-7 6-12.3 7-15.6h7.8z" fill="#042557"/>
  <text font-size="18">
    <tspan x="23" y="228.7">No Kerning</tspan>
  </text>
  <text font-size="18">
    <tspan x="23" y="495.7">Automatic Kerning</tspan>
  </text>
  <text font-size="18">
    <tspan x="23" y="762.7">Manually Adjusted</tspan>
  </text>
</svg>