<svg viewBox="0 0 858 178" fill="none" xmlns="http://www.w3.org/2000/svg">
  <rect width="858" height="178" fill="#fff"/>
  <path d="M148.3 82V66.7h-2.8V63h2.8v-1.6c0-2.2.6-3.8 1.9-5 1.2-1.2 3-1.8 5.1-1.8.7 0 1.6.1 2.6.4v4c-.5-.2-1-.2-1.6-.2-2 0-2.9.9-2.9 2.7V63h3.8v3.7h-3.8V82h-5z" fill="#000"/>
  <path d="M165.2 82h-5V63h5v19zm-5.4-24c0-.7.3-1.3.8-1.8s1.2-.8 2-.8c1 0 1.6.3 2.1.8.6.5.8 1.1.8 1.9 0 .7-.3 1.4-.8 1.9-.5.4-1.2.7-2 .7a3 3 0 01-2.1-.7c-.5-.5-.8-1.2-.8-2z" fill="#000"/>
  <path d="M179.7 76.7c0-.6-.3-1-1-1.4-.5-.4-1.5-.7-2.9-1-4.5-1-6.8-2.9-6.8-5.7 0-1.7.7-3.1 2.1-4.3a8.5 8.5 0 015.5-1.7 9 9 0 015.8 1.7 5.4 5.4 0 012.2 4.5h-5c0-.8-.3-1.4-.8-1.8-.4-.5-1.2-.8-2.2-.8a3 3 0 00-2 .6c-.4.4-.7 1-.7 1.5 0 .6.3 1 .8 1.4l2.7.9c1.3.2 2.4.5 3.2.8 2.7 1 4 2.7 4 5.1a5 5 0 01-2.2 4.3 9.7 9.7 0 01-5.7 1.6c-1.6 0-3-.3-4.3-.9a7.2 7.2 0 01-2.9-2.3c-.7-1-1-2.1-1-3.2h4.8c0 .9.3 1.5 1 2a4 4 0 002.5.7c1 0 1.7-.1 2.2-.5.5-.4.7-.9.7-1.5z" fill="#000"/>
  <path d="M194 58.3V63h3.3v3.7H194v9.5c0 .7.2 1.2.4 1.5.3.3.8.5 1.6.5.5 0 1 0 1.5-.2V82c-1 .3-2 .5-3.1.5-3.6 0-5.4-1.8-5.5-5.4V66.7h-2.7V63h2.7v-4.7h5.1z" fill="#000"/>
  <path d="M205.5 82h-5.1V63h5v19zM200 58c0-.7.2-1.3.7-1.8.5-.5 1.2-.8 2.1-.8.9 0 1.6.3 2 .8.6.5.9 1.1.9 1.9 0 .7-.3 1.4-.8 1.9-.5.4-1.2.7-2 .7a3 3 0 01-2.2-.7c-.5-.5-.7-1.2-.7-2z" fill="#000"/>
  <path d="M217.6 78.3c1 0 1.7-.3 2.3-.8.6-.5.9-1.2.9-2h4.7c0 1.2-.3 2.4-1 3.5a7 7 0 01-2.9 2.5 9 9 0 01-4 .9c-2.7 0-4.8-1-6.4-2.6a10.3 10.3 0 01-2.3-7.2v-.3c0-3 .8-5.3 2.3-7a8.2 8.2 0 016.4-2.7 8 8 0 015.7 2 7.1 7.1 0 012.2 5.5h-4.7c0-1-.3-1.8-1-2.4a3 3 0 00-2.3-1A3 3 0 00215 68c-.6.9-1 2.3-1 4.2v.6c0 2 .4 3.3 1 4.2.6.8 1.5 1.3 2.7 1.3z" fill="#000"/>
  <path d="M239.8 80a6.4 6.4 0 01-5.2 2.4c-2 0-3.6-.6-4.6-1.8-1.1-1.2-1.7-2.9-1.7-5.2V63h5.1v12.3c0 2 .9 3 2.7 3 1.7 0 3-.7 3.6-1.9V63h5v19H240l-.2-2z" fill="#000"/>
  <path d="M250 82V66.7H247V63h2.9v-1.6c0-2.2.6-3.8 1.8-5 1.2-1.2 3-1.8 5.2-1.8.7 0 1.5.1 2.5.4v4c-.4-.2-1-.2-1.6-.2-1.9 0-2.8.9-2.8 2.7V63h3.8v3.7H255V82H250z" fill="#000"/>
  <path d="M262.9 82V66.7H260V63h2.9v-1.6c0-2.2.6-3.8 1.8-5 1.2-1.2 3-1.8 5.2-1.8.7 0 1.5.1 2.5.4v4c-.4-.2-1-.2-1.6-.2-1.9 0-2.8.9-2.8 2.7V63h3.8v3.7H268V82h-5.1z" fill="#000"/>
  <path d="M284.7 76.7c0-.6-.3-1-1-1.4-.5-.4-1.5-.7-2.9-1-4.5-1-6.8-2.9-6.8-5.7 0-1.7.7-3.1 2.1-4.3a8.5 8.5 0 015.5-1.7 9 9 0 015.8 1.7 5.4 5.4 0 012.2 4.5h-5.1c0-.8-.2-1.4-.7-1.8-.5-.5-1.2-.8-2.2-.8a3 3 0 00-2 .6c-.5.4-.7 1-.7 1.5 0 .6.3 1 .8 1.4.5.3 1.4.6 2.7.9 1.3.2 2.3.5 3.2.8 2.7 1 4 2.7 4 5.1a5 5 0 01-2.2 4.3 9.7 9.7 0 01-5.8 1.6c-1.6 0-3-.3-4.2-.9a7.2 7.2 0 01-3-2.3c-.6-1-1-2.1-1-3.2h4.8c0 .9.4 1.5 1 2a4 4 0 002.5.7c1 0 1.7-.1 2.2-.5.5-.4.8-.9.8-1.5z" fill="#000"/>
  <path d="M380.2 78.6c.7 0 1.4-.2 2-.4L384 77l2.3 3.2a9.6 9.6 0 01-6.3 2.2c-1.8 0-3.4-.3-4.7-1a7.7 7.7 0 01-3-3.2 10 10 0 01-1.1-4.7c0-1.8.3-3.3 1-4.7a8 8 0 013.1-3.3c1.4-.8 3-1.2 4.8-1.2 1.3 0 2.4.2 3.4.6 1 .3 2 .9 2.8 1.6l-2.2 3-1.8-1a6 6 0 00-2-.3c-1.2 0-2 .4-2.8 1.3-.7.8-1 2.1-1 4 0 1.3.1 2.3.5 3 .3.7.7 1.2 1.3 1.5.6.3 1.2.5 2 .5z" fill="#000"/>
  <path d="M397.8 64.4c1.7 0 3.2.4 4.5 1.2 1.2.7 2.1 1.8 2.8 3.1.6 1.4 1 3 1 4.8 0 2.8-.8 5-2.2 6.6a7.8 7.8 0 01-6.1 2.4c-2.6 0-4.6-.8-6-2.3a9.5 9.5 0 01-2.3-6.7c0-1.8.4-3.4 1-4.7a7.5 7.5 0 017.3-4.4zm0 3.8c-1 0-1.8.4-2.3 1.3-.5.8-.8 2.1-.8 4s.3 3.2.8 4c.5 1 1.3 1.3 2.3 1.3 1 0 1.8-.4 2.3-1.2.5-.9.7-2.2.7-4.1 0-1.9-.2-3.2-.7-4a2.5 2.5 0 00-2.3-1.3z" fill="#000"/>
  <path d="M419.3 57.7l5 .6V82H420l-.3-1.9c-.5.7-1 1.3-1.9 1.7-.8.5-1.7.7-2.8.7-1.4 0-2.6-.3-3.5-1-1-.8-1.6-2-2-3.3a15.4 15.4 0 010-9.4 7.3 7.3 0 012.4-3.2c1-.8 2.2-1.2 3.6-1.2 1.5 0 2.8.6 3.9 1.6v-8.3zm-2.5 10.4c-.9 0-1.6.5-2.1 1.3-.6.8-.8 2.2-.8 4 0 1.5 0 2.6.3 3.4.2.7.5 1.3 1 1.6.3.3.8.4 1.3.4.6 0 1-.1 1.5-.5a5 5 0 001.3-1.4v-7.4l-1.1-1c-.4-.2-.9-.4-1.4-.4z" fill="#000"/>
  <path d="M433.2 75c.2 1.4.6 2.4 1.3 3 .8.6 1.7.9 2.8.9.7 0 1.5-.2 2.2-.4l2.1-1 2 2.7c-.8.7-1.7 1.3-2.9 1.7-1 .4-2.4.6-3.8.6-2 0-3.6-.3-5-1.1a7.5 7.5 0 01-2.9-3.2c-.6-1.4-1-3-1-4.7 0-1.7.4-3.2 1-4.5a7.8 7.8 0 012.8-3.3 8 8 0 014.5-1.3c1.6 0 3 .4 4.2 1a7 7 0 012.8 3 10.2 10.2 0 011 5.7l-.1.9h-11zm3.1-7.2c-.9 0-1.6.4-2.2 1-.5.7-.9 1.7-1 3.1h6.3c0-1.2-.3-2.2-.8-3-.4-.7-1.2-1-2.3-1z" fill="#000"/>
  <path d="M467.6 74v-4h13.9v4h-13.9z" fill="#000"/>
  <path d="M486.8 74v-4h13.9v4h-13.9z" fill="#000"/>
  <path d="M507.8 62.4l12.5 7.7v3.7l-12.5 7.7-2.3-3.4L516 72l-10.4-6 2.3-3.6z" fill="#000"/>
  <path d="M537.3 62.4l2.2 3.5-10.4 6 10.4 6-2.3 3.6-12.5-7.7v-3.6l12.6-7.8z" fill="#000"/>
  <path d="M558.6 66.7v4H544v-4h14.6zm0 6.7v4H544v-4h14.6z" fill="#000"/>
  <path d="M586.3 68.1c0-.9.3-1.7 1-2.3.6-.7 1.4-1 2.4-1 .9 0 1.7.3 2.3 1 .7.6 1 1.4 1 2.3 0 1-.3 1.7-1 2.4a3.3 3.3 0 01-4.8 0c-.6-.7-1-1.5-1-2.4zm0 11c0-.8.3-1.6 1-2.3.6-.6 1.4-1 2.4-1 .9 0 1.7.4 2.3 1 .7.7 1 1.5 1 2.4 0 .9-.3 1.7-1 2.4a3.3 3.3 0 01-4.8 0c-.6-.7-1-1.5-1-2.4z" fill="#000"/>
  <path d="M616.1 66.7v4h-14.5v-4H616zm0 6.7v4h-14.5v-4H616z" fill="#000"/>
  <path d="M642.5 85.6l-4-1.8 13.5-28 4 1.9-13.5 27.9z" fill="#000"/>
  <path d="M673.7 66.7v4H659v-4h14.6zm0 6.7v4H659v-4h14.6z" fill="#000"/>
  <path d="M380.2 144.6c.7 0 1.4-.2 2-.4a11 11 0 001.8-1.1l2.3 3.2a9.6 9.6 0 01-6.3 2.2c-1.8 0-3.4-.3-4.7-1a7.7 7.7 0 01-3-3.2 10 10 0 01-1.1-4.7c0-1.8.3-3.3 1-4.7a8 8 0 013.1-3.3c1.4-.8 3-1.2 4.8-1.2 1.3 0 2.4.2 3.4.6 1 .3 2 .9 2.8 1.6l-2.2 3-1.8-1a6 6 0 00-2-.3c-1.2 0-2 .4-2.8 1.3-.7.8-1 2.1-1 4 0 1.3.1 2.3.5 3 .3.7.7 1.2 1.3 1.5.6.3 1.2.5 2 .5z" fill="#000"/>
  <path d="M397.8 130.4c1.7 0 3.2.4 4.5 1.2 1.2.7 2.1 1.8 2.8 3.1.6 1.4 1 3 1 4.8 0 2.8-.8 5-2.2 6.6a7.8 7.8 0 01-6.1 2.4c-2.6 0-4.6-.8-6-2.3a9.5 9.5 0 01-2.3-6.7c0-1.8.4-3.4 1-4.7a7.5 7.5 0 017.3-4.4zm0 3.8c-1 0-1.8.4-2.3 1.3-.5.8-.8 2.1-.8 4s.3 3.2.8 4c.5 1 1.3 1.3 2.3 1.3 1 0 1.8-.4 2.3-1.2.5-.9.7-2.2.7-4.1 0-1.9-.2-3.2-.7-4a2.5 2.5 0 00-2.3-1.3z" fill="#000"/>
  <path d="M419.3 123.7l5 .6V148H420l-.3-1.9c-.5.7-1 1.3-1.9 1.7-.8.5-1.7.7-2.8.7-1.4 0-2.6-.3-3.5-1-1-.8-1.6-2-2-3.3a15.4 15.4 0 010-9.4 7.3 7.3 0 012.4-3.2c1-.8 2.2-1.2 3.6-1.2 1.5 0 2.8.6 3.9 1.6v-8.3zm-2.5 10.4c-.9 0-1.6.5-2.1 1.3-.6.8-.8 2.2-.8 4 0 1.5 0 2.6.3 3.4.2.7.5 1.3 1 1.6.3.3.8.4 1.3.4.6 0 1-.1 1.5-.5a5 5 0 001.3-1.4v-7.4l-1.1-1c-.4-.2-.9-.4-1.4-.4z" fill="#000"/>
  <path d="M433.2 141c.2 1.4.6 2.4 1.3 3 .8.6 1.7.9 2.8.9.7 0 1.5-.2 2.2-.4l2.1-1 2 2.7c-.8.7-1.7 1.3-2.9 1.7-1 .4-2.4.6-3.8.6-2 0-3.6-.3-5-1.1a7.5 7.5 0 01-2.9-3.2c-.6-1.4-1-3-1-4.7 0-1.7.4-3.2 1-4.5a7.8 7.8 0 012.8-3.3 8 8 0 014.5-1.3c1.6 0 3 .4 4.2 1a7 7 0 012.8 3 10.2 10.2 0 011 5.7l-.1.9h-11zm3.1-7.2c-.9 0-1.6.4-2.2 1-.5.7-.9 1.7-1 3.1h6.3c0-1.2-.3-2.2-.8-3-.4-.7-1.2-1-2.3-1z" fill="#000"/>
  <path d="M509.7 127.2l9.7 10.8-9.7 10.7-3.3-2.8 2.2-2.4a24.7 24.7 0 013.8-3.5h-44v-4h44l-1.9-1.6-1.9-1.9-2.2-2.4 3.3-2.9z" fill="#000"/>
  <path d="M551.3 140.6l-13.6-6 13.6-6-1.6-3.7-17.7 7.9v3.6l17.7 7.8 1.6-3.6zm-1 8.3l-17.7-7.8-1.6 3.6 17.7 7.9 1.6-3.7z" fill="#000"/>
  <path d="M587 134.1c0-.9.3-1.7 1-2.4.6-.6 1.4-1 2.3-1a3.3 3.3 0 013.3 3.4c0 1-.3 1.7-.9 2.4-.6.6-1.4 1-2.4 1-.9 0-1.7-.4-2.3-1-.7-.7-1-1.5-1-2.4zm29.1-1.4v4h-18.7v-4H616zM587 142c0-1 .3-1.7 1-2.4.6-.6 1.4-1 2.3-1 1 0 1.8.4 2.4 1 .6.7 1 1.5 1 2.4a3.3 3.3 0 01-5.7 2.4c-.7-.7-1-1.5-1-2.4zm29.1-2.6v4h-18.7v-4H616z" fill="#000"/>
  <path d="M644 151.6l-3.9-1.8 13.5-28 3.9 1.9-13.4 27.9zm28-18.9v4h-18l2-4h16zm0 6.7v4h-21l1.8-4H672z" fill="#000"/>
  <path d="M153.6 22.6c.7 0 1.2-.2 1.5-.4.4-.3.6-.7.6-1.4s-.3-1.2-.8-1.5l-1-.2h-3.4v3.5h3.1zm-4.5-4.6h4.7c.7 0 1.4 0 1.9.3 1 .4 1.4 1.2 1.4 2.4 0 .6-.1 1-.4 1.4-.2.4-.6.7-1 1 .4.1.7.3.9.6.2.3.3.7.3 1.3v1.3l.1.9c.1.3.3.5.5.6v.2h-1.7l-.1-.3v-.8l-.2-1.7c0-.7-.2-1.1-.7-1.3a3 3 0 00-1.2-.2h-3.1V28H149V18zm12.7 9.2c.8 0 1.4-.3 1.7-1 .3-.5.5-1.2.5-2 0-.7-.2-1.2-.4-1.6-.3-.7-1-1-1.8-1-.7 0-1.3.2-1.6.8a4 4 0 00-.5 2c0 .9.2 1.5.5 2s.9.8 1.6.8zm0-6.7c1 0 1.8.3 2.5 1 .6.5 1 1.5 1 2.7 0 1.2-.3 2.1-1 3-.5.7-1.4 1-2.6 1a3 3 0 01-2.4-1 4 4 0 01-.9-2.7c0-1.2.3-2.2 1-3 .6-.7 1.4-1 2.5-1zm4.8-2.6h1.2v3.7a2.7 2.7 0 012.2-1.1c.9 0 1.6.3 2.2 1 .6.6.9 1.5.9 2.7 0 1.2-.3 2.1-.9 2.9-.5.7-1.3 1.1-2.3 1.1-.6 0-1-.1-1.4-.4l-.8-.7v.9h-1V18zm3.2 9.2c.7 0 1.2-.2 1.5-.7.3-.6.5-1.3.5-2.1s-.2-1.4-.5-2c-.3-.5-.8-.7-1.5-.7a2 2 0 00-1.4.6c-.4.4-.7 1.1-.7 2 0 .7.1 1.3.3 1.7.3.8 1 1.2 1.8 1.2zm7.6.1c.8 0 1.4-.3 1.7-1 .3-.5.4-1.2.4-2 0-.7 0-1.2-.3-1.6-.3-.7-1-1-1.8-1-.7 0-1.3.2-1.6.8a4 4 0 00-.5 2c0 .9.1 1.5.5 2 .3.5.9.8 1.6.8zm0-6.7c1 0 1.8.3 2.4 1 .7.5 1 1.5 1 2.7 0 1.2-.3 2.1-.8 3-.6.7-1.5 1-2.7 1a3 3 0 01-2.4-1 4 4 0 01-.9-2.7c0-1.2.3-2.2 1-3 .6-.7 1.4-1 2.5-1zm5.1-1.9h1.3v2h1.2v1h-1.2v4.9c0 .2 0 .4.2.5h1v1h-.5l-.5.1c-.6 0-1-.1-1.2-.4a2 2 0 01-.3-1.2v-4.8h-1v-1h1v-2zm6.6 8.6c.8 0 1.4-.3 1.7-1 .3-.5.4-1.2.4-2 0-.7 0-1.2-.3-1.6-.3-.7-1-1-1.8-1-.7 0-1.3.2-1.6.8a4 4 0 00-.5 2c0 .9.1 1.5.5 2 .3.5.9.8 1.6.8zm0-6.7c1 0 1.8.3 2.4 1 .7.5 1 1.5 1 2.7 0 1.2-.3 2.1-.8 3-.6.7-1.5 1-2.7 1a3 3 0 01-2.4-1 4 4 0 01-1-2.7c0-1.2.4-2.2 1-3 .7-.7 1.5-1 2.5-1zm12-2.7l-1.4 3c-.3 1-.5 2.2-.5 3.5 0 1.3.2 2.6.6 3.6l1.3 3h-.8a52.7 52.7 0 01-1.7-3.2 9.6 9.6 0 010-6.9c.3-.7.8-1.7 1.7-3h.8zm2.2 7.9c0 .4.1.7.3 1 .3.3.8.5 1.6.5.5 0 .9 0 1.2-.3.3-.2.5-.5.5-.9 0-.3-.1-.5-.4-.7a5 5 0 00-1-.3l-1-.3c-.7-.1-1.1-.3-1.4-.5-.5-.3-.8-.8-.8-1.4 0-.7.2-1.2.7-1.7a3 3 0 012-.6c1.2 0 2 .3 2.4 1 .3.4.5.8.5 1.3h-1.2c0-.3 0-.5-.3-.8-.3-.3-.7-.5-1.4-.5-.5 0-.9.1-1.1.3-.2.2-.4.4-.4.7 0 .3.2.6.5.8l.8.3.8.2c1 .2 1.5.4 1.8.6.5.3.7.8.7 1.5 0 .6-.2 1.2-.7 1.7-.5.4-1.3.7-2.3.7-1 0-1.8-.3-2.3-.8-.4-.5-.7-1-.7-1.8h1.2zm7.2.4c0 .3.1.6.4.8.2.2.5.3.9.3s.9-.1 1.3-.3c.6-.3 1-.9 1-1.6v-1l-.6.2a5 5 0 01-.7.2h-.7l-1 .3c-.4.2-.6.6-.6 1zm3-2.5c.2 0 .4-.2.5-.4l.1-.5c0-.4-.1-.7-.4-.9-.3-.2-.8-.3-1.3-.3-.7 0-1.1.2-1.4.6l-.3.8h-1.1c0-.9.3-1.5.9-1.9.5-.3 1.2-.5 2-.5a4 4 0 012 .5c.5.3.8.8.8 1.5V27l.4.2a2.8 2.8 0 00.4 0v.8l-.4.1h-.4c-.4 0-.8 0-1-.4l-.2-.7c-.2.4-.6.6-1 .9-.5.2-1 .3-1.6.3-.7 0-1.2-.2-1.7-.6a2 2 0 01-.6-1.5c0-.7.2-1.2.6-1.6a3 3 0 011.7-.7l2-.2zm3.8-3h1.2v1.1l1.1-1a3 3 0 011.3-.2c1 0 1.7.4 2.1 1.1.2.4.3 1 .3 1.7V28h-1.2v-4.6l-.2-1c-.3-.6-.7-.8-1.2-.8l-.8.1c-.3.1-.6.3-.8.6-.2.3-.4.5-.4.8l-.1 1V28h-1.3v-7.3zm8.6 5.1c0 .4.1.7.3 1 .3.3.8.5 1.6.5.4 0 .8 0 1.2-.3.3-.2.5-.5.5-.9 0-.3-.1-.5-.4-.7a5 5 0 00-1-.3l-1-.3c-.7-.1-1.1-.3-1.4-.5-.6-.3-.8-.8-.8-1.4 0-.7.2-1.2.7-1.7a3 3 0 012-.6c1.1 0 2 .3 2.4 1 .3.4.5.8.5 1.3h-1.2c0-.3-.1-.5-.3-.8-.3-.3-.8-.5-1.5-.5-.4 0-.8.1-1 .3-.2.2-.4.4-.4.7 0 .3.2.6.5.8l.8.3.8.2c1 .2 1.5.4 1.8.6.5.3.7.8.7 1.5 0 .6-.2 1.2-.7 1.7-.5.4-1.3.7-2.3.7-1 0-1.8-.3-2.3-.8-.4-.5-.7-1-.7-1.8h1.2zm6-2.2h3.3v1.2h-3.4v-1.2zm5.6 2.2c0 .4.2.7.3 1 .3.3.9.5 1.6.5.5 0 .9 0 1.2-.3.4-.2.6-.5.6-.9 0-.3-.2-.5-.5-.7a5 5 0 00-1-.3l-1-.3c-.6-.1-1-.3-1.4-.5-.5-.3-.8-.8-.8-1.4 0-.7.3-1.2.8-1.7a3 3 0 012-.6c1.1 0 2 .3 2.4 1 .3.4.4.8.4 1.3H241c0-.3-.1-.5-.3-.8-.3-.3-.8-.5-1.5-.5-.5 0-.8.1-1 .3-.3.2-.4.4-.4.7 0 .3.2.6.5.8l.8.3.8.2 1.8.6c.4.3.7.8.7 1.5 0 .6-.3 1.2-.8 1.7-.5.4-1.2.7-2.2.7-1.1 0-1.9-.3-2.3-.8-.5-.5-.7-1-.8-1.8h1.2zm9.3-5.2a3.3 3.3 0 012.7 1.3l.5 1.3v1.6h-5.3c0 .8.2 1.4.5 1.8.4.5.9.7 1.6.7a2 2 0 002-1.5h1.2c0 .3-.2.6-.4 1l-.6.7c-.3.4-.8.6-1.3.8h-1a3 3 0 01-2.4-1c-.6-.6-1-1.5-1-2.7 0-1.2.4-2.2 1-2.9.7-.7 1.5-1 2.5-1zm2 3.3c0-.6-.2-1-.3-1.3-.4-.6-1-1-1.7-1-.6 0-1 .3-1.5.7-.3.4-.5 1-.6 1.6h4.1zm2.8-3.1h1.2v1.2c0-.2.3-.5.7-.9a1.8 1.8 0 011.4-.5h.3v1.3a1.9 1.9 0 00-.4 0c-.6 0-1.1.2-1.5.6a2 2 0 00-.5 1.4V28h-1.2v-7.3zm4.6 0h1.3V28h-1.3v-7.3zm0-2.7h1.3v1.4h-1.3V18zm3.5 1.6c0-.5 0-1 .2-1.2.3-.4.9-.6 1.7-.6a4.3 4.3 0 01.5 0V19a4.4 4.4 0 00-.4 0c-.4 0-.6 0-.7.2l-.1 1.5h1.2v1H261V28h-1.2v-6.3h-1v-1h1v-1.1zm3.1 11.3c.8-1.5 1.2-2.5 1.4-3.1.4-1 .5-2.2.5-3.5 0-1.3-.2-2.5-.5-3.6l-1.4-3h.8a66 66 0 011.8 3.3 8.6 8.6 0 01.6 3.2c0 1.4-.2 2.6-.6 3.7l-1.7 3h-.9z" fill="#979797"/>
  <path d="M14 67h1.7l5 8v-8H22v10h-1.5l-5.1-8.1V77H14V67zm13 9.2c.7 0 1.3-.3 1.6-1 .3-.5.5-1.2.5-2 0-.7-.2-1.2-.4-1.6-.3-.7-1-1-1.8-1-.7 0-1.3.2-1.6.8a4 4 0 00-.5 2c0 .9.2 1.5.5 2s.9.8 1.6.8zm0-6.7c1 0 1.7.3 2.4 1 .6.5 1 1.5 1 2.7 0 1.2-.3 2.1-1 3-.5.7-1.4 1-2.6 1a3 3 0 01-2.4-1 4 4 0 01-.9-2.7c0-1.2.3-2.2 1-3 .6-.7 1.4-1 2.5-1zm8.7-2.5H37v10h-1.3V67zm3.1 2.7h1.3V77h-1.3v-7.3zm0-2.7h1.3v1.4h-1.3V67zm5.7 2.5c.6 0 1.1.2 1.5.5.3.1.5.4.7.7v-1H48v6.7a5 5 0 01-.4 2.2c-.5 1-1.5 1.5-3 1.5-.7 0-1.4-.2-2-.5-.5-.4-.8-1-.8-1.7h1.2c0 .3.2.6.4.8.3.2.7.4 1.3.4 1 0 1.6-.4 1.9-1l.2-2.1c-.3.4-.5.6-.9.8a3 3 0 01-1.4.3 3 3 0 01-2-.9c-.6-.5-1-1.4-1-2.7 0-1.3.4-2.2 1-3 .6-.6 1.3-1 2.1-1zm2.2 3.8c0-.9-.1-1.6-.5-2-.4-.4-.9-.7-1.4-.7-1 0-1.5.4-1.8 1.3-.2.4-.3 1-.3 1.7 0 .8.2 1.4.5 1.8.4.5.8.7 1.4.7.9 0 1.5-.4 1.8-1.2.2-.5.3-1 .3-1.6zm4 1.8c0 .3.1.6.4.8.2.2.5.3.9.3l1.3-.3c.6-.3 1-.9 1-1.6v-1l-.6.2a5 5 0 01-.7.2h-.7l-1 .3c-.4.2-.6.6-.6 1zm3-2.5c.2 0 .4-.2.5-.4l.1-.5c0-.4-.1-.7-.4-.9-.3-.2-.8-.3-1.3-.3-.7 0-1.1.2-1.4.6l-.3.8h-1.1c0-.9.3-1.5.8-1.9.6-.3 1.3-.5 2-.5a4 4 0 012.1.5c.5.3.8.8.8 1.5V76l.4.2a2.8 2.8 0 00.4 0v.8l-.4.1h-.4c-.5 0-.8 0-1-.4l-.2-.7c-.2.4-.6.6-1 .9-.5.2-1 .3-1.6.3-.7 0-1.2-.2-1.7-.6a2 2 0 01-.6-1.5c0-.7.2-1.2.6-1.6a3 3 0 011.7-.7l2-.2zm4-5H59v2h1.2v1H59v4.9c0 .2.1.4.3.5H60.2v1h-.5l-.4.1c-.6 0-1-.1-1.2-.4a2 2 0 01-.3-1.2v-4.8h-1v-1h1v-2zm5 2v5l.1.9c.3.4.7.6 1.3.6.8 0 1.4-.4 1.7-1.1.2-.4.3-1 .3-1.7v-3.6h1.2V77H66v-1l-.6.6c-.4.4-1 .6-1.7.6-1 0-1.7-.4-2-1-.3-.4-.4-1-.4-1.5v-5h1.3zm6.6 0h1.1V71l.7-.9a1.8 1.8 0 011.4-.5h.3v1.3a1.8 1.8 0 00-.4 0c-.6 0-1 .2-1.4.6a2 2 0 00-.5 1.4V77h-1.2v-7.3zm7.6 0a3.3 3.3 0 012.7 1.2c.2.4.4.8.4 1.3l.2 1.6h-5.4c0 .8.2 1.4.5 1.8.3.5.9.7 1.5.7a2 2 0 002-1.5h1.3c0 .3-.2.6-.4 1l-.6.7c-.3.4-.8.6-1.4.8h-1a3 3 0 01-2.3-1c-.6-.6-1-1.5-1-2.7 0-1.2.4-2.2 1-2.9.7-.7 1.5-1 2.5-1zm2 3.2c0-.6-.2-1-.4-1.3-.3-.6-.9-1-1.6-1-.6 0-1 .3-1.5.7-.4.4-.6 1-.6 1.6h4zm3.5 1.9c0 .4.1.7.3 1 .3.3.9.5 1.6.5.5 0 .9 0 1.2-.3.4-.2.5-.5.5-.9 0-.3 0-.5-.4-.7a5 5 0 00-1-.3l-1-.3c-.6-.1-1-.3-1.4-.5-.5-.3-.8-.8-.8-1.4 0-.7.3-1.2.8-1.7a3 3 0 012-.6c1 0 1.9.3 2.4 1 .3.4.4.8.4 1.3H86c0-.3-.2-.5-.3-.8-.3-.3-.8-.5-1.5-.5-.5 0-.8.1-1 .3-.3.2-.4.4-.4.7 0 .3.1.6.5.8l.8.3.8.2c.9.2 1.4.4 1.7.6.5.3.8.8.8 1.5 0 .6-.3 1.2-.8 1.7-.5.4-1.2.7-2.2.7-1.1 0-1.9-.3-2.4-.8-.4-.5-.6-1-.7-1.8h1.2z" fill="#979797"/>
  <path d="M14 127h1.4v8.8h5.1v1.2h-6.4v-10zm7.7 2.7h1.2v7.3h-1.2v-7.3zm0-2.7h1.2v1.4h-1.2V127zm5.7 2.5c.6 0 1 .2 1.5.5l.7.7v-1h1.1v6.7a5 5 0 01-.4 2.2c-.5 1-1.4 1.5-2.9 1.5-.7 0-1.4-.2-2-.5-.5-.4-.8-1-.8-1.7h1.2c0 .3.2.6.4.8.2.2.7.4 1.3.4 1 0 1.5-.4 1.8-1 .2-.4.3-1.1.3-2.1-.3.4-.6.6-1 .8a3 3 0 01-1.3.3 3 3 0 01-2-.9c-.7-.5-1-1.4-1-2.7 0-1.3.3-2.2 1-3 .5-.6 1.2-1 2.1-1zm2.2 3.8c0-.9-.2-1.6-.5-2-.4-.4-.9-.7-1.5-.7-.8 0-1.4.4-1.8 1.3l-.2 1.7c0 .8.2 1.4.5 1.8.3.5.8.7 1.3.7 1 0 1.6-.4 2-1.2l.2-1.6zm4 1.8c0 .3 0 .6.3.8.3.2.6.3 1 .3l1.2-.3c.7-.3 1-.9 1-1.6v-1l-.5.2a5 5 0 01-.7.2H35l-1 .3c-.4.2-.6.6-.6 1zm3-2.5c.2 0 .4-.2.5-.4v-.5c0-.4 0-.7-.4-.9-.3-.2-.7-.3-1.3-.3-.6 0-1 .2-1.3.6-.2.2-.3.4-.3.8h-1.2c0-.9.4-1.5 1-1.9.5-.3 1.1-.5 1.9-.5a4 4 0 012 .5c.6.3.9.8.9 1.5V136.1h.4a2.5 2.5 0 00.4 0v1h-.9c-.4 0-.7 0-.9-.4l-.2-.7c-.2.4-.6.6-1 .9-.5.2-1 .3-1.6.3-.7 0-1.3-.2-1.7-.6a2 2 0 01-.6-1.5c0-.7.2-1.2.6-1.6a3 3 0 011.7-.7l2-.2zm4-5H42v2H43v1h-1.2v4.9c0 .2 0 .4.2.5h1v1h-.5l-.5.1c-.6 0-1-.1-1.1-.4a2 2 0 01-.4-1.2v-4.8h-1v-1h1v-2zm5 2v5l.1.9c.2.4.6.6 1.2.6.9 0 1.5-.4 1.8-1.1l.2-1.7v-3.6h1.3v7.3H49v-1l-.6.6c-.5.4-1 .6-1.7.6-1 0-1.7-.3-2.1-1-.2-.4-.3-1-.3-1.5v-5h1.2zm6.5 0h1.2v1.3c0-.2.3-.5.7-.9a1.8 1.8 0 011.4-.5h.3v1.3a1.9 1.9 0 00-.4 0c-.6 0-1.1.2-1.4.6a2 2 0 00-.5 1.4v4.2H52v-7.3zm7.7 0a3.3 3.3 0 012.6 1.2c.3.4.4.8.5 1.3l.1 1.6h-5.3c0 .8.2 1.4.5 1.8.3.5.8.7 1.5.7a2 2 0 002-1.5H63l-.3 1-.6.7c-.4.4-.8.6-1.4.8h-1a3 3 0 01-2.3-1c-.6-.6-1-1.5-1-2.7 0-1.2.4-2.2 1-2.9.6-.7 1.5-1 2.5-1zm2 3.2c0-.6-.2-1-.4-1.3-.3-.6-.9-1-1.7-1-.5 0-1 .3-1.4.7-.4.4-.6 1-.6 1.6h4zm3.5 1.9c0 .4.1.7.3 1 .3.3.8.5 1.6.5.5 0 .9 0 1.2-.3.3-.2.5-.5.5-.9 0-.3-.1-.5-.4-.7l-1-.3-1-.3c-.7-.1-1.1-.3-1.4-.5-.5-.3-.8-.8-.8-1.4 0-.7.2-1.2.7-1.7a3 3 0 012-.6c1.2 0 2 .3 2.4 1 .3.4.5.8.5 1.3h-1.2c0-.3 0-.5-.3-.8-.2-.3-.7-.5-1.4-.5-.5 0-.9.1-1.1.3-.2.2-.4.4-.4.7 0 .3.2.6.5.8l.8.3.8.2c1 .2 1.5.4 1.8.6.5.3.7.8.7 1.5 0 .6-.2 1.2-.7 1.7-.5.4-1.3.7-2.3.7-1 0-1.8-.3-2.3-.8-.4-.5-.7-1-.7-1.8h1.2z" fill="#979797"/>
  <path d="M370.2 18h7v1.2h-5.6v3h4.9v1.2h-5V28h-1.3V18zm8.3 2.7h1.2V28h-1.2v-7.3zm0-2.7h1.2v1.4h-1.2V18zm3.1 2.7h1.2v1.2c0-.2.3-.5.7-.9a1.8 1.8 0 011.4-.5h.3v1.3a1.8 1.8 0 00-.4 0c-.6 0-1.1.2-1.5.6a2 2 0 00-.5 1.4V28h-1.2v-7.3zm5.6 5.4c0 .3.1.6.4.8.2.2.5.3.9.3l1.3-.3c.6-.3 1-.9 1-1.6v-1l-.6.2a5 5 0 01-.7.2h-.7l-1 .3c-.4.2-.6.6-.6 1zm3-2.5c.2 0 .4-.2.5-.4l.1-.5c0-.4-.1-.7-.4-.9-.3-.2-.8-.3-1.3-.3-.7 0-1.1.2-1.4.6l-.3.8h-1.1c0-.9.3-1.5.8-1.9.6-.3 1.3-.5 2-.5a4 4 0 012.1.5c.5.3.8.8.8 1.5V27l.4.2a2.8 2.8 0 00.4 0v.8l-.4.1h-.4c-.4 0-.8 0-1-.4l-.2-.7c-.2.4-.6.6-1 .9-.5.2-1 .3-1.6.3-.7 0-1.2-.2-1.7-.6a2 2 0 01-.6-1.5c0-.7.2-1.2.6-1.6a3 3 0 011.7-.7l2-.2zm12.1-6c1.3 0 2.3.4 3 1 .7.8 1 1.5 1.2 2.4H405c-.1-.7-.4-1.2-.9-1.6-.4-.3-1-.5-1.9-.5a3 3 0 00-2.4 1c-.6.7-.9 1.8-.9 3.2 0 1.2.3 2.1.9 2.9.5.7 1.3 1 2.4 1 1 0 1.8-.3 2.3-1 .3-.5.5-1 .6-1.7h1.4c-.2 1-.6 2-1.2 2.7-.8.8-1.9 1.3-3.3 1.3-1.1 0-2.1-.4-2.9-1.1-1-1-1.6-2.4-1.6-4.3 0-1.5.4-2.7 1.2-3.7.9-1 2-1.5 3.5-1.5zm8.7 9.6c.8 0 1.3-.3 1.6-1 .3-.5.5-1.2.5-2 0-.7-.1-1.2-.3-1.6-.4-.7-1-1-1.8-1s-1.3.2-1.7.8a4 4 0 00-.5 2c0 .9.2 1.5.5 2 .4.5 1 .8 1.7.8zm0-6.7c1 0 1.7.3 2.4 1 .6.5 1 1.5 1 2.7 0 1.2-.3 2.1-.9 3-.6.7-1.5 1-2.7 1a3 3 0 01-2.4-1 4 4 0 01-.9-2.7c0-1.2.4-2.2 1-3 .6-.7 1.4-1 2.5-1zm5.6 4c0 .7.2 1.4.5 1.9.4.5.9.8 1.6.8.6 0 1-.3 1.4-.7.4-.5.6-1.2.6-2.2 0-.9-.2-1.6-.6-2-.4-.5-.8-.7-1.4-.7-.6 0-1.1.3-1.5.7-.4.5-.6 1.2-.6 2.1zm1.9-4c.5 0 1 .2 1.4.4l.7.7V18h1.2V28h-1.1v-1c-.3.4-.6.8-1 1a3 3 0 01-1.4.3c-.8 0-1.5-.4-2-1a4 4 0 01-1-2.8c0-1 .3-2 .8-2.8.6-.8 1.4-1.2 2.4-1.2zm8.2 0a3.3 3.3 0 012.6 1.3c.3.4.4.8.5 1.3l.1 1.6h-5.4c0 .8.2 1.4.6 1.8.3.5.8.7 1.5.7a2 2 0 002-1.5h1.2l-.3 1-.6.7c-.4.4-.9.6-1.4.8h-1a3 3 0 01-2.3-1c-.7-.6-1-1.5-1-2.7 0-1.2.3-2.2 1-2.9.6-.7 1.5-1 2.5-1zm2 3.3c-.1-.6-.2-1-.4-1.3-.3-.6-1-1-1.7-1-.6 0-1 .3-1.4.7-.4.4-.6 1-.6 1.6h4zm9.9-6a11.2 11.2 0 00-1.9 6.5c0 1.3.2 2.6.5 3.6l1.4 3h-.8a50 50 0 01-1.8-3.2 9.6 9.6 0 010-6.9l1.7-3h.9zm1.4 2.9h1.2v1l.8-.8c.4-.2.9-.4 1.4-.4.6 0 1 .2 1.4.4l.5.8c.3-.4.6-.7 1-.9l1.2-.3c1 0 1.7.4 2 1 .2.5.3 1 .3 1.6V28h-1.2v-5c0-.6-.2-1-.4-1-.3-.3-.6-.4-.9-.4-.5 0-.9.2-1.3.5-.3.3-.5.9-.5 1.6V28h-1.2v-4.8c0-.5 0-.8-.2-1-.2-.4-.5-.6-1-.6s-1 .2-1.3.6c-.4.3-.6 1-.6 2V28H440v-7.3zm14.6 6.5c.8 0 1.3-.3 1.6-1 .3-.5.5-1.2.5-2 0-.7-.1-1.2-.3-1.6-.4-.7-1-1-1.8-1s-1.3.2-1.7.8a4 4 0 00-.5 2c0 .9.2 1.5.5 2 .4.5 1 .8 1.7.8zm0-6.7c1 0 1.7.3 2.4 1 .6.5 1 1.5 1 2.7 0 1.2-.3 2.1-.9 3-.6.7-1.5 1-2.7 1a3 3 0 01-2.4-1 4 4 0 01-.9-2.7c0-1.2.4-2.2 1-3 .6-.7 1.4-1 2.5-1zm4.8.2h1.2v1l1.1-1a3 3 0 011.3-.2c1 0 1.7.4 2.1 1.1.2.4.3 1 .3 1.7V28h-1.2v-4.6l-.2-1c-.3-.6-.7-.8-1.2-.8l-.7.1c-.4.1-.7.3-1 .6-.1.3-.3.5-.3.8l-.1 1V28h-1.3v-7.3zm10.7 6.5c.9 0 1.4-.3 1.7-1 .3-.5.5-1.2.5-2 0-.7-.1-1.2-.4-1.6-.3-.7-.9-1-1.7-1-.8 0-1.3.2-1.7.8a4 4 0 00-.5 2c0 .9.2 1.5.5 2 .4.5.9.8 1.6.8zm0-6.7c1 0 1.8.3 2.5 1 .6.5 1 1.5 1 2.7 0 1.2-.3 2.1-1 3-.5.7-1.4 1-2.6 1a3 3 0 01-2.4-1 4 4 0 01-.9-2.7c0-1.2.3-2.2 1-3 .6-.7 1.4-1 2.5-1zm5.7 5.2c0 .4.1.7.3 1 .3.3.8.5 1.6.5.4 0 .8 0 1.2-.3.3-.2.5-.5.5-.9 0-.3-.1-.5-.4-.7a5 5 0 00-1-.3l-1-.3c-.7-.1-1.1-.3-1.4-.5-.6-.3-.8-.8-.8-1.4 0-.7.2-1.2.7-1.7a3 3 0 012-.6c1.1 0 2 .3 2.4 1 .3.4.5.8.5 1.3h-1.2c0-.3-.1-.5-.3-.8-.3-.3-.8-.5-1.5-.5-.4 0-.8.1-1 .3-.3.2-.4.4-.4.7 0 .3.2.6.5.8l.8.3.8.2c1 .2 1.5.4 1.8.6.5.3.7.8.7 1.5 0 .6-.2 1.2-.7 1.7-.5.4-1.3.7-2.3.7-1 0-1.8-.3-2.3-.8-.5-.5-.7-1-.7-1.8h1.2zm9.3 1.5c.6 0 1-.3 1.4-.7.4-.5.6-1.2.6-2.2 0-.6 0-1-.2-1.5-.4-.8-1-1.2-1.8-1.2s-1.4.4-1.7 1.3a5 5 0 000 3.1c.3.8.9 1.2 1.7 1.2zm-3.2-6.5h1.2v1l.8-.8c.4-.3 1-.4 1.5-.4.8 0 1.5.3 2.1 1 .6.6.9 1.5.9 2.7 0 1.6-.4 2.7-1.3 3.4-.5.4-1.1.6-1.8.6-.6 0-1 0-1.4-.3l-.7-.7v3.7h-1.3V20.7zm8.9 5.4c0 .3 0 .6.4.8.2.2.5.3.9.3l1.2-.3c.7-.3 1-.9 1-1.6v-1l-.5.2a5 5 0 01-.7.2h-.8l-1 .3c-.3.2-.5.6-.5 1zm3-2.5c.2 0 .4-.2.5-.4v-.5c0-.4 0-.7-.4-.9-.3-.2-.7-.3-1.2-.3-.7 0-1.1.2-1.4.6-.2.2-.3.4-.3.8h-1.1c0-.9.3-1.5.8-1.9.6-.3 1.2-.5 2-.5a4 4 0 012 .5c.6.3.9.8.9 1.5V27l.4.2a2.9 2.9 0 00.4 0v.8l-.4.1h-.4c-.5 0-.8 0-1-.4l-.2-.7c-.2.4-.6.6-1 .9-.5.2-1 .3-1.6.3-.7 0-1.2-.2-1.7-.6a2 2 0 01-.6-1.5c0-.7.2-1.2.6-1.6a3 3 0 011.7-.7l2-.2zm6.6-3.1c.9 0 1.5.2 2 .6.6.4.9 1 1 2h-1.2c0-.4-.3-.8-.5-1-.3-.4-.7-.5-1.3-.5-.7 0-1.3.4-1.6 1.1-.3.5-.4 1.1-.4 1.9 0 .7.2 1.3.5 1.8s.8.8 1.5.8c.5 0 .9-.2 1.2-.5.3-.3.5-.7.6-1.3h1.2c-.2 1-.5 1.7-1 2.1-.6.5-1.3.7-2.1.7-1 0-1.8-.3-2.3-1a4 4 0 01-.9-2.7c0-1.2.3-2.2 1-3a3 3 0 012.3-1zm7.3 0a3.3 3.3 0 012.6 1.3l.5 1.3v1.6h-5.3c0 .8.2 1.4.5 1.8.4.5.9.7 1.6.7a2 2 0 002-1.5h1.2l-.3 1-.6.7c-.4.4-.9.6-1.4.8h-1a3 3 0 01-2.3-1c-.7-.6-1-1.5-1-2.7 0-1.2.3-2.2 1-2.9.6-.7 1.4-1 2.5-1zm2 3.3c-.1-.6-.2-1-.4-1.3-.4-.6-1-1-1.7-1-.6 0-1 .3-1.4.7-.4.4-.6 1-.6 1.6h4zm3.5.6c0 .8.1 1.5.5 2 .3.5.8.8 1.6.8.6 0 1-.3 1.4-.7.4-.5.5-1.2.5-2.2 0-.9-.2-1.6-.5-2-.4-.5-.9-.7-1.4-.7-.7 0-1.2.3-1.5.7-.4.5-.6 1.2-.6 2.1zm1.8-3.9c.6 0 1 .2 1.4.4.3.1.5.4.8.7V18h1.2V28h-1.1v-1l-1 1a3 3 0 01-1.4.3c-.8 0-1.5-.4-2.1-1a4 4 0 01-1-2.8c0-1 .4-2 .9-2.8.5-.8 1.3-1.2 2.3-1.2zm4.8 10.4l1.4-3.1c.3-1 .5-2.2.5-3.5 0-1.3-.2-2.5-.6-3.6l-1.3-3h.8a63.2 63.2 0 011.7 3.3 8.7 8.7 0 01.7 3.2c0 1.4-.3 2.6-.7 3.7l-1.7 3h-.8z" fill="#979797"/>
  <path d="M148.2 148v-15.3h-2.8V129h2.8v-.9c0-2.4.7-4.2 2.2-5.5 1.4-1.3 3.5-2 6.1-2 1.6 0 3.5.4 5.8 1l-.8 4.3a20.8 20.8 0 00-4.7-.8c-2.3 0-3.5 1-3.5 3.1v.8h3.7v3.7h-3.7V148h-5.1zm16.5 0h-5.1v-19h5v19z" fill="#000"/>
  <path d="M196.6 132.7h-3.2v9.4c0 .8.2 1.3.5 1.6.3.3.8.5 1.4.5.6 0 1.1 0 1.5-.2v3.9c-1 .3-2 .5-3 .5-3.7 0-5.5-2.2-5.5-6.4v-9.3h-2.7V129h2.7v-1.6a3 3 0 00-.8-2.3c-.5-.5-1.3-.8-2.2-.8-.8 0-1.5.2-2 .7-.5.5-.7 1.1-.7 2 0 .7 0 1.3.2 1.9a54.3 54.3 0 001 3.6c.2.6.2 1.4.2 2.3h-5c0-.8-.3-1.4-.7-1.8-.5-.5-1.2-.8-2.2-.8a3 3 0 00-2 .6c-.5.4-.7 1-.7 1.5 0 .6.2 1 .8 1.4.5.3 1.4.6 2.7.9l3.2.8c2.7 1 4 2.7 4 5.1a5 5 0 01-2.2 4.3 9.7 9.7 0 01-5.8 1.6c-1.6 0-3-.3-4.3-.9a7.2 7.2 0 01-2.9-2.3c-.7-1-1-2.1-1-3.2h4.8c0 .9.4 1.5 1 2a4 4 0 002.5.7c1 0 1.7-.1 2.2-.5.5-.4.8-.9.8-1.5s-.4-1-1-1.4c-.6-.4-1.6-.7-3-1-4.5-1-6.7-2.9-6.7-5.7 0-1.7.7-3.1 2-4.3a8.5 8.5 0 015.6-1.7c1 0 1.9.1 2.8.4a8.1 8.1 0 01-.8-3.2c0-1.6.7-2.8 2-3.8a9 9 0 015.3-1.4c2.6 0 4.5.6 6 1.8 1.3 1.1 2 2.8 2 5.1v1.5h3.2v3.7z" fill="#000"/>
  <path d="M204.8 148h-5v-19h5v19zm-5.4-24c0-.7.3-1.3.8-1.8a3 3 0 012-.8c1 0 1.6.3 2.2.8.5.5.7 1.1.7 1.9 0 .7-.2 1.4-.8 1.9-.5.4-1.2.7-2 .7a3 3 0 01-2-.7c-.6-.5-.9-1.2-.9-2z" fill="#000"/>
  <path d="M217 144.3c.9 0 1.6-.3 2.2-.8.6-.5 1-1.2 1-2h4.7c0 1.2-.4 2.4-1 3.5a7 7 0 01-2.9 2.5 9 9 0 01-4 .9c-2.7 0-4.8-1-6.4-2.6a10.3 10.3 0 01-2.4-7.2v-.3c0-3 .8-5.3 2.4-7a8.2 8.2 0 016.4-2.7 8 8 0 015.7 2 7.1 7.1 0 012.2 5.5h-4.8c0-1-.3-1.8-.9-2.4a3 3 0 00-2.3-1 3 3 0 00-2.7 1.3c-.6.9-.9 2.3-.9 4.2v.6c0 2 .3 3.3 1 4.2.5.8 1.4 1.3 2.6 1.3z" fill="#000"/>
  <path d="M239.2 146a6.4 6.4 0 01-5.2 2.4c-2 0-3.6-.6-4.7-1.8-1-1.2-1.6-2.9-1.6-5.2V129h5v12.3c0 2 1 3 2.8 3 1.7 0 2.9-.7 3.5-1.9V129h5.1v19h-4.8l-.1-2z" fill="#000"/>
  <path d="M249.3 148v-15.3h-2.8V129h2.8v-1.6c0-2.2.7-3.8 1.9-5 1.2-1.2 3-1.8 5.1-1.8.7 0 1.6.1 2.6.4v4c-.5-.2-1-.2-1.6-.2-1.9 0-2.9.9-2.9 2.7v1.5h3.8v3.7h-3.8V148h-5zm10.7 0v-15.3H257V129h2.9v-1.6c0-2.2.6-3.8 1.8-5 1.2-1.2 3-1.8 5.1-1.8.7 0 1.6.1 2.6.4v4c-.5-.2-1-.2-1.6-.2-1.9 0-2.8.9-2.8 2.7v1.5h3.7v3.7h-3.7V148H260z" fill="#000"/>
  <path d="M281.8 142.7c0-.6-.3-1-1-1.4-.6-.4-1.6-.7-3-1-4.4-1-6.7-2.9-6.7-5.7 0-1.7.7-3.1 2.1-4.3a8.5 8.5 0 015.5-1.7 9 9 0 015.8 1.7 5.4 5.4 0 012.2 4.5h-5.1c0-.8-.3-1.4-.7-1.8-.5-.5-1.2-.8-2.2-.8a3 3 0 00-2 .6c-.5.4-.7 1-.7 1.5 0 .6.3 1 .8 1.4.5.3 1.4.6 2.7.9 1.3.2 2.3.5 3.2.8 2.7 1 4 2.7 4 5.1a5 5 0 01-2.2 4.3 9.7 9.7 0 01-5.8 1.6c-1.6 0-3-.3-4.2-.9a7.2 7.2 0 01-3-2.3c-.6-1-1-2.1-1-3.2h4.8c0 .9.4 1.5 1 2a4 4 0 002.5.7c1 0 1.7-.1 2.2-.5.5-.4.8-.9.8-1.5z" fill="#000"/>
  <circle cx="258" cy="130" r="7.5" stroke="#FF1515"/>
  <circle cx="186" cy="122" r="7.5" stroke="#FF1515"/>
  <circle cx="163" cy="126" r="7.5" stroke="#FF1515"/>
</svg>