<svg width="999" height="806" fill="none" xmlns="http://www.w3.org/2000/svg">
  <path fill="#1C1C1B" d="M0 0h999v806H0z"/>
  <path d="M39.2 116.6a990.9 990.9 0 0013-42.1c2.2 0 4.2-.2 6.2-.4l6.4-.7a480.8 480.8 0 01-2.2 15.1L61.5 96h.7A6062.8 6062.8 0 0070 76.3c.4-1.2.9-2.1 1.3-3a51 51 0 008-1l3-.6a298.3 298.3 0 00-3.5 28.3c-.5 5-1 9.8-1.3 14.5L67 116.4a53.3 53.3 0 01.3-4.9 494 494 0 012.1-17.2H69a224 224 0 01-4 11 440.6 440.6 0 01-3.8 11 71.8 71.8 0 00-7 .3l1.8-22.3H55a567 567 0 01-6 21.7l-9.8.6zM78.6 117l7.9-42.6 19-1.6-.8 2.7a105 105 0 00-1 4.5 40 40 0 01-4 .2h-4.9l-2 10.8a127.6 127.6 0 018.1-.3 643.8 643.8 0 01-1 6.6 40.1 40.1 0 01-4.6.1l-3.4.2-2 11 8.7-1.4-.6 6.9-19.4 3zM120.7 115.8l-3.3.5-3.3.6a1053.3 1053.3 0 011.1-10.2H110l-2.4 8.7a1077 1077 0 01-10.3 1.2A11378.6 11378.6 0 01110 74.4a316.4 316.4 0 0016.5-1.9 480.7 480.7 0 00-2.1 42.8l-3.6.5zm-9.3-15h.9l1.3-.1h1.3l.9-.2a19.3 19.3 0 01.2-3.2 174.5 174.5 0 00.5-5l.6-6.6.3-5.2h-.9l-1.3 5.2-3.8 15zM124.9 117.3a2137.5 2137.5 0 004.6-24 285.8 285.8 0 003.2-20.3h7l2.6-.2A277.2 277.2 0 01145 88l1.2 6a384.5 384.5 0 002.6-13l1.8-8.1 7.3-.9a572.5 572.5 0 00-8 42.5c-.1 0-.6 0-1.4.3a137.9 137.9 0 00-8.4 2 415.8 415.8 0 00-2-20l-.6-2.8a66.8 66.8 0 01-1 5.8 213.8 213.8 0 00-1.3 7l-1.7 8.5-8.7 2zM154.1 117.2l4.6-42.6a42 42 0 005.3-.5l5-.7a38 38 0 01-.7 4.4 395.8 395.8 0 00-1.7 10.7l-1.8 11.5h.9a1004.8 1004.8 0 016.4-22.8l.9-3h2.7a109.1 109.1 0 004.2-.7l-.3 2.2a148 148 0 01-.9 9.3 3049.8 3049.8 0 01-1.3 15h1.1l5.7-25.8a159.8 159.8 0 017.6-1l3.3-.6a95.9 95.9 0 00-3.6 12.1 347.2 347.2 0 00-3.6 13.6l-3.7 15.8-13.6 2.3 2.7-23.2h-.7l-6 21.8-12.5 2.2zM188.2 117.1a3848 3848 0 004.5-23.4 277.9 277.9 0 002.3-14.3l.8-6.2a41.4 41.4 0 014.9.3l2.3.1h2.5l-2 8.5-1.8 8.6 6-.6 1.4-8.3a99 99 0 011.8-8.2l3-.4a133.5 133.5 0 015.6-.5l1-.1a94.7 94.7 0 00-3 12.6 306.3 306.3 0 00-2.7 13.7 533 533 0 00-2.4 15.6l-9.4 1a180.3 180.3 0 002.6-13l1-5.3-5.8.5a358.3 358.3 0 01-2 11l-1.4 6.5-9.2 2zM224.4 115.8l-2.2.2a50.1 50.1 0 00-6.3.7l-1.4.2a152.2 152.2 0 002.5-12.3 365.1 365.1 0 002.4-13.8L222 75l9.4-1.5a14995.6 14995.6 0 00-6 36.4l-.9 5.9zM242.9 115a69.6 69.6 0 00-15.8 2.1 513.5 513.5 0 017.6-42.9l10.5-1.4a2672 2672 0 00-6.7 31c-.4 1.7-.6 3.3-.8 4.7a40 40 0 016.2-.1 43.7 43.7 0 00.9 6.7h-2zM245 117l7.8-42.6 19-1.6-.8 2.7a105 105 0 00-1 4.5 40 40 0 01-4 .2H261l-2 10.8a127.6 127.6 0 018.1-.3 643.8 643.8 0 01-1 6.6 40.1 40.1 0 01-4.6.1l-3.4.2-2 11 8.7-1.4-.6 6.9-19.4 3zM303.7 102c0 1.6-.3 3.1-1 4.5s-1.6 2.7-2.8 3.8a20 20 0 01-4 3 31.4 31.4 0 01-19.4 3.6c2-7 3.5-14 4.6-21.1a1204 1204 0 003.3-21.5 98.9 98.9 0 0113.4-1.7c1 0 2.1.1 3.2.4 1.1.2 2.2.6 3 1.3a7.7 7.7 0 013.3 6.5 14.1 14.1 0 01-2.7 7.9 12.5 12.5 0 01-5.7 4.6l1.6 1a10.4 10.4 0 012.7 4.4c.4 1 .5 2 .5 3.2zM290 95.6a62.6 62.6 0 01-.9 4.7 67.2 67.2 0 01-.8 4.7c.8 0 1.6-.2 2.6-.4s1.9-.5 2.7-.9c1-.4 1.7-1 2.3-1.7.6-.7.9-1.6.9-2.6 0-.7-.2-1.3-.6-1.8l-1.5-1.2c-.5-.3-1.2-.5-1.8-.6l-2-.3h-.5l-.4.1zm2.7-14.5a92.2 92.2 0 01-1 5.4l-.3 1.7a21.2 21.2 0 005-1.6c.7-.4 1.2-.7 1.6-1.1.5-.4.7-.9.7-1.4 0-.6-.2-1-.6-1.4-.3-.4-.8-.7-1.4-1-.6-.2-1.2-.4-1.8-.4-.6-.2-1.1-.2-1.6-.2h-.6zM324.3 115.8l-3.3.5-3.2.6a1053.3 1053.3 0 011-10.2h-5.1l-2.4 8.7a1077 1077 0 01-10.3 1.2 11384 11384 0 0112.5-42.2 316.4 316.4 0 0016.6-1.9 480.7 480.7 0 00-2.2 42.8l-3.6.5zm-9.2-15h.8l1.4-.1h1.3l.8-.2a19.3 19.3 0 01.3-3.2 174.5 174.5 0 00.4-5l.6-6.6.4-5.2h-.9l-1.4 5.2-3.7 15zM353.8 104.1a30.1 30.1 0 01-7 9.8c-1.2 1.1-2.5 2-3.8 2.4-1.3.6-2.6.8-3.9.8-1.2 0-2.3-.3-3.4-.8-1-.6-1.9-1.4-2.6-2.5-.8-1.2-1.4-2.5-1.9-4.2a40.2 40.2 0 015.3-26.8c1.9-2.9 4.1-5.2 6.7-7 2.6-1.8 5.4-2.7 8.5-2.7a6.6 6.6 0 015 2.3c.7.7 1.2 1.6 1.6 2.7.4 1 .6 2.2.6 3.4v1.6l-8 2.1c-.4-1-1-1.5-1.6-1.5-.7 0-1.3.4-2 1.1a36.5 36.5 0 00-5.7 11.2 53.8 53.8 0 00-1.7 7.6c0 1.2.2 2.1.5 2.7.4.5.8.7 1.4.7.4 0 1-.1 1.5-.4a8 8 0 001.5-1.4c.5-.5 1-1.1 1.4-1.8.4-.7.6-1.4.8-2l6.8 2.7zM353.5 117a1003.7 1003.7 0 004.6-23.3 249.3 249.3 0 003-20.4 176.7 176.7 0 0010 .5l-.3.9a307.9 307.9 0 01-1.1 6l-1 5.9h.3a260.9 260.9 0 016.3-10l2-3.1a303.7 303.7 0 0012-1.3 574.5 574.5 0 00-14 19.8c.8 4 1.9 8 3 11.7l3.8 11.6a65 65 0 00-5.7-.2 90.9 90.9 0 00-6.7.2 512.4 512.4 0 00-2.3-16.4l-1.1 1.2a169.8 169.8 0 00-3 15.5l-9.8 1.5zM414.6 115.8a518.2 518.2 0 00-6.6 1 1053.3 1053.3 0 011.1-10H404l-2.4 8.6a1077 1077 0 01-10.3 1.2 11384 11384 0 0112.6-42.2 316.4 316.4 0 0016.5-1.9 480.7 480.7 0 00-2.1 42.8l-3.6.5zm-9.3-15h.9l1.3-.1h1.3l.9-.2a19.3 19.3 0 01.2-3.2 174.5 174.5 0 00.5-5l.6-6.6.3-5.2h-.9l-1.3 5.2-3.8 15zM423.9 117a1078.3 1078.3 0 005.6-29.9l.7-4.9c-.9-.1-1.8-.2-2.8-.1-1 0-1.8-.1-2.8-.4a36 36 0 00.2-4.7v-3a81.5 81.5 0 0012.2.2 428 428 0 0010-1l-.6 3.3a332.8 332.8 0 00-1 5.3l-2.8.5-2.6.4a316.1 316.1 0 00-3.5 20.4c-.7 4-1.3 8-1.8 12.3l-10.8 1.7zM452.5 117.1a39313.7 39313.7 0 005.5-30.4 1218.3 1218.3 0 002-13l9.8-.6a495.2 495.2 0 00-3.8 17.6l5.9-.6 1.5-8.3a99 99 0 011.7-8.2l3.1-.4a133.5 133.5 0 015.5-.5l1-.1a94.7 94.7 0 00-3 12.6 306.3 306.3 0 00-2.6 13.7 533 533 0 00-2.5 15.6l-9.3 1a180.3 180.3 0 002.6-13l1-5.3-5.8.5a358.3 358.3 0 01-2 11l-1.4 6.5-9.2 2zM479 117l7.8-42.6 19-1.6-.8 2.7a105 105 0 00-1 4.5 40 40 0 01-4 .2H495l-2 10.8a127.6 127.6 0 018.2-.3 643.8 643.8 0 01-1 6.6 40.1 40.1 0 01-4.7.1l-3.4.2-2 11 8.7-1.4-.6 6.9-19.4 3zM521 115.8l-3.3.5-3.3.6a1053.3 1053.3 0 011.1-10.2h-5.2l-2.4 8.7a1077 1077 0 01-10.3 1.2 11384 11384 0 0112.6-42.2 316.4 316.4 0 0016.6-1.9 480.7 480.7 0 00-2.2 42.8l-3.6.5zm-9.3-15h.9l1.3-.1h1.3l.9-.2a19.3 19.3 0 01.2-3.2 174.5 174.5 0 00.5-5l.6-6.6.4-5.2h-1l-1.3 5.2-3.8 15zM555.4 86.3c0 2.1-.3 4.3-.9 6.7a40.5 40.5 0 01-6.5 13.6 27 27 0 01-12 9.3 19.9 19.9 0 01-10.9 1.1 6060.6 6060.6 0 014.4-23 679.6 679.6 0 003.4-19.5l5.2-.9c1.8-.3 3.6-.4 5.4-.4 2.2 0 4 .3 5.5 1s2.7 1.6 3.6 2.8c1 1.2 1.7 2.6 2.1 4.2.5 1.6.7 3.3.7 5.1zm-14.2-4.6a201.7 201.7 0 01-2.8 13.3 405.5 405.5 0 00-2.8 14.7c1-.6 1.9-1.5 2.8-2.5a39.9 39.9 0 006.5-13 35 35 0 001.4-7.8c0-1.5-.4-2.6-1.2-3.5-.8-.8-2-1.2-3.9-1.2zM582.9 114.4a107.6 107.6 0 01-4.5 5.5 147.9 147.9 0 00-5-7l-.3-.5a23.5 23.5 0 01-5.5 3.6c-1.9.8-3.7 1.2-5.4 1.2-1.3 0-2.5-.2-3.6-.7-1-.5-2-1.2-2.8-2.2-.8-1-1.4-2.3-2-3.8a32.2 32.2 0 01.2-12.7 50.5 50.5 0 015.9-14.3 34 34 0 014.6-5.8c1.7-1.7 3.5-3 5.4-4 2-1 4-1.6 6-1.6a8 8 0 017.2 4c.7 1.2 1.2 2.5 1.4 4 .3 1.5.5 3 .5 4.4a39 39 0 01-5.2 19.8l5.7 6.7-2.6 3.4zm-20.7-11a4.4 4.4 0 00.9 2.6c.2.4.6.7 1 1 .4.2.9.3 1.4.3 1.4 0 2.6-.3 3.8-1.1l-2.4-4a151.6 151.6 0 006.7-5.2l1.3 1.5a34.9 34.9 0 001.7-9 11 11 0 00-.5-3c-.1-.5-.4-1-.8-1.2a2 2 0 00-1.5-.6c-1.3 0-2.5.3-3.5 1-1.1.6-2.1 1.5-3 2.6a36.4 36.4 0 00-4.9 11.7l-.2 3.4z" fill="#58A9FD"/>
  <path d="M607.8 105.3c-.5 2.3-1.3 4.2-2.4 5.8a14.3 14.3 0 01-8 6.3c-1.5.4-3 .7-4.6.7-1 0-1.9-.2-2.8-.5a7.5 7.5 0 01-4.5-3.6 7 7 0 01-.8-3.2v-.5-.5l.9-6a2119.4 2119.4 0 013.7-21.7 416.5 416.5 0 011.6-7.8 378.2 378.2 0 009.9-1L598 86.6l-1 5a130 130 0 01-2.4 10.8l-.4 2.5-.3 2.6c0 .6.2 1.2.5 1.6.3.4.7.6 1.2.6.7 0 1.2-.2 1.7-.8.4-.5.8-1.2 1-2 .4-.7.6-1.5.7-2.2l.4-1.9A598.1 598.1 0 00603 85l2-10.9 9.1-.6-.3 1.6a730.6 730.6 0 00-3.1 16.9 2129.7 2129.7 0 01-2.8 13.3zM630 115.8l-3.2.5-3.2.6a1053.3 1053.3 0 011-10.2h-5.2l-2.4 8.7a1077 1077 0 01-10.2 1.2 11384 11384 0 0112.5-42.2 316.4 316.4 0 0016.6-1.9 480.7 480.7 0 00-2.2 42.8l-3.6.5zm-9.1-15h.8l1.3-.1h1.3l.9-.2a19.3 19.3 0 01.2-3.2 174.5 174.5 0 00.5-5l.6-6.6.4-5.2h-1l-1.3 5.2-3.7 15zM634.2 117a2688.2 2688.2 0 004.3-22.3 254.8 254.8 0 002.3-13.6c.4-2.1.6-4.1.8-5.9a58.1 58.1 0 0115.2-2.1c1.6 0 3 .2 4 .6 1 .3 1.8.9 2.3 1.5.6.7 1 1.4 1.3 2.3a14 14 0 01-.5 7.7 22.2 22.2 0 01-5.5 8.2c-1.2 1-2.5 2-4 2.7a206.3 206.3 0 014.7 10.7l2.5 6-9.3 3.2a306.9 306.9 0 01-4.7-16.9l-.8.3a222.8 222.8 0 01-1.8 9.4l-1 5.7-9.8 2.6zm14.1-26c.8 0 1.7-.4 2.8-1a20.1 20.1 0 005.7-4.4c.7-.8 1.1-1.6 1.1-2.2 0-.4-.1-.8-.4-1-.3-.3-.7-.5-1.2-.6-.5-.2-1-.3-1.6-.3a28 28 0 00-3.3 0h-1.2l-1.9 9.5zM666 117a1078.3 1078.3 0 005.7-29.9l.7-4.9c-1-.1-1.9-.2-2.8-.1-1 0-1.9-.1-2.8-.4a36 36 0 00.1-4.7l.1-3a81.5 81.5 0 0012.2.2 428 428 0 0010-1l-.6 3.3a332.8 332.8 0 00-1 5.3l-2.8.5-2.6.4a316.1 316.1 0 00-3.6 20.4l-1.8 12.3L666 117zM682.8 117l8-42.6 18.9-1.6-.8 2.7a105 105 0 00-1 4.5 40 40 0 01-4 .2H699L697 91a127.6 127.6 0 018.2-.3 643.8 643.8 0 01-1 6.6 40.1 40.1 0 01-4.7.1l-3.4.2-2 11 8.7-1.4-.6 6.9-19.4 3zM703 117a2688.2 2688.2 0 004.4-22.3 254.8 254.8 0 002.3-13.6l.8-5.9a58.1 58.1 0 0115.2-2.1c1.6 0 2.9.2 3.9.6a5.3 5.3 0 013.7 3.8 14 14 0 01-.5 7.7 22.2 22.2 0 01-5.5 8.2c-1.3 1-2.6 2-4 2.7a206.3 206.3 0 014.7 10.7l2.4 6-9.3 3.2a306.9 306.9 0 01-4.7-16.9l-.7.3a222.8 222.8 0 01-1.8 9.4l-1.1 5.7-9.7 2.6zm14.2-26c.7 0 1.6-.4 2.7-1a20.1 20.1 0 005.8-4.4c.7-.8 1-1.6 1-2.2 0-.4 0-.8-.4-1-.2-.3-.6-.5-1.2-.6-.4-.2-1-.3-1.6-.3a28 28 0 00-3.2 0H719l-2 9.5z" fill="#58A9FD"/>
  <path d="M756 102.2a14 14 0 01-4.7 10.8 15.1 15.1 0 01-5.2 3c-2 .8-4 1.1-6.4 1.1-1.6 0-3.2-.4-4.8-1.2-1.6-1-3.1-2.3-4.6-4.2l4.5-8.7c.2.5.7 1 1.2 1.6.6.6 1.2 1 1.9 1.4l2 1a5 5 0 004.9-.6c.5-.3.8-.6 1-1 .3-.5.5-1 .5-1.5 0-1-.3-1.9-1-2.7a48.9 48.9 0 00-5.3-4.6l-3-2.4a14 14 0 01-2.2-2.8c-.7-1-1-2.2-1-3.5 0-2 .6-4 1.9-5.8 1.2-1.8 2.7-3.4 4.6-4.6 1.9-1.4 3.9-2.4 6.1-3.2 2.2-.7 4.3-1.1 6.2-1.1 1.1 0 2.1.1 3.1.4 1 .3 1.8.7 2.5 1.3.7.5 1.2 1.3 1.6 2.1a8 8 0 01.5 5l-.2 1.8-8.7 2.5.2-1v-.9c0-1.2-.1-2-.6-2.6-.4-.5-1-.8-1.6-.8-.3 0-.7.1-1.2.4-.4.2-.9.5-1.4 1-.4.3-.8.7-1.1 1.2-.3.6-.5 1.1-.5 1.7 0 1 .3 1.8.8 2.4.5.7 1.2 1.3 2 1.8a95 95 0 002.6 1.8 10.5 10.5 0 014.6 5.7c.6 1.3.9 3 .9 5.2zM767.7 112.2c0 .8-.1 1.5-.5 2.3a6 6 0 01-1.4 2 9.4 9.4 0 01-5.7 1.9c-.9 0-1.6-.2-2.3-.5-.7-.3-1.3-.7-1.7-1.3a6.1 6.1 0 01-1-6 5 5 0 011.1-1.9c.5-.5 1.2-1 1.9-1.4.7-.3 1.6-.5 2.7-.5 2.3 0 4 .6 5.2 1.7a5 5 0 011.7 3.7z" fill="#58A9FD"/>
  <path d="M780.3 112.2c0 .8-.2 1.5-.6 2.3a6 6 0 01-1.4 2 9.4 9.4 0 01-5.7 1.9c-.8 0-1.6-.2-2.3-.5-.7-.3-1.2-.7-1.7-1.3a6.1 6.1 0 01-1-6 5 5 0 011.2-1.9c.5-.5 1.1-1 1.8-1.4.8-.3 1.7-.5 2.7-.5 2.3 0 4 .6 5.2 1.7a5 5 0 011.8 3.7z" fill="#58A9FD"/>
  <path d="M792.8 112.2a6 6 0 01-2 4.3 9.4 9.4 0 01-5.7 1.9c-.8 0-1.6-.2-2.2-.5-.7-.3-1.3-.7-1.7-1.3a6.1 6.1 0 01-1-6 5 5 0 011.1-1.9c.5-.5 1.1-1 1.9-1.4.7-.3 1.6-.5 2.7-.5 2.3 0 4 .6 5.2 1.7a5 5 0 011.7 3.7z" fill="#58A9FD"/>
  <path d="M881 141.4c.8.3 1.4.7 1.8 1.2.4.5.6 1.2.6 2a3 3 0 01-1.3 2.5c-.9.6-2.1.9-3.8.9h-6.5v-12.6h6.2a6 6 0 013.5.9c.8.6 1.3 1.4 1.3 2.4a3 3 0 01-1.7 2.7zm-6.3-3.8v3h3a3 3 0 001.6-.4c.3-.3.5-.6.5-1.1 0-.5-.2-.9-.5-1.1a3 3 0 00-1.7-.4h-2.9zm3.4 8.2c.8 0 1.4-.1 1.8-.4.4-.2.6-.6.6-1.1 0-1-.8-1.6-2.4-1.6h-3.4v3.1h3.4zM889.3 138.2c1.5 0 2.7.3 3.5 1 .8.8 1.2 1.8 1.2 3.3v5.5h-2.7v-1.2c-.5.9-1.5 1.3-3 1.3-.7 0-1.3 0-1.9-.3-.5-.3-1-.6-1.2-1-.3-.5-.4-1-.4-1.6 0-.9.3-1.6 1-2.1s1.7-.8 3.1-.8h2.3c0-.6-.2-1-.6-1.4-.4-.3-1-.5-1.7-.5a4.8 4.8 0 00-2.8.9l-1-2a6 6 0 012-.8c.7-.2 1.4-.3 2.2-.3zm-.2 8c.5 0 .9 0 1.3-.3.3-.2.6-.5.8-1v-1h-2c-1.1 0-1.7.4-1.7 1.2 0 .3.1.6.4.8.3.3.7.4 1.2.4zM902.4 138.2a4 4 0 012.9 1c.7.8 1.1 1.8 1.1 3.3v5.5h-2.8v-5.1c0-.8-.2-1.3-.5-1.7-.3-.4-.8-.6-1.5-.6s-1.2.2-1.7.7c-.4.4-.6 1-.6 2v4.7h-2.8v-9.7h2.7v1.1a4.7 4.7 0 013.2-1.3zM919 138.3v8c0 1.9-.4 3.2-1.3 4-1 .9-2.3 1.3-4 1.3-1 0-2 0-2.8-.3-.8-.2-1.5-.6-2-1l1-2 1.6.8a6 6 0 001.9.3c1 0 1.7-.2 2.1-.7.5-.4.7-1 .7-2v-.4a4 4 0 01-3 1.2c-1 0-1.7-.2-2.5-.5a4.5 4.5 0 01-2.4-4.1c0-1 .3-1.8.7-2.5.4-.7 1-1.3 1.7-1.6.8-.4 1.6-.6 2.5-.6 1.4 0 2.5.4 3.2 1.4v-1.3h2.6zm-5.3 7c.8 0 1.4-.3 1.9-.7.4-.5.7-1 .7-1.7 0-.8-.3-1.3-.7-1.8-.5-.4-1.1-.6-1.9-.6-.7 0-1.3.2-1.8.6-.5.5-.7 1-.7 1.8 0 .7.2 1.2.7 1.7.5.4 1 .6 1.8.6zM931.1 143.2v.8h-7.3c.1.6.4 1 .9 1.4a3.8 3.8 0 003.2.3l1-.7 1.6 1.6c-1 1-2.3 1.5-4 1.5-1.1 0-2-.2-3-.6a4.7 4.7 0 01-2.6-4.3c0-1 .3-1.8.7-2.6.5-.8 1-1.4 1.9-1.8.8-.4 1.6-.6 2.6-.6s1.8.2 2.6.6c.7.4 1.3 1 1.8 1.7.4.8.6 1.7.6 2.7zm-5-2.9c-.6 0-1.1.2-1.6.5-.4.4-.7.9-.8 1.5h4.8c-.1-.6-.4-1-.8-1.4-.4-.4-1-.6-1.6-.6zM935.7 139.6c.3-.5.8-.8 1.3-1 .6-.3 1.3-.4 2-.4v2.6h-.6c-.8 0-1.4.2-1.9.6-.4.5-.7 1.1-.7 2v4.6H933v-9.7h2.7v1.3zM944 148.1c-.8 0-1.6 0-2.4-.2-.7-.2-1.3-.5-1.8-.8l1-2c.4.3.9.5 1.5.7l1.8.2c1.2 0 1.8-.3 1.8-.9 0-.2-.2-.4-.5-.6l-1.5-.3c-.8 0-1.4-.2-2-.4-.5-.1-1-.4-1.3-.8-.4-.4-.6-1-.6-1.7 0-.6.2-1.1.6-1.6.3-.5.8-.9 1.5-1.1.7-.3 1.5-.4 2.4-.4a9 9 0 013.7.8l-.9 2c-.8-.5-1.8-.7-2.8-.7-.6 0-1 0-1.3.2-.3.2-.5.4-.5.7 0 .3.2.5.5.6l1.5.4 2 .4c.5.1 1 .4 1.3.8.4.4.6 1 .6 1.7 0 .6-.2 1.1-.6 1.6-.3.4-.9.8-1.6 1a7 7 0 01-2.4.4z" fill="#C4C4C4"/>
  <path d="M65.9 276.2c-.2-.3-.2-.7 0-1.3v-2.5c.1-1.1-.1-1.7-.7-1.7-.4 0-.8.5-1.2 1.5-.3 1-.7 1.6-1.3 2l-1.6.5-1.6.4c-.5.1-1 .3-1.3.7-.3.3-.9.7-1.6 1-.8.4-1.7.3-2.7-.3-1-.5-1.6-1-2-1.5l-.8-1.3c-.2-.4-.3-.7-.6-1-.2-.3-.5-.5-1-.6-1-.3-1.6-1-2-2.4a200 200 0 01-1.8-8.7c0-1.2-.2-2.3-.3-3.4-.4-2.7-.9-4.3-1.5-4.8s-1-1.3-1-2.2a57 57 0 01-.4-5.1c0-1 .3-2.2.8-3.3.6-1.2 1-2.4 1-3.6a32.1 32.1 0 00-.7-4.2l-.2-1.3c0-.8.2-2 .6-3.6a32.3 32.3 0 001-4.3c.6-2 2-3 4.3-3h1c1.4 0 2.6-.4 3.6-1.2.5-.4 1-.7 1.7-.9.6-.2 1-.1 1.5.1.4.2 1 .3 1.6.2.7 0 1.5-.3 2.2-.8a7 7 0 012.8-1c1-.2 2.2-.1 3.3.2 1.2.2 2 .7 2.4 1.3l1 1.3.9.5c1 .7 1.5 2.2 1.7 4.5.2 2 0 3.8-.7 5.5a44.6 44.6 0 01-1.5 4.1c-.4.8-.5 1.6-.5 2.3l-.2 2c0 .7-.3 1.3-.6 1.9-.9 1.3-2.5 2-5 1.8-2.2 0-3.5-.3-4-1-.3-.4-.4-.8-.5-1.4l-.1-2.2c0-1-.4-1.8-.9-2.7-.5-.8-1.1-1-2-.6-.5.3-1 1.4-1.2 3.1-.2 1.7-.2 3.5 0 5.2.4 1.8.5 2.9.5 3.3 0 .3 0 .7-.2 1-.6 2.4-.7 5.7-.3 10 .4 3.2 1.1 4.9 2.3 5.1 1.1.2 2-.4 2.8-1.7.6-1.3.5-3.8-.2-7.8-.6-3-.1-4.6 1.5-4.8h2.6c1.1 0 2 0 2.9-.3.8-.2 1.7-.2 2.6 0 1 .2 1.8.7 2.4 1.3.6.7.6 2 0 3.8a17 17 0 00-.3 11.5 28.9 28.9 0 01.9 5.7c0 1 0 1.9-.3 2.7-.3 1.9-1.3 2.8-2.8 2.8-1.5 0-2.6 0-3.2-.2-.6 0-1-.3-1.1-.6zM83.4 224.1c.6-.5 1-1 1.4-1.6a7 7 0 011.6-1.6c1.8-1.5 3.5-1.9 5.3-1.3 2.1.8 4.1 1.3 6 1.5 1.7.2 3 .7 3.8 1.4a13.2 13.2 0 014.8 8.5c0 .8.2 1.4.5 1.8.6 1 .8 2.5.6 4.4-.2 1.9-.3 3.2-.2 4 0 .6.2 1.1.3 1.5l.6 1a6.5 6.5 0 01-.6 6.5c-.4.5-.5 1.3-.4 2.6l.2 4c0 3.2-.1 5.2-.5 6a5 5 0 01-1 1.4 3 3 0 01-.4.4c-.7.3-1.4 1.4-2 3.1a12 12 0 01-5.3 6.9l-2.4 1.5-1.2 1.1-.7 1a3 3 0 01-2.5 1.3c-1.7 0-3-.4-3.8-1.2-.3-.5-.7-1.1-1-2a9.5 9.5 0 00-3-3.3 6 6 0 01-2.6-4.3c-.2-.6-.2-1.3-.2-2v-2.4c-.2-1-.4-2-.7-2.7-.3-.8-.4-1.6-.5-2.3-.3-2.1-1-3.2-2.1-3.4-.9 0-1.4-1.4-1.5-3.8a20.2 20.2 0 01.7-6.5c.4-1.4.6-3.1.4-5v-5.2c.3-2.8.9-5 1.8-6.8.5-.8 1.1-1.6 2-2.3l2.6-2.2zm4.7 21.5c.2.7.4 1.3.8 1.8.4.4.7 1 .8 2 .2.8.3 1.8.3 3a64.8 64.8 0 000 5.6l.5 2.1c.5 1.6 1.3 2.4 2.3 2.4 1.6 0 2.6-3 3.2-9 .2-1.7.3-3.8.3-6.4 0-2.6-.4-4.8-1.2-6.7-.8-1.9-1.7-2.8-2.9-2.8-1 0-2.1 1.2-3 3.7a12 12 0 00-1 4.3zM119.6 224.1l1.4-1.6a7 7 0 011.6-1.6c1.7-1.5 3.5-1.9 5.3-1.3 2.1.8 4 1.3 5.9 1.5 1.8.2 3.1.7 3.9 1.4a13.2 13.2 0 014.8 8.5c0 .8.2 1.4.5 1.8.6 1 .8 2.5.6 4.4l-.3 4 .4 1.5.5 1a6.5 6.5 0 01-.6 6.5c-.3.5-.4 1.3-.3 2.6l.2 4c0 3.2-.1 5.2-.5 6-.4.8-.7 1.2-1 1.4a3 3 0 01-.4.4c-.7.3-1.4 1.4-2 3.1a12 12 0 01-5.3 6.9 61 61 0 01-2.4 1.5l-1.2 1.1-.7 1a3 3 0 01-2.5 1.3c-1.7 0-3-.4-3.8-1.2l-1.1-2a9.6 9.6 0 00-3-3.3 6 6 0 01-2.6-4.3c-.1-.6-.2-1.3-.1-2l-.1-2.4c-.1-1-.3-2-.6-2.7-.3-.8-.5-1.6-.5-2.3-.3-2.1-1-3.2-2.1-3.4-.9 0-1.4-1.4-1.5-3.8a20.2 20.2 0 01.7-6.5c.4-1.4.5-3.1.4-5-.2-2-.2-3.7 0-5.2.2-2.8.8-5 1.8-6.8.4-.8 1-1.6 2-2.3l2.6-2.2zm4.7 21.5c.2.7.4 1.3.8 1.8.4.4.6 1 .8 2 .2.8.3 1.8.2 3a65 65 0 00.1 5.6l.4 2.1c.6 1.6 1.4 2.4 2.4 2.4 1.5 0 2.6-3 3.2-9 .2-1.7.3-3.8.3-6.4 0-2.6-.4-4.8-1.2-6.7-.8-1.9-1.8-2.8-3-2.8-1 0-2 1.2-3 3.7a12 12 0 00-1 4.3zM160.1 275.7c-2 1.6-3.7 2.3-5.1 2.3-.7 0-1.4-.2-2.1-.6-.7-.4-1.2-.8-1.4-1.4l-.3-1.8v-2.3c0-1.3-.2-2.5-.6-3.6l-1-2.5c-.2-1-.3-2.5-.2-4.5l-.1-2.8c-.2-.4-.2-.7-.2-1 0-.3 0-1.4.3-3.2.5-4.3.3-6.5-.8-6.6-.5 0-.8-.2-.8-.3l-.4-1-.6-1.3a9.7 9.7 0 01.7-4.9c1.4-3.8 1.9-7 1.5-9.6a22 22 0 01-.6-6c.2-1.2.5-2 .8-2.6.4-.5.9-1 1.4-1.3.5-.5 1-.8 1.8-1.1 1.5-.5 2.8-.4 3.9.4 1.1.7 2.2 1.2 3.1 1.4l2.7.4c2.2.1 3.6.4 4.1.8l1.4 1 1.3.5c1 .5 1.6 1 1.8 1.4l.8 1.3 1.2 1.2a8.6 8.6 0 011.7 3.7 99.6 99.6 0 01.7 4.1c.5 2 1 3.7 1.6 5.2 1.2 3 1.5 5.4 1 7.1l-.2.3c.4 1 .4 2 .1 3.2a40.3 40.3 0 01-1.7 6.4 34.7 34.7 0 01-1.6 4.2c-.6 1-2.1 3-4.6 5.5a8 8 0 00-1.8 2.4 4 4 0 01-1.3 2 8 8 0 01-2 2.7c-1.2.8-2.6 1.1-4.5.9zm-1-33.2l.2 4.3c0 1.2 0 2.4-.2 3.4-.3 1-.3 2-.2 3.2.2 1.2.3 2.2.2 3a4 4 0 00.1 2c.2.4.3 1 .2 1.5l-.2 1.5c0 1.3.2 2 .8 2.1.4 0 .7-.1 1-.5l1-1.7c.4-1 .8-2.4 1.1-4.1.1-.7.4-1.5.8-2.3.7-1.5 1-2.5 1-3.2a6 6 0 01.1-1.3l.1-.6.3-.6.3-1.4a6 6 0 00-.3-2.6c-.2-1-.7-1.9-1.5-2.5a9 9 0 01-1.6-1.7l-.8-1.2c-.5-.7-1-.9-1.5-.6-.6.5-1 1.6-1 3.3zM222.1 264.6c.3.4.4.8.3 1.4l-.1 1.6v1.9a26 26 0 01.4 3.6c0 .6-.1 1-.5 1.5l-1.4.9-2.2.5c-1.8.2-3.4-.1-4.8-.8a5.3 5.3 0 00-3.6-.6l-2.6.7-2.2.6-2.4.3c-.8 0-1.5-.5-2-1.3-.6-1-1-2-1-3.1 0-1.2.2-2.3.6-3.5.4-1.2.5-2.6.4-4.1 0-1.6-.2-2.9-.3-4v-2.8c.3-1.9 0-3.2-.7-4-.5-.6-.8-1.4-.8-2.2V249c.1-.5.3-1 .6-1.4l.5-1v-1.5c-.4-2.9-.5-5-.4-6.6v-4c-.2-1.2-.3-2-.2-2.8.1-.7 0-1.4-.1-1.9-.2-.5-.3-.8-.2-1v-1a67.8 67.8 0 01-.6-4.5c.1-.6.4-1.2.7-1.9.4-.7.9-1.2 1.4-1.3l1-.4.8-.4c1-.3 1.8-.3 2.3 0l1.4.4h1.2l1.2-.2 1-.2c1-.3 1.8-.2 2.3.2l.8.8c.1.2.2.5 0 .9 0 .4 0 .7.2 1 .2.2.3.6.2 1v1.1l.1.7c.1.5 0 1.1-.1 1.8a23.6 23.6 0 00-.5 2 6 6 0 01-.3 2l-.3 1.4v2.9l-.1 2.3a136.3 136.3 0 01-.4 6.9c-.2 3.3-.5 5.4-.8 6.3-.8.4-.9 1.5-.3 3.1l.5 1.6c.5 1.5.7 3 .7 4.5 0 1.4 0 2.8-.3 4.2 1.4.8 2.4 1.2 3 1.2 1.5.2 2.8 0 4-.6 1.2-.6 2-.8 2.5-.7.6 0 1 .3 1.1.7zM237 231.9l-.3 17c0 7.6 1 11.2 3.1 10.8 1.8-.3 2.6-3.5 2.5-9.6 0-1.8.1-3 .4-3.4l.6-1.4c.2-1 .3-2.3.1-4a218 218 0 00-1.2-11.2l-.3-6c0-1.9.2-3 .5-3.4.4-.5 1-.7 1.5-.8h1.8l1.8.3c.6.2 1 .2 1.4.2l1.4-.1 1.5-.3 1.6-.2c.5 0 .9.2 1.3.6.4.3.7 1.2 1 2.6a78.3 78.3 0 01.8 17.3c-.3 4.3-.5 6.9-.7 7.8a5.6 5.6 0 01-1.3 3c-.5.8-.6 1.8-.2 3l.8 3.1a6 6 0 010 3.4c-.2 1-.3 2-.2 3 .2 2.5 0 4.3-1 5.4-.3.6-1 1-1.8 1.6-1.7 1-3 2-3.8 3.4-.4.8-.9 1.3-1.4 1.5h-1.4l-2-.2a31.5 31.5 0 00-3.3-.2c-.3 0-.5.2-.7.4l-.7.7c-1.3 1.4-2.7 1.2-4.2-.4a17.8 17.8 0 00-1.6-1.8l-1-.5a11 11 0 01-1.4-.8 8.9 8.9 0 01-4-6.3c-.4-1.4-.6-3.2-.8-5.4-.2-2.3-.4-3.7-.6-4.3 0-.6-.4-1.3-.9-2s-.8-1.4-1-2v-2l.3-2.4c.5-2.5.6-4.6.3-6.4-.2-1.8-.2-3.2-.1-4.2a5 5 0 000-1.9c0-.3-.2-.5-.5-.8-.2-.2-.2-.8-.1-1.6l.1-2.3v-2.3c.2-3.4.7-5.5 1.6-6.2.8-.5 1.6-.8 2.4-.9 1.2 0 2.1-.3 2.7-.7l1.6-1c2.5-1.3 4-.3 4.7 3 .4 2.2.6 5.1.7 8.9zM290.6 230.8c.1.5.2 1.1.1 1.8 0 .7-.2 1.6-.5 2.9a8.7 8.7 0 00-.4 3.3l.5 2 .3 1v1.5a4 4 0 01-2.2 2.7c-1.2.5-2.2 1-3 1.7-.8.5-1.7 1-2.6 1.2l-.6 1.7c-.1.5-.4.9-.8 1.2-.4.2-.9.3-1.4.1-.5-.2-.7-.7-.6-1.5.1-1 0-1.5-.4-1.8l-1-.9-.5-.6-.5-.7c-.2-1-.2-1.7.2-2.4s.6-1.3.6-1.6v-1.1a9 9 0 010-2.6c0-.7-.1-1.3-.6-1.8s-1-.7-1.6-.7c-.5 0-1 .8-1.4 2.4a101.3 101.3 0 00-.8 20.2c.5 5 1.4 7.7 2.7 7.8 1.3.1 2.3 0 3-.5.7-.5 1.2-1 1.6-1.7l1-1.6c.2-.6.5-1 .8-1 2-.7 3.5-.3 4.4 1.3.3.6.5 1.5.5 2.7 0 1.3 0 2.2-.3 2.8-.1.5-.3 1-.6 1.4l-.6 1-.4 1.2c-.1.4-.4.8-.7 1.2l-1.3 1.1a6 6 0 01-2.6.8c-2.8 0-4.8.5-6.2 1.5-.8.7-1.7 1-2.6 1-1.2 0-2-.3-2.5-.7-.5-.5-1-1-1.8-1.4-.8-.5-1.2-1-1.4-1.7 0-.7-.3-1.2-.6-1.6l-1.2-1.5c-1-1.4-1.5-3-1.5-4.8a44.5 44.5 0 010-4.8c0-1-.4-2.2-1.3-3.3a7.4 7.4 0 01-1.6-2.9l-.5-2.3a8 8 0 010-2.2l.3-2.2a7 7 0 01.6-2c.3-.5.4-1 .3-1.6l.1-1.4.5-1a4 4 0 00-.1-3.3c-.5-1.1-.8-2-.8-2.7 0-.6 0-1.2.2-1.7l.4-1.5a5 5 0 00.3-1.9c0-.7.2-1.6.4-2.6.3-1 1-1.6 2.1-1.9 1.2-.3 1.8-.7 2-1.2l.5-1.6c.2-.5.6-1.1 1.4-1.8.8-.7 2-1.1 3.5-1.3 1.6-.3 2.7-.3 3.3 0 .7.1 1.3.5 1.9 1.2.5.6 1 1 1.6 1h1.5c2.7-.4 5.3.2 7.9 1.6.9.5 1.5 1.3 1.8 2.3l.7 2.3.5 1.5zM320 243.9l-2.1 4.5a7 7 0 00-.6 2.2l.5 2a97.3 97.3 0 003 6.1 43.4 43.4 0 013 7.7c0 1 0 2-.2 3.2a16 16 0 00-.2 3c.1.6.2 1.3.1 1.9 0 .6 0 1.1-.3 1.5-.2.4-.8.6-1.8.6-1 .1-1.9-.2-2.7-1-.8-.7-1.5-1.6-2.1-2.6-.6-1-1-2-1.4-3a7 7 0 00-1.5-2.6 8.4 8.4 0 01-1.5-2.8L311 261c-.3-1.2-.6-2.2-1-3-.3-.9-.8-1.4-1.5-1.5-.6 0-1 0-1.2.5l-.2 1.6a59.2 59.2 0 00.4 5c0 1 0 1.8-.2 2.7 0 .9-.5 1.7-1.2 2.5-.6.7-1 1.5-1.3 2.3a50.7 50.7 0 00-1.2 4.3c-.2.6-.6.8-1.2.8-1.2 0-2.4-.6-3.4-2s-1.5-3.2-1.7-5.5c-.1-1.3-.5-2.1-1.1-2.6-.6-.3-.7-1.7-.5-4a22.5 22.5 0 00.2-8.3 94.2 94.2 0 00-1.3-9.5 43.6 43.6 0 01.2-5.3c.3-1 .4-1.8.4-2.5v-1.7l-.3-3.8c.1-1 0-2.1 0-3.2l-.4-3.2c0-1 0-2 .3-2.9.2-.9.7-1.5 1.3-2 .7-.3 1.3-.5 1.8-.4l1.6.3c1.7.5 2.8.6 3.5.5 3.8-1 5.3 1.5 4.5 7.3l-.4 2.6c-.4 1.8-.5 3.1-.3 4l.1 2 .2 2c0 1.4.4 2 1 2 .8 0 1.9-1.4 3.2-4.3l.6-1.6a155.7 155.7 0 001.4-3c.8-1.4 1.6-2.3 2.5-2.6-.6-1.4-.8-2.6-.4-3.6a48 48 0 012-3.6c.5-.5 1.3-.6 2.3-.3a5 5 0 002.9 0 122.6 122.6 0 004.6-1.3 2 2 0 012 .4c.5.5.8 1 .9 1.6.2.6.2 1.2 0 1.8-.3 1.4-1 2.7-2.3 4-.7 2.8-1.8 5-3.4 6.5-.2 2.4-1 4.4-2.3 6a20 20 0 00-2.2 3.9zM370.3 276.2c-.2-.3-.2-.7-.1-1.3l.2-2.5c0-1.1-.2-1.7-.8-1.7-.4 0-.8.5-1.2 1.5-.3 1-.7 1.6-1.3 2l-1.6.5-1.6.4c-.5.1-1 .3-1.3.7-.3.3-.9.7-1.6 1-.8.4-1.7.3-2.7-.3-1-.5-1.7-1-2-1.5-.4-.4-.6-.9-.8-1.3l-.6-1c-.2-.3-.5-.5-1-.6-1-.3-1.6-1-2-2.4a200 200 0 01-1.8-8.7c0-1.2-.2-2.3-.3-3.4-.4-2.7-.9-4.3-1.5-4.8s-1-1.3-1-2.2c-.3-2.4-.4-4.1-.4-5.1s.3-2.2.8-3.3c.6-1.2 1-2.4 1-3.6a30.8 30.8 0 00-.7-4.2c-.2-.4-.2-.8-.2-1.3 0-.8.1-2 .6-3.6a32 32 0 001-4.3c.6-2 2-3 4.3-3h1c1.4 0 2.6-.4 3.6-1.2.5-.4 1-.7 1.7-.9.6-.2 1-.1 1.5.1.4.2 1 .3 1.6.2.7 0 1.5-.3 2.2-.8a7 7 0 012.8-1c1-.2 2.2-.1 3.3.2 1.2.2 2 .7 2.4 1.3l1 1.3.9.5c1 .7 1.5 2.2 1.7 4.5.2 2 0 3.8-.7 5.5a45.3 45.3 0 01-1.5 4.1c-.4.8-.6 1.6-.6 2.3l-.1 2c0 .7-.3 1.3-.6 1.9-.9 1.3-2.5 2-5 1.8-2.2 0-3.5-.3-4-1-.3-.4-.4-.8-.5-1.4l-.1-2.2c0-1-.4-1.8-.9-2.7-.5-.8-1.1-1-2-.6-.5.3-1 1.4-1.2 3.1-.2 1.7-.2 3.5 0 5.2.4 1.8.5 2.9.5 3.3 0 .3 0 .7-.2 1-.6 2.4-.7 5.7-.3 10 .4 3.2 1.1 4.9 2.3 5.1 1.1.2 2-.4 2.7-1.7.6-1.3.6-3.8-.1-7.8-.6-3-.1-4.6 1.5-4.8h2.6c1.1 0 2 0 2.9-.3.8-.2 1.7-.2 2.6 0 1 .2 1.7.7 2.3 1.3.6.7.6 2 0 3.8a17 17 0 00-.2 11.5 29 29 0 01.8 5.7c.1 1 0 1.9-.2 2.7-.3 1.9-1.3 2.8-2.8 2.8-1.5 0-2.6 0-3.2-.2-.6 0-1-.3-1.1-.6zM387.8 224.1c.6-.5 1-1 1.4-1.6a7 7 0 011.6-1.6c1.8-1.5 3.5-1.9 5.3-1.3 2.1.8 4.1 1.3 6 1.5 1.7.2 3 .7 3.8 1.4a13.2 13.2 0 014.8 8.5c0 .8.2 1.4.5 1.8.6 1 .8 2.5.6 4.4-.2 1.9-.3 3.2-.2 4 0 .6.2 1.1.3 1.5l.6 1a6.5 6.5 0 01-.6 6.5c-.4.5-.5 1.3-.4 2.6l.2 4c0 3.2-.1 5.2-.5 6a5 5 0 01-1 1.4 3 3 0 01-.4.4c-.7.3-1.4 1.4-2 3.1a12 12 0 01-5.3 6.9l-2.4 1.5-1.2 1.1-.7 1a3 3 0 01-2.5 1.3c-1.7 0-3-.4-3.8-1.2-.3-.5-.7-1.1-1-2a9.6 9.6 0 00-3.1-3.3 6 6 0 01-2.6-4.3c-.1-.6-.2-1.3-.1-2v-2.4c-.2-1-.4-2-.7-2.7a8 8 0 01-.5-2.3c-.3-2.1-1-3.2-2.1-3.4-.9 0-1.4-1.4-1.5-3.8a20.1 20.1 0 01.7-6.5c.4-1.4.6-3.1.4-5v-5.2c.3-2.8.9-5 1.8-6.8.5-.8 1.1-1.6 2-2.3l2.6-2.2zm4.7 21.5c.2.7.4 1.3.8 1.8.4.4.7 1 .8 2 .2.8.3 1.8.2 3a65 65 0 00.1 5.6l.5 2.1c.5 1.6 1.3 2.4 2.3 2.4 1.6 0 2.6-3 3.2-9 .2-1.7.3-3.8.3-6.4 0-2.6-.4-4.8-1.2-6.7-.8-1.9-1.7-2.8-2.9-2.8-1.1 0-2.1 1.2-3 3.7a12 12 0 00-1 4.3zM465 245l-.1-5c0-1.1.2-2 .4-2.6a22.7 22.7 0 00.6-3.5l.3-1.8c.2-1.4.6-2.2 1-2.3.5 0 .7-.6.8-1.6.3-1.7.2-3-.1-4-.4-1.2-.4-2.1 0-2.8 1-1.3 2.3-1.5 4.3-.6 1.4.6 2.4 1 3 1l1.6-.2 2-.6c.9-.2 1.6.1 2 1 .6.9.9 1.7.8 2.6a33 33 0 01-.6 4.6c-.3 2-.6 3.4-.9 4l-.4 2a106.8 106.8 0 00-1 6.8 55.5 55.5 0 00-2.5 11.7l-.6 1a8 8 0 00-.8 1.7 7 7 0 00-.5 2.8c0 1.8 0 3.1-.4 4a107.6 107.6 0 01-2.2 5.9c-.8 2-1.4 3.7-1.6 5a4.9 4.9 0 01-1.2 2.7c-.5.6-1.1.8-1.8.6-.6-.3-1-.6-1.2-1l-.4-1c-.5-1-1-1.6-1.7-1.8-1-.4-1.7-1.1-2.2-2.1-.5-1-.8-2.3-.9-3.8a75.8 75.8 0 00-.6-7c-.4-2.4-.9-3.6-1.4-3.6-.3 0-.5.3-.7.9l-.4 2c-.5 2.2-1 3.7-1.5 4.6-.5.8-.8 1.6-1 2.2a30.6 30.6 0 00-.5 3.7c0 .6-.2 1.1-.5 1.7a18 18 0 01-.7 2 6 6 0 01-1.2 1.5c-1 1-2.2 1-3.6.2-.8-.6-1.8-1-2.8-1.3l-2.1-.9c-.4-.2-.7-.6-1-1.2-.3-.6-.5-1.5-.6-2.5a75 75 0 00-2.6-13.5c-.6-2-1.3-4.7-2-8.2a183 183 0 00-1.9-8.5c-.3 0-.6-.6-.9-1.5-.3-1.7-.4-3-.3-3.8.2-.9.2-1.6.1-2.3a17.3 17.3 0 00-.8-4.5 90 90 0 01-.5-2.2c-.4-2 0-3.3 1.2-4.2 1.8-1 3.3-1.2 4.5-.3.6-.4 1.3-.3 2.3.2.5-.6 1.2-1 2-1.4a3 3 0 012.3-.1c.6.2 1.1.6 1.5 1.1.3.5.6 1.1.8 1.9a37.8 37.8 0 011 8v2.3c0 1.8.1 3.7.4 5.9.4 2 .5 3.7.5 5a14.3 14.3 0 00.4 3.6l.4 1c.4.5.8.7 1.3.6.3-.2.4-.4.4-.7l-.1-1.3-.2-1.6c-.1-.6-.2-1.2-.1-1.8a112.1 112.1 0 00.4-5.3 90.2 90.2 0 011.5-11.2c.8-.7 1.5-1.6 2-2.7-.3-.3-.4-.5-.4-.7l.6-2.2c0-.5.3-1 .7-1.4.5-.4.9-.6 1.3-.5.4 0 .7.2.9.4.2.1.4.4.6.8.3.7.5 2 .5 3.7a327.8 327.8 0 00.5 5.5l.1 1.5v5c0 1 .2 1.9.6 2.9l.8 2v.9l-.3 1.1v1.9c0 1.5.3 2.7 1 3.4 1.2 1 2 .6 2.2-1.2l.2-2.5zM502.4 234.4c-1.7.5-2 3.4-1 8.7.4 1.5.5 2.7.5 3.7.1 1 0 2-.3 3.2-.3 1.1-.5 2-.5 2.8 0 .7 0 1.5-.3 2.4v3.3a1333.5 1333.5 0 01-.3 7.4c.1.5.3.8.5 1l.8.2c.7.3 1.1.6 1.3 1 .1.4.2 1 .1 1.7 0 .7 0 1.5-.2 2.3-.5 1.9-1 3.1-1.9 3.7-.4.3-1 .4-1.4.3l-1.5-.3a6.9 6.9 0 00-4.4.4c-3 1.6-5.2 1.6-6.8 0a5 5 0 01-1.2-3c-.2-2.4-.1-4 .4-4.7.5-.7.9-1.1 1.2-1.3l.9-.5c.5-.3.8-.7.8-1.3l.1-1.4.4-1.8c.3-1.4.1-2.6-.4-3.6s-.8-2-.7-2.7l.2-1.9.3-1.8v-3.6a65 65 0 01-.5-6.5v-2.9c0-2-.2-3.3-.6-3.7-.4-.4-.8-.6-1.1-.6l-1.1-.1c-1 0-1.5 0-1.8-.5-.6-.5-.8-1.2-.8-2 0-1 .1-1.6.4-2 .4-.5.6-1 .7-1.5l.2-1.9c0-1.5 0-2.5-.2-3l-.4-1.2-.1-1.1c0-1.5 1-2.2 3-2.3h6.9a26 26 0 019.4-.3c1.3.5 2 1.9 2 4.1a69.8 69.8 0 01.3 6.9c.2 2.5-.8 4-2.9 4.4zM511.2 220.8l3 .2h4c2.9.1 5 0 6.2-.6 2.4-1.3 4.4-1.4 5.9-.5a6 6 0 002 .8c.7 0 1.6-.2 2.8-1 1.3-.5 2.4-.6 3.2-.3.9.3 1.5.7 2 1.1.3.5.6 1.3.7 2.4v3.3a28 28 0 01-.3 3.1c-.3 2.6-.4 4.2-.3 5a345.7 345.7 0 01.4 5c0 2-.9 3-2.4 3.3-1 .2-1.9 0-2.4-.7s-1-1.5-1.3-2.3l-1-2.3c-.2-.6-.7-.8-1.3-.6-.6.1-1 .8-1.1 2-.2 1-.2 2.4-.2 4a82.3 82.3 0 00.6 8.8 1691.8 1691.8 0 01.3 6.6c0 2.2-.3 3.6-.9 4.4-.3.4-.4 1-.4 1.5l.1 1.7.5 1.8.2 2.2c0 2-.9 3.4-2.7 4.2a5 5 0 00-1.8 1.5l-1.3 1.4c-.2.2-.6.3-1 .2-.3 0-.6-.2-.8-.5l-.4-.9c-.3-.8-.8-1.3-1.3-1.6-.7-.1-1-.7-1.2-1.6a73.4 73.4 0 01-.4-5.2c-.1-1-.4-1.9-1-2.6-.5-.6-1-1-1.3-1.2-.4-.2-.6-.6-.7-1.2V260l.5-2.4a66 66 0 001-14.9c-.2-2.6-1-3.9-2.1-3.9-.6 0-1 .4-1.3.9l-.8 1.6c-.7 1.7-2 2.1-3.9 1.4-.6-.3-1-.8-1.2-1.5-.2-.6-.3-1.4-.3-2.2l-.1-2.8c0-1-.2-2-.5-2.8l-1-2.5c-.2-.8-.4-1.6-.3-2.4 0-.8.2-1.6.5-2.4.4-.7.5-1.5.3-2.2 0-.8 0-1.5.5-2.2.4-.8 1.2-1 2.3-1zM563.6 266.5V259c0-1.5 0-2.4-.4-2.8-.4-.7-1.1-1-2-1-1 0-1.7.3-2.2.8-.4.6-.6 1.3-.7 2l-.2 2.7v3a42.7 42.7 0 000 7.5c0 .3-.3.6-.7 1-.4.3-.8.7-1 1.3l-.7 1.5c-.6 1.4-1.2 2-1.9 2-2 .3-3.6-.8-5-3a7 7 0 00-1.2-1.7c-1-1.1-1.3-3-.6-5.5a18 18 0 00.2-6.5v-1.8a3 3 0 00-.2-1.8c-.3-.6-.4-1.3-.3-2.1a5 5 0 00-.2-2.2v-1.7c0-.5 0-1-.3-1.2-.2-.3-.2-.7-.2-1.3l.2-1.9c.2-1.8 0-3.2-.6-4.1-.6-1-1.2-2-1.6-3.3-.4-1.3-.3-2.8.2-4.5a21 21 0 00.8-8.8c-.1-.8 0-1.8.5-2.8.6-1.7 2.8-2.6 6.4-2.8 1.1 0 2.2-.2 3-.4 1-.3 2-.3 2.8 0a2 2 0 011.7 1.7 19.8 19.8 0 00.7 3c0 .6 0 1.7-.3 3.1a23.2 23.2 0 00-.6 6.4c0 2.2 0 3.8-.3 4.8-.3.9-.4 1.6-.3 2 .1.5.3 1 .6 1.2 1 1 2.4.8 4.2-.3l.7-.7a35 35 0 01-.5-5.2c0-3-.1-5.5-.3-7.2V224c.3-1.2.8-2.3 1.7-3.3.8-1 1.6-1.4 2.3-1.2.7 0 1.3.4 1.8.9.5.4 1 .6 1.4.6.4 0 .9-.3 1.6-.8 1.9-1.1 3.6-.4 5.2 2-.5.5-.7 1.5-.5 2.8.3 1.3.3 2.3.2 2.9a1103.5 1103.5 0 01-.8 9.1 28 28 0 00-.1 7.4c.3 2.8.3 5.4.1 7.6-.2 2.3-.2 4.1-.1 5.7a8.2 8.2 0 01-.7 4.5c-.7 1.4-1.2 2.9-1.3 4.4l-.2 3.8c0 1.2-.2 2.2-.4 3.2-.4 2.1-1.4 3.2-3 3.2-1.9 0-2.9-1.4-3.1-4.1a6 6 0 01-2.9-1.8c-.7-.9-1-2.3-.9-4.4zM601.4 220.8l3 .2h4c2.9.1 5 0 6.1-.6 2.5-1.3 4.5-1.4 6-.5a6 6 0 002 .8c.6 0 1.6-.2 2.8-1 1.3-.5 2.3-.6 3.2-.3.9.3 1.5.7 1.9 1.1.4.5.6 1.3.7 2.4a27.8 27.8 0 01-.2 6.4l-.4 5a296.7 296.7 0 01.5 5c-.1 2-1 3-2.4 3.3-1.1.2-2 0-2.4-.7-.5-.7-1-1.5-1.3-2.3a16 16 0 00-1-2.3c-.3-.6-.7-.8-1.3-.6-.6.1-1 .8-1.2 2a83.2 83.2 0 00.5 12.9 1691.8 1691.8 0 01.3 6.5c0 2.2-.3 3.6-1 4.4-.2.4-.4 1-.4 1.5s0 1.1.2 1.7l.4 1.8c.2.6.3 1.3.3 2.2 0 2-1 3.4-2.7 4.2a5 5 0 00-1.9 1.5l-1.2 1.4c-.3.2-.6.3-1 .2-.4 0-.6-.2-.8-.5l-.5-.9c-.3-.8-.7-1.3-1.3-1.6-.6-.1-1-.7-1.2-1.6a76.1 76.1 0 01-.3-5.2c-.1-1-.5-1.9-1-2.6-.6-.6-1-1-1.4-1.2-.3-.2-.6-.6-.7-1.2V260l.6-2.4a66 66 0 001-14.9c-.3-2.6-1-3.9-2.2-3.9-.6 0-1 .4-1.2.9l-.9 1.6c-.7 1.7-2 2.1-3.8 1.4-.6-.3-1-.8-1.3-1.5l-.3-2.2v-2.8c0-1-.2-2-.6-2.8l-.9-2.5c-.3-.8-.4-1.6-.4-2.4l.6-2.4c.3-.7.4-1.5.3-2.2-.1-.8 0-1.5.4-2.2.5-.8 1.3-1 2.4-1zM653.8 266.5V259c0-1.5-.1-2.4-.4-2.8-.5-.7-1.2-1-2.1-1-1 0-1.7.3-2.1.8-.4.6-.7 1.3-.8 2l-.1 2.7v3a42.7 42.7 0 000 7.5c-.1.3-.4.6-.8 1-.4.3-.7.7-1 1.3l-.6 1.5c-.6 1.4-1.3 2-2 2-1.9.3-3.5-.8-5-3a7 7 0 00-1.1-1.7c-1.1-1.1-1.3-3-.7-5.5a18 18 0 00.3-6.5v-1.8a3 3 0 00-.3-1.8c-.2-.6-.3-1.3-.3-2.1a5 5 0 00-.1-2.2c-.2-.6-.2-1.2 0-1.7 0-.5 0-1-.3-1.2-.2-.3-.3-.7-.2-1.3l.2-1.9c.1-1.8 0-3.2-.7-4.1-.6-1-1.1-2-1.6-3.3-.4-1.3-.3-2.8.3-4.5a21 21 0 00.7-8.8c0-.8 0-1.8.5-2.8.7-1.7 2.8-2.6 6.4-2.8 1.2 0 2.2-.2 3.1-.4 1-.3 1.9-.3 2.8 0a2 2 0 011.7 1.7 19.2 19.2 0 00.6 3c.1.6 0 1.7-.3 3.1a23.1 23.1 0 00-.6 6.4c.1 2.2 0 3.8-.3 4.8-.2.9-.3 1.6-.2 2 .1.5.3 1 .6 1.2 1 1 2.4.8 4.1-.3.3-.1.5-.4.7-.7a35 35 0 01-.4-5.2c0-3-.2-5.5-.3-7.2-.2-1.7-.2-3.2 0-4.3.2-1.2.8-2.3 1.6-3.3.9-1 1.6-1.4 2.4-1.2.7 0 1.3.4 1.8.9.5.4 1 .6 1.3.6.4 0 1-.3 1.7-.8 1.8-1.1 3.5-.4 5.2 2-.5.5-.7 1.5-.5 2.8.3 1.3.3 2.3.2 2.9a1770.6 1770.6 0 01-.8 9.1 28 28 0 00-.2 7.4c.3 2.8.4 5.4.2 7.6-.2 2.3-.3 4.1-.2 5.7a8.2 8.2 0 01-.6 4.5c-.8 1.4-1.2 2.9-1.3 4.4l-.2 3.8c0 1.2-.2 2.2-.4 3.2-.5 2.1-1.5 3.2-3 3.2-1.9 0-3-1.4-3.2-4.1a6 6 0 01-2.8-1.8c-.7-.9-1-2.3-1-4.4zM673.2 261.9l-.1-3.9v-2-2.3a27.1 27.1 0 01-.5-5.5l-.1-1.4-1.1-2.8c-.6-1.3-.9-2.7-.9-4.2a6 6 0 011-3.7c.6-.9.8-1.8.7-2.7a50.1 50.1 0 01-.4-6.4c0-1.1.3-2.2.8-3.3 1-2.5 3.3-3.7 6.6-3.6 2 0 3.8.2 5.3.6 1.5.3 2.6.5 3.3.4.7 0 1.8-.3 3.3-.7 2-.8 3.7-.8 5 .1l1 .6.9.5c.8 1 1 3 .7 6.3 0 1-.2 1.9-.3 2.8-.2 2.3-.2 4 0 5a13.5 13.5 0 01.3 5.2c-.3 1.4-.8 2.2-1.7 2.2-.7 0-1.3-.3-1.6-.7l-.8-1.4-.7-1.5c-.2-.4-.7-.6-1.4-.6-2.2 0-3.7-.3-4.4-.7a4 4 0 00-2-.8c-.5-.2-1-.1-1.5.1a3 3 0 00-1.9 2.5 46.3 46.3 0 00-.3 5.6c.1 1.8.4 2.8 1 3 .6.2 1.1.3 1.5.1l1.2-.7a6.1 6.1 0 013.7-1.1c1.3 0 2.2.5 2.8 1.5.7 1 1 2 .9 3l-.3 2.6c0 1-.2 1.8-.3 2.6-.7 3.1-2.2 3.7-4.4 1.8-2.9-.2-4.6.2-5.3 1-.2.3-.3.8-.5 1.6-.1.8-.2 1.7 0 2.6.2 2.3 1.3 3.6 3.3 3.8 1.3 0 2.5-.1 3.6-.6 1-.4 1.8-1 2.1-1.5.3-.6.7-1 1.2-1a16.2 16.2 0 012.2-.3l1 .1c1 .3 1.5 1 1.7 2.1a5 5 0 01-.3 3 12 12 0 00-.9 2.5c0 .7-.2 1.2-.3 1.6a72.7 72.7 0 00-2 2.6c-.3.4-.7.3-1.3-.2-1-.9-2.4-.4-4 1.5a4 4 0 01-1.2 1.2 4 4 0 01-2.2.3c-.9 0-1.7-.3-2.2-.7l-1.5-1.4c-.8-1-2-1.3-4-1-1 .1-2-.4-2.6-1.5-.2-.1-.3-.4-.4-.8l-.2-1.4a7.4 7.4 0 00-1-2.4c-.3-.4-.4-1-.5-1.5l-.1-2-.2-1.4v-1.2l.3-1.5zM704.2 261.9V258v-2l-.1-2.3a27.3 27.3 0 01-.4-5.5c0-.5 0-1-.2-1.4-.1-.6-.5-1.5-1-2.8-.6-1.3-1-2.7-1-4.2a6 6 0 011-3.7c.7-.9.9-1.8.7-2.7a49.3 49.3 0 01-.3-6.4c0-1.1.3-2.2.7-3.3 1.1-2.5 3.3-3.7 6.6-3.6 2 0 3.9.2 5.4.6 1.5.3 2.6.5 3.3.4.7 0 1.8-.3 3.2-.7 2.1-.8 3.8-.8 5 .1l1 .6 1 .5c.8 1 1 3 .7 6.3l-.3 2.8c-.3 2.3-.3 4 0 5a13.4 13.4 0 01.3 5.2c-.3 1.4-.9 2.2-1.7 2.2-.8 0-1.3-.3-1.7-.7l-.7-1.4-.7-1.5c-.2-.4-.7-.6-1.5-.6-2.2 0-3.6-.3-4.4-.7a4 4 0 00-1.9-.8c-.5-.2-1-.1-1.5.1a3 3 0 00-2 2.5 46.9 46.9 0 00-.2 5.6c0 1.8.4 2.8 1 3 .6.2 1 .3 1.5.1l1.2-.7a6.1 6.1 0 013.6-1.1c1.3 0 2.3.5 2.9 1.5.6 1 1 2 .8 3l-.3 2.6c0 1-.1 1.8-.3 2.6-.7 3.1-2.1 3.7-4.3 1.8-2.9-.2-4.7.2-5.4 1l-.4 1.6c-.2.8-.2 1.7-.1 2.6.2 2.3 1.4 3.6 3.4 3.8 1.3 0 2.5-.1 3.5-.6 1.1-.4 1.8-1 2.2-1.5.3-.6.7-1 1.1-1a16.2 16.2 0 012.3-.3l1 .1c1 .3 1.5 1 1.6 2.1a5 5 0 01-.3 3 12 12 0 00-.8 2.5 13 13 0 01-.3 1.6 68.3 68.3 0 00-2 2.6c-.3.4-.7.3-1.3-.2-1.1-.9-2.5-.4-4 1.5a4 4 0 01-1.3 1.2 4 4 0 01-2 .3c-1 0-1.8-.3-2.4-.7l-1.5-1.4c-.7-1-2-1.3-3.9-1-1 .1-2-.4-2.7-1.5l-.3-.8-.3-1.4a7.4 7.4 0 00-1-2.4c-.2-.4-.4-1-.4-1.5 0-.6 0-1.3-.2-2l-.2-1.4.1-1.2.2-1.5zM732 274.6c-.1-.3-.2-.7-.1-1 .1-.5.5-1 1.2-1.7l2.8-1.8c1.1-.6 2.7-.8 4.6-.6.9.1 1.6.7 2.1 1.6.4.8.6 1.5.4 2.2 0 .6-.3 1.1-.7 1.6l-1.2 1.1c-.9.7-1.7 1-2.4 1.1-.7.1-1.2.3-1.5.6-.2.4-.7.5-1.3.3-.6-.1-1-.4-1.2-1-.2-.4-.4-.7-.9-.8l-1-.7c-.3-.2-.6-.5-.8-.9z" fill="#2A8400"/>
  <path d="M864.4 305.2c-1.3 0-2.5-.3-3.5-.8-1-.6-1.8-1.3-2.4-2.3-.6-1-1-2.2-1-3.4 0-1.2.4-2.4 1-3.3.6-1 1.4-1.8 2.4-2.4 1-.5 2.2-.8 3.5-.8 1.1 0 2 .2 3 .6a6 6 0 012.2 1.6l-1.9 1.7a4 4 0 00-3.1-1.4c-.8 0-1.5.1-2.1.5-.6.3-1.1.8-1.5 1.4-.3.6-.5 1.3-.5 2.1s.2 1.5.5 2c.4.7.9 1.2 1.5 1.5.6.4 1.3.5 2 .5a4 4 0 003.2-1.5l1.9 1.8c-.6.7-1.3 1.3-2.2 1.6-1 .4-2 .6-3 .6zM874 296.6c.4-.5.8-.8 1.4-1 .6-.3 1.2-.4 2-.4v2.6h-.6c-.9 0-1.5.2-2 .6-.4.5-.6 1.1-.6 2v4.6h-2.8v-9.7h2.7v1.3zM888.5 300.2l-.1.8h-7.3c.1.6.4 1 1 1.4.4.3 1 .5 1.7.5.5 0 1 0 1.4-.2l1-.7 1.6 1.6c-1 1-2.3 1.5-4 1.5-1.1 0-2-.2-3-.6a4.7 4.7 0 01-2.6-4.3c0-1 .3-1.8.7-2.6.5-.8 1-1.4 1.9-1.8.8-.4 1.6-.6 2.6-.6s1.8.2 2.6.6c.8.4 1.4 1 1.8 1.7.4.8.7 1.7.7 2.7zm-5-2.9c-.7 0-1.2.2-1.7.5-.4.4-.7.9-.8 1.5h4.8c0-.6-.4-1-.8-1.4-.4-.4-1-.6-1.6-.6zM899.8 300.2v.8h-7.4c.2.6.5 1 1 1.4.5.3 1 .5 1.8.5.5 0 1 0 1.3-.2l1.1-.7 1.5 1.6c-.9 1-2.2 1.5-4 1.5-1 0-2-.2-2.9-.6a4.7 4.7 0 01-2.6-4.3c0-1 .2-1.8.7-2.6.4-.8 1-1.4 1.8-1.8.8-.4 1.7-.6 2.7-.6 1 0 1.8.2 2.5.6.8.4 1.4 1 1.8 1.7.5.8.7 1.7.7 2.7zm-5-2.9c-.7 0-1.2.2-1.6.5-.5.4-.7.9-.8 1.5h4.8c-.1-.6-.4-1-.8-1.4-.5-.4-1-.6-1.6-.6zM907.4 295.2c.9 0 1.7.2 2.4.6.8.4 1.4 1 1.8 1.7.4.8.6 1.7.6 2.7 0 1-.2 1.8-.6 2.6-.4.7-1 1.3-1.8 1.7a5 5 0 01-2.4.6c-1.2 0-2.2-.3-3-1.1v4.5h-2.7v-13.2h2.7v1.1c.7-.8 1.7-1.2 3-1.2zm-.5 7.6c.7 0 1.3-.2 1.8-.7.4-.5.7-1.1.7-2 0-.8-.3-1.4-.7-1.9-.5-.5-1-.7-1.8-.7-.7 0-1.3.2-1.8.7-.4.5-.7 1.1-.7 2 0 .8.3 1.4.7 2 .5.4 1 .6 1.8.6zM917.4 305.1c-.8 0-1.6 0-2.4-.2-.8-.2-1.4-.5-1.8-.8l.9-2a6.8 6.8 0 003.4 1c1.2 0 1.8-.4 1.8-1 0-.2-.2-.4-.5-.6l-1.5-.3c-.8 0-1.5-.2-2-.4-.5-.1-1-.4-1.3-.8-.4-.4-.6-1-.6-1.7 0-.6.2-1.1.5-1.6.4-.5.9-.9 1.6-1.1.7-.3 1.5-.4 2.4-.4a9 9 0 013.7.8l-1 2c-.8-.5-1.7-.7-2.7-.7-.6 0-1 0-1.4.2-.3.2-.4.4-.4.7 0 .3.1.5.5.6l1.5.4 2 .4c.5.1.9.4 1.3.8.3.4.5 1 .5 1.7 0 .6-.1 1.1-.5 1.6-.4.4-.9.8-1.6 1a7 7 0 01-2.4.4zM930 304.5a3 3 0 01-1.1.5l-1.3.1c-1.1 0-2-.3-2.7-.8-.6-.6-.9-1.5-.9-2.6v-4h-1.5v-2.2h1.5v-2.3h2.8v2.3h2.4v2.2h-2.4v4c0 .3.1.7.3.9.2.2.5.3 1 .3.4 0 .7-.1 1-.3l.8 2zM940.7 300.2v.8h-7.4c.1.6.4 1 1 1.4.4.3 1 .5 1.8.5.5 0 1 0 1.3-.2l1.1-.7 1.5 1.6c-1 1-2.3 1.5-4 1.5-1.1 0-2-.2-2.9-.6a4.7 4.7 0 01-2.6-4.3c0-1 .2-1.8.6-2.6.5-.8 1.1-1.4 1.9-1.8.8-.4 1.7-.6 2.6-.6 1 0 1.8.2 2.6.6.8.4 1.4 1 1.8 1.7.5.8.7 1.7.7 2.7zm-5-2.9c-.7 0-1.2.2-1.6.5-.5.4-.7.9-.8 1.5h4.7c0-.6-.3-1-.8-1.4-.4-.4-1-.6-1.5-.6zM945.2 296.6c.4-.5.8-.8 1.4-1 .6-.3 1.2-.4 2-.4v2.6h-.7c-.8 0-1.4.2-1.9.6-.4.5-.6 1.1-.6 2v4.6h-2.9v-9.7h2.7v1.3z" fill="#C4C4C4"/>
  <path d="M44.2 383.8V382h27.4v1.8H44.2zm0 3.6v-1.8h27.4v1.8H44.2zm0 3.7v-1.8h27.4v1.8h-7.3V424h-1.8v-33h-1.9v33h-1.8v-33H57v33h-1.8v-33h-1.9v33h-1.8v-33h-7.3zM112.4 387.4h1.8V424h-1.8v-36.6zm-36.6 0h1.8V424h-1.8v-36.6zm32.9 0h1.8V424h-1.8v-36.6zm-3.7 0h1.9V424H105v-36.6zm-3.6 0h1.8V424h-1.8v-14.6H88.6V424h-1.9v-36.6h1.9v12.8h12.8v-12.8zm-18.3 0h1.8V424h-1.8v-36.6zm-3.7 0h1.9V424h-1.9v-36.6zm22 20.1v-1.8H88.6v1.8h12.8zm0-3.6V402H88.6v1.8h12.8zM128.1 424h-1.8v-36.6h1.8V424zm-3.6 0h-1.9v-36.6h1.9V424zm-3.7 0H119v-36.6h1.8V424zm11-9.1h17.5v1.8h-17.5v1.8h17.5v1.8h-17.5v1.9h17.5v1.8H130v-36.6h19.3v1.9h-17.5v1.8h17.5v1.8h-17.5v1.9h17.5v1.8h-17.5v4.5h16.5v1.9h-16.5v1.8h16.5v1.8h-16.5v1.8h16.5v1.9h-16.5v4.6zM193.6 405.5c1.8-1.9 2.8-4.1 2.8-6.8a9 9 0 00-2.8-6.6 9.1 9.1 0 00-6.7-2.8h-20.1V424h-1.9v-36.6h22c2 0 3.8.6 5.6 1.6a11.4 11.4 0 013.5 16.7 11.9 11.9 0 01.6 12.8c-1 1.7-2.4 3-4 4-1.8.8-3.7 1.3-5.7 1.3h-11.6V422H187c2.6 0 4.8-1 6.7-2.8a9.3 9.3 0 002-10.6 10.3 10.3 0 00-2-3zm-6.7 9.2h-11.6v1.8H187a4 4 0 002.8-1.1 4 4 0 001.2-3 4 4 0 00-1.2-3 3.8 3.8 0 00-2.8-1.2h-11.6v1.8h11.6c.6 0 1 .2 1.5.7.5.5.7 1 .7 1.6 0 .8-.2 1.3-.6 1.7-.5.5-1 .7-1.6.7zm0 3.6h-11.6v1.8H187c2 0 3.9-.7 5.4-2.2a7.5 7.5 0 002.3-5.6c0-1.4-.4-2.7-1.2-4a7.7 7.7 0 00-3-2.8 7.6 7.6 0 004.2-6.8c0-2-.8-3.8-2.3-5.3a7.4 7.4 0 00-5.4-2.3h-18.3V424h1.8v-31H187c1.5 0 2.9.5 4 1.7a5.4 5.4 0 011.8 4c0 1.7-.5 3-1.7 4.2a5.8 5.8 0 01-4.1 1.6h-11.6v1.8H187c1.5 0 2.9.6 4 1.8a5.8 5.8 0 011.8 4.2c0 1.8-.5 3.2-1.7 4.3a5.7 5.7 0 01-4.1 1.7zm0-17.5h-11.6v1.9H187c1.1 0 2-.4 2.8-1 .8-.8 1.2-1.8 1.2-3 0-1-.4-2-1.2-2.8a4 4 0 00-2.8-1.1h-14.6V424h1.8v-27.4h12.8c.6 0 1 .2 1.5.6.5.5.7 1 .7 1.5 0 .7-.2 1.2-.6 1.6-.5.4-1 .5-1.6.5zM226.4 407.8v-20.4h1.8v20.4c0 2-.7 3.6-2.2 5a7.5 7.5 0 01-5.3 2c-2.1 0-3.9-.6-5.4-2a6.6 6.6 0 01-2.2-5v-20.4h1.8v20.4c0 1.4.6 2.7 1.7 3.7s2.5 1.5 4 1.5c1.7 0 3-.5 4.1-1.5 1.1-1 1.7-2.3 1.7-3.7zm3.7 0v-20.4h1.8v20.4c0 3-1.1 5.5-3.3 7.6-2.2 2-4.8 3.1-8 3.1-3 0-5.6-1-7.8-3.1a10.1 10.1 0 01-3.3-7.6v-20.4h1.8v20.4c0 2.5.9 4.6 2.7 6.3 1.9 1.7 4 2.6 6.7 2.6 2.5 0 4.8-.9 6.6-2.6a8.4 8.4 0 002.8-6.3zm3.6 0v-20.4h1.9v20.4c0 2.6-.7 5-2 7.2-1.4 2.2-3.2 4-5.5 5.2a15 15 0 01-7.4 2 15 15 0 01-12.9-7.2c-1.3-2.2-2-4.6-2-7.2v-20.4h1.8v20.4a12.9 12.9 0 0013 12.5 13.1 13.1 0 0011.4-6.2c1.1-2 1.7-4 1.7-6.3zm3.7 0v-20.4h1.8v20.4a18 18 0 01-11.4 16.6 18.3 18.3 0 01-14.3 0 18.1 18.1 0 01-11.3-16.6v-20.4h1.8v20.4c0 3 .7 5.6 2.2 8.1a16.6 16.6 0 0014.5 8.1 16.6 16.6 0 0016.7-16.2zM260.6 406.6h-2.9c-3.5 0-6.3-.7-8.2-2.2a7.1 7.1 0 01-2.8-6c0-2.3 1-4.3 3.3-5.9 2.3-1.6 5.4-2.3 9.5-2.3 2.7 0 5.2.3 7.6 1 2.3.8 4.3 1.9 5.8 3.2l-1.4 1.2c-1.4-1.2-3.1-2-5.2-2.7-2.1-.6-4.4-1-6.8-1-3.6 0-6.3.7-8.2 2-1.9 1.1-2.8 2.7-2.8 4.6 0 2 .7 3.6 2.3 4.7 1.5 1 3.9 1.6 7 1.6h2.7c3.6 0 6.4.7 8.3 2.2a7 7 0 012.9 6c0 2.3-1.1 4.3-3.4 5.9a16.4 16.4 0 01-9.5 2.3 25 25 0 01-7.6-1c-2.3-.8-4.2-1.9-5.8-3.2l1.4-1.2c1.4 1.2 3.2 2 5.3 2.7 2 .6 4.3.9 6.7.9a15 15 0 008.2-1.8c2-1.2 2.9-2.8 2.9-4.7 0-2-.8-3.6-2.4-4.6a11.9 11.9 0 00-6.9-1.7zm0 3.7h-2.9c-4.7 0-8.3-1.1-10.9-3.2-2.5-2.2-3.8-5-3.8-8.6 0-1.7.4-3.2 1-4.7.8-1.4 1.9-2.7 3.2-3.7 1.4-1.1 3.1-2 5.2-2.6a27.5 27.5 0 0116.2.5c3 1 5.3 2.4 7.2 4.1l-1.5 1.1a17.7 17.7 0 00-6.5-3.6c-2.6-.8-5.3-1.3-8.3-1.3-4.6 0-8.2 1-10.8 3-2.6 1.8-3.9 4.3-3.9 7.2 0 3 1.1 5.4 3.4 7.2a15 15 0 009.5 2.7h2.8c5 0 7.5 1.5 7.5 4.5 0 1.4-.7 2.5-2.3 3.4-1.5.8-3.8 1.3-6.9 1.3-2.1 0-4.1-.3-6-.8a13 13 0 01-4.5-2.1l1.4-1.1a16 16 0 009.1 2.1c2.6 0 4.4-.2 5.6-.7 1.2-.6 1.8-1.2 1.8-2 0-1-.4-1.7-1.2-2.1-.9-.4-2.3-.6-4.4-.6zm0-7.3h-2.9c-5 0-7.4-1.5-7.4-4.5 0-1.4.8-2.5 2.3-3.4 1.5-.8 3.8-1.3 6.9-1.3 2.1 0 4.1.3 6 .8 1.8.5 3.4 1.2 4.6 2.1l-1.5 1.1a16 16 0 00-9.1-2.2c-2.5 0-4.4.3-5.6.8-1.2.6-1.8 1.2-1.8 2 0 1 .4 1.7 1.3 2.1.8.4 2.3.6 4.3.6h3c4.6 0 8.3 1.1 10.8 3.2 2.6 2.2 3.8 5 3.8 8.6a10 10 0 01-1 4.7c-.8 1.4-1.8 2.7-3.2 3.8-1.4 1-3 2-5.2 2.5a27.9 27.9 0 01-16.2-.5c-2.9-1-5.2-2.4-7.1-4.1l1.4-1.1a18 18 0 006.5 3.6c2.6.8 5.4 1.3 8.3 1.3 4.6 0 8.2-1 10.8-3 2.6-1.9 4-4.3 4-7.2 0-3-1.2-5.5-3.4-7.3a15 15 0 00-9.6-2.6zM312.5 387.4h1.9l-11.5 24.3V424H301v-12.3l11.5-24.3zm-3.6 0h1.8l-11.5 24.3V424h-1.8v-12.3l11.5-24.3zm-3.7 0h1.9l-11.5 24.3V424h-1.9v-12.3l11.5-24.3zm-3.6 0h1.8l-11.5 24.3V424h-1.8v-12.3l-12.3-24.3h1.8l11.4 22.4 10.6-22.4zm-20.1 0h1.8l9 17.3-.8 2-10-19.3zm3.6 0h1.9l7.2 13.3-1 2-8-15.3zm3.8 0h1.8l5.3 9.3-.9 2-6.3-11.3zM349 406c0-2.2-.6-3.9-2-5a7.7 7.7 0 00-5.2-1.8c-1.9 0-3.5.6-4.8 1.9a6.2 6.2 0 00-2 4.6c0 1 0 2 .4 2.8.2.8.6 1.4 1 2 .5.5 1 1 1.7 1.3a8 8 0 002 .7 10.7 10.7 0 007.6-1.2v1.9a12 12 0 01-8.8.8c-1-.4-2-.9-2.9-1.5a7 7 0 01-2.1-2.8 10 10 0 01-.8-4 8.4 8.4 0 018.6-8.4c2.8 0 5 .8 6.7 2.3a8 8 0 012.5 6.4v18h-1.8v-18zm5.6 0v18h-1.9v-18c0-3.2-1-5.8-3-7.6-2-2-4.7-2.9-8-2.9a10.2 10.2 0 00-10.4 10.2c0 1.7.3 3.3.9 4.7a8.7 8.7 0 002.5 3.3 11.5 11.5 0 007.5 2.5c1.9 0 3.7-.4 5.5-1.3v1.9a14.3 14.3 0 01-14.4-1.9c-1.2-1-2-2.3-2.8-3.8-.7-1.6-1-3.4-1-5.4a12 12 0 0112.3-12c2.4 0 4.6.5 6.5 1.5 2 1 3.5 2.4 4.6 4.3 1.1 1.9 1.7 4 1.7 6.5zm3.6 0v18h-1.8v-18c0-2.8-.7-5.3-2-7.4-1.2-2.2-3-3.9-5.2-5a16 16 0 00-14.6.1 13.6 13.6 0 00-7 12c0 2.2.4 4.2 1.2 6 .8 1.7 1.9 3.2 3.2 4.4a15.4 15.4 0 0010 3.6c2 0 3.8-.4 5.7-1.2v1.8a16.8 16.8 0 01-13.8-.9 15.3 15.3 0 01-8-13.7 15.6 15.6 0 019.6-14.4 17.6 17.6 0 0114.7.7c2.4 1.3 4.4 3.2 5.9 5.6a16 16 0 012.1 8.4zm3.7 0v18H360v-18c0-3.5-.8-6.6-2.4-9.3a16.5 16.5 0 00-6.5-6.3 19.3 19.3 0 00-18.4.2 17.3 17.3 0 00-8.7 15.1 16.6 16.6 0 007.7 14.4 18.3 18.3 0 0010.3 3.2c2 0 3.9-.4 5.7-1.2v1.9c-1.9.7-3.8 1-5.8 1a21 21 0 01-11.4-3.4c-1.6-1.1-3-2.5-4.3-4a19.7 19.7 0 011.5-25.5 20 20 0 0114-5.7c2.9 0 5.5.4 8 1.4 2.5 1 4.6 2.3 6.4 4 1.8 1.6 3.2 3.7 4.2 6.1 1 2.5 1.6 5.2 1.6 8zM395.2 409.2l-1.8-3.3v-18.5h1.8v21.8zm3.7 6.4l-1.8-3.1v-25h1.8v28zm-25.2-13.4l1.8 3.3V424h-1.8v-21.8zm-3.7-6.6l1.9 3.4v25H370v-28.4zm.7-8.2h2.1L394 424h-2.1l-21.2-36.6zm4.3 0h2.2l21.1 36.6h-2.2L375 387.4zm4.3 0h2.1l19.3 33.4v-33.4h1.8V424h-2.1l-21.1-36.6zm-11 3.2V424h-2v-36.6h2.3l21 36.6h-2l-19.4-33.4zM418.3 413v-14.6h10.1c1.9 0 3.5.7 4.8 2.1 1.4 1.5 2 3.2 2 5.2s-.6 3.8-2 5.2a6.4 6.4 0 01-4.8 2.1h-10.1zm1.8-1.8h8.3c1.4 0 2.6-.5 3.5-1.6 1-1 1.5-2.4 1.5-4 0-1.4-.5-2.7-1.5-3.8-1-1-2.1-1.6-3.5-1.6h-8.3v11zm-3.6 3.7h12c2.3 0 4.4-1 6-2.7 1.8-1.8 2.7-4 2.7-6.5s-1-4.7-2.6-6.5a8.2 8.2 0 00-6.2-2.6h-12v18.3zm-1.9 1.8v-22h13.8c3 0 5.4 1.1 7.5 3.3 2 2.1 3.1 4.7 3.1 7.7s-1 5.6-3 7.8c-2.2 2.1-4.7 3.2-7.6 3.2h-13.8zm-1.8 1.8h15.6a12.6 12.6 0 0010.8-6.4 12.8 12.8 0 000-12.8 12.6 12.6 0 00-10.8-6.4h-15.6v25.6zm-1.8 1.8v-29.2h17.4a14.5 14.5 0 0114.4 14.6 14.6 14.6 0 01-14.4 14.6H411zm-1.9 1.9h19.3a16.5 16.5 0 0016.3-16.5c0-3-.8-5.7-2.3-8.2a16.2 16.2 0 00-14-8.2h-19.3v32.9zm19.3 1.8h-21v-36.6h21a18.2 18.2 0 0116.7 25.4 18.4 18.4 0 01-9.7 9.8c-2.3 1-4.6 1.4-7 1.4zM462.8 397.6h1.8V424h-1.9v-26.4zm-7.4-8.3v-1.9H483v1.9h-27.5zm0 3.6v-1.8H483v1.8h-27.5zm0 3.7v-1.9H483v1.9h-27.5zm18.3 1h1.8V424h-1.8v-26.4zm-3.6 0h1.8V424H470v-26.4zm-3.7 0h1.8V424h-1.8v-26.4zM523.5 387.4h1.8V424h-1.8v-36.6zm-36.6 0h1.8V424H487v-36.6zm33 0h1.8V424h-1.9v-36.6zm-3.7 0h1.8V424h-1.8v-36.6zm-3.7 0h1.8V424h-1.8v-14.6h-12.8V424h-1.8v-36.6h1.8v12.8h12.8v-12.8zm-18.3 0h1.8V424h-1.8v-36.6zm-3.6 0h1.8V424h-1.8v-36.6zm22 20.1v-1.8h-13v1.8h13zm0-3.6V402h-13v1.8h13zM539.3 424h-1.9v-36.6h1.9V424zm-3.7 0h-1.8v-36.6h1.8V424zm-3.7 0h-1.8v-36.6h1.8V424zm11-9.1h17.5v1.8h-17.5v1.8h17.5v1.8h-17.5v1.9h17.5v1.8h-19.3v-36.6h19.3v1.9h-17.5v1.8h17.5v1.8h-17.5v1.9h17.5v1.8h-17.5v4.5h16.5v1.9h-16.5v1.8h16.5v1.8h-16.5v1.8h16.5v1.9h-16.5v4.6zM577 397.6h1.7V424H577v-26.4zm-7.4-8.3v-1.9H597v1.9h-27.4zm0 3.6v-1.8H597v1.8h-27.4zm0 3.7v-1.9H597v1.9h-27.4zm18.3 1h1.8V424h-1.8v-26.4zm-3.7 0h1.8V424h-1.8v-26.4zm-3.6 0h1.8V424h-1.8v-26.4zM612 387.4h1.9V424H612v-36.6zm-3.6 0h1.8V424h-1.8v-36.6zm-3.7 0h1.8V424h-1.8v-36.6zm-3.6 0h1.8V424H601v-36.6zM632.4 406.5h11c1.5 0 2.7-.4 3.8-1.3a5 5 0 001.5-3.9c0-1.2-.5-2.3-1.6-3.3-1-1-2.3-1.4-3.6-1.4h-15.7V424h-1.9v-29.3h17.6a7 7 0 014.9 2 6 6 0 012.1 4.6 6.7 6.7 0 01-7 7h-11v-1.8zm0 3.7h11a8.8 8.8 0 009-8.9c0-2.2-1-4.2-2.7-5.8a8.7 8.7 0 00-6.2-2.6H624V424h-1.8v-33h21.2c2.8 0 5.3 1.1 7.5 3.2 2.1 2 3.2 4.4 3.2 7.1 0 3-1 5.6-3.2 7.6-2.1 2-4.6 3.1-7.5 3.1h-11v-1.8zm0 3.6h11a12.5 12.5 0 0012.6-12.5c0-2.1-.6-4.1-1.7-6a12.5 12.5 0 00-4.6-4.4c-2-1-4-1.6-6.2-1.6h-23V424h-1.9v-36.6h24.9c1.9 0 3.7.4 5.5 1.2a14.6 14.6 0 017.7 7.4 14.6 14.6 0 01-.9 13 13.3 13.3 0 01-5.5 5.1l3.9 9.9h-2l-3.6-9.2-1.6.5 3.4 8.7h-2l-3.3-8.4h-1.6l3.2 8.4h-2l-3.1-8.3h-1.7l3 8.3H641l-3-8.3h-5.6v-1.9zm-1 10.2h-1.8v-25.6h13.9c.9 0 1.7.3 2.4.9.6.5 1 1.2 1 2 0 2.3-1.2 3.4-3.4 3.4h-11v-1.8h11c1 0 1.5-.5 1.5-1.6 0-.3-.1-.5-.5-.7-.3-.3-.6-.4-1-.4h-12V424zM671 424h-1.8v-36.6h1.8V424zm-3.6 0h-1.9v-36.6h1.9V424zm-3.7 0H662v-36.6h1.8V424zm11-9.1h17.5v1.8h-17.5v1.8h17.5v1.8h-17.5v1.9h17.5v1.8h-19.3v-36.6h19.3v1.9h-17.5v1.8h17.5v1.8h-17.5v1.9h17.5v1.8h-17.5v4.5h16.5v1.9h-16.5v1.8h16.5v1.8h-16.5v1.8h16.5v1.9h-16.5v4.6zM707.5 413v-14.6h10.2c1.9 0 3.5.7 4.8 2.1 1.4 1.5 2 3.2 2 5.2s-.6 3.8-2 5.2a6.4 6.4 0 01-4.8 2.1h-10.2zm1.9-1.8h8.3c1.3 0 2.5-.5 3.5-1.6 1-1 1.4-2.4 1.4-4 0-1.4-.4-2.7-1.4-3.8-1-1-2.2-1.6-3.5-1.6h-8.3v11zm-3.7 3.7h12c2.4 0 4.4-1 6.1-2.7 1.8-1.8 2.6-4 2.6-6.5s-.9-4.7-2.6-6.5a8.2 8.2 0 00-6.1-2.6h-12v18.3zm-1.8 1.8v-22h13.8c2.9 0 5.4 1.1 7.4 3.3 2.1 2.1 3.2 4.7 3.2 7.7s-1 5.6-3.1 7.8c-2.1 2.1-4.6 3.2-7.5 3.2h-13.8zm-1.8 1.8h15.6a12.6 12.6 0 0010.8-6.4 12.8 12.8 0 000-12.8 12.6 12.6 0 00-10.8-6.4H702v25.6zm-1.9 1.8v-29.2h17.5c2.5 0 5 .6 7.1 2a14.5 14.5 0 017.2 12.6 14.6 14.6 0 01-14.3 14.6h-17.5zm-1.8 1.9h19.3a16.5 16.5 0 0016.3-16.5c0-3-.8-5.7-2.3-8.2a16.2 16.2 0 00-14-8.2h-19.3v32.9zm19.3 1.8h-21.1v-36.6h21a18.2 18.2 0 0116.7 25.4 18.4 18.4 0 01-9.7 9.8c-2.2 1-4.5 1.4-7 1.4z" fill="#FF9000"/>
  <path d="M876.9 462v-7.6l-3.8 6.3h-1.3l-3.7-6.1v7.4h-2.7v-12.6h2.4l4.7 7.8 4.7-7.8h2.4V462h-2.7zM887 462.1c-1 0-2-.2-2.8-.6a4.8 4.8 0 01-2.5-4.3c0-1 .2-1.9.7-2.6.4-.8 1-1.4 1.8-1.8.9-.4 1.8-.6 2.8-.6 1 0 2 .2 2.7.6a4.7 4.7 0 012.6 4.4c0 1-.2 1.8-.7 2.5-.4.8-1 1.4-1.9 1.8-.8.4-1.7.6-2.7.6zm0-2.3c.7 0 1.3-.2 1.8-.7.4-.5.7-1.1.7-2 0-.8-.3-1.4-.7-1.9-.5-.5-1-.7-1.8-.7-.7 0-1.3.2-1.8.7-.5.5-.7 1.1-.7 2 0 .8.3 1.4.7 2 .5.4 1 .6 1.8.6zM900 452.2a4 4 0 013 1c.7.8 1 1.8 1 3.3v5.5h-2.7v-5.1c0-.8-.2-1.3-.5-1.7-.4-.4-.8-.6-1.5-.6s-1.3.2-1.7.7c-.4.4-.6 1-.6 2v4.7h-2.8v-9.7h2.7v1.1c.3-.4.8-.7 1.4-.9.5-.2 1.1-.3 1.8-.3zM911.3 462.1c-1 0-1.9-.2-2.7-.6a4.8 4.8 0 01-2.6-4.3c0-1 .2-1.9.7-2.6.5-.8 1-1.4 1.9-1.8.8-.4 1.7-.6 2.7-.6 1 0 2 .2 2.8.6a4.7 4.7 0 012.6 4.4 4.8 4.8 0 01-2.6 4.4c-.8.3-1.7.5-2.8.5zm0-2.3c.8 0 1.4-.2 1.8-.7.5-.5.7-1.1.7-2 0-.8-.2-1.4-.7-1.9-.4-.5-1-.7-1.8-.7-.7 0-1.3.2-1.7.7-.5.5-.7 1.1-.7 2 0 .8.2 1.4.7 2 .4.4 1 .6 1.7.6zM924.8 461.5a3 3 0 01-1 .5l-1.3.1c-1.2 0-2-.3-2.7-.8-.6-.6-1-1.5-1-2.6v-4h-1.4v-2.2h1.5v-2.3h2.8v2.3h2.4v2.2h-2.4v4c0 .3 0 .7.3.9.2.2.5.3.9.3s.8-.1 1.1-.3l.8 2zM930.7 462.1c-1 0-2-.2-2.8-.6a4.8 4.8 0 01-2.6-4.3c0-1 .3-1.9.7-2.6.5-.8 1.1-1.4 2-1.8.7-.4 1.6-.6 2.7-.6 1 0 1.9.2 2.7.6a4.7 4.7 0 012.6 4.4 4.8 4.8 0 01-2.6 4.4c-.8.3-1.7.5-2.7.5zm0-2.3c.7 0 1.3-.2 1.7-.7.5-.5.7-1.1.7-2 0-.8-.2-1.4-.7-1.9-.4-.5-1-.7-1.7-.7-.8 0-1.4.2-1.8.7-.5.5-.7 1.1-.7 2 0 .8.2 1.4.7 2 .5.4 1 .6 1.8.6zM943.7 452.2a4 4 0 013 1c.7.8 1 1.8 1 3.3v5.5H945v-5.1c0-.8-.1-1.3-.5-1.7-.3-.4-.8-.6-1.4-.6-.7 0-1.3.2-1.7.7-.4.4-.6 1-.6 2v4.7h-2.8v-9.7h2.6v1.1a4.7 4.7 0 013.2-1.3z" fill="#C4C4C4"/>
  <g filter="url(#filter0_d)" fill="#63E326">
    <path d="M56 538v4.8h-4.8v9.5h-9.5v-9.5h4.8V538H56zm14.3 0v4.8h-4.8v9.5H56v-9.5h4.8V538h9.5zM79.8 571.3v-4.8H75V538h9.5v19h4.8v-19H94v19h4.8v-19h9.5v28.5h-4.8v4.8h-4.8v-4.8H94v-4.8h-4.8v4.8h-4.7v4.8h-4.8zM113 571.3V538h33.3v4.8h-23.8v9.5h19v4.7h-19v9.5h23.8v4.8H113zM155.8 571.3V538h9.4v28.5h19v4.8h-28.4zM198.5 571.3v-4.8h-4.8v-4.8H189v-14.2h4.8v-4.8h4.7V538h19v4.8h4.8v4.7h-9.6v-4.8h-9.4v4.8h-4.8v14.3h4.8v4.7h9.4v-4.8h9.6v4.8h-4.8v4.8h-19zM231.8 571.3v-4.8H227v-23.8h4.8V538h23.7v4.8h4.8v23.7h-4.8v4.8h-23.8zm4.7-4.8h14.3v-23.8h-14.3v23.8zM265 571.3V538h9.5v4.8h4.8v4.7h4.7v-4.8h4.8V538h9.4v33.3h-9.4v-19H284v9.5h-4.8v-9.5h-4.7v19H265zM303 571.3V538h33.3v4.8h-23.8v9.5h19v4.7h-19v9.5h23.8v4.8H303zM393.3 571.3v-28.5h-9.6V538h28.6v4.8h-9.6v28.5h-9.4zM421.8 571.3v-4.8H417v-23.8h4.8V538h23.7v4.8h4.8v23.7h-4.8v4.8h-23.8zm4.7-4.8h14.3v-23.8h-14.3v23.8zM493 571.3v-9.5h4.8V557h4.7v-4.8h4.8v-4.7h4.7v-4.8h-19V538h33.3v9.5h-4.8v4.8h-4.8v4.7H512v4.8h-4.8v4.7h19v4.8H493zM535.8 571.3v-4.8H531v-23.8h4.8V538h23.7v4.8h4.8v23.7h-4.8v4.8h-23.8zm4.7-4.8h14.3v-23.8h-14.3v23.8zM569 571.3V538h28.5v4.8h4.8V557h-9.5v4.8h4.7v4.7h4.8v4.8H588v-4.8h-4.8v-4.8h-4.7v9.5H569zm9.5-14.3h9.5v-4.8h4.8v-9.5h-14.3V557zM607 571.3V538h9.5v14.3h4.8v-4.8h4.7v-4.8h4.8V538h9.5v4.8h-4.8v4.7h-4.8v4.8H626v4.7h4.8v4.8h4.7v4.7h4.8v4.8H626v-4.8h-4.8v-4.8h-4.7v9.5H607zM654.5 561.8V538h14.3v14.3H664v9.5h-9.5zm0 9.5v-4.8h9.5v4.8h-9.5zM692.5 561.8V538h14.3v14.3H702v9.5h-9.5zm0 9.5v-4.8h9.5v4.8h-9.5z"/>
  </g>
  <path d="M824.6 606.4a7 7 0 013 .6c.7.3 1.4.9 1.8 1.5.5.7.7 1.5.7 2.5a4.3 4.3 0 01-2.6 4c-.8.3-1.8.5-2.9.5h-2.5v3.5h-3v-12.6h5.5zm-.1 6.8c.8 0 1.5-.2 2-.6.4-.4.6-1 .6-1.6 0-.7-.2-1.3-.6-1.6-.5-.4-1.2-.6-2-.6H822v4.4h2.4zM834.7 610.6c.3-.5.7-.8 1.3-1 .6-.3 1.2-.4 2-.4v2.6h-.6c-.8 0-1.5.2-2 .6-.4.5-.6 1.1-.6 2v4.6H832v-9.7h2.7v1.3zM849 614.2v.8h-7.3c.1.5.4 1 1 1.4.4.3 1 .5 1.7.5.6 0 1 0 1.4-.2l1-.7 1.6 1.6c-1 1-2.3 1.5-4 1.5-1.1 0-2-.2-3-.6a4.7 4.7 0 01-2.5-4.3c0-1 .2-1.8.6-2.6.5-.8 1-1.4 1.9-1.8.8-.4 1.6-.6 2.6-.6s1.8.2 2.6.6c.8.4 1.4 1 1.8 1.7.4.8.7 1.7.7 2.7zm-5-2.9c-.6 0-1.1.2-1.6.5-.4.4-.7.9-.8 1.5h4.8c0-.6-.3-1-.8-1.4-.4-.4-1-.6-1.6-.6zM854.2 619.1c-.8 0-1.6 0-2.4-.2-.7-.2-1.4-.5-1.8-.8l1-2c.4.3.9.5 1.5.7l1.8.2c1.2 0 1.8-.3 1.8-.9 0-.2-.2-.4-.5-.6l-1.5-.3c-.8 0-1.5-.2-2-.4-.5-.1-1-.4-1.3-.8-.4-.4-.6-1-.6-1.7 0-.6.2-1.1.5-1.6.4-.5 1-.9 1.6-1.1.7-.3 1.5-.4 2.4-.4a9 9 0 013.7.8l-.9 2c-.9-.5-1.8-.7-2.8-.7-.6 0-1 0-1.3.2-.3.2-.5.4-.5.7 0 .3.2.5.5.6l1.5.4 2 .4c.5.1 1 .4 1.3.8.4.4.6 1 .6 1.7 0 .6-.2 1.1-.6 1.6-.3.4-.9.8-1.6 1a7 7 0 01-2.4.4zM863.7 619.1c-.8 0-1.5 0-2.3-.2-.8-.2-1.4-.5-1.8-.8l.9-2a6.8 6.8 0 003.4 1c1.1 0 1.7-.4 1.7-1 0-.2-.1-.4-.4-.6l-1.5-.3c-.8 0-1.5-.2-2-.4-.5-.1-1-.4-1.4-.8-.3-.4-.5-1-.5-1.7 0-.6.2-1.1.5-1.6.4-.5.9-.9 1.6-1.1.6-.3 1.4-.4 2.4-.4a9 9 0 013.7.8l-1 2c-.8-.5-1.7-.7-2.7-.7-.6 0-1 0-1.4.2-.3.2-.4.4-.4.7 0 .3.1.5.5.6l1.5.4 2 .4c.5.1.9.4 1.3.8.3.4.5 1 .5 1.7 0 .6-.2 1.1-.5 1.6-.4.4-1 .8-1.6 1a7 7 0 01-2.5.4zM879.5 619.2c-1 0-2-.1-3-.4-.8-.3-1.6-.6-2.1-1l1-2.2c.5.4 1.1.7 1.9 1 .7.2 1.5.3 2.2.3.8 0 1.4-.1 1.8-.4.4-.2.6-.6.6-1 0-.3 0-.5-.3-.7l-1-.5a17 17 0 00-1.4-.4l-2.4-.7c-.6-.2-1.1-.6-1.5-1a3 3 0 01-.7-2c0-.8.2-1.5.6-2 .4-.7 1-1.1 1.8-1.5a9.7 9.7 0 015.3-.2 7 7 0 012 .8l-1 2.2a7 7 0 00-3.4-1c-.8 0-1.4.2-1.8.4-.4.3-.6.6-.6 1 0 .5.2.8.7 1l2 .6 2.4.7c.6.3 1.1.6 1.6 1.1.4.5.6 1.2.6 2 0 .7-.2 1.4-.6 2-.4.6-1 1-1.8 1.4-.8.3-1.8.5-3 .5zM892.9 618.5a3 3 0 01-1 .5l-1.3.1c-1.2 0-2-.3-2.7-.8-.6-.6-1-1.5-1-2.6v-4h-1.4v-2.2h1.5v-2.3h2.8v2.3h2.4v2.2h-2.4v4c0 .3 0 .7.3.9.2.2.5.3.9.3s.8-.1 1.1-.3l.8 2zM898.4 609.2c1.5 0 2.6.3 3.4 1 .8.8 1.2 1.8 1.2 3.3v5.5h-2.6v-1.2c-.5.9-1.5 1.3-3 1.3-.7 0-1.4 0-2-.3-.4-.3-.9-.6-1.1-1-.3-.5-.5-1-.5-1.6 0-.9.4-1.6 1-2.1.7-.5 1.8-.8 3.2-.8h2.2c0-.6-.2-1-.5-1.4-.4-.3-1-.5-1.7-.5a4.8 4.8 0 00-2.8.9l-1-2a6 6 0 011.9-.8c.7-.2 1.5-.3 2.3-.3zm-.3 8c.5 0 1 0 1.3-.3.4-.2.7-.5.8-1v-1h-2c-1 0-1.6.4-1.6 1.2 0 .3 0 .6.4.8.3.3.6.4 1.1.4zM908.2 610.6c.4-.5.8-.8 1.4-1 .6-.3 1.2-.4 2-.4v2.6h-.7c-.8 0-1.4.2-1.8.6-.5.5-.7 1.1-.7 2v4.6h-2.8v-9.7h2.6v1.3zM919.8 618.5a3 3 0 01-1 .5l-1.3.1c-1.1 0-2-.3-2.6-.8-.7-.6-1-1.5-1-2.6v-4h-1.5v-2.2h1.5v-2.3h2.8v2.3h2.4v2.2h-2.4v4c0 .3.1.7.3.9.2.2.5.3 1 .3.4 0 .8-.1 1-.3l.8 2zM935.3 616.6v2.4h-9.5v-1.9l4.9-4.6 1-1.2.3-1.1c0-.5-.2-.9-.6-1.2-.3-.2-.8-.4-1.4-.4-.6 0-1.1.1-1.5.4-.5.2-.9.5-1.2.9l-2-1.4a5 5 0 012-1.7c.8-.4 1.8-.6 3-.6.9 0 1.7.1 2.4.5.7.3 1.2.7 1.6 1.2.4.6.6 1.3.6 2s-.1 1.3-.4 2l-1.7 2-2.9 2.7h5.4zM942.8 606.4a7 7 0 012.9.6c.8.3 1.4.9 1.9 1.5.4.7.6 1.5.6 2.5 0 .9-.2 1.7-.6 2.4-.5.7-1.1 1.2-2 1.6-.8.3-1.7.5-2.8.5h-2.6v3.5h-2.9v-12.6h5.5zm-.2 6.8c.9 0 1.5-.2 2-.6.5-.4.7-1 .7-1.6 0-.7-.2-1.3-.7-1.6-.5-.4-1.1-.6-2-.6h-2.4v4.4h2.4z" fill="#C4C4C4"/>
  <path d="M54.7 712.8c.1-.3.4-.5.7-.6.4-.2.6-.4.7-.8v-.8c-.2-.3-.3-.6-.2-1l.1-.5.3-.7a21.3 21.3 0 00.6-3.4l.5-1.6c.2-.4.5-.8.8-1 .1-.9.4-1.7.7-2.5a8 8 0 00.9-2.6v-.7-.8c0-.5.2-1 .4-1.4l.5-1.5a197.3 197.3 0 011.6-6.7l.1-1.4v-1.3l.5-2.7v-2.4l-.4-.8a4 4 0 01-.4-1l-.2-.7-.1-.7c-.2-.4-.5-.7-.9-.9l-1-.7-.8-.8c-.1-.4-.2-.9-.1-1.5.3-.3.7-.5 1.2-.6h1.4c.6 0 1.1.2 1.7.4l1.6.3a16.9 16.9 0 004.6 0 49 49 0 015.1 0l.5.3.5.1.9-.2a3 3 0 011-.5c1.7-.2 3.3-.1 4.8.3a58.5 58.5 0 009 1.5c1.6.1 2.9.5 3.8 1l1.4 1.3c.4.4.9.8 1.4 1 .8.5 1.6.8 2.5 1.1l2.6 1c.2 0 .4.2.6.4l.6.3 1 .5c.4.1.7.3 1 .6l.8 1 .7 1c.4.7.8 1.3 1.3 1.7.5.5.8 1.1 1.1 1.9l.2 1.2.4 1.2c.3 1 .6 2.3.8 3.7.2 1.4.1 2.8-.3 4.3 0 .3-.2.6-.4.9l-.4.9a46 46 0 01-2.2 4.9c-.9 1.5-2 3-3.4 4.5-.5 0-1 0-1.4.2l-.9 1.6c-.1.6-.4 1-.8 1.5l-.7.6-.8.7c-1 1.2-2 2.5-3.3 3.8a19.8 19.8 0 01-6 4.2l-.7.2-.6.1a4 4 0 00-1.3 1l-1.2 1c-1-.1-2 0-2.8.3-.9.3-1.8.4-2.8.4a102.6 102.6 0 00-10.5.5l-2 .2h-2a43.5 43.5 0 01-6.7 0c-1.3 0-2.6 0-3.7.2-1.1.3-2.4.4-3.8.6-.9 0-1.8.3-2.6.5-.9.3-1.6.5-2.3.5-.2 0-.5 0-.8-.2a2.2 2.2 0 01-1.3-.7.8.8 0 01-.2-.7l.4-.7.9-.5 1-.5.8-.5 2.5-2c.6-.6 1.2-1.5 1.8-2.7a15.5 15.5 0 011.2-2l.4-.8.1-1.3zm20.4 3.9c.5 0 .9.1 1.2.3l1.3.2c1 0 1.7-.1 2.3-.6a4378.7 4378.7 0 003.2-1.9c.5-.1.9-.3 1.1-.5 1-.6 1.9-1.4 2.7-2.3l2.3-3a217.2 217.2 0 005.3-10.5c.3-.9.4-1.6.3-2.3-.1-.7 0-1.5.2-2.2 0-.2.3-.4.5-.6.3-.3.5-.6.5-1s0-.7-.4-1c-.3-.1-.4-.5-.5-.9l.1-.8.1-1c0-.6 0-1.3-.2-2a9.9 9.9 0 00-1.7-4 6 6 0 00-3.3-2.2 17 17 0 00-2.9-.8c-1-.2-2-.4-3-.4a9 9 0 00-2.4.1c-.7.2-1.2.6-1.6 1l-.9 1.7-.7 1.8a6 6 0 01-1 1.6 3 3 0 01-.8.6 1 1 0 00-.7.7c-.1.3 0 .6.1 1 .2.3.3.6.3 1 0 .3-.1.7-.3 1a37.2 37.2 0 00-1 3.4 34.7 34.7 0 01-1.7 5 93.6 93.6 0 00-1.2 6.7 23 23 0 01-.8 4.2l-1 2.6a5 5 0 00-.5 2.5c0 .5.3 1 .6 1.4l.9 1.3h1.8c.5-.1 1.1-.2 1.8-.1zM141 686.8l1 .1a4.5 4.5 0 011.6.3l.4.2h.8c1.1.3 2 .7 2.6 1.3a14.3 14.3 0 014 5.9c.3.7.5 1.5.5 2.3 0 .9-.1 1.7-.5 2.5a12.8 12.8 0 01-1 2l-1 1.6c-.4.5-.8 1-1.3 1.1a44.7 44.7 0 00-1.9 1.2 8 8 0 00-2 1c-.5.5-1.1.8-1.8 1.1l-.7.2-.7.1a2 2 0 00-.8.8c-.2.3-.5.6-1 .7 1.1.3 2.2 1 3.1 2 1 1 1.8 2 2.3 3 .2.6.5 1.2 1 1.7.3.5.5 1.1.5 1.8.3.2.6.6.8 1l.5 1.5.4 1.6c0 .5.3 1 .4 1.3.3.6.6 1.1 1 1.5l1 1.1 1 1.1c.5.4.8 1 1 1.5.2 0 .4 0 .5-.2h.5c.7.5 1.5 1 2.3 1.2a20.8 20.8 0 006.2.8l3-.3a26.7 26.7 0 012.6-.9l1.3-.2c.4 0 .6.3.6.7 0 .4-.2.8-.6 1.2a9.8 9.8 0 01-3.8 2.4c-1 .3-2.1.6-3.2.7a93.2 93.2 0 01-6.7.7c-.7 0-1.3 0-1.8-.3l-1.4-.4-2.5-.5-2-.8c-.6-.4-1-.8-1.5-1.4-.4-.6-1-1-1.7-1l-3.6-3.3c-1.2-1-2.1-2.4-2.8-4l-.8-1.2c-.3-.4-.5-.9-.6-1.3l-.3-1-.1-1.3-.5-1.6a35.2 35.2 0 00-1.7-4.5l-1.2-.6a8 8 0 00-1.3-.5l-1.5.1-1.3.3h-1.8l-1.4.1c-.6.2-1.1.8-1.5 1.8-.5 1-.7 2-.8 3l-.8 3.2-1 2.8c-.1.6-.4 1.1-.8 1.5-.5.4-1 .6-1.8.5l-.9-.2c-.2 0-.4 0-.7-.2a15 15 0 00-2.5 1.3c-1.5.5-2.4.4-2.6-.3a13.1 13.1 0 011.3-6.2c.5-.9.9-1.7 1-2.3.1-.5.2-.8.1-1.1v-1l-.1-1c0-.2 0-.4.3-.7 0-.5.1-.9.4-1.2l.5-1.2.3-1.5a9 9 0 00.4-3c0-.5.2-1 .4-1.7l.7-1.8a7.8 7.8 0 00.7-3.2c0-.5.2-1 .4-1.5 0-.4.3-.7.5-.9.4-.2.6-.5.7-.9l-.1-.8v-.7c.3-.9.4-1.6.3-2.1a20.6 20.6 0 00-1-2.4c-.2-.3-.2-.7 0-1.3.2 0 .4-.2.5-.5.2-.4.5-.6.8-.7h1a18.5 18.5 0 013.4-.2h2.8l1.7-.1h1.7c.5 0 1 0 1.3.2h9.3zm-10.6 17.7c.4 0 .7-.1 1-.3.4-.2.8-.2 1.1-.1l1.4.2 1.5.2h.7c.2-.2.5-.2 1-.2.6-.5 1.3-1 1.8-1.2a4 4 0 001.7-1.7l.8-1.1.5-1c.4-1.1.3-2-.1-2.8l-1.2-2c-.5-.8-.9-1.2-1.3-1.5-.4-.3-1.1-.5-2-.4h-4.9c-.8 0-1.5.1-2 .4-.7.2-1 .6-1.4 1.2a49 49 0 01-1.7 4.9 23.1 23.1 0 00-1 5.1l2.1.1c.7.2 1.4.2 2 .2z" fill="#BC0B0B"/>
  <path d="M168 691.4a11 11 0 002.4-2.1l1.8-2.4c.4 0 .7 0 1-.2a3.2 3.2 0 012.8-.3 6 6 0 002 .2c.8 0 1.6-.3 2.3-.6.7-.3 1.6-.5 2.5-.5.4 0 .7.1 1 .3l.8.4c.3 0 .7 0 1-.2a2 2 0 011-.2c.6 0 1.1.2 1.4.6l1.3 1.2a8 8 0 010 3.2c-.1 1-.2 2 0 3a218.5 218.5 0 00.4 4.1l-.1 2c-.1.6-.2 1.2-.1 1.9l.2.7v.7c0 .5-.2.9-.6 1.1-.3.3-.5.7-.5 1.2-.1.7 0 1.3.4 1.9.4.6.7 1.2.8 1.9l-.1.9-.1.9v3.4a51.7 51.7 0 01.3 5.4c0 .3-.2.5-.3.6l-.4.5v1a5.5 5.5 0 010 2v.9l.2.4v.5c0 .4-.4.8-1 1.3-.5.5-1 .7-1.5.7-.3 0-.7-.3-1.3-.7a10 10 0 01-1.1-1c-.4-.4-.7-1-.8-1.9 0-.7-.3-1.5-.6-2.1a2 2 0 00-.6-.6 5 5 0 01-.6-.8l-.6-1.5a22.3 22.3 0 01-.3-3.2 7 7 0 00-.3-1.7l-.4-.5a2 2 0 01-.5-.5l-.6-1.2c0-.3-.4-.6-.9-.7l-4.9-.2c-1.6 0-3.2 0-4.8.2a3 3 0 00-1 .2l-1 .2h-.5a2 2 0 00-.5-.1c-.6 0-1.2.4-1.8.9l-1.4 1.4-.4 1c0 .4 0 .8-.2 1.1a3 3 0 01-.7 1c-.3.4-.4.7-.3 1.2-.5.4-1 .8-1.3 1.4l-1 1.7-1.1 1.6c-.4.5-.8.9-1.4 1.1l-.7.4a1 1 0 01-.6.2l-.4-.2-.4-.5a38 38 0 00-2.2-1.3l-1-.9-.7-.9c-.3-.8-.4-1.3-.2-1.6l1-1.4a425.4 425.4 0 013.4-5l.7-1.4.8-1.2c.4-.5.9-1 1.4-1.2.6-.4 1-.8 1.3-1.3l.1-.7.1-.8a7 7 0 011.8-2.5c.8-.7 1.4-1.6 1.8-2.5l.1-.6.2-.7c.8-1.7 1.7-3.3 2.7-4.6 1.1-1.3 2-2.7 2.9-4zm9.8-.2c-.6.4-1 .9-1.5 1.4-.4.5-.9 1-1.5 1.2a6 6 0 01-.7 1.2c-.2.4-.6.7-1 .9-.1.7-.4 1.4-.8 2a34 34 0 00-2.2 2.7l-.6.6c-.3 0-.5.2-.7.4l-.9 1.5a15 15 0 01-.9 1.6l-.7.7c-.2.2-.3.5-.2.9.2.4.4.6.9.8l1.3.2a17.7 17.7 0 002.9-.2h3.9c.6 0 1.2-.1 1.6-.3.5-.2 1-.5 1.2-.9.5-1.4.6-3 .4-4.4a176.4 176.4 0 01-.9-7.3c0-.4.2-.9.4-1.3.3-.5.4-1 .2-1.6l-.2-.1zM234 686.9a28 28 0 01-1.1 2.2c-.8.2-1.6.5-2.4 1.1-.7.5-1.5.8-2.4.9h-.5a.9.9 0 00-.5-.2h-1.9c-.6.2-1.3.3-2 .3a6 6 0 00-2.2.7l-2 .7c-1.8.5-3.5 1.2-4.9 2-1.4.9-2.5 2-3.3 3.5l-1.1 2.4c-.4 1-1 1.6-1.7 2.2.2.5.3 1 .2 1.4 0 .4-.1.8-.3 1.1l-.6 1-.4 1-.1.7v.7a9 9 0 00.2 4.1 4.2 4.2 0 002.4 2.7c.7.3 1.4.6 2.1.6h2.6c1-.2 2.2-.2 3.5-.3 1.2 0 2.2-.3 2.9-.8.4-.3.6-.7.8-1.1l.8-1.4a5.4 5.4 0 001.2-3.8c0-.3-.2-.7-.7-1a3 3 0 00-2-.8l-1-.2-.7-.3c-.2-.1-.3-.4-.3-.8s.3-.8 1-1l2.2-.4 2.7-.1 2.3-.1c.7-.2 1.4-.5 2.1-1a5.8 5.8 0 013.4-.6l.6.3c.1.1.3.2.3.4l.5.6c.2 1 .3 2 .1 2.8a12 12 0 01-.8 2.3 6 6 0 00-.3 1.3l-.1 1.2c-.1.4-.3.8-.7 1.2l-.8 1.4-.6 1.6-.6 1.6-.3.4-.3.4c-.2.5-.4 1-.4 1.5s-.2.9-.4 1.3a6 6 0 01-1.3 2.3l-1.4 1.9-1 .1-.7.2c-.2 0-.4 0-.4-.2 0-.3-.1-.4-.3-.5l-1.7 1.2c-.6.4-1.3.5-2.1.2v-1.4l.5-1.1.7-1c.3-.3.4-.7.5-1.1a4 4 0 00-1.9.8c-.6.5-1.2.8-1.9 1-.2.2-.5.2-.8 0a38.9 38.9 0 00-4.7.9c-1.4.4-2.7.5-3.8.3-.3 0-.5-.2-.7-.4l-.5-.4a5 5 0 00-1.8-.5l-1.7-.5c-.9-.2-1.6-.7-2.2-1.3l-1.5-1.6c0-.4-.2-.7-.5-1l-.8-.8-.8-.8-.6-.9a5 5 0 01-.3-1.3l-.2-1.3-.7-2-.4-1.7-.2-1.9c0-.6.1-1.4.4-2.2a45.4 45.4 0 015.5-10.4l1.5-1.7c.8-1 1.9-1.8 3.2-2.7a46 46 0 017.8-3.8 16.3 16.3 0 018.6-.7 30.2 30.2 0 009.1.4l.7-.1.7-.2h.6c.2.1.4.2.6.5zM274.8 692.8a15.8 15.8 0 011.6 5.7l.3 2.5c.2.7.2 1.6 0 2.7a15.2 15.2 0 01-1 4.5 59.5 59.5 0 01-2.4 6.3 199.2 199.2 0 01-5 5.8c-1.1.7-2 1.2-3 1.5l-1 .2c-.3 0-.7 0-1 .2a3 3 0 00-1.2.8c-.3.3-.8.6-1.3.7l-1 .2c-.4 0-.7.2-1.1.3l-3.5.7c-1.3.2-2.6.2-3.7-.1l-.6-.3-.6-.3a4 4 0 00-.7-.2l-.6-.2-1.8-1-1.7-1-2-1c-.6-.3-1-.8-1.2-1.6-.8-.2-1.4-.8-1.7-1.6-.3-.8-.7-1.6-1.2-2.2-.1-.3-.3-.4-.6-.6l-.5-.6c-.3-.5-.6-1.3-.8-2.4l-.3-3 .1-2.3a166.7 166.7 0 011.3-4.4l.7-2c.2-.8.5-1.5 1-2a15.2 15.2 0 001.9-2c0-.3.2-.5.4-.8a6 6 0 011.3-1.1l1.3-1.2 1.4-1c.5-.4 1-.7 1.3-1.1l.8-1.5c.2-.5.6-1 1-1.3.6-.5 1.1-.8 1.7-1a304.3 304.3 0 014.5-1.3c.8-.4 1.6-.6 2.5-.7a24.7 24.7 0 018.3.4 8 8 0 012.3 1c.3.1.6.4 1 .8l1 1a14 14 0 011.8 2.3l2 2.2zm-15-3.2l-.9.3a20.1 20.1 0 00-2 1l-.6.3-1.5 2-1.4 2a3 3 0 01-.8.6c-.2 0-.4.2-.6.4-.8.8-1.3 1.9-1.7 3a57.6 57.6 0 01-2.2 7c-.4 1.5-.5 2.8-.4 4a9.7 9.7 0 00.8 2.3l.5 1.3a21 21 0 001.6 2.8c.4.6 1 1.2 1.5 1.6.6.4 1.3.8 2 1 .7.2 1.5.1 2.3 0a18.3 18.3 0 003.9-2c.9-.6 1.5-1.2 1.9-1.8l1-2.2.4-.7a6.3 6.3 0 001.2-2.3l.7-1.8c.5-1.2.9-2.4 1-3.6l.4-4.1c0-1 0-1.6-.2-2a9.5 9.5 0 01-.5-3c0-.6 0-1-.2-1.3-.3-.4-.7-.7-1.3-.8a3 3 0 01-1.5-.8 23 23 0 00-1.2-1.7l-1.5-1.4h-.5-.3zM281.6 721.8c-1 .3-1.9.2-2.6-.4a3.8 3.8 0 01-1.4-2v-1.7l.4-2 1.2-1.7c.6-.7 1-1.5 1.4-2.4l.8-2.3c.2-.8.5-1.4 1-1.9l1-.8c.3-.3.6-.7.6-1 0-.4-.1-.8-.3-1-.2-.3-.3-.7-.3-1.2 0-.4.2-.9.4-1.5l.8-1.8a18.5 18.5 0 001.3-4.5l.3-1c.2-.2.3-.5.4-1a15.8 15.8 0 011.4-2.3c.3-.4.6-.6 1-.7.3-.2.7-.3 1.1-.3a5 5 0 001.2-.4c.5-.2.7-.3.8-.5.1-.2.3-.4.7-.6l.8-.1c.4 0 .7 0 1-.2l1.2-.6c.4-.3.9-.2 1.4 0 .3.2.5.6.7 1.3a45.3 45.3 0 001 3.2c.3.4.4.9.6 1.4a45 45 0 003.6 9.2l.7 1.4c.2.4.5.7.9 1l.7 1v1.3a2 2 0 00-.1 1.2c.1.5.4.9.9 1.2l1.2 1c.3.3.4.6.5.9 0 .3.2.4.6.5a61.2 61.2 0 01.7-4.1l.4-2 .3-2.3 1.3-1.6c.3-.6.5-1.3.5-2.2a3 3 0 00-.3-.8 2 2 0 010-1c0-.4 0-.8.2-1.2a41.5 41.5 0 01.9-2.5 18.9 18.9 0 01.7-2.2l.4-.6.4-.7.2-1.2c.2-.8.2-1.4.2-2 0-.5.2-1 .4-1.6a5 5 0 011.7-2.1l2.4-1.5c1.3 0 2.3.4 3.2 1a4 4 0 011.6 2.3c.3.8.3 1.5-.1 2a19 19 0 00-1.7 3l-.3 1c0 .4 0 .8-.2 1.1l-.3 1.3-.6 1.2a2 2 0 00-.6.9 5.2 5.2 0 010 2.7l-.4 1a19.3 19.3 0 00-.6 3c0 .6-.3 1.1-.5 1.6a35.2 35.2 0 01-1.8 3.2c-.4.6-.6 1.4-.7 2.5a99.2 99.2 0 01-.8 6l-.5 1.1-.3 1a7 7 0 01-1.2 2.8c-.5.6-1.3 1.2-2.3 1.9l-1.6.4-1.7.2c-.5 0-1 0-1.5-.3-.4-.1-.8-.4-1.1-1-.3-.3-.5-.8-.8-1.5a17.1 17.1 0 00-1.3-3l-.4-1a8 8 0 01-.4-1.4l-.5-1.5c-.3-1-.8-1.8-1.5-2.3-.7-.5-1.3-1-1.8-1.6l-.2-1.3c0-.4-.3-.7-.6-.9l-.4-.1a.7.7 0 01-.3-.3l-.3-.6c0-.3-.1-.5-.3-.7l-.4-.6-.5-1-.5-.8c-.2-.3-.3-.4-.4-.3-.3 0-.5.1-.7.5l-.7 1.3-.5 1.4a5 5 0 01-.5.9 4 4 0 00-.6 1.4c0 .6-.2 1.1-.4 1.5l-.9 1.6c-.2.6-.1 1.2.2 1.8 0 .4 0 .6-.2.9-.2.1-.2.5-.1 1a20.1 20.1 0 00-2.3 6.7c-.1.4-.3.7-.6 1-.3.4-.6.6-1 .6-.5.1-1 0-1.4-.2l-1-.8-1-1-1-.7zM348 694l.8.8.2.9.3 1c.1.3.3.5.7.7l.5.4.8.4.7.5h.6c.3 0 .6-.2.8-.6l.6-1.2c.1-.5.3-1 .3-1.6v-1.2l-.8-.6a6 6 0 00-1-.5l-1.8-.9-1.8-.8a5 5 0 01-.9-.4l-.8-.3h-.7c-.2.2-.4.2-.7.2l-1 .1a5 5 0 00-1.2 0l-1.3.2a3 3 0 00-1.1.5c-.6.5-1 1-1.3 1.7l-1 2.1c0 .2-.2.4-.5.6-.2.3-.3.5-.3.9 0 .1 0 .3.2.4l.4.7.3.9.2.7a81.6 81.6 0 012.6 2.4l1.6.6c.9.2 1.7.5 2.4 1l2.1.9c.5.2 1 .5 1.2.8l.8 1 .7.8 1.1.6.7.1c.1 0 .4 0 .6.2l.7.4a50 50 0 011.2 1.3l.4.5c.2.3.3.7.3 1.2v3.6c0 .7-.2 1.3-.5 1.8a29.5 29.5 0 00-2 3.8 24.5 24.5 0 00-4.5 2.7 4 4 0 01-1 .6c-.7.2-1.5.4-2.4.4a9 9 0 00-2.6.5 4 4 0 01-1.7 0 6.8 6.8 0 00-3.2.3 3 3 0 01-1.4 0c-.7 0-1.4-.3-2.2-.7a21.2 21.2 0 01-3.2-2c-.3-.1-.6-.3-1-.3-.3 0-.6-.3-.8-.5a50 50 0 00-.8-.6l-.7-.7a22 22 0 00-1.9-1.1c-.6-.4-1-.8-1.3-1.3-.2-.2-.3-.5-.4-.9 0-.4 0-.8-.3-1.1 0-.4-.2-.6-.5-.9l-.4-.7a4 4 0 01.2-2.1l.8-2c.9-.2 1.6 0 2.1.3.6.2 1.2.6 1.6 1.1.4.5.8 1.1 1 1.8l1 1.6c.4.6 1 1 1.8 1.3a112.2 112.2 0 016.8 2.9 12 12 0 002.8-.4l1.7-.2c.5 0 1 0 1.6-.3.6-.2 1-.5 1-.8l.6-1.4c-.1-.8-.3-1.5-.6-1.8-.2-.4-.6-.8-1.2-1.4l-.9-.4-.7-.4-3.2-1.8c-1.2-.6-2.4-1-3.8-1.2l-2.8-1.1c-1-.6-1.6-1.2-2-2l-.3-.6-.1-.6c-.4-1-1-1.8-1.6-2.7a7 7 0 01-1.3-2.8c-.1-.3-.2-.7-.1-1a60.2 60.2 0 01.8-4.4l.4-.8c0-.3.3-.6.6-.9l.8-.8.7-.8.4-.1.5-.2.6-.5c.2-.2.4-.5.7-.6.9-.7 2-1.3 3-1.8 1.2-.5 2.4-.9 3.6-1.1.2-.3.5-.5 1-.6l1.2-.4a19 19 0 012.7-.3 18.8 18.8 0 015.8 1.6l2.5.8c.9.3 2 .5 3.4.7a16.4 16.4 0 013.4 3.4c.5.7.8 1.5 1 2.2.2.8.2 1.5-.2 2.3l-.5 1.6-.7 1.5-.7 1.4c-.2.5-.5.9-.8 1.2-.7.7-1.5 1.1-2.5 1.4-1 .3-2 .4-3 .3-.3-.5-.7-.9-1.3-1.2l-1.8-1-1.6-1.2c-.4-.4-.7-1-.9-1.6-.1-.8 0-1.6.1-2.5.2-.9.7-1.5 1.5-1.9zM414.8 705.5c0 .2 0 .4.2.4s.3.2.5.3c.2 0 .4 0 .5.2.2.1.3.3.2.4.7.7 1.2 1.2 1.8 1.5l1.8 1.5.2.9.3.7c.7 1 .8 2 .6 3-.3.9-.8 1.9-1.6 2.8a13.9 13.9 0 01-9.5 5.2c-.2 0-.4 0-.6.2l-.6.3c-1.5.3-3 .4-4.4.2a36.8 36.8 0 00-6 .2h-1.4l-.7-.4c-.2-.2-.4-.3-.7-.3h-1a9.2 9.2 0 01-2.7.3 5.5 5.5 0 00-2.7.2 3 3 0 01-.9.3c-.9.2-1.8.2-2.8.2a21.2 21.2 0 01-3.2-.1l-.7-.2-.9.1-1.2.2-1-.1c-.4-.1-.6-.3-.6-.6 0-.2.2-.4.5-.6l.8-.5 1-.5a7.6 7.6 0 001.8-1.4 34 34 0 002.4-2.8l.6-1.3v-.6-.6l.6-2a97.9 97.9 0 001.1-3.1c0-.4.2-.7.3-1 .2-.5.4-1 .7-1.3l.8-1.3c.3-.4.4-.8.5-1.3.2-.5.2-1.1.2-1.8a4 4 0 00-.2-.7l-.2-.8c0-.8.2-1.6.6-2.3.6-.7.9-1.4 1-2.3l-.1-.5-.2-.7.3-1.6.4-1.5c0-.8 0-1.5-.4-2.3l-1-2-.5-.5a144.7 144.7 0 01-1-1.3v-1c.8-.2 1.5-.2 2.1 0 .7.1 1.2.4 1.7.7 1-.2 2-.1 3 0 1.2.2 2.1.5 3 .9h1.8a28.4 28.4 0 013.3.4l1.5-.3 1.5-.5 1 .1 1 .1 1-.2c.3-.2.6-.2.8-.2 1-.2 2-.3 3-.1 1.1 0 2 .3 2.9.6h1c.6 0 1 0 1.2.2.5.3 1.1.6 1.8.8.7.3 1.2.6 1.6 1 .4.2.6.5.9 1l1 .7c.4 0 .5.3.6.5 0 .3.2.5.5.7.6.4 1 1 1.4 2a6 6 0 01.5 2.5c-.1.5-.3 1-.6 1.4a26.2 26.2 0 00-1.8 2.8l-.7.4-.9.5-1 .8c-.2.4-.5.6-.8.7-.4 0-.7.3-1 .5l-.8.4-2 .7c-.6.2-1 .6-1.4 1.1zm-6.8-3c.3-.4.7-.6 1-.6a4 4 0 001.4-.4c.3-.1.6-.3.8-.6a9.6 9.6 0 002.4-3.1c.4-.7.4-1.4.2-2.2a7.6 7.6 0 00-1.5-2.8c-.3-.4-.6-.6-.8-.7h-1.1a59.8 59.8 0 00-4.2-.6c-1.6-.1-2.8.2-3.4.9-.6.6-1.2 1.6-1.6 3a90.4 90.4 0 00-1.9 6.8c.6.4 1.2.7 1.8.8l2.2-.1a34 34 0 014.7-.4zm-9.7 16.4c1 0 1.9-.2 2.6-.8.7-.5 1.5-.9 2.3-1.1.5-.2 1-.2 1.5-.2s1-.1 1.3-.3l.8-.6.5-.7c.2-.3.3-.8.5-1.6.3-.7.4-1.5.5-2.1.2-1.4 0-2.3-.7-2.6-.7-.4-1.6-.6-2.7-.7-1.3-.2-2.5-.2-3.7-.2-1 0-2.2.2-3.2.5a31.7 31.7 0 01-2.8 4.7 4 4 0 00-.3 1.7c0 .6 0 1.2-.3 1.9l.3.8.5.8c.5-.1 1 0 1.4.2.4.2 1 .3 1.5.3zM460.9 690.6c-1.3.6-2.5 1-3.8 1a69.6 69.6 0 01-5.5-.1h-1.3a9 9 0 00-5.5 2.6 12.3 12.3 0 00-3.3 5.3l-.5 2.1c-.2.7.1 1 .9 1.1h1.4a15 15 0 002.8-.8c.5-.2 1-.2 1.4-.2l.5.1.5.2c.8 0 1.6 0 2.5-.2 1-.2 1.7-.2 2.5 0 0 0 .2 0 .3.2l.6.3 2.1.5c.8 0 1.5.2 2 .4.2 0 .5.3.7.6l.4.4c0 .5-.3.9-1 1l-1.5.3h-1a12.2 12.2 0 00-3 .5l-2 .5-2.2 1c-.7.4-1.5.7-2.3.8H443c-.3 0-.5 0-.7.2l-.7.2a52 52 0 01-1.4.3l-.4.4-.5.9c-.3.8-.6 1.7-.6 2.7l-.3 3 1.4 1.2c.5.3 1.2.4 2.2.4l1.2-.1c.3-.2.7-.2 1.2-.3l1.5.1h1.8a20 20 0 003.4-.4c.9-.3 2-.4 3.4-.3a25 25 0 013.6.3l2 .2c.6.2.9.4.9.6 0 .3-.2.6-.6.9a8.6 8.6 0 01-3.3 1.7c-.8.3-1.5.3-2.3.2a8.4 8.4 0 00-5.7 1l-1.6.6-1.8.4c-.9 0-1.7.2-2.3.3a37.2 37.2 0 00-4.4 1c-1.3.3-2.8.4-4.4.2a26 26 0 00-8 .6 7.6 7.6 0 01-3.7 0c-.3 0-.6 0-.8-.3 0-.4.3-.7.6-1l1-.8.9-.8.9-.9.7-1.3.5-1.7.5-1.5.8-1.3c-.3-.8-.3-1.8 0-2.9a35.3 35.3 0 001.4-4.9c.1-.4.3-.8.7-1.2.3-.3.5-.7.6-1v-.8-.7l.5-1.9.6-1.7v-1.1-1.2c0-1 .3-1.8.5-2.7.4-.8.6-1.5.6-2.2 0-.5 0-1-.2-1.6l-.6-1.4a12 12 0 00-2.2-2l-.3-.7c0-.5.3-.8.7-.8a2 2 0 001-.5c1.7 0 3.2.3 4.7.6a31.2 31.2 0 006.6.6l1.9-.3c1 0 2 .1 3.2.4 1.3.4 2.5.5 3.7.4l4.6-.1c1.4 0 3 0 4.5-.2.3.2.7.4 1.2.4l1.7-.2h1.6c.5 0 .9.2 1 .6.3.6.3 1.2-.1 1.6-.4.5-.9.8-1.5 1h-.8a73.8 73.8 0 01-2.1.2h-.7zM533.1 684.8a12.4 12.4 0 01-2 7.4 4 4 0 01-.7.6l-.5.6a5 5 0 00-.5 1.7l-.3 2a176.6 176.6 0 00-.7 3.6l-.5.9-.4.7-.4.8a4.2 4.2 0 000 1.9v.5c0 1.2-.3 2.4-.8 3.7a514.1 514.1 0 00-1.7 5l-.1 1.2c0 .5-.2 1-.4 1.6l-.5 1.8-.7 1.8c-.2.5-.4 1-.7 1.2l-.8.5a4 4 0 01-1.1.4l-1.1.2c-.4 0-.7-.1-1-.3-.4.1-.6.4-.8 1-.2.5-.5 1-1 1.2a5 5 0 01-1.4.3 3 3 0 01-1.4.1c-.3 0-.5-.2-.7-.5l-.6-.7v-2.2c.2-.7.5-1.3.8-1.7-.2-1.2 0-2.2.3-3.1.4-1 .8-1.9 1.3-2.7-.3-.3-.5-.8-.4-1.4 0-.7.2-1.2.5-1.5 0-.5-.2-.9-.5-1.2l-1.3-.6-1.5-.3-1.5-.2c-.9-.1-1.5-.2-1.8-.1h-1.6a32.5 32.5 0 01-4 0h-1.9a4 4 0 00-1.6.4c0 .4-.1.8-.3 1.1l-.6 1a9 9 0 00-.6 1l-.3 1 .1.6c.1.1.1.3 0 .4 0 .7-.4 1.5-1 2.4-.6.9-1 1.8-1.3 2.8 0 .5-.2 1-.5 1.6a2 2 0 01-.9 1c-.2.2-.4.3-.7.3a2 2 0 00-.8.1l-.8.6c-.2.3-.4.5-.8.6H489a6.7 6.7 0 01-1.6-.3v-1-1l.8-2a57.6 57.6 0 001.2-4.5l.8-2 .2-1.7a28.8 28.8 0 011.2-3c0-.5.1-1 0-1.6 0-.4-.1-.8-.5-1.1-.2-.4-.6-.7-1-1a19 19 0 01-.8-1.1c-.3-.4-.4-.8-.4-1.3l.6-.4a10.3 10.3 0 013.3-.7 4 4 0 00.8-2l.2-2 .4-1.4.4-1.6c0-.3.1-.7.3-1l.4-1c.1-.7.2-1.2.1-1.7 0-.6.2-1.1.5-1.6.7-.4 1.5-.7 2.7-1 1-.3 2-.5 2.9-.5.3 0 .6 0 .8-.2a421.5 421.5 0 011.4-1.2l.8-.1c.2 0 .5.2.6.6.3.2.4.5.4.7 0 .4 0 .7-.4 1l-.6.6-.6 2c-.1.7-.3 1.5-.6 2.1l-.3.6a1 1 0 00-.3.4c0 .3 0 .8.2 1.2v1.4c-.2.7-.6 1.4-1 2a4 4 0 00-.8 2.5c.3.4.6.7 1 .9.5 0 1 .2 1.4.3a45.7 45.7 0 007.3.9h2.1c.7-.1 1.3.1 1.9.6.8-.5 1.4-1.1 1.9-1.7.4-.6.7-1.6 1-3 .4-.3.8-.8 1-1.4.3-.6.7-1 1.2-1.4 0-.3-.2-.4-.4-.6a1 1 0 01-.4-.8c0-.1 0-.3.2-.4l.3-.6c.3-1 .5-2 .5-3s.3-2.2.6-3.4a6 6 0 013.2-1.5c1.4-.3 2.8-.2 4.3.3l1.9-1.3c.7-.5 1.3-.8 2-1 .3 0 .5.2.6.4l.5.5zM568.6 690.6c-1.2.6-2.5 1-3.7 1a69.6 69.6 0 01-5.6-.1H558a9 9 0 00-5.5 2.6 12.3 12.3 0 00-3.2 5.3l-.6 2.1c-.1.7.2 1 1 1.1h1.3a15 15 0 002.9-.8c.4-.2.9-.2 1.3-.2l.5.1.6.2c.8 0 1.6 0 2.5-.2.9-.2 1.7-.2 2.4 0 .1 0 .3 0 .3.2l.6.3c.6.2 1.3.4 2.2.5.8 0 1.5.2 2 .4.2 0 .4.3.7.6l.3.4c0 .5-.3.9-.9 1l-1.5.3h-1.1a12.2 12.2 0 00-3 .5l-2 .5-2.2 1c-.7.4-1.4.7-2.3.8h-3.5c-.2 0-.5 0-.7.2l-.6.2a52 52 0 01-1.5.3l-.3.4-.5.9c-.4.8-.6 1.7-.7 2.7l-.3 3 1.5 1.2c.4.3 1.2.4 2.1.4l1.2-.1c.3-.2.8-.2 1.3-.3l1.5.1h1.7a20 20 0 003.4-.4c1-.3 2-.4 3.4-.3a25 25 0 013.7.3l2 .2c.5.2.8.4.8.6 0 .3-.2.6-.5.9a8.6 8.6 0 01-3.4 1.7c-.7.3-1.5.3-2.2.2a8.4 8.4 0 00-5.7 1l-1.6.6-1.8.4c-1 0-1.7.2-2.4.3a37.2 37.2 0 00-4.3 1c-1.4.3-2.8.4-4.4.2a26 26 0 00-8.1.6 7.6 7.6 0 01-3.6 0c-.4 0-.6 0-.9-.3.1-.4.3-.7.7-1l1-.8.8-.8 1-.9.6-1.3.5-1.7.6-1.5.8-1.3c-.4-.8-.4-1.8 0-2.9a35.3 35.3 0 001.4-4.9c0-.4.3-.8.6-1.2.3-.3.5-.7.6-1v-.8l.1-.7c0-.6.3-1.3.5-1.9.3-.6.4-1.2.5-1.7v-1.1-1.2c.1-1 .3-1.8.6-2.7.3-.8.5-1.5.5-2.2 0-.5 0-1-.2-1.6-.1-.6-.3-1.1-.5-1.4l-.6-.7a12 12 0 00-1.6-1.4l-.3-.6c0-.5.2-.8.6-.8a2 2 0 001-.5c1.7 0 3.3.3 4.8.6a31.2 31.2 0 006.6.6l1.8-.3c1 0 2 .1 3.3.4 1.2.4 2.5.5 3.7.4l4.5-.1c1.5 0 3 0 4.5-.2.3.2.7.4 1.3.4l1.7-.2h1.6c.5 0 .8.2 1 .6.3.6.2 1.2-.1 1.6-.4.5-1 .8-1.6 1h-.7a71.8 71.8 0 01-2.2.2h-.7zM601.7 686.8l1.1.1a4.5 4.5 0 011.5.3l.4.2h.9c1 .3 1.9.7 2.5 1.3a14.2 14.2 0 014 5.9c.3.7.5 1.5.5 2.3.1.9 0 1.7-.4 2.5a12.4 12.4 0 01-1 2l-1 1.6c-.5.5-.9 1-1.4 1.1a44.7 44.7 0 00-1.8 1.2 8 8 0 00-2 1c-.6.5-1.2.8-1.8 1.1l-.8.2-.7.1a2 2 0 00-.8.8c-.2.3-.5.6-1 .7 1.1.3 2.2 1 3.2 2s1.7 2 2.2 3c.2.6.6 1.2 1 1.7s.6 1.1.5 1.8c.4.2.6.6.8 1l.5 1.5.4 1.6.5 1.3.9 1.5 1 1.1 1.1 1.1c.4.4.7 1 1 1.5.2 0 .3 0 .4-.2h.6c.7.5 1.4 1 2.3 1.2a20.8 20.8 0 006.1.8l3-.3a27 27 0 012.6-.9l1.4-.2c.3 0 .5.3.5.7 0 .4-.2.8-.6 1.2-.4.5-.8.8-1.1 1-.8.6-1.7 1-2.7 1.4-1 .3-2.1.6-3.2.7-1.1.3-2.3.4-3.4.5l-3.3.2c-.6 0-1.2 0-1.8-.3l-1.4-.4-2.5-.5-2-.8c-.5-.4-1-.8-1.4-1.4-.4-.6-1-1-1.8-1l-3.6-3.3c-1.2-1-2.1-2.4-2.8-4-.2-.5-.5-.9-.8-1.2a5 5 0 01-.6-1.3l-.3-1-.1-1.3-.4-1.6a35.2 35.2 0 00-1.8-4.5l-1.1-.6a8 8 0 00-1.4-.5l-1.5.1-1.3.3h-1.7l-1.4.1c-.7.2-1.2.8-1.6 1.8-.4 1-.7 2-.8 3-.2 1.1-.4 2.2-.8 3.2l-.9 2.8c-.2.6-.5 1.1-1 1.5-.3.4-.9.6-1.6.5l-1-.2c-.1 0-.4 0-.7-.2a15 15 0 00-2.4 1.3c-1.6.5-2.4.4-2.7-.3a13.2 13.2 0 011.3-6.2c.6-.9 1-1.7 1-2.3.2-.5.2-.8.2-1.1l-.1-1v-1c0-.2 0-.4.2-.7 0-.5.2-.9.4-1.2l.5-1.2.3-1.5a8.9 8.9 0 00.4-3c0-.5.2-1 .5-1.7l.7-1.8c.3-.6.4-1.2.5-1.9l.2-1.3.3-1.5c.1-.4.3-.7.6-.9.3-.2.5-.5.6-.9v-.8c-.2-.2-.2-.4 0-.7a5 5 0 00.2-2.1c0-.6-.3-1-.5-1.3l-.5-1c-.2-.4-.2-.8 0-1.4.2 0 .4-.2.6-.5.2-.4.4-.6.7-.7h1a18.5 18.5 0 013.5-.2h2.7l1.7-.1h1.7c.5 0 1 0 1.4.2h9.2zm-10.5 17.7c.3 0 .7-.1 1-.3.4-.2.7-.2 1-.1l1.4.2 1.5.2h.7c.3-.2.6-.2 1-.2.7-.5 1.3-1 1.9-1.2a4 4 0 001.6-1.7l.8-1.1.6-1c.3-1.1.2-2-.2-2.8l-1.2-2c-.4-.8-.9-1.2-1.3-1.5-.4-.3-1-.5-2-.4H593c-.7 0-1.4.1-2 .4-.6.2-1 .6-1.3 1.2a49 49 0 01-1.8 4.9 23.4 23.4 0 00-1 5.1l2.1.1c.7.2 1.4.2 2 .2z" fill="#BC0B0B"/>
  <path d="M650.5 690.6c-1.2.6-2.5 1-3.7 1a69.7 69.7 0 01-5.6-.1H640a9 9 0 00-5.5 2.6 12.3 12.3 0 00-3.2 5.3l-.6 2.1c-.1.7.2 1 1 1.1h1.3a14.9 14.9 0 002.8-.8c.5-.2 1-.2 1.4-.2l.5.1.6.2c.8 0 1.6 0 2.5-.2.8-.2 1.6-.2 2.4 0 .1 0 .2 0 .3.2l.6.3 2.1.5c.9 0 1.5.2 2 .4.3 0 .5.3.7.6l.4.4c0 .5-.3.9-1 1l-1.4.3h-1.1a12.2 12.2 0 00-3 .5l-2 .5-2.2 1c-.7.4-1.4.7-2.3.8h-3.5c-.2 0-.5 0-.7.2l-.6.2a51.7 51.7 0 01-1.5.3l-.3.4-.5.9c-.4.8-.6 1.7-.7 2.7l-.3 3 1.5 1.2c.4.3 1.1.4 2.1.4l1.2-.1c.3-.2.7-.2 1.2-.3l1.6.1h1.7a20 20 0 003.4-.4c1-.3 2-.4 3.4-.3a25 25 0 013.7.3l2 .2c.5.2.8.4.8.6 0 .3-.2.6-.5.9a8.6 8.6 0 01-3.4 1.7c-.8.3-1.5.3-2.3.2a8.4 8.4 0 00-5.6 1l-1.6.6-1.8.4c-1 0-1.7.2-2.4.3a37.3 37.3 0 00-4.4 1c-1.3.3-2.8.4-4.3.2a26 26 0 00-8.1.6 7.6 7.6 0 01-3.6 0c-.4 0-.7 0-.9-.3.1-.4.3-.7.6-1l1-.8 1-.8.8-.9.7-1.3.5-1.7.5-1.5.9-1.3c-.4-.8-.4-1.8 0-2.9a35.3 35.3 0 001.4-4.9c0-.4.3-.8.6-1.2.3-.3.5-.7.6-1v-.8-.7c.2-.6.3-1.3.6-1.9l.5-1.7v-1.1-1.2c.1-1 .3-1.8.6-2.7.3-.8.5-1.5.5-2.2 0-.5 0-1-.2-1.6l-.5-1.4-.7-.7a12.3 12.3 0 00-1.5-1.4l-.3-.6c0-.5.2-.8.6-.8a2 2 0 001-.5c1.7 0 3.3.3 4.8.6a31.2 31.2 0 006.5.6l2-.3c.9 0 2 .1 3.2.4 1.2.4 2.4.5 3.6.4a80 80 0 014.6-.1c1.5 0 3 0 4.5-.2.3.2.7.4 1.3.4a933.8 933.8 0 003.2-.2c.5 0 .9.2 1 .6.4.6.3 1.2 0 1.6-.4.5-1 .8-1.6 1h-.7a72 72 0 01-2.2.2h-.7zM673.8 670.7c.2.3.4.8.4 1.3l.2 1.4c.2.6.5 1.3 1 1.8.3.5.5 1.2.3 2.1 0 .8-.4 1.6-1 2.4a6.4 6.4 0 00-.9 4.5v2c0 .4-.3 1-.6 1.5a21.1 21.1 0 00-2.5 5.1 230.4 230.4 0 01-1.7 5.7l-.3 1.9.1.9v.7c0 .3-.1.6-.4.9l-.8 1a5 5 0 00-.8 1 11 11 0 00-1.9 3c-.2.6-.5 1.2-1 1.7l-1 1-1 .3c-.2 0-.5 0-.8-.2a9.4 9.4 0 01-1.9-1l-.4-.6c-.2-.6-.2-1.3.1-2l.8-2.3v-1l.1-1c0-.5.3-1 .5-1.4.2-.4.3-1 .3-1.6 0-.6-.1-1-.3-1.5l-.6-1.6a15 15 0 011-4 17.9 17.9 0 001.1-4.3v-.5l.4-.7c.2-.2.3-.4.3-.7v-.8l-.1-.8c0-.4.2-.9.4-1.3a13.9 13.9 0 001-3 19 19 0 011-3.4 11.6 11.6 0 00.7-3.3c0-.5.2-1 .6-1.5a6 6 0 001.4-1l1.2-1.4c1-.1 1.8 0 2.7.1l2.4.6zm-15 42.5a7.4 7.4 0 014.2 1.2c.7.5 1.1 1 1.5 1.6.4.6.6 1.2.6 2l-.2 1.1-.5 1.4a11.6 11.6 0 01-1.1 2.2l-1 .7-1 .6c-.6.2-1.4.2-2.2.2-.8 0-1.5-.1-2.3-.4-.7-.2-1.4-.4-2-.8a2.7 2.7 0 01-1-2.3l.1-.8c0-.2.1-.3.3-.4l.2-.5v-2l.3-.4.5-.7.6-.7.5-.5 1.1-.8 1.4-.7z" fill="#BC0B0B"/>
  <path d="M833.6 765.8h-4v-2.4h11v2.4h-4V776h-3v-10.2zM844.4 767.6c.3-.5.8-.8 1.3-1 .6-.3 1.3-.4 2-.4v2.6h-.6c-.8 0-1.5.2-2 .6-.4.5-.6 1.1-.6 2v4.6h-2.8v-9.7h2.7v1.3zM853.2 766.2c1.5 0 2.7.3 3.5 1 .8.8 1.2 1.8 1.2 3.3v5.5h-2.6v-1.2c-.6.9-1.5 1.3-3 1.3-.7 0-1.4 0-2-.3-.5-.3-.9-.6-1.2-1-.3-.5-.4-1-.4-1.6 0-.9.3-1.6 1-2.1s1.7-.8 3.2-.8h2.2c0-.6-.2-1-.6-1.4-.3-.3-.9-.5-1.6-.5a4.8 4.8 0 00-2.8.9l-1-2a6 6 0 011.8-.8l2.3-.3zm-.2 8c.5 0 1 0 1.3-.3.4-.2.6-.5.8-1v-1h-2c-1 0-1.7.4-1.7 1.2 0 .3.2.6.4.8.3.3.7.4 1.2.4zM870.4 762.6V776h-2.7v-1.1c-.7.8-1.7 1.2-3 1.2a5 5 0 01-2.5-.6c-.7-.4-1.3-1-1.7-1.7-.4-.8-.6-1.6-.6-2.6s.2-2 .6-2.7c.4-.7 1-1.3 1.7-1.7a5 5 0 012.5-.6c1.2 0 2.2.4 2.9 1.1v-4.7h2.8zm-5.2 11.2c.7 0 1.3-.2 1.8-.7.4-.5.7-1.1.7-2 0-.8-.3-1.4-.8-1.9-.4-.5-1-.7-1.7-.7s-1.3.2-1.8.7c-.5.5-.7 1.1-.7 2 0 .8.2 1.4.7 2 .5.4 1 .6 1.8.6zM882.5 771.2v.8H875c.1.5.5 1 1 1.4.4.3 1 .5 1.8.5.5 0 1 0 1.3-.2l1.1-.7 1.5 1.6c-.9 1-2.2 1.5-4 1.5-1 0-2-.2-2.9-.6a4.7 4.7 0 01-2.6-4.3c0-1 .2-1.8.7-2.6.4-.8 1-1.4 1.8-1.8.8-.4 1.7-.6 2.7-.6.9 0 1.8.2 2.5.6.8.4 1.4 1 1.8 1.7.5.8.7 1.7.7 2.7zm-5-2.9c-.7 0-1.2.2-1.6.5-.5.4-.7.9-.8 1.5h4.7c0-.6-.3-1-.7-1.4-.5-.4-1-.6-1.6-.6zM908.7 763.4l-4.1 12.6h-3.2l-2.7-8.5-2.9 8.5h-3.1l-4.1-12.6h3l2.8 8.9 3-8.9h2.7l2.9 9 3-9h2.7zM910.3 766.3h2.8v9.7h-2.8v-9.7zm1.4-1.3c-.5 0-1-.2-1.3-.5-.3-.3-.4-.7-.4-1.1 0-.4.1-.8.5-1.1.3-.3.7-.5 1.2-.5s1 .2 1.3.5c.3.3.5.6.5 1 0 .5-.2.9-.5 1.2-.4.3-.8.5-1.3.5zM921.6 766.2a4 4 0 012.9 1c.7.8 1.1 1.8 1.1 3.3v5.5h-2.8v-5.1c0-.8-.2-1.4-.5-1.7-.3-.4-.8-.6-1.4-.6-.8 0-1.3.2-1.7.7-.5.4-.7 1-.7 2v4.7h-2.8v-9.7h2.7v1.2c.4-.5.8-.8 1.4-1 .5-.2 1.1-.3 1.8-.3zM938.1 762.6V776h-2.6v-1.1c-.7.8-1.8 1.2-3 1.2a5 5 0 01-2.6-.6c-.7-.4-1.3-1-1.7-1.7-.4-.8-.6-1.6-.6-2.6s.2-2 .6-2.7c.4-.7 1-1.3 1.7-1.7a5 5 0 012.5-.6c1.3 0 2.2.4 3 1.1v-4.7h2.7zm-5.2 11.2c.7 0 1.3-.2 1.8-.7.4-.5.7-1.1.7-2 0-.8-.3-1.4-.7-1.9-.5-.5-1-.7-1.8-.7-.7 0-1.3.2-1.8.7-.4.5-.7 1.1-.7 2 0 .8.3 1.4.7 2 .5.4 1.1.6 1.8.6zM944 776.1c-.8 0-1.6 0-2.4-.2-.7-.2-1.3-.5-1.8-.8l1-2c.4.3.9.5 1.5.7l1.8.2c1.2 0 1.8-.3 1.8-.9 0-.2-.2-.4-.5-.6l-1.5-.3c-.8 0-1.4-.2-2-.4-.5-.1-1-.4-1.3-.8-.4-.4-.6-1-.6-1.7 0-.6.2-1.1.6-1.6.3-.5.8-.9 1.5-1.1.7-.3 1.5-.4 2.4-.4a9 9 0 013.7.8l-.9 2c-.8-.5-1.8-.7-2.8-.7-.6 0-1 0-1.3.2-.3.2-.5.4-.5.7 0 .3.2.5.5.6l1.5.4 2 .4c.5.1 1 .4 1.3.8.4.4.6 1 .6 1.7 0 .6-.2 1.1-.6 1.6-.3.4-.9.8-1.6 1a7 7 0 01-2.4.4z" fill="#C4C4C4"/>
  <defs>
    <filter id="filter0_d" x="37.8" y="535" width="673" height="41.3" filterUnits="userSpaceOnUse" color-interpolation-filters="sRGB">
      <feFlood flood-opacity="0" result="BackgroundImageFix"/>
      <feColorMatrix in="SourceAlpha" values="0 0 0 0 0 0 0 0 0 0 0 0 0 0 0 0 0 0 127 0"/>
      <feOffset dy="1"/>
      <feGaussianBlur stdDeviation="2"/>
      <feColorMatrix values="0 0 0 0 0.623529 0 0 0 0 0.94902 0 0 0 0 0.298039 0 0 0 0.36 0"/>
      <feBlend in2="BackgroundImageFix" result="effect1_dropShadow"/>
      <feBlend in="SourceGraphic" in2="effect1_dropShadow" result="shape"/>
    </filter>
  </defs>
</svg>
