<svg xmlns="http://www.w3.org/2000/svg" fill="none" viewBox="0 0 959 959">
  <defs>
    <mask id="b" width="176" height="176" x="56" y="747" maskUnits="userSpaceOnUse">
      <path fill="#fff" d="M232 835a88 88 0 11-176 0 88 88 0 01176 0z"/>
    </mask>
    <mask id="c" width="176" height="176" x="716" y="488" maskUnits="userSpaceOnUse">
      <path fill="#fff" d="M892 576a88 88 0 11-176 0 88 88 0 01176 0z"/>
    </mask>
    <mask id="d" width="176" height="176" x="56" y="252" maskUnits="userSpaceOnUse">
      <path fill="#fff" d="M232 340a88 88 0 11-176 0 88 88 0 01176 0z"/>
    </mask>
    <mask id="e" width="176" height="176" x="716" y="16" maskUnits="userSpaceOnUse">
      <path fill="#fff" d="M892 104a88 88 0 11-176 0 88 88 0 01176 0z"/>
    </mask>
    <clipPath id="a">
      <path fill="#fff" d="M0 0h958.7v958.8H0z"/>
    </clipPath>
  </defs>
  <g clip-path="url(#a)">
    <path fill="#fff" d="M958.7 0H0v958.8h958.7V0z"/>
    <path fill="#000" d="M304.2 318.7c10 .7 17.4 3.2 22.2 7.5a20 20 0 017.3 15.8 22 22 0 01-5 14.3 23 23 0 01-12.6 7.9c-5 1.2-12 1.8-20.5 1.8H261v-3h3.4a16 16 0 007.8-1.4c1.4-1 2.4-2.4 2.7-4.4.4-2 .6-6.7.6-14v-42.8c0-7.2-.2-11.8-.6-13.8-.4-2.1-1.3-3.5-2.6-4.3a20 20 0 00-8.6-1.2H262v-3l14.4-.4 16.5-.5c24 0 36 7 36 20.8a17 17 0 01-6.2 13.7 37 37 0 01-18.6 7zm-15.9-1.2h2.7c9.4 0 15.7-1.4 19.2-4.4 3.4-3 5-7.7 5-14.2 0-4.6-.6-8.1-2-10.7a13.4 13.4 0 00-6-5.7c-2.6-1.4-7.2-2-13.7-2l-5.2.1v36.9zm0 3.1v19.6c0 8.3.2 13.6.5 15.9a8 8 0 002.4 5.1c1.3 1.2 4 1.8 7.8 1.8 7 0 12.1-1.8 15.6-5.4 3.4-3.5 5.1-8.8 5.1-15.9 0-7.3-2-12.6-5.8-16-4-3.5-10.8-5.2-20.7-5.2l-4.9.1zM398 356.3h2.5c-.4 7.4-4 11-10.9 11-3 0-5.3-.7-7-2.3a11.8 11.8 0 01-3.3-6.9 67 67 0 01-11.9 7 24 24 0 01-9.5 2.3c-3.6 0-6.7-1-9.3-3.1a10 10 0 01-3.8-8.3c0-4.4 2.1-8.3 6.4-11.6a81 81 0 0118-9.8l10.1-4V328c0-3.7-.2-6.4-.7-8a8.2 8.2 0 00-3.7-4.4c-2-1.3-4.6-2-7.9-2-6.4 0-10 2.2-10.8 6.5-.7 4.4-2.5 6.6-5.4 6.6-2.6 0-4-1.2-4-3.7s1.8-5.1 5.3-8c3.5-2.8 9-4.2 16.3-4.2 5.5 0 9.8.9 12.8 2.6 3 1.7 5 3.7 6 5.9s1.4 5.6 1.4 10v21.5c0 5 .3 8.3.8 9.7.5 1.4 1.6 2.1 3.4 2.1 2.8 0 4.6-2 5.3-6.3zm-18.7-22.7l-7 2.9c-11.2 4.5-16.8 10.2-16.8 17 0 2.8.7 5 2.2 6.7a7 7 0 005.5 2.4c2 0 4.4-.6 7-2 2.8-1.3 5.8-3.3 9.1-6v-21zm27.9 34.1v-17.4h2.5c3 10 8.2 15 15.8 15 3.3 0 5.7-1 7.3-3a10 10 0 002.5-6.5c0-2.7-.9-5-2.6-6.8a44.5 44.5 0 00-10.3-6.4 39.4 39.4 0 01-11.5-7.8 13 13 0 01-3.5-9.2c0-3.5 1.2-6.9 3.7-10 2.5-3.2 6-4.8 10.6-4.8s8.4 1.9 11.4 5.6a17 17 0 002.6-4.7h2.4v16.4h-2.4a22 22 0 00-5-10.1 11.2 11.2 0 00-8.8-4.3c-2.6 0-4.7.8-6.3 2.4a7.6 7.6 0 00-2.4 5.6 8 8 0 002.6 6c1.8 1.7 5 3.7 10 5.9 7.3 3.3 11.8 6.6 13.4 9.7 1.7 3.2 2.5 6.3 2.5 9.2 0 4.6-1.5 8.4-4.6 11.3a16 16 0 01-11.5 4.3c-4.9 0-9.2-2-13-6a14.6 14.6 0 00-2.9 5.6h-2.5zm74-54.7h21.4v3c-4 0-9.2 3-15.8 8.7-2.1 1.8-5.4 4.5-9.9 8l19 22.2c2.8 3.3 5 5.5 6.7 6.5 1.6 1 3.3 1.5 5 1.6v3h-26.4v-3c4.4 0 6.6-1 6.6-2.8 0-.9-1.4-3-4.3-6.3L469.9 338l-2.8 2v7.7c0 5.7 0 9.2.2 10.7.2 1.4.8 2.5 1.9 3.4 1 .7 3 1.1 5.6 1.1v3h-26.9v-3h2c3.1 0 5.1-.4 6-1.3 1-.9 1.5-2 1.7-3.2.1-1.2.2-4.8.2-10.7v-53.2c0-5.1-.5-8.4-1.5-9.9-1-1.4-3.3-2-7-2v-3a55.5 55.5 0 0016.4-2.8h1.4v59.7l5.6-3.9c9-6.4 13.5-11 13.5-13.8 0-2-1.7-2.9-5-3v-3zm78.8 17.9h-37l-.2 5.7c0 9.3 1.5 16.3 4.4 21 2.9 4.7 7.3 7 13 7a17 17 0 0016.8-10.5h3a18.2 18.2 0 01-8.2 10.3 25.6 25.6 0 01-26.1.4A27.5 27.5 0 01512 340a30 30 0 017.3-20.8c5-5.6 11.1-8.4 18.5-8.4 7 0 12.3 2.1 16.1 6.3 3.8 4.3 5.9 8.9 6 13.8zm-11.3-2.6c.2-1 .2-1.9.2-2.7 0-3.8-1.1-6.7-3.3-8.8-2.2-2.1-5-3.2-8.2-3.2-7.9 0-12.6 5-14 14.7h25.3zm38.5-4c1.5-3.8 3.9-7 7.1-9.6a16 16 0 019.8-3.9c2.8 0 5 .9 6.7 2.7a8 8 0 012.5 5.4c0 1.2-.5 2.3-1.3 3.2a4 4 0 01-3 1.4c-2.2 0-3.9-1.6-5-4.8-.8-2.2-2-3.2-3.5-3.2-1.9 0-4 1.2-6.7 3.8a17.4 17.4 0 00-5 7.8 45 45 0 00-1 11.2v9.5l.1 10.7c.2 1.5.8 2.6 2 3.4 1 .7 3 1.1 5.7 1.1h1.8v3h-28.2v-3h1.4c2.6 0 4.4-.3 5.5-1a4.4 4.4 0 002-3c.2-1.4.3-5 .3-11.2v-15c0-5.7 0-9.2-.2-10.7a4.4 4.4 0 00-1.9-3.3c-1-.9-3-1.3-5.7-1.3h-1.4v-2.9a91 91 0 0016-3.8c1.2 3.4 1.9 8 2 13.5zm58.6 43.8H642l-18.8-42.5a32.5 32.5 0 00-4.4-7.9 8.3 8.3 0 00-5.3-1.8v-3h24v3c-2.7 0-4.5.2-5.5.7-1 .4-1.4 1.2-1.4 2.4 0 1 .8 3.3 2.6 7l14.3 32.2 12.9-28.7c2-4.6 3-7.6 3-9 0-2.9-2.1-4.4-6.5-4.6v-3h18v3c-2.3.1-4.1 1-5.6 2.8a54.7 54.7 0 00-6.3 11.5l-17.2 38zm37.6-84.4c0-1.8.6-3.4 2-4.8 1.3-1.3 2.9-2 4.7-2 1.9 0 3.5.7 4.7 2a7 7 0 010 9.7 6.3 6.3 0 01-4.7 2 6.7 6.7 0 01-6.7-6.9zm12.5 27.1v37c0 5.7 0 9.2.2 10.7s.8 2.6 2 3.4c1 .7 3 1.1 5.7 1.1h1.3v3h-28.5v-3h2.2c3 0 5-.4 6-1.3.9-.9 1.4-2 1.6-3.2.1-1.2.2-4.8.2-10.7v-16a41 41 0 00-.9-11.5c-.6-1.4-1.3-2.2-2.3-2.6a19 19 0 00-5-.5h-1.8v-3c7.7-.7 13.6-1.9 17.9-3.4h1.4zM728 277v70.8c0 5.7 0 9.2.2 10.7s.8 2.6 1.9 3.4c1 .7 3 1.1 5.8 1.1h1.5v3H709v-3h1.9a11 11 0 005.5-1 4.4 4.4 0 002-3c.2-1.4.3-5 .3-11.2v-52.5c0-5.6-.5-9-1.5-10.5s-3.4-2.2-7.3-2.2v-3a56 56 0 0016.7-2.7h1.4zm31.9 0v70.8c0 5.7 0 9.2.2 10.7s.8 2.6 1.9 3.4c1 .7 3 1.1 5.7 1.1h1.6v3h-28.4v-3h1.8c2.6 0 4.5-.3 5.5-1a4.4 4.4 0 002-3c.3-1.4.4-5 .4-11.2v-52.5c0-5.6-.5-9-1.5-10.5s-3.4-2.2-7.3-2.2v-3a56 56 0 0016.7-2.7h1.4zm64.5 53.9h-37l-.2 5.7c0 9.3 1.4 16.3 4.3 21 3 4.7 7.3 7 13.1 7a17 17 0 0016.7-10.5h3.1a18.2 18.2 0 01-8.2 10.3 25.6 25.6 0 01-26.2.4 27.5 27.5 0 01-13.6-24.8 30 30 0 017.4-20.8c5-5.6 11-8.4 18.5-8.4 7 0 12.3 2.1 16.1 6.3a22 22 0 016 13.8zm-11.3-2.6l.2-2.7c0-3.8-1.1-6.7-3.4-8.8a11.3 11.3 0 00-8.1-3.2c-7.9 0-12.6 5-14.1 14.7h25.4zM314.4 760.2a32 32 0 0120.6 6c5 4 7.4 9.5 7.4 16.5 0 3.9-1 7.3-3.1 10.1a22 22 0 01-9.1 7c4.5 1.3 7.7 3.5 9.7 6.6 2 3.1 3 7 3 11.6v3.9c0 1.7.4 3 1 4 .7.8 1.8 1.4 3.3 1.6l2 .2v9.3h-8c-5 0-8.6-1.4-10.6-4a17 17 0 01-3-10.6v-4.3c0-3.8-1-6.7-3-8.8-2-2.1-4.9-3.3-8.5-3.4h-12.6v20.3l8.3 1.6v9.2H280v-9.2l8.1-1.6V771l-8.1-1.6v-9.3h34.4zm-10.9 33.9h10.7c4.3 0 7.5-1 9.6-2.8 2.2-1.8 3.2-4.4 3.2-7.9 0-3.4-1-6.2-3.2-8.2-2-2-5.2-3.1-9.4-3.1h-10.9v22zm51.1 13.9a31 31 0 017-21 25 25 0 0119.9-8.1 25 25 0 0119.7 8.1 30.5 30.5 0 017.2 21v1c0 8.6-2.4 15.6-7.2 21a24.7 24.7 0 01-19.6 8.1c-8.5 0-15.1-2.7-20-8a30.7 30.7 0 01-7-21v-1.2zm15.4 1c0 5.3.9 9.4 2.7 12.6 1.8 3.1 4.8 4.7 8.9 4.7 4 0 6.8-1.6 8.7-4.8 1.8-3.1 2.8-7.3 2.8-12.4v-1.2c0-5-1-9.1-2.8-12.3a9.5 9.5 0 00-8.8-4.8c-4 0-7 1.6-8.8 4.8a24.8 24.8 0 00-2.7 12.3v1.2zm100.3 1c0 8.6-2 15.4-5.7 20.5A19.3 19.3 0 01448 838c-3.3 0-6.2-.7-8.7-2a18 18 0 01-6.2-6.1l-1.1 7h-13.3v-71.4l-8.2-1.6v-9.3H434V786c1.7-2.3 3.7-4 6-5.3 2.3-1.2 5-1.8 8-1.8 7.2 0 12.7 2.7 16.5 8.2a37.5 37.5 0 015.7 21.8v1.2zm-15.4-1c0-5.6-.8-10-2.5-13.2-1.6-3.3-4.3-5-8.3-5-2.4 0-4.4.6-6 1.6-1.7 1-3 2.4-4 4.3v24a9 9 0 004 4c1.6 1 3.7 1.4 6.1 1.4 4 0 6.8-1.4 8.4-4.1 1.5-2.8 2.3-6.8 2.3-12v-1zm22.5-1c0-8.6 2.4-15.5 7.2-21a25 25 0 0119.7-8.1 25 25 0 0119.8 8.1 30.5 30.5 0 017.2 21v1c0 8.6-2.4 15.6-7.2 21a24.8 24.8 0 01-19.7 8.1c-8.4 0-15-2.7-19.8-8a30.7 30.7 0 01-7.2-21v-1.2zm15.4 1c0 5.3 1 9.4 2.8 12.6 1.8 3.1 4.8 4.7 8.8 4.7 4 0 7-1.6 8.7-4.8 2-3.1 2.8-7.3 2.8-12.4v-1.2c0-5-.9-9.1-2.8-12.3a9.5 9.5 0 00-8.8-4.8c-4 0-6.9 1.6-8.7 4.8a24.8 24.8 0 00-2.8 12.3v1.2zm67.9-43v14h10v10.8h-10v29c0 2.2.5 3.8 1.4 4.8a5 5 0 003.7 1.4 31 31 0 005.4-.6l1.3 11.1a34.5 34.5 0 01-10.6 1.6c-5.3 0-9.4-1.5-12.3-4.4-2.8-2.9-4.2-7.5-4.2-13.8v-29.1H537v-10.9h8.4v-14h15.3zm16 42a31 31 0 017.1-21 25 25 0 0119.8-8.1 25 25 0 0119.8 8.1 30.5 30.5 0 017.1 21v1c0 8.6-2.4 15.6-7.1 21a25 25 0 01-19.7 8.1c-8.5 0-15.1-2.7-19.9-8a30.7 30.7 0 01-7.1-21v-1.2zm15.4 1c0 5.3.9 9.4 2.7 12.6 1.9 3.1 4.8 4.7 8.9 4.7 4 0 6.9-1.6 8.7-4.8 1.9-3.1 2.8-7.3 2.8-12.4v-1.2c0-5-1-9.1-2.8-12.3a9.5 9.5 0 00-8.8-4.8c-4 0-7 1.6-8.8 4.8a24.8 24.8 0 00-2.7 12.3v1.2zm129.6-24.3H710l-2-10.5c-1.3-.9-3.3-1.6-5.9-2.2a34 34 0 00-8.1-1c-4.2 0-7.5 1-9.8 2.7a8.3 8.3 0 00-3.5 6.9c0 2.6 1.2 4.7 3.6 6.4 2.5 1.7 6.6 3.4 12.5 5.3a48.4 48.4 0 0119.3 9.3c4.4 3.9 6.6 9 6.6 15.3 0 6.5-2.6 11.7-7.8 15.5a34 34 0 01-20.6 5.7c-6 0-11.6-1-16.5-2.9a34 34 0 01-12.2-8v-16h11.9l1.6 10.9a19 19 0 006.3 3.1c2.7.8 5.6 1.3 8.9 1.3 4.2 0 7.4-1 9.6-2.6 2.2-1.8 3.3-4 3.3-7 0-2.9-1-5.3-3.2-7a29 29 0 00-11-5.1c-9-2.7-16-5.8-20.6-9.4-4.7-3.6-7-8.6-7-14.9a18 18 0 017.9-15.2c5.3-4 11.9-6 19.9-6.1 5.9 0 11.3.9 16.1 2.7 4.9 1.7 9 4.1 12.3 7.1v15.7zm5.9-20.7v-9.3h23.6v71.5l7.4 1.6v9.2h-30.2v-9.2l7.4-1.6v-60.6l-8.2-1.6zm72.4 73a29 29 0 01-1.8-6 19.8 19.8 0 01-15.7 7 19 19 0 01-13.3-4.4c-3.3-3-5-7.2-5-12.5s2.2-9.4 6.5-12.4a33.9 33.9 0 0118.9-4.3h7.8v-5.6c0-2.8-.8-4.9-2.3-6.4a10 10 0 00-7-2.3 16 16 0 00-8 2l-1 6.2h-11.7v-12.7c2.9-1.9 6.1-3.5 9.7-4.8a36 36 0 0112-2c7 0 12.7 1.8 17.1 5.3 4.5 3.5 6.7 8.4 6.7 14.8v26c0 .8 0 1.5.2 2.2l4.7.7v9.2H800zm-13.3-10.3c2.3 0 4.4-.5 6.3-1.5a11 11 0 004.4-3.8v-8.7h-7.8c-3.3 0-5.8.8-7.5 2.4a7.1 7.1 0 00-2.5 5.4c0 2 .6 3.5 1.9 4.6a8 8 0 005.2 1.6zm89.8-16.7c0 8.6-1.9 15.4-5.7 20.5a19.3 19.3 0 01-16.4 7.6 18 18 0 01-8.7-2 18 18 0 01-6.2-6.1l-1.1 7H825v-71.4l-8.2-1.6v-9.3h23.5V786a16.7 16.7 0 0113.9-7.1c7.2 0 12.7 2.7 16.5 8.2a37.5 37.5 0 015.7 21.8v1.2zm-15.3-1c0-5.6-.8-10-2.5-13.2-1.6-3.3-4.4-5-8.3-5-2.4 0-4.4.6-6 1.6-1.7 1-3 2.4-4 4.3v24a9 9 0 004 4c1.6 1 3.7 1.4 6 1.4 4 0 6.8-1.4 8.4-4.1 1.6-2.8 2.4-6.8 2.4-12v-1zM197.1 48v-3.7a646.9 646.9 0 0027.8.3l9-.3h2.8c6 0 10.9.6 14.4 2 3.5 1.3 6.2 3.4 8.1 6.4 2 2.9 3 6.2 3 10a23 23 0 01-2.5 10 23 23 0 01-7 8.5 27.2 27.2 0 01-17.5 6c-2.6 0-5.2-.3-8-.8l-1.2-4.2c3.4.7 6 1.1 8 1.1a17 17 0 008.2-2c2.6-1.5 4.6-3.6 6-6.4a20.2 20.2 0 000-18.3 13.5 13.5 0 00-6.3-6 23.5 23.5 0 00-10.4-2.1c-3.6 0-7.5.6-11.7 2-.3 4-.5 10.3-.5 19v29c0 5.2 0 10.3.2 15.2 0 3.6.3 5.8.8 6.5.4.7 1.1 1.2 2 1.5 1 .4 3.9.5 8.4.6v3.7a403.1 403.1 0 00-33.6 0v-3.7c4.5 0 7.3-.2 8.3-.6a4 4 0 002-1.3c.5-.8.8-2.7 1-5.6l.1-16.3V71.9l-.1-15.3a17 17 0 00-.9-6.5 3.6 3.6 0 00-2.1-1.5c-1-.3-3.7-.5-8.3-.6zm80.5 38.6l-3-.8a89 89 0 000-7.4c4.8-3.2 8.8-5.4 12-6.5 2.3-.8 5-1.2 8-1.2 4.3 0 8 .8 11 2.5 3 1.6 5.2 4 6.6 7 1 2.2 1.5 5.1 1.5 8.8l-.2 10.6v17c0 2 .1 3.3.4 4 .3.6.6 1 1.1 1.3.4.3 1.2.4 2.4.5l3.8.3v3.3a98.8 98.8 0 00-17.5 0l.3-10.1a177 177 0 01-14 10c-1.4.7-3.2 1-5.4 1-4.7 0-8.3-1.1-10.9-3.6a13.1 13.1 0 01-3.8-9.9c0-2.6.4-5 1.3-7.2s2-4 3.3-5.2c1.2-1.3 2.5-2.3 3.8-2.9a62 62 0 0110.8-3.3c5-1.2 10-2 14.9-2.6 0-3.7-.4-6.5-1.3-8.6-1-2-2.5-3.7-4.7-5-2.2-1.3-4.8-2-8-2-2.2 0-4.2.4-6 1a9.1 9.1 0 00-3 1.6l-1 2-2.4 5.4zm26.4 9c-5 .9-9.2 1.8-12.8 2.9-3.5 1-6 2-7.4 3.2a8 8 0 00-2.3 3 13 13 0 00-1.5 6.3c0 2.8.8 5 2.3 6.7a8.9 8.9 0 006.6 2.3c2.6 0 5-.7 7.6-2.2 2.5-1.5 5-3.7 7.5-6.6V95.7zm23 30.4v-3.3h5.3a5 5 0 002-.4l1-1c.4-.8.6-2.1.7-4l.4-16.6V77l-.3-19.9c-.2-4.6-.4-7.1-.7-7.7-.2-.3-.5-.6-.9-.8-.6-.2-3.2-.4-8-.4v-3.4a65.6 65.6 0 0019.3-4.3c.2 0 .5 0 .6.3.2.1.2.3.2.6v1.2l-.1 1.9-.4 17.5v38.8l.3 16.2c0 1.9.2 3.3.6 4.2l.7.9 1.4.6 6.4.1v3.3a237.7 237.7 0 00-28.6 0zm43.7-39.4l-3-.8a89 89 0 000-7.4c4.8-3.2 8.8-5.4 12-6.5 2.3-.8 5-1.2 8-1.2 4.3 0 8 .8 11 2.5 3 1.6 5.2 4 6.6 7 1 2.2 1.5 5.1 1.5 8.8l-.2 10.6v17c0 2 .1 3.3.4 4 .3.6.6 1 1.1 1.3.4.3 1.2.4 2.4.5l3.8.3v3.3a98.8 98.8 0 00-17.5 0l.3-10.1a177 177 0 01-14 10c-1.4.7-3.2 1-5.4 1-4.7 0-8.3-1.1-10.9-3.6a13.1 13.1 0 01-3.8-9.9c0-2.6.4-5 1.3-7.2s2-4 3.3-5.2c1.2-1.3 2.5-2.3 3.8-2.9a62 62 0 0110.8-3.3c5-1.2 10-2 14.9-2.6 0-3.7-.4-6.5-1.3-8.6-1-2-2.5-3.7-4.7-5-2.2-1.3-4.8-2-8-2-2.2 0-4.2.4-6 1a9.1 9.1 0 00-3 1.6l-1 2a109 109 0 00-2.4 5.4zm26.4 9c-5 .9-9.2 1.8-12.8 2.9-3.5 1-6 2-7.4 3.2a8 8 0 00-2.3 3 13 13 0 00-1.5 6.3c0 2.8.8 5 2.3 6.7a8.9 8.9 0 006.6 2.3c2.6 0 5-.7 7.6-2.2 2.5-1.5 5-3.7 7.5-6.6V95.7zM419.7 81v-2.5c3.9-1.4 7-2.7 9.2-3.9 0-9.1-.1-15-.4-17.4 4-1.4 7.3-2.9 9.8-4.5l1.3 1.2c-.4 3.2-.9 10.2-1.3 21a707.7 707.7 0 0011.4 0c2 0 3.5-.2 4.5-.3l.4.4-1.2 5.4a421.3 421.3 0 00-15.1 0l-.4 23.4c-.1 5.7 0 9 .1 10.2.2 1.1.6 2 1.1 3 .5.7 1.2 1.4 2 1.9 1 .5 2.4.9 4.5 1.1l3.8-.1 3.7-1 .7 2.2a97 97 0 00-5.2 4.4 29.5 29.5 0 01-8.4 1.3c-2 0-3.7-.2-5-.7a10.2 10.2 0 01-5.7-5c-.6-1.3-1-3.3-1.2-6a383.8 383.8 0 01.2-10.6V80.7h-2.3c-2 0-4 0-6.5.2zm52.4-36a6 6 0 014.5 2 6.3 6.3 0 012 4.6 6 6 0 01-2 4.5 6.2 6.2 0 01-4.5 2c-1.8 0-3.3-.7-4.6-2a6.2 6.2 0 01-1.9-4.5 6 6 0 011.9-4.6 6.3 6.3 0 014.6-2zm-14 33.7v-3.3a58 58 0 0018.7-4.8l1.3 1a537 537 0 00-.5 18.7v10.4l.4 16.2c0 1.9.2 3.3.6 4.2l.7.9 1.4.6 6.4.1v3.3a319.2 319.2 0 00-29 0v-3.3h5.4c.8 0 1.5-.2 1.9-.4.4-.3.8-.6 1-1 .4-.8.7-2.1.8-4l.4-16.6V90.6c0-5.7-.2-9.1-.6-10.2-.2-.5-.7-1-1.3-1.2-.6-.3-3.1-.5-7.6-.5zm33.3 47.3v-3.3h5.4c.8 0 1.4-.2 1.9-.4.4-.3.8-.6 1-1 .4-.8.7-2.1.8-4l.3-16.6V94l-.1-10a12 12 0 00-.6-4c-.2-.4-.7-.7-1.3-.9a39 39 0 00-7.4-.2v-3.3a60.7 60.7 0 0018.5-4.8l.6.3.2.9v.9c-.2 1.4-.3 4.3-.4 8.7l10.7-9.1a26 26 0 019-1.7c3 0 6 .6 8.7 1.9a15 15 0 016.3 4.7c1.4 2 2.3 4.4 2.8 7.3.3 1.7.4 6.5.4 14.4v10.2c0 5 .1 8.3.4 10.1.2 1.2.5 2 .9 2.4.4.5 1 .7 1.9.9l6.1.1v3.3a135.8 135.8 0 00-20 0c.5-9.5.8-15.4.8-18v-9.6c0-6-.3-10-.7-11.8-.7-2.6-2.2-4.7-4.5-6.2a16.3 16.3 0 00-16.2-.4c-2.3 1.4-4 3-5 4.8-1 1.8-1.6 4.7-1.6 9v7l.4 16c0 2 .3 3.4.7 4.3l.6.9 1.5.6 6.3.1v3.3a223.7 223.7 0 00-28.4 0zm70.8-26.4c0-8.6 2.7-15.6 8.1-21a28.6 28.6 0 0121-8.2c8.1 0 14.7 2.6 19.7 7.6s7.6 11.6 7.6 19.6c0 5.6-1.3 10.7-4 15.4a28 28 0 01-11 10.9 32 32 0 01-27 1.6c-3-1.5-5.5-3.3-7.4-5.6-2-2.3-3.4-4.6-4.4-7a34.1 34.1 0 01-2.6-13.3zm10.8-4.3c0 4.7.8 9.5 2.4 14.4a21 21 0 006.8 10.7 16 16 0 009.7 3.3 14 14 0 0011.1-5.3c3-3.5 4.5-9 4.5-16.3 0-6-.9-11.3-2.7-15.7-1.8-4.4-4-7.6-6.8-9.4a16.1 16.1 0 00-9.1-2.7c-4.7 0-8.6 1.7-11.5 5-3 3.5-4.4 8.8-4.4 16z"/>
    <path fill="#2F2F2F" d="M510.2 189.2c0-2.7.4-5.1 1.2-7.4a16 16 0 014-6.1 20 20 0 0114.4-5.5c2.8 0 5.4.4 7.7 1.2a16 16 0 019 7.3 20.1 20.1 0 012.2 9.1 19.7 19.7 0 01-20.3 20 21 21 0 01-7.4-1.4 15.2 15.2 0 01-9.5-10c-.8-2.4-1.3-4.8-1.3-7.2zm5.3-2.1a25.7 25.7 0 001.7 9.2c.8 2 1.9 3.7 3.2 5.1a12.9 12.9 0 009.8 4 12 12 0 0011.6-7.6 24.8 24.8 0 00.4-15.8c-.4-1.3-1-2.6-1.7-3.7a12.5 12.5 0 00-6.6-5 15.4 15.4 0 00-12.3.8 12 12 0 00-4.6 5.3c-1 2.2-1.5 4.8-1.5 7.7zm35.7 19.9v-1.4h2.4c.3 0 .6-.1.8-.3.2 0 .4-.2.5-.4a629.9 629.9 0 00.5-9v-10.6a261.7 261.7 0 00-.5-12.2c0-.1-.2-.3-.4-.3-.2-.1-1.4-.2-3.5-.2v-1.5a29 29 0 008.5-2l.3.2v1.6l-.1 7.8-.1 4v13.1c0 4.4.1 6.8.2 7.2 0 .8 0 1.4.3 1.8 0 .2.1.3.3.4l.6.3h2.8v1.5a105.2 105.2 0 00-12.6 0zm31.1-34.5v-1.4a49.2 49.2 0 008.5-1.8l.3.2-.2 8.4v20a114 114 0 00.3 6.7l.8.6c.3.1 1.4.3 3.1.4v1.4a89.1 89.1 0 00-8.8 0l.1-4.7a48 48 0 00-5.4 4.6 15 15 0 01-3.5.5c-2 0-3.7-.5-5.3-1.4a9.5 9.5 0 01-3.8-4.1 14 14 0 01-1.3-6.1c0-1.7.3-3.3.8-4.8a9.5 9.5 0 012-3.6l3.2-2.1c1.6-1 3-1.7 4-2 1-.5 2-.8 3.2-.8a12 12 0 016.1 1.6v-6.6c0-2.4 0-3.8-.3-4.3 0-.2-.2-.3-.3-.4-.4-.2-1.6-.3-3.5-.3zm4.1 16a11.2 11.2 0 00-3.6-2.8 8.6 8.6 0 00-3.7-.9 7 7 0 00-6.5 4.3c-.6 1.5-1 3.2-1 5.2 0 3.1.8 5.5 2.4 7.3a7.2 7.2 0 008.6 1.9 7 7 0 002.3-2.1 7 7 0 001.3-3c.2-.8.2-2.6.2-5.6v-4.3zm11.6 7.4v-.4l1-3.4h13.7v.4l-1.2 3.4h-13.6zm17.8 9.9c.2-1.7.4-4.3.5-8h1.7c0 2.5.2 4 .4 4.5.2.4.7.9 1.4 1.4.7.5 1.7 1 3 1.3a11.3 11.3 0 008.4-.5 7.5 7.5 0 003.1-3.1 8.9 8.9 0 00.5-7c-.3-.9-.8-1.5-1.5-2s-1.5-.9-2.5-1l-3.8-.6c-1.9-.2-3.5-.5-4.8-.8-1.7-.5-3-1.1-3.9-1.9a8.1 8.1 0 01-2-2.8 9.6 9.6 0 01-.8-3.9c0-2 .6-3.8 1.6-5.6 1-1.8 2.6-3.2 4.6-4.1 2-1 4.3-1.5 6.7-1.5 1.4 0 3 .2 4.7.6 1.7.3 3.3.9 4.7 1.6a27.8 27.8 0 00-.7 7h-1.7c0-2.5-.2-4-.3-4.2-.4-.6-1-1.1-1.7-1.6a11 11 0 00-5.4-1.5 8 8 0 00-6 2.2 8 8 0 00-2.1 5.9 6 6 0 00.8 3.3c.5.8 1.4 1.4 2.8 1.9l4.6 1 5.7.8c1.6.5 2.7 1 3.5 1.7a8.2 8.2 0 012.6 6.3c0 3.3-1.4 6.3-4.2 8.8a15.6 15.6 0 01-10.8 3.7c-3.4 0-6.4-.6-9.1-2zm26.8-18.8v-1c1.7-.6 3-1.2 4-1.7l-.1-7.7a21 21 0 004.3-2l.6.5c-.2 1.4-.4 4.5-.6 9.3a298.9 298.9 0 007-.1l.2.2-.5 2.3a186.1 186.1 0 00-6.7 0l-.2 10.4v4.5c.2.5.3 1 .6 1.3l.9.9 2 .5 1.6-.1c.4 0 1-.2 1.7-.5l.3 1a43 43 0 00-2.3 2 8 8 0 01-1.9.4l-1.9.2c-.9 0-1.6-.1-2.1-.3l-1.5-.9c-.4-.4-.8-.8-1-1.4-.4-.5-.6-1.4-.6-2.6a169.8 169.8 0 010-4.7V187h-3.8zm16.9 33.6l1.3-4h.6c.4.3.6.6.9.7l.7.4a4.1 4.1 0 002.7-.2 4 4 0 001.4-1.1 61.5 61.5 0 004-8l-2-5.2-4-10a126 126 0 00-3-6.9c-.3-.6-.6-1-1-1.2-.3-.2-1-.4-2.3-.5V183a110.8 110.8 0 0012 0v1.5a10 10 0 00-3 .3c-.4.2-.7.5-.7.9l.5 1.7 1.8 5.3 1.6 4 2.5 5.7 1.3-3A232.1 232.1 0 00680 186c0-.3-.1-.5-.4-.7a10 10 0 00-3-.5V183a88 88 0 009.7 0l-.3 1.6a4 4 0 00-2 .5 11 11 0 00-2.1 3.4c-1 2-2.8 5.8-5.3 11.5l-6 13.7c-.9 2.2-1.7 3.8-2.4 4.7a7 7 0 01-7.2 2.7 7 7 0 01-1.5-.6zm29.1-13.6v-1.4h2.4c.4 0 .7-.1.9-.3.2 0 .3-.2.4-.4.2-.3.3-1 .4-1.8l.1-7.3v-10.5a261.7 261.7 0 00-.4-12.2c0-.1-.2-.3-.4-.3-.3-.1-1.4-.2-3.5-.2v-1.5a29 29 0 008.5-2l.2.2.1.3v1.3l-.2 7.8v17.1l.1 7.2c0 .8.1 1.4.3 1.8 0 .2.2.3.3.4l.6.3h2.9v1.5a105.2 105.2 0 00-12.7 0zm36.4-4l-.9 1.9c-1.2.7-2 1.2-2.6 1.4a15 15 0 01-12 0 10 10 0 01-4.2-4.3 16.4 16.4 0 01-.7-11.8 9 9 0 011.8-3.4 15.8 15.8 0 015.4-3.5 11.1 11.1 0 019.4.4c1.6.9 2.7 2 3.4 3.5a11.6 11.6 0 011 6.8c-1.3.3-2.4.4-3.3.5l-5.5.2h-8.2c0 2.4.5 4.4 1.3 5.9s2 2.6 3.3 3.3a9.8 9.8 0 007.5.6c1-.4 2.3-1 3.8-1.9l.4.5zm-16.4-10.3l2.7.1a184 184 0 009.7 0v-1c0-2.6-.5-4.5-1.6-5.8a5.5 5.5 0 00-4.4-1.9 6 6 0 00-4.6 2 11.5 11.5 0 00-1.8 6.6zM480.8 414.3h-1.3l.2-9.4h38l.1 9.4h-1.2c-.5-2.5-1-4.4-1.8-5.5-.8-1.2-1.6-1.9-2.5-2.1-.9-.3-2.4-.4-4.5-.4h-6.3v27.5c0 3 0 5 .2 6 .1 1 .5 1.7 1.2 2.2.6.4 1.8.7 3.5.7h2v1.3h-19.5v-1.3h2c1.6 0 2.8-.2 3.4-.7.7-.4 1.1-1 1.3-2 .2-.8.3-2.9.3-6.2v-27.5H490a22 22 0 00-5.1.3c-.9.3-1.7 1-2.4 2.2a14 14 0 00-1.8 5.5zm43.8 11.2a9.9 9.9 0 013.2-4.3 7 7 0 014.3-1.7c1.3 0 2.3.3 3 1.1.8.8 1.1 1.6 1.1 2.5 0 .5-.2 1-.6 1.4-.3.4-.8.6-1.3.6-1 0-1.7-.7-2.2-2.1-.3-1-.9-1.5-1.6-1.5-.8 0-1.8.6-3 1.7a7.7 7.7 0 00-2.1 3.5 20 20 0 00-.5 5v9c.1.6.4 1.1.9 1.5.5.3 1.3.5 2.6.5h.8v1.3h-12.6v-1.3h.6c1.2 0 2-.2 2.5-.5s.8-.8.9-1.3l.1-5V424.5a2 2 0 00-.9-1.5c-.5-.4-1.3-.5-2.6-.5h-.6v-1.3c1.8-.3 4.2-.8 7.1-1.7.6 1.5.9 3.5 1 6zm37.8 14.2h1c-.2 3.3-1.8 5-4.8 5-1.3 0-2.4-.4-3.1-1.1a5.2 5.2 0 01-1.5-3.1c-2 1.3-3.7 2.4-5.3 3-1.6.8-3 1.1-4.2 1.1-1.6 0-3-.5-4.1-1.4a4.5 4.5 0 01-1.8-3.6c0-2 1-3.7 3-5.2 1.9-1.5 4.5-3 8-4.3l4.4-1.9v-1.1a14 14 0 00-.3-3.6c-.2-.7-.8-1.3-1.7-2-.8-.5-2-.8-3.4-.8-3 0-4.5 1-4.9 2.9-.3 2-1 3-2.4 3-1.1 0-1.7-.6-1.7-1.7s.7-2.3 2.3-3.5c1.6-1.3 4-2 7.3-2 2.4 0 4.3.4 5.6 1.2 1.4.8 2.3 1.6 2.7 2.6.4 1 .6 2.5.6 4.5v9.6c0 2.2.2 3.6.4 4.3.2.6.7.9 1.5.9 1.3 0 2-1 2.4-2.8zm-8.4-10.1l-3.1 1.3c-5 2-7.5 4.5-7.5 7.6 0 1.2.3 2.2 1 3 .6.6 1.4 1 2.5 1 .9 0 1.9-.3 3-.9a23 23 0 004.1-2.7v-9.3zm18.1-10.1h.8c.5 1.1.7 2.8.8 4.8a15 15 0 014.3-3.6 10 10 0 014.8-1.2 8 8 0 014.6 1.1c1.2.8 2 1.8 2.3 3 .4 1 .5 2.7.5 5v7.3c0 2.7 0 4.4.2 5 0 .6.4 1 .9 1.3.5.3 1.4.5 2.8.5v1.3h-12v-1.3h.5c1.4 0 2.3-.2 2.7-.6.4-.4.6-.9.7-1.4v-12.4a19 19 0 00-.2-4c-.2-.8-.7-1.5-1.5-2.1a5 5 0 00-3-1c-1.4 0-2.7.5-4 1.3-1.3.9-2.5 2.1-3.6 3.8v9.6l.1 5c.1.6.4 1 1 1.3.5.3 1.4.5 2.8.5v1.3h-12v-1.3c1.4 0 2.3-.2 2.8-.4.5-.3.9-.7 1-1.2.1-.6.2-2.3.2-5.2v-7c0-2.8 0-4.4-.2-5 0-.6-.4-1-1-1.3-.4-.3-1.4-.5-2.7-.5v-1.3a37 37 0 006.4-1.3zm25.7 25.3V437h1c1.4 4.5 3.7 6.7 7 6.7 1.5 0 2.6-.4 3.3-1.3.8-.9 1.1-1.9 1.1-3 0-1.2-.4-2.2-1.1-3-.8-.7-2.3-1.7-4.6-2.8-2.4-1.2-4-2.3-5.1-3.5a5.8 5.8 0 01-1.6-4c0-1.6.6-3.1 1.7-4.5a5.6 5.6 0 014.7-2.1c2 0 3.7.8 5 2.5.4-.3.7-1 1.2-2.1h1v7.2h-1a9.8 9.8 0 00-2.2-4.4 5 5 0 00-4-2c-1 0-2 .4-2.7 1.1-.7.7-1 1.6-1 2.5 0 1 .3 2 1 2.7.9.7 2.3 1.6 4.5 2.6 3.3 1.5 5.3 3 6 4.3a9 9 0 011 4.1c0 2-.6 3.7-2 5a7 7 0 01-5 2c-2.2 0-4.2-1-5.9-2.7a6 6 0 00-1.2 2.4h-1.1zm21.2-37.4c0-.8.3-1.5.9-2.1a3 3 0 012.1-1 3 3 0 012.1 1c.6.6.9 1.3.9 2.1a3 3 0 01-.9 2.2c-.6.6-1.3.9-2 .9a3 3 0 01-3-3zm5.6 12v21.3c.2.6.4 1.1 1 1.5.4.3 1.3.5 2.5.5h.6v1.3H616v-1.3h1c1.3 0 2.2-.2 2.6-.6.4-.4.7-.9.7-1.4.1-.6.2-2.2.2-4.8v-7.1c0-2.8-.2-4.5-.4-5.1-.3-.6-.6-1-1-1.2l-2.3-.2h-.8V421c3.4-.4 6-.9 8-1.5h.6zm21.4 2.3h-7V436c0 2.2 0 3.7.3 4.4a3 3 0 001.2 1.8 3 3 0 002 .7c1.4 0 2.6-.8 3.6-2.3l1 .5a6.2 6.2 0 01-2.7 2.9c-1.2.6-2.3 1-3.5 1a6.2 6.2 0 01-5.7-4.1c-.2-1.1-.3-3-.3-5.8v-13.4h-3.5v-1.3a6 6 0 004.3-2c1.2-1.3 2-3 2.4-5.4h.9v7.4h7.1v1.3zm5-14.3c0-.8.3-1.5.9-2.1a3 3 0 012-1c1 0 1.6.4 2.2 1 .6.6.9 1.3.9 2.1a3 3 0 01-.9 2.2c-.6.6-1.3.9-2.1.9a3 3 0 01-3-3zm5.6 12v21.3c.1.6.4 1.1 1 1.5.4.3 1.2.5 2.5.5h.6v1.3H648v-1.3h1c1.3 0 2.2-.2 2.6-.6.4-.4.7-.9.7-1.4l.1-4.8v-7.1c0-2.8-.1-4.5-.4-5.1a2 2 0 00-1-1.2l-2.3-.2h-.7V421c3.4-.4 6-.9 8-1.5h.6zm7.4 12.8c0-3.7 1.2-6.7 3.6-9a12 12 0 019-3.7 12.3 12.3 0 0112.6 12.7c0 4-1.3 7-3.7 9.4a12.7 12.7 0 01-9 3.4 12.3 12.3 0 01-12.6-12.8zm4.8.1c0 4.2.7 7.1 2 8.8a7 7 0 005.7 2.5c2.6 0 4.5-.8 5.8-2.5 1.4-1.7 2-4.6 2-8.8 0-4.1-.6-7.1-2-8.9a6.8 6.8 0 00-5.8-2.6c-2.5 0-4.4.9-5.7 2.6-1.4 1.8-2 4.7-2 8.9zm30.6-12.8h.8c.4 1.1.7 2.8.8 4.8a15 15 0 014.3-3.6 10 10 0 014.8-1.2c1.8 0 3.4.3 4.6 1.1 1.2.8 2 1.8 2.3 3 .3 1 .5 2.7.5 5v7.3c0 2.7 0 4.4.2 5 0 .6.4 1 .9 1.3.5.3 1.4.5 2.8.5v1.3h-12.1v-1.3h.6c1.3 0 2.2-.2 2.7-.6.4-.4.6-.9.7-1.4v-12.4a19 19 0 00-.2-4c-.2-.8-.7-1.5-1.5-2.1a5 5 0 00-3-1c-1.4 0-2.8.5-4 1.3-1.3.9-2.5 2.1-3.6 3.8v14.6c.2.6.5 1 1 1.3.5.3 1.5.5 2.9.5v1.3h-12v-1.3c1.4 0 2.3-.2 2.8-.4.5-.3.8-.7 1-1.2 0-.6.2-2.3.2-5.2v-7c0-2.8-.1-4.4-.2-5-.1-.6-.4-1-1-1.3-.4-.3-1.4-.5-2.8-.5v-1.3a37 37 0 006.5-1.3zm49.2 20.2h1c0 3.3-1.7 5-4.7 5-1.4 0-2.4-.4-3.2-1.1a5.2 5.2 0 01-1.4-3.1c-2 1.3-3.7 2.4-5.3 3-1.6.8-3 1.1-4.2 1.1-1.6 0-3-.5-4.2-1.4a4.5 4.5 0 01-1.7-3.6c0-2 1-3.7 2.9-5.2 2-1.5 4.6-3 8-4.3l4.5-1.9v-1.1a14 14 0 00-.3-3.6 5 5 0 00-1.7-2 7 7 0 00-3.5-.8c-2.9 0-4.5 1-4.8 2.9-.3 2-1.1 3-2.4 3-1.2 0-1.8-.6-1.8-1.7s.8-2.3 2.4-3.5c1.5-1.3 4-2 7.2-2 2.5 0 4.4.4 5.7 1.2 1.4.8 2.2 1.6 2.7 2.6.4 1 .6 2.5.6 4.5v9.6c0 2.2.1 3.6.4 4.3.2.6.7.9 1.5.9 1.2 0 2-1 2.3-2.8zm-8.3-10.1l-3.2 1.3c-5 2-7.4 4.5-7.4 7.6 0 1.2.3 2.2 1 3 .6.6 1.4 1 2.4 1s2-.3 3.2-.9a23 23 0 004-2.7v-9.3zm19-25.2v31.5l.1 4.8c.1.6.4 1.1.9 1.5.4.3 1.3.5 2.5.5h.7v1.3H751v-1.3h.8c1.2 0 2-.2 2.5-.5s.8-.8.9-1.3l.1-5v-23.3c0-2.5-.2-4-.7-4.7-.4-.6-1.5-1-3.2-1v-1.3a25 25 0 007.4-1.2h.6zM513 683.5c0 .4-.3.6-1.2.6h-.6a134.7 134.7 0 01-6.4-.1h-7.7c-.8 0-1.3-.1-1.3-.5s.6-.6 1.8-.6c2 0 3.2-.2 3.6-.6.2-.2.3-1.5.3-4v-30.5l-.6 2-6.9 21.5-2.8 9.4c-.5 1.8-.9 2.8-1.1 2.8-.3 0-.6-.5-1-1.4-1-3.6-4.3-12.6-9.6-26.8l-2.4-6.3.1 3v19.2c0 7.2 0 10.8.2 11 .3.4 1.2.7 2.8.7 1.3 0 2 .2 2 .5 0 .4-.5.6-1.3.6h-1.4l-1.5-.1-6.8.2c-.7 0-1-.2-1-.6 0-.4 1.1-.6 3.3-.6 1 0 1.5-.2 1.7-.5.2-.3.2-1.3.2-3V645.7a2 2 0 00-1-1.2l-3.4-.4c-.6 0-1-.2-1-.6 0-.4.6-.6 1.8-.6h9a3397.8 3397.8 0 0111 30l2.3-7.6 6.3-19.6 1-2.8h8.8l2.2.1c.2.1.3.3.3.5 0 .4-.3.6-1 .6-1 0-1.8 0-2.2.2-1 .1-1.6.4-2 .9-.2.3-.3 2.6-.3 6.9v27.4c0 1.6.2 2.5.5 2.8.5.4 1.8.5 3.8.5h.4c.8 0 1.2.2 1.2.6zm28.3-12.2c0 3.8-1.2 7-3.5 9.6a11.2 11.2 0 01-8.7 3.8 12 12 0 01-9-3.8 13.6 13.6 0 01-3.6-9.6c0-4 1.2-7.2 3.5-9.8 2.4-2.6 5.3-4 8.8-4 3.6 0 6.5 1.4 8.9 4a14 14 0 013.6 9.8zm-5.4-.1a21 21 0 00-2-10c-1-1.9-2.6-2.7-5-2.7-2.2 0-3.9 1-5.2 3.4a19.8 19.8 0 00-1.8 9.4c0 4 .7 7 2 9.3a6.2 6.2 0 005.5 3.3c1.8 0 3.2-.7 4-2 1.7-2.7 2.5-6.2 2.5-10.7zm36.5 11.6c0 .3-.2.4-.8.4H570c-2 0-3.6.4-5 1.2l-1 .4c-.3 0-.5-.2-.5-.7v-1.8a8.4 8.4 0 01-6 2.4c-3.2 0-6-1.3-8.1-3.8a14.7 14.7 0 01-3.2-9.7c0-4 1-7.3 3.2-9.9 2.1-2.5 5-3.7 8.4-3.7 2.7 0 4.7 1 6 2.9v-9.2c0-3-.1-4.9-.4-5.6-.2-.6-.6-.9-1-.8l-2.1.2c-.5 0-.8-.2-.8-.6 0-.3.2-.5.7-.5h2c1.3.1 3-.5 5.5-1.6l.4-.1c.4 0 .6.5.6 1.4v23.2c0 9.4 0 14.4.2 15 .1.3 1 .4 2.8.4.6 0 .8.2.8.5zm-8.7-14.8c0-3.8-.4-6.2-1.2-7.2a5 5 0 00-4-2c-2.2 0-4 1-5.2 3.3a17.8 17.8 0 00-1.9 8.8c0 3.5.6 6.6 1.7 9a8 8 0 002 2.7c1 .7 2 1 3 1 1.2 0 2.3-.3 3.3-1a5 5 0 001.8-2.7c.4-1 .5-5 .5-11.9zm33.6 9.6c0 .4-.3 1-1 2a9 9 0 01-8.6 5c-3.5.1-6.4-1.2-8.8-3.7a13.5 13.5 0 01-3.6-9.5c0-4 1.1-7.2 3.4-9.9 2.3-2.6 5-4 8.5-4 2.8 0 5.1.9 7 2.5a8.4 8.4 0 013 6.3c-1.3.2-3 .3-5 .2H588l-7.1.2-.3 3.7c0 4 .7 7 2.2 9.2a7.5 7.5 0 006.5 3.2 6 6 0 003.7-1.1c1-.7 2-2 3.1-4 .2-.4.4-.5.6-.5.4 0 .5 0 .5.4zm-5.1-12c-.2-4.8-1.9-7.1-5-7.1-3.3 0-5.3 2.3-6 7h11zm27.7-4c0 .9-.3 1.6-.8 2.2-.6.6-1.3 1-2.1 1s-1.3-.3-1.8-.7a2 2 0 01-.7-1.6c0-.5.1-1 .5-1.4.4-.4.5-.7.5-.8 0-.6-.4-.9-1.3-.9-1 0-2 .7-2.8 2-.9 1.7-1.4 4.7-1.4 9v11.7c0 .5.2.8.5.9.4.1 1.4.2 3 .2.5.1.7.3.7.5 0 .3-.2.4-.7.4h-2.6a109.8 109.8 0 00-8.9 0c-.6 0-1-.1-1-.4 0-.3.3-.4.8-.4h.9c1.3 0 2.1-.2 2.3-.5l.1-2.2v-16.2c0-2.2-.3-3.4-1-3.7a7 7 0 00-3-.6c-.5 0-.7-.1-.7-.4 0-.3.2-.4.6-.4h.4l1.7.1h.8c1.5 0 3-.4 4.8-1.2l.8-.3.5-.2.2 2.8v1.2c1.3-2.8 3-4.1 5.3-4.1a5 5 0 013.2 1.1c.8.8 1.2 1.7 1.2 2.9zm29.8 22c0 .4-.2.5-.8.5h-.7l-3-.1-6.8.1h-.4c-.5 0-.8-.1-.8-.4 0-.2.1-.3.3-.3l2.3-.2c.8 0 1.2-.1 1.3-.3.2-.2.2-.8.2-2v-11.2c0-4.3-.1-6.9-.5-7.7-.6-1.8-2-2.7-4-2.7a6 6 0 00-5 2.6c-.3.5-.5 1.3-.5 2.2v18.4c0 .4.5.7 1.3.7h1.7c.4 0 .6.2.6.5s-.2.4-.7.4h-1a50.8 50.8 0 00-9.4 0h-.3c-.6 0-.9-.1-.9-.4 0-.3.4-.4 1-.5h1.5c.6 0 1-.2 1.1-.4l.2-1V669l-.1-7.4c-.1-.5-.6-.7-1.5-.7H623c-.8 0-1.2 0-1.2-.3 0-.4.4-.6 1.2-.6a16 16 0 003.9-.6c1.4-.4 2.3-.8 2.9-1.4.3-.3.6-.4.8-.4.3 0 .4.3.4 1v3c2-2.7 4.7-4 8-4 2.7 0 4.8 1 6 3.1.8 1.2 1.1 3.4 1.1 6.7V681c0 1.2 0 2 .2 2 .2.3.8.4 1.7.4h1.1c.4 0 .5 0 .5.3zM471.4 893.4h-4.3l-1-6c-1-.7-2-1.3-3.5-1.8-1.4-.4-3.1-.7-5-.7-3 0-5.3.7-7 2a6 6 0 00-2.4 5c0 1.8.8 3.3 2.5 4.5a23 23 0 008 3.2c4.4 1.1 7.7 2.7 10 4.8 2.3 2.2 3.5 4.8 3.5 8 0 3.4-1.4 6-4.2 8.1-2.7 2-6.3 3.1-10.8 3.1a22 22 0 01-8.6-1.6c-2.5-1-4.5-2.4-6.1-4.1V910h4.3l1 6a13.8 13.8 0 009.4 3c2.9 0 5.1-.5 6.8-1.7a5.8 5.8 0 002.5-5 6 6 0 00-2.2-4.8 18 18 0 00-7.6-3.3c-4.4-1-8-2.6-10.4-4.6a9.6 9.6 0 01-3.8-7.8c0-3.3 1.4-6 4.2-8.2a17 17 0 0110.9-3.3 20.3 20.3 0 0113.8 5.2v7.8zm5.3-11.7v-3.6h10.4v40.5l4.7.8v3.6h-15v-3.6l4.6-.8v-36l-4.7-.9zm39.8 41.3a39.8 39.8 0 01-.6-4.3 13.1 13.1 0 01-4.2 3.5 9.5 9.5 0 01-5.2 1.4c-3.2 0-5.7-.8-7.4-2.4a8.8 8.8 0 01-2.5-6.7c0-3 1.2-5.2 3.5-6.8 2.4-1.6 5.7-2.4 9.9-2.4h5.8v-3.6c0-1.9-.5-3.3-1.7-4.4a6.8 6.8 0 00-4.8-1.6 12 12 0 00-3.8.6 7 7 0 00-2.6 1.5l-.6 3.2h-4.4v-6a20.1 20.1 0 0111.7-3.7c3.6 0 6.4.9 8.6 2.7a9.5 9.5 0 013.3 7.7V918l.1 1.2 2.3.3v3.6h-7.4zm-9.2-4.1a10 10 0 005.2-1.4 8 8 0 003.3-3.3v-5h-6a9 9 0 00-5.5 1.5 4.8 4.8 0 00-2 4c0 1.3.4 2.4 1.2 3 .8.8 2.1 1.2 3.8 1.2zm49.8-10.3c0 4.5-1 8.1-3.2 10.9a10.7 10.7 0 01-9 4.1c-2 0-3.7-.4-5.2-1.1a10 10 0 01-3.8-3.5l-.5 4h-4.9v-40.5l-4.7-.8v-3.6h10.4v17.4a9.9 9.9 0 018.7-4.2c3.9 0 6.9 1.5 9 4.6 2.2 3 3.2 7 3.2 12v.7zm-5.7-.6c0-3.6-.6-6.5-2-8.8a6.5 6.5 0 00-6-3.3c-1.7 0-3.1.4-4.3 1.2a9 9 0 00-2.9 3.4v13.8a7.7 7.7 0 007.3 4.7c2.7 0 4.7-1 6-2.9a13 13 0 002-7.5v-.6z"/>
    <path fill="#000" d="M342.2 579.6c0 9.5-4.3 16.5-13 21a46.2 46.2 0 01-18 4.3l-19 .1h-17c-1.6 0-2.4-.4-2.4-1.3 0-.8 1.4-1.2 4.3-1.2 3.4 0 5.3-.3 5.9-1 .6-.7 1-2.9 1-6.4v-75.6c0-4-.2-6.5-.6-7.1-.7-1.1-3-1.7-7.1-1.8-2.6 0-3.8-.5-3.8-1.4 0-.9 1.2-1.3 3.5-1.3h1.7l2.8.1 27.2.3a42 42 0 0122.5 5c5.8 3.9 8.7 9.4 8.7 16.7 0 6.3-2.4 11.5-7.2 15.6-4.7 4-11.4 6.5-20 7.6v.8c8.5.6 15.1 2.3 19.9 5.3 7 4.5 10.6 11.2 10.6 20.3zm-18.7-48.2c0-9-2-15-6.2-17.9-2.1-1.6-6.2-2.4-12.1-2.4l-7.4.4v40.6h1.2l7.7-.3c5.3-.2 9.4-2 12.3-5.6 3-3.6 4.5-8.6 4.5-14.8zm4 46.6c0-11.7-4.7-19-14.2-21.8a63 63 0 00-15.5-1.2v41.6c0 2.7.3 4.3.8 4.6 1 .7 3.6 1 7.8 1a20 20 0 0015.4-6.1c3.8-4.1 5.7-10.1 5.7-18zm84.2-3.2a33 33 0 01-8.3 22.8c-5.5 6-12.3 9-20.5 9a28 28 0 01-21.2-9 32.3 32.3 0 01-8.6-22.8c0-9.3 2.8-17 8.3-23.2a27 27 0 0120.8-9.2 27 27 0 0121 9.4 32.7 32.7 0 018.5 23zm-12.7-.1a49 49 0 00-4.8-23.9c-2.3-4.2-6.2-6.3-11.7-6.3-5.2 0-9.3 2.7-12.3 8.1a47 47 0 00-4.3 22.2 44 44 0 004.6 22.1c3.1 5.2 7.5 7.8 13 7.8 4.4 0 7.5-1.6 9.6-4.9a46.4 46.4 0 005.9-25.1zm83.7 27.5c0 .7-.6 1-2 1h-.6c-.8 0-1.6 0-2.4-.2h-1.1c-4.6 0-8.5 1-11.6 2.8a8.5 8.5 0 01-2.4 1.2c-.8 0-1.3-.6-1.3-1.7l.2-4.4a20 20 0 01-14.3 5.8c-7.8 0-14.3-3-19.4-9-5-6-7.5-13.7-7.5-23a35 35 0 017.5-23.3 25 25 0 0120-9c6.3 0 11 2.3 14.2 6.9v-21.8c0-7.1-.3-11.5-1-13.2-.5-1.4-1.3-2-2.5-2-2.7.4-4.3.5-4.9.5-1.2 0-1.8-.4-1.8-1.3 0-.8.5-1.2 1.6-1.2l5 .1c2.8.1 7-1.2 12.9-3.9.3-.2.6-.3 1-.3.9 0 1.3 1.2 1.3 3.4v3l-.1 3.8v48.2c0 22.1.2 34 .7 35.5.2.7 2.4 1 6.6 1 1.3 0 2 .4 2 1.1zm-20.7-35c0-9-1-14.7-2.9-17.2a11.8 11.8 0 00-9.6-4.8c-5 0-9 2.6-12 7.8a42 42 0 00-4.5 21c0 8.4 1.3 15.5 3.9 21.5 1.1 2.5 2.7 4.6 4.9 6.3 2.2 1.6 4.5 2.4 6.8 2.4a13 13 0 007.8-2.6c2.4-1.7 3.9-3.8 4.5-6.2a173 173 0 001.1-28.3zm83.2 7.6a33 33 0 01-8.2 22.8c-5.5 6-12.3 9-20.5 9a28 28 0 01-21.3-9 32.3 32.3 0 01-8.5-22.8c0-9.3 2.7-17 8.2-23.2a27 27 0 0120.9-9.2 27 27 0 0121 9.4 32.7 32.7 0 018.4 23zm-12.7-.1c0-10.3-1.6-18.2-4.7-23.9-2.4-4.2-6.3-6.3-11.8-6.3-5.2 0-9.3 2.7-12.3 8.1a47 47 0 00-4.3 22.2c0 9.4 1.6 16.8 4.6 22.1 3.2 5.2 7.6 7.8 13.2 7.8 4.2 0 7.4-1.6 9.5-4.9a46.4 46.4 0 005.8-25.1zm84.7 29.5c0 .7-.7 1-2 1h-1.7l-6.9-.2c-9.1 0-14.5 0-16.2.3h-1c-1.2 0-1.8-.3-1.8-1 0-.5.3-.7.7-.8l5.5-.3c1.7-.1 2.8-.3 3-.7.3-.5.5-2 .5-4.6V571a82 82 0 00-1.1-18.2c-1.6-4.2-4.8-6.3-9.5-6.3s-8.6 2-11.8 6.2a8 8 0 00-1.4 5l.2 43.6c0 1 1 1.7 2.9 1.8l4.2.1c1 0 1.4.4 1.4 1 0 .7-.6 1-1.7 1h-2.2a120.3 120.3 0 00-16.5-.2l-5.9.2h-.8c-1.4 0-2.1-.3-2.1-1 0-.6.8-1 2.5-1.3h3.5c1.4 0 2.2-.3 2.5-1l.4-2v-30.5c0-10.6 0-16.5-.3-17.6-.1-1.1-1.3-1.7-3.4-1.7l-3.4.3h-.7c-1.9 0-2.8-.3-2.8-1 0-.8 1-1.2 3-1.2a35 35 0 0015.9-4.8c.8-.7 1.5-1 2-1 .6 0 .9.8.9 2.6v6.7c4.8-6.3 11-9.4 18.7-9.4 6.7 0 11.6 2.5 14.5 7.4 1.7 2.8 2.6 8.1 2.6 16v31.8c0 3 .1 4.6.4 4.9.5.5 1.9.8 4 .8l1.6-.1h1c.9 0 1.3.3 1.3 1zm24-87.1c0 4.2-2.1 6.3-6.3 6.3a6 6 0 01-4.5-1.7 6 6 0 01-1.8-4.3c0-4.4 2-6.6 6.3-6.6 4.2 0 6.3 2.1 6.3 6.3zm10.4 87c0 .9-.7 1.3-2.3 1.3a173.3 173.3 0 00-10.4-.5l-14.5.2-1.7.2c-1 0-1.5-.3-1.5-1 0-1 1-1.4 2.8-1.4 3.5 0 5.4-.3 5.7-.7.4-.5.6-2.4.6-5.9L630 554c0-2.3-.2-3.7-.4-4 0-.5-.6-.7-1.7-.7l-4 .1-1.4.1c-1 0-1.5-.3-1.5-1s.7-1.1 2.3-1.2a33 33 0 0016-4.5l1.5-.8c.7 1.4 1.1 4 1.1 7.7v1.4l-.1 5.4v38.2l.1 6.5c.2.7.7 1.1 1.5 1.3 1.4.4 3.5.5 6.2.5 1.3 0 2 .4 2 1.2z"/>
    <path fill="#9B3045" fill-rule="evenodd" d="M144 425a85 85 0 100-170 85 85 0 000 170zm0 3a88 88 0 100-176 88 88 0 000 176zm660-239a85 85 0 100-170 85 85 0 000 170zm0 3a88 88 0 100-176 88 88 0 000 176zm0 469a85 85 0 100-170 85 85 0 000 170zm0 3a88 88 0 100-176 88 88 0 000 176zM144 920a85 85 0 100-170 85 85 0 000 170zm0 3a88 88 0 100-176 88 88 0 000 176zM560 844a18 18 0 100-36 18 18 0 000 36zm0 2a20 20 0 100-40 20 20 0 000 40zm-86-232a18 18 0 100-36 18 18 0 000 36zm0 2a20 20 0 100-40 20 20 0 000 40zm287-235a18 18 0 100-36 18 18 0 000 36zm0 2a20 20 0 100-40 20 20 0 000 40zM506 138a18 18 0 100-36 18 18 0 000 36zm0 2a20 20 0 100-40 20 20 0 000 40z" clip-rule="evenodd"/>
    <path fill="#9B3045" fill-rule="evenodd" d="M508 150v-10h-2v12h225.5v-2H508zm-33 478v-12h-2v14h261.5v-2H475zm284-237.5V382h2v10.5H215v-2h544zM561.5 846v14.5h-333v-2h331V846h2z" clip-rule="evenodd"/>
    <g mask="url(#b)">
      <path fill="#2F2F2F" d="M143.5 571v64.1h46.2v49.6h-46.2V818c0 10.2 2.1 17.5 6.3 21.8 4.2 4.4 10 6.5 17 6.5 5 0 9.1-.1 12.7-.4 3.7-.5 7.9-1.2 12.4-2.2l6.1 51a160 160 0 01-23.6 5.4 155 155 0 01-25.3 1.9c-24.5 0-43.4-6.7-56.7-20-13.1-13.5-19.7-34.7-19.7-63.7V684.7H34v-49.6h38.7V571h70.8z"/>
    </g>
    <g mask="url(#c)">
      <path fill="#2F2F2F" d="M859 595.9c0 3.6-3.6 5.4-10.7 5.4h-3.9c-4 0-8.4-.3-13-.8h-6.2c-25 0-46.3 5.1-63.7 15.4a46.6 46.6 0 01-13 6.1c-4.6 0-6.9-3-6.9-9.2l.8-23.8c-22 21-48.1 31.5-78.3 31.5-43 0-78.5-16.4-106.7-49.2C529.8 538 516 495.7 516 444.5c0-52.8 13.8-95.5 41.4-128.3 28.2-32.8 64.7-49.2 109.8-49.2 34.8 0 60.8 12.6 78.2 37.7v-120c0-38.8-1.8-63-5.3-72.1-3.1-7.7-7.7-11.3-13.8-10.8a412 412 0 01-27 2.3c-6.6 0-9.9-2.3-9.9-6.9 0-4.6 2.8-7 8.5-7l27.6.9c15.3.5 38.9-6.7 70.6-21.6 2-1 3.8-1.5 5.4-1.5 5 0 7.6 6.1 7.6 18.4v16.2c-.5 8.2-.7 15.3-.7 21.5v265c0 121.5 1.2 186.5 3.8 195.3 1 3.5 13 5.3 36 5.3 7.2 0 10.8 2 10.8 6.2zM745.4 403c0-49.2-5.3-80.7-16-94.5a64.7 64.7 0 00-53-26.1c-27.7 0-49.6 14.3-66 43s-24.6 67.1-24.6 115.3c0 46 7.2 85.5 21.5 118.3a89.2 89.2 0 0026.9 34.6 64.4 64.4 0 0037.6 13 72 72 0 0043-13.8 64.2 64.2 0 0024.5-34.6c4-13.3 6.1-65 6.1-155.2z"/>
    </g>
    <g mask="url(#d)">
      <path fill="#2F2F2F" d="M152.6 0v304.7c0 24.4.3 39.7.8 46 .8 6.3 3.5 11.1 8.1 14.5 4.7 3.3 13 5 24.8 5h6.7V383H71v-12.8h7.8c11.1 0 19-1.5 23.7-4.5 4.8-3.1 7.7-7.5 8.6-13 1-5.6 1.4-21.6 1.4-48V79.1c0-24-2.1-39-6.4-45.1-4.3-6.3-14.7-9.5-31.2-9.5V11.7c11.3 0 24.6-1.3 39.8-3.9A148 148 0 00146.5 0h6.1z"/>
    </g>
    <g mask="url(#e)">
      <path fill="#000" d="M734 133v-15.8l26.3-.3a21 21 0 008.9-2c2.2-1.2 3.9-2.8 5-4.6 2-3.7 3.3-10.3 3.9-19.7l1.6-79.6v-33c0-14.8-.2-30.7-.8-47.7a58.4 58.4 0 00-2.8-19.4c-1-2-3.1-3.5-6-4.4-3-1.1-15-1.6-36.1-1.4v-15.8c37.3-5.2 64.6-12 81.8-20.2a22 22 0 017.4-2.8c1.3 0 2.4.4 3 1.4.8.9 1.2 2.3 1.2 4.1 0 1.3 0 2.8-.3 4.5-.5 6.6-1 20.7-1.6 42.1l51.5-44c15.2-5.6 29.5-8.4 43-8.4 15 0 29 3 42.4 9.2a73.3 73.3 0 0130.2 23 78.4 78.4 0 0113.6 34.9c1.3 8.3 1.9 31.5 1.9 69.6v49c0 24 .6 40.5 2 49.1.9 5.6 2.3 9.5 4.1 11.7 2 2 5 3.3 9.1 3.9l29.7.8V133c-18.1-1.3-33.2-2-45.2-2-10.3 0-27.5.7-51.5 2 2.6-45.7 3.9-74.5 3.9-86.5V-.1c0-29-1.2-48-3.4-57.1a50.4 50.4 0 00-21.3-30 69.5 69.5 0 00-40.2-11.3 74.2 74.2 0 00-38 10 63.2 63.2 0 00-24.6 22.7c-4.8 8.5-7.2 23-7.2 43.3V11l1.6 78c.4 9.2 1.5 15.9 3.3 20.2.8 1.6 1.9 3.1 3.4 4.4 1.5 1.1 3.8 2 6.9 2.8 1.1.1 11.3.4 30.5.8V133c-22.6-1.3-43-2-61.3-2-15.5 0-40.8.7-75.9 2z"/>
    </g>
  </g>
</svg>