<svg xmlns="http://www.w3.org/2000/svg" viewBox="-1 287.2 999 217.2">
  <path fill="#fff" d="M-1 287.2h999v217.2H-1z"/>
  <path fill="#333" d="M67.7 346.2l-5.8 18.5h-4.6a140.2 140.2 0 01-1.6-17.3 468.2 468.2 0 01-1-19.9h4.8l.6 31 5.4-16.9h4.3l5.6 17 .6-31h4.8a566.2 566.2 0 01-2.7 37h-4.6l-5.8-18.4zm42.6 4.6a18 18 0 01-.9 6c-.6 1.7-1.5 3.2-2.6 4.5a11.6 11.6 0 01-9.1 4 12 12 0 01-11.6-8.6 18 18 0 01-1-6c0-2.1.4-4.1 1-6 .6-1.7 1.5-3.3 2.6-4.5a11.8 11.8 0 019-4 12.3 12.3 0 019.1 4c1.1 1.2 2 2.8 2.6 4.6.6 1.8 1 3.8 1 6zm-5 0c0-3.2-.7-5.7-2-7.5a6.5 6.5 0 00-5.6-2.7c-2.3 0-4.1.9-5.4 2.7-1.4 1.8-2 4.3-2 7.5 0 3 .6 5.6 2 7.4a6.4 6.4 0 005.4 2.7c2.3 0 4.1-1 5.5-2.7 1.4-1.8 2-4.3 2-7.4zm9.9 13.9v-27a19 19 0 016.8-1.5c1.1 0 2.2.2 3.3.6 1 .3 1.8.8 2.6 1.5a8.6 8.6 0 015.5-2 6.4 6.4 0 015 2.2c.7.6 1.2 1.5 1.6 2.6.4 1 .6 2.3.6 3.8v19.8H136v-20c0-1.4-.3-2.5-1-3.2a3 3 0 00-2.4-1.2c-.5 0-1 .1-1.5.4-.5.2-1 .6-1.4 1.1l.3 3v9.1h-4.5v-9c0-1.5-.2-2.6-.6-3.4-.5-.8-1.3-1.2-2.6-1.2a8 8 0 00-2.7.6v23.8h-4.5zm43-28.5a11 11 0 018.8 3.5c2 2.3 3 5.9 3 10.6v1.8h-19.9c.2 2.9 1.2 5 2.9 6.6 1.7 1.5 4 2.2 7.1 2.2 1.8 0 3.3-.1 4.5-.4a13 13 0 002.9-1l.6 4.3a23.6 23.6 0 01-8.5 1.6c-2.4 0-4.5-.4-6.3-1.2-1.8-.7-3.4-1.7-4.6-3a12.4 12.4 0 01-2.7-4.6 18 18 0 01-.9-5.8c0-2.5.4-4.6 1.2-6.5a12.4 12.4 0 017.2-7.3c1.5-.5 3.1-.8 4.8-.8zm-8 11.9H165a8 8 0 00-1.9-5.6 6.3 6.3 0 00-4.9-2.1 7.3 7.3 0 00-5.6 2.4c-.6.7-1.2 1.5-1.6 2.4-.4 1-.6 1.9-.8 2.9zm26.8 16.6v-27a51.7 51.7 0 0110.4-1.5c3.7 0 6.5 1 8.4 3 2 1.8 2.9 5 2.9 9.2v16.3h-5v-15.4c0-1.8-.1-3.3-.4-4.4-.4-1.1-.8-2-1.4-2.6-.6-.6-1.3-1-2-1.3-1-.3-1.8-.4-2.8-.4a23.1 23.1 0 00-5.1.6v23.5h-5zm83.3-14a18 18 0 01-.9 6c-.6 1.8-1.5 3.3-2.6 4.6a11.6 11.6 0 01-9.1 4 12 12 0 01-11.6-8.6 18 18 0 01-1-6c0-2.1.3-4.1 1-6 .6-1.7 1.5-3.3 2.6-4.5a11.8 11.8 0 019-4 12.3 12.3 0 019.1 4c1.1 1.2 2 2.8 2.6 4.6.6 1.8 1 3.8 1 6zm-5 0c0-3.1-.7-5.6-2.1-7.4a6.5 6.5 0 00-5.5-2.7c-2.3 0-4.1.9-5.5 2.7-1.3 1.8-2 4.3-2 7.5 0 3 .7 5.6 2 7.4a6.4 6.4 0 005.5 2.7c2.3 0 4.1-1 5.5-2.7 1.4-1.8 2-4.3 2-7.4zm22 14h-5V341h-5.8v-4.2h5.9v-2.5c0-2.1.3-4 .9-5.3a9.5 9.5 0 012.4-3.5c1-.9 2-1.5 3.4-1.9 1.3-.3 2.7-.5 4-.5a37 37 0 018.5 1.6l-.8 4.3c-1-.5-2-.8-3.3-1.2a17 17 0 00-4-.4c-1 0-1.7 0-2.4.3-.8.2-1.4.6-2 1.1-.5.6-1 1.3-1.3 2.2-.3.9-.5 2-.5 3.4v2.4h11.2v4.2h-11.2v23.7zm60-36.5v8.6h11.8v4.2h-11.8v13c0 1.3.1 2.5.3 3.4.2.8.5 1.6 1 2 .5.6 1 1 1.8 1.2a13.6 13.6 0 006.1 0l2.5-1 .7 4.2-2.6 1c-1.3.3-2.8.5-4.6.5-2 0-3.8-.2-5-.7a6.7 6.7 0 01-3.2-2.1c-.7-1-1.2-2.2-1.5-3.6-.3-1.4-.4-3-.4-5v-13h-5.9v-4h5.9V329l5-.8zm24.7 36.5h-5v-40.8l5-.8v14.2a16.6 16.6 0 0111 0c1.3.5 2.5 1.4 3.3 2.5.8 1.1 1.4 2.4 1.8 4 .4 1.6.5 3.3.5 5.2v15.7h-4.9V350c0-3.4-.5-5.8-1.4-7.2-1-1.5-2.7-2.2-5.2-2.2a13.8 13.8 0 00-5.1 1v23zm36.3-28.5a11 11 0 018.7 3.5c2 2.3 3 5.9 3 10.6v1.8h-19.9c.2 2.9 1.2 5 2.9 6.6 1.7 1.5 4 2.2 7.1 2.2 1.8 0 3.3-.1 4.5-.4a13 13 0 002.8-1l.7 4.3a23.6 23.6 0 01-8.5 1.6c-2.4 0-4.5-.4-6.3-1.2-1.9-.7-3.4-1.7-4.6-3a12.4 12.4 0 01-2.7-4.6 18 18 0 01-.9-5.8c0-2.5.4-4.6 1.2-6.5a12.4 12.4 0 017.2-7.3c1.5-.5 3.1-.8 4.8-.8zm-8 11.9H405a8 8 0 00-1.9-5.6 6.3 6.3 0 00-4.9-2.1 7.3 7.3 0 00-5.6 2.4c-.7.7-1.2 1.5-1.6 2.4-.4 1-.7 1.9-.8 2.9zm76.7 16.6h-3.7a98.8 98.8 0 01-4.1-10.6l-1.5-4.2a3010.7 3010.7 0 01-4 11l-1.7 3.8h-3.7a208 208 0 01-4.4-27.9h4.6A282.8 282.8 0 00451 358a157.5 157.5 0 005-14.7h3.7l1 3.7a79.5 79.5 0 002.2 6.8l1.5 4.1a433.8 433.8 0 002.3-16.3l.4-4.8h4.5a287.7 287.7 0 01-3 20.8l-1.6 7zm33.3-14a18 18 0 01-1 6 11.6 11.6 0 01-11.7 8.6 12 12 0 01-11.5-8.6 18 18 0 01-1-6c0-2.1.3-4.1 1-6 .6-1.7 1.4-3.3 2.6-4.5a11.8 11.8 0 019-4 12.3 12.3 0 019 4c1.2 1.2 2 2.8 2.7 4.6.6 1.8 1 3.8 1 6zm-5 0c0-3.1-.8-5.6-2.1-7.4a6.5 6.5 0 00-5.5-2.7c-2.3 0-4.1.9-5.5 2.7-1.3 1.8-2 4.3-2 7.5 0 3 .7 5.6 2 7.4a6.4 6.4 0 005.5 2.7c2.3 0 4.1-1 5.5-2.7 1.3-1.8 2-4.3 2-7.4zm18.8 14h-5v-26.4A37.9 37.9 0 01529 337l-.9 4.4a20.4 20.4 0 00-6.6-.8c-2.4 0-5 .3-7.4 1v23zm38.9.6c-1.8 0-3.2-.2-4.4-.7-1.1-.5-2-1.2-2.7-2.1-.7-1-1.2-2.2-1.5-3.6-.3-1.4-.4-3-.4-5v-26.3h-8v-4.2h13v30.5c0 1.4 0 2.6.2 3.5.2.8.4 1.6.8 2 .4.6.9 1 1.4 1.2.6.2 1.3.3 2 .3a12 12 0 005.6-1.3l.7 4.2a15.7 15.7 0 01-6.7 1.5zm30.5-5v-17.6c-.6-.5-1.4-1-2.5-1.4-1-.5-2.2-.7-3.3-.7-1.4 0-2.5.2-3.4.7-1 .6-1.7 1.3-2.3 2.2-.6.9-1 2-1.4 3.2-.2 1.3-.4 2.6-.4 4 0 3.3.8 5.8 2.3 7.6a7.5 7.5 0 006 2.6 23.3 23.3 0 005-.5zm0-22.4v-14l5-.8v40.8a44 44 0 01-10 1.4c-2 0-3.9-.3-5.5-1-1.7-.7-3-1.6-4.2-2.9-1.2-1.2-2-2.8-2.7-4.6a20.3 20.3 0 01-.2-12c.6-1.7 1.4-3.3 2.4-4.5 1-1.3 2.3-2.3 3.7-3 1.5-.8 3.2-1.1 5-1.1 1.5 0 2.8.2 4 .5 1 .4 2 .8 2.5 1.2zm63.5 26.8h-3.7a98.8 98.8 0 01-4.1-10.6l-1.5-4.2a3010.7 3010.7 0 01-4.1 11l-1.6 3.8h-3.7a208 208 0 01-4.4-27.9h4.6A282.8 282.8 0 00631 358a157.5 157.5 0 005-14.7h3.7l1 3.7a79.5 79.5 0 002.2 6.8l1.5 4.1a433.8 433.8 0 002.3-16.3l.4-4.8h4.5a287.7 287.7 0 01-3 20.8l-1.6 7zm21.2-28.5a11 11 0 018.7 3.5c2 2.3 3.1 5.9 3.1 10.6v1.8h-20c.3 2.9 1.2 5 3 6.6 1.6 1.5 4 2.2 7.1 2.2 1.8 0 3.3-.1 4.5-.4a13 13 0 002.8-1l.7 4.3a23.6 23.6 0 01-8.5 1.6c-2.4 0-4.5-.4-6.4-1.2-1.8-.7-3.3-1.7-4.5-3a12.4 12.4 0 01-2.7-4.6 18 18 0 01-.9-5.8c0-2.5.4-4.6 1.1-6.5a12.4 12.4 0 017.2-7.3c1.6-.5 3.2-.8 4.8-.8zm-8 11.9H675a8 8 0 00-1.9-5.6 6.3 6.3 0 00-5-2.1 7.3 7.3 0 00-5.5 2.4c-.7.7-1.2 1.5-1.6 2.4-.4 1-.7 1.9-.8 2.9zm37.8 13a41.3 41.3 0 005.8-.4v-8.3a21.6 21.6 0 00-7.9-.4c-.9.1-1.7.4-2.3.7a5 5 0 00-1.7 1.5c-.5.5-.7 1.3-.7 2.1 0 1.8.6 3 1.9 3.8 1.2.7 2.8 1 5 1zm-.5-25c2.1 0 3.9.3 5.3.9a9 9 0 013.4 2.1c1 1 1.5 2 1.9 3.4.3 1.3.5 2.7.5 4.3v17.4l-4.6.7a40 40 0 01-10.3 0c-1.4-.2-2.7-.7-3.8-1.3-1.1-.7-2-1.6-2.7-2.8-.7-1.1-1-2.6-1-4.4a7.4 7.4 0 013.7-6.7c1.1-.7 2.4-1.2 3.8-1.5a25.2 25.2 0 0110 .2V347c0-.8 0-1.6-.2-2.4a5.2 5.2 0 00-3-3.7c-1-.3-2-.5-3.4-.5a24.7 24.7 0 00-7.4 1l-.6-4c.6-.3 1.8-.6 3.4-.9 1.5-.2 3.2-.3 5-.3zm26.5 28.6h-4.9v-26.4A37.9 37.9 0 01739 337l-1 4.4a20.4 20.4 0 00-6.5-.8c-2.5 0-5 .3-7.5 1v23zm51.2 0v-27a19 19 0 016.7-1.5c1.2 0 2.3.2 3.3.6 1 .3 1.9.8 2.6 1.5a8.6 8.6 0 015.5-2 6.4 6.4 0 015 2.2c.7.6 1.2 1.5 1.6 2.6.4 1 .6 2.3.6 3.8v19.8H796v-20c0-1.4-.3-2.5-1-3.2a3 3 0 00-2.3-1.2c-.5 0-1 .1-1.5.4-.5.2-1 .6-1.5 1.1.3 1 .4 2 .4 3v9.1h-4.5v-9c0-1.5-.2-2.6-.7-3.4-.4-.8-1.3-1.2-2.5-1.2a8 8 0 00-2.7.6v23.8h-4.5zM818 361a41.3 41.3 0 005.8-.4v-8.3a21.6 21.6 0 00-7.9-.4c-.9.1-1.7.4-2.3.7a5 5 0 00-1.7 1.5c-.5.5-.7 1.3-.7 2.1 0 1.8.6 3 1.8 3.8 1.3.7 3 1 5 1zm-.5-25c2.1 0 3.9.3 5.3.9a9 9 0 013.4 2.1c.9 1 1.5 2 1.9 3.4.3 1.3.5 2.7.5 4.3v17.4l-4.6.7a40 40 0 01-10.3 0c-1.4-.2-2.7-.7-3.8-1.3-1.1-.7-2-1.6-2.7-2.8-.7-1.1-1-2.6-1-4.4a7.4 7.4 0 013.7-6.7c1.1-.7 2.4-1.2 3.8-1.5a25.2 25.2 0 0110 .2V347c0-.8 0-1.6-.2-2.4a5.2 5.2 0 00-3-3.7c-1-.3-2-.5-3.4-.5a24.7 24.7 0 00-7.4 1l-.6-4c.6-.3 1.8-.6 3.4-.9 1.5-.2 3.2-.3 5-.3zm29.5 13.3a51.6 51.6 0 017.7 7 76 76 0 016.7 8.3h-5.9a52.5 52.5 0 00-13.6-13.4v13.4h-5v-40.8l5-.8v25.4l6.6-5.7c2.2-2 4.2-4 6-6h5.8c-1.7 2-3.8 4.2-6.2 6.3l-7.1 6.3zm31.2-13.2a11 11 0 018.7 3.5c2 2.3 3.1 5.9 3.1 10.6v1.8h-20c.3 2.9 1.2 5 3 6.6 1.6 1.5 4 2.2 7.1 2.2 1.8 0 3.3-.1 4.5-.4a13 13 0 002.8-1l.7 4.3a23.6 23.6 0 01-8.5 1.6c-2.4 0-4.6-.4-6.4-1.2-1.8-.7-3.3-1.7-4.5-3a12.4 12.4 0 01-2.7-4.6 18 18 0 01-.9-5.8c0-2.5.4-4.6 1.1-6.5a12.4 12.4 0 017.2-7.3c1.6-.5 3.2-.8 4.8-.8zm-8 11.9H885a8 8 0 00-1.9-5.6 6.3 6.3 0 00-5-2.1 7.3 7.3 0 00-5.5 2.4c-.7.7-1.2 1.5-1.6 2.4-.4 1-.7 1.9-.8 2.9zm48.2-11.3V364l-4.3.9c-1.7.3-3.8.5-6.2.5a13 13 0 01-5.3-1 8.7 8.7 0 01-3.4-2.6c-1-1.1-1.5-2.5-1.9-4a23 23 0 01-.5-5.2v-15.7h4.9v14.6c0 3.5.5 5.9 1.5 7.3 1 1.5 2.8 2.2 5.2 2.2a21.5 21.5 0 005-.5v-23.6h5zm26.8 14c0-3.2-.8-5.7-2.3-7.5a7.4 7.4 0 00-6-2.7 22.3 22.3 0 00-5 .6v17.6c.6.5 1.4 1 2.5 1.4 1 .5 2.2.7 3.4.7a6.6 6.6 0 005.7-3c.6-.8 1-1.9 1.3-3 .3-1.3.4-2.6.4-4zm5 0c0 2.1-.2 4-.7 5.9-.6 1.8-1.3 3.3-2.4 4.6a10.7 10.7 0 01-8.7 4c-1.5 0-2.8-.1-4-.5-1-.4-2-.8-2.5-1.2v11h-5v-37a43.4 43.4 0 0110-1.4c2 0 3.9.4 5.5 1 1.7.7 3 1.7 4.2 3 1.2 1.2 2 2.8 2.7 4.6a18 18 0 011 6zM47.7 418.4H73v4.2H62.8v32.9h-5v-33H47.8v-4.1zm36.9 37h-5v-40.6l5-.9v14.2l2.7-.8a16.6 16.6 0 018.2.7c1.5.6 2.6 1.5 3.4 2.6.9 1.1 1.5 2.5 1.8 4 .4 1.6.6 3.3.6 5.2v15.7h-5v-14.6c0-3.5-.4-6-1.4-7.3-1-1.5-2.7-2.2-5.1-2.2a13.8 13.8 0 00-5.2 1v23zm36.3-28.4a11 11 0 018.7 3.5c2 2.3 3 5.9 3 10.7v1.7h-19.9c.2 2.9 1.2 5 2.9 6.6 1.7 1.5 4 2.2 7.1 2.2 1.8 0 3.3-.1 4.5-.4a13 13 0 002.9-1l.6 4.3a23.6 23.6 0 01-8.5 1.6c-2.4 0-4.5-.4-6.3-1.2-1.8-.7-3.4-1.7-4.6-3a12.4 12.4 0 01-2.7-4.6 18 18 0 01-.9-5.8c0-2.4.4-4.6 1.2-6.4a12.4 12.4 0 017.2-7.3c1.5-.6 3.1-1 4.8-1zm-8 11.9h14.7a8 8 0 00-1.9-5.6 6.3 6.3 0 00-4.9-2.1 7.3 7.3 0 00-5.6 2.4 10.2 10.2 0 00-2.4 5.3zm72.7 17.3c-1.7 0-3.2-.3-4.4-.8-1.1-.4-2-1.2-2.7-2.1-.7-1-1.2-2.2-1.5-3.6-.2-1.4-.4-3-.4-5v-26.3h-8v-4.2h13v30.6c0 1.4 0 2.5.2 3.4.2.9.5 1.6.9 2.1.3.5.8 1 1.4 1.1.5.2 1.2.3 2 .3a12 12 0 005.5-1.3l.7 4.2a15.7 15.7 0 01-6.7 1.6zm22.3-32.9a3.8 3.8 0 01-3.9-4c0-1.2.4-2.2 1.2-3 .7-.6 1.6-1 2.7-1 1 0 2 .4 2.7 1a4 4 0 011.1 3 4 4 0 01-1 3c-.8.7-1.7 1-2.8 1zm-1.3 21.5v-13h-8v-4.1h13v17c0 2.8.3 4.7 1 5.6.8 1 2 1.4 3.5 1.4a11.7 11.7 0 005.5-1.3l.7 4.2a15.7 15.7 0 01-6.6 1.6c-1.8 0-3.2-.3-4.4-.8-1.2-.4-2-1.2-2.8-2.1-.7-1-1.2-2.2-1.5-3.6-.2-1.4-.4-3-.4-5zm39 11.4c-1.7 0-3.2-.3-4.4-.8-1.1-.4-2-1.2-2.7-2.1-.7-1-1.2-2.2-1.5-3.6-.2-1.4-.4-3-.4-5v-26.3h-8v-4.2h13v30.6c0 1.4 0 2.5.2 3.4.2.9.5 1.6.9 2.1.3.5.8 1 1.4 1.1.5.2 1.2.3 2 .3a12 12 0 005.5-1.3l.7 4.2a15.7 15.7 0 01-6.7 1.6zm11.9 8.5l.9-4 1.5.5 1.9.2c2 0 3.4-.5 4.6-1.3 1-.9 2-2.3 3-4.2a146.6 146.6 0 01-11.2-28.2h5.4a143.8 143.8 0 008 22.5 173.6 173.6 0 006.2-22.5h5.2a219 219 0 01-9.4 28.6c-.6 1.6-1.4 3-2.2 4.2-.7 1.1-1.6 2-2.5 2.9a9 9 0 01-3.1 1.6 13.4 13.4 0 01-8.3-.3zm70.4-41.4a3.8 3.8 0 01-3.9-4c0-1.2.4-2.2 1.2-3 .7-.6 1.6-1 2.7-1 1 0 2 .4 2.7 1a4 4 0 011.1 3 4 4 0 01-1 3c-.8.7-1.7 1-2.8 1zm-1.3 21.5v-13h-8v-4.1h13v17c0 2.8.3 4.7 1 5.6.8 1 2 1.4 3.5 1.4a11.7 11.7 0 005.5-1.3l.7 4.2a15.7 15.7 0 01-6.6 1.6c-1.8 0-3.2-.3-4.4-.8-1.2-.4-2-1.2-2.8-2.1-.7-1-1.2-2.2-1.5-3.6-.2-1.4-.4-3-.4-5zm23 10.7v-27A51.7 51.7 0 01360 427c3.7 0 6.5 1 8.4 2.8 1.9 2 2.9 5 2.9 9.3v16.3h-5V440c0-1.8-.1-3.3-.4-4.4-.4-1.1-.8-2-1.4-2.6-.6-.6-1.3-1-2.1-1.3-.8-.2-1.7-.4-2.7-.4a23.1 23.1 0 00-5.1.6v23.5h-5zm70.3-36.5v8.7h11.8v4h-11.8v13c0 1.5.1 2.6.3 3.5.2.9.5 1.6 1 2.1s1 1 1.8 1.1a13.6 13.6 0 006.1 0l2.5-1 .7 4.2-2.6 1c-1.3.4-2.8.6-4.6.6-2 0-3.7-.3-5-.8a6.7 6.7 0 01-3.2-2.1c-.7-1-1.2-2.2-1.5-3.6-.3-1.4-.4-3-.4-5v-13H409v-4h5.9v-7.8l5-.9zm24.7 36.5h-5v-40.7l5-.9v14.2l2.7-.8a16.6 16.6 0 018.2.7c1.4.6 2.6 1.5 3.4 2.6.8 1.1 1.4 2.5 1.8 4 .4 1.6.5 3.3.5 5.2v15.7h-4.9v-14.6c0-3.5-.5-6-1.4-7.3-1-1.5-2.7-2.2-5.2-2.2a13.8 13.8 0 00-5.1 1v23zm36.3-28.5a11 11 0 018.7 3.5c2 2.3 3 5.9 3 10.7v1.7h-19.9c.2 2.9 1.2 5 2.9 6.6 1.7 1.5 4 2.2 7.1 2.2 1.8 0 3.3-.1 4.5-.4a13 13 0 002.8-1l.7 4.3a23.6 23.6 0 01-8.5 1.6c-2.4 0-4.5-.4-6.3-1.2-1.9-.7-3.4-1.7-4.6-3a12.4 12.4 0 01-2.7-4.6 18 18 0 01-.9-5.8c0-2.4.4-4.6 1.2-6.4a12.4 12.4 0 017.2-7.3c1.5-.6 3.1-1 4.8-1zm-8 11.9h14.7a8 8 0 00-1.9-5.6 6.3 6.3 0 00-4.9-2.1 7.3 7.3 0 00-5.6 2.4 10.2 10.2 0 00-2.4 5.3zm75.5-11.2h5.1a97.4 97.4 0 01-5.3 15 148 148 0 01-5.8 12.8H538a170.3 170.3 0 01-10.8-27.8h5.4a145.4 145.4 0 007.8 22 97.8 97.8 0 004.3-10.6 228.9 228.9 0 003.8-11.4zm22.2 24.3a41.3 41.3 0 005.8-.5v-8.2a21.6 21.6 0 00-7.9-.4c-.9 0-1.6.3-2.3.7a5 5 0 00-1.7 1.4c-.4.5-.7 1.3-.7 2.2 0 1.8.7 3 1.9 3.7 1.2.7 2.8 1 5 1zm-.5-25c2.1 0 3.9.3 5.3.8a9 9 0 013.4 2.1c1 1 1.5 2 1.9 3.4.4 1.3.5 2.8.5 4.3V455l-4.5.7a40 40 0 01-10.3 0c-1.5-.2-2.8-.7-3.9-1.3-1.1-.7-2-1.6-2.7-2.7-.7-1.2-1-2.7-1-4.5a7.4 7.4 0 013.8-6.7c1-.7 2.3-1.2 3.7-1.5a25.2 25.2 0 0110 .2V438c0-.9 0-1.7-.2-2.5s-.5-1.5-1-2.1a5.2 5.2 0 00-2-1.5c-1-.4-2-.6-3.4-.6a24.7 24.7 0 00-7.4 1l-.6-4a33.8 33.8 0 018.5-1.2zm35.5 29.2c-1.8 0-3.2-.3-4.4-.8-1.1-.4-2-1.2-2.7-2.1-.7-1-1.2-2.2-1.5-3.6-.3-1.4-.4-3-.4-5v-26.3h-8v-4.2h13v30.6c0 1.4 0 2.5.2 3.4.2.9.4 1.6.8 2.1s.9 1 1.4 1.1c.6.2 1.3.3 2 .3a12 12 0 005.6-1.3l.7 4.2a15.7 15.7 0 01-6.7 1.6zm30 0c-1.8 0-3.2-.3-4.4-.8-1.1-.4-2-1.2-2.7-2.1-.7-1-1.2-2.2-1.5-3.6-.3-1.4-.4-3-.4-5v-26.3h-8v-4.2h13v30.6c0 1.4 0 2.5.2 3.4.2.9.4 1.6.8 2.1s.9 1 1.4 1.1c.6.2 1.3.3 2 .3a12 12 0 005.6-1.3l.7 4.2a15.7 15.7 0 01-6.7 1.6zm25.3-29.2a11 11 0 018.7 3.5c2 2.3 3 5.9 3 10.7v1.7h-19.9c.2 2.9 1.1 5 2.8 6.6 1.7 1.5 4.1 2.2 7.2 2.2 1.8 0 3.3-.1 4.5-.4a13 13 0 002.8-1l.7 4.3a23.6 23.6 0 01-8.5 1.6c-2.4 0-4.5-.4-6.4-1.2-1.8-.7-3.3-1.7-4.5-3a12.4 12.4 0 01-2.7-4.6 18 18 0 01-.9-5.8c0-2.4.4-4.6 1.2-6.4a12.4 12.4 0 017.2-7.3c1.5-.6 3.1-1 4.8-1zm-8 11.9h14.7a8 8 0 00-1.9-5.6 6.3 6.3 0 00-5-2.1 7.3 7.3 0 00-5.5 2.4 10.2 10.2 0 00-2.4 5.3zm24.6 25.8l.9-4c.3.2.8.4 1.5.5l1.8.2c2 0 3.5-.5 4.6-1.3 1.1-.9 2.1-2.3 3-4.2a146.6 146.6 0 01-11.1-28.2h5.4a143.8 143.8 0 008 22.5 173.6 173.6 0 006.2-22.5h5.2a219 219 0 01-9.4 28.6c-.7 1.6-1.4 3-2.2 4.2-.8 1.1-1.6 2-2.5 2.9a9 9 0 01-3.1 1.6 13.4 13.4 0 01-8.3-.3zm70.4-41.4a3.8 3.8 0 01-3.9-4c0-1.2.4-2.2 1.1-3 .8-.6 1.7-1 2.8-1 1 0 2 .4 2.7 1a4 4 0 011 3 4 4 0 01-1 3c-.8.7-1.7 1-2.8 1zm-1.3 21.5v-13h-8v-4.1h13v17c0 2.8.3 4.7 1 5.6.8 1 2 1.4 3.5 1.4a11.7 11.7 0 005.5-1.3l.7 4.2a15.7 15.7 0 01-6.6 1.6c-1.8 0-3.3-.3-4.4-.8-1.2-.4-2.1-1.2-2.8-2.1-.7-1-1.2-2.2-1.5-3.6-.3-1.4-.4-3-.4-5zm39.8 3.7a3 3 0 00-1.3-2.4c-.8-.7-1.8-1.2-3-1.7l-4-1.4c-1.5-.5-2.8-1-4-1.7-1.2-.7-2.2-1.5-3-2.5a6 6 0 01-1.3-4 7 7 0 012.7-5.6c1.9-1.5 4.7-2.2 8.6-2.2a35 35 0 018.9 1.2l-1 4.4-1.3-.5a16.8 16.8 0 00-4.2-.8l-2.4-.1c-4.3 0-6.4 1.2-6.4 3.5 0 .9.4 1.6 1.2 2.2l3 1.6 4.1 1.4a23 23 0 014 1.9 11 11 0 013.1 2.6 6 6 0 011.2 3.8c0 2.6-1 4.5-2.9 5.9-2 1.4-5 2-9.3 2a27 27 0 01-9.8-1.9l1-4.5c1.3.7 2.8 1.2 4.3 1.6 1.6.4 3.2.7 5 .7 4.5 0 6.8-1.2 6.8-3.5zm53.5-29.5v8.7h11.7v4H840v13c0 1.5 0 2.6.3 3.5.2.9.5 1.6 1 2.1.4.5 1 1 1.7 1.1a13.6 13.6 0 006.1 0l2.6-1 .7 4.2-2.7 1c-1.2.4-2.7.6-4.5.6-2 0-3.8-.3-5.1-.8a6.7 6.7 0 01-3-2.1c-.8-1-1.3-2.2-1.6-3.6-.3-1.4-.4-3-.4-5v-13h-6v-4h6v-7.8l4.9-.9zm28 4.3a3.8 3.8 0 01-3.9-4c0-1.2.4-2.2 1.1-3 .8-.6 1.7-1 2.7-1 1.1 0 2 .4 2.8 1a4 4 0 011 3 4 4 0 01-1 3c-.8.7-1.7 1-2.8 1zm-1.3 21.5v-13h-8v-4.1h12.9v17c0 2.8.4 4.7 1.1 5.6.8 1 2 1.4 3.5 1.4a11.7 11.7 0 005.5-1.3l.7 4.2a15.7 15.7 0 01-6.7 1.6c-1.7 0-3.2-.3-4.3-.8-1.2-.4-2.1-1.2-2.8-2.1-.7-1-1.2-2.2-1.5-3.6-.3-1.4-.4-3-.4-5zm23 10.7v-27a51.7 51.7 0 0110.3-1.4c3.8 0 6.6 1 8.5 2.8 1.9 2 2.8 5 2.8 9.3v16.3h-4.9V440c0-1.8-.2-3.3-.5-4.4-.3-1.1-.8-2-1.3-2.6-.6-.6-1.3-1-2.1-1.3-.9-.2-1.7-.4-2.7-.4a23.1 23.1 0 00-5.2.6v23.5h-5zm27.9 9.2l.9-4c.3.2.8.4 1.5.5l1.8.2c2 0 3.5-.5 4.6-1.3 1.1-.9 2.1-2.3 3-4.2a146.6 146.6 0 01-11.1-28.2h5.4a143.8 143.8 0 007.9 22.5 173.6 173.6 0 006.3-22.5h5.2a219 219 0 01-9.4 28.6c-.7 1.6-1.4 3-2.2 4.2-.8 1.1-1.6 2-2.5 2.9a9 9 0 01-3.2 1.6 13.4 13.4 0 01-8.2-.3z" style="white-space:pre"/>
  <path fill="#909090" d="M881.6 495.7h-2.8v-.6l1-.2v-6.2l-1-.1v-.7h6v1.9h-1v-1h-3v2.6h2.8v.9h-2.8v2.6l.8.2v.6zm6 .1c-.4 0-1 0-1.3-.3-.4-.3-.7-.6-.9-1-.2-.5-.3-1-.3-1.6v-.1c0-.6 0-1.1.3-1.6a2.4 2.4 0 012.3-1.4c.5 0 1 .1 1.4.4.4.2.7.6.9 1 .2.5.3 1 .3 1.6 0 .7-.1 1.2-.3 1.6-.2.5-.5.8-1 1-.3.3-.8.4-1.3.4zm0-.8c.4 0 .7 0 1-.3.2-.1.3-.4.5-.7l.1-1.1v-.1l-.1-1.1c-.2-.3-.3-.6-.6-.8-.2-.2-.5-.3-.8-.3-.4 0-.6.1-.9.3l-.5.8-.2 1v.2l.2 1c.1.4.3.7.5.8.3.2.5.3.9.3zm6.3.7h-2.8v-.6l.9-.2v-4.1l-.9-.2v-.7h1.8v.9c.3-.3.5-.6.8-.7a2 2 0 011-.3c.6 0 1.1.2 1.5.6.3.3.5.9.5 1.7v2.8l.9.2v.6h-2.8v-.6l.8-.2v-2.8c0-.5 0-.9-.3-1.1-.2-.2-.5-.3-.9-.3-.3 0-.6 0-.8.2l-.6.6v3.4l1 .2v.6zm6.2.1c-.4 0-.7-.1-1-.4-.2-.2-.4-.6-.4-1.2v-3.5h-.9v-.8h1v-1.4h1v1.4h1.3v.8h-1.3v3.5c0 .3 0 .5.2.7l.4.2h.4l.4-.1.1.6a4.9 4.9 0 01-1.2.2zm3.4 0h-1.1v-1.1h1v1zm0-4.8h-1.1v-1h1v1zm7.2 4.8c-.6 0-1 0-1.5-.3-.4-.2-.7-.5-1-.9-.2-.4-.4-.8-.4-1.4v-4.5l-.8-.1v-.7h2.8v.7l-.9.1v4.5c0 .4 0 .7.2 1l.6.6 1 .2c.3 0 .6 0 .9-.2.3-.1.5-.3.6-.6.2-.3.3-.6.3-1v-4.5l-1-.1v-.7h2.9v.7l-.9.1v4.5c0 .6-.1 1-.3 1.5l-1 .8-1.5.3zm7.6 0c-.4 0-.8 0-1-.2-.3-.1-.5-.3-.7-.6l-.1.7h-1v-7.5l-.8-.2v-.6h2v3.2l.6-.6a2 2 0 011-.2c.4 0 .8.1 1.2.4l.8 1 .2 1.7v.1c0 .6 0 1-.3 1.5-.1.4-.4.8-.7 1a2 2 0 01-1.2.3zm-.3-.8c.5 0 .9-.2 1.1-.5.2-.4.4-.9.4-1.5 0-.5 0-1-.2-1.2-.1-.4-.3-.6-.5-.8-.2-.2-.5-.3-.8-.3-.3 0-.6 0-.9.2l-.5.6v2.6l.6.7.8.2zm5.9.8c-.7 0-1.1-.2-1.5-.6-.4-.4-.5-1-.5-1.8v-2.6l-.7-.2v-.7h1.7v3.5c0 .6.1 1 .3 1.2.2.3.5.4.8.4.4 0 .7 0 1-.2l.5-.7v-3.3l-.7-.2v-.7h1.8v5l.7.2v.6h-1.7v-.8a2 2 0 01-.7.7 2 2 0 01-1 .2zm7 0H928v-.7l.9-.2v-4.1l-.9-.2v-.7h1.8v.9c.3-.3.5-.6.8-.7a2 2 0 011-.3c.6 0 1.1.2 1.5.6.3.3.5.9.5 1.7v2.8l.9.2v.6h-2.8v-.6l.8-.2v-2.8c0-.5 0-.9-.3-1.1-.2-.2-.5-.3-.9-.3-.3 0-.6 0-.8.2l-.6.6v3.4l1 .2v.6zm6.1 0c-.4 0-.7-.1-1-.4-.2-.2-.4-.6-.4-1.2v-3.5h-.9v-.8h1v-1.4h1v1.4h1.3v.8h-1.3v3.5c0 .3 0 .5.2.7l.4.2h.4l.4-.1.1.6a4.9 4.9 0 01-1.2.2zm4.5 0c-.7 0-1.2-.2-1.5-.6-.4-.4-.5-1-.5-1.8v-2.6l-.7-.2v-.7h1.7v3.5c0 .6.1 1 .3 1.2.2.3.5.4.8.4.4 0 .7 0 1-.2l.5-.7v-3.3l-.7-.2v-.7h1.8v5l.7.2v.6h-1.7v-.8a2 2 0 01-.7.7 2 2 0 01-1 .2zm9.6 0h-2.8v-.7l.9-.2v-4.1l-.9-.2v-.7h1.9v.8l.7-.7 1-.2c.4 0 .8.1 1 .3.3.2.6.4.7.8l.7-.8c.3-.2.7-.3 1-.3.7 0 1.1.2 1.5.6.3.4.5 1 .5 1.9v2.6l.9.2v.6h-2.8v-.6l.8-.2v-2.7c0-.5 0-1-.3-1.2-.2-.2-.5-.3-.8-.3-.4 0-.7.1-1 .4-.2.2-.3.5-.3 1v2.8l.9.2v.6h-2.9v-.6l1-.2v-2.7c0-.5-.2-.9-.4-1.1-.2-.3-.5-.4-.9-.4-.3 0-.6 0-.8.2l-.4.5v3.5l.8.2v.6zm10.4 0c-.5 0-1 0-1.4-.3-.4-.3-.7-.6-.9-1-.2-.5-.3-1-.3-1.6v-.1c0-.6 0-1.1.3-1.6a2.4 2.4 0 012.3-1.4c.5 0 1 .1 1.4.4.4.2.7.6.9 1 .2.5.3 1 .3 1.6 0 .7-.1 1.2-.3 1.6-.2.5-.5.8-1 1-.3.3-.8.4-1.3.4zm0-.8c.3 0 .6 0 .8-.3.3-.1.4-.4.6-.7l.1-1.1v-.1l-.1-1.1c-.2-.3-.3-.6-.6-.8-.2-.2-.5-.3-.8-.3-.4 0-.6.1-.9.3l-.5.8-.2 1v.2l.2 1c.1.4.3.7.5.8.3.2.5.3.9.3zm6.2.7H965v-.6l.9-.2v-4.1l-.9-.2v-.7h1.8v.9c.3-.3.5-.6.8-.7a2 2 0 011-.3c.6 0 1.1.2 1.5.6.3.3.5.9.5 1.7v2.8l.9.2v.6h-2.8v-.6l.8-.2v-2.8c0-.5 0-.9-.3-1.1-.2-.2-.5-.3-.9-.3-.3 0-.6 0-.8.2l-.6.6v3.4l1 .2v.6zm7 .1c-.6 0-1 0-1.4-.3l-1-1c-.1-.5-.3-1-.3-1.6v-.1c0-.6.2-1.1.4-1.6a2.4 2.4 0 012.2-1.4c.6 0 1 .1 1.4.4.4.2.7.6 1 1 .1.5.3 1 .3 1.6 0 .7-.2 1.2-.4 1.6-.2.5-.5.8-.9 1-.4.3-.8.4-1.4.4zm0-.8c.3 0 .6 0 .8-.3.2-.1.4-.4.5-.7l.2-1.1v-.1c0-.4 0-.8-.2-1.1l-.5-.8c-.2-.2-.5-.3-.9-.3-.3 0-.6.1-.8.3l-.5.8-.2 1v.2c0 .4 0 .8.2 1 0 .4.3.7.5.8.2.2.5.3.9.3z" style="white-space:pre"/>
</svg>