<svg width="600" height="249" viewBox="0 0 600 249" fill="none" xmlns="http://www.w3.org/2000/svg" xmlns:xlink="http://www.w3.org/1999/xlink">
  <defs>
    <symbol id="pinger">
      <circle cx="20" cy="20" r="5" class="pinger"></circle>
    </symbol>

  
  
    <style>
    @import url('https://cdn.statically.io/gh/sitepoint-editors/design4/336ac2ad/i.css'); /* <-- MUST BE LOADED FIRST!! */
    .showInteractive {
    display: none;
    } 
.evenodd{fill-rule:evenodd;clip-rule:evenodd}.label-text{fill:#000;white-space:pre;font-family:Roboto,sans-serif;font-size:12px;letter-spacing:0}.label-text:hover{font-weight:600}.pinger{fill:none}a:link .pinger{stroke:0;stroke-opacity:0;stroke:#1e90ff}a:hover .pinger{stroke:#1e90ff;-webkit-animation:kaboom 1.6s linear infinite;animation:kaboom 1.6s linear infinite}@-webkit-keyframes kaboom{0%{stroke-width:0;stroke-opacity:1}90%{stroke-width:15.5px;stroke-opacity:.5}100%{stroke-width:15.5px;stroke-opacity:0}}@keyframes kaboom{0%{stroke-width:0;stroke-opacity:1}90%{stroke-width:15.5px;stroke-opacity:.5}100%{stroke-width:15.5px;stroke-opacity:0}}
    </style>
    </defs>
  <g>
    <path d="M600 0H0v249h600V0z" fill="#fff"></path>
    <g class="evenodd" fill="#C4C4C4">
      <path d="M604 25H0v-1h604v1zM604 134H0v-1h604v1zM604 108H0v-1h604v1zM604 56H0v-1h604v1z"></path>
    </g>
    <path d="M80.8 80.1H54.1a232.133 232.133 0 00-4.9 12.7 37.612 37.612 0 00-1.3 6.5c0 1.9.6 3.2 1.8 3.9 1.2.7 3.2 1 6 1v3.8H31.4v-3.8c1.5-.2 2.8-.5 3.9-.8a9 9 0 005.1-3.7c.7-1 1.3-2.2 1.9-3.6l26-65.1h4.3l22.7 56.4c1.5 3.7 2.9 6.7 4 9 1.1 2.2 2.2 3.9 3.3 5 1 1.1 2.2 1.9 3.4 2.2 1.3.3 2.8.5 4.5.5v3.9H77.9v-3.9c3.5 0 6-.3 7.3-1 1.3-.7 2-1.8 2-3.3a14.599 14.599 0 00-1.2-5.9l-1.1-3-4.1-10.8zm-24.7-5h22.8L67.8 45.6 56.1 75.1zm124.2.9c0-2.5-.4-4.7-1.1-6.8a15.304 15.304 0 00-7.8-9c-1.8-.9-3.8-1.3-5.8-1.3a13.198 13.198 0 00-11.4 6.2c-1.4 2-2.4 4.3-3.1 7.1a37.093 37.093 0 000 18.7c.7 2.8 1.7 5.2 3 7.2 1.5 2 3.1 3.4 5 4.5 2 1 4.2 1.6 6.6 1.6 2.7 0 5.2-.6 7.4-1.9 2.2-1.3 3.8-3 5-5.4 1.4-3 2.2-7 2.2-12.1V76zm.3 24.8h-.4c-2.4 3-4.8 5-7.3 6.3a19.505 19.505 0 01-9 1.9 24.796 24.796 0 01-18.2-7.4 26.703 26.703 0 01-7-19.4 29.9 29.9 0 017.5-20 26.003 26.003 0 018.2-6c3-1.5 6.5-2.2 10-2.2a25.6 25.6 0 0118.8 8.1l4.4-6.9h2.5V117c0 2.8 0 5 .2 6.6.2 1.6.6 2.8 1.3 3.7.7.9 1.7 1.4 3 1.7 1.5.3 3.4.4 5.8.5v3.5h-30.5v-3.5c2 0 3.8-.3 5.2-.7a5.996 5.996 0 003.3-1.9c.8-.9 1.3-2 1.7-3.6.3-1.5.5-3.3.5-5.6v-16.9zM245.5 71c0-2.7 0-4.9-.2-6.4a6.995 6.995 0 00-1.1-3.6 3.799 3.799 0 00-2.5-1.7c-1-.3-2.6-.6-4.5-.8V55h18v30.7l.2 9.3c.1 2.4.3 4.2.5 5.4.1.9.3 1.6.6 2.1s.8.9 1.4 1.2c.6.3 1.4.5 2.3.6l3.8.1v3.5l-16.5 1.2-1.1-12h-.4a25.7 25.7 0 01-8.8 9.1 20.51 20.51 0 01-9.107 2.811 20.51 20.51 0 01-9.393-1.611c-2.6-1-4.6-2.5-6-4.3-1-1.5-1.9-3.5-2.4-6.1-.5-2.6-.7-6-.7-10.1V71c0-2.7 0-4.9-.2-6.4a6.995 6.995 0 00-1.1-3.6 3.799 3.799 0 00-2.5-1.7c-1-.3-2.6-.6-4.5-.8V55h18v27.3c0 7.3 1 12.5 2.6 15.8a8.702 8.702 0 008.2 4.9c5.9 0 10.4-3.8 13.7-11.5a23.023 23.023 0 001.3-4.4c.37-2.078.505-4.192.4-6.3V71zM289 92.1c0 2.6 0 4.7.3 6.3a8.996 8.996 0 001.4 3.7c.6.9 1.6 1.5 2.8 1.8 1.2.3 2.8.5 4.8.6v3.5h-28.7v-3.5c2 0 3.6-.3 4.9-.6a6.002 6.002 0 002.9-1.8c.7-.9 1.2-2 1.4-3.5.2-1.5.4-3.5.4-5.8V80c-.036-4.907-.27-9.811-.7-14.7-.4-1.5-1.1-2.6-2.3-3.1-1.2-.6-3.5-.9-6.8-.9v-3.5L289 54v38.1zm-11.5-58.4a5.99 5.99 0 011.8-4.4 6.005 6.005 0 014.4-1.8 6.004 6.004 0 014.4 1.8 5.99 5.99 0 011.8 4.4 5.99 5.99 0 01-1.8 4.4 5.995 5.995 0 01-4.4 1.8 6.004 6.004 0 01-4.4-1.8 5.99 5.99 0 01-1.8-4.4zm73.4 66c-2.4 3-5.5 5.2-9.3 6.9a31.398 31.398 0 01-12.3 2.4 24.995 24.995 0 01-9.8-1.9A23.205 23.205 0 01306.9 93a34.304 34.304 0 01.3-22.6A24.206 24.206 0 01321.6 56a33.3 33.3 0 0124 .5c1.6.7 2.8 1.7 3.7 2.8.8 1 1.3 2.2 1.3 3.5 0 1.3-.5 2.4-1.3 3.1-1 .7-2.1 1.1-3.6 1.1-1.2 0-2.2-.2-3-.7-.8-.5-1.9-1.7-3.1-3.4a12.497 12.497 0 00-4-3.2c-1.1-.7-2.7-1-4.6-1-4.8 0-8.4 1.8-10.8 5.5-2.4 3.7-3.6 9-3.6 16.2 0 7.7 1.3 13.5 4 17.5s6.7 5.9 11.9 5.9c2.8 0 5.4-.5 7.9-1.6 2.4-1.1 5-3 7.5-5.4l3 2.9zm37.8 4.8a22.025 22.025 0 004.5-.3c.8-.2 1.3-.5 1.3-.8 0-.5-.6-1.5-1.6-2.9l-4-5-10.5-12.8-3.7 3.5v5.9c0 2.6 0 4.7.3 6.3a10.005 10.005 0 001.3 3.7c.6.9 1.6 1.5 2.8 1.8 1.2.3 2.9.5 4.9.6v3.5h-28.4v-3.5c2 0 3.6-.3 4.8-.6 1.2-.3 2.2-1 2.9-1.8.7-.9 1.2-2 1.5-3.5.2-1.5.4-3.4.4-5.8V50.9c0-5 0-8.9-.2-11.5 0-2.6-.4-4.4-1-5.3-.6-1-1.6-1.5-3-1.6-1.4-.2-3.3-.3-5.6-.3v-3.4l19.3-3.8v54.9l9.3-9.1 6.7-6.6c1.4-1.5 2.2-2.6 2.2-3.3 0-.7-.7-1.3-2.1-1.7-1.4-.5-3.4-.7-6-.7V55h26v3.5c-1.3 0-2.4 0-3.3.2-1 .1-1.9.4-2.7.8a39.589 39.589 0 00-5.8 4.3l-14.4 12.8L404.4 99l2.5 2.8a11.202 11.202 0 004.8 2.5l3.3.2v3.5h-26.3v-3.5zm108.8-12.7c0 2.6.1 4.7.3 6.4.2 1.6.6 2.9 1.1 3.8.6.9 1.3 1.5 2.2 1.8 1 .3 2.2.5 3.7.5v3.7h-25.7v-3.7c2 0 3.4-.2 4.5-.5 1.2-.3 2-1 2.6-1.8.6-.9 1-2 1.2-3.6.2-1.5.3-3.5.3-5.8V80a182.94 182.94 0 00-.7-14.6c-.3-1.6-1-2.7-2.3-3.2-1.2-.6-3.4-.9-6.8-.9h-12.5v30.6c0 2.5.1 4.5.3 6.2.3 1.6.7 2.9 1.3 3.8.7 1 1.6 1.6 2.6 2 1.1.4 2.5.6 4.2.6v3.5h-25.4v-3.5c1.7 0 3-.1 4-.4 1-.3 1.8-.8 2.3-1.7.6-.9 1-2 1-3.6.2-1.5.3-3.6.3-6.1V61.3h-11.3v-4.7H456v-7.2c0-7.7 2.2-13.6 6.6-17.9 4.4-4.3 10.7-6.5 18.7-6.5 4.8 0 8.6.6 11.5 1.8 3 1.1 4.5 2.6 4.5 4.5 0 1.3-.4 2.5-1.3 3.4a3.996 3.996 0 01-3 1.3c-.9 0-1.8-.2-2.8-.7-1-.5-2.2-1.2-3.8-2.3a35.45 35.45 0 00-4.7-2.6c-.6-.3-1.2-.4-1.9-.5a20.399 20.399 0 00-7.6.7 7.702 7.702 0 00-3.8 2.9c-1 1.4-1.7 3.3-2.3 5.8-.4 2.5-.7 5.6-.7 9.5v7.8h16l16.1-2.6v37.8zm49.7-25c1.6-2 2.4-3.7 2.4-5.1 0-2.1-2-3.2-6-3.2V55h22v3.5a10.5 10.5 0 00-6.1 1.7c-1 .6-2 1.4-3 2.5l-3.1 3.8L543 79.6l13.3 17.5c2 2.7 4 4.7 5.7 5.8a11 11 0 005.7 1.6v3.5h-26.6v-3.5c2.4 0 4-.2 5-.5 1-.4 1.4-1.1 1.4-2.2a39.443 39.443 0 00-3.7-6l-7-9-8.5 10.8a5.604 5.604 0 00-1.5 3.6 2.993 2.993 0 001.2 2.4c.8.6 2 .9 3.8.9v3.5h-23v-3.5a18.989 18.989 0 004.2-.4c1.2-.3 2.3-.7 3.4-1.4s2.2-1.6 3.4-2.8l4-4.5L534 82.9 520.8 64c-1.6-2.1-3-3.6-4.2-4.3a8.799 8.799 0 00-4.8-1.2V55h24.6v3.5c-1.8 0-3.1.2-4 .7-.7.4-1.1 1-1.1 1.7 0 1 .6 2.4 1.9 4.2l7.2 10.5 6.8-8.8z" fill="#000"></path>
    <path class="evenodd" d="M11.1 113l2.9-5 2.9 5h-2.4v9h-1v-9h-2.4z" fill="#AC6970"></path>
    <path d="M15.5 136v1.2c0 .3.1.5.3.7l.5.3 1 .1v.7h-5.5v-.7h1l.5-.4.3-.6v-7.7c.017-.867.017-1.733 0-2.6 0-.3-.2-.5-.5-.5l-1.4-.1v-.7a11.706 11.706 0 003.8-.7v11z" fill="#9A565A"></path>
    <path class="evenodd" d="M13.6 137.3l-.3.6v.1l-.5.2-1 .1v.7h5.5v-.7a5.063 5.063 0 01-1 0l-.4-.3-.1-.1c-.2-.2-.2-.4-.3-.7V125a15.5 15.5 0 01-3.8.7v.7a7.373 7.373 0 011.6.2c.2 0 .3.2.3.4V137.3zm-.2-12.8l1.7-.5 1.4-.4V136a8.777 8.777 0 000 1.1l.9.1h1v2.7h-7.6v-2.7h1c.266.027.534.027.8 0v-9.9h-1.9v-2.6h1l1.7-.3v.1z" fill="#FEFEFE"></path>
    <path class="evenodd" d="M103.1 113l2.9-5 2.9 5h-2.4v9h-1v-9h-2.4z" fill="#AC6970"></path>
    <path d="M101.6 134.9l6.3-10h.6v10h.8l.5-.3c.2-.1.2-.3.3-.5v-.8h.7v4h-.7v-.8c0-.2-.1-.4-.3-.5a.804.804 0 00-.5-.2 5.087 5.087 0 00-.8 0v1.3l.2.7c.1.2.3.3.4.3l.8.1v.7h-5v-.7h.9l.5-.4.3-.6v-1.5h-5v-1 .2zm5-6.4l-4.1 6.4h4.2v-6.4h-.1z" fill="#9A565A"></path>
    <path class="evenodd" d="M100.6 134.6l6.7-10.6h2.2v8.3h2.3v6h-1v1.7h-7v-2.7h1.7l.1-.2v-.3h-5v-2.2zm1 .3v.9h5v.4c.02.333.02.667 0 1 0 .3-.1.5-.3.7v.1l-.5.2a4.006 4.006 0 01-1 .1v.7h5v-.7a3.412 3.412 0 01-.7 0 .796.796 0 01-.4-.4l-.2-.7a6.314 6.314 0 010-1.1v-.4c.336-.001.671.032 1 .1l.3.2c.2.1.2.3.3.5v.8h.7v-4h-.7v.8c0 .2-.1.4-.3.5l-.3.2h-.2l-.8.1v-10h-.6l-6.3 10zm5-6.4l-4.1 6.4h4.2v-6.4h-.1zm-2.3 5.4l1.4-2.2v2.2h-1.4z" fill="#FEFEFE"></path>
    <path class="evenodd" d="M402.1 113l2.9-5 2.9 5h-2.4v9h-1v-9h-2.4z" fill="#AC6970"></path>
    <path d="M400.4 136v1.2l.3.7.6.3 1 .1v.7h-5.5v-.7h1l.5-.4.3-.6v-7.7a66.28 66.28 0 000-2.6c0-.3-.3-.5-.6-.5l-1.3-.1v-.7a11.69 11.69 0 003.7-.7v11zM411.2 135.1c0-1-.2-1.7-.6-2.3a2 2 0 00-1.7-.8 2.801 2.801 0 01-1.2.3.997.997 0 01-.6-.1.495.495 0 01-.2-.5c0-.1 0-.3.2-.3l.5-.2h.6l.5.2c.7 0 1.2-.3 1.6-.8a4 4 0 00.6-2.3c0-1.7-.7-2.6-2.1-2.6-.7 0-1.2.2-1.5.5-.4.3-.6.6-.6 1.2 0 .4.1.7.4 1 .2.2.5.3 1 .3l-.5.5-.9.2-.7-.1-.6-.4-.3-.6a1.996 1.996 0 01.1-1.8c.2-.4.4-.6.8-.8.3-.3.7-.4 1.2-.6a6.497 6.497 0 013.3 0l1.4.7.8 1c.2.4.3.9.3 1.4 0 .4 0 .8-.2 1.1l-.5 1-1 .7-1 .5v.1l1.3.5 1 .8a3.6 3.6 0 01.5 4c-.2.4-.6.8-1 1.2l-1.5.8a6.008 6.008 0 01-2 .3 4.903 4.903 0 01-3-.9c-.4-.3-.7-.6-.9-1a2.591 2.591 0 01-.1-2.2c0-.3.2-.5.4-.7l.6-.5a1.9 1.9 0 011.8 0c.2.2.4.4.4.6-.4 0-.8.2-1 .5-.4.3-.5.7-.5 1.3 0 .6.2 1 .6 1.5.5.3 1 .5 1.8.5s1.4-.2 1.8-.8c.5-.5.7-1.3.7-2.4z" fill="#9A565A"></path>
    <path class="evenodd" d="M398.6 137.3l-.3.6-.1.1-.5.2-1 .1v.7h5.6v-.7a5.063 5.063 0 01-1 0l-.5-.3v-.1c-.2-.2-.3-.4-.3-.7V125c-.72.22-1.456.387-2.2.5l-1.6.2v.7a7.363 7.363 0 011.5.2c.2 0 .3.2.4.4V137.3zm-.3-12.8l1.8-.5 1.3-.4V136c.01.368.044.736.1 1.1l.8.1h1v2.7h-7.5v-2.7h1c.266.027.534.027.8 0v-9.9h-2v-2.6h1l1.7-.3v.1zm11.5 9a.903.903 0 00-.7-.5 4.018 4.018 0 01-1 .3c.4.2.6.5.7 1l.3 1.2h-1.3c-.1 0-.2 0-.3.2-.1 0-.2.2-.2.6 0 .3.1.5.3.7.2.2.5.3 1 .3.6 0 1-.1 1.2-.4.2-.3.4-.8.4-1.8 0-.8-.2-1.4-.4-1.7v.1zm.7 4a2.01 2.01 0 01-.6.5c-.3.2-.7.3-1.2.3-.6 0-1 0-1.4-.3l-.4-.2a1.991 1.991 0 01-.6-1.5 1.797 1.797 0 01.6-1.5c.282-.225.64-.333 1-.3l-.5-.6a1.705 1.705 0 00-1-.2c-.2 0-.5 0-.8.2l-.6.5a2.398 2.398 0 00-.6 1.6c0 .4.1.9.3 1.3.2.4.5.7 1 1a4.8 4.8 0 001.3.6c.5.2 1 .3 1.7.3a6.222 6.222 0 001.9-.3c.6-.2 1-.5 1.5-.8.4-.4.8-.8 1-1.3.2-.4.4-1 .4-1.5a3.501 3.501 0 00-1-2.4 4.805 4.805 0 00-2.2-1.3v-.1c.239-.085.473-.185.7-.3.2 0 .3 0 .4-.2h.1a3.393 3.393 0 001.5-2.8 2.804 2.804 0 00-1.1-2.4c-.4-.2-.8-.5-1.4-.6-.5-.2-1.1-.2-1.7-.2a6.511 6.511 0 00-2 .2l-.8.5c-.4.2-.6.4-.8.8a1.997 1.997 0 00-.1 1.8l-1 .3a2.992 2.992 0 01.2-2.7 4.8 4.8 0 012.6-1.8 7.495 7.495 0 014 .1l1.6.8a3.9 3.9 0 011.3 4.7l-.8 1.2-.5.6.8.8a4.503 4.503 0 01.7 5c-.3.6-.7 1.1-1.3 1.5-.5.5-1 .8-1.8 1-.707.25-1.45.385-2.2.4a5.898 5.898 0 01-3.7-1v-.1c-.5-.4-.9-.8-1.2-1.3a3.59 3.59 0 01-.2-3l.6-1a2.804 2.804 0 012-1c-.2-.3-.3-.7-.3-1a1.405 1.405 0 01.8-1.4c-.4 0-.7 0-1-.2h-.1l-.9-.6c-.3-.3-.4-.6-.6-1l1-.3.3.6.6.4.7.1h.1c.3 0 .5 0 .8-.2l.4-.5a1.298 1.298 0 01-.9-.3c-.3-.3-.4-.6-.4-1 0-.6.2-1 .6-1.2.032-.035.065-.068.1-.1.4-.3.8-.4 1.4-.4.5 0 1 .2 1.3.4.5.4.8 1.1.8 2.2a4.103 4.103 0 01-.6 2.3l-.1.1a1.995 1.995 0 01-.4.4c-.29.209-.643.315-1 .3a4.06 4.06 0 00-.6-.1H407c-.2.1-.2.3-.2.4 0 .2 0 .4.2.5l.6.1c.199.03.401.03.6 0 .212-.074.414-.175.6-.3h.4a2 2 0 01.8.4c.187.106.356.241.5.4.4.6.6 1.4.6 2.3 0 1-.2 1.9-.7 2.4h.1zm-1.6-7c.2-.1.4-.2.6-.5.2-.4.4-1 .4-1.7 0-.8-.2-1.1-.3-1.3-.1-.1-.3-.3-.8-.3s-.8.1-1 .3v.7h1.5l-.3 1.3c-.2.5-.6.9-1 1.1l-.2.1c.34.026.676.093 1 .2l.1.1z" fill="#FEFEFE"></path>
    <path class="evenodd" d="M343.1 107l2.9-5 2.9 5h-2.4v15h-1v-15h-2.4z" fill="#AC6970"></path>
    <path d="M343.4 136v1.2l.4.7.5.3 1 .1v.7h-5.5v-.7h1l.5-.4.3-.6v-7.7a66.28 66.28 0 000-2.6c0-.3-.2-.5-.5-.5l-1.4-.1v-.7a11.69 11.69 0 003.7-.7v11zM351.5 136v1.2c0 .3.2.5.3.7l.6.3 1 .1v.7h-5.6v-.7h1l.6-.4.2-.6.1-1v-6.7a66.28 66.28 0 000-2.6c-.1-.3-.3-.5-.6-.5l-1.4-.1v-.7a11.704 11.704 0 003.8-.7v11z" fill="#9A565A"></path>
    <path class="evenodd" d="M341.6 137.3l-.3.6-.1.1-.4.2-1 .1v.7h5.5v-.7a5.063 5.063 0 01-1 0l-.4-.3-.1-.1c-.2-.2-.3-.4-.3-.7V125c-.72.22-1.456.387-2.2.5l-1.6.2v.7a7.377 7.377 0 011.6.2c.1 0 .3.2.3.4V137.3zm-.2-12.8l1.7-.5 1.3-.4V136c.01.368.044.736.1 1.1l.8.1h1v2.7h-7.5v-2.7h1c.266.027.534.027.8 0v-9.9h-1.9v-2.6h1l1.7-.3v.1zm8.2 12.8c0 .2 0 .4-.2.6l-.2.1-.4.2-1 .1v.7h5.5v-.7a5.063 5.063 0 01-1 0l-.4-.3-.1-.1-.3-.7V125c-.688.216-1.389.383-2.1.5h-.1l-1.6.2v.7a7.377 7.377 0 011.6.2c.2 0 .3.2.3.4v.9l.1 1.7v7.6l-.1.1zm-.2-12.8l1.7-.5 1.4-.4V136a8.777 8.777 0 000 1.1l.9.1h1v2.7h-7.6v-2.7h1c.266.027.534.027.8 0v-.2l.1-.9V127.3h-2v-2.6h1l1.7-.3v.1z" fill="#FEFEFE"></path>
    <path class="evenodd" d="M134 79.1l5 2.9-5 2.9v-2.4h-9v-1h9v-2.4z" fill="#AC6970"></path>
    <path d="M126.5 84.3c0 .7 0 1.3-.3 2l-1 1.5a4.797 4.797 0 01-3.4 1.4 4.002 4.002 0 01-2-.5c-.5-.3-1-.7-1.4-1.3-.4-.5-.7-1.2-1-2a10.3 10.3 0 011.3-8.2 6.003 6.003 0 011.9-1.6c.7-.4 1.4-.6 2.2-.6l1.2.1 1 .4.7.6.2.7c0 .3 0 .5-.3.7a1 1 0 01-.7.2c-.3 0-.6 0-.7-.3a6.918 6.918 0 01-.4-.6l-.5-.7c-.2-.2-.6-.3-1-.3s-.8.1-1.2.4l-.9 1.2c-.3.5-.5 1-.6 1.8l-.2 2.2c.4-.5.8-.9 1.3-1.1.4-.3 1-.4 1.6-.4a4.097 4.097 0 014 2.7l.2 1.7zm-7.2-.4c0 3 .9 4.5 2.5 4.5.9 0 1.5-.3 1.9-1 .4-.6.6-1.6.6-3 0-1.2-.2-2.1-.6-2.7-.4-.7-1-1-1.7-1-.5 0-1 .2-1.4.6-.4.3-.9 1-1.3 1.7v1-.1z" fill="#9A565A"></path>
    <path class="evenodd" d="M123.3 87.8c.2 0 .3-.2.4-.4.4-.6.6-1.6.6-3 0-1.2-.2-2.1-.6-2.7a1.9 1.9 0 00-1.7-1l-1 .2-.4.4-.6.6a7.035 7.035 0 00-.7 1.1v1c0 2 .4 3.3 1.2 4a2 2 0 001.3.4c.6 0 1-.2 1.4-.5h.1v-.1zm-5-.4l-.9-2a10.3 10.3 0 011.3-8.2 6.4 6.4 0 011.9-1.6 4.301 4.301 0 013.4-.5l1 .4.7.6.2.7c0 .3 0 .5-.3.7a1 1 0 01-.7.2c-.3 0-.6 0-.7-.3a6.903 6.903 0 01-.4-.6 2.803 2.803 0 00-.7-.8l-.3-.2h-.5a1.797 1.797 0 00-1.3.5l-.5.6-.3.5a6.907 6.907 0 00-.7 2.5c-.066.497-.099.998-.1 1.5a4.699 4.699 0 011-1l.3-.1a2.999 2.999 0 011.6-.4 4.399 4.399 0 011.7.3c.5.2 1 .5 1.3 1 .4.3.7.8 1 1.4l.2 1.7c0 .7 0 1.3-.3 2l-1 1.5a4.795 4.795 0 01-3.4 1.4 4.005 4.005 0 01-3.4-1.8h-.1zm5.7 2.3a5.6 5.6 0 01-4.6 0c-.7-.5-1.3-1-1.8-1.7-.5-.6-.9-1.4-1.1-2.2a11.31 11.31 0 011.5-9 7.002 7.002 0 012-2c1-.6 1.8-.8 2.8-.8a5.8 5.8 0 012.7.6c.4.2.7.5 1 .9.3.4.4.8.4 1.3a1.897 1.897 0 01-1.218 1.877 1.9 1.9 0 01-.782.123c-.5 0-1.1-.2-1.5-.8a8.084 8.084 0 01-.5-.8l-.3-.4h-.3c-.2 0-.3 0-.5.2-.3.2-.5.4-.7.9l-.5 1.3a5.1 5.1 0 016.5 3 5.8 5.8 0 010 4.4c-.3.7-.7 1.3-1.2 1.9-.6.5-1.2 1-1.9 1.2zm-3.7-6.4c.4-.7.7-1 1-1.3.2-.2.4-.3.7-.3.4 0 .7.2.9.5.2.4.4 1 .4 2.2 0 1.3-.2 2-.5 2.5-.2.3-.4.5-1 .5-.2 0-.4 0-.5-.2-.2 0-.3-.2-.5-.4-.2-.6-.5-1.5-.5-2.9v-.6z" fill="#FEFEFE"></path>
    <g>
      <path class="evenodd" d="M294 36.9l-5-2.9 5-2.9v2.4h9v1h-9v2.4z" fill="#AC6970"></path>
      <path d="M309 38v1.2c0 .3.2.5.3.7l.6.3 1 .1v.7h-5.6v-.7h1l.6-.4.2-.6.1-1v-6.7a66.28 66.28 0 000-2.6c-.1-.3-.3-.4-.6-.5l-1.4-.1v-.7a11.698 11.698 0 003.8-.7v11zM318.5 27a4.002 4.002 0 012 .5c.7.4 1.2.9 1.7 1.5.5.7.9 1.5 1.2 2.3a8.994 8.994 0 01-1.2 7.8c-.5.7-1 1.2-1.7 1.5a4.198 4.198 0 01-4.1 0c-.7-.3-1.2-.8-1.7-1.5a7.802 7.802 0 01-1.6-5c0-1 .2-1.9.4-2.8a8.008 8.008 0 011.2-2.3c.5-.6 1-1.1 1.7-1.5a4 4 0 012-.5h.1zm0 13.3c.4 0 .8 0 1.2-.3.4-.2.7-.5 1-1 .2-.4.4-1 .5-1.8.2-.8.2-1.8.2-3s0-2.2-.2-3l-.5-2c-.3-.5-.6-.8-1-1-.4-.3-.8-.4-1.2-.4-.5 0-1 .1-1.3.3-.4.3-.7.6-1 1.1a7.013 7.013 0 00-.5 2 19.723 19.723 0 000 6c.1.7.3 1.4.6 1.8.2.5.5.8.9 1 .4.2.8.3 1.3.3z" fill="#9A565A"></path>
      <path class="evenodd" d="M307.1 39.3c0 .2 0 .4-.2.6l-.2.1-.4.2-1 .1v.7h5.5v-.7a5.003 5.003 0 01-1 0l-.4-.3-.1-.1-.3-.7V27c-1.233.39-2.509.626-3.8.7v.7a7.296 7.296 0 011.6.2c.2 0 .3.2.3.4v.9l.1 1.7v7.6l-.1.1zm-.2-12.8l1.7-.5 1.4-.4V38a8.777 8.777 0 000 1.1l.9.1h1V42h-7.6v-2.7h1c.266.027.534.027.8 0V39l.1-.9V29.3a8.968 8.968 0 00-1 0h-1v-2.6h1l1.7-.3v.1zm13.8 1.1c.6.4 1 .9 1.5 1.4.5.7.9 1.5 1.2 2.3a8.994 8.994 0 01-1.2 7.8 5.8 5.8 0 01-2 1.7 4.2 4.2 0 01-4.1-.3c-.5-.4-1-.8-1.4-1.4a7.803 7.803 0 01-1.6-5c0-1 .2-1.9.4-2.8a7.98 7.98 0 011.2-2.3 5.603 5.603 0 012-1.7 4 4 0 013.5 0c.173.089.34.189.5.3zm-3.5.5c-.147.08-.281.182-.4.3l-.5.8a7 7 0 00-.6 2 19.723 19.723 0 000 6c.1.7.3 1.4.6 1.8.148.302.352.573.6.8l.3.2c.4.2.8.3 1.3.3.4 0 .8 0 1.2-.3l.3-.2.1-.1.5-.7c.3-.4.5-1 .6-1.8.2-.8.2-1.8.2-3s0-2.2-.2-3l-.5-2a2.803 2.803 0 00-.7-.8l-.3-.3-1.2-.3c-.5 0-1 .1-1.3.3zm-.5 8.9c0 .7.3 1.2.4 1.6.2.3.4.5.6.5l.8.2c.3 0 .5 0 .7-.2.2 0 .4-.2.6-.5l.4-1.6c.2-.7.2-1.6.2-2.8 0-1.2 0-2.1-.2-2.9 0-.7-.2-1.3-.4-1.6-.2-.4-.4-.6-.6-.7l-.7-.2c-.3 0-.6 0-.8.2-.2.1-.4.3-.5.7-.2.3-.4.9-.5 1.6a18.717 18.717 0 000 5.7zm6.3 2.8c-.5.7-1.2 1.3-2 1.7a5.203 5.203 0 01-5.1 0c-.8-.4-1.4-1-2-1.7a9.898 9.898 0 01-1.8-5.6c0-1.1.2-2.2.5-3.2a8.988 8.988 0 011.3-2.5c.6-.8 1.2-1.4 2-1.8a5 5 0 015.1 0c.8.4 1.5 1 2 1.8.6.7 1 1.6 1.3 2.5a10.002 10.002 0 01-1.3 8.7v.1z" fill="#FEFEFE"></path>
    </g>
    <g>
      <path class="evenodd" d="M380 36.9l-5-2.9 5-2.9v2.4h9v1h-9v2.4z" fill="#AC6970"></path>
      <path d="M395 38v1.2c0 .3.2.5.3.7l.6.3 1 .1v.7h-5.6v-.7h1l.6-.4.2-.6.1-1v-6.7a66.28 66.28 0 000-2.6c-.1-.3-.3-.5-.6-.5l-1.4-.1v-.7a11.698 11.698 0 003.8-.7v11zM401.6 39.2h4.3l.6-.4.4-.6.4-1h.7l-.7 3.8h-8.4v-.6a63.007 63.007 0 005.5-5.7 6.396 6.396 0 001.3-4c0-.8-.2-1.6-.6-2.1-.5-.5-1-.8-1.8-.8-.7 0-1.3.2-1.8.7-.4.5-.7 1-.7 1.8 0 .7.2 1.2.6 1.6.3.3.8.5 1.4.5 0 .3-.2.6-.4.7-.3.2-.6.3-1 .3a2.202 2.202 0 01-1.7-.8 2.804 2.804 0 01-.6-2c0-.5.1-1 .3-1.4a4.402 4.402 0 012.3-2 5.4 5.4 0 013.6 0l1.4.8c.4.4.7.8.9 1.3.2.4.3 1 .3 1.5 0 .8-.2 1.5-.5 2.2-.3.8-.8 1.5-1.4 2.1a43.207 43.207 0 01-4.5 4v.1h.1z" fill="#9A565A"></path>
      <path class="evenodd" d="M393.1 39.3c0 .2 0 .4-.2.6l-.2.1-.4.2-1 .1v.7h5.5v-.7a5.003 5.003 0 01-1 0l-.4-.3-.1-.1-.3-.7V27a15.42 15.42 0 01-2.1.5h-.1l-1.6.2v.7a7.296 7.296 0 011.6.2c.2 0 .3.2.3.4v.9l.1 1.7v7.6l-.1.1zm-.2-12.8l1.7-.5 1.4-.4V38a8.777 8.777 0 000 1.1l.9.1h1V42h-7.6v-2.7h1c.266.027.534.027.8 0V39l.1-.9V29.3a8.968 8.968 0 00-1 0h-1v-2.6h1l1.7-.3v.1zm7.6 12.5c-.527.474-1.06.941-1.6 1.4v.6h8.4l.7-3.8h-.7a8.003 8.003 0 01-.6 1.4l-.2.2-.6.4h-4.3l1-.8.1-.2a40.872 40.872 0 003.3-3c.6-.7 1-1.4 1.4-2.2.3-.7.5-1.4.5-2.2l-.3-1.5c-.2-.5-.5-1-1-1.3a4.101 4.101 0 00-2-1 5.5 5.5 0 00-3.6.6 4.1 4.1 0 00-1.6 1.6c-.2.4-.3 1-.3 1.5 0 .4 0 .7.2 1 0 .4.2.7.4 1l.8.5a2.2 2.2 0 001.4.1c.2 0 .3 0 .5-.2.2-.1.4-.4.4-.7-.3 0-.7 0-1-.2l-.4-.3c-.4-.4-.6-1-.6-1.6a2.507 2.507 0 01.8-2l.5-.2a2.5 2.5 0 011.5-.3c.2 0 .5 0 .7.2l.8.6c.4.5.6 1.3.6 2.2a6.396 6.396 0 01-1.3 4 20.482 20.482 0 01-3.4 3.7l-.5.5zm1.7-9.8c-.2.2-.4.6-.4 1.1 0 .5.2.7.3.9.1.1.3.2.7.2h1.3l-.3 1.2c-.1.6-.4 1-.9 1.3-.4.4-1 .5-1.5.5s-1-.1-1.3-.3c-.5-.2-.8-.5-1.1-.8l-.7-1.2a4.6 4.6 0 01.2-3.4 5.5 5.5 0 012.9-2.5 6.4 6.4 0 014.2 0 5 5 0 011.7 1.1c.5.4 1 1 1.2 1.6.2.6.4 1.2.4 2s-.2 1.7-.6 2.6c-.4.8-.9 1.5-1.5 2.3l-2.1 2.1-.4.3h1.5l.2-.4.4-1 .2-.6h2.6l-1 5.8h-10.3v-2l.4-.3a62.072 62.072 0 005.3-5.5l.9-1.8.2-1.6c0-.8-.2-1.3-.4-1.6-.3-.3-.5-.4-1-.4s-.8.1-1 .4h-.1z" fill="#FEFEFE"></path>
    </g>
    <g>
      <path class="evenodd" d="M493 51l-5.5 1.5 1.5-5.6 1.7 1.7 19-19 .7.8-19 19L493 51z" fill="#AC6970"></path>
      <path d="M516 32v1.2c0 .3.2.5.3.7l.6.3 1 .1v.7h-5.6v-.7h1l.6-.4.2-.6.1-1v-6.7a66.28 66.28 0 000-2.6c-.1-.3-.3-.4-.6-.5l-1.4-.1v-.7a11.698 11.698 0 003.8-.7v11zM519.4 30.9l6.3-10h.6v10h.8l.5-.3c.2-.1.2-.3.3-.5v-.8h.7v4h-.7v-.8c0-.2-.1-.4-.3-.5a.8.8 0 00-.5-.2 5.016 5.016 0 00-.8 0v1.3l.2.7c.1.2.3.3.4.3l.8.1v.7h-5v-.7h.9l.5-.4.3-.6v-1.5h-5v-1 .2zm5-6.4l-4.1 6.4h4.2v-6.4h-.1z" fill="#9A565A"></path>
      <path class="evenodd" d="M514.1 33.3c0 .2 0 .4-.2.6l-.2.1-.4.2-1 .1v.7h5.5v-.7a5.003 5.003 0 01-1 0l-.4-.3-.1-.1-.3-.7V21a15.42 15.42 0 01-2.1.5h-.1l-1.6.2v.7a7.296 7.296 0 011.6.2c.2 0 .3.2.3.4v.9l.1 1.7v7.6l-.1.1zm-.2-12.8l1.7-.5 1.4-.4V32a8.777 8.777 0 000 1.1l.9.1h1V36h-7.6v-2.7h1c.266.027.534.027.8 0V33l.1-.9V23.3a8.968 8.968 0 00-1 0h-1v-2.6h1l1.7-.3v.1zm4.5 10L525 20h2.2v8.3h2.3v6h-1V36h-7v-2.7h1.7l.1-.2v-.3h-5v-2.2l.1-.1zm1 .4v.9h5v.4c.02.333.02.667 0 1 0 .3-.1.5-.3.7v.1l-.5.2a4.006 4.006 0 01-1 .1v.7h5v-.7a3.302 3.302 0 01-.7 0 .798.798 0 01-.4-.4l-.2-.7a6.965 6.965 0 010-1.1v-.4c.336-.001.671.033 1 .1l.3.2c.2.1.2.3.3.5v.8h.7v-4h-.7v.8c0 .2-.1.4-.3.5a1.004 1.004 0 01-.3.2h-.2l-.8.1V21h-.6l-6.3 10v-.1zm5-6.4l-4.1 6.4h4.2v-6.4h-.1zm-2.3 5.4l1.4-2.2V30H522l.1-.1z" fill="#FEFEFE"></path>
    </g>
    <g>
      <path class="evenodd" d="M173.5 117.1l5 2.9-5 2.9v-2.4H156v-1h17.5v-2.4z" fill="#AC6970"></path>
      <path d="M154.5 115H150c-.3 0-.5 0-.7.2-.2 0-.3.2-.4.4l-.4.8-.2.7h-.7l1.2-5h.8l-.1.2v.3c0 .2 0 .4.3.4l1 .1h5.3v.4a381.08 381.08 0 01-3.2 7.4 274.069 274.069 0 00-2.4 5.8l-.4.4h-.4c-.2 0-.4 0-.6-.2a.804.804 0 01-.2-.5v-.3l.2-.4c.223-.651.49-1.286.8-1.9.727-1.404 1.46-2.804 2.2-4.2l2.4-4.7v.1z" fill="#9A565A"></path>
      <path class="evenodd" d="M155 115.9l.3-.6.5-1.2.1-.2.2-.4v-.4h-6.3l-.2-.1v-.1l-.1-.3a2.61 2.61 0 010-.5h-.7l-1.2 5h.7l.2-.7.4-.8.1-.2.3-.2.7-.2h4.5l-2.4 4.6a978.115 978.115 0 00-3.2 6.5v.3c0 .2 0 .4.2.5l.6.3.4-.1.4-.4.5-.8.6-1.3c.9-2.254 1.766-4.521 2.6-6.8l.5-1.1.4-.8h-.1zm1 .4l-.8 1.9a103.217 103.217 0 00-3.3 8.1l-.5 1-.8.7-1 .2c-.4 0-.8-.2-1.2-.5v-.1c-.3-.3-.5-.7-.5-1.2v-.4l.2-.6.3-.9.6-1.1a598.12 598.12 0 012.2-4.2l1.7-3.3h-2.7l-.4.1v.1l-.3.6-.6 1.4h-2.6l1.8-7h3l-.5 1h6.5v1.8l-1.1 2.4z" fill="#FEFEFE"></path>
    </g>
    <g>
      <path class="evenodd" d="M272 86.2l4.5-3.7 1 5.7-2.2-.8-13.8 37.8-1-.4L274.3 87l-2.2-.8h-.1z" fill="#AC6970"></path>
      <path d="M253 122.8c0-.7.1-1.3.4-1.9a4.796 4.796 0 014.4-3 4.298 4.298 0 013.4 1.7l1 2a10.402 10.402 0 01-.1 5.6 9.018 9.018 0 01-1.3 2.6c-.5.8-1.1 1.3-1.8 1.8-.7.4-1.4.6-2.2.6a5.004 5.004 0 01-2.2-.5l-.7-.6c-.2-.3-.2-.5-.2-.8 0-.2 0-.5.2-.6.2-.2.4-.3.7-.3.4 0 .6.1.8.3l.4.7.5.7c.2.2.5.3 1 .3.4 0 .8-.2 1.1-.5.4-.3.7-.6 1-1.2l.6-1.7.2-2.3a4.002 4.002 0 01-1.3 1.2c-.5.3-1 .4-1.6.4a4.096 4.096 0 01-4-2.7l-.3-1.8zm7.2.4c0-3-.8-4.4-2.5-4.4a1.997 1.997 0 00-1.8 1c-.4.6-.6 1.6-.6 3 0 1.1.2 2 .6 2.7.3.6.9.9 1.6.9.6 0 1-.2 1.5-.5.4-.4.8-1 1.2-1.8v-.9z" fill="#9A565A"></path>
      <path class="evenodd" d="M252.5 120.5a5.798 5.798 0 013-3c.7-.4 1.5-.5 2.3-.5a5.303 5.303 0 014.2 2.1c.5.7.8 1.4 1 2.3.4.9.5 1.8.5 2.8 0 1.2-.2 2.3-.5 3.4-.3 1-.8 2-1.4 2.8-.6.8-1.3 1.5-2.1 2s-1.8.8-2.7.8c-.5 0-1 0-1.5-.2l-1.2-.5c-.4-.2-.8-.5-1-.8-.3-.4-.4-.9-.4-1.4 0-.4.1-1 .5-1.3a2 2 0 011.4-.6c.6 0 1.2.2 1.6.7l.5.8c.083.145.184.28.3.4h.3l.5-.1c.2-.2.5-.5.7-1l.4-1.2c-.5.2-1 .3-1.6.3a5.087 5.087 0 01-3.8-1.6c-.5-.5-.8-1-1-1.7-.3-.7-.5-1.4-.5-2.2 0-.8.2-1.6.5-2.3zm7.5 7.5a6.902 6.902 0 01-1 2.3 3.277 3.277 0 01-.6.6c-.3.3-.7.5-1.1.5a1.992 1.992 0 01-.5 0 1.006 1.006 0 01-.4-.2l-.1-.1a3.008 3.008 0 01-.5-.7l-.4-.7c-.2-.2-.4-.3-.8-.3a1.003 1.003 0 00-.7.3 1 1 0 00-.2.6c0 .3 0 .5.2.8l.7.6a4.404 4.404 0 002.2.5 4.306 4.306 0 002.1-.6 5.71 5.71 0 001.9-1.8 8.98 8.98 0 001.2-2.5c.545-1.822.579-3.759.1-5.6-.2-.8-.5-1.4-1-2-.3-.5-.8-1-1.4-1.3a4.704 4.704 0 00-5.2 1 4.797 4.797 0 00-.3 6.6 4.298 4.298 0 003.3 1.3 3.003 3.003 0 001.6-.6c.2 0 .3-.2.4-.3l.6-.7a14.98 14.98 0 01-.1 2.3zm-1-8.8c-.346-.26-.767-.4-1.2-.4-.6 0-1.1.1-1.5.4l-.4.5c-.4.7-.6 1.7-.6 3 0 1.2.2 2.1.6 2.8.2.3.5.6.8.7.25.122.522.19.8.2a2.199 2.199 0 001.5-.5l.5-.6c.273-.376.507-.778.7-1.2v-.9c0-2-.4-3.3-1.1-4h-.1zm.2 4.7v-.7c0-1.4-.2-2.3-.5-2.8-.1-.3-.3-.4-.4-.5l-.6-.1c-.5 0-.8.1-1 .5-.2.4-.4 1.1-.4 2.4 0 1.2.2 1.8.4 2.2.2.4.4.5.8.5s.6 0 .9-.3l.8-1.2z" fill="#FEFEFE"></path>
    </g>
    <g>
      <path d="M69.2 135.1c0-1-.2-1.7-.6-2.3a1.998 1.998 0 00-1.7-.8 2.799 2.799 0 01-1.2.3.997.997 0 01-.6-.1.496.496 0 01-.3-.5c0-.1.1-.3.3-.3l.5-.2h.6l.5.2c.7 0 1.2-.3 1.6-.8.428-.688.638-1.49.6-2.3 0-1.7-.7-2.6-2.2-2.6-.6 0-1 .2-1.5.5-.3.3-.5.6-.5 1.2 0 .4.1.7.4 1 .2.2.5.3.9.3 0 .2-.2.4-.5.5l-.8.2-.7-.1-.6-.4-.4-.6a2 2 0 01.1-1.8c.3-.4.5-.6.9-.8.3-.3.7-.4 1.2-.6a6.497 6.497 0 013.3 0l1.4.7.8 1c.2.4.3.9.3 1.4 0 .4 0 .8-.2 1.1-.1.4-.3.7-.6 1l-.8.7-1 .5v.1l1.2.5 1 .8a3.602 3.602 0 01.5 4l-1 1.2-1.5.8a6.008 6.008 0 01-2 .3 4.903 4.903 0 01-3-.9c-.4-.3-.7-.6-.9-1a2.6 2.6 0 01-.2-2.2l.5-.7.6-.5a1.9 1.9 0 011.7 0c.3.2.5.4.5.6-.4 0-.8.2-1 .5-.4.3-.5.7-.5 1.3 0 .6.2 1 .6 1.5.5.3 1 .5 1.7.5.9 0 1.5-.2 2-.8.4-.5.6-1.3.6-2.4z" fill="#9A565A"></path>
      <path class="evenodd" d="M64.1 87.5l2.9-5 2.9 5h-2.4V122h-1V87.5h-2.4z" fill="#AC6970"></path>
      <path class="evenodd" d="M67.8 133.4a.998.998 0 00-.7-.4 4.013 4.013 0 01-1 .3c.4.2.6.5.7 1l.3 1.2h-1.3c-.1 0-.2 0-.3.2-.1 0-.2.2-.2.6 0 .3 0 .5.3.7.2.2.5.3 1 .3.6 0 1-.1 1.1-.4.3-.3.5-.8.5-1.8 0-.8-.2-1.4-.4-1.7zm.7 4.1c-.165.204-.369.374-.6.5-.3.2-.7.3-1.2.3-.6 0-1 0-1.4-.3l-.4-.2a1.997 1.997 0 01-.6-1.5 1.799 1.799 0 01.6-1.5 1.4 1.4 0 011-.3l-.6-.6a1.698 1.698 0 00-.9-.2c-.2 0-.5 0-.8.2l-.6.5a2.4 2.4 0 00-.6 1.6c0 .4 0 .9.3 1.3.2.4.5.7.9 1 .4.264.84.466 1.3.6.6.2 1.1.3 1.7.3a6.311 6.311 0 002-.3c.6-.2 1-.5 1.5-.8l1-1.3c.2-.4.3-1 .3-1.5a3.5 3.5 0 00-.8-2.4l-1-.8a4.706 4.706 0 00-1.2-.5v-.1c.205-.089.406-.189.6-.3a3.599 3.599 0 001.8-1.9 3.002 3.002 0 000-2.5l.8-.4c.3.5.4 1.1.4 1.8 0 .5 0 1-.3 1.5l-.7-.3.7.3c-.1.4-.4.9-.7 1.2l-.6.6 1 .8.7 1.3-.8.4.8-.4c.2.6.3 1.1.3 1.7 0 .7-.1 1.4-.4 2-.3.6-.7 1.1-1.3 1.5-.5.5-1.1.8-1.8 1-.707.25-1.45.385-2.2.4a5.897 5.897 0 01-3.7-1v-.1c-.5-.4-.9-.8-1.2-1.3a3.598 3.598 0 01-.2-3c.1-.4.4-.8.6-1 .3-.4.6-.7 1-.8.3-.2.7-.3 1-.3-.2-.2-.4-.6-.4-1 0-.5.3-1 .8-1.2l.5.8c-.2.1-.3.3-.3.4 0 .2.1.4.3.5l.6.1c.199.03.401.03.6 0 .21-.079.411-.179.6-.3h.4c.294.071.567.208.8.4.187.106.356.241.5.4.4.6.6 1.4.6 2.3 0 1-.2 1.9-.7 2.4zm-1.2-6.2c.2 0 .3 0 .4-.2.231-.126.435-.296.6-.5v-.2c.4-.5.6-1.3.6-2.1 0-1-.3-1.8-.8-2.2-.4-.2-.8-.4-1.4-.4-.5 0-1 .1-1.3.4h-.1c-.4.4-.6.8-.6 1.3 0 .4.1.7.4 1a1.201 1.201 0 00.9.3c0 .2-.2.4-.5.5l-.7.2-.8-.1-.6-.4-.4-.6a2 2 0 01.1-1.8c.3-.4.5-.6.9-.8a3.607 3.607 0 011.2-.6 6.498 6.498 0 013.3 0l1.4.7.8 1 1-.4-1.2-1.4c-.5-.3-1-.6-1.7-.8-.6-.2-1.3-.2-2-.2s-1.3 0-1.9.2l-1.5.6c-.4.3-.8.7-1 1.1h-.1a2.999 2.999 0 00-.2 2.7l1-.3-1 .3c.2.4.3.7.6 1l.9.6 1.1.2h-.1l.5 1 .5-.2h.5c.205.052.405.119.6.2h.6v-.1zm-.4-.9c.2 0 .4-.1.5-.4.3-.4.5-1 .5-1.7 0-.8-.2-1.1-.3-1.3-.1-.1-.3-.3-.9-.3-.4 0-.7.1-.8.3-.1 0-.2.1-.2.4v.3h1.6L67 129c-.1.5-.5.9-.9 1.1l-.2.1c.34.026.676.093 1 .2z" fill="#FEFEFE"></path>
    </g>
    <g>
      <path class="evenodd" d="M21.1 40l2.9-5 2.9 5h-2.4v17.5h-1V40h-2.4zM26.9 100.5l-2.9 5-2.9-5h2.4V83h1v17.5h2.4z" fill="#AC6970"></path>
      <path d="M22.5 75.2H27l.5-.4c.2-.1.4-.3.5-.6l.4-1h.7l-.7 3.8H20v-.6a62.993 62.993 0 005.5-5.7 6.4 6.4 0 001.3-4c0-.8-.2-1.6-.7-2.1-.4-.5-1-.8-1.8-.8-.7 0-1.3.2-1.7.7-.5.5-.7 1-.7 1.8 0 .7.2 1.2.5 1.6.4.3.9.5 1.5.5 0 .3-.2.6-.5.7-.2.2-.5.3-1 .3a2.2 2.2 0 01-1.6-.8 2.8 2.8 0 01-.6-2c0-.5 0-1 .3-1.4.2-.5.5-.9 1-1.2l1.3-.8a5.4 5.4 0 013.6 0l1.3.8 1 1.3.2 1.5c0 .8-.1 1.5-.5 2.2-.3.8-.7 1.5-1.3 2.1l-2 2-2.5 2v.1h-.1z" fill="#9A565A"></path>
      <path class="evenodd" d="M21.5 75c-.527.474-1.06.94-1.6 1.4v.6h8.4l.7-3.8h-.7a7.995 7.995 0 01-.6 1.4l-.3.2-.5.4h-4.4a46.405 46.405 0 004.5-4c.6-.7 1-1.4 1.3-2.2.4-.7.5-1.4.5-2.2 0-.5 0-1-.3-1.5-.2-.5-.5-1-.9-1.3a4.1 4.1 0 00-2-1 5.5 5.5 0 00-3.6.6 4.2 4.2 0 00-1.6 1.6c-.2.4-.3 1-.3 1.5l.1 1 .5 1 .7.5a2.2 2.2 0 001.5.1c.2 0 .3 0 .4-.2.3-.1.4-.4.5-.7-.4 0-.7 0-1-.2l-.5-.3c-.3-.4-.5-1-.5-1.6a2.5 2.5 0 01.8-2l.4-.2a2.5 2.5 0 011.5-.3c.3 0 .5 0 .8.2.3.1.5.3.7.6.5.5.7 1.3.7 2.2a6.4 6.4 0 01-1.3 4 20.5 20.5 0 01-3.4 3.7l-.5.5zm1.6-7.8c.1.1.3.2.7.2H25l-.2 1.2c-.1.6-.5 1-.9 1.3-.5.4-1 .5-1.5.5s-1-.1-1.4-.3l-1-.8c-.3-.4-.6-.7-.7-1.2a4.6 4.6 0 01.2-3.4 5.5 5.5 0 012.9-2.5 6.4 6.4 0 014.2 0 5 5 0 011.7 1.1c.5.4.9 1 1.1 1.6.3.6.4 1.2.4 2s-.2 1.7-.6 2.6c-.3.8-.8 1.5-1.4 2.3l-2.2 2.1-.3.3h1.5l.2-.4.3-1 .3-.6H30L29 78H19v-2l.3-.3a62.115 62.115 0 005.3-5.5l1-1.8.2-1.6c0-.8-.2-1.3-.5-1.6-.2-.3-.5-.4-1-.4-.4 0-.8.1-1 .4-.2.2-.4.6-.4 1.1 0 .5.1.7.3.9h-.1z" fill="#FEFEFE"></path>
      <path class="evenodd" d="M15 32h-1v-1h1v1zm4.1 0h-2v-1h2v1zm4 0h-2v-1h2v1zm4.2 0h-2v-1h2v1zm4 0h-2v-1h2v1zm4.1 0h-2v-1h2v1zm4.1 0h-2v-1h2v1zm4.1 0h-2v-1h2v1zm4 0h-2v-1h2v1zm4.2 0h-2v-1h2v1zm4 0h-2v-1h2v1zm4.1 0h-2v-1h2v1zm3.1 0h-1v-1h1v1z" fill="#9A565A"></path>
    </g>
    <g>
      <path class="evenodd" d="M575.1 62l2.9-5 2.9 5h-2.4v10.3h-1V62h-2.4zM580.9 102l-2.9 5-2.9-5h2.4V91.7h1V102h2.4z" fill="#AC6970"></path>
      <path d="M574.8 86v1.2l.4.7.5.3 1 .1v.7h-5.5v-.7h1l.5-.4.3-.6v-7.7a66.28 66.28 0 000-2.6c0-.3-.2-.5-.5-.5l-1.4-.1v-.7a11.696 11.696 0 003.7-.7v11zM581.5 80.3l.8-.2c.323-.109.66-.176 1-.2.6 0 1 .1 1.5.3.5.2.9.5 1.2.9l.8 1.3a5.002 5.002 0 01-1.2 5.3c-.5.5-1 .8-1.7 1a5.3 5.3 0 01-3.5.3 3.995 3.995 0 01-1.1-.5l-.8-.8a1.998 1.998 0 01-.2-1c0-.3 0-.6.2-.8l.7-.2c.2 0 .4 0 .5.2.2.1.3.3.3.5l.2.6c0 .3.2.5.3.7l.5.5.8.2c.5 0 1-.1 1.3-.3l1-1 .5-1.5c.2-.6.2-1.2.2-2 0-1-.1-1.7-.4-2.2-.3-.5-.7-.7-1.4-.7-.5 0-1 .1-1.2.4-.4.3-.6.7-.8 1.3l-.2.4-.3.1c-.2 0-.3-.1-.3-.4v-.1L582 75l.9.2h1.2a5.998 5.998 0 002.4-.3h.1c-.1.7-.5 1.3-1 1.6a3 3 0 01-1.8.6h-1.6l-.8 3.2h.1z" fill="#9A565A"></path>
      <path class="evenodd" d="M573 87.3l-.3.6-.1.1-.4.2-1 .1v.7h5.5v-.7a5.003 5.003 0 01-1 0l-.4-.3-.1-.1c-.2-.2-.3-.4-.3-.7V75c-1.232.394-2.509.63-3.8.7v.7a7.302 7.302 0 011.6.2c.1 0 .3.2.3.4V87.3zm-.2-12.8l1.7-.5 1.3-.4V86c.01.368.044.736.1 1.1l.8.1h.7l-.1-.6c0-.5.1-1 .4-1.4.4-.4 1-.6 1.5-.6.4 0 .9 0 1.2.5.3.2.5.5.6.8l.2.8.1.4.2.1h1.1l.6-.7.4-1.2c.2-.5.2-1 .2-1.7 0-1-.1-1.5-.3-1.8 0-.1-.1-.2-.5-.2-.3 0-.5 0-.6.2a2.007 2.007 0 00-.5.8l-.1.4-.3.4c-.3.3-.6.4-1 .4-.2 0-.6 0-1-.4-.3-.3-.3-.7-.3-1V82l2.2-8.5 1 .4.8.2h1c1.1 0 1.7 0 2-.2l.3-.1 1.4.2-.2 1c-.2 1-.6 1.7-1.3 2.2-.719.54-1.6.822-2.5.8h-.8l-.2.8a4.8 4.8 0 012.3.4c.6.3 1.1.7 1.5 1.1.5.5.8 1 1 1.7.3.6.4 1.3.4 2a6.01 6.01 0 01-1.9 4.3c-.5.6-1.2 1-2 1.3a6.3 6.3 0 01-4 .3h-.1a5.007 5.007 0 01-1.4-.7l-1-1V90h-7.5v-2.7h1c.266.027.534.027.8 0v-10c-.3-.015-.6-.015-.9 0h-1v-2.6h1l1.7-.3v.1zm13.9 11.6a5.001 5.001 0 000-3.7 4.006 4.006 0 00-.7-1.3 3.298 3.298 0 00-1.5-1 3.4 3.4 0 00-2-.1 4 4 0 00-1 .4l.8-3.3h1.6a3 3 0 001.9-.6c.302-.24.542-.548.7-.9.088-.192.155-.393.2-.6h-.1l-1 .2a10.6 10.6 0 01-2.6 0l-.9-.2-2 7.4v.1c0 .3.2.4.4.4h.3v-.3h.1c.041-.131.074-.265.1-.4.135-.285.303-.553.5-.8.112-.154.247-.289.4-.4l.6-.3c.265-.047.535-.047.8 0 .3 0 .6.2.8.3l.3.4c.3.5.4 1.2.4 2.3 0 .7 0 1.3-.2 2-.1.5-.3 1-.6 1.4-.22.397-.528.74-.9 1-.398.216-.847.32-1.3.3-.4 0-.6 0-.8-.2a1.506 1.506 0 01-.5-.5 3.02 3.02 0 01-.3-.7l-.2-.6c0-.2-.1-.4-.3-.5-.1-.2-.3-.2-.5-.2-.3 0-.5 0-.7.2l-.2.8c0 .4 0 .7.3 1 .1.3.4.6.7.8l1 .5h.1c.456.129.927.196 1.4.2a5.399 5.399 0 003.7-1.5c.5-.5.9-1 1.1-1.6h.1z" fill="#FEFEFE"></path>
    </g>
    <g>
      <path class="evenodd" d="M118.9 49.5l-2.9 5-2.9-5h2.4V32h1v17.5h2.4z" fill="#AC6970"></path>
      <path class="evenodd" d="M113.3 23.4v.1c0 .3 0 .4.3.4h.3v-.3h.1c.041-.131.074-.265.1-.4.135-.285.303-.553.5-.8.111-.154.246-.289.4-.4l.6-.3c.265-.047.535-.047.8 0 .3 0 .6.2.8.3l.3.4c.3.5.4 1.2.4 2.3 0 .7 0 1.3-.2 2-.1.5-.3 1-.6 1.4-.22.397-.528.74-.9 1-.398.216-.847.32-1.3.3-.4 0-.6 0-.8-.2a1.596 1.596 0 01-.5-.5 3.022 3.022 0 01-.3-.7l-.2-.6c0-.2-.1-.4-.3-.5-.1-.2-.3-.2-.5-.2-.3 0-.5 0-.7.2l-.2.8c0 .4 0 .7.2 1l.8.8 1 .5h.1c.456.129.927.196 1.4.2a5 5 0 002-.4 5.202 5.202 0 002.8-2.7 4.999 4.999 0 00.2-3.7 3.997 3.997 0 00-.8-1.3 3.298 3.298 0 00-1.5-1 3.4 3.4 0 00-2-.1 4.002 4.002 0 00-1 .3l.8-3.2h1.6a3 3 0 001.8-.6 2.4 2.4 0 00.8-.9c.088-.192.155-.394.2-.6h-.1l-1 .2a10.6 10.6 0 01-2.6 0l-1-.2-1.8 7.4zm3-8.2c-.3 0-.5 0-.7-.2l-1-.4-2.3 8.5v.4c0 .3 0 .7.4 1 .3.3.7.4 1 .4a1.297 1.297 0 001.2-.8l.1-.4.5-.8.6-.2c.4 0 .5.1.5.2.2.3.3.8.3 1.8 0 .6 0 1.2-.2 1.7 0 .5-.2.9-.4 1.2l-.6.6-.8.2c-.1.012-.2.012-.3 0l-.2-.2a1.972 1.972 0 01-.1-.4l-.2-.8c-.1-.3-.3-.6-.6-.8-.3-.4-.8-.5-1.2-.5-.6 0-1 .2-1.4.6-.4.4-.5 1-.5 1.4 0 .5.1 1 .4 1.5.2.4.6.8 1 1v.1l1.4.7 1.7.2a6.3 6.3 0 004.4-1.8 6.005 6.005 0 001.5-6.3c-.2-.6-.5-1.2-1-1.7-.4-.4-.9-.8-1.5-1a4.399 4.399 0 00-2.3-.5l.2-.8h.8a4 4 0 002.5-.8c.7-.5 1-1.2 1.3-2.1l.2-1-1.5-.3-.2.1c-.3.2-.9.3-2 .3h-1v-.1z" fill="#FEFEFE"></path>
      <path d="M114.6 21.3l.8-.2c.323-.109.66-.176 1-.2.6 0 1 .1 1.5.3.5.2.9.5 1.2.9l.8 1.3a5.002 5.002 0 01-1.2 5.3c-.5.5-1 .8-1.7 1a5.3 5.3 0 01-3.5.3 3.995 3.995 0 01-1.1-.5l-.8-.8a1.998 1.998 0 01-.2-1c0-.3 0-.6.2-.8l.7-.2c.2 0 .4 0 .5.2.2.1.3.3.3.5l.2.6c0 .3.2.5.3.7 0 .2.3.4.5.5l.8.2c.5 0 1-.1 1.3-.3l1-1 .5-1.5c.2-.6.2-1.2.2-2 0-1-.1-1.7-.4-2.2-.3-.5-.7-.7-1.4-.7-.5 0-1 .1-1.2.4-.4.3-.6.7-.8 1.3l-.2.4-.3.1c-.2 0-.3-.1-.3-.4v-.1l1.9-7.4.9.2h1.2a5.998 5.998 0 002.4-.3h.1c-.1.7-.5 1.3-1 1.6a3 3 0 01-1.8.6h-1.6l-.8 3.2z" fill="#9A565A"></path>
    </g>
    <g>
      <path class="evenodd" d="M231.9 67.5l-2.9 5-2.9-5h2.4V50h1v17.5h2.4z" fill="#AC6970"></path>
      <path d="M228.8 41.4c-.6.4-1.2.9-1.5 1.5-.4.5-.5 1.1-.5 1.8 0 .8.2 1.5.7 2 .5.4 1.1.7 2 .7.8 0 1.5-.3 2-.7.4-.5.7-1.1.7-2a2.099 2.099 0 00-.5-1.3l-.7-.7-1-.7-1.2-.6zm2.1-1.2c2 1 3 2.4 3 4 0 .5-.2 1-.4 1.6-.2.4-.6.9-1 1.2-.3.4-.8.7-1.4.9a5.6 5.6 0 01-3.5 0l-1.3-.7-1-1a3.002 3.002 0 01-.2-1.4c0-1.5 1-2.8 3-3.7-1.7-1-2.6-2.1-2.6-3.5a3.49 3.49 0 011.2-2.6c.7-.7 1.6-1 2.7-1 1 0 1.8.2 2.5.7.5.3.8.7 1 1.1.3.4.4.9.4 1.3 0 .7-.2 1.2-.6 1.7-.3.6-1 1-1.8 1.4zm-.7-.4c.481-.31.89-.719 1.2-1.2a2.497 2.497 0 00.2-2.3l-.5-.8-.8-.5c-.3-.2-.6-.2-1-.2-.7 0-1.2.2-1.6.5a2.002 2.002 0 00-.6 1.6c0 .4.2.9.5 1.3l1.7 1.2.9.4z" fill="#9A565A"></path>
      <path class="evenodd" d="M231.7 43.4l-.7-.7-1-.7-1.2-.6-.4.3c-.445.32-.819.729-1.1 1.2-.4.5-.5 1.1-.5 1.8 0 .8.2 1.5.7 2 .154.12.322.22.5.3a3 3 0 001.5.4c.5 0 1-.1 1.3-.3a2.3 2.3 0 00.8-.6c.4-.4.6-1 .6-1.7a2.097 2.097 0 00-.5-1.4zm.5 3.9a4.5 4.5 0 01-2.7.9 5.799 5.799 0 01-2.1-.4l-1.1-.6-1-1a3.002 3.002 0 01-.2-1.4c0-1.2.6-2.2 1.8-3 .378-.27.779-.504 1.2-.7a8.622 8.622 0 01-1-.7c-1-.8-1.6-1.7-1.6-2.8a3.49 3.49 0 011.2-2.6l.3-.3a3.901 3.901 0 012.4-.7l1.2.1a4.3 4.3 0 011.3.6c.5.3.8.7 1 1.1.3.4.4.9.4 1.3 0 .7-.2 1.2-.6 1.7a3.599 3.599 0 01-.9.9l-.9.5c.345.18.678.38 1 .6 1.3 1 2 2 2 3.4 0 .5-.2 1-.4 1.6a3.799 3.799 0 01-1.3 1.5zm.6-7a5.002 5.002 0 011.6 5.9 5.3 5.3 0 01-2.9 2.6c-.7.3-1.4.4-2.1.4a5.9 5.9 0 01-3.7-1.2c-.5-.4-.9-.9-1.2-1.4a3.992 3.992 0 01-.4-1.8c0-1.6.8-2.8 2.1-3.8a4.4 4.4 0 01-1.3-5.2l1.1-1.6c1-.8 2.1-1.2 3.4-1.2 1.1 0 2.2.3 3 .9.6.4 1 .9 1.4 1.4.3.6.5 1.2.5 1.8 0 .9-.3 1.6-.8 2.3l-.7.8v.1zm-3.5-1c-.8-.3-1.3-.7-1.7-1.1a2.098 2.098 0 01-.2-2.5l.3-.4a2.296 2.296 0 011.7-.5 2.404 2.404 0 011.7.7l.5.8.2 1c0 .4-.2.9-.4 1.3-.201.381-.472.72-.8 1-.13.073-.264.14-.4.2l-.9-.4v-.1zm.8-.7l-.3-.1c-.8-.4-1.2-.7-1.4-1a1 1 0 01-.3-.6c0-.4.1-.7.3-.8.2-.2.4-.3 1-.3h.5v.1c.2 0 .3.2.4.3l.4.4v.6c0 .3 0 .6-.2.9l-.4.5zm.6 7.3c.3-.2.5-.6.5-1.1v-.4h-.1c0-.1 0-.3-.2-.4l-.5-.5-1-.6-.5-.3-.8.8c-.2.4-.3.8-.3 1.3 0 .6.1 1 .4 1.2.3.3.6.5 1.3.5.6 0 1-.2 1.2-.5z" fill="#FEFEFE"></path>
    </g>
    <a xlink:href="#">
      <text class="label-text" style="white-space: pre;">
      <tspan x="44" y="175">1. Baseline</tspan>
    </text>
      <use class="pinger" transform="matrix(1, 0, 0, 1, -6, 88)" xlink:href="#pinger"></use>
    </a>
    <a xlink:href="#">
      <text class="label-text" style="white-space: pre;">
      <tspan x="44" y="197">2. Cap height</tspan>
    </text>
      <use class="pinger" transform="matrix(1, 0, 0, 1, 4, 12)" xlink:href="#pinger"></use>
      <use class="pinger" transform="matrix(1, 0, 0, 1, 4, 87)" xlink:href="#pinger"></use>
    </a>
    <a xlink:href="#">
      <text class="label-text" style="white-space: pre;">
      <tspan x="44" y="219">3. Crossbar</tspan>
    </text>
      <use class="pinger" transform="matrix(1, 0, 0, 1, 47, 57)" xlink:href="#pinger"></use>
    </a>
    <a xlink:href="#">
      <text class="label-text" style="white-space: pre;">
      <tspan x="150" y="175">4. Serif</tspan>
    </text>
      <use class="pinger" transform="matrix(1, 0, 0, 1, 87, 86)" xlink:href="#pinger"></use>
    </a>
    <a xlink:href="#">
      <text class="label-text" style="white-space: pre;">
      <tspan x="150" y="197">5. Mean line</tspan>
    </text>
      <use class="pinger" transform="matrix(1, 0, 0, 1, 96, 36)" xlink:href="#pinger"></use>
    </a>
    <a xlink:href="#">
      <text class="label-text" style="white-space: pre;">
      <tspan x="150" y="219">6. Bowl</tspan>
    </text>
      <use class="pinger" transform="matrix(1, 0, 0, 1, 129, 62)" xlink:href="#pinger"></use>
    </a>
    <a xlink:href="#">
      <text class="label-text" style="white-space: pre;">
      <tspan x="256" y="175">7. Descender</tspan>
    </text>
      <use class="pinger" transform="matrix(1, 0, 0, 1, 165, 100)" xlink:href="#pinger"></use>
    </a>
    <a xlink:href="#">
      <text class="label-text" style="white-space: pre;">
      <tspan x="256" y="197">8. Counter</tspan>
    </text>
      <use class="pinger" transform="matrix(1, 0, 0, 1, 212, 62)" xlink:href="#pinger"></use>
    </a>
    <a xlink:href="#">
      <text class="label-text" style="white-space: pre;">
      <tspan x="256" y="219">9. Stem</tspan>
    </text>
      <use class="pinger" transform="matrix(1, 0, 0, 1, 264, 62)" xlink:href="#pinger"></use>
    </a>
    <a xlink:href="#">
      <text class="label-text" style="white-space: pre;">
      <tspan x="362" y="175">10. Tittle</tspan>
    </text>
      <use class="pinger" transform="matrix(1, 0, 0, 1, 264, 13.800000190734863)" xlink:href="#pinger"></use>
    </a>
    <a xlink:href="#">
      <text class="label-text" style="white-space: pre;">
      <tspan x="362" y="197">11. Terminal</tspan>
    </text>
      <use class="pinger" transform="matrix(1, 0, 0, 1, 329, 80)" xlink:href="#pinger"></use>
    </a>
    <a xlink:href="#">
      <text class="label-text" style="white-space: pre;">
      <tspan x="362" y="219">12. Ascender</tspan>
    </text>
      <use class="pinger" transform="matrix(1, 0, 0, 1, 349, 13)" xlink:href="#pinger"></use>
    </a>
    <a xlink:href="#">
      <text class="label-text" style="white-space: pre;">
      <tspan x="468" y="175">13. Leg</tspan>
    </text>
      <use class="pinger" transform="matrix(1, 0, 0, 1, 384, 85)" xlink:href="#pinger"></use>
    </a>
    <a xlink:href="#0">
      <text class="label-text" style="white-space: pre;">
      <tspan x="468" y="197">14. Ligature</tspan>
    </text>
      <use class="pinger" transform="matrix(1, 0, 0, 1, 457, 38)" xlink:href="#pinger"></use>
    </a>
    <a xlink:href="#0">
      <text class="label-text" style="white-space: pre;">
      <tspan x="468" y="219">15. x-height</tspan>
    </text>
      <use class="pinger" transform="matrix(1, 0, 0, 1, 557, 36)" xlink:href="#pinger"></use>
      <use class="pinger" transform="matrix(1, 0, 0, 1, 557, 85)" xlink:href="#pinger"></use>
    </a>
  </g>
  <g>

    <a href="#0" class="showInteractive">
      <image x="40" y="0" class="icon" width="35" height="35" href=
"https://cdn.statically.io/gh/sitepoint-editors/design4/71c8429f/images/interactive.svg" />
    </a>
  </g>
</svg>