<svg viewBox="0 0 600 150" fill="none" xmlns="http://www.w3.org/2000/svg">
  <g clip-path="url(#clip0)">
    <rect width="600" height="150" fill="#fff"/>
    <path fill-rule="evenodd" clip-rule="evenodd" d="M604 25H0v-1h604v1z" fill="#C4C4C4"/>
    <path fill-rule="evenodd" clip-rule="evenodd" d="M604 134H0v-1h604v1z" fill="#C4C4C4"/>
    <path fill-rule="evenodd" clip-rule="evenodd" d="M604 108H0v-1h604v1z" fill="#C4C4C4"/>
    <path fill-rule="evenodd" clip-rule="evenodd" d="M604 56H0v-1h604v1z" fill="#C4C4C4"/>
    <path d="M80.8 80.1H54.1a232.1 232.1 0 00-4.9 12.7 37.6 37.6 0 00-1.3 6.5c0 1.9.6 3.2 1.8 3.9 1.2.7 3.2 1 6 1v3.8H31.4v-3.8c1.5-.2 2.8-.5 3.9-.8a9 9 0 005.1-3.7c.7-1 1.3-2.2 1.9-3.6l26-65.1h4.3l22.7 56.4c1.5 3.7 2.9 6.7 4 9 1.1 2.2 2.2 3.9 3.3 5 1 1.1 2.2 1.9 3.4 2.2 1.3.3 2.8.5 4.5.5v3.9H77.9v-3.9c3.5 0 6-.3 7.3-1 1.3-.7 2-1.8 2-3.3a14.6 14.6 0 00-1.2-5.9l-1.1-3-4.1-10.8zm-24.7-5h22.8L67.8 45.6 56.1 75.1zm124.2.9c0-2.5-.4-4.7-1.1-6.8a15.3 15.3 0 00-7.8-9c-1.8-.9-3.8-1.3-5.8-1.3a13.2 13.2 0 00-11.4 6.2c-1.4 2-2.4 4.3-3.1 7.1a37.1 37.1 0 000 18.7c.7 2.8 1.7 5.2 3 7.2 1.5 2 3.1 3.4 5 4.5 2 1 4.2 1.6 6.6 1.6 2.7 0 5.2-.6 7.4-1.9 2.2-1.3 3.8-3 5-5.4 1.4-3 2.2-7 2.2-12.1V76zm.3 24.8h-.4c-2.4 3-4.8 5-7.3 6.3a19.5 19.5 0 01-9 1.9 24.8 24.8 0 01-18.2-7.4 26.7 26.7 0 01-7-19.4 29.9 29.9 0 017.5-20 26 26 0 018.2-6c3-1.5 6.5-2.2 10-2.2a25.6 25.6 0 0118.8 8.1l4.4-6.9h2.5V117c0 2.8 0 5 .2 6.6.2 1.6.6 2.8 1.3 3.7.7.9 1.7 1.4 3 1.7 1.5.3 3.4.4 5.8.5v3.5h-30.5v-3.5c2 0 3.8-.3 5.2-.7a6 6 0 003.3-1.9c.8-.9 1.3-2 1.7-3.6.3-1.5.5-3.3.5-5.6v-16.9zM245.5 71c0-2.7 0-4.9-.2-6.4a7 7 0 00-1.1-3.6 3.8 3.8 0 00-2.5-1.7c-1-.3-2.6-.6-4.5-.8V55h18v30.7l.2 9.3c.1 2.4.3 4.2.5 5.4.1.9.3 1.6.6 2.1s.8.9 1.4 1.2c.6.3 1.4.5 2.3.6l3.8.1v3.5l-16.5 1.2-1.1-12h-.4a25.7 25.7 0 01-8.8 9.1 20.5 20.5 0 01-18.5 1.2c-2.6-1-4.6-2.5-6-4.3-1-1.5-1.9-3.5-2.4-6.1-.5-2.6-.7-6-.7-10.1V71c0-2.7 0-4.9-.2-6.4a7 7 0 00-1.1-3.6 3.8 3.8 0 00-2.5-1.7c-1-.3-2.6-.6-4.5-.8V55h18v27.3c0 7.3 1 12.5 2.6 15.8a8.7 8.7 0 008.2 4.9c5.9 0 10.4-3.8 13.7-11.5a23 23 0 001.3-4.4 28 28 0 00.4-6.3V71zM289 92.1c0 2.6 0 4.7.3 6.3a9 9 0 001.4 3.7c.6.9 1.6 1.5 2.8 1.8 1.2.3 2.8.5 4.8.6v3.5h-28.7v-3.5c2 0 3.6-.3 4.9-.6a6 6 0 002.9-1.8c.7-.9 1.2-2 1.4-3.5.2-1.5.4-3.5.4-5.8V80a183 183 0 00-.7-14.7c-.4-1.5-1.1-2.6-2.3-3.1-1.2-.6-3.5-.9-6.8-.9v-3.5L289 54v38.1zm-11.5-58.4a6 6 0 011.8-4.4 6 6 0 014.4-1.8 6 6 0 014.4 1.8 6 6 0 011.8 4.4 6 6 0 01-1.8 4.4 6 6 0 01-4.4 1.8 6 6 0 01-4.4-1.8 6 6 0 01-1.8-4.4zm73.4 66c-2.4 3-5.5 5.2-9.3 6.9a31.4 31.4 0 01-12.3 2.4 25 25 0 01-9.8-1.9A23.2 23.2 0 01306.9 93a34.3 34.3 0 01.3-22.6A24.2 24.2 0 01321.6 56a33.3 33.3 0 0124 .5c1.6.7 2.8 1.7 3.7 2.8.8 1 1.3 2.2 1.3 3.5 0 1.3-.5 2.4-1.3 3.1-1 .7-2.1 1.1-3.6 1.1-1.2 0-2.2-.2-3-.7-.8-.5-1.9-1.7-3.1-3.4a12.5 12.5 0 00-4-3.2c-1.1-.7-2.7-1-4.6-1-4.8 0-8.4 1.8-10.8 5.5-2.4 3.7-3.6 9-3.6 16.2 0 7.7 1.3 13.5 4 17.5s6.7 5.9 11.9 5.9c2.8 0 5.4-.5 7.9-1.6 2.4-1.1 5-3 7.5-5.4l3 2.9zm37.8 4.8a22 22 0 004.5-.3c.8-.2 1.3-.5 1.3-.8 0-.5-.6-1.5-1.6-2.9l-4-5-10.5-12.8-3.7 3.5v5.9c0 2.6 0 4.7.3 6.3a10 10 0 001.3 3.7c.6.9 1.6 1.5 2.8 1.8 1.2.3 2.9.5 4.9.6v3.5h-28.4v-3.5c2 0 3.6-.3 4.8-.6 1.2-.3 2.2-1 2.9-1.8.7-.9 1.2-2 1.5-3.5.2-1.5.4-3.4.4-5.8V50.9c0-5 0-8.9-.2-11.5 0-2.6-.4-4.4-1-5.3-.6-1-1.6-1.5-3-1.6-1.4-.2-3.3-.3-5.6-.3v-3.4l19.3-3.8v54.9l9.3-9.1 6.7-6.6c1.4-1.5 2.2-2.6 2.2-3.3 0-.7-.7-1.3-2.1-1.7-1.4-.5-3.4-.7-6-.7V55h26v3.5c-1.3 0-2.4 0-3.3.2-1 .1-1.9.4-2.7.8a39.6 39.6 0 00-5.8 4.3l-14.4 12.8L404.4 99l2.5 2.8a11.2 11.2 0 004.8 2.5l3.3.2v3.5h-26.3v-3.5zm108.8-12.7c0 2.6.1 4.7.3 6.4.2 1.6.6 2.9 1.1 3.8.6.9 1.3 1.5 2.2 1.8 1 .3 2.2.5 3.7.5v3.7h-25.7v-3.7c2 0 3.4-.2 4.5-.5 1.2-.3 2-1 2.6-1.8.6-.9 1-2 1.2-3.6.2-1.5.3-3.5.3-5.8V80a183 183 0 00-.7-14.6c-.3-1.6-1-2.7-2.3-3.2-1.2-.6-3.4-.9-6.8-.9h-12.5v30.6c0 2.5.1 4.5.3 6.2.3 1.6.7 2.9 1.3 3.8.7 1 1.6 1.6 2.6 2 1.1.4 2.5.6 4.2.6v3.5h-25.4v-3.5c1.7 0 3-.1 4-.4 1-.3 1.8-.8 2.3-1.7.6-.9 1-2 1-3.6.2-1.5.3-3.6.3-6.1V61.3h-11.3v-4.7H456v-7.2c0-7.7 2.2-13.6 6.6-17.9 4.4-4.3 10.7-6.5 18.7-6.5 4.8 0 8.6.6 11.5 1.8 3 1.1 4.5 2.6 4.5 4.5 0 1.3-.4 2.5-1.3 3.4a4 4 0 01-3 1.3c-.9 0-1.8-.2-2.8-.7-1-.5-2.2-1.2-3.8-2.3a35.4 35.4 0 00-4.7-2.6c-.6-.3-1.2-.4-1.9-.5a20.4 20.4 0 00-7.6.7 7.7 7.7 0 00-3.8 2.9c-1 1.4-1.7 3.3-2.3 5.8-.4 2.5-.7 5.6-.7 9.5v7.8h16l16.1-2.6v37.8zm49.7-25c1.6-2 2.4-3.7 2.4-5.1 0-2.1-2-3.2-6-3.2V55h22v3.5a10.5 10.5 0 00-6.1 1.7c-1 .6-2 1.4-3 2.5l-3.1 3.8L543 79.6l13.3 17.5c2 2.7 4 4.7 5.7 5.8a11 11 0 005.7 1.6v3.5h-26.6v-3.5c2.4 0 4-.2 5-.5 1-.4 1.4-1.1 1.4-2.2a39.4 39.4 0 00-3.7-6l-7-9-8.5 10.8a5.6 5.6 0 00-1.5 3.6 3 3 0 001.2 2.4c.8.6 2 .9 3.8.9v3.5h-23v-3.5a19 19 0 004.2-.4c1.2-.3 2.3-.7 3.4-1.4s2.2-1.6 3.4-2.8l4-4.5L534 82.9 520.8 64c-1.6-2.1-3-3.6-4.2-4.3a8.8 8.8 0 00-4.8-1.2V55h24.6v3.5c-1.8 0-3.1.2-4 .7-.7.4-1.1 1-1.1 1.7 0 1 .6 2.4 1.9 4.2l7.2 10.5 6.8-8.8z" fill="#000"/>
    <path fill-rule="evenodd" clip-rule="evenodd" d="M11.1 113l2.9-5 2.9 5h-2.4v9h-1v-9h-2.4z" fill="#AC6970"/>
    <path d="M15.5 136v1.2c0 .3.1.5.3.7l.5.3 1 .1v.7h-5.5v-.7h1l.5-.4.3-.6v-7.7a68 68 0 000-2.6c0-.3-.2-.5-.5-.5l-1.4-.1v-.7a11.7 11.7 0 003.8-.7v11z" fill="#9A565A"/>
    <path fill-rule="evenodd" clip-rule="evenodd" d="M13.6 137.3l-.3.6v.1l-.5.2-1 .1v.7h5.5v-.7a5 5 0 01-1 0l-.4-.3-.1-.1c-.2-.2-.2-.4-.3-.7V125a15.5 15.5 0 01-3.8.7v.7a7.4 7.4 0 011.6.2c.2 0 .3.2.3.4v10.2zm-.2-12.8l1.7-.5 1.4-.4V136a8.8 8.8 0 000 1.1l.9.1h1v2.7h-7.6v-2.7h1a3.9 3.9 0 00.8 0v-.2-7.5-1.7-.5h-1.9v-2.6h1l1.7-.3z" fill="#FEFEFE"/>
    <path fill-rule="evenodd" clip-rule="evenodd" d="M103.1 113l2.9-5 2.9 5h-2.4v9h-1v-9h-2.4z" fill="#AC6970"/>
    <path d="M101.6 134.9l6.3-10h.6v10h.8l.5-.3c.2-.1.2-.3.3-.5v-.8h.7v4h-.7v-.8c0-.2-.1-.4-.3-.5a.8.8 0 00-.5-.2 5 5 0 00-.8 0V137.1l.2.7c.1.2.3.3.4.3l.8.1v.7h-5v-.7h.9l.5-.4.3-.6v-1.5h-5v-1zm5-6.4l-4.1 6.4h4.2v-6.4z" fill="#9A565A"/>
    <path fill-rule="evenodd" clip-rule="evenodd" d="M100.6 134.6l6.7-10.6h2.2v8.3h2.3v6h-1v1.7h-7v-2.7h1.7l.1-.2v-.3h-5v-2.2zm1 .3v.9h5v.4a8.2 8.2 0 010 1c0 .3-.1.5-.3.7v.1l-.5.2a4 4 0 01-1 .1v.7h5v-.7a3.4 3.4 0 01-.7 0 .8.8 0 01-.4-.4l-.2-.7a6.4 6.4 0 010-1.1v-.4a4.9 4.9 0 011 .1l.3.2c.2.1.2.3.3.5v.8h.7v-4h-.7v.8c0 .2-.1.4-.3.5l-.3.2h-.2l-.8.1v-10h-.6l-6.3 10zm5-6.4l-4.1 6.4h4.2v-6.4zm-2.3 5.4l1.4-2.2v2.2h-1.4z" fill="#FEFEFE"/>
    <path fill-rule="evenodd" clip-rule="evenodd" d="M402.1 113l2.9-5 2.9 5h-2.4v9h-1v-9h-2.4z" fill="#AC6970"/>
    <path d="M400.4 136v1.2l.3.7.6.3 1 .1v.7h-5.5v-.7h1l.5-.4.3-.6v-7.7a68 68 0 000-2.6c0-.3-.3-.5-.6-.5l-1.3-.1v-.7a11.7 11.7 0 003.7-.7v11z" fill="#9A565A"/>
    <path d="M411.2 135.1c0-1-.2-1.7-.6-2.3a2 2 0 00-1.7-.8 2.8 2.8 0 01-1.2.3 1 1 0 01-.6-.1.5.5 0 01-.2-.5c0-.1 0-.3.2-.3l.5-.2h.6l.5.2c.7 0 1.2-.3 1.6-.8a4 4 0 00.6-2.3c0-1.7-.7-2.6-2.1-2.6-.7 0-1.2.2-1.5.5-.4.3-.6.6-.6 1.2 0 .4.1.7.4 1 .2.2.5.3 1 .3l-.5.5-.9.2-.7-.1-.6-.4-.3-.6a2 2 0 01.1-1.8c.2-.4.4-.6.8-.8.3-.3.7-.4 1.2-.6a6.5 6.5 0 013.3 0l1.4.7.8 1c.2.4.3.9.3 1.4 0 .4 0 .8-.2 1.1l-.5 1-1 .7-1 .5v.1l1.3.5 1 .8a3.6 3.6 0 01.5 4c-.2.4-.6.8-1 1.2l-1.5.8a6 6 0 01-2 .3 4.9 4.9 0 01-3-.9c-.4-.3-.7-.6-.9-1a2.6 2.6 0 01-.1-2.2c0-.3.2-.5.4-.7l.6-.5a1.9 1.9 0 011.8 0c.2.2.4.4.4.6-.4 0-.8.2-1 .5-.4.3-.5.7-.5 1.3 0 .6.2 1 .6 1.5.5.3 1 .5 1.8.5s1.4-.2 1.8-.8c.5-.5.7-1.3.7-2.4z" fill="#9A565A"/>
    <path fill-rule="evenodd" clip-rule="evenodd" d="M398.6 137.3l-.3.6-.1.1-.5.2-1 .1v.7h5.6v-.7a5 5 0 01-1 0l-.5-.3v-.1c-.2-.2-.3-.4-.3-.7V125a15.6 15.6 0 01-2.2.5l-1.6.2v.7a7.4 7.4 0 011.5.2c.2 0 .3.2.4.4v10.2zm-.3-12.8l1.8-.5 1.3-.4V136a8.8 8.8 0 00.1 1.1l.8.1h1v2.7h-7.5v-2.7h1a3.9 3.9 0 00.8 0v-.2-7.5-1.7-.5h-2v-2.6h1l1.7-.3zm11.5 9a.9.9 0 00-.7-.5 4 4 0 01-1 .3c.4.2.6.5.7 1l.3 1.2h-1.3c-.1 0-.2 0-.3.2-.1 0-.2.2-.2.6 0 .3.1.5.3.7.2.2.5.3 1 .3.6 0 1-.1 1.2-.4.2-.3.4-.8.4-1.8 0-.8-.2-1.4-.4-1.7zm.7 4a2 2 0 01-.6.5c-.3.2-.7.3-1.2.3-.6 0-1 0-1.4-.3l-.4-.2a2 2 0 01-.6-1.5 1.8 1.8 0 01.6-1.5 1.4 1.4 0 011-.3l-.5-.6a1.7 1.7 0 00-1-.2c-.2 0-.5 0-.8.2l-.6.5a2.4 2.4 0 00-.6 1.6c0 .4.1.9.3 1.3.2.4.5.7 1 1a4.8 4.8 0 001.3.6c.5.2 1 .3 1.7.3a6.2 6.2 0 001.9-.3c.6-.2 1-.5 1.5-.8.4-.4.8-.8 1-1.3.2-.4.4-1 .4-1.5a3.5 3.5 0 00-1-2.4 4.8 4.8 0 00-2.2-1.3v-.1a6 6 0 00.7-.3c.2 0 .3 0 .4-.2h.1a3.4 3.4 0 001.5-2.8 2.8 2.8 0 00-1.1-2.4c-.4-.2-.8-.5-1.4-.6-.5-.2-1.1-.2-1.7-.2a6.5 6.5 0 00-2 .2l-.8.5c-.4.2-.6.4-.8.8a2 2 0 00-.1 1.8l-1 .3a3 3 0 01.2-2.7 4.8 4.8 0 012.6-1.8 7.5 7.5 0 014 .1l1.6.8a3.9 3.9 0 011.3 4.7l-.8 1.2-.5.6.8.8a4.5 4.5 0 01.7 5c-.3.6-.7 1.1-1.3 1.5-.5.5-1 .8-1.8 1a7 7 0 01-2.2.4 5.9 5.9 0 01-3.7-1v-.1c-.5-.4-.9-.8-1.2-1.3a3.6 3.6 0 01-.2-3l.6-1a2.8 2.8 0 012-1c-.2-.3-.3-.7-.3-1a1.4 1.4 0 01.8-1.4c-.4 0-.7 0-1-.2h-.1l-.9-.6c-.3-.3-.4-.6-.6-1l1-.3.3.6.6.4.7.1h.1c.3 0 .5 0 .8-.2l.4-.5a1.3 1.3 0 01-.9-.3c-.3-.3-.4-.6-.4-1 0-.6.2-1 .6-1.2a1.6 1.6 0 01.1-.1c.4-.3.8-.4 1.4-.4.5 0 1 .2 1.3.4.5.4.8 1.1.8 2.2a4.1 4.1 0 01-.6 2.3l-.1.1a2 2 0 01-.4.4 1.6 1.6 0 01-1 .3 4.1 4.1 0 00-.6-.1H407c-.2.1-.2.3-.2.4 0 .2 0 .4.2.5l.6.1a2 2 0 00.6 0 2.6 2.6 0 00.6-.3h.4a2 2 0 01.8.4 2 2 0 01.5.4c.4.6.6 1.4.6 2.3 0 1-.2 1.9-.7 2.4zm-1.6-7c.2-.1.4-.2.6-.5.2-.4.4-1 .4-1.7 0-.8-.2-1.1-.3-1.3-.1-.1-.3-.3-.8-.3s-.8.1-1 .3v.7h1.5l-.3 1.3c-.2.5-.6.9-1 1.1l-.2.1a4.2 4.2 0 011 .2z" fill="#FEFEFE"/>
    <path fill-rule="evenodd" clip-rule="evenodd" d="M343.1 107l2.9-5 2.9 5h-2.4v15h-1v-15h-2.4z" fill="#AC6970"/>
    <path d="M343.4 136v1.2l.4.7.5.3 1 .1v.7h-5.5v-.7h1l.5-.4.3-.6v-7.7a68 68 0 000-2.6c0-.3-.2-.5-.5-.5l-1.4-.1v-.7a11.7 11.7 0 003.7-.7v11z" fill="#9A565A"/>
    <path d="M351.5 136v1.2c0 .3.2.5.3.7l.6.3 1 .1v.7h-5.6v-.7h1l.6-.4.2-.6.1-1v-6.7a68 68 0 000-2.6c-.1-.3-.3-.5-.6-.5l-1.4-.1v-.7a11.7 11.7 0 003.8-.7v11z" fill="#9A565A"/>
    <path fill-rule="evenodd" clip-rule="evenodd" d="M341.6 137.3l-.3.6-.1.1-.4.2-1 .1v.7h5.5v-.7a5 5 0 01-1 0l-.4-.3-.1-.1c-.2-.2-.3-.4-.3-.7V125a15.6 15.6 0 01-2.2.5l-1.6.2v.7a7.4 7.4 0 011.6.2c.1 0 .3.2.3.4v10.2zm-.2-12.8l1.7-.5 1.3-.4V136a8.8 8.8 0 00.1 1.1l.8.1h1v2.7h-7.5v-2.7h1a3.9 3.9 0 00.8 0v-.2-7.5-1.7-.5h-1.9v-2.6h1l1.7-.3zm8.2 12.8c0 .2 0 .4-.2.6l-.2.1-.4.2-1 .1v.7h5.5v-.7a5 5 0 01-1 0l-.4-.3-.1-.1-.3-.7V125a15.4 15.4 0 01-2.1.5h-.1l-1.6.2v.7a7.4 7.4 0 011.6.2c.2 0 .3.2.3.4v.9l.1 1.7v7.6zm-.2-12.8l1.7-.5 1.4-.4V136a8.8 8.8 0 000 1.1l.9.1h1v2.7h-7.6v-2.7h1a3.9 3.9 0 00.8 0v-.2l.1-.9v-6.6-1.7-.5h-2v-2.6h1l1.7-.3z" fill="#FEFEFE"/>
    <path fill-rule="evenodd" clip-rule="evenodd" d="M343.1 107l2.9-5 2.9 5h-2.4v15h-1v-15h-2.4z" fill="#AC6970"/>
    <path d="M343.4 136v1.2l.4.7.5.3 1 .1v.7h-5.5v-.7h1l.5-.4.3-.6v-7.7a68 68 0 000-2.6c0-.3-.2-.5-.5-.5l-1.4-.1v-.7a11.7 11.7 0 003.7-.7v11z" fill="#9A565A"/>
    <path d="M351.5 136v1.2c0 .3.2.5.3.7l.6.3 1 .1v.7h-5.6v-.7h1l.6-.4.2-.6.1-1v-6.7a68 68 0 000-2.6c-.1-.3-.3-.5-.6-.5l-1.4-.1v-.7a11.7 11.7 0 003.8-.7v11z" fill="#9A565A"/>
    <path fill-rule="evenodd" clip-rule="evenodd" d="M341.6 137.3l-.3.6-.1.1-.4.2-1 .1v.7h5.5v-.7a5 5 0 01-1 0l-.4-.3-.1-.1c-.2-.2-.3-.4-.3-.7V125a15.6 15.6 0 01-2.2.5l-1.6.2v.7a7.4 7.4 0 011.6.2c.1 0 .3.2.3.4v10.2zm-.2-12.8l1.7-.5 1.3-.4V136a8.8 8.8 0 00.1 1.1l.8.1h1v2.7h-7.5v-2.7h1a3.9 3.9 0 00.8 0v-.2-7.5-1.7-.5h-1.9v-2.6h1l1.7-.3zm8.2 12.8c0 .2 0 .4-.2.6l-.2.1-.4.2-1 .1v.7h5.5v-.7a5 5 0 01-1 0l-.4-.3-.1-.1-.3-.7V125a15.4 15.4 0 01-2.1.5h-.1l-1.6.2v.7a7.4 7.4 0 011.6.2c.2 0 .3.2.3.4v.9l.1 1.7v7.6zm-.2-12.8l1.7-.5 1.4-.4V136a8.8 8.8 0 000 1.1l.9.1h1v2.7h-7.6v-2.7h1a3.9 3.9 0 00.8 0v-.2l.1-.9v-6.6-1.7-.5h-2v-2.6h1l1.7-.3z" fill="#FEFEFE"/>
    <path fill-rule="evenodd" clip-rule="evenodd" d="M134 79.1l5 2.9-5 2.9v-2.4h-9v-1h9v-2.4z" fill="#AC6970"/>
    <path d="M126.5 84.3c0 .7 0 1.3-.3 2l-1 1.5a4.8 4.8 0 01-3.4 1.4 4 4 0 01-2-.5c-.5-.3-1-.7-1.4-1.3-.4-.5-.7-1.2-1-2a10.3 10.3 0 011.3-8.2 6 6 0 011.9-1.6c.7-.4 1.4-.6 2.2-.6l1.2.1 1 .4.7.6.2.7c0 .3 0 .5-.3.7a1 1 0 01-.7.2c-.3 0-.6 0-.7-.3a7 7 0 01-.4-.6l-.5-.7c-.2-.2-.6-.3-1-.3s-.8.1-1.2.4l-.9 1.2c-.3.5-.5 1-.6 1.8l-.2 2.2c.4-.5.8-.9 1.3-1.1.4-.3 1-.4 1.6-.4a4.1 4.1 0 014 2.7l.2 1.7zm-7.2-.4c0 3 .9 4.5 2.5 4.5.9 0 1.5-.3 1.9-1 .4-.6.6-1.6.6-3 0-1.2-.2-2.1-.6-2.7-.4-.7-1-1-1.7-1-.5 0-1 .2-1.4.6-.4.3-.9 1-1.3 1.7v1z" fill="#9A565A"/>
    <path fill-rule="evenodd" clip-rule="evenodd" d="M123.3 87.8c.2 0 .3-.2.4-.4.4-.6.6-1.6.6-3 0-1.2-.2-2.1-.6-2.7a1.9 1.9 0 00-1.7-1l-1 .2-.4.4-.6.6a7 7 0 00-.7 1.1v1c0 2 .4 3.3 1.2 4a2 2 0 001.3.4c.6 0 1-.2 1.4-.5h.1zm-5-.4l-.9-2a10.3 10.3 0 011.3-8.2 6.4 6.4 0 011.9-1.6 4.3 4.3 0 013.4-.5l1 .4.7.6.2.7c0 .3 0 .5-.3.7a1 1 0 01-.7.2c-.3 0-.6 0-.7-.3a7 7 0 01-.4-.6 2.8 2.8 0 00-.7-.8l-.3-.2h-.5a1.8 1.8 0 00-1.3.5l-.5.6-.3.5a6.9 6.9 0 00-.7 2.5 11.5 11.5 0 00-.1 1.5 4.7 4.7 0 011-1l.3-.1a3 3 0 011.6-.4 4.4 4.4 0 011.7.3c.5.2 1 .5 1.3 1 .4.3.7.8 1 1.4l.2 1.7c0 .7 0 1.3-.3 2l-1 1.5a4.8 4.8 0 01-3.4 1.4 4 4 0 01-3.4-1.8zm5.7 2.3a5.6 5.6 0 01-4.6 0c-.7-.5-1.3-1-1.8-1.7-.5-.6-.9-1.4-1.1-2.2a11.3 11.3 0 011.5-9 7 7 0 012-2c1-.6 1.8-.8 2.8-.8a5.8 5.8 0 012.7.6c.4.2.7.5 1 .9.3.4.4.8.4 1.3a1.9 1.9 0 01-2 2c-.5 0-1.1-.2-1.5-.8a8 8 0 01-.5-.8l-.3-.4h-.3c-.2 0-.3 0-.5.2-.3.2-.5.4-.7.9l-.5 1.3a5.1 5.1 0 016.5 3 5.8 5.8 0 010 4.4c-.3.7-.7 1.3-1.2 1.9-.6.5-1.2 1-1.9 1.2zm-3.7-6.4c.4-.7.7-1 1-1.3.2-.2.4-.3.7-.3.4 0 .7.2.9.5.2.4.4 1 .4 2.2 0 1.3-.2 2-.5 2.5-.2.3-.4.5-1 .5-.2 0-.4 0-.5-.2-.2 0-.3-.2-.5-.4-.2-.6-.5-1.5-.5-2.9v-.6z" fill="#FEFEFE"/>
    <path fill-rule="evenodd" clip-rule="evenodd" d="M294 36.9l-5-2.9 5-2.9v2.4h9v1h-9v2.4z" fill="#AC6970"/>
    <path d="M309 38v1.2c0 .3.2.5.3.7l.6.3 1 .1v.7h-5.6v-.7h1l.6-.4.2-.6.1-1v-6.7a68 68 0 000-2.6c-.1-.3-.3-.4-.6-.5l-1.4-.1v-.7a11.7 11.7 0 003.8-.7v11z" fill="#9A565A"/>
    <path d="M318.5 27a4 4 0 012 .5c.7.4 1.2.9 1.7 1.5.5.7.9 1.5 1.2 2.3a9 9 0 01-1.2 7.8c-.5.7-1 1.2-1.7 1.5a4.2 4.2 0 01-4.1 0c-.7-.3-1.2-.8-1.7-1.5a7.8 7.8 0 01-1.6-5c0-1 .2-1.9.4-2.8a8 8 0 011.2-2.3c.5-.6 1-1.1 1.7-1.5a4 4 0 012-.5zm0 13.3c.4 0 .8 0 1.2-.3.4-.2.7-.5 1-1 .2-.4.4-1 .5-1.8.2-.8.2-1.8.2-3s0-2.2-.2-3l-.5-2c-.3-.5-.6-.8-1-1-.4-.3-.8-.4-1.2-.4-.5 0-1 .1-1.3.3-.4.3-.7.6-1 1.1a7 7 0 00-.5 2 19.7 19.7 0 000 6c.1.7.3 1.4.6 1.8.2.5.5.8.9 1 .4.2.8.3 1.3.3z" fill="#9A565A"/>
    <path fill-rule="evenodd" clip-rule="evenodd" d="M307.1 39.3c0 .2 0 .4-.2.6l-.2.1-.4.2-1 .1v.7h5.5v-.7a5 5 0 01-1 0l-.4-.3-.1-.1-.3-.7V27a15.5 15.5 0 01-3.8.7v.7a7.3 7.3 0 011.6.2c.2 0 .3.2.3.4v.9l.1 1.7v7.6zm-.2-12.8l1.7-.5 1.4-.4V38a8.8 8.8 0 000 1.1l.9.1h1V42h-7.6v-2.7h1a3.9 3.9 0 00.8 0V39l.1-.9v-6.6-1.7-.5a9 9 0 00-1 0h-1v-2.6h1l1.7-.3zm13.8 1.1c.6.4 1 .9 1.5 1.4.5.7.9 1.5 1.2 2.3a9 9 0 01-1.2 7.8 5.8 5.8 0 01-2 1.7 4.2 4.2 0 01-4.1-.3c-.5-.4-1-.8-1.4-1.4a7.8 7.8 0 01-1.6-5c0-1 .2-1.9.4-2.8a8 8 0 011.2-2.3 5.6 5.6 0 012-1.7 4 4 0 013.5 0 4.4 4.4 0 01.5.3zm-3.5.5a1.8 1.8 0 00-.4.3l-.5.8a7 7 0 00-.6 2 19.7 19.7 0 000 6c.1.7.3 1.4.6 1.8a2.7 2.7 0 00.6.8l.3.2c.4.2.8.3 1.3.3.4 0 .8 0 1.2-.3l.3-.2.1-.1.5-.7c.3-.4.5-1 .6-1.8.2-.8.2-1.8.2-3s0-2.2-.2-3l-.5-2a2.8 2.8 0 00-.7-.8l-.3-.3-1.2-.3c-.5 0-1 .1-1.3.3zm-.5 8.9c0 .7.3 1.2.4 1.6.2.3.4.5.6.5l.8.2c.3 0 .5 0 .7-.2.2 0 .4-.2.6-.5l.4-1.6c.2-.7.2-1.6.2-2.8 0-1.2 0-2.1-.2-2.9 0-.7-.2-1.3-.4-1.6-.2-.4-.4-.6-.6-.7l-.7-.2c-.3 0-.6 0-.8.2-.2.1-.4.3-.5.7-.2.3-.4.9-.5 1.6a18.7 18.7 0 000 5.7zm6.3 2.8c-.5.7-1.2 1.3-2 1.7a5.2 5.2 0 01-5.1 0c-.8-.4-1.4-1-2-1.7a9.9 9.9 0 01-1.8-5.6c0-1.1.2-2.2.5-3.2a9 9 0 011.3-2.5c.6-.8 1.2-1.4 2-1.8a5 5 0 015.1 0c.8.4 1.5 1 2 1.8.6.7 1 1.6 1.3 2.5a10 10 0 01-1.3 8.7z" fill="#FEFEFE"/>
    <path fill-rule="evenodd" clip-rule="evenodd" d="M380 36.9l-5-2.9 5-2.9v2.4h9v1h-9v2.4z" fill="#AC6970"/>
    <path d="M395 38v1.2c0 .3.2.5.3.7l.6.3 1 .1v.7h-5.6v-.7h1l.6-.4.2-.6.1-1v-6.7a68 68 0 000-2.6c-.1-.3-.3-.5-.6-.5l-1.4-.1v-.7a11.7 11.7 0 003.8-.7v11z" fill="#9A565A"/>
    <path d="M401.6 39.2h4.3l.6-.4.4-.6.4-1h.7l-.7 3.8h-8.4v-.6a63 63 0 005.5-5.7 6.4 6.4 0 001.3-4c0-.8-.2-1.6-.6-2.1-.5-.5-1-.8-1.8-.8-.7 0-1.3.2-1.8.7-.4.5-.7 1-.7 1.8 0 .7.2 1.2.6 1.6.3.3.8.5 1.4.5 0 .3-.2.6-.4.7-.3.2-.6.3-1 .3a2.2 2.2 0 01-1.7-.8 2.8 2.8 0 01-.6-2c0-.5.1-1 .3-1.4a4.4 4.4 0 012.3-2 5.4 5.4 0 013.6 0l1.4.8c.4.4.7.8.9 1.3.2.4.3 1 .3 1.5 0 .8-.2 1.5-.5 2.2-.3.8-.8 1.5-1.4 2.1a43.2 43.2 0 01-4.5 4v.1z" fill="#9A565A"/>
    <path fill-rule="evenodd" clip-rule="evenodd" d="M393.1 39.3c0 .2 0 .4-.2.6l-.2.1-.4.2-1 .1v.7h5.5v-.7a5 5 0 01-1 0l-.4-.3-.1-.1-.3-.7V27a15.4 15.4 0 01-2.1.5h-.1l-1.6.2v.7a7.3 7.3 0 011.6.2c.2 0 .3.2.3.4v.9l.1 1.7v7.6zm-.2-12.8l1.7-.5 1.4-.4V38a8.8 8.8 0 000 1.1l.9.1h1V42h-7.6v-2.7h1a3.9 3.9 0 00.8 0V39l.1-.9v-6.6-1.7-.5a9 9 0 00-1 0h-1v-2.6h1l1.7-.3zm7.6 12.5a73.3 73.3 0 01-1.6 1.4v.6h8.4l.7-3.8h-.7a8 8 0 01-.6 1.4l-.2.2-.6.4h-4.3l1-.8.1-.2a40.8 40.8 0 003.3-3c.6-.7 1-1.4 1.4-2.2.3-.7.5-1.4.5-2.2l-.3-1.5c-.2-.5-.5-1-1-1.3a4.1 4.1 0 00-2-1 5.5 5.5 0 00-3.6.6 4.1 4.1 0 00-1.6 1.6c-.2.4-.3 1-.3 1.5 0 .4 0 .7.2 1 0 .4.2.7.4 1l.8.5a2.2 2.2 0 001.4.1c.2 0 .3 0 .5-.2.2-.1.4-.4.4-.7-.3 0-.7 0-1-.2l-.4-.3c-.4-.4-.6-1-.6-1.6a2.5 2.5 0 01.8-2l.5-.2a2.5 2.5 0 011.5-.3c.2 0 .5 0 .7.2l.8.6c.4.5.6 1.3.6 2.2a6.4 6.4 0 01-1.3 4 20.5 20.5 0 01-3.4 3.7l-.5.5zm1.7-9.8c-.2.2-.4.6-.4 1.1 0 .5.2.7.3.9.1.1.3.2.7.2h1.3l-.3 1.2c-.1.6-.4 1-.9 1.3-.4.4-1 .5-1.5.5s-1-.1-1.3-.3c-.5-.2-.8-.5-1.1-.8l-.7-1.2a4.6 4.6 0 01.2-3.4 5.5 5.5 0 012.9-2.5 6.4 6.4 0 014.2 0 5 5 0 011.7 1.1c.5.4 1 1 1.2 1.6.2.6.4 1.2.4 2s-.2 1.7-.6 2.6c-.4.8-.9 1.5-1.5 2.3l-2.1 2.1-.4.3h1.5l.2-.4.4-1 .2-.6h2.6l-1 5.8h-10.3v-2l.4-.3a62.1 62.1 0 005.3-5.5l.9-1.8.2-1.6c0-.8-.2-1.3-.4-1.6-.3-.3-.5-.4-1-.4s-.8.1-1 .4z" fill="#FEFEFE"/>
    <path fill-rule="evenodd" clip-rule="evenodd" d="M493 51l-5.5 1.5 1.5-5.6 1.7 1.7 19-19 .7.8-19 19L493 51z" fill="#AC6970"/>
    <path d="M516 32v1.2c0 .3.2.5.3.7l.6.3 1 .1v.7h-5.6v-.7h1l.6-.4.2-.6.1-1v-6.7a68 68 0 000-2.6c-.1-.3-.3-.4-.6-.5l-1.4-.1v-.7a11.7 11.7 0 003.8-.7v11z" fill="#9A565A"/>
    <path d="M519.4 30.9l6.3-10h.6v10h.8l.5-.3c.2-.1.2-.3.3-.5v-.8h.7v4h-.7v-.8c0-.2-.1-.4-.3-.5a.8.8 0 00-.5-.2 5 5 0 00-.8 0V33.1l.2.7c.1.2.3.3.4.3l.8.1v.7h-5v-.7h.9l.5-.4.3-.6v-1.5h-5v-1zm5-6.4l-4.1 6.4h4.2v-6.4z" fill="#9A565A"/>
    <path fill-rule="evenodd" clip-rule="evenodd" d="M514.1 33.3c0 .2 0 .4-.2.6l-.2.1-.4.2-1 .1v.7h5.5v-.7a5 5 0 01-1 0l-.4-.3-.1-.1-.3-.7V21a15.4 15.4 0 01-2.1.5h-.1l-1.6.2v.7a7.3 7.3 0 011.6.2c.2 0 .3.2.3.4v.9l.1 1.7v7.6zm-.2-12.8l1.7-.5 1.4-.4V32a8.8 8.8 0 000 1.1l.9.1h1V36h-7.6v-2.7h1a3.9 3.9 0 00.8 0V33l.1-.9v-6.6-1.7-.5a9 9 0 00-1 0h-1v-2.6h1l1.7-.3zm4.5 10L525 20h2.2v8.3h2.3v6h-1V36h-7v-2.7h1.7l.1-.2v-.3h-5v-2.2zm1 .4v.9h5v.4a8.2 8.2 0 010 1c0 .3-.1.5-.3.7v.1l-.5.2a4 4 0 01-1 .1v.7h5v-.7a3.3 3.3 0 01-.7 0 .8.8 0 01-.4-.4l-.2-.7a6.9 6.9 0 010-1.1v-.4a4.9 4.9 0 011 .1l.3.2c.2.1.2.3.3.5v.8h.7v-4h-.7v.8c0 .2-.1.4-.3.5a1 1 0 01-.3.2h-.2l-.8.1V21h-.6l-6.3 10zm5-6.4l-4.1 6.4h4.2v-6.4zm-2.3 5.4l1.4-2.2V30H522z" fill="#FEFEFE"/>
    <path fill-rule="evenodd" clip-rule="evenodd" d="M173.5 117.1l5 2.9-5 2.9v-2.4H156v-1h17.5v-2.4z" fill="#AC6970"/>
    <path d="M154.5 115H150c-.3 0-.5 0-.7.2-.2 0-.3.2-.4.4l-.4.8-.2.7h-.7l1.2-5h.8l-.1.2v.3c0 .2 0 .4.3.4l1 .1h5.3v.4a383.5 383.5 0 01-3.2 7.4 271 271 0 00-2.4 5.8l-.4.4h-.4c-.2 0-.4 0-.6-.2a.8.8 0 01-.2-.5v-.3l.2-.4a15 15 0 01.8-1.9 495.6 495.6 0 012.2-4.2l2.4-4.7z" fill="#9A565A"/>
    <path fill-rule="evenodd" clip-rule="evenodd" d="M155 115.9l.3-.6.5-1.2.1-.2.2-.4v-.4H149.8l-.2-.1v-.1l-.1-.3a2.6 2.6 0 010-.5h-.7l-1.2 5h.7l.2-.7.4-.8.1-.2.3-.2.7-.2h4.5l-2.4 4.6a957 957 0 00-3.2 6.5v.3c0 .2 0 .4.2.5l.6.3.4-.1.4-.4.5-.8.6-1.3a250.3 250.3 0 002.6-6.8l.5-1.1.4-.8zm1 .4l-.8 1.9a103.3 103.3 0 00-3.3 8.1l-.5 1-.8.7-1 .2c-.4 0-.8-.2-1.2-.5v-.1c-.3-.3-.5-.7-.5-1.2v-.4l.2-.6.3-.9.6-1.1a616.6 616.6 0 012.2-4.2l1.7-3.3h-2.7l-.4.1v.1l-.3.6-.6 1.4h-2.6l1.8-7h3l-.5 1h6.5v1.8l-1.1 2.4z" fill="#FEFEFE"/>
    <path fill-rule="evenodd" clip-rule="evenodd" d="M272 86.2l4.5-3.7 1 5.7-2.2-.8-13.8 37.8-1-.4L274.3 87l-2.2-.8z" fill="#AC6970"/>
    <path d="M253 122.8c0-.7.1-1.3.4-1.9a4.8 4.8 0 014.4-3 4.3 4.3 0 013.4 1.7l1 2a10.4 10.4 0 01-.1 5.6 9 9 0 01-1.3 2.6c-.5.8-1.1 1.3-1.8 1.8-.7.4-1.4.6-2.2.6a5 5 0 01-2.2-.5l-.7-.6c-.2-.3-.2-.5-.2-.8 0-.2 0-.5.2-.6.2-.2.4-.3.7-.3.4 0 .6.1.8.3l.4.7.5.7c.2.2.5.3 1 .3.4 0 .8-.2 1.1-.5.4-.3.7-.6 1-1.2l.6-1.7.2-2.3a4 4 0 01-1.3 1.2c-.5.3-1 .4-1.6.4a4.1 4.1 0 01-4-2.7l-.3-1.8zm7.2.4c0-3-.8-4.4-2.5-4.4a2 2 0 00-1.8 1c-.4.6-.6 1.6-.6 3 0 1.1.2 2 .6 2.7.3.6.9.9 1.6.9.6 0 1-.2 1.5-.5.4-.4.8-1 1.2-1.8v-.9z" fill="#9A565A"/>
    <path fill-rule="evenodd" clip-rule="evenodd" d="M252.5 120.5a5.8 5.8 0 013-3c.7-.4 1.5-.5 2.3-.5a5.3 5.3 0 014.2 2.1c.5.7.8 1.4 1 2.3.4.9.5 1.8.5 2.8 0 1.2-.2 2.3-.5 3.4-.3 1-.8 2-1.4 2.8-.6.8-1.3 1.5-2.1 2s-1.8.8-2.7.8c-.5 0-1 0-1.5-.2l-1.2-.5c-.4-.2-.8-.5-1-.8-.3-.4-.4-.9-.4-1.4 0-.4.1-1 .5-1.3a2 2 0 011.4-.6c.6 0 1.2.2 1.6.7l.5.8a2 2 0 00.3.4h.3l.5-.1c.2-.2.5-.5.7-1l.4-1.2c-.5.2-1 .3-1.6.3a5.1 5.1 0 01-3.8-1.6c-.5-.5-.8-1-1-1.7-.3-.7-.5-1.4-.5-2.2 0-.8.2-1.6.5-2.3zm7.5 7.5a6.9 6.9 0 01-1 2.3 3.3 3.3 0 01-.6.6c-.3.3-.7.5-1.1.5a2 2 0 01-.5 0 1 1 0 01-.4-.2l-.1-.1a3 3 0 01-.5-.7l-.4-.7c-.2-.2-.4-.3-.8-.3a1 1 0 00-.7.3 1 1 0 00-.2.6c0 .3 0 .5.2.8l.7.6a4.4 4.4 0 002.2.5 4.3 4.3 0 002.1-.6 5.7 5.7 0 001.9-1.8 9 9 0 001.2-2.5 10.4 10.4 0 00.1-5.6c-.2-.8-.5-1.4-1-2-.3-.5-.8-1-1.4-1.3a4.7 4.7 0 00-5.2 1 4.8 4.8 0 00-.3 6.6 4.3 4.3 0 003.3 1.3 3 3 0 001.6-.6c.2 0 .3-.2.4-.3l.6-.7a15 15 0 01-.1 2.3zm-1-8.8a2 2 0 00-1.2-.4c-.6 0-1.1.1-1.5.4l-.4.5c-.4.7-.6 1.7-.6 3 0 1.2.2 2.1.6 2.8.2.3.5.6.8.7a2 2 0 00.8.2 2.2 2.2 0 001.5-.5l.5-.6a7 7 0 00.7-1.2v-.9c0-2-.4-3.3-1.1-4zm.2 4.7v-.7c0-1.4-.2-2.3-.5-2.8-.1-.3-.3-.4-.4-.5l-.6-.1c-.5 0-.8.1-1 .5-.2.4-.4 1.1-.4 2.4 0 1.2.2 1.8.4 2.2.2.4.4.5.8.5s.6 0 .9-.3l.8-1.2z" fill="#FEFEFE"/>
    <path fill-rule="evenodd" clip-rule="evenodd" d="M64.1 87.5l2.9-5 2.9 5h-2.4V122h-1V87.5h-2.4z" fill="#AC6970"/>
    <path d="M69.2 135.1c0-1-.2-1.7-.6-2.3a2 2 0 00-1.7-.8 2.8 2.8 0 01-1.2.3 1 1 0 01-.6-.1.5.5 0 01-.3-.5c0-.1.1-.3.3-.3l.5-.2h.6l.5.2c.7 0 1.2-.3 1.6-.8a4 4 0 00.6-2.3c0-1.7-.7-2.6-2.2-2.6-.6 0-1 .2-1.5.5-.3.3-.5.6-.5 1.2 0 .4.1.7.4 1 .2.2.5.3.9.3 0 .2-.2.4-.5.5l-.8.2-.7-.1-.6-.4-.4-.6a2 2 0 01.1-1.8c.3-.4.5-.6.9-.8.3-.3.7-.4 1.2-.6a6.5 6.5 0 013.3 0l1.4.7.8 1c.2.4.3.9.3 1.4 0 .4 0 .8-.2 1.1-.1.4-.3.7-.6 1l-.8.7-1 .5v.1l1.2.5 1 .8a3.6 3.6 0 01.5 4l-1 1.2-1.5.8a6 6 0 01-2 .3 4.9 4.9 0 01-3-.9c-.4-.3-.7-.6-.9-1a2.6 2.6 0 01-.2-2.2l.5-.7.6-.5a1.9 1.9 0 011.7 0c.3.2.5.4.5.6-.4 0-.8.2-1 .5-.4.3-.5.7-.5 1.3 0 .6.2 1 .6 1.5.5.3 1 .5 1.7.5.9 0 1.5-.2 2-.8.4-.5.6-1.3.6-2.4z" fill="#9A565A"/>
    <path fill-rule="evenodd" clip-rule="evenodd" d="M67.8 133.4a1 1 0 00-.7-.4 4 4 0 01-1 .3c.4.2.6.5.7 1l.3 1.2h-1.3c-.1 0-.2 0-.3.2-.1 0-.2.2-.2.6 0 .3 0 .5.3.7.2.2.5.3 1 .3.6 0 1-.1 1.1-.4.3-.3.5-.8.5-1.8 0-.8-.2-1.4-.4-1.7zm.7 4.1a2 2 0 01-.6.5c-.3.2-.7.3-1.2.3-.6 0-1 0-1.4-.3l-.4-.2a2 2 0 01-.6-1.5 1.8 1.8 0 01.6-1.5 1.4 1.4 0 011-.3l-.6-.6a1.7 1.7 0 00-.9-.2c-.2 0-.5 0-.8.2l-.6.5a2.4 2.4 0 00-.6 1.6c0 .4 0 .9.3 1.3.2.4.5.7.9 1a4.8 4.8 0 001.3.6c.6.2 1.1.3 1.7.3a6.3 6.3 0 002-.3c.6-.2 1-.5 1.5-.8l1-1.3c.2-.4.3-1 .3-1.5a3.5 3.5 0 00-.8-2.4l-1-.8a4.7 4.7 0 00-1.2-.5v-.1a6.2 6.2 0 00.6-.3 3.6 3.6 0 001.8-1.9 3 3 0 000-2.5l.8-.4c.3.5.4 1.1.4 1.8 0 .5 0 1-.3 1.5l-.7-.3.7.3c-.1.4-.4.9-.7 1.2l-.6.6 1 .8.7 1.3-.8.4.8-.4c.2.6.3 1.1.3 1.7 0 .7-.1 1.4-.4 2-.3.6-.7 1.1-1.3 1.5-.5.5-1.1.8-1.8 1a7 7 0 01-2.2.4 5.9 5.9 0 01-3.7-1v-.1c-.5-.4-.9-.8-1.2-1.3a3.6 3.6 0 01-.2-3c.1-.4.4-.8.6-1 .3-.4.6-.7 1-.8.3-.2.7-.3 1-.3-.2-.2-.4-.6-.4-1 0-.5.3-1 .8-1.2l.5.8c-.2.1-.3.3-.3.4 0 .2.1.4.3.5l.6.1a2 2 0 00.6 0 3.2 3.2 0 00.6-.3h.4a2 2 0 01.8.4 2 2 0 01.5.4c.4.6.6 1.4.6 2.3 0 1-.2 1.9-.7 2.4zm-1.2-6.2c.2 0 .3 0 .4-.2a2 2 0 00.6-.5v-.2c.4-.5.6-1.3.6-2.1 0-1-.3-1.8-.8-2.2-.4-.2-.8-.4-1.4-.4-.5 0-1 .1-1.3.4h-.1c-.4.4-.6.8-.6 1.3 0 .4.1.7.4 1a1.2 1.2 0 00.9.3c0 .2-.2.4-.5.5l-.7.2-.8-.1-.6-.4-.4-.6a2 2 0 01.1-1.8c.3-.4.5-.6.9-.8a3.6 3.6 0 011.2-.6 6.5 6.5 0 013.3 0l1.4.7.8 1 1-.4-1.2-1.4c-.5-.3-1-.6-1.7-.8-.6-.2-1.3-.2-2-.2s-1.3 0-1.9.2l-1.5.6c-.4.3-.8.7-1 1.1h-.1a3 3 0 00-.2 2.7l1-.3-1 .3c.2.4.3.7.6 1l.9.6 1.1.2h-.1l.5 1 .5-.2h.5a4.4 4.4 0 01.6.2H67.3zm-.4-.9c.2 0 .4-.1.5-.4.3-.4.5-1 .5-1.7 0-.8-.2-1.1-.3-1.3-.1-.1-.3-.3-.9-.3-.4 0-.7.1-.8.3-.1 0-.2.1-.2.4v.3h1.6L67 129c-.1.5-.5.9-.9 1.1l-.2.1a4.2 4.2 0 011 .2z" fill="#FEFEFE"/>
    <path fill-rule="evenodd" clip-rule="evenodd" d="M21.1 40l2.9-5 2.9 5h-2.4v17.5h-1V40h-2.4z" fill="#AC6970"/>
    <path fill-rule="evenodd" clip-rule="evenodd" d="M26.9 100.5l-2.9 5-2.9-5h2.4V83h1v17.5h2.4z" fill="#AC6970"/>
    <path d="M22.5 75.2H27l.5-.4c.2-.1.4-.3.5-.6l.4-1h.7l-.7 3.8h-8.4v-.6a63 63 0 005.5-5.7 6.4 6.4 0 001.3-4c0-.8-.2-1.6-.7-2.1-.4-.5-1-.8-1.8-.8-.7 0-1.3.2-1.7.7-.5.5-.7 1-.7 1.8 0 .7.2 1.2.5 1.6.4.3.9.5 1.5.5 0 .3-.2.6-.5.7-.2.2-.5.3-1 .3a2.2 2.2 0 01-1.6-.8 2.8 2.8 0 01-.6-2c0-.5 0-1 .3-1.4.2-.5.5-.9 1-1.2l1.3-.8a5.4 5.4 0 013.6 0l1.3.8 1 1.3.2 1.5c0 .8-.1 1.5-.5 2.2-.3.8-.7 1.5-1.3 2.1l-2 2-2.5 2v.1z" fill="#9A565A"/>
    <path fill-rule="evenodd" clip-rule="evenodd" d="M21.5 75a81.4 81.4 0 01-1.6 1.4v.6h8.4l.7-3.8h-.7a8 8 0 01-.6 1.4l-.3.2-.5.4h-4.4a46.4 46.4 0 004.5-4c.6-.7 1-1.4 1.3-2.2.4-.7.5-1.4.5-2.2 0-.5 0-1-.3-1.5-.2-.5-.5-1-.9-1.3a4.1 4.1 0 00-2-1 5.5 5.5 0 00-3.6.6 4.2 4.2 0 00-1.6 1.6c-.2.4-.3 1-.3 1.5l.1 1 .5 1 .7.5a2.2 2.2 0 001.5.1c.2 0 .3 0 .4-.2.3-.1.4-.4.5-.7-.4 0-.7 0-1-.2l-.5-.3c-.3-.4-.5-1-.5-1.6a2.5 2.5 0 01.8-2l.4-.2a2.5 2.5 0 011.5-.3c.3 0 .5 0 .8.2.3.1.5.3.7.6.5.5.7 1.3.7 2.2a6.4 6.4 0 01-1.3 4 20.5 20.5 0 01-3.4 3.7l-.5.5zm1.6-7.8c.1.1.3.2.7.2H25l-.2 1.2c-.1.6-.5 1-.9 1.3-.5.4-1 .5-1.5.5s-1-.1-1.4-.3l-1-.8c-.3-.4-.6-.7-.7-1.2a4.6 4.6 0 01.2-3.4 5.5 5.5 0 012.9-2.5 6.4 6.4 0 014.2 0 5 5 0 011.7 1.1c.5.4.9 1 1.1 1.6.3.6.4 1.2.4 2s-.2 1.7-.6 2.6c-.3.8-.8 1.5-1.4 2.3l-2.2 2.1-.3.3h1.5l.2-.4.3-1 .3-.6H30l-1 5.8H19v-2l.3-.3a62.1 62.1 0 005.3-5.5l1-1.8.2-1.6c0-.8-.2-1.3-.5-1.6-.2-.3-.5-.4-1-.4-.4 0-.8.1-1 .4-.2.2-.4.6-.4 1.1 0 .5.1.7.3.9z" fill="#FEFEFE"/>
    <path fill-rule="evenodd" clip-rule="evenodd" d="M575.1 62l2.9-5 2.9 5h-2.4v10.3h-1V62h-2.4z" fill="#AC6970"/>
    <path fill-rule="evenodd" clip-rule="evenodd" d="M580.9 102l-2.9 5-2.9-5h2.4V91.7h1V102h2.4z" fill="#AC6970"/>
    <path d="M574.8 86v1.2l.4.7.5.3 1 .1v.7h-5.5v-.7h1l.5-.4.3-.6v-7.7a68 68 0 000-2.6c0-.3-.2-.5-.5-.5l-1.4-.1v-.7a11.7 11.7 0 003.7-.7v11z" fill="#9A565A"/>
    <path d="M581.5 80.3l.8-.2a4 4 0 011-.2c.6 0 1 .1 1.5.3.5.2.9.5 1.2.9l.8 1.3a5 5 0 01-1.2 5.3c-.5.5-1 .8-1.7 1a5.3 5.3 0 01-3.5.3 4 4 0 01-1.1-.5l-.8-.8a2 2 0 01-.2-1c0-.3 0-.6.2-.8l.7-.2c.2 0 .4 0 .5.2.2.1.3.3.3.5l.2.6c0 .3.2.5.3.7l.5.5.8.2c.5 0 1-.1 1.3-.3l1-1 .5-1.5c.2-.6.2-1.2.2-2 0-1-.1-1.7-.4-2.2-.3-.5-.7-.7-1.4-.7-.5 0-1 .1-1.2.4-.4.3-.6.7-.8 1.3l-.2.4-.3.1c-.2 0-.3-.1-.3-.4v-.1L582 75l.9.2h1.2a6 6 0 002.4-.3h.1c-.1.7-.5 1.3-1 1.6a3 3 0 01-1.8.6h-1.6l-.8 3.2z" fill="#9A565A"/>
    <path fill-rule="evenodd" clip-rule="evenodd" d="M573 87.3l-.3.6-.1.1-.4.2-1 .1v.7h5.5v-.7a5 5 0 01-1 0l-.4-.3-.1-.1c-.2-.2-.3-.4-.3-.7V75a15.2 15.2 0 01-3.8.7v.7a7.3 7.3 0 011.6.2c.1 0 .3.2.3.4v10.2zm-.2-12.8l1.7-.5 1.3-.4V86a8.8 8.8 0 00.1 1.1l.8.1h.7l-.1-.6c0-.5.1-1 .4-1.4.4-.4 1-.6 1.5-.6.4 0 .9 0 1.2.5.3.2.5.5.6.8l.2.8.1.4.2.1h1.1l.6-.7.4-1.2c.2-.5.2-1 .2-1.7 0-1-.1-1.5-.3-1.8 0-.1-.1-.2-.5-.2-.3 0-.5 0-.6.2a2 2 0 00-.5.8l-.1.4-.3.4c-.3.3-.6.4-1 .4-.2 0-.6 0-1-.4-.3-.3-.3-.7-.3-1v-.4l2.2-8.5 1 .4.8.2h1c1.1 0 1.7 0 2-.2l.3-.1 1.4.2-.2 1c-.2 1-.6 1.7-1.3 2.2a4 4 0 01-2.5.8h-.8l-.2.8a4.8 4.8 0 012.3.4c.6.3 1.1.7 1.5 1.1.5.5.8 1 1 1.7.3.6.4 1.3.4 2a6 6 0 01-1.9 4.3c-.5.6-1.2 1-2 1.3a6.3 6.3 0 01-4 .3h-.1a5 5 0 01-1.4-.7l-1-1V90h-7.5v-2.7h1a3.9 3.9 0 00.8 0V87v-7.5-1.7-.5a9 9 0 00-.9 0h-1v-2.6h1l1.7-.3zm13.9 11.6a5 5 0 000-3.7 4 4 0 00-.7-1.3 3.3 3.3 0 00-1.5-1 3.4 3.4 0 00-2-.1 4 4 0 00-1 .4l.8-3.3h1.6a3 3 0 001.9-.6 2.4 2.4 0 00.7-.9 3 3 0 00.2-.6h-.1l-1 .2a10.6 10.6 0 01-2.6 0l-.9-.2-2 7.4v.1c0 .3.2.4.4.4h.3v-.3h.1a3.6 3.6 0 00.1-.4 4.1 4.1 0 01.5-.8 1.8 1.8 0 01.4-.4l.6-.3a2.3 2.3 0 01.8 0c.3 0 .6.2.8.3l.3.4c.3.5.4 1.2.4 2.3 0 .7 0 1.3-.2 2-.1.5-.3 1-.6 1.4a3 3 0 01-.9 1 2.5 2.5 0 01-1.3.3c-.4 0-.6 0-.8-.2a1.5 1.5 0 01-.5-.5 3 3 0 01-.3-.7l-.2-.6c0-.2-.1-.4-.3-.5-.1-.2-.3-.2-.5-.2-.3 0-.5 0-.7.2l-.2.8c0 .4 0 .7.3 1 .1.3.4.6.7.8l1 .5h.1a5.3 5.3 0 001.4.2 5.4 5.4 0 003.7-1.5c.5-.5.9-1 1.1-1.6z" fill="#FEFEFE"/>
    <path fill-rule="evenodd" clip-rule="evenodd" d="M118.9 49.5l-2.9 5-2.9-5h2.4V32h1v17.5h2.4z" fill="#AC6970"/>
    <path d="M114.6 21.3l.8-.2a4 4 0 011-.2c.6 0 1 .1 1.5.3.5.2.9.5 1.2.9l.8 1.3a5 5 0 01-1.2 5.3c-.5.5-1 .8-1.7 1a5.3 5.3 0 01-3.5.3 4 4 0 01-1.1-.5l-.8-.8a2 2 0 01-.2-1c0-.3 0-.6.2-.8l.7-.2c.2 0 .4 0 .5.2.2.1.3.3.3.5l.2.6c0 .3.2.5.3.7 0 .2.3.4.5.5l.8.2c.5 0 1-.1 1.3-.3l1-1 .5-1.5c.2-.6.2-1.2.2-2 0-1-.1-1.7-.4-2.2-.3-.5-.7-.7-1.4-.7-.5 0-1 .1-1.2.4-.4.3-.6.7-.8 1.3l-.2.4-.3.1c-.2 0-.3-.1-.3-.4v-.1l1.9-7.4.9.2h1.2a6 6 0 002.4-.3h.1c-.1.7-.5 1.3-1 1.6a3 3 0 01-1.8.6h-1.6l-.8 3.2z" fill="#9A565A"/>
    <path fill-rule="evenodd" clip-rule="evenodd" d="M113.3 23.4v.1c0 .3 0 .4.3.4h.3v-.3h.1a3.6 3.6 0 00.1-.4 4.1 4.1 0 01.5-.8 1.8 1.8 0 01.4-.4l.6-.3a2.3 2.3 0 01.8 0c.3 0 .6.2.8.3l.3.4c.3.5.4 1.2.4 2.3 0 .7 0 1.3-.2 2-.1.5-.3 1-.6 1.4a3 3 0 01-.9 1 2.5 2.5 0 01-1.3.3c-.4 0-.6 0-.8-.2a1.6 1.6 0 01-.5-.5 3 3 0 01-.3-.7l-.2-.6c0-.2-.1-.4-.3-.5-.1-.2-.3-.2-.5-.2-.3 0-.5 0-.7.2l-.2.8c0 .4 0 .7.2 1l.8.8 1 .5h.1a5.3 5.3 0 001.4.2 5 5 0 002-.4 5.2 5.2 0 002.8-2.7 5 5 0 00.2-3.7 4 4 0 00-.8-1.3 3.3 3.3 0 00-1.5-1 3.4 3.4 0 00-2-.1 4 4 0 00-1 .3l.8-3.2h1.6a3 3 0 001.8-.6 2.4 2.4 0 00.8-.9 3 3 0 00.2-.6h-.1l-1 .2a10.6 10.6 0 01-2.6 0l-1-.2-1.8 7.4zm3-8.2c-.3 0-.5 0-.7-.2l-1-.4-2.3 8.5v.4c0 .3 0 .7.4 1 .3.3.7.4 1 .4a1.3 1.3 0 001.2-.8l.1-.4.5-.8.6-.2c.4 0 .5.1.5.2.2.3.3.8.3 1.8 0 .6 0 1.2-.2 1.7 0 .5-.2.9-.4 1.2l-.6.6-.8.2a1.3 1.3 0 01-.3 0l-.2-.2a2 2 0 01-.1-.4l-.2-.8c-.1-.3-.3-.6-.6-.8-.3-.4-.8-.5-1.2-.5-.6 0-1 .2-1.4.6-.4.4-.5 1-.5 1.4 0 .5.1 1 .4 1.5.2.4.6.8 1 1v.1l1.4.7 1.7.2a6.3 6.3 0 004.4-1.8 6 6 0 001.5-6.3c-.2-.6-.5-1.2-1-1.7-.4-.4-.9-.8-1.5-1a4.4 4.4 0 00-2.3-.5l.2-.8h.8a4 4 0 002.5-.8c.7-.5 1-1.2 1.3-2.1l.2-1-1.5-.3-.2.1c-.3.2-.9.3-2 .3h-1z" fill="#FEFEFE"/>
    <path fill-rule="evenodd" clip-rule="evenodd" d="M231.9 67.5l-2.9 5-2.9-5h2.4V50h1v17.5h2.4z" fill="#AC6970"/>
    <path d="M228.8 41.4c-.6.4-1.2.9-1.5 1.5-.4.5-.5 1.1-.5 1.8 0 .8.2 1.5.7 2 .5.4 1.1.7 2 .7.8 0 1.5-.3 2-.7.4-.5.7-1.1.7-2a2.1 2.1 0 00-.5-1.3l-.7-.7-1-.7-1.2-.6zm2.1-1.2c2 1 3 2.4 3 4 0 .5-.2 1-.4 1.6-.2.4-.6.9-1 1.2-.3.4-.8.7-1.4.9a5.6 5.6 0 01-3.5 0l-1.3-.7-1-1a3 3 0 01-.2-1.4c0-1.5 1-2.8 3-3.7-1.7-1-2.6-2.1-2.6-3.5a3.5 3.5 0 011.2-2.6c.7-.7 1.6-1 2.7-1 1 0 1.8.2 2.5.7.5.3.8.7 1 1.1.3.4.4.9.4 1.3 0 .7-.2 1.2-.6 1.7-.3.6-1 1-1.8 1.4zm-.7-.4a4 4 0 001.2-1.2 2.5 2.5 0 00.2-2.3l-.5-.8-.8-.5c-.3-.2-.6-.2-1-.2-.7 0-1.2.2-1.6.5a2 2 0 00-.6 1.6c0 .4.2.9.5 1.3l1.7 1.2.9.4z" fill="#9A565A"/>
    <path fill-rule="evenodd" clip-rule="evenodd" d="M231.7 43.4l-.7-.7-1-.7-1.2-.6-.4.3a4 4 0 00-1.1 1.2c-.4.5-.5 1.1-.5 1.8 0 .8.2 1.5.7 2a2.4 2.4 0 00.5.3 3 3 0 001.5.4c.5 0 1-.1 1.3-.3a2.3 2.3 0 00.8-.6c.4-.4.6-1 .6-1.7a2.1 2.1 0 00-.5-1.4zm.5 3.9a4.5 4.5 0 01-2.7.9 5.8 5.8 0 01-2.1-.4l-1.1-.6-1-1a3 3 0 01-.2-1.4c0-1.2.6-2.2 1.8-3a7.6 7.6 0 011.2-.7 8.6 8.6 0 01-1-.7c-1-.8-1.6-1.7-1.6-2.8a3.5 3.5 0 011.2-2.6l.3-.3a3.9 3.9 0 012.4-.7l1.2.1a4.3 4.3 0 011.3.6c.5.3.8.7 1 1.1.3.4.4.9.4 1.3 0 .7-.2 1.2-.6 1.7a3.6 3.6 0 01-.9.9l-.9.5a10.1 10.1 0 011 .6c1.3 1 2 2 2 3.4 0 .5-.2 1-.4 1.6a3.8 3.8 0 01-1.3 1.5zm.6-7a5 5 0 011.6 5.9 5.3 5.3 0 01-2.9 2.6c-.7.3-1.4.4-2.1.4a5.9 5.9 0 01-3.7-1.2c-.5-.4-.9-.9-1.2-1.4a4 4 0 01-.4-1.8c0-1.6.8-2.8 2.1-3.8a4.4 4.4 0 01-1.3-5.2l1.1-1.6c1-.8 2.1-1.2 3.4-1.2 1.1 0 2.2.3 3 .9.6.4 1 .9 1.4 1.4.3.6.5 1.2.5 1.8 0 .9-.3 1.6-.8 2.3l-.7.8zm-3.5-1c-.8-.3-1.3-.7-1.7-1.1a2.1 2.1 0 01-.2-2.5l.3-.4a2.3 2.3 0 011.7-.5 2.4 2.4 0 011.7.7l.5.8.2 1c0 .4-.2.9-.4 1.3a3.4 3.4 0 01-.8 1 5 5 0 01-.4.2l-.9-.4zm.8-.7l-.3-.1c-.8-.4-1.2-.7-1.4-1a1 1 0 01-.3-.6c0-.4.1-.7.3-.8.2-.2.4-.3 1-.3h.5v.1c.2 0 .3.2.4.3l.4.4v.6c0 .3 0 .6-.2.9l-.4.5zm.6 7.3c.3-.2.5-.6.5-1.1v-.4h-.1c0-.1 0-.3-.2-.4l-.5-.5-1-.6-.5-.3-.8.8c-.2.4-.3.8-.3 1.3 0 .6.1 1 .4 1.2.3.3.6.5 1.3.5.6 0 1-.2 1.2-.5z" fill="#FEFEFE"/>
    <path fill-rule="evenodd" clip-rule="evenodd" d="M15 32h-1v-1h1v1zm4.1 0h-2v-1h2v1zm4 0h-2v-1h2v1zm4.2 0h-2v-1h2v1zm4 0h-2v-1h2v1zm4.1 0h-2v-1h2v1zm4.1 0h-2v-1h2v1zm4.1 0h-2v-1h2v1zm4 0h-2v-1h2v1zm4.2 0h-2v-1h2v1zm4 0h-2v-1h2v1zm4.1 0h-2v-1h2v1zm3.1 0h-1v-1h1v1z" fill="#9A565A"/>
  </g>
  <defs>
    <clipPath id="clip0">
      <rect width="600" height="150" fill="#fff"/>
    </clipPath>
  </defs>
</svg>