<svg xmlns="http://www.w3.org/2000/svg" viewBox="0 0 999 217.2">
  <path fill="#fff" d="M0 0h999v217.2H0z"/>
  <path fill="#333" d="M43.4 78h-1.8L31 46.1a865.6 865.6 0 00-2.5-8.1H25v-2.6h14.6v2c-2.3.1-3.7.7-4.2 1.6-.4 1-.3 2.6.3 5 .7 2.6 1.4 5 2.2 7.1a123 123 0 012.4 6.8 84 84 0 001.7 5l1.8 5.1a527 527 0 002.5-7.9 815 815 0 018-24.8h2A98.8 98.8 0 0060 46.8a805.2 805.2 0 017.2 22h.1A548.5 548.5 0 0175 45a79.6 79.6 0 012.8-7.2 96.2 96.2 0 01-4.8.2v-2.7h12.2v2c-1.4.2-2.4.5-3.2 1-.8.4-1.5 1.2-2 2.4a47 47 0 00-2.2 5.5 2531 2531 0 00-5.4 16C70.7 67.7 68.8 72.9 67 78h-1.8L56 52a587.8 587.8 0 01-2-6 175.2 175.2 0 01-2 6l-8.6 26zm56 .4c-2.7 0-5.3-.6-7.5-2-2.3-1.2-4.1-3-5.5-5.3a18 18 0 010-16.4c1.3-2.6 3.1-4.6 5.4-6a14 14 0 017.7-2.2 14.8 14.8 0 0113 7.4 15 15 0 012.1 7.8c0 3.1-.7 6-2 8.5a15.9 15.9 0 01-5.4 6 13.8 13.8 0 01-7.7 2.2zm.6-2.4a7 7 0 005-1.8c1.2-1.2 2.1-2.8 2.7-4.7a27.6 27.6 0 00.3-11.4c-.4-1.7-.9-3.3-1.6-4.7a9.4 9.4 0 00-2.8-3.4 6.7 6.7 0 00-4.1-1.2c-2 0-3.8.6-5.1 1.8a10.6 10.6 0 00-3 4.6 24 24 0 000 13.2c.8 2.3 1.9 4.1 3.3 5.5A7.2 7.2 0 00100 76zm32 1.4h-12.3v-1.8c1.2 0 2.1-.3 2.6-.9.5-.6.7-1.5.8-2.6l.1-3.8V54.6a61.5 61.5 0 01.3-3.9 1348.5 1348.5 0 00-4.3.3v-2.5c1.8 0 3.1-.1 4-.3a7 7 0 002-.6c.5-.2.8-.5 1.1-.8h1.7l.2 1.4V50c1.3-1 2.7-1.9 4.2-2.5a12 12 0 019.7 0 8 8 0 013.2 3c1.4-1.1 3-2 4.7-2.8a13 13 0 015.3-1.2c3.5 0 6 1 7.7 3.1 1.6 2.1 2.4 5.6 2.3 10.3v11.2a66.9 66.9 0 01-.3 4 62.7 62.7 0 013.8-.1v2.4h-12.3v-1.8c1.3 0 2.1-.3 2.6-.9.5-.6.8-1.5.9-2.6V60c0-3.4-.5-6-1.6-7.7-1-1.7-2.8-2.6-5.2-2.5a9 9 0 00-3.7.8c-1.2.6-2.3 1.3-3.2 2.1a12.6 12.6 0 01.6 4.4 407.2 407.2 0 00-.2 16.2c0 .6 0 1.3-.2 2a62.7 62.7 0 013.8-.2v2.4h-12.2v-1.8c1.2 0 2-.3 2.5-.9a5 5 0 00.9-2.6l.1-3.8V60c.1-3.4-.4-6-1.4-7.8-1-1.7-2.8-2.6-5.1-2.6-1.3 0-2.5.3-3.7.9-1.2.5-2.2 1.2-3 2a41.4 41.4 0 000 3.3V71a66.9 66.9 0 01-.2 4 62.7 62.7 0 013.7-.1v2.4zm55.9 1c-2.8 0-5.3-.6-7.5-2-2.2-1.2-4-3-5.3-5.5-1.2-2.3-1.9-5.2-1.9-8.4 0-2.8.7-5.4 2-7.9a14 14 0 0113.2-8.2c1.6 0 3.2.4 4.7.9a10.8 10.8 0 016.5 6.6c.6 1.7 1 3.6 1 5.8l-21.2.4c0 3 .3 5.7 1 8s1.7 4.1 3.2 5.4a8.5 8.5 0 005.7 1.8c1.2 0 2.5-.2 3.8-.6a15 15 0 003.6-1.8 11 11 0 002.7-2.5l1.5 1.2c-1.1 1.6-2.4 3-4 4a16.4 16.4 0 01-9 2.8zm-8.3-20.8h15.3c0-1.5-.2-2.8-.6-4.2a7.2 7.2 0 00-2.1-3.3c-1-.8-2.2-1.3-3.8-1.3-2.3 0-4.2.7-5.8 2.1-1.5 1.4-2.5 3.6-3 6.7zM218 77.4h-12.2v-1.8c1.2 0 2-.3 2.5-.9.5-.6.8-1.5.9-2.6l.1-3.8V54.6a61.5 61.5 0 01.3-3.9 1348.5 1348.5 0 00-4.3.3v-2.5c1.8 0 3.1-.1 4-.3a7 7 0 002-.6c.5-.2.8-.5 1.1-.8h1.8v1a34.5 34.5 0 00.2 2.7 18 18 0 016.3-3.5 12 12 0 013.5-.5c3.5 0 6 1 7.6 3.3 1.6 2.1 2.4 5.5 2.4 10.1v11.2a66.9 66.9 0 01-.2 4 62.7 62.7 0 013.7-.1v2.4h-12.2v-1.8c1.2 0 2.1-.3 2.6-.9.5-.6.7-1.5.8-2.6l.1-3.8V60c0-3.4-.6-6-1.7-7.8-1-1.7-2.8-2.6-5.2-2.6-1.4 0-2.8.5-4.2 1.2a11 11 0 00-3.4 2.7V71.1a66.9 66.9 0 01-.3 4 62.7 62.7 0 013.8-.1v2.4zm54.8 1c-2.8 0-5.3-.6-7.6-2-2.3-1.2-4-3-5.4-5.3-1.4-2.3-2-5-2-8s.6-6 2-8.5c1.3-2.5 3-4.5 5.4-6a14 14 0 017.6-2.1 14.8 14.8 0 0113.1 7.4 15 15 0 012 7.8c0 3.1-.6 6-2 8.5a15.9 15.9 0 01-5.4 6 13.8 13.8 0 01-7.7 2.2zm.5-2.4a7 7 0 005-1.8c1.3-1.2 2.2-2.8 2.7-4.7a27.6 27.6 0 00.3-11.4c-.3-1.7-.8-3.3-1.6-4.7A9.4 9.4 0 00277 50a6.7 6.7 0 00-4-1.2c-2.1 0-3.8.6-5.2 1.8a10.6 10.6 0 00-2.9 4.6 24 24 0 000 13.2c.8 2.3 1.8 4.1 3.2 5.5a7.2 7.2 0 005.3 2.1zm23.2-28.6v-1.2c0-4.5.8-8 2.5-10.5 1.6-2.6 4.4-3.9 8.3-3.9 1 0 1.8.2 2.8.5 1 .3 1.9.8 2.6 1.4.7.7 1 1.5 1 2.6a3 3 0 01-.6 2c-.4.4-1 .7-1.8.7-1 0-1.6-.3-2-.9-.4-.6-.6-1.1-.6-1.6v-.7l.3-.8c-.3-.3-.7-.6-1.2-.8l-1.4-.2c-1.2 0-2.2.4-2.8 1a6 6 0 00-1.5 2.8c-.3 1-.4 2.2-.4 3.3v6.3h8v2.4l-8 .2v21a66.9 66.9 0 01-.2 4.2 62.7 62.7 0 013.8-.2v2.4h-12.2v-1.8c1.2 0 2-.3 2.5-.9.5-.6.8-1.5.9-2.6V50l-4.9.1v-2.7h5zm43.6 31c-1 0-1.9-.1-2.8-.4-1-.2-1.9-.8-2.7-1.5a7.7 7.7 0 01-2-3.3 19 19 0 01-.7-5.8l.2-17.4h-4.7v-2.6a6 6 0 003.2-1.1c1-.8 2-1.8 3-3 .8-1.3 1.4-2.7 1.7-4.3h2v8.4h10.1v2.4l-10 .1-.2 16.7c0 1.8.2 3.3.5 4.6.3 1.2.8 2.2 1.4 2.8.7.7 1.6 1 2.7 1 1 0 2.1-.3 3.1-1 1-.6 1.9-1.5 2.6-2.6l1.7 1.3a16 16 0 01-2.7 3.1c-.8.8-1.6 1.4-2.4 1.7a8 8 0 01-2.3.8l-1.7.1zm31.2-1v-1.8c1.2 0 2-.3 2.6-.9.4-.6.7-1.5.8-2.6l.1-3.8V60c0-3.4-.5-6-1.6-7.7-1.1-1.7-2.9-2.6-5.2-2.5a10.7 10.7 0 00-7.8 3.7V71a33.5 33.5 0 01-.3 4 62.7 62.7 0 013.8-.1v2.4h-12.3v-1.8c1.3 0 2.1-.3 2.6-.9.5-.6.8-1.5.9-2.6l.1-3.8V40a53.2 53.2 0 01.2-3.9 1348.5 1348.5 0 00-4.3.3v-2.5c1.8 0 3.2-.1 4.2-.3 1-.1 1.7-.3 2.2-.6.5-.2.9-.5 1.2-.8h1.7v18.3a19.5 19.5 0 016.4-3.4c1.2-.3 2.3-.5 3.4-.5 3.5 0 6 1 7.6 3.3 1.5 2.1 2.3 5.5 2.3 10.1v11.2a66.9 66.9 0 01-.1 4 62.7 62.7 0 013.7-.1v2.4h-12.2zm31.2 1c-2.8 0-5.3-.6-7.5-2-2.2-1.2-4-3-5.2-5.5-1.3-2.3-2-5.2-2-8.4 0-2.8.7-5.4 2-7.9a14 14 0 0113.2-8.2c1.6 0 3.2.4 4.7.9a10.8 10.8 0 016.5 6.6c.6 1.7 1 3.6 1 5.8l-21.2.4c0 3 .4 5.7 1 8 .7 2.3 1.7 4.1 3.2 5.4a8.5 8.5 0 005.7 1.8c1.3 0 2.5-.2 3.8-.6a15 15 0 003.7-1.8 11 11 0 002.7-2.5l1.4 1.2c-1 1.6-2.4 3-3.9 4a16.4 16.4 0 01-9.1 2.8zm-8.3-20.8h15.3c0-1.5-.2-2.8-.6-4.2a7.2 7.2 0 00-2-3.3c-1-.8-2.3-1.3-3.9-1.3-2.3 0-4.2.7-5.8 2.1-1.5 1.4-2.5 3.6-3 6.7zm54.7 20h-2.3l-7.9-23a78.5 78.5 0 00-1.5-4.9l-3.2.2v-2.5h12.7v1.8c-1.8 0-2.8.7-3 1.9-.1 1.2 0 2.7.7 4.6l2.8 8.4a499.5 499.5 0 011.9 5.8 317.7 317.7 0 012.2-6.6l5.4-15.9h2.4l6 17.5 1 2.7 1 2.8A211 211 0 00469 65l4-11.4a71.1 71.1 0 011.8-4l-3.5.2v-2.5h10.4v1.8c-1 0-1.9.2-2.5.5a5 5 0 00-1.7 1c-.4.3-.8.8-1 1.4l-.8 1.9-8.7 23.6h-2.4L459 61.2l-.7-2-.7-2.2-.7-2-.8 2-.7 2.1-.7 2.1-5.6 16.4zm49.6.8c-2.8 0-5.4-.6-7.6-2-2.3-1.2-4.1-3-5.5-5.3a18 18 0 010-16.4c1.3-2.6 3.1-4.6 5.4-6a14 14 0 017.7-2.2 14.8 14.8 0 0113 7.4 15 15 0 012.1 7.8c0 3.1-.7 6-2 8.5a15.9 15.9 0 01-5.4 6 13.8 13.8 0 01-7.7 2.2zm.5-2.4a7 7 0 005-1.8c1.2-1.2 2.1-2.8 2.7-4.7a27.6 27.6 0 00.3-11.4c-.4-1.7-.9-3.3-1.6-4.7a9.4 9.4 0 00-2.8-3.4 6.7 6.7 0 00-4.1-1.2c-2.1 0-3.8.6-5.1 1.8a10.6 10.6 0 00-3 4.6 24 24 0 000 13.2c.8 2.3 1.9 4.1 3.3 5.5A7.2 7.2 0 00499 76zm19.7 1.4v-1.8c1.2 0 2.1-.3 2.6-.9.5-.6.7-1.5.8-2.6l.1-3.8V54.6a61.5 61.5 0 01.3-3.9 79.2 79.2 0 01-4.3.2v-2.4h1.9c1.7 0 2.9-.2 3.5-.5l1.7-1.2h1.7l.2 2.4.1 3.6a14.7 14.7 0 016-5.3c1.3-.7 2.7-1 4.1-1a5 5 0 013 .9c.8.6 1.2 1.5 1.2 2.9 0 .3 0 .7-.3 1.1a2.8 2.8 0 01-2.7 1.7c-.9 0-1.6-.3-2-1a3 3 0 01-.7-2.3c-1 0-2 .2-3 .8-1.1.5-2.1 1.3-3 2.3-1 1-1.8 2.1-2.5 3.4v14.8a66.9 66.9 0 01-.2 4 62.7 62.7 0 013.8-.1v2.4h-12.3zm25.1 0v-1.8c1.3 0 2.1-.3 2.6-.9.5-.6.8-1.5.9-2.6V40a53.2 53.2 0 01.3-3.9 1348.5 1348.5 0 00-4.3.3v-2.5c1.8 0 3.1-.1 4.1-.3 1-.1 1.7-.3 2.2-.6.5-.2 1-.5 1.2-.8h1.7l.1 39a33.5 33.5 0 01-.3 4 62.7 62.7 0 013.8-.1v2.4h-12.3zm29.8 1a12.2 12.2 0 01-11.3-7c-1-2.4-1.7-5-1.7-8.1 0-3.3.7-6.2 2-8.7a15 15 0 0120.5-6.4v-8.3a53.2 53.2 0 01.2-3.9 1348.5 1348.5 0 00-4.3.3v-2.5c1.8 0 3.1-.1 4-.3 1-.1 1.8-.3 2.3-.6.5-.2.9-.5 1.1-.8h1.8v39a30.8 30.8 0 01-.3 4 1348.5 1348.5 0 004.3-.2v2.5h-8.6a21.6 21.6 0 01-.4-3 13.1 13.1 0 01-9.6 4zm2.2-3a8 8 0 004-1c1.3-.8 2.4-1.8 3.3-2.9V70 50.9c-1-.7-2-1.2-3.2-1.6-1.1-.3-2.3-.5-3.5-.5-2 0-3.7.6-5.2 1.8a10.6 10.6 0 00-3.4 4.8c-.7 2.1-1 4.5-1 7.3.1 2.5.5 4.7 1.2 6.6.7 2 1.7 3.4 3 4.5a7.1 7.1 0 004.8 1.7zm49.2 2.2h-2.3l-7.8-23a78.5 78.5 0 00-1.6-4.9l-3.2.2v-2.5H623v1.8c-1.8 0-2.8.7-3 1.9-.2 1.2 0 2.7.7 4.6l2.7 8.4a499.5 499.5 0 012 5.8 317.7 317.7 0 012.2-6.6l5.3-15.9h2.5l6 17.5 1 2.7 1 2.8a211 211 0 001.8-5.3l4-11.4a71.1 71.1 0 011.7-4l-3.5.2v-2.5H658v1.8c-1 0-2 .2-2.6.5a5 5 0 00-1.6 1c-.5.3-.8.8-1.1 1.4l-.8 1.9-8.6 23.6h-2.4L635 61.2l-.7-2-.8-2.2-.7-2-.7 2-.7 2.1-.7 2.1-5.7 16.4zm49.3.8c-2.8 0-5.3-.6-7.5-2-2.2-1.2-4-3-5.3-5.5-1.2-2.3-1.9-5.2-1.9-8.4 0-2.8.7-5.4 2-7.9a14 14 0 0113.2-8.2c1.6 0 3.2.4 4.7.9a10.8 10.8 0 016.5 6.6c.6 1.7 1 3.6 1 5.8l-21.2.4c0 3 .3 5.7 1 8s1.7 4.1 3.2 5.4a8.5 8.5 0 005.7 1.8c1.3 0 2.5-.2 3.8-.6a15 15 0 003.6-1.8 11 11 0 002.8-2.5l1.4 1.2c-1 1.6-2.4 3-4 4a16.4 16.4 0 01-9 2.8zM666 57.6h15.3c0-1.5-.2-2.8-.6-4.2a7.2 7.2 0 00-2.1-3.3c-1-.8-2.2-1.3-3.8-1.3-2.3 0-4.2.7-5.8 2.1-1.5 1.4-2.5 3.6-3 6.7zm53 19.8h-8.6l-.3-1.8-.1-1.6a16.7 16.7 0 01-4.4 3.2c-1.6.8-3.3 1.2-5 1.2-3 0-5.4-.7-6.8-2a6.7 6.7 0 01-2.3-5.1c0-1.9.6-3.5 1.8-4.8a13 13 0 014.4-3.3 29.2 29.2 0 0112.1-2.5V57c0-1.4 0-2.7-.3-4a5.8 5.8 0 00-1.6-3c-.8-.8-2-1.3-3.8-1.3-1.2 0-2.4.2-3.6.7a4.8 4.8 0 00-2.7 2.4c.4.3.6.7.7 1.1l.1 1.2c0 .5-.2 1-.6 1.7-.4.6-1 .9-2 .8-1 0-1.6-.3-2-.8-.4-.6-.7-1.3-.7-2.1 0-1.4.6-2.6 1.6-3.7 1-1 2.4-2 4.2-2.6 1.8-.6 3.8-1 6.1-1 3.4 0 5.9 1 7.5 2.8 1.6 1.7 2.3 4.5 2.3 8.4V62a337.5 337.5 0 01-.3 13 1348.5 1348.5 0 004.3-.2v2.5zm-9.2-14.7a25.8 25.8 0 00-8.4 2 8.5 8.5 0 00-3 2.3c-.8 1-1.2 2.1-1.2 3.5.1 1.5.6 2.6 1.5 3.4 1 .7 2 1 3.2 1 1.7 0 3.1-.2 4.3-.8a16 16 0 003.6-2.7V70v-1.6a173.4 173.4 0 010-5.7zm13.3 14.7v-1.8c1.2 0 2.1-.3 2.6-.9.5-.6.7-1.5.8-2.6l.1-3.8V54.6a61.5 61.5 0 01.3-3.9 79.2 79.2 0 01-4.3.2v-2.4h1.9c1.7 0 2.9-.2 3.6-.5l1.6-1.2h1.7l.2 2.4.1 3.6a14.7 14.7 0 016-5.3c1.3-.7 2.7-1 4.1-1a5 5 0 013 .9c.8.6 1.2 1.5 1.2 2.9 0 .3 0 .7-.3 1.1a2.8 2.8 0 01-2.7 1.7c-.9 0-1.6-.3-2-1a3 3 0 01-.7-2.3c-1 0-2 .2-3 .8-1.1.5-2.1 1.3-3 2.3-1 1-1.8 2.1-2.5 3.4v14.8a66.9 66.9 0 01-.2 4 62.7 62.7 0 013.8-.1v2.4h-12.3zm54 0H765v-1.8c1.2 0 2-.3 2.5-.9.5-.6.8-1.5.9-2.6l.1-3.8V54.6a61.5 61.5 0 01.2-3.9 1348.5 1348.5 0 00-4.2.3v-2.5c1.7 0 3-.1 4-.3a7 7 0 002-.6c.4-.2.8-.5 1-.8h1.8l.2 1.4V50c1.2-1 2.6-1.9 4.2-2.5a12 12 0 019.7 0 8 8 0 013.2 3c1.3-1.1 3-2 4.7-2.8a13 13 0 015.2-1.2c3.5 0 6 1 7.7 3.1 1.7 2.1 2.4 5.6 2.4 10.3l-.1 11.2a66.9 66.9 0 01-.2 4 62.7 62.7 0 013.7-.1v2.4h-12.2v-1.8c1.2 0 2.1-.3 2.6-.9.5-.6.7-1.5.8-2.6l.1-3.8V60c0-3.4-.5-6-1.6-7.7-1.1-1.7-2.8-2.6-5.2-2.5a9 9 0 00-3.7.8c-1.3.6-2.3 1.3-3.3 2.1a12.6 12.6 0 01.6 4.4 407.2 407.2 0 00-.1 16.2l-.2 2a62.7 62.7 0 013.8-.2v2.4h-12.3v-1.8c1.3 0 2.1-.3 2.6-.9a5 5 0 00.8-2.6l.2-3.8V60c0-3.4-.4-6-1.5-7.8-1-1.7-2.7-2.6-5-2.6-1.3 0-2.5.3-3.7.9-1.2.5-2.3 1.2-3.1 2a41.4 41.4 0 000 3.3V71a66.9 66.9 0 01-.2 4 62.7 62.7 0 013.8-.1v2.4zm68.2 0h-8.6l-.2-1.8-.2-1.6a16.7 16.7 0 01-4.4 3.2c-1.6.8-3.2 1.2-5 1.2-3 0-5.3-.7-6.8-2a6.7 6.7 0 01-2.2-5.1c0-1.9.6-3.5 1.7-4.8a13 13 0 014.4-3.3 29.2 29.2 0 0112.1-2.5l.1-3.7c0-1.4-.1-2.7-.4-4a5.8 5.8 0 00-1.5-3c-.8-.8-2.1-1.3-3.9-1.3-1.1 0-2.3.2-3.5.7a4.8 4.8 0 00-2.7 2.4c.3.3.5.7.6 1.1l.2 1.2c0 .5-.2 1-.6 1.7-.4.6-1.1.9-2.1.8-.9 0-1.5-.3-2-.8-.4-.6-.6-1.3-.6-2.1 0-1.4.5-2.6 1.5-3.7 1-1 2.5-2 4.3-2.6 1.8-.6 3.8-1 6-1 3.4 0 6 1 7.5 2.8 1.6 1.7 2.4 4.5 2.4 8.4V62a337.5 337.5 0 01-.3 13 1348.5 1348.5 0 004.2-.2v2.5zm-9.1-14.7a25.8 25.8 0 00-8.4 2 8.5 8.5 0 00-3 2.3c-.9 1-1.2 2.1-1.2 3.5 0 1.5.6 2.6 1.5 3.4.9.7 2 1 3.2 1 1.6 0 3-.2 4.3-.8a16 16 0 003.6-2.7V70v-1.6a173.4 173.4 0 010-5.7zm25 14.7H849v-1.8c1.3 0 2.1-.3 2.6-.9.4-.6.7-1.5.8-2.6l.1-3.8V40a53.2 53.2 0 01.2-3.9 1348.5 1348.5 0 00-4.2.3v-2.5c1.7 0 3.1-.1 4-.3 1-.1 1.7-.3 2.2-.6.5-.2 1-.5 1.2-.8h1.8v28.4h2.4l7.3-7.7a144.7 144.7 0 013.5-3.1l-4 .1v-2.4h10.9v1.8c-1.4.2-2.7.6-3.9 1.3a21 21 0 00-3.2 2.5 62 62 0 00-2.5 2.5l-4.7 5c.8.3 1.5.8 2 1.3a26 26 0 011.7 2l4.3 5.4 1 1.3a34 34 0 001.8 2.3c.7.8 1.4 1.4 2.2 2 .8.6 1.5.8 2.2.8v1.8h-5.4c-1.2 0-2.2-.5-3.2-1.7a100.4 100.4 0 01-8.2-11l-1.8-2-2.4.2V71a66.9 66.9 0 01-.3 4 61.6 61.6 0 013.9-.1v2.4zm34.6 1c-2.8 0-5.3-.6-7.5-2-2.2-1.2-4-3-5.2-5.5-1.3-2.3-2-5.2-2-8.4 0-2.8.7-5.4 2-7.9a14 14 0 0113.2-8.2c1.6 0 3.2.4 4.7.9a10.8 10.8 0 016.5 6.6c.6 1.7 1 3.6 1 5.8l-21.2.4c0 3 .3 5.7 1 8s1.7 4.1 3.2 5.4a8.5 8.5 0 005.7 1.8c1.3 0 2.5-.2 3.8-.6a15 15 0 003.7-1.8 11 11 0 002.7-2.5l1.4 1.2c-1 1.6-2.4 3-3.9 4a16.4 16.4 0 01-9.1 2.8zm-8.3-20.8h15.3c0-1.5-.2-2.8-.6-4.2a7.2 7.2 0 00-2.1-3.3c-1-.8-2.2-1.3-3.8-1.3-2.3 0-4.2.7-5.8 2.1-1.5 1.4-2.5 3.6-3 6.7zm39 20.8c-2.2 0-4-.4-5.5-1.2a7.5 7.5 0 01-3.3-4c-.7-2-1.1-4.6-1.1-7.9V54.6a61.5 61.5 0 01.2-3.9 68.6 68.6 0 01-4.1.2v-2.4h1.9c1.7 0 3-.2 3.7-.5.8-.4 1.4-.8 1.8-1.2h1.8v18.3c0 3.5.5 6 1.4 7.8 1 1.7 2.7 2.5 5 2.4 1.6 0 3-.5 4.4-1.4 1.4-.9 2.5-2 3.3-3.2V55.3a44.4 44.4 0 01.3-4.6 78 78 0 01-4.3.2v-2.4h1.9c1.7 0 3-.2 3.7-.5l1.9-1.2h1.7v22.7a83.7 83.7 0 01-.3 5.7l2.2-.2h2.1v2.4h-8.6a26 26 0 01-.4-3.6 17.7 17.7 0 01-4.5 3.3c-1.7.9-3.5 1.3-5.3 1.3zm34.8 14.3h-12.2V91c1.2 0 2-.3 2.5-.9.5-.6.8-1.5.9-2.6v-3.8l.2-29a61.5 61.5 0 01.3-3.9 1348.5 1348.5 0 00-4.3.3v-2.5c1.8 0 3-.1 4-.3a5 5 0 003-1.4h1.8a56 56 0 01.3 3.3 14.2 14.2 0 019.3-3.6c2.3 0 4.4.6 6.4 1.8 2 1.2 3.7 2.9 4.9 5.1a16 16 0 011.9 8c0 3.4-.8 6.3-2.2 9a15.8 15.8 0 01-5.6 5.9 14.2 14.2 0 01-14.7.1v10a66.9 66.9 0 01-.3 4 62.7 62.7 0 013.8-.1v2.4zm3.5-16.7c2 0 3.6-.6 5-1.8 1.4-1.1 2.4-2.8 3.2-4.8.7-2 1-4.4 1-7 0-2.2-.2-4.3-.9-6.3-.6-2-1.6-3.6-2.9-4.8a7.5 7.5 0 00-5.3-1.9c-1.4 0-2.7.4-4 1-1.2.7-2.2 1.5-3 2.4v5.5a772.4 772.4 0 010 15.4 11.4 11.4 0 007 2.3zM164.9 139h-2.3c0-2.4-.3-4.4-.7-6a6.2 6.2 0 00-2.3-3.5 8 8 0 00-4.8-1h-5l-.1 32.6a111 111 0 01-.2 4.8 2151.6 2151.6 0 005-.3v2.7h-14.1v-2c1.5-.1 2.5-.5 3-1.1.6-.6.9-1.5 1-2.6v-3.7l.1-30.4h-6.2c-2.5 0-4.3.9-5.3 2.6-1 1.6-1.6 4.3-1.6 7.8h-2.2l.4-12.6h35l.3 12.6zm23.3 29.3v-1.8c1.2 0 2-.4 2.6-1 .4-.6.7-1.5.8-2.6l.1-3.8v-8.4c0-3.4-.5-6-1.6-7.7-1.1-1.7-2.9-2.6-5.2-2.5a10.7 10.7 0 00-7.8 3.7v17.7a33.5 33.5 0 01-.3 4 62.7 62.7 0 013.8-.1v2.5h-12.3v-1.8c1.3 0 2.1-.4 2.6-1s.8-1.5.9-2.6l.1-3.8v-28.3a53.2 53.2 0 01.2-4 1348.5 1348.5 0 00-4.3.3v-2.5c1.8 0 3.2-.1 4.1-.3 1-.1 1.8-.3 2.3-.6l1.1-.7h1.8v18.3a19.5 19.5 0 016.4-3.4c1.1-.4 2.3-.6 3.4-.6 3.5 0 6 1 7.5 3.3 1.6 2.1 2.4 5.5 2.4 10.1V162a66.9 66.9 0 01-.2 4 62.7 62.7 0 013.8-.1v2.5h-12.2zm31.2 1c-2.8 0-5.3-.7-7.5-2s-4-3.2-5.2-5.6c-1.3-2.3-2-5.1-2-8.4 0-2.8.7-5.4 2-7.8a14 14 0 0113.2-8.2c1.6 0 3.2.3 4.7.8a10.8 10.8 0 016.5 6.6c.6 1.7 1 3.6 1 5.9l-21.2.3c0 3 .3 5.7 1 8s1.7 4.1 3.2 5.4a8.5 8.5 0 005.7 1.9 15 15 0 007.4-2.5 11 11 0 002.8-2.5l1.4 1.2c-1 1.7-2.4 3-4 4a16.4 16.4 0 01-9 2.8zm-8.3-21h15.3c0-1.3-.2-2.7-.6-4a7.2 7.2 0 00-2.1-3.4c-1-.8-2.2-1.3-3.8-1.3-2.3 0-4.2.7-5.8 2.1-1.5 1.4-2.5 3.6-3 6.7zm41.5 20v-1.8c1.2 0 2-.4 2.5-1s.8-1.5.9-2.6v-32.1a53.2 53.2 0 01.3-4 1348.5 1348.5 0 00-4.3.3v-2.5c1.8 0 3.1-.1 4.1-.3 1-.1 1.7-.3 2.2-.6l1.2-.7h1.8v38.9a33.5 33.5 0 01-.3 4 62.7 62.7 0 013.8-.1v2.5h-12.2zm16.9 0v-1.8c1.2 0 2-.4 2.6-1 .4-.6.7-1.5.8-2.6l.1-3.8v-13.6a26.6 26.6 0 01.3-4 1348.5 1348.5 0 00-4.3.3v-2.5c1.8 0 3.1-.1 4-.3 1-.1 1.8-.3 2.3-.6l1.1-.7h1.8v24.2a66.9 66.9 0 01-.3 4 62.7 62.7 0 013.8-.1v2.5h-12.2zm5.8-36.6a3 3 0 01-2.2-1c-.7-.7-1-1.5-1-2.5s.3-1.9 1-2.6a3 3 0 014.6 0c.6.7.9 1.6.9 2.6s-.3 1.8-1 2.5-1.4 1-2.3 1zm10.4 36.6v-1.8c1.3 0 2.1-.4 2.6-1s.8-1.5.8-2.6l.2-3.8v-28.3a53.2 53.2 0 01.1-4 1348.5 1348.5 0 00-4.2.3v-2.5c1.7 0 3.1-.1 4.1-.3 1-.1 1.7-.3 2.2-.6l1.2-.7h1.7v38.9a33.5 33.5 0 01-.2 4 62.7 62.7 0 013.8-.1v2.5h-12.3zm21.3 16.2c-1.3 0-2.3-.3-3.2-.9-.9-.6-1.3-1.5-1.3-2.7 0-.8.2-1.4.7-2 .5-.6 1-1 1.8-1 1 0 1.7.3 2 1 .3.6.5 1.2.5 1.7v.8l.6.1c.5 0 1-.2 1.6-.6.5-.4 1-1 1.5-1.7.5-1 1.1-2.2 1.8-4l2.4-6.3-9.4-20a62 62 0 01-3.2-8.3l-2.9.1v-2.4h12.5v1.8h-.3c-1.7 0-2.6.7-2.7 1.8-.2 1.2.3 3 1.3 5.2l7 15a385.4 385.4 0 006.2-17.7l1-2.5c.4-.8.7-1.2 1-1.4l-4.2.2v-2.4h9.4v1.8a6.2 6.2 0 00-3.3 2.7 35 35 0 00-2.2 5l-7.5 21c-1.2 3.4-2.3 6.2-3.3 8.5-1 2.4-2.1 4.2-3.3 5.4a6 6 0 01-4.5 1.8zm42.8-16.2v-1.8c1.2 0 2.1-.4 2.6-1s.7-1.5.8-2.6l.1-3.8v-13.6a26.6 26.6 0 01.3-4 1348.5 1348.5 0 00-4.3.3v-2.5c1.8 0 3.1-.1 4.1-.3 1-.1 1.7-.3 2.2-.6l1.2-.7h1.7v24.2a66.9 66.9 0 01-.2 4 62.7 62.7 0 013.7-.1v2.5h-12.2zm5.8-36.6a3 3 0 01-2.2-1c-.6-.7-1-1.5-1-2.5s.4-1.9 1-2.6a3 3 0 014.6 0c.6.7 1 1.6 1 2.6s-.4 1.8-1 2.5c-.7.7-1.5 1-2.4 1zm23.3 36.6h-12.2v-1.8c1.2 0 2-.4 2.5-1s.8-1.5.9-2.6l.1-3.8v-13.6a61.5 61.5 0 01.3-4 1348.5 1348.5 0 00-4.3.3v-2.5c1.8 0 3.1-.1 4-.3a7 7 0 002-.6l1.1-.7h1.8v1a34.5 34.5 0 00.2 2.6 18 18 0 016.3-3.5 12 12 0 013.5-.5c3.5 0 6 1 7.6 3.3 1.6 2.1 2.4 5.5 2.4 10.1V162a66.9 66.9 0 01-.2 4 62.7 62.7 0 013.7-.1v2.5h-12.2v-1.8c1.2 0 2.1-.4 2.6-1s.7-1.5.8-2.6l.1-3.8v-8.4c0-3.4-.6-6-1.7-7.8-1-1.7-2.8-2.6-5.2-2.5-1.4 0-2.8.4-4.2 1a11 11 0 00-3.4 2.9v17.6a66.9 66.9 0 01-.3 4 62.7 62.7 0 013.8-.1v2.5zm51.2 1c-.9 0-1.8-.2-2.8-.5-1-.2-1.8-.7-2.6-1.5a7.7 7.7 0 01-2-3.3 19 19 0 01-.7-5.8l.1-17.4h-4.6v-2.5a6 6 0 003.2-1.2 11.8 11.8 0 004.7-7.2h2v8.4h10v2.3l-10 .1-.1 16.7c0 1.8.1 3.3.4 4.6.3 1.2.8 2.2 1.5 2.8.7.7 1.5 1 2.6 1s2.2-.3 3.2-1c1-.6 1.8-1.5 2.6-2.6l1.6 1.3a16 16 0 01-2.6 3.1c-.9.8-1.7 1.4-2.5 1.7a8 8 0 01-2.2.8l-1.8.1zm31.2-1v-1.8c1.3 0 2.1-.4 2.6-1s.8-1.5.9-2.6v-12.2c0-3.4-.5-6-1.6-7.7-1-1.7-2.8-2.6-5.2-2.5a10.7 10.7 0 00-7.8 3.7v17.7a33.5 33.5 0 01-.3 4 62.7 62.7 0 013.8-.1v2.5h-12.2v-1.8c1.2 0 2-.4 2.6-1 .4-.6.7-1.5.8-2.6l.2-3.8v-28.3a53.2 53.2 0 01.2-4 1348.5 1348.5 0 00-4.3.3v-2.5c1.8 0 3.1-.1 4.1-.3 1-.1 1.7-.3 2.2-.6l1.2-.7h1.7v18.3a19.5 19.5 0 016.4-3.4c1.2-.4 2.4-.6 3.5-.6 3.5 0 6 1 7.5 3.3 1.5 2.1 2.3 5.5 2.4 10.1V162a66.9 66.9 0 01-.2 4 62.7 62.7 0 013.8-.1v2.5h-12.3zm31.2 1c-2.7 0-5.2-.7-7.4-2-2.3-1.3-4-3.2-5.3-5.6-1.3-2.3-1.9-5.1-1.9-8.4 0-2.8.6-5.4 1.9-7.8 1.2-2.5 3-4.5 5.3-6a14 14 0 018-2.2c1.6 0 3.2.3 4.6.8a10.8 10.8 0 016.5 6.6c.7 1.7 1 3.6 1 5.9l-21.1.3c0 3 .3 5.7 1 8 .6 2.3 1.7 4.1 3.2 5.4a8.5 8.5 0 005.7 1.9 15 15 0 007.4-2.5 11 11 0 002.7-2.5l1.5 1.2c-1.1 1.7-2.4 3-4 4a16.4 16.4 0 01-9 2.8zm-8.2-21h15.3c0-1.3-.3-2.7-.7-4a7.2 7.2 0 00-2-3.4c-1-.8-2.3-1.3-3.8-1.3-2.3 0-4.3.7-5.8 2.1-1.6 1.4-2.6 3.6-3 6.7zm55.8 20.1h-2.4l-8.6-19.5a55.8 55.8 0 01-2.2-6.6l-.3-1.8-2.6.2v-2.4h11v1.8c-1.1 0-1.9.3-2.2.9-.4.6-.4 1.4-.2 2.4l1 3.3 4.7 10.6a42.5 42.5 0 011.8 4.4 47.1 47.1 0 011.5-3.9l4.8-13.1a19.3 19.3 0 011.8-4.2l-3.9.2v-2.4h9.5v1.8a3 3 0 00-2.2.9c-.6.6-1.2 1.5-1.7 2.7l-2 4.5-7.8 20.2zm42.7-.1h-8.5l-.3-1.8c0-.6 0-1.1-.2-1.7a16.7 16.7 0 01-4.4 3.2c-1.6.8-3.2 1.2-5 1.2-3 0-5.3-.7-6.8-2a6.7 6.7 0 01-2.2-5.1c0-1.9.6-3.5 1.7-4.8a13 13 0 014.5-3.3 29.2 29.2 0 0112.1-2.5v-3.7c0-1.4-.1-2.7-.3-4a5.8 5.8 0 00-1.6-3c-.8-.8-2-1.2-3.8-1.3-1.2 0-2.4.2-3.6.7a4.8 4.8 0 00-2.7 2.4c.3.4.5.7.6 1.1l.2 1.2c0 .5-.2 1-.6 1.7-.4.6-1.1.9-2.1.8-.8 0-1.5-.3-2-.8-.4-.6-.6-1.3-.6-2.1 0-1.4.5-2.6 1.5-3.7 1-1 2.5-2 4.3-2.5 1.8-.7 3.8-1 6-1 3.5 0 6 .9 7.5 2.7 1.6 1.7 2.4 4.6 2.4 8.4v4.5a337.5 337.5 0 01-.3 13 1348.5 1348.5 0 004.2-.2v2.6zm-9-14.7a25.8 25.8 0 00-8.5 1.8 8.5 8.5 0 00-3 2.4c-.9 1-1.2 2.2-1.2 3.6s.6 2.5 1.5 3.3c.9.7 2 1 3.2 1 1.6 0 3-.2 4.3-.8a16 16 0 003.6-2.6v-1.5-1.6a173.4 173.4 0 010-5.6zm12.6 14.7v-1.8c1.2 0 2-.4 2.6-1 .4-.6.7-1.5.8-2.6l.1-3.8v-28.3a53.2 53.2 0 01.2-4 1348.5 1348.5 0 00-4.3.3v-2.5c1.8 0 3.2-.1 4.1-.3 1-.1 1.8-.3 2.3-.6l1.1-.7h1.8v38.9a33.5 33.5 0 01-.3 4 62.7 62.7 0 013.8-.1v2.5h-12.2zm16.3 0v-1.8c1.2 0 2-.4 2.6-1 .4-.6.7-1.5.8-2.6l.1-3.8v-28.3a53.2 53.2 0 01.2-4 1348.5 1348.5 0 00-4.3.3v-2.5c1.8 0 3.2-.1 4.2-.3 1-.1 1.7-.3 2.2-.6l1.1-.7h1.8v38.9a33.5 33.5 0 01-.3 4 62.7 62.7 0 013.8-.1v2.5h-12.2zm31.4 1c-2.7 0-5.2-.7-7.4-2-2.3-1.3-4-3.2-5.3-5.6-1.3-2.3-2-5.1-2-8.4 0-2.8.7-5.4 2-7.8 1.2-2.5 3-4.5 5.3-6a14 14 0 018-2.2c1.6 0 3.2.3 4.6.8a10.8 10.8 0 016.5 6.6c.7 1.7 1 3.6 1 5.9l-21.1.3c0 3 .3 5.7 1 8 .6 2.3 1.7 4.1 3.2 5.4a8.5 8.5 0 005.7 1.9 15 15 0 007.4-2.5 11 11 0 002.7-2.5l1.4 1.2c-1 1.7-2.3 3-3.9 4a16.4 16.4 0 01-9 2.8zm-8.3-21h15.3c0-1.3-.2-2.7-.6-4a7.2 7.2 0 00-2-3.4c-1-.8-2.3-1.3-3.8-1.3-2.4 0-4.3.7-5.8 2.1-1.6 1.4-2.6 3.6-3 6.7zm30.6 36.2c-1.2 0-2.3-.3-3.1-.9-1-.6-1.4-1.5-1.4-2.7 0-.8.3-1.4.8-2 .4-.6 1-1 1.8-1 1 0 1.6.3 2 1 .3.6.5 1.2.5 1.7v.8l.6.1c.5 0 1-.2 1.5-.6.6-.4 1.1-1 1.5-1.7.6-1 1.2-2.2 1.9-4 .7-1.7 1.5-3.8 2.3-6.3l-9.3-20a62 62 0 01-3.2-8.3l-2.9.1v-2.4h12.4v1.8h-.2c-1.7 0-2.6.7-2.8 1.8-.1 1.2.3 3 1.4 5.2l7 15a385.4 385.4 0 006.2-17.7l1-2.5c.4-.8.7-1.2 1-1.4l-4.2.2v-2.4h9.4v1.8a6.2 6.2 0 00-3.3 2.7 35 35 0 00-2.3 5l-7.5 21c-1.2 3.4-2.3 6.2-3.3 8.5-1 2.4-2 4.2-3.3 5.4a6 6 0 01-4.5 1.8zm42.9-16.2v-1.8c1.2 0 2-.4 2.6-1 .4-.6.7-1.5.8-2.6l.1-3.8v-13.6a26.6 26.6 0 01.3-4 1348.5 1348.5 0 00-4.3.3v-2.5c1.8 0 3.1-.1 4-.3 1-.1 1.8-.3 2.3-.6l1.1-.7h1.8v24.2a66.9 66.9 0 01-.3 4 62.7 62.7 0 013.8-.1v2.5h-12.2zm5.8-36.6a3 3 0 01-2.2-1c-.7-.7-1-1.5-1-2.5s.4-1.9 1-2.6a3 3 0 014.6 0c.6.7.9 1.6.9 2.6s-.3 1.8-1 2.5c-.6.7-1.4 1-2.3 1zm23.3 37.5a16.3 16.3 0 01-9.1-2.6l.2 2H717l-.4-10.2h1.9a8.8 8.8 0 004.6 7.4 9.4 9.4 0 007.3.6c1-.4 1.9-.9 2.5-1.6.7-.7 1-1.6 1-2.7a4 4 0 00-1-2.8 9 9 0 00-2.5-2l-3.5-1.5-3.6-1.5c-1.2-.5-2.3-1.1-3.3-1.8s-1.9-1.6-2.5-2.7c-.6-1-.9-2.3-.9-3.8a9.1 9.1 0 012.1-5.6c.8-1 1.8-1.7 3.1-2.2 1.4-.6 3-1 5-1 1.2 0 2.4.3 3.7.6 1.3.4 2.6 1 3.8 2l-.1-2.2h2.5V148h-1.9c0-1.4-.4-2.8-1-4a8.2 8.2 0 00-2.4-3.3c-1.1-.9-2.5-1.3-4.2-1.3-1.9 0-3.3.5-4.3 1.4-1 1-1.6 2-1.6 3.2 0 1.2.4 2.2 1.2 3 .8.9 1.8 1.6 3 2.2l4 1.7 4.4 2.1c1.4.8 2.6 1.7 3.5 2.9 1 1.1 1.4 2.6 1.4 4.4 0 2-.5 3.7-1.5 5a9 9 0 01-4 2.9c-1.5.6-3.1 1-4.9 1zm42.6 0c-1 0-1.9-.1-2.8-.4-1-.2-1.9-.7-2.7-1.5a7.7 7.7 0 01-2-3.3 19 19 0 01-.7-5.8l.1-17.4h-4.6v-2.5a6 6 0 003.2-1.2c1-.8 2-1.8 3-3 .8-1.3 1.4-2.7 1.7-4.2h2v8.4h10.1v2.3l-10 .1-.2 16.7c0 1.8.1 3.3.4 4.6.3 1.2.8 2.2 1.5 2.8.7.7 1.6 1 2.7 1 1 0 2.1-.3 3.1-1 1-.6 1.9-1.5 2.6-2.6l1.6 1.3a16 16 0 01-2.6 3.1c-.8.8-1.7 1.4-2.5 1.7a8 8 0 01-2.2.8l-1.7.1zm12-1v-1.7c1.2 0 2-.4 2.5-1s.8-1.5.8-2.6l.2-3.8v-13.6a26.6 26.6 0 01.2-4 1348.5 1348.5 0 00-4.3.3v-2.5c1.8 0 3.2-.1 4.1-.3 1-.1 1.7-.3 2.2-.6l1.2-.7h1.7v24.2a66.9 66.9 0 01-.2 4 62.7 62.7 0 013.8-.1v2.5h-12.3zm5.7-36.5a3 3 0 01-2.2-1c-.6-.7-1-1.5-1-2.5s.4-1.9 1-2.6a3 3 0 014.6 0c.6.7 1 1.6 1 2.6s-.4 1.8-1 2.5c-.7.7-1.5 1-2.4 1zm23.3 36.6h-12.2v-1.8c1.2 0 2-.4 2.6-1 .4-.6.7-1.5.8-2.6l.1-3.8v-13.6a61.5 61.5 0 01.3-4 1348.5 1348.5 0 00-4.2.3v-2.5c1.7 0 3-.1 4-.3a7 7 0 002-.6l1-.7h1.8v1a34.5 34.5 0 00.2 2.6 18 18 0 016.3-3.5 12 12 0 013.5-.5c3.5 0 6 1 7.6 3.3 1.6 2.1 2.4 5.5 2.4 10.1V162a66.9 66.9 0 01-.2 4 62.7 62.7 0 013.8-.1v2.5h-12.3v-1.8c1.3 0 2.1-.4 2.6-1s.8-1.5.8-2.6l.2-3.8v-8.4c0-3.4-.7-6-1.8-7.8-1-1.7-2.8-2.6-5.1-2.5-1.5 0-2.9.4-4.3 1a11 11 0 00-3.4 2.9v17.6a66.9 66.9 0 01-.3 4 62.7 62.7 0 013.8-.1v2.5zm28.4 16.2c-1.2 0-2.3-.3-3.2-.9-.9-.6-1.3-1.5-1.3-2.7 0-.8.2-1.4.7-2 .5-.6 1.1-1 1.9-1 1 0 1.6.3 2 1 .3.6.4 1.2.4 1.7v.8l.6.1c.5 0 1-.2 1.6-.6.6-.4 1-1 1.5-1.7.5-1 1.1-2.2 1.8-4l2.4-6.3-9.4-20a62 62 0 01-3.1-8.3l-3 .1v-2.4h12.5v1.8h-.2c-1.7 0-2.6.7-2.8 1.8-.2 1.2.3 3 1.4 5.2l7 15a385.4 385.4 0 006.1-17.7l1-2.5c.4-.8.7-1.2 1-1.4l-4.1.2v-2.4h9.4v1.8a6.2 6.2 0 00-3.4 2.7 35 35 0 00-2.2 5l-7.5 21c-1.2 3.4-2.3 6.2-3.3 8.5-1 2.4-2.1 4.2-3.3 5.4a6 6 0 01-4.5 1.8z" style="white-space:pre"/>
  <path fill="#909090" d="M914.6 208.3h-2.8v-.7l.9-.1v-6.2l-.9-.1v-.7h5.9v1.9h-.9v-1.1h-3v2.7h2.8v.8h-2.9v2.7l1 .1v.7zm6 .1c-.5 0-1-.1-1.3-.4-.4-.2-.7-.6-1-1l-.2-1.5v-.2c0-.5 0-1 .3-1.5a2.4 2.4 0 012.2-1.4c.6 0 1 .1 1.4.4.4.2.7.6 1 1l.3 1.5v.2c0 .5-.2 1-.4 1.5-.2.4-.5.8-.9 1-.4.3-.8.4-1.3.4zm0-.8c.4 0 .7-.1 1-.3l.4-.7.2-1.1v-.2c0-.4 0-.7-.2-1 0-.4-.3-.6-.5-.8-.2-.2-.5-.3-.9-.3-.3 0-.6.1-.8.3-.2.2-.4.4-.5.8l-.2 1v.2c0 .4 0 .7.2 1 .1.4.3.6.5.8.2.2.5.3.9.3zm6.3.7H924v-.7l.8-.1v-4.2l-.8-.1v-.7h1.8v.9l.8-.8a2 2 0 011-.2c.6 0 1.1.2 1.4.5.4.4.6 1 .6 1.7v2.9l.8.1v.7h-2.8v-.7l.9-.1v-2.8c0-.6-.1-1-.3-1.1-.2-.3-.5-.4-1-.4-.2 0-.5.1-.7.3-.3.1-.5.3-.6.6v3.4l.9.1v.7zm6.2 0c-.4 0-.8 0-1-.3-.3-.2-.4-.6-.4-1.2v-3.5h-.9v-.8h1V201h1v1.4h1.2v.8h-1.2v3.5l.1.6c.1.2.3.2.5.2h.8l.1.6a4.9 4.9 0 01-1.2.2zm3.3 0h-1v-1h1v1zm0-4.7h-1v-1.1h1v1zm9.2 4.7H940v-.7l.9-.1v-6.2l-.9-.1v-.7h2.9v.7l-1 .1v6.2h2.8l.1-1.2h.8v2zm3.6.1c-.5 0-1-.1-1.4-.4-.4-.2-.7-.6-.9-1l-.3-1.5v-.2l.3-1.5a2.4 2.4 0 012.3-1.4c.5 0 1 .1 1.4.4.4.2.7.6.9 1l.3 1.5v.2l-.3 1.5c-.2.4-.5.8-1 1-.3.3-.8.4-1.3.4zm0-.8c.3 0 .6-.1.8-.3l.6-.7.1-1.1v-.2l-.1-1c-.2-.4-.3-.6-.6-.8-.2-.2-.5-.3-.8-.3-.4 0-.6.1-.9.3-.2.2-.4.4-.5.8l-.1 1v.2l.1 1c.1.4.3.6.5.8l.9.3zm6.2.7h-2.8v-.7l.9-.1v-4.2l-.9-.1v-.7h1.8l.1.7v.1l.6-.7.9-.2a2 2 0 01.5 0l-.1 1h-.7a1 1 0 00-.7.2c-.2.1-.4.3-.5.6v3.3l.9.1v.7zm3.7.1c-.6 0-1.1-.1-1.4-.4-.3-.3-.5-.7-.5-1.3 0-.3.1-.7.3-1l.9-.6 1.4-.2h1v-.6a1 1 0 00-.3-.8c-.2-.2-.5-.3-1-.3a2 2 0 00-.5.1c-.2 0-.4.1-.5.3l-.1.8h-.9V203l1-.5 1.1-.1c.7 0 1.3.2 1.7.5.4.3.6.8.6 1.4v3.3h.6v.7h-1.6a11.5 11.5 0 010-.8l-.9.7a2 2 0 01-1 .2zm.1-.9c.4 0 .7 0 1-.2l.6-.6v-1h-1c-.6 0-1 0-1.2.3a1 1 0 00-.3.7c0 .3 0 .5.2.6.2.2.4.2.7.2z" style="white-space:pre"/>
</svg>